<svg xmlns="http://www.w3.org/2000/svg" xmlns:xlink="http://www.w3.org/1999/xlink" width="610" height="393" viewBox="0 0 610 393">
  <defs>
    <clipPath id="clip-path">
      <rect id="Rectángulo_409683" data-name="Rectángulo 409683" width="610" height="393" transform="translate(-2417.918 1581.975)" fill="#fff" stroke="#707070" stroke-width="1" opacity="0.33"/>
    </clipPath>
    <filter id="Elipse_11669" x="119.523" y="65.988" width="453.227" height="453.227" filterUnits="userSpaceOnUse">
      <feOffset dy="3" input="SourceAlpha"/>
      <feGaussianBlur stdDeviation="3" result="blur"/>
      <feFlood flood-opacity="0.161"/>
      <feComposite operator="in" in2="blur"/>
      <feComposite in="SourceGraphic"/>
    </filter>
    <clipPath id="clip-path-2">
      <path id="Trazado_993005" data-name="Trazado 993005" d="M157.54,771.3c-6.367,26.542-4.831,49.621,3.43,51.548s20.121-18.029,26.488-44.571,4.832-49.622-3.43-51.548S163.907,744.759,157.54,771.3Z" transform="translate(-153.612 -726.602)"/>
    </clipPath>
    <linearGradient id="linear-gradient" x1="0.15" y1="0.217" x2="0.85" y2="0.949" gradientUnits="objectBoundingBox">
      <stop offset="0" stop-color="#fff"/>
      <stop offset="0.941" stop-color="#f9f9f9"/>
    </linearGradient>
  </defs>
  <g id="Enmascarar_grupo_1098748" data-name="Enmascarar grupo 1098748" transform="translate(2417.918 -1581.975)" clip-path="url(#clip-path)">
    <g id="Grupo_1157992" data-name="Grupo 1157992" transform="translate(-2421.437 1577.04)">
      <g transform="matrix(1, 0, 0, 1, 3.52, 4.94)" filter="url(#Elipse_11669)">
        <circle id="Elipse_11669-2" data-name="Elipse 11669" cx="217.614" cy="217.614" r="217.614" transform="translate(128.52 71.99)" fill="#fff"/>
      </g>
      <circle id="Elipse_11670" data-name="Elipse 11670" cx="198.895" cy="198.895" r="198.895" transform="translate(68.371 294.535) rotate(-45)" fill="#ffb3da"/>
      <g id="Grupo_1157803" data-name="Grupo 1157803" transform="translate(221.923 51.06)">
        <g id="Grupo_1157799" data-name="Grupo 1157799" transform="translate(10.278 0)">
          <g id="Grupo_1157797" data-name="Grupo 1157797" transform="translate(0.306 9.475)">
            <path id="Trazado_992923" data-name="Trazado 992923" d="M419.882,579.061A25.895,25.895,0,1,0,386.926,604.1v9.037h14.738v-9.2A26.042,26.042,0,0,0,419.882,579.061Z" transform="translate(-368.093 -553.012)" fill="#fff" stroke="#000" stroke-linecap="round" stroke-linejoin="round" stroke-miterlimit="10" stroke-width="0.75"/>
            <path id="Trazado_992924" data-name="Trazado 992924" d="M398.71,620.841c.994-3.986-1.3-7.96-3.3-11.545q-2-3.587-3.706-7.327c-1.552-3.4-2.908-7.447-.943-10.712a3.838,3.838,0,0,1,1.822-1.646c1.963-.772,3.526.695,4.518,2.21a14.727,14.727,0,0,1,2.184,5.547,5.861,5.861,0,0,1,.092,1.1.952.952,0,0,1-1.8.406,9.7,9.7,0,0,1-.416-6.7c.493-1.931,1.379-3.867,3.23-4.834a3.631,3.631,0,0,1,2.5-.353c2.117.5,2.758,2.645,2.97,4.566a21.427,21.427,0,0,1-.275,6.493l-.006.03a.95.95,0,0,1-1.871-.28A10.684,10.684,0,0,1,409.2,589.3a3.818,3.818,0,0,1,2.653-.523,2.96,2.96,0,0,1,1.98,2.112c.5,1.761-.289,3.758-.862,5.168a17.308,17.308,0,0,1-2.621,4.346,31.032,31.032,0,0,0-6.612,22.288" transform="translate(-375.024 -563.838)" fill="none" stroke="#ffd387" stroke-miterlimit="10" stroke-width="0.363"/>
            <g id="Grupo_1157795" data-name="Grupo 1157795" transform="translate(18.152 55.669)">
              <path id="Trazado_992925" data-name="Trazado 992925" d="M410.867,634.817v4.372a5,5,0,0,1-.024.5,2.452,2.452,0,0,1-.056.412,5.609,5.609,0,0,1-5.532,4.734H400.38a5.609,5.609,0,0,1-5.532-4.734,2.383,2.383,0,0,1-.056-.412c-.016-.161-.024-.331-.024-.5v-4.372Z" transform="translate(-394.768 -634.817)" fill="#050004"/>
              <g id="Grupo_1157792" data-name="Grupo 1157792" transform="translate(0 1.298)">
                <rect id="Rectángulo_409681" data-name="Rectángulo 409681" width="16.099" height="0.419" fill="#0b0a10"/>
              </g>
              <g id="Grupo_1157793" data-name="Grupo 1157793" transform="translate(0 2.952)">
                <rect id="Rectángulo_409682" data-name="Rectángulo 409682" width="16.099" height="0.412" fill="#ffd387"/>
              </g>
              <g id="Grupo_1157794" data-name="Grupo 1157794" transform="translate(0.025 4.872)">
                <path id="Trazado_992926" data-name="Trazado 992926" d="M410.853,641.976a2.45,2.45,0,0,1-.056.412H394.859a2.379,2.379,0,0,1-.056-.412Z" transform="translate(-394.803 -641.976)" fill="#ffd387"/>
              </g>
            </g>
            <g id="Grupo_1157796" data-name="Grupo 1157796" transform="translate(40.868 8.76)">
              <path id="Trazado_992927" data-name="Trazado 992927" d="M428.149,568.354a5.883,5.883,0,0,0,.742,2.672,4.849,4.849,0,0,0,1.78,2.133,2.165,2.165,0,0,0,2.6-.223,2.709,2.709,0,0,0,.546-2.045,6.785,6.785,0,0,0-1.419-3.726C430.816,565.151,428.187,565.491,428.149,568.354Z" transform="translate(-428.148 -565.885)" fill="#fff"/>
              <path id="Trazado_992928" data-name="Trazado 992928" d="M434.319,581.659a16.2,16.2,0,0,0,.668,6.259c.3.97.857,2.047,1.855,2.21a1.964,1.964,0,0,0,1.83-.887,4.46,4.46,0,0,0,.671-2.022,12.421,12.421,0,0,0-.432-5.207c-.333-1.093-1.114-2.785-2.389-3.028C435.041,578.7,434.421,580.529,434.319,581.659Z" transform="translate(-430.099 -570.061)" fill="#fff"/>
            </g>
          </g>
          <g id="Grupo_1157798" data-name="Grupo 1157798">
            <line id="Línea_1075" data-name="Línea 1075" y1="3.706" x2="6.448" transform="translate(0 60.644)" fill="none" stroke="#fff" stroke-linecap="round" stroke-linejoin="round" stroke-miterlimit="10" stroke-width="1.087"/>
            <line id="Línea_1076" data-name="Línea 1076" y1="3.706" x2="6.448" transform="translate(54.193 22.19)" fill="none" stroke="#fff" stroke-linecap="round" stroke-linejoin="round" stroke-miterlimit="10" stroke-width="1.087"/>
            <line id="Línea_1077" data-name="Línea 1077" y1="5.659" x2="4.848" transform="translate(45.244 8.473)" fill="none" stroke="#fff" stroke-linecap="round" stroke-linejoin="round" stroke-miterlimit="10" stroke-width="1.087"/>
            <line id="Línea_1078" data-name="Línea 1078" y1="7.47" x2="0.069" transform="translate(27.676)" fill="none" stroke="#fff" stroke-linecap="round" stroke-linejoin="round" stroke-miterlimit="10" stroke-width="1.087"/>
            <line id="Línea_1079" data-name="Línea 1079" x1="4.703" y1="5.782" transform="translate(6.016 6.095)" fill="none" stroke="#fff" stroke-linecap="round" stroke-linejoin="round" stroke-miterlimit="10" stroke-width="1.087"/>
          </g>
        </g>
        <g id="Grupo_1157800" data-name="Grupo 1157800" transform="translate(1.339 37.933)">
          <line id="Línea_1080" data-name="Línea 1080" y1="0.408" x2="7.415" transform="translate(0 9.957)" fill="none" stroke="#fff" stroke-linecap="round" stroke-linejoin="round" stroke-miterlimit="10" stroke-width="1.087"/>
          <line id="Línea_1081" data-name="Línea 1081" y1="0.408" x2="7.415" transform="translate(65.576)" fill="none" stroke="#fff" stroke-linecap="round" stroke-linejoin="round" stroke-miterlimit="10" stroke-width="1.087"/>
        </g>
        <g id="Grupo_1157801" data-name="Grupo 1157801" transform="translate(0 31.561)">
          <line id="Línea_1082" data-name="Línea 1082" x2="6.845" y2="2.897" fill="none" stroke="#fff" stroke-linecap="round" stroke-linejoin="round" stroke-miterlimit="10" stroke-width="1.087"/>
          <line id="Línea_1083" data-name="Línea 1083" x2="6.845" y2="2.896" transform="translate(63.297 19.905)" fill="none" stroke="#fff" stroke-linecap="round" stroke-linejoin="round" stroke-miterlimit="10" stroke-width="1.087"/>
        </g>
        <g id="Grupo_1157802" data-name="Grupo 1157802" transform="translate(5.329 16.443)">
          <line id="Línea_1084" data-name="Línea 1084" x2="5.22" y2="5.314" fill="none" stroke="#fff" stroke-linecap="round" stroke-linejoin="round" stroke-miterlimit="10" stroke-width="1.087"/>
          <line id="Línea_1085" data-name="Línea 1085" x2="5.22" y2="5.313" transform="translate(50.887 42.781)" fill="none" stroke="#fff" stroke-linecap="round" stroke-linejoin="round" stroke-miterlimit="10" stroke-width="1.087"/>
        </g>
      </g>
      <g id="Grupo_1157862" data-name="Grupo 1157862" transform="translate(226.351 31.97)">
        <g id="Grupo_1157826" data-name="Grupo 1157826" transform="translate(78.935)">
          <g id="Grupo_1157804" data-name="Grupo 1157804">
            <path id="Trazado_992929" data-name="Trazado 992929" d="M566.406,601.2a41.3,41.3,0,0,0-20.848-34.985,32.48,32.48,0,1,0-47.661.7c-13.349,7.993-22.146,22.315-21.9,38.526l.3,19.931a3.722,3.722,0,0,0,3.779,3.665l83.008-1.266a3.722,3.722,0,0,0,3.665-3.779Z" transform="translate(-475.345 -511.348)" fill="#050004"/>
            <path id="Trazado_992930" data-name="Trazado 992930" d="M479.719,629.367a4.376,4.376,0,0,1-4.37-4.3l-.3-19.931c-.24-15.743,7.794-30.143,21.532-38.675a33.124,33.124,0,1,1,49.678-.713,41.745,41.745,0,0,1,20.494,35.133l.348,22.787a4.371,4.371,0,0,1-4.3,4.437l-83.007,1.266Zm41.353-117.033a31.847,31.847,0,0,0-23.01,53.816.649.649,0,0,1-.137,1c-13.752,8.235-21.82,22.425-21.584,37.959l.3,19.931a3.1,3.1,0,0,0,3.121,3.028l83.007-1.266a3.074,3.074,0,0,0,3.028-3.121l-.348-22.787a40.5,40.5,0,0,0-20.526-34.436.647.647,0,0,1-.155-.993,31.64,31.64,0,0,0,7.313-13.993,31.881,31.881,0,0,0-31.013-39.14Z" transform="translate(-475.04 -511.036)" fill="#050004"/>
          </g>
          <g id="Grupo_1157825" data-name="Grupo 1157825" transform="translate(1.275 76.327)">
            <g id="Grupo_1157824" data-name="Grupo 1157824">
              <g id="Grupo_1157818" data-name="Grupo 1157818">
                <g id="Grupo_1157805" data-name="Grupo 1157805" transform="translate(11.869)">
                  <path id="Trazado_992931" data-name="Trazado 992931" d="M559.992,669.472l-.3-19.743-.084-5.518c-.01-.612-.04-1.219-.085-1.823-10.863-2.887-19.833-8.927-25.556-16.726a14.428,14.428,0,0,1-3.292,8.849l-2.85,3.4a27.583,27.583,0,0,1-6.268-13.761c-5.661,8.214-14.869,14.576-26.1,17.534a31.846,31.846,0,0,0-.146,3.507l.084,5.517.3,19.744a31.561,31.561,0,0,0,9.094,21.653c.615.626,1.262,1.221,1.927,1.8v45.4h44.3V691.942a31.5,31.5,0,0,0,8.976-22.47Z" transform="translate(-494.66 -623.502)" fill="#fff"/>
                  <path id="Trazado_992932" data-name="Trazado 992932" d="M550.712,739.642h-44.3a.648.648,0,0,1-.648-.648v-45.1c-.652-.572-1.224-1.109-1.741-1.637a31.971,31.971,0,0,1-9.039-18.658,32.889,32.889,0,0,1-.24-3.438l-.386-25.261a32.616,32.616,0,0,1,.148-3.579.649.649,0,0,1,.481-.565c10.892-2.868,20.031-9,25.732-17.275a.648.648,0,0,1,1.176.279,26.7,26.7,0,0,0,5.634,12.831l2.346-2.8a13.8,13.8,0,0,0,3.141-8.456.648.648,0,0,1,1.17-.359c5.752,7.838,14.7,13.692,25.2,16.482a.65.65,0,0,1,.48.579c.044.617.077,1.236.086,1.861l.384,25.26a32.131,32.131,0,0,1-8.976,22.742v47.094A.649.649,0,0,1,550.712,739.642Zm-43.65-1.3h43V691.638a.647.647,0,0,1,.184-.451,31.012,31.012,0,0,0,8.661-18.7,31.4,31.4,0,0,0,.131-3.307h0l-.385-25.26c-.006-.446-.025-.889-.052-1.328a47.193,47.193,0,0,1-24.44-15.514,14.815,14.815,0,0,1-3.3,7.549l-2.849,3.4a.646.646,0,0,1-.5.231h0a.648.648,0,0,1-.5-.233,28.521,28.521,0,0,1-6.148-12.54c-5.833,7.776-14.679,13.564-25.118,16.406-.082,1.014-.118,2.018-.1,2.989l.386,25.26a31.559,31.559,0,0,0,.231,3.3,30.694,30.694,0,0,0,8.677,17.907c.553.564,1.171,1.138,1.89,1.76a.652.652,0,0,1,.224.491v44.749Z" transform="translate(-494.356 -623.198)" fill="#050004"/>
                </g>
                <g id="Grupo_1157811" data-name="Grupo 1157811" transform="translate(0 25.995)">
                  <g id="Grupo_1157806" data-name="Grupo 1157806" transform="translate(0 0.988)">
                    <path id="Trazado_992933" data-name="Trazado 992933" d="M489.38,663.81l.45-.007.3,19.969a32.528,32.528,0,0,0,.237,3.409l-.634.01a11.692,11.692,0,0,1-.357-23.381Z" transform="translate(-477.218 -663.154)" fill="#fff"/>
                    <path id="Trazado_992934" data-name="Trazado 992934" d="M489.253,687.535a12.34,12.34,0,0,1-.187-24.678l.449-.007a.65.65,0,0,1,.658.638l.3,19.969a31.282,31.282,0,0,0,.231,3.341.647.647,0,0,1-.633.725l-.634.01Zm-.366-23.377a11.044,11.044,0,0,0,.365,22.081h.091c-.1-.947-.149-1.857-.162-2.762Z" transform="translate(-476.914 -662.85)" fill="#050004"/>
                  </g>
                  <g id="Grupo_1157807" data-name="Grupo 1157807" transform="translate(76.26)">
                    <path id="Trazado_992935" data-name="Trazado 992935" d="M589.928,662.358l.449-.007a11.691,11.691,0,1,1,.357,23.38l-.634.01a32.59,32.59,0,0,0,.133-3.414Z" transform="translate(-589.281 -661.702)" fill="#fff"/>
                    <path id="Trazado_992936" data-name="Trazado 992936" d="M589.8,686.085a.649.649,0,0,1-.645-.706,32.117,32.117,0,0,0,.131-3.345l-.3-19.969a.648.648,0,0,1,.638-.658l.449-.007h.19a12.34,12.34,0,0,1,.186,24.678l-.634.01Zm.487-23.391.294,19.319c.014.9-.013,1.822-.078,2.765a11.043,11.043,0,0,0-.216-22.084Z" transform="translate(-588.978 -661.398)" fill="#050004"/>
                  </g>
                  <g id="Grupo_1157810" data-name="Grupo 1157810" transform="translate(23.279 42.987)">
                    <g id="Grupo_1157809" data-name="Grupo 1157809">
                      <g id="Grupo_1157808" data-name="Grupo 1157808">
                        <path id="Trazado_992937" data-name="Trazado 992937" d="M512.075,726.648V744.9c7.856-.842,18.743-6.757,25.268-10.7a31.56,31.56,0,0,1-3.657.3A32.194,32.194,0,0,1,512.075,726.648Z" transform="translate(-511.426 -725.232)" fill="#050004"/>
                        <path id="Trazado_992938" data-name="Trazado 992938" d="M511.122,744.957v-20.39l1.072.926a31.7,31.7,0,0,0,21.177,7.688,30.769,30.769,0,0,0,3.583-.29l3.07-.4-2.651,1.6c-7.392,4.467-17.824,9.965-25.535,10.791Zm1.3-17.6V743.5c6.8-.974,15.769-5.571,21.794-9.05-.28.014-.553.022-.821.027A33,33,0,0,1,512.418,727.361Z" transform="translate(-511.122 -724.567)" fill="#050004"/>
                      </g>
                    </g>
                  </g>
                </g>
                <g id="Grupo_1157813" data-name="Grupo 1157813" transform="translate(5.645 35.871)">
                  <g id="Grupo_1157812" data-name="Grupo 1157812">
                    <path id="Trazado_992939" data-name="Trazado 992939" d="M597.288,681.557a.649.649,0,0,1-.406-.143l-2.29-1.843a1.047,1.047,0,0,1,.033-1.656l2.537-1.878a.648.648,0,1,1,.772,1.042l-2.277,1.685,2.038,1.64a.647.647,0,0,1-.407,1.152Z" transform="translate(-520.031 -675.911)" fill="#050004"/>
                    <path id="Trazado_992940" data-name="Trazado 992940" d="M486.249,683.269a.648.648,0,0,1-.422-1.141l1.987-1.7-2.327-1.615a.648.648,0,0,1,.739-1.064l2.592,1.8a1.047,1.047,0,0,1,.084,1.654l-2.234,1.912A.641.641,0,0,1,486.249,683.269Zm1.831-2.657h0Z" transform="translate(-485.209 -676.461)" fill="#050004"/>
                  </g>
                </g>
                <g id="Grupo_1157817" data-name="Grupo 1157817" transform="translate(15.574 17.423)">
                  <path id="Trazado_992941" data-name="Trazado 992941" d="M522.906,674.542a2.437,2.437,0,1,1-2.437-2.438A2.437,2.437,0,0,1,522.906,674.542Z" transform="translate(-505.625 -656.246)" fill="#161123"/>
                  <path id="Trazado_992942" data-name="Trazado 992942" d="M567.487,674.542a2.437,2.437,0,1,1-2.437-2.438A2.437,2.437,0,0,1,567.487,674.542Z" transform="translate(-519.868 -656.246)" fill="#161123"/>
                  <g id="Grupo_1157814" data-name="Grupo 1157814" transform="translate(8.98 0.527)">
                    <path id="Trazado_992943" data-name="Trazado 992943" d="M524.995,653.106a6.745,6.745,0,0,1-2.683.8c-.985.157-1.969.34-2.819.529s-1.823.438-2.781.712a6.7,6.7,0,0,1-2.765.4c-.8-.147-1.292-.966-.668-2.247a7.726,7.726,0,0,1,5.265-3.494c2.816-.617,5.162.072,6.178.959C525.794,651.677,525.666,652.633,524.995,653.106Z" transform="translate(-512.996 -649.576)" fill="#161123"/>
                  </g>
                  <g id="Grupo_1157815" data-name="Grupo 1157815" transform="translate(37.419)">
                    <path id="Trazado_992944" data-name="Trazado 992944" d="M555.407,652.808a6.74,6.74,0,0,0,2.751.522c1,.055,1.994.135,2.859.235s1.859.248,2.84.421a6.709,6.709,0,0,0,2.792.116c.78-.229,1.186-1.095.434-2.3a7.725,7.725,0,0,0-5.6-2.932c-2.866-.322-5.127.6-6.046,1.591C554.464,651.469,554.69,652.406,555.407,652.808Z" transform="translate(-554.786 -648.801)" fill="#161123"/>
                  </g>
                  <path id="Trazado_992945" data-name="Trazado 992945" d="M541.581,678.531h-2.4a.648.648,0,1,1,0-1.3h2.4a4.339,4.339,0,0,0,4.333-4.333,1.736,1.736,0,0,0-1.725-1.765,2.605,2.605,0,0,1-2.633-2.594v-9.328a.648.648,0,1,1,1.3,0v9.328a1.3,1.3,0,0,0,1.3,1.3,3.034,3.034,0,0,1,3.061,3.022A5.644,5.644,0,0,1,541.581,678.531Z" transform="translate(-512.175 -651.921)" fill="#161123"/>
                  <g id="Grupo_1157816" data-name="Grupo 1157816" transform="translate(15.216 27.777)">
                    <path id="Trazado_992946" data-name="Trazado 992946" d="M524.987,690.62a1.727,1.727,0,0,0-.911.544h0a4.278,4.278,0,0,0-.763,4.03c.673,2.193,2.96,3.863,6.44,4.7,6.427,1.552,8-2.955,8.384-4.966a1.568,1.568,0,0,0-.348-1.289,1.054,1.054,0,0,0-.919-.39,16.533,16.533,0,0,1-10.425-2.376A1.95,1.95,0,0,0,524.987,690.62Z" transform="translate(-522.464 -689.924)" fill="#f9f8f6"/>
                    <path id="Trazado_992947" data-name="Trazado 992947" d="M531.914,700.561a11.129,11.129,0,0,1-2.615-.338c-3.713-.9-6.165-2.724-6.909-5.144a4.938,4.938,0,0,1,.9-4.648,2.377,2.377,0,0,1,1.251-.747h0a2.589,2.589,0,0,1,1.943.335,15.88,15.88,0,0,0,10.01,2.285,1.7,1.7,0,0,1,1.486.61,2.2,2.2,0,0,1,.495,1.834,7.322,7.322,0,0,1-2.954,4.832A6.5,6.5,0,0,1,531.914,700.561Zm-7.083-9.615h0a1.086,1.086,0,0,0-.572.343,3.614,3.614,0,0,0-.629,3.41c.6,1.965,2.724,3.479,5.974,4.265a6.571,6.571,0,0,0,5.21-.473,6.056,6.056,0,0,0,2.384-3.983.918.918,0,0,0-.2-.746.372.372,0,0,0-.35-.171,17.208,17.208,0,0,1-10.841-2.465A1.311,1.311,0,0,0,524.831,690.946Z" transform="translate(-522.16 -689.619)" fill="#161123"/>
                  </g>
                  <path id="Trazado_992948" data-name="Trazado 992948" d="M565.144,680.308a12.268,12.268,0,1,1,12.268-12.268A12.283,12.283,0,0,1,565.144,680.308Zm0-22.591a10.324,10.324,0,1,0,10.324,10.324A10.336,10.336,0,0,0,565.144,657.717Z" transform="translate(-516.758 -651.028)" fill="#ffb3da"/>
                  <path id="Trazado_992949" data-name="Trazado 992949" d="M547.184,672a.966.966,0,0,1-.6-.208,8.8,8.8,0,0,0-11.339-.033.972.972,0,0,1-1.283-1.46c.067-.058,6.62-5.7,13.825-.035a.972.972,0,0,1-.6,1.737Z" transform="translate(-510.61 -654.853)" fill="#ffb3da"/>
                  <path id="Trazado_992950" data-name="Trazado 992950" d="M512.068,680.308a12.268,12.268,0,1,1,12.268-12.268A12.283,12.283,0,0,1,512.068,680.308Zm0-22.591a10.324,10.324,0,1,0,10.324,10.324A10.336,10.336,0,0,0,512.068,657.717Z" transform="translate(-499.8 -651.028)" fill="#ffb3da"/>
                </g>
              </g>
              <g id="Grupo_1157823" data-name="Grupo 1157823" transform="translate(4.235 44.817)">
                <g id="Grupo_1157820" data-name="Grupo 1157820" transform="translate(74.255)">
                  <g id="Grupo_1157819" data-name="Grupo 1157819">
                    <path id="Trazado_992951" data-name="Trazado 992951" d="M593.208,692.887A2.836,2.836,0,1,0,596,690.008,2.836,2.836,0,0,0,593.208,692.887Z" transform="translate(-592.56 -689.361)" fill="#2b60ff"/>
                    <path id="Trazado_992952" data-name="Trazado 992952" d="M595.737,696.025a3.484,3.484,0,0,1-.051-6.968,3.552,3.552,0,0,1,2.48.982,3.484,3.484,0,0,1-2.374,5.985Zm0-5.673h-.034a2.187,2.187,0,0,0-1.49,3.758,2.259,2.259,0,0,0,1.556.617,2.188,2.188,0,0,0-.032-4.376Z" transform="translate(-592.255 -689.057)" fill="#050004"/>
                  </g>
                </g>
                <g id="Grupo_1157822" data-name="Grupo 1157822" transform="translate(0 1.132)">
                  <g id="Grupo_1157821" data-name="Grupo 1157821">
                    <path id="Trazado_992953" data-name="Trazado 992953" d="M484.091,694.551a2.836,2.836,0,1,0,2.793-2.879A2.836,2.836,0,0,0,484.091,694.551Z" transform="translate(-483.442 -691.025)" fill="#2b60ff"/>
                    <path id="Trazado_992954" data-name="Trazado 992954" d="M486.62,697.689a3.484,3.484,0,0,1-.052-6.968,3.514,3.514,0,0,1,2.48.983,3.484,3.484,0,0,1-2.373,5.985Zm0-5.673h-.034a2.189,2.189,0,0,0-2.155,2.221,2.2,2.2,0,0,0,2.221,2.154,2.188,2.188,0,0,0-.032-4.376Z" transform="translate(-483.137 -690.721)" fill="#050004"/>
                  </g>
                </g>
              </g>
            </g>
          </g>
        </g>
        <g id="Grupo_1157832" data-name="Grupo 1157832" transform="translate(24.36 311.742)">
          <g id="Grupo_1157828" data-name="Grupo 1157828">
            <g id="Grupo_1157827" data-name="Grupo 1157827">
              <path id="Trazado_992955" data-name="Trazado 992955" d="M563.713,1000.2l-7.931-11.317-7.575-10.805-5.436-7.754-53.381-.23-54.279.23-5.436,7.754L422.1,988.878l-7.931,11.314a113.668,113.668,0,0,0-18.375,42.633H582.088A113.655,113.655,0,0,0,563.713,1000.2Z" transform="translate(-395.147 -969.443)" fill="#050004"/>
              <path id="Trazado_992956" data-name="Trazado 992956" d="M581.783,1043.172H395.491a.647.647,0,0,1-.635-.777,113.731,113.731,0,0,1,18.48-42.877l20.941-29.872a.651.651,0,0,1,.529-.276l54.279-.231,53.386.231a.65.65,0,0,1,.528.276l20.941,29.872a113.715,113.715,0,0,1,18.48,42.877.649.649,0,0,1-.134.54A.657.657,0,0,1,581.783,1043.172Zm-185.5-1.3h184.7a112.446,112.446,0,0,0-18.11-41.614h0l-20.749-29.6-53.045-.229-53.939.229-20.749,29.6A112.515,112.515,0,0,0,396.286,1041.872Z" transform="translate(-394.843 -969.139)" fill="#050004"/>
            </g>
          </g>
          <g id="Grupo_1157831" data-name="Grupo 1157831" transform="translate(24.692 22.712)">
            <g id="Grupo_1157830" data-name="Grupo 1157830">
              <g id="Grupo_1157829" data-name="Grupo 1157829">
                <path id="Trazado_992957" data-name="Trazado 992957" d="M567.513,1003.812H438.265a.648.648,0,1,1,0-1.3H567.514a.648.648,0,1,1,0,1.3Z" transform="translate(-433.201 -1002.515)" fill="#fff8f8"/>
                <path id="Trazado_992958" data-name="Trazado 992958" d="M526.417,1028.861a.648.648,0,0,1-.648-.648v-25.05a.648.648,0,0,1,1.3,0v25.05A.645.645,0,0,1,526.417,1028.861Z" transform="translate(-461.365 -1002.515)" fill="#fff8f8"/>
                <path id="Trazado_992959" data-name="Trazado 992959" d="M545.187,1028.861a.648.648,0,0,1-.648-.648v-25.05a.648.648,0,0,1,1.3,0v25.05A.645.645,0,0,1,545.187,1028.861Z" transform="translate(-467.362 -1002.515)" fill="#fff8f8"/>
                <path id="Trazado_992960" data-name="Trazado 992960" d="M431.777,1029.183a.648.648,0,0,1-.2-1.264c19.889-6.449,16.493-23.878,16.338-24.617a.648.648,0,0,1,1.268-.267c.04.193,3.81,19.3-17.207,26.117A.812.812,0,0,1,431.777,1029.183Z" transform="translate(-431.128 -1002.517)" fill="#fff8f8"/>
                <path id="Trazado_992961" data-name="Trazado 992961" d="M619.521,1029.183a.674.674,0,0,1-.2-.031c-21.016-6.815-17.247-25.925-17.207-26.117a.659.659,0,0,1,.767-.5.649.649,0,0,1,.5.767c-.154.739-3.551,18.167,16.339,24.617a.648.648,0,0,1-.2,1.264Z" transform="translate(-485.665 -1002.517)" fill="#fff8f8"/>
              </g>
            </g>
          </g>
        </g>
        <g id="Grupo_1157837" data-name="Grupo 1157837" transform="translate(11.009 162.866)">
          <g id="Grupo_1157836" data-name="Grupo 1157836">
            <g id="Grupo_1157835" data-name="Grupo 1157835">
              <g id="Grupo_1157833" data-name="Grupo 1157833">
                <path id="Trazado_992962" data-name="Trazado 992962" d="M418.7,857.034c-1.826-3.142-4.431-7.629-6.258-10.771l-36.264-30.728,21.12-39.466a47.055,47.055,0,0,1,38.053-24.611c1.166-.086,2.338-.138,3.52-.138h23.827l25.4,18.538,26.8-18.538h18.506c1.181,0,2.353.052,3.52.138,12.793.947,26.673,7.662,35.795,16.336,5.506,5.237,24.14,26.757,24.14,26.757l-41.815,61.277-12.268,53.809s-119.071,1.405-120.75.283C421.214,909.386,418.7,857.034,418.7,857.034Z" transform="translate(-375.527 -750.671)" fill="#ffb3da"/>
                <path id="Trazado_992963" data-name="Trazado 992963" d="M449.15,910.693c-15.807,0-27.205-.14-27.8-.537-.348-.233-1.07-.712-3.6-53.237l-6.122-10.538-36.179-30.656a.648.648,0,0,1-.152-.8l21.121-39.467A47.442,47.442,0,0,1,435,750.507c1.274-.094,2.44-.14,3.568-.14h23.827a.648.648,0,0,1,.382.124L487.8,768.758l26.418-18.276a.64.64,0,0,1,.368-.115H533.09c1.126,0,2.293.046,3.567.14,12.4.918,26.612,7.4,36.193,16.513,5.466,5.2,24,26.587,24.183,26.8a.647.647,0,0,1,.046.789l-41.745,61.175-12.242,53.691a.646.646,0,0,1-.624.5C524.2,910.2,478.883,910.693,449.15,910.693Zm-26.929-1.584c4.847.742,87.263-.038,119.722-.418L554.1,855.379a.657.657,0,0,1,.1-.222l41.534-60.863c-2.515-2.9-18.749-21.56-23.77-26.334-9.378-8.919-23.273-15.263-35.4-16.16-1.24-.092-2.376-.136-3.471-.136h-18.3l-26.631,18.423a.648.648,0,0,1-.751-.01L462.18,751.664H438.564c-1.095,0-2.23.044-3.472.136a46.152,46.152,0,0,0-37.529,24.27L376.69,815.076l35.865,30.388a.635.635,0,0,1,.141.169l6.257,10.772a.645.645,0,0,1,.087.294C419.986,876.366,421.585,905.931,422.221,909.109Z" transform="translate(-375.223 -750.367)" fill="#050004"/>
              </g>
              <g id="Grupo_1157834" data-name="Grupo 1157834" opacity="0.49">
                <path id="Trazado_992964" data-name="Trazado 992964" d="M418.7,857.034c-1.826-3.142-4.431-7.629-6.258-10.771l-36.264-30.728,21.12-39.466a47.055,47.055,0,0,1,38.053-24.611c1.166-.086,2.338-.138,3.52-.138h23.827l25.4,18.538,26.8-18.538h18.506c1.181,0,2.353.052,3.52.138,12.793.947,26.673,7.662,35.795,16.336,5.506,5.237,24.479,27.436,24.479,27.436l-42.155,60.6-12.268,53.809s-119.071,1.405-120.75.283C421.114,909.32,418.7,857.034,418.7,857.034Z" transform="translate(-375.527 -750.671)" fill="#7c55ff"/>
                <path id="Trazado_992965" data-name="Trazado 992965" d="M449.15,910.693c-15.807,0-27.205-.14-27.8-.537-.35-.234-1.169-.778-3.6-53.237l-6.122-10.538-36.179-30.656a.648.648,0,0,1-.152-.8l21.121-39.467A47.442,47.442,0,0,1,435,750.507c1.274-.094,2.44-.14,3.568-.14h23.827a.648.648,0,0,1,.382.124L487.8,768.758l26.418-18.276a.64.64,0,0,1,.368-.115H533.09c1.126,0,2.293.046,3.567.14,12.4.918,26.612,7.4,36.193,16.513,5.467,5.2,23.748,26.577,24.525,27.484a.647.647,0,0,1,.039.792L555.333,855.79l-12.24,53.687a.646.646,0,0,1-.624.5C524.2,910.2,478.881,910.693,449.15,910.693Zm-26.941-1.586c4.736.746,87.248-.034,119.733-.415L554.1,855.379a.616.616,0,0,1,.1-.225l41.868-60.187c-2.534-2.958-19.083-22.229-24.108-27.007-9.378-8.919-23.273-15.263-35.4-16.16-1.241-.092-2.376-.136-3.471-.136h-18.3l-26.631,18.423a.648.648,0,0,1-.751-.01l-25.226-18.413H438.563c-1.095,0-2.23.044-3.472.136a46.153,46.153,0,0,0-37.529,24.27l-20.874,39.005,35.865,30.388a.636.636,0,0,1,.141.169l6.257,10.772a.645.645,0,0,1,.087.295C419.95,876.376,421.519,905.993,422.209,909.107Z" transform="translate(-375.223 -750.367)" fill="#050004"/>
              </g>
            </g>
          </g>
        </g>
        <g id="Grupo_1157850" data-name="Grupo 1157850" transform="translate(114.54 163.675)">
          <g id="Grupo_1157849" data-name="Grupo 1157849">
            <g id="Grupo_1157839" data-name="Grupo 1157839">
              <g id="Grupo_1157838" data-name="Grupo 1157838">
                <path id="Trazado_992966" data-name="Trazado 992966" d="M575.322,831.224,531.1,830.8a2.851,2.851,0,0,1-2.823-2.878l.693-72.63a2.85,2.85,0,0,1,2.878-2.823l44.22.422a2.851,2.851,0,0,1,2.823,2.878L578.2,828.4A2.853,2.853,0,0,1,575.322,831.224Z" transform="translate(-527.655 -751.848)" fill="#050004"/>
                <path id="Trazado_992967" data-name="Trazado 992967" d="M572.5,831.556h-.058l-39.062-.374a6.077,6.077,0,0,1-6.019-6.135L528,757.574a6.086,6.086,0,0,1,6.078-6.019h.059l39.061.372a6.08,6.08,0,0,1,6.021,6.136l-.643,67.472A6.089,6.089,0,0,1,572.5,831.556Zm-.046-1.3h.044a4.789,4.789,0,0,0,4.783-4.736l.643-67.473a4.783,4.783,0,0,0-4.737-4.828l-39.061-.372a4.808,4.808,0,0,0-4.828,4.736l-.643,67.472a4.778,4.778,0,0,0,4.736,4.827Z" transform="translate(-527.362 -751.555)" fill="#050004"/>
              </g>
              <path id="Trazado_992968" data-name="Trazado 992968" d="M550.247,767.142h-.031l-9.843-.094a3.148,3.148,0,0,1-3.113-3.172l.006-.64a3.144,3.144,0,0,1,3.142-3.113h.032l9.841.094a3.141,3.141,0,0,1,3.112,3.173l0,.638A3.148,3.148,0,0,1,550.247,767.142Zm-9.837-5.723a1.847,1.847,0,0,0-1.847,1.828l-.006.64a1.85,1.85,0,0,0,1.829,1.865l9.843.094h0a1.829,1.829,0,0,0,1.865-1.83l0-.638a1.846,1.846,0,0,0-1.829-1.866l-9.841-.094Z" transform="translate(-530.524 -754.292)" fill="#fff"/>
            </g>
            <g id="Grupo_1157840" data-name="Grupo 1157840" transform="translate(15.669 5.181)">
              <path id="Trazado_992969" data-name="Trazado 992969" d="M680.946,831.5l-28.418-34.42L635.742,822.3l-20.683-26.555-.016.025-18.695-32a7.785,7.785,0,0,0-11.855-1.6c-1.962,1.8-2.195,4.212-1.3,6.719l2.931,11.066-27.35,2.169a7.73,7.73,0,0,0,.358,15.454l-1.93.237c-3.1.138-5.341,3.894-5.2,6.991l.027.618a5.731,5.731,0,0,0,4.733,5.405,108.3,108.3,0,0,0,20.04,1.221l-15.432,1.069a5.025,5.025,0,0,0-4.674,5.194,5.36,5.36,0,0,0,4.773,5.142c3.245.355,7.928.8,13.1,1.1l-7.077.166c-4.753.112-6.3,6.12-2.725,8.923a11.212,11.212,0,0,0,3.728,1.74,49.4,49.4,0,0,0,9.783,1.761c2.528.233,5.793.945,8.3.522a3.078,3.078,0,0,1,1.574.222l25.989,35.684c19.324,26.531,60.362,21.1,72.119-9.545h0A32.7,32.7,0,0,0,680.946,831.5Z" transform="translate(-550.693 -759.473)" fill="#fff"/>
              <path id="Trazado_992970" data-name="Trazado 992970" d="M647.069,890.965a41.383,41.383,0,0,1-33.757-17.312l-25.87-35.52a2.279,2.279,0,0,0-1.061-.127,22.672,22.672,0,0,1-6.321-.258c-.751-.1-1.477-.2-2.15-.259A49.446,49.446,0,0,1,568,835.7a11.91,11.91,0,0,1-3.94-1.85,5.736,5.736,0,0,1-1.914-6.391,5.269,5.269,0,0,1,2.96-3.256c-1.532-.144-2.889-.285-4.014-.408a6.047,6.047,0,0,1-5.351-5.764,5.65,5.65,0,0,1,5.278-5.864l2.218-.153c-2.906-.241-5.187-.556-6.893-.852a6.34,6.34,0,0,1-5.268-6.014l-.028-.619c-.128-2.889,1.644-6.26,4.286-7.328a8.389,8.389,0,0,1,3.111-16.03l26.551-2.107-2.733-10.316c-1.053-2.936-.546-5.5,1.486-7.364a8.434,8.434,0,0,1,12.842,1.728L615.2,794.968a.71.71,0,0,1,.067.072l20.13,25.846,16.289-24.469a.65.65,0,0,1,.506-.289.673.673,0,0,1,.533.235l28.418,34.421a33.4,33.4,0,0,1,5.419,33.175,41.478,41.478,0,0,1-33.741,26.625A43.963,43.963,0,0,1,647.069,890.965Zm-60.44-54.276a4.112,4.112,0,0,1,1.445.293.645.645,0,0,1,.3.225l25.989,35.684a40.752,40.752,0,0,0,70.989-9.4,32.1,32.1,0,0,0-5.209-31.886h0l-27.863-33.748-16.3,24.491a.645.645,0,0,1-.515.289.614.614,0,0,1-.536-.25l-20.571-26.412a.593.593,0,0,1-.176-.188l-18.7-32a7.135,7.135,0,0,0-10.857-1.445c-1.639,1.5-2.018,3.531-1.126,6.024l2.948,11.119a.648.648,0,0,1-.576.812l-27.35,2.169a7.083,7.083,0,0,0,.231,14.161c.025,0,.05,0,.076,0a.648.648,0,0,1,.078,1.291l-1.93.237c-2.739.124-4.757,3.558-4.634,6.319l.028.619a5.053,5.053,0,0,0,4.2,4.794,107.65,107.65,0,0,0,19.918,1.211.69.69,0,0,1,.659.62.649.649,0,0,1-.6.674l-15.432,1.07a4.357,4.357,0,0,0-4.071,4.524,4.682,4.682,0,0,0,4.2,4.521c3.034.332,7.763.791,13.065,1.1a.648.648,0,0,1-.022,1.295l-7.077.166a3.978,3.978,0,0,0-3.824,2.8,4.455,4.455,0,0,0,1.484,4.962,10.745,10.745,0,0,0,3.515,1.63,48.17,48.17,0,0,0,9.654,1.735c.69.063,1.434.162,2.2.265a21.628,21.628,0,0,0,5.934.265A2.781,2.781,0,0,1,586.63,836.689Z" transform="translate(-550.388 -759.169)" fill="#050004"/>
            </g>
            <g id="Grupo_1157842" data-name="Grupo 1157842" transform="translate(21.789 42.212)">
              <g id="Grupo_1157841" data-name="Grupo 1157841">
                <line id="Línea_1086" data-name="Línea 1086" x1="24.977" y2="0.391" transform="translate(0.649 0.649)" fill="#f9c7ef"/>
                <path id="Trazado_992971" data-name="Trazado 992971" d="M560.028,815.273a.648.648,0,0,1-.01-1.3L585,813.586a.659.659,0,0,1,.658.638.648.648,0,0,1-.638.658l-24.977.391Z" transform="translate(-559.38 -813.585)" fill="#050004"/>
              </g>
            </g>
            <g id="Grupo_1157844" data-name="Grupo 1157844" transform="translate(27.87 57.059)">
              <g id="Grupo_1157843" data-name="Grupo 1157843">
                <line id="Línea_1087" data-name="Línea 1087" x1="18.998" y2="0.083" transform="translate(0.648 0.648)" fill="#f9c7ef"/>
                <path id="Trazado_992972" data-name="Trazado 992972" d="M568.965,836.782a.648.648,0,0,1,0-1.3l19-.082h0a.648.648,0,0,1,0,1.3l-19,.082Z" transform="translate(-568.317 -835.403)" fill="#050004"/>
              </g>
            </g>
            <g id="Grupo_1157846" data-name="Grupo 1157846" transform="translate(31.408 69.429)">
              <g id="Grupo_1157845" data-name="Grupo 1157845">
                <line id="Línea_1088" data-name="Línea 1088" x1="14.716" y1="0.406" transform="translate(0.649 0.648)" fill="#f9c7ef"/>
                <path id="Trazado_992973" data-name="Trazado 992973" d="M588.88,855.283h-.018l-14.716-.406a.648.648,0,0,1,.035-1.3l14.716.406a.648.648,0,0,1-.018,1.3Z" transform="translate(-573.516 -853.58)" fill="#050004"/>
              </g>
            </g>
            <g id="Grupo_1157847" data-name="Grupo 1157847" transform="translate(96.641 63.036)">
              <line id="Línea_1089" data-name="Línea 1089" x2="17.895" y2="23.784" transform="translate(0.648 0.649)" fill="#6aede3"/>
              <path id="Trazado_992974" data-name="Trazado 992974" d="M687.918,869.266a.644.644,0,0,1-.518-.259l-17.895-23.784a.648.648,0,1,1,1.036-.78l17.895,23.783a.649.649,0,0,1-.128.908A.637.637,0,0,1,687.918,869.266Z" transform="translate(-669.376 -844.185)" fill="#050004"/>
            </g>
            <g id="Grupo_1157848" data-name="Grupo 1157848" transform="translate(45.96 25.034)">
              <line id="Línea_1090" data-name="Línea 1090" x1="10.943" y2="0.305" transform="translate(0.647 0.647)" fill="#f9c7ef"/>
              <path id="Trazado_992975" data-name="Trazado 992975" d="M595.548,789.943a.648.648,0,0,1-.018-1.3l10.941-.3a.648.648,0,1,1,.035,1.3l-10.941.3Z" transform="translate(-594.9 -788.343)" fill="#050004"/>
            </g>
          </g>
        </g>
        <g id="Grupo_1157861" data-name="Grupo 1157861" transform="translate(0 111.366)">
          <g id="Grupo_1157860" data-name="Grupo 1157860">
            <g id="Grupo_1157851" data-name="Grupo 1157851" transform="translate(0.653)">
              <path id="Trazado_992976" data-name="Trazado 992976" d="M422.374,766.35s9.735-29.207-7.4-48.711c-2.142-2.437-12.643-32.746-12.643-32.746-2.988-6.581-6.07-9.215-9.315-9.255-4.71-.057-7.8,5.594-6.491,11.024l4.153,17.229c-8.081,3.211-24.568,21.167-25.6,27.753a23.562,23.562,0,0,0,1.8,13.348l5.494,12.2s-6.785,42.8-8.017,50.873c-3.828,25.071-10.333,59.174,18.2,72.728,9.386,4.459,21.494,3.791,29.252-3.123,9.317-8.3,10.834-22.688,11.105-34.415Z" transform="translate(-360.289 -674.992)" fill="#fff"/>
              <path id="Trazado_992977" data-name="Trazado 992977" d="M394.8,883.949a29.951,29.951,0,0,1-12.807-2.872c-27.863-13.237-22.747-46.315-19.012-70.466l.454-2.944c1.176-7.7,7.492-47.562,7.987-50.686L366,744.957a24.2,24.2,0,0,1-1.852-13.715c1.04-6.649,17.139-24.259,25.479-28.035l-4.024-16.7a10.86,10.86,0,0,1,1.812-9.158,6.809,6.809,0,0,1,5.317-2.665c3.737.047,6.975,3.2,9.9,9.636,4.227,12.191,11.032,30.868,12.541,32.586,16.664,18.966,8.182,47.271,7.564,49.237l.536,76.8c-.273,11.807-1.806,26.425-11.322,34.9A25.786,25.786,0,0,1,394.8,883.949Zm-2.139-207.966a5.393,5.393,0,0,0-4.227,2.178,9.547,9.547,0,0,0-1.566,8.046l4.153,17.229a.648.648,0,0,1-.391.755c-7.718,3.066-24.2,20.893-25.2,27.251a22.915,22.915,0,0,0,1.753,12.983l5.494,12.2a.64.64,0,0,1,.049.367c-.067.428-6.8,42.895-8.016,50.87l-.454,2.947c-3.877,25.073-8.7,56.275,18.287,69.1,9.66,4.586,21.4,3.344,28.544-3.023,9.142-8.146,10.621-22.421,10.887-33.946l-.536-76.888a.671.671,0,0,1,.033-.21c.1-.288,9.414-29.085-7.273-48.078-2.163-2.461-11.69-29.847-12.77-32.962-2.671-5.876-5.528-8.779-8.711-8.819Z" transform="translate(-360.006 -674.688)" fill="#050004"/>
            </g>
            <g id="Grupo_1157859" data-name="Grupo 1157859" transform="translate(0 23.648)">
              <g id="Grupo_1157853" data-name="Grupo 1157853" transform="translate(0 19.58)">
                <g id="Grupo_1157852" data-name="Grupo 1157852">
                  <path id="Trazado_992978" data-name="Trazado 992978" d="M370.817,741.529a12.55,12.55,0,0,1,1.727,1.495L382.8,753.449c2.551,2.593,2.259,7.066-.879,8.91-2.162,1.27-5.02.987-9.041-1.6l-9.83-8.55a8.528,8.528,0,0,1-2.214-10.219C362.267,739.217,365.119,737.535,370.817,741.529Z" transform="translate(-359.344 -738.515)" fill="#fff"/>
                  <path id="Trazado_992979" data-name="Trazado 992979" d="M378.881,763.439c-1.917,0-4.117-.81-6.646-2.436l-9.9-8.606a9.225,9.225,0,0,1-2.365-11,5.422,5.422,0,0,1,3.494-3.039c2.009-.495,4.509.291,7.432,2.34h0a13.205,13.205,0,0,1,1.816,1.571l10.258,10.425a6.7,6.7,0,0,1,1.847,5.532,5.91,5.91,0,0,1-5.931,5.216ZM364.7,739.5a3.862,3.862,0,0,0-.926.108,4.189,4.189,0,0,0-2.651,2.373,7.916,7.916,0,0,0,2.062,9.434l9.83,8.55c3.479,2.229,6.215,2.747,8.287,1.528a4.583,4.583,0,0,0,2.229-3.443,5.387,5.387,0,0,0-1.486-4.454l-10.258-10.425a11.8,11.8,0,0,0-1.637-1.419C368.011,740.259,366.183,739.5,364.7,739.5Z" transform="translate(-359.046 -738.211)" fill="#050004"/>
                </g>
              </g>
              <g id="Grupo_1157855" data-name="Grupo 1157855" transform="translate(8.18 10.849)">
                <g id="Grupo_1157854" data-name="Grupo 1157854">
                  <path id="Trazado_992980" data-name="Trazado 992980" d="M382.839,728.7a12.571,12.571,0,0,1,1.727,1.5l10.258,10.426c2.551,2.593,2.258,7.066-.878,8.91-2.162,1.271-5.02.987-9.041-1.6l-9.831-8.55a8.528,8.528,0,0,1-2.213-10.219C374.288,726.389,377.141,724.707,382.839,728.7Z" transform="translate(-371.365 -725.685)" fill="#fff"/>
                  <path id="Trazado_992981" data-name="Trazado 992981" d="M390.9,750.61c-1.916,0-4.116-.81-6.646-2.436l-9.9-8.606a9.226,9.226,0,0,1-2.365-11.005,5.42,5.42,0,0,1,3.493-3.038c2.01-.5,4.51.291,7.433,2.339h0a13.121,13.121,0,0,1,1.816,1.571l10.258,10.426a6.692,6.692,0,0,1,1.846,5.53,5.911,5.911,0,0,1-5.931,5.217Zm-14.184-23.934a3.85,3.85,0,0,0-.926.108,4.188,4.188,0,0,0-2.651,2.372,7.917,7.917,0,0,0,2.062,9.434l9.83,8.55c3.478,2.229,6.215,2.746,8.287,1.528a4.59,4.59,0,0,0,2.23-3.444,5.386,5.386,0,0,0-1.486-4.452l-10.258-10.426a11.864,11.864,0,0,0-1.637-1.419h0C380.033,727.43,378.2,726.677,376.718,726.677Z" transform="translate(-371.067 -725.382)" fill="#050004"/>
                </g>
              </g>
              <g id="Grupo_1157857" data-name="Grupo 1157857" transform="translate(16.252)">
                <g id="Grupo_1157856" data-name="Grupo 1157856">
                  <path id="Trazado_992982" data-name="Trazado 992982" d="M394.884,713.033a12.613,12.613,0,0,1,1.656,1.574L406.3,725.5c2.428,2.709,1.927,7.164-1.293,8.859-2.218,1.168-5.06.751-8.956-2.018l-9.421-9A8.528,8.528,0,0,1,384.9,713.03C386.452,710.325,389.379,708.778,394.884,713.033Z" transform="translate(-383.226 -709.743)" fill="#fff"/>
                  <path id="Trazado_992983" data-name="Trazado 992983" d="M402.216,735.316c-1.991,0-4.252-.913-6.836-2.75l-9.493-9.059a9.222,9.222,0,0,1-1.848-11.1,5.421,5.421,0,0,1,3.63-2.872c2.029-.4,4.491.5,7.315,2.684h0a13.128,13.128,0,0,1,1.741,1.655l9.76,10.893a6.691,6.691,0,0,1,1.586,5.611,5.9,5.9,0,0,1-5.856,4.94Zm-13.564-24.582a3.765,3.765,0,0,0-.732.069,4.191,4.191,0,0,0-2.759,2.246,7.915,7.915,0,0,0,1.62,9.52l9.42,9c3.371,2.387,6.077,3.032,8.207,1.913a4.591,4.591,0,0,0,2.389-3.336,5.385,5.385,0,0,0-1.277-4.517l-9.76-10.893a11.916,11.916,0,0,0-1.569-1.494h0C392.034,711.575,390.176,710.734,388.652,710.734Z" transform="translate(-382.929 -709.439)" fill="#050004"/>
                </g>
              </g>
              <g id="Grupo_1157858" data-name="Grupo 1157858" transform="translate(26.034 19.261)">
                <path id="Trazado_992984" data-name="Trazado 992984" d="M399.467,772.333s.451-18.478,18.62-13.541c2.955.8-21.386-7.632-19.746-15.709s14.769-3.639,27.7,2.153" transform="translate(-397.609 -738.043)" fill="#fff"/>
                <path id="Trazado_992985" data-name="Trazado 992985" d="M399.16,772.681h-.016a.648.648,0,0,1-.632-.663c.009-.344.27-8.474,5.876-12.653a12.851,12.851,0,0,1,8.706-2.329c-11.435-5.326-16.575-10.044-15.7-14.38a5.56,5.56,0,0,1,2.942-4.068c5.284-2.717,16.487,1.65,25.656,5.758a.648.648,0,1,1-.53,1.182c-8.208-3.677-19.683-8.278-24.533-5.788a4.263,4.263,0,0,0-2.263,3.173c-.56,2.759,2.2,7.518,18.5,14.525,1.388.6,1.677.72,1.469,1.317s-.825.419-1.031.362c-5.21-1.415-9.4-.985-12.442,1.281-5.1,3.8-5.358,11.573-5.36,11.651A.65.65,0,0,1,399.16,772.681Z" transform="translate(-397.302 -737.743)" fill="#050004"/>
              </g>
            </g>
          </g>
        </g>
      </g>
      <g id="Grupo_1157866" data-name="Grupo 1157866" transform="translate(421.303 90.698)">
        <g id="Grupo_1157863" data-name="Grupo 1157863" transform="translate(0 12.866)">
          <path id="Trazado_992986" data-name="Trazado 992986" d="M693.636,616.244h-39.07a9.039,9.039,0,0,0-9.038,9.039v39l9.19-8.438h38.919a9.038,9.038,0,0,0,9.038-9.039V625.282A9.039,9.039,0,0,0,693.636,616.244Z" transform="translate(-645.528 -616.244)" fill="#fff" stroke="#000" stroke-linecap="round" stroke-linejoin="round" stroke-miterlimit="10" stroke-width="0.75"/>
        </g>
        <g id="Grupo_1157865" data-name="Grupo 1157865" transform="translate(11.258 0)">
          <path id="Trazado_992987" data-name="Trazado 992987" d="M710.18,597.338H671.109a9.038,9.038,0,0,0-9.039,9.039v39l9.19-8.437h38.92a9.038,9.038,0,0,0,9.038-9.039V606.377A9.039,9.039,0,0,0,710.18,597.338Z" transform="translate(-662.071 -597.338)" fill="#fff" stroke="#000" stroke-linecap="round" stroke-linejoin="round" stroke-miterlimit="10" stroke-width="0.75"/>
          <g id="Grupo_1157864" data-name="Grupo 1157864" transform="translate(11.773 16.591)">
            <path id="Trazado_992988" data-name="Trazado 992988" d="M687.232,625.648a3.93,3.93,0,1,1-3.93-3.93A3.93,3.93,0,0,1,687.232,625.648Z" transform="translate(-679.372 -621.718)"/>
            <path id="Trazado_992989" data-name="Trazado 992989" d="M707.32,625.648a3.93,3.93,0,1,1-3.929-3.93A3.93,3.93,0,0,1,707.32,625.648Z" transform="translate(-685.79 -621.718)"/>
            <path id="Trazado_992990" data-name="Trazado 992990" d="M727.409,625.648a3.93,3.93,0,1,1-3.93-3.93A3.93,3.93,0,0,1,727.409,625.648Z" transform="translate(-692.208 -621.718)"/>
          </g>
        </g>
      </g>
      <g id="Grupo_1157884" data-name="Grupo 1157884" transform="translate(3.067 161.098)">
        <g id="Grupo_1157880" data-name="Grupo 1157880" transform="translate(65.051 0)">
          <g id="Grupo_1157879" data-name="Grupo 1157879" transform="translate(0)">
            <g id="Grupo_1157867" data-name="Grupo 1157867" transform="translate(138.111 81.09)">
              <path id="Trazado_992991" data-name="Trazado 992991" d="M330.52,843.883l11,2.591c5.373,1.266,10.822-2.349,12.171-8.073l.508-2.158c1.348-5.724-1.914-11.391-7.288-12.657l-11-2.591Z" transform="translate(-329.81 -820.285)" fill="#000201"/>
              <path id="Trazado_992992" data-name="Trazado 992992" d="M341.022,846.831l-11-2.591a.708.708,0,0,1-.527-.854l5.39-22.888a.709.709,0,0,1,.853-.529l11,2.591a10.335,10.335,0,0,1,6.617,4.993,11.651,11.651,0,0,1,1.2,8.518l-.509,2.158a11.642,11.642,0,0,1-4.874,7.086,10.672,10.672,0,0,1-3.943,1.616A10.138,10.138,0,0,1,341.022,846.831Zm-9.983-3.81,10.308,2.428a8.924,8.924,0,0,0,7.038-1.316,10.239,10.239,0,0,0,4.278-6.23l.509-2.158a10.238,10.238,0,0,0-1.047-7.484,8.929,8.929,0,0,0-5.713-4.318L336.1,821.515Z" transform="translate(-329.477 -819.951)" fill="#000201"/>
            </g>
            <g id="Grupo_1157868" data-name="Grupo 1157868" transform="translate(92.569 110.973)">
              <path id="Trazado_992993" data-name="Trazado 992993" d="M270.758,946.4h0c5.192,1.223,10.559-2.7,11.988-8.768l13.969-59.308c1.429-6.066-1.622-11.974-6.814-13.2h0c-5.192-1.223-10.559,2.7-11.988,8.768L263.944,933.2C262.515,939.27,265.566,945.179,270.758,946.4Z" transform="translate(-262.885 -864.197)" fill="#000201"/>
              <path id="Trazado_992994" data-name="Trazado 992994" d="M270.263,946.76h0c-5.564-1.311-8.857-7.614-7.341-14.05L276.891,873.4c1.517-6.436,7.275-10.606,12.84-9.3a9.653,9.653,0,0,1,6.357,5.148,12.933,12.933,0,0,1,.984,8.9L283.1,937.464a12.936,12.936,0,0,1-4.853,7.526,10.327,10.327,0,0,1-4.2,1.856A9.157,9.157,0,0,1,270.263,946.76Zm8.008-73.033L264.3,933.036c-1.337,5.675,1.484,11.211,6.286,12.343a8.25,8.25,0,0,0,6.823-1.533,11.522,11.522,0,0,0,4.312-6.707l13.969-59.308a11.523,11.523,0,0,0-.864-7.926,8.254,8.254,0,0,0-5.423-4.417,7.7,7.7,0,0,0-3.194-.069C282.561,866.1,279.311,869.316,278.271,873.727Zm-7.859,72.344.014,0Z" transform="translate(-262.553 -863.864)" fill="#000201"/>
            </g>
            <g id="Grupo_1157869" data-name="Grupo 1157869" transform="translate(99.297 98.098)">
              <path id="Trazado_992995" data-name="Trazado 992995" d="M279.526,865.936l20.117,4.738a7.837,7.837,0,0,0,9.425-5.831l1.056-4.484a7.837,7.837,0,0,0-5.831-9.424L284.176,846.2a7.836,7.836,0,0,0-9.424,5.831l-1.056,4.485A7.835,7.835,0,0,0,279.526,865.936Z" transform="translate(-272.774 -845.277)" fill="#fff9f3"/>
              <path id="Trazado_992996" data-name="Trazado 992996" d="M299.146,871.032l-20.116-4.738a8.544,8.544,0,0,1-6.359-10.278l1.055-4.484A8.558,8.558,0,0,1,284,845.172l20.118,4.738a8.557,8.557,0,0,1,6.359,10.278l-1.057,4.485a8.533,8.533,0,0,1-10.278,6.36Zm-24.04-19.175-1.055,4.485a7.135,7.135,0,0,0,5.3,8.571h0l20.116,4.738a7.127,7.127,0,0,0,8.572-5.3l1.057-4.484a7.136,7.136,0,0,0-5.3-8.571l-20.118-4.738a7.13,7.13,0,0,0-8.572,5.3Z" transform="translate(-272.44 -844.944)" fill="#000201"/>
            </g>
            <g id="Grupo_1157870" data-name="Grupo 1157870" transform="translate(106.177 60.28)">
              <path id="Trazado_992997" data-name="Trazado 992997" d="M283.592,838.524l23.117,5.445c11.294,2.66,22.748-4.938,25.582-16.97l1.068-4.536c2.834-12.033-4.024-23.943-15.318-26.6l-23.117-5.445Z" transform="translate(-282.883 -789.705)" fill="#f381d8"/>
              <path id="Trazado_992998" data-name="Trazado 992998" d="M306.213,844.327,283.1,838.881a.708.708,0,0,1-.527-.854l11.33-48.11a.709.709,0,0,1,.853-.528l23.118,5.445a20.947,20.947,0,0,1,13.41,10.123,23.7,23.7,0,0,1,2.437,17.333l-1.068,4.537A23.179,23.179,0,0,1,314.7,844.521,20.5,20.5,0,0,1,306.213,844.327Zm-22.1-6.664,22.426,5.282c10.9,2.568,21.988-4.81,24.73-16.442l1.068-4.537a22.288,22.288,0,0,0-2.286-16.3,19.538,19.538,0,0,0-12.506-9.45l-22.427-5.283Z" transform="translate(-282.55 -789.371)" fill="#050004"/>
            </g>
            <g id="Grupo_1157871" data-name="Grupo 1157871" transform="translate(26.58 7.285)">
              <path id="Trazado_992999" data-name="Trazado 992999" d="M257.553,765.531h0l-11.331,48.11h0a80.6,80.6,0,0,0-52.744,5.828L166.626,831.5,194.732,712.53l18.223,24.244A80.6,80.6,0,0,0,257.553,765.531Z" transform="translate(-165.917 -711.826)" fill="#f8eee2"/>
              <path id="Trazado_993000" data-name="Trazado 993000" d="M165.841,831.718a.708.708,0,0,1-.238-.71l28.106-118.971a.707.707,0,0,1,.545-.532.744.744,0,0,1,.713.269L213.18,736c11.575,14.565,26.861,24.423,44.2,28.507a.709.709,0,0,1,.527.854l-11.33,48.11a.709.709,0,0,1-.853.528c-17.346-4.087-35.425-2.086-52.291,5.786L166.584,831.82a.685.685,0,0,1-.16.05A.715.715,0,0,1,165.841,831.718Zm79.52-19.258,11.007-46.734C239,761.47,223.689,751.509,212.055,736.87l-17.313-23.034-27.427,116.1,25.53-11.441a85.45,85.45,0,0,1,20.442-6.612A79.052,79.052,0,0,1,245.361,812.46Z" transform="translate(-165.584 -711.495)" fill="#000201"/>
            </g>
            <g id="Grupo_1157872" data-name="Grupo 1157872" transform="translate(26.58 7.285)">
              <path id="Trazado_993001" data-name="Trazado 993001" d="M257.553,765.531h0l-11.331,48.11h0a80.6,80.6,0,0,0-52.744,5.828L166.626,831.5,194.732,712.53l18.223,24.244A80.6,80.6,0,0,0,257.553,765.531Z" transform="translate(-165.917 -711.826)" fill="#f38200"/>
              <path id="Trazado_993002" data-name="Trazado 993002" d="M165.841,831.718a.708.708,0,0,1-.238-.71l28.106-118.971a.707.707,0,0,1,.545-.532.744.744,0,0,1,.713.269L213.18,736c11.575,14.565,26.861,24.423,44.2,28.507a.709.709,0,0,1,.527.854l-11.33,48.11a.709.709,0,0,1-.853.528c-17.346-4.087-35.425-2.086-52.291,5.786L166.584,831.82a.685.685,0,0,1-.16.05A.715.715,0,0,1,165.841,831.718Zm79.52-19.258,11.007-46.734C239,761.47,223.689,751.509,212.055,736.87l-17.313-23.034-27.427,116.1,25.53-11.441a85.45,85.45,0,0,1,20.442-6.612A79.052,79.052,0,0,1,245.361,812.46Z" transform="translate(-165.584 -711.495)" fill="#050004"/>
            </g>
            <g id="Grupo_1157873" data-name="Grupo 1157873" transform="translate(0)">
              <ellipse id="Elipse_11671" data-name="Elipse 11671" cx="62.909" cy="22.11" rx="62.909" ry="22.11" transform="matrix(0.237, -0.972, 0.972, 0.237, 0, 122.246)" fill="#fff"/>
              <path id="Trazado_993003" data-name="Trazado 993003" d="M152.376,831c-2.642-.614-4.915-2.438-6.754-5.422C139,814.84,138.8,790.093,145.123,764c8.4-34.666,24.738-59.556,37.2-56.661,2.642.614,4.915,2.438,6.754,5.422,6.621,10.741,6.821,35.488.5,61.579-7.565,31.222-21.572,54.512-33.384,56.718A9.208,9.208,0,0,1,152.376,831ZM146.5,764.337h0c-6.24,25.747-6.106,50.059.329,60.5,1.633,2.651,3.607,4.261,5.865,4.785a7.976,7.976,0,0,0,3.3.046c11.083-2.074,24.875-25.414,32.2-55.66,6.24-25.747,6.106-50.059-.329-60.5-1.633-2.651-3.607-4.261-5.865-4.785a7.979,7.979,0,0,0-3.3-.046C167.622,710.749,153.831,734.091,146.5,764.337Z" transform="translate(-130.994 -702.81)" fill="#000201"/>
            </g>
            <g id="Grupo_1157877" data-name="Grupo 1157877" transform="translate(18.434 17.565)">
              <path id="Trazado_993004" data-name="Trazado 993004" d="M157.54,771.3c-6.367,26.542-4.831,49.621,3.43,51.548s20.121-18.029,26.488-44.571,4.832-49.622-3.43-51.548S163.907,744.759,157.54,771.3Z" transform="translate(-153.612 -726.602)" fill="#000201"/>
              <g id="Grupo_1157874" data-name="Grupo 1157874" clip-path="url(#clip-path-2)">
                <path id="XMLID_00000151523072019400259610000008473689199407077821_" d="M179.55,777.914c-6.2,25.841-4.7,48.311,3.34,50.186s19.589-17.552,25.788-43.393,4.7-48.31-3.34-50.186S185.748,752.073,179.55,777.914Z" transform="translate(-160.677 -729.092)" fill="#000201"/>
              </g>
              <g id="Grupo_1157875" data-name="Grupo 1157875" clip-path="url(#clip-path-2)">
                <path id="Trazado_993006" data-name="Trazado 993006" d="M208.564,788.043l-15.637-3.593c-6.387-1.468-13.067,3.625-14.923,11.375h0c-1.855,7.75,1.818,15.223,8.2,16.691l15.636,3.594Z" transform="translate(-161.252 -745.004)" fill="#7c55ff"/>
                <path id="Trazado_993007" data-name="Trazado 993007" d="M201.353,816.468l-15.635-3.594a11.279,11.279,0,0,1-7.021-5.193,16.347,16.347,0,0,1-1.716-12.354c1.945-8.116,9.023-13.456,15.772-11.9l15.637,3.594a.71.71,0,0,1,.532.856L202.2,815.941a.711.711,0,0,1-.56.533A.688.688,0,0,1,201.353,816.468Zm-8.917-31.66c-6-1.38-12.311,3.49-14.074,10.85a14.923,14.923,0,0,0,1.54,11.276,9.878,9.878,0,0,0,6.133,4.557l14.95,3.437,6.389-26.687Z" transform="translate(-160.918 -744.671)" fill="#050004"/>
              </g>
              <g id="Grupo_1157876" data-name="Grupo 1157876" clip-path="url(#clip-path-2)">
                <path id="Trazado_993009" data-name="Trazado 993009" d="M181.676,801.624h0a9.223,9.223,0,0,0-1.6-7.569,11.109,11.109,0,0,0-2.683,5.59h0a12.3,12.3,0,0,0,.85,7.556A8.119,8.119,0,0,0,181.676,801.624Z" transform="translate(-161.135 -748.153)" fill="#fff"/>
                <path id="Trazado_993010" data-name="Trazado 993010" d="M177.709,807.547a.706.706,0,0,1-.432-.367,13.043,13.043,0,0,1-.91-8,11.865,11.865,0,0,1,2.865-5.947.7.7,0,0,1,.53-.22.709.709,0,0,1,.519.243,9.882,9.882,0,0,1,1.76,8.166h0a8.838,8.838,0,0,1-3.769,6.057.726.726,0,0,1-.228.085A.7.7,0,0,1,177.709,807.547Zm2.938-6.387a9.1,9.1,0,0,0-.94-6.3,10.944,10.944,0,0,0-1.946,4.581,11.976,11.976,0,0,0,.456,6.34,8.042,8.042,0,0,0,2.429-4.624Z" transform="translate(-160.803 -747.82)" fill="#050004"/>
              </g>
            </g>
            <g id="Grupo_1157878" data-name="Grupo 1157878" transform="translate(101.319 58.931)">
              <path id="Trazado_993012" data-name="Trazado 993012" d="M287.561,788.43l-11.106,48.454,4.83.849,11.358-47.953Z" transform="translate(-275.745 -787.721)" fill="#fff9f3"/>
              <path id="Trazado_993013" data-name="Trazado 993013" d="M280.828,838.1,276,837.25a.712.712,0,0,1-.569-.857l11.106-48.453a.712.712,0,0,1,.874-.527l5.081,1.35a.709.709,0,0,1,.508.849l-11.358,47.952a.709.709,0,0,1-.56.534A.721.721,0,0,1,280.828,838.1Zm6.928-49.128-10.776,47.01,3.436.6,11.045-46.63Z" transform="translate(-275.412 -787.388)" fill="#000201"/>
            </g>
          </g>
        </g>
        <g id="Grupo_1157881" data-name="Grupo 1157881" transform="translate(49.853 6.395)">
          <path id="Trazado_993014" data-name="Trazado 993014" d="M105.233,711.229,114.268,734l3.253-5.783,11.2,14.819-10.21-25.392-3.524,5.15Z" transform="translate(-104.523 -710.52)" fill="#ffd387"/>
          <path id="Trazado_993015" data-name="Trazado 993015" d="M127.827,743.132l-10.552-13.955-2.722,4.839a.709.709,0,0,1-1.277-.086l-9.036-22.771a.709.709,0,0,1,1.2-.719l9.158,10.853,3-4.381a.709.709,0,0,1,1.243.136l10.21,25.391a.71.71,0,0,1-1.224.693Zm-12.584-20.268a.721.721,0,0,1-.55.308.71.71,0,0,1-.577-.252l-6.951-8.238,6.882,17.342,2.523-4.487a.709.709,0,0,1,1.185-.08l8,10.574-7.73-19.223Z" transform="translate(-104.19 -710.188)" fill="#050004"/>
        </g>
        <g id="Grupo_1157882" data-name="Grupo 1157882" transform="translate(27.799 85.74)">
          <path id="Trazado_993016" data-name="Trazado 993016" d="M72.823,840.643,95.8,838.5l-4.367-4.47,16.36-6.206-25.652,2.51,3.722,4.548Z" transform="translate(-72.114 -827.117)" fill="#ffd387"/>
          <path id="Trazado_993017" data-name="Trazado 993017" d="M95.529,838.876l-22.972,2.142a.709.709,0,0,1-.352-1.356l12.183-5.382-3.133-3.826a.709.709,0,0,1,.48-1.156l25.652-2.51a.71.71,0,0,1,.321,1.37l-15.347,5.821,3.609,3.7a.71.71,0,0,1-.378,1.193Zm-12.336-8.3,2.883,3.522a.709.709,0,0,1-.263,1.1l-9.053,4,17.156-1.6-3.326-3.407a.711.711,0,0,1,.256-1.16l11.382-4.318Z" transform="translate(-71.782 -826.784)" fill="#050004"/>
        </g>
        <g id="Grupo_1157883" data-name="Grupo 1157883" transform="translate(0 37.74)">
          <path id="Trazado_993018" data-name="Trazado 993018" d="M31.974,764.251,67.728,781.41l-2.482-10.451,29.6,5.32L54.818,757.294l1.465,10Z" transform="translate(-31.265 -756.583)" fill="#ffd387"/>
          <path id="Trazado_993019" data-name="Trazado 993019" d="M67.088,781.716,31.333,764.557a.71.71,0,0,1,.4-1.343l23.384,2.923-1.33-9.073a.71.71,0,0,1,1.007-.744L94.819,775.3a.71.71,0,0,1-.431,1.339l-28.534-5.128,2.231,9.4a.709.709,0,0,1-1,.8ZM65.04,769.928,89.4,774.306,55.38,758.169l1.273,8.683a.709.709,0,0,1-.791.806l-19.989-2.5,30.489,14.631-2.137-9a.7.7,0,0,1,.174-.651.7.7,0,0,1,.642-.21Z" transform="translate(-30.932 -756.249)" fill="#050004"/>
        </g>
      </g>
      <g id="Grupo_1157887" data-name="Grupo 1157887" transform="translate(394.654 284.152)">
        <g id="Grupo_1157885" data-name="Grupo 1157885" transform="translate(0 0)">
          <path id="Trazado_993020" data-name="Trazado 993020" d="M718.351,918.73H927.579a4.132,4.132,0,0,0,4.132-4.132V886.757a4.132,4.132,0,0,0-4.132-4.132H718.351a4.132,4.132,0,0,0-4.132,4.132V914.6A4.131,4.131,0,0,0,718.351,918.73Z" transform="translate(-713.533 -881.939)" fill="#f38200"/>
          <path id="Trazado_993021" data-name="Trazado 993021" d="M914.735,919.094H730.549a17.358,17.358,0,0,1-17.338-17.339v-2.8a17.358,17.358,0,0,1,17.338-17.338H914.737a17.358,17.358,0,0,1,17.339,17.338v2.8A17.36,17.36,0,0,1,914.735,919.094ZM730.549,882.988a15.984,15.984,0,0,0-15.967,15.967v2.8a15.985,15.985,0,0,0,15.967,15.967H914.737A15.986,15.986,0,0,0,930.7,901.755v-2.8a15.985,15.985,0,0,0-15.967-15.967Z" transform="translate(-713.211 -881.617)" fill="#050004"/>
        </g>
        <path id="Trazado_993022" data-name="Trazado 993022" d="M753.007,913.893h140.15a.752.752,0,0,0,.753-.753V896.773a.753.753,0,0,0-.753-.753H753.007a.753.753,0,0,0-.753.753v16.368A.753.753,0,0,0,753.007,913.893Z" transform="translate(-725.685 -886.219)" fill="#fff"/>
        <g id="Grupo_1157886" data-name="Grupo 1157886" transform="translate(181.274 9.736)">
          <path id="Trazado_993023" data-name="Trazado 993023" d="M994.132,909.523a6.8,6.8,0,1,1,6.8-6.8A6.8,6.8,0,0,1,994.132,909.523Zm0-12.142a5.342,5.342,0,1,0,5.343,5.342A5.349,5.349,0,0,0,994.132,897.381Z" transform="translate(-982.065 -895.924)" fill="#fff"/>
          <path id="Trazado_993024" data-name="Trazado 993024" d="M980.322,918.587a.729.729,0,0,1-.515-1.245l6.626-6.625a.729.729,0,0,1,1.031,1.031l-6.626,6.625A.727.727,0,0,1,980.322,918.587Z" transform="translate(-979.593 -900.582)" fill="#fff"/>
        </g>
      </g>
      <g id="Grupo_1157901" data-name="Grupo 1157901" transform="translate(35 97.277)">
        <g id="Grupo_1157891" data-name="Grupo 1157891" transform="translate(14.857)">
          <g id="Grupo_1157889" data-name="Grupo 1157889">
            <path id="Trazado_993025" data-name="Trazado 993025" d="M49.2,642.106a.94.94,0,0,1-.94-.941v-8.327a.94.94,0,1,1,1.881,0v8.327A.94.94,0,0,1,49.2,642.106Z" transform="translate(-48.258 -631.898)"/>
          </g>
          <g id="Grupo_1157890" data-name="Grupo 1157890" transform="translate(0 21.386)">
            <path id="Trazado_993026" data-name="Trazado 993026" d="M49.2,673.531a.94.94,0,0,1-.94-.941v-8.326a.94.94,0,1,1,1.881,0v8.326A.94.94,0,0,1,49.2,673.531Z" transform="translate(-48.258 -663.324)"/>
          </g>
        </g>
        <g id="Grupo_1157894" data-name="Grupo 1157894" transform="translate(0 14.855)">
          <g id="Grupo_1157892" data-name="Grupo 1157892" transform="translate(21.385)">
            <path id="Trazado_993027" data-name="Trazado 993027" d="M67.118,655.609H58.79a.94.94,0,0,1,0-1.881h8.328a.94.94,0,0,1,0,1.881Z" transform="translate(-57.85 -653.728)"/>
          </g>
          <g id="Grupo_1157893" data-name="Grupo 1157893">
            <path id="Trazado_993028" data-name="Trazado 993028" d="M35.693,655.609H27.365a.94.94,0,0,1,0-1.881h8.328a.94.94,0,0,1,0,1.881Z" transform="translate(-26.425 -653.728)"/>
          </g>
        </g>
        <g id="Grupo_1157897" data-name="Grupo 1157897" transform="translate(4.352 4.351)">
          <g id="Grupo_1157895" data-name="Grupo 1157895" transform="translate(0 15.121)">
            <line id="Línea_1091" data-name="Línea 1091" y1="5.888" x2="5.888" transform="translate(0.94 0.941)"/>
            <path id="Trazado_993029" data-name="Trazado 993029" d="M33.76,668.282a.941.941,0,0,1-.665-1.606l5.888-5.888a.94.94,0,1,1,1.33,1.33l-5.888,5.888A.935.935,0,0,1,33.76,668.282Z" transform="translate(-32.82 -660.512)"/>
          </g>
          <g id="Grupo_1157896" data-name="Grupo 1157896" transform="translate(15.121)">
            <line id="Línea_1092" data-name="Línea 1092" y1="5.888" x2="5.888" transform="translate(0.941 0.94)"/>
            <path id="Trazado_993030" data-name="Trazado 993030" d="M55.98,646.061a.941.941,0,0,1-.665-1.606l5.888-5.887a.94.94,0,0,1,1.33,1.33l-5.888,5.888A.938.938,0,0,1,55.98,646.061Z" transform="translate(-55.04 -638.292)"/>
          </g>
        </g>
        <g id="Grupo_1157900" data-name="Grupo 1157900" transform="translate(4.352 4.351)">
          <g id="Grupo_1157898" data-name="Grupo 1157898">
            <line id="Línea_1093" data-name="Línea 1093" x2="5.888" y2="5.888" transform="translate(0.94 0.94)"/>
            <path id="Trazado_993031" data-name="Trazado 993031" d="M39.649,646.061a.937.937,0,0,1-.665-.276L33.1,639.9a.94.94,0,0,1,1.33-1.33l5.888,5.887a.941.941,0,0,1-.666,1.606Z" transform="translate(-32.82 -638.292)"/>
          </g>
          <g id="Grupo_1157899" data-name="Grupo 1157899" transform="translate(15.12 15.121)">
            <line id="Línea_1094" data-name="Línea 1094" x2="5.888" y2="5.888" transform="translate(0.942 0.94)"/>
            <path id="Trazado_993032" data-name="Trazado 993032" d="M61.868,668.282a.937.937,0,0,1-.665-.276l-5.888-5.888a.94.94,0,0,1,1.33-1.33l5.888,5.888a.94.94,0,0,1-.665,1.605Z" transform="translate(-55.039 -660.513)"/>
          </g>
        </g>
      </g>
      <g id="Grupo_1157914" data-name="Grupo 1157914" transform="translate(201.064 359.261)">
        <g id="Grupo_1157904" data-name="Grupo 1157904" transform="translate(14.857 0)">
          <g id="Grupo_1157902" data-name="Grupo 1157902">
            <path id="Trazado_993033" data-name="Trazado 993033" d="M344.66,1002.2a.94.94,0,0,1-.941-.941V992.93a.94.94,0,1,1,1.881,0v8.327A.941.941,0,0,1,344.66,1002.2Z" transform="translate(-343.72 -991.989)"/>
          </g>
          <g id="Grupo_1157903" data-name="Grupo 1157903" transform="translate(0 21.383)">
            <path id="Trazado_993034" data-name="Trazado 993034" d="M344.66,1033.618a.94.94,0,0,1-.941-.94v-8.326a.94.94,0,0,1,1.881,0v8.326A.941.941,0,0,1,344.66,1033.618Z" transform="translate(-343.72 -1023.411)"/>
          </g>
        </g>
        <g id="Grupo_1157907" data-name="Grupo 1157907" transform="translate(0 14.853)">
          <g id="Grupo_1157905" data-name="Grupo 1157905" transform="translate(21.386)">
            <path id="Trazado_993035" data-name="Trazado 993035" d="M362.581,1015.7h-8.328a.94.94,0,0,1,0-1.881h8.328a.94.94,0,0,1,0,1.881Z" transform="translate(-353.313 -1013.816)"/>
          </g>
          <g id="Grupo_1157906" data-name="Grupo 1157906">
            <path id="Trazado_993036" data-name="Trazado 993036" d="M331.155,1015.7h-8.328a.94.94,0,1,1,0-1.881h8.328a.94.94,0,0,1,0,1.881Z" transform="translate(-321.887 -1013.816)"/>
          </g>
        </g>
        <g id="Grupo_1157910" data-name="Grupo 1157910" transform="translate(4.353 4.352)">
          <g id="Grupo_1157908" data-name="Grupo 1157908" transform="translate(0 15.12)">
            <line id="Línea_1095" data-name="Línea 1095" y1="5.893" x2="5.888" transform="translate(0.94 0.937)"/>
            <path id="Trazado_993037" data-name="Trazado 993037" d="M329.223,1028.373a.941.941,0,0,1-.665-1.605l5.888-5.888a.94.94,0,0,1,1.33,1.33l-5.888,5.888A.956.956,0,0,1,329.223,1028.373Z" transform="translate(-328.283 -1020.603)"/>
          </g>
          <g id="Grupo_1157909" data-name="Grupo 1157909" transform="translate(15.12)">
            <line id="Línea_1096" data-name="Línea 1096" y1="5.884" x2="5.888" transform="translate(0.941 0.938)"/>
            <path id="Trazado_993038" data-name="Trazado 993038" d="M351.442,1006.153a.941.941,0,0,1-.665-1.606l5.888-5.887A.941.941,0,1,1,358,999.99l-5.888,5.887A.954.954,0,0,1,351.442,1006.153Z" transform="translate(-350.502 -998.384)"/>
          </g>
        </g>
        <g id="Grupo_1157913" data-name="Grupo 1157913" transform="translate(4.353 4.352)">
          <g id="Grupo_1157911" data-name="Grupo 1157911">
            <line id="Línea_1097" data-name="Línea 1097" x2="5.888" y2="5.884" transform="translate(0.94 0.938)"/>
            <path id="Trazado_993039" data-name="Trazado 993039" d="M335.112,1006.153a.936.936,0,0,1-.665-.276l-5.888-5.887a.941.941,0,0,1,1.33-1.331l5.888,5.887a.941.941,0,0,1,0,1.33A.955.955,0,0,1,335.112,1006.153Z" transform="translate(-328.283 -998.384)"/>
          </g>
          <g id="Grupo_1157912" data-name="Grupo 1157912" transform="translate(15.12 15.12)">
            <line id="Línea_1098" data-name="Línea 1098" x2="5.888" y2="5.893" transform="translate(0.941 0.937)"/>
            <path id="Trazado_993040" data-name="Trazado 993040" d="M357.331,1028.373a.937.937,0,0,1-.665-.276l-5.888-5.888a.94.94,0,0,1,1.33-1.33l5.888,5.888a.94.94,0,0,1,0,1.33A.953.953,0,0,1,357.331,1028.373Z" transform="translate(-350.502 -1020.603)"/>
          </g>
        </g>
      </g>
      <g id="Grupo_1157927" data-name="Grupo 1157927" transform="translate(176.133 10.802)">
        <g id="Grupo_1157917" data-name="Grupo 1157917" transform="translate(14.857 0)">
          <g id="Grupo_1157915" data-name="Grupo 1157915">
            <path id="Trazado_993041" data-name="Trazado 993041" d="M305.486,474.265a.94.94,0,0,1-.94-.94V465a.94.94,0,0,1,1.881,0v8.327A.94.94,0,0,1,305.486,474.265Z" transform="translate(-304.546 -464.057)"/>
          </g>
          <g id="Grupo_1157916" data-name="Grupo 1157916" transform="translate(0 21.386)">
            <path id="Trazado_993042" data-name="Trazado 993042" d="M305.486,505.69a.94.94,0,0,1-.94-.941v-8.326a.94.94,0,0,1,1.881,0v8.326A.94.94,0,0,1,305.486,505.69Z" transform="translate(-304.546 -495.483)"/>
          </g>
        </g>
        <g id="Grupo_1157920" data-name="Grupo 1157920" transform="translate(0 14.855)">
          <g id="Grupo_1157918" data-name="Grupo 1157918" transform="translate(21.385)">
            <path id="Trazado_993043" data-name="Trazado 993043" d="M323.406,487.768h-8.328a.94.94,0,1,1,0-1.881h8.328a.94.94,0,1,1,0,1.881Z" transform="translate(-314.138 -485.887)"/>
          </g>
          <g id="Grupo_1157919" data-name="Grupo 1157919">
            <path id="Trazado_993044" data-name="Trazado 993044" d="M291.982,487.768h-8.328a.94.94,0,1,1,0-1.881h8.328a.94.94,0,1,1,0,1.881Z" transform="translate(-282.713 -485.887)"/>
          </g>
        </g>
        <g id="Grupo_1157923" data-name="Grupo 1157923" transform="translate(4.352 4.352)">
          <g id="Grupo_1157921" data-name="Grupo 1157921" transform="translate(0 15.121)">
            <line id="Línea_1099" data-name="Línea 1099" y1="5.888" x2="5.888" transform="translate(0.94 0.94)"/>
            <path id="Trazado_993045" data-name="Trazado 993045" d="M290.048,500.441a.94.94,0,0,1-.665-1.605l5.888-5.888a.94.94,0,1,1,1.33,1.33l-5.888,5.888A.937.937,0,0,1,290.048,500.441Z" transform="translate(-289.108 -492.672)"/>
          </g>
          <g id="Grupo_1157922" data-name="Grupo 1157922" transform="translate(15.12)">
            <line id="Línea_1100" data-name="Línea 1100" y1="5.888" x2="5.888" transform="translate(0.942 0.94)"/>
            <path id="Trazado_993046" data-name="Trazado 993046" d="M312.267,478.22a.941.941,0,0,1-.665-1.605l5.888-5.887a.94.94,0,1,1,1.33,1.33l-5.888,5.887A.935.935,0,0,1,312.267,478.22Z" transform="translate(-311.327 -470.452)"/>
          </g>
        </g>
        <g id="Grupo_1157926" data-name="Grupo 1157926" transform="translate(4.352 4.352)">
          <g id="Grupo_1157924" data-name="Grupo 1157924">
            <line id="Línea_1101" data-name="Línea 1101" x2="5.888" y2="5.888" transform="translate(0.94 0.94)"/>
            <path id="Trazado_993047" data-name="Trazado 993047" d="M295.937,478.22a.938.938,0,0,1-.665-.276l-5.888-5.887a.94.94,0,1,1,1.33-1.33l5.888,5.887a.941.941,0,0,1-.665,1.605Z" transform="translate(-289.108 -470.452)"/>
          </g>
          <g id="Grupo_1157925" data-name="Grupo 1157925" transform="translate(15.12 15.12)">
            <line id="Línea_1102" data-name="Línea 1102" x2="5.888" y2="5.888" transform="translate(0.942 0.941)"/>
            <path id="Trazado_993048" data-name="Trazado 993048" d="M318.156,500.441a.937.937,0,0,1-.665-.276l-5.888-5.888a.94.94,0,0,1,1.33-1.33l5.888,5.888a.941.941,0,0,1-.665,1.606Z" transform="translate(-311.327 -492.671)"/>
          </g>
        </g>
      </g>
      <g id="Grupo_1157940" data-name="Grupo 1157940" transform="translate(475.758 356.586)">
        <g id="Grupo_1157930" data-name="Grupo 1157930" transform="translate(14.857)">
          <g id="Grupo_1157928" data-name="Grupo 1157928">
            <path id="Trazado_993049" data-name="Trazado 993049" d="M748.322,998.267a.94.94,0,0,1-.94-.941V989a.94.94,0,1,1,1.881,0v8.327A.941.941,0,0,1,748.322,998.267Z" transform="translate(-747.382 -988.059)"/>
          </g>
          <g id="Grupo_1157929" data-name="Grupo 1157929" transform="translate(0 21.383)">
            <path id="Trazado_993050" data-name="Trazado 993050" d="M748.322,1029.688a.94.94,0,0,1-.94-.94v-8.326a.94.94,0,0,1,1.881,0v8.326A.941.941,0,0,1,748.322,1029.688Z" transform="translate(-747.382 -1019.481)"/>
          </g>
        </g>
        <g id="Grupo_1157933" data-name="Grupo 1157933" transform="translate(0 14.853)">
          <g id="Grupo_1157931" data-name="Grupo 1157931" transform="translate(21.385)">
            <path id="Trazado_993051" data-name="Trazado 993051" d="M766.242,1011.767h-8.328a.94.94,0,1,1,0-1.881h8.328a.94.94,0,1,1,0,1.881Z" transform="translate(-756.974 -1009.886)"/>
          </g>
          <g id="Grupo_1157932" data-name="Grupo 1157932">
            <path id="Trazado_993052" data-name="Trazado 993052" d="M734.818,1011.767H726.49a.94.94,0,1,1,0-1.881h8.328a.94.94,0,1,1,0,1.881Z" transform="translate(-725.549 -1009.886)"/>
          </g>
        </g>
        <g id="Grupo_1157936" data-name="Grupo 1157936" transform="translate(4.353 4.345)">
          <g id="Grupo_1157934" data-name="Grupo 1157934" transform="translate(0 15.126)">
            <line id="Línea_1103" data-name="Línea 1103" y1="5.886" x2="5.888" transform="translate(0.94 0.938)"/>
            <path id="Trazado_993053" data-name="Trazado 993053" d="M732.885,1024.442a.941.941,0,0,1-.665-1.606l5.888-5.888a.941.941,0,0,1,1.33,1.33l-5.888,5.888A.956.956,0,0,1,732.885,1024.442Z" transform="translate(-731.945 -1016.672)"/>
          </g>
          <g id="Grupo_1157935" data-name="Grupo 1157935" transform="translate(15.12)">
            <line id="Línea_1104" data-name="Línea 1104" y1="5.886" x2="5.888" transform="translate(0.941 0.944)"/>
            <path id="Trazado_993054" data-name="Trazado 993054" d="M755.1,1002.213a.941.941,0,0,1-.665-1.606l5.888-5.887a.94.94,0,0,1,1.33,1.33l-5.888,5.887A.924.924,0,0,1,755.1,1002.213Z" transform="translate(-754.164 -994.444)"/>
          </g>
        </g>
        <g id="Grupo_1157939" data-name="Grupo 1157939" transform="translate(4.352 4.345)">
          <g id="Grupo_1157937" data-name="Grupo 1157937">
            <line id="Línea_1105" data-name="Línea 1105" x2="5.888" y2="5.886" transform="translate(0.94 0.944)"/>
            <path id="Trazado_993055" data-name="Trazado 993055" d="M738.773,1002.213a.937.937,0,0,1-.665-.276l-5.889-5.887a.941.941,0,0,1,1.33-1.33l5.889,5.887a.941.941,0,0,1,0,1.331A.924.924,0,0,1,738.773,1002.213Z" transform="translate(-731.944 -994.444)"/>
          </g>
          <g id="Grupo_1157938" data-name="Grupo 1157938" transform="translate(15.12 15.126)">
            <line id="Línea_1106" data-name="Línea 1106" x2="5.888" y2="5.886" transform="translate(0.942 0.938)"/>
            <path id="Trazado_993056" data-name="Trazado 993056" d="M760.992,1024.442a.936.936,0,0,1-.665-.276l-5.889-5.888a.941.941,0,0,1,1.33-1.33l5.888,5.888a.941.941,0,0,1,0,1.33A.952.952,0,0,1,760.992,1024.442Z" transform="translate(-754.163 -1016.672)"/>
          </g>
        </g>
      </g>
      <g id="Grupo_1157953" data-name="Grupo 1157953" transform="translate(575.704 246.115)">
        <g id="Grupo_1157943" data-name="Grupo 1157943" transform="translate(14.857 0)">
          <g id="Grupo_1157941" data-name="Grupo 1157941">
            <path id="Trazado_993057" data-name="Trazado 993057" d="M939.277,750.137a.94.94,0,0,1-.94-.94v-8.327a.94.94,0,0,1,1.881,0V749.2A.94.94,0,0,1,939.277,750.137Z" transform="translate(-938.337 -739.929)"/>
          </g>
          <g id="Grupo_1157942" data-name="Grupo 1157942" transform="translate(0 21.386)">
            <path id="Trazado_993058" data-name="Trazado 993058" d="M939.277,781.562a.94.94,0,0,1-.94-.94V772.3a.94.94,0,0,1,1.881,0v8.326A.94.94,0,0,1,939.277,781.562Z" transform="translate(-938.337 -771.355)"/>
          </g>
        </g>
        <g id="Grupo_1157946" data-name="Grupo 1157946" transform="translate(0 14.856)">
          <g id="Grupo_1157944" data-name="Grupo 1157944" transform="translate(21.385)">
            <path id="Trazado_993059" data-name="Trazado 993059" d="M957.2,763.641H948.87a.941.941,0,1,1,0-1.881H957.2a.941.941,0,0,1,0,1.881Z" transform="translate(-947.929 -761.76)"/>
          </g>
          <g id="Grupo_1157945" data-name="Grupo 1157945">
            <path id="Trazado_993060" data-name="Trazado 993060" d="M925.772,763.641h-8.328a.941.941,0,0,1,0-1.881h8.328a.941.941,0,0,1,0,1.881Z" transform="translate(-916.504 -761.76)"/>
          </g>
        </g>
        <g id="Grupo_1157949" data-name="Grupo 1157949" transform="translate(4.352 4.351)">
          <g id="Grupo_1157947" data-name="Grupo 1157947" transform="translate(0 15.122)">
            <line id="Línea_1107" data-name="Línea 1107" y1="5.888" x2="5.888" transform="translate(0.94 0.94)"/>
            <path id="Trazado_993061" data-name="Trazado 993061" d="M923.84,776.313a.94.94,0,0,1-.665-1.605l5.888-5.888a.941.941,0,0,1,1.331,1.33l-5.888,5.888A.941.941,0,0,1,923.84,776.313Z" transform="translate(-922.899 -768.544)"/>
          </g>
          <g id="Grupo_1157948" data-name="Grupo 1157948" transform="translate(15.12)">
            <line id="Línea_1108" data-name="Línea 1108" y1="5.888" x2="5.888" transform="translate(0.941 0.94)"/>
            <path id="Trazado_993062" data-name="Trazado 993062" d="M946.058,754.092a.941.941,0,0,1-.665-1.606l5.888-5.887a.94.94,0,0,1,1.33,1.33l-5.888,5.887A.934.934,0,0,1,946.058,754.092Z" transform="translate(-945.118 -746.323)"/>
          </g>
        </g>
        <g id="Grupo_1157952" data-name="Grupo 1157952" transform="translate(4.352 4.352)">
          <g id="Grupo_1157950" data-name="Grupo 1157950">
            <line id="Línea_1109" data-name="Línea 1109" x2="5.888" y2="5.888" transform="translate(0.94 0.94)"/>
            <path id="Trazado_993063" data-name="Trazado 993063" d="M929.728,754.092a.937.937,0,0,1-.665-.276l-5.888-5.887a.94.94,0,0,1,1.33-1.33l5.888,5.887a.94.94,0,0,1-.665,1.605Z" transform="translate(-922.899 -746.324)"/>
          </g>
          <g id="Grupo_1157951" data-name="Grupo 1157951" transform="translate(15.12 15.12)">
            <line id="Línea_1110" data-name="Línea 1110" x2="5.888" y2="5.888" transform="translate(0.941 0.941)"/>
            <path id="Trazado_993064" data-name="Trazado 993064" d="M951.947,776.313a.936.936,0,0,1-.665-.276l-5.888-5.888a.941.941,0,0,1,1.33-1.331l5.888,5.888a.941.941,0,0,1-.666,1.606Z" transform="translate(-945.118 -768.543)"/>
          </g>
        </g>
      </g>
      <g id="Grupo_1157956" data-name="Grupo 1157956" transform="translate(125.494 58.048)">
        <g id="Grupo_1157955" data-name="Grupo 1157955" transform="translate(0 0)">
          <path id="Trazado_993065" data-name="Trazado 993065" d="M278.9,560.113a9.721,9.721,0,0,0-9.744-9.7l-47.562.116a9.721,9.721,0,0,0-9.7,9.744l.076,31.481a9.721,9.721,0,0,0,9.744,9.7l10.218-.025,13.088,13.024,13.024-13.087,11.233-.027a9.721,9.721,0,0,0,9.7-9.744Z" transform="translate(-211.175 -549.696)" fill="#f381d8"/>
          <path id="Trazado_993066" data-name="Trazado 993066" d="M244.683,614.833a.712.712,0,0,1-.507-.21L231.3,601.81l-9.919.024h-.027a10.439,10.439,0,0,1-10.439-10.415l-.076-31.481a10.44,10.44,0,0,1,10.415-10.465l47.561-.115h.027a10.454,10.454,0,0,1,10.439,10.414h0l.076,31.481a10.451,10.451,0,0,1-10.415,10.465l-10.935.027L245.192,614.62A.712.712,0,0,1,244.683,614.833Zm-13.089-14.462a.719.719,0,0,1,.507.21L244.68,613.1,257.2,600.52a.721.721,0,0,1,.508-.212l11.232-.027a9.013,9.013,0,0,0,8.979-9.023l-.076-31.48a9.013,9.013,0,0,0-9-8.98h-.022l-47.561.115a9,9,0,0,0-8.979,9.024l.076,31.482a9,9,0,0,0,9,8.979h.024l10.217-.025h0Z" transform="translate(-210.838 -549.358)" fill="#050004"/>
        </g>
      </g>
      <g id="Grupo_1157957" data-name="Grupo 1157957" transform="translate(144.955 70.39)">
        <path id="Trazado_993067" data-name="Trazado 993067" d="M254.714,569.107l3.347,6.782a1,1,0,0,0,.75.545l7.484,1.088a1,1,0,0,1,.552,1.7l-5.416,5.279a1,1,0,0,0-.286.881l1.278,7.454a1,1,0,0,1-1.445,1.05l-6.694-3.519a1,1,0,0,0-.927,0l-6.694,3.519a1,1,0,0,1-1.445-1.05l1.279-7.454a1,1,0,0,0-.286-.881L240.8,579.22a1,1,0,0,1,.552-1.7l7.484-1.088a1,1,0,0,0,.75-.545l3.347-6.782A1,1,0,0,1,254.714,569.107Z" transform="translate(-239.774 -567.833)" fill="url(#linear-gradient)"/>
        <path id="Trazado_993068" data-name="Trazado 993068" d="M245.86,594.382a1.718,1.718,0,0,1-1.688-2.007l1.279-7.453a.276.276,0,0,0-.079-.244l-5.415-5.28a1.714,1.714,0,0,1,.95-2.925l7.484-1.088a.279.279,0,0,0,.21-.151l3.347-6.781a1.713,1.713,0,0,1,3.074,0l3.347,6.781a.278.278,0,0,0,.206.151l7.486,1.088a1.715,1.715,0,0,1,.95,2.925l-5.415,5.279a.276.276,0,0,0-.08.244l1.279,7.455a1.715,1.715,0,0,1-2.489,1.807l-6.694-3.519a.27.27,0,0,0-.256,0l-6.7,3.519A1.71,1.71,0,0,1,245.86,594.382Zm7.622-25.448a.266.266,0,0,0-.247.154l-3.347,6.782a1.711,1.711,0,0,1-1.292.938l-7.481,1.088a.276.276,0,0,0-.154.471l5.415,5.28a1.715,1.715,0,0,1,.495,1.516l-1.278,7.456a.265.265,0,0,0,.108.27.271.271,0,0,0,.292.021l6.695-3.519a1.71,1.71,0,0,1,1.6,0l6.692,3.519a.271.271,0,0,0,.292-.021.267.267,0,0,0,.11-.27l-1.279-7.454a1.713,1.713,0,0,1,.495-1.518l5.415-5.279a.277.277,0,0,0-.154-.472l-7.485-1.088a1.709,1.709,0,0,1-1.29-.938l-3.347-6.782h0A.266.266,0,0,0,253.482,568.934Z" transform="translate(-239.436 -567.495)" fill="#050004"/>
      </g>
      <path id="Trazado_993069" data-name="Trazado 993069" d="M487.206,496.591a4.232,4.232,0,1,1-2.773-5.3A4.232,4.232,0,0,1,487.206,496.591Z" transform="translate(-170.999 -472.695)"/>
      <path id="Trazado_993070" data-name="Trazado 993070" d="M746.449,829.593a3.871,3.871,0,1,1-3.871-3.871A3.871,3.871,0,0,1,746.449,829.593Z" transform="translate(-253.995 -579.607)"/>
      <path id="Trazado_993071" data-name="Trazado 993071" d="M803.028,839.344a1.853,1.853,0,1,1-1.853-1.853A1.853,1.853,0,0,1,803.028,839.344Z" transform="translate(-273.361 -583.367)"/>
      <path id="Trazado_993072" data-name="Trazado 993072" d="M715.57,760.9a1.853,1.853,0,1,1-1.853-1.853A1.853,1.853,0,0,1,715.57,760.9Z" transform="translate(-245.419 -558.304)"/>
      <path id="Trazado_993073" data-name="Trazado 993073" d="M320.253,721.293a1.853,1.853,0,1,1-1.667-2.022A1.853,1.853,0,0,1,320.253,721.293Z" transform="translate(-119.12 -545.594)"/>
      <path id="Trazado_993074" data-name="Trazado 993074" d="M335.123,768.777a3.5,3.5,0,1,1-3.149-3.821A3.5,3.5,0,0,1,335.123,768.777Z" transform="translate(-122.82 -560.187)"/>
      <path id="Trazado_993075" data-name="Trazado 993075" d="M363.389,698.573a3.5,3.5,0,1,1-3.149-3.822A3.5,3.5,0,0,1,363.389,698.573Z" transform="translate(-131.851 -537.757)"/>
      <path id="Trazado_993076" data-name="Trazado 993076" d="M544.186,494.6a1.62,1.62,0,1,1-1.062-2.03A1.621,1.621,0,0,1,544.186,494.6Z" transform="translate(-190.835 -473.144)"/>
      <path id="Trazado_993077" data-name="Trazado 993077" d="M458.529,530.824a3.439,3.439,0,1,1-2.254-4.31A3.439,3.439,0,0,1,458.529,530.824Z" transform="translate(-162.332 -483.961)"/>
      <path id="Trazado_993078" data-name="Trazado 993078" d="M772.4,776.547a3,3,0,1,1-3-3A3,3,0,0,1,772.4,776.547Z" transform="translate(-262.845 -562.938)"/>
      <g id="Grupo_1157965" data-name="Grupo 1157965" transform="translate(404.695 164.882)">
        <path id="Trazado_993080" data-name="Trazado 993080" d="M1049.359,444.526l12.775,11.2c.7.616,1.738-.411,1.031-1.031l-12.775-11.2c-.7-.616-1.739.412-1.031,1.031Z" transform="translate(-1049.121 -443.305)" fill="#fff"/>
      </g>
      <g id="Grupo_1157966" data-name="Grupo 1157966" transform="translate(492.454 181.429)">
        <path id="Trazado_993081" data-name="Trazado 993081" d="M1018.82,813.183l12.775,11.2c.7.616,1.738-.411,1.031-1.031l-12.775-11.2c-.7-.616-1.732.412-1.031,1.031Z" transform="translate(-1018.587 -811.962)" fill="#fff"/>
      </g>
      <g id="Grupo_1157967" data-name="Grupo 1157967" transform="translate(287.745 128.006)">
        <path id="Trazado_993082" data-name="Trazado 993082" d="M1020.078,311.5l8.82-12.763c.535-.774-.728-1.5-1.259-.736l-8.821,12.762c-.538.774.728,1.5,1.259.736Z" transform="translate(-1018.689 -297.678)" fill="#fff"/>
      </g>
      <g id="Grupo_1157968" data-name="Grupo 1157968" transform="translate(518.029 339.487)">
        <path id="Trazado_993083" data-name="Trazado 993083" d="M1020.449,969.559l8.821-12.763c.535-.774-.728-1.5-1.259-.736l-8.821,12.762c-.531.774.728,1.5,1.259.736Z" transform="translate(-1019.062 -955.735)" fill="#fff"/>
      </g>
      <g id="Grupo_1157969" data-name="Grupo 1157969" transform="translate(461.277 157.807)">
        <path id="Trazado_993084" data-name="Trazado 993084" d="M1025.349,664.5l8.821-12.763c.535-.774-.728-1.5-1.259-.736l-8.821,12.762c-.531.774.728,1.5,1.259.736Z" transform="translate(-1023.962 -650.678)" fill="#fff"/>
      </g>
      <g id="Grupo_1157970" data-name="Grupo 1157970" transform="translate(470.589 407.675)">
        <path id="Trazado_993085" data-name="Trazado 993085" d="M888.385,1033.7l8.821-12.763c.535-.774-.728-1.5-1.259-.736l-8.821,12.762c-.534.777.729,1.505,1.259.736Z" transform="translate(-886.997 -1019.875)" fill="#fff"/>
      </g>
      <g id="Grupo_1157971" data-name="Grupo 1157971" transform="translate(303.59 171.186)">
        <path id="Trazado_993086" data-name="Trazado 993086" d="M34.917,597.214l-4.9-15.148c-.287-.889-1.7-.508-1.406.387l4.9,15.148c.288.889,1.7.509,1.406-.387Z" transform="translate(-28.575 -581.56)" fill="#fff"/>
      </g>
      <g id="Grupo_1157972" data-name="Grupo 1157972" transform="translate(212.69 401.68)">
        <path id="Trazado_993087" data-name="Trazado 993087" d="M939.581,412.794a65.569,65.569,0,0,0,7.9,10.674c.633.7,1.661-.338,1.031-1.031a63.691,63.691,0,0,1-7.671-10.378.729.729,0,0,0-1.259.736Z" transform="translate(-939.474 -411.709)" fill="#fff"/>
      </g>
      <g id="Grupo_1157973" data-name="Grupo 1157973" transform="translate(431.983 179.122)">
        <path id="Trazado_993088" data-name="Trazado 993088" d="M963.485,567.608l7.992-7.19c.7-.629-.335-1.657-1.031-1.031l-7.992,7.19c-.7.629.335,1.658,1.031,1.031Z" transform="translate(-962.221 -559.193)" fill="#fff"/>
      </g>
      <g id="Grupo_1157975" data-name="Grupo 1157975" transform="translate(404.694 114.078)">
        <path id="Trazado_993090" data-name="Trazado 993090" d="M3.806,441.2l8.821-12.763c.535-.774-.728-1.5-1.259-.736L2.547,440.46c-.534.773.728,1.5,1.259.736Z" transform="translate(-2.418 -427.371)" fill="#fff"/>
      </g>
      <g id="Grupo_1157977" data-name="Grupo 1157977" transform="translate(475.225 266.607)">
        <path id="Trazado_993092" data-name="Trazado 993092" d="M254.117,148.779l7.992-7.19c.7-.629-.335-1.657-1.031-1.031l-7.992,7.19c-.7.629.335,1.657,1.031,1.031Z" transform="translate(-252.853 -140.364)" fill="#fff"/>
      </g>
      <g id="Grupo_1157979" data-name="Grupo 1157979" transform="translate(197.435 324.217)">
        <path id="Trazado_993094" data-name="Trazado 993094" d="M135.8,357.95l11.822,14.515c.593.727,1.618-.309,1.031-1.031l-11.822-14.515c-.593-.727-1.618.309-1.031,1.031Z" transform="translate(-135.625 -356.671)" fill="#fff"/>
      </g>
      <g id="Grupo_1157980" data-name="Grupo 1157980" transform="translate(187.409 196.427)">
        <path id="Trazado_993095" data-name="Trazado 993095" d="M39.955,880.171l11.822,14.515c.593.727,1.618-.309,1.031-1.031L40.986,879.14c-.593-.727-1.619.309-1.031,1.031Z" transform="translate(-39.78 -878.892)" fill="#fff"/>
      </g>
      <g id="Grupo_1157981" data-name="Grupo 1157981" transform="translate(523.197 264.917)">
        <path id="Trazado_993096" data-name="Trazado 993096" d="M926.433,695.729a65.563,65.563,0,0,0,7.9,10.674c.633.7,1.661-.338,1.031-1.031a63.705,63.705,0,0,1-7.671-10.378.73.73,0,0,0-1.259.736Z" transform="translate(-926.325 -694.644)" fill="#fff"/>
      </g>
      <g id="Grupo_1157982" data-name="Grupo 1157982" transform="translate(437.884 340.259)">
        <path id="Trazado_993097" data-name="Trazado 993097" d="M110.218,228.531l12.775,11.2c.7.616,1.738-.411,1.031-1.031l-12.775-11.2c-.7-.616-1.738.412-1.031,1.031Z" transform="translate(-109.981 -227.31)" fill="#fff"/>
      </g>
      <g id="Grupo_1157984" data-name="Grupo 1157984" transform="translate(324.536 352.866)">
        <path id="Trazado_993099" data-name="Trazado 993099" d="M32.8,280.945l8.821-12.763c.535-.774-.728-1.5-1.259-.736l-8.821,12.762c-.534.774.729,1.5,1.259.736Z" transform="translate(-31.416 -267.12)" fill="#fff"/>
      </g>
      <g id="Grupo_1157988" data-name="Grupo 1157988" transform="translate(224.904 334.264)">
        <path id="Trazado_993103" data-name="Trazado 993103" d="M23.115,135.032a65.568,65.568,0,0,0,7.9,10.674c.633.7,1.661-.338,1.031-1.031A63.7,63.7,0,0,1,24.374,134.3a.729.729,0,0,0-1.259.736Z" transform="translate(-23.007 -133.947)" fill="#fff"/>
      </g>
      <g id="Grupo_1157989" data-name="Grupo 1157989" transform="translate(249.6 356.586)">
        <path id="Trazado_993104" data-name="Trazado 993104" d="M118.7,1009.829l7.992-7.19c.7-.629-.335-1.657-1.031-1.031l-7.992,7.19c-.7.63.335,1.657,1.031,1.031Z" transform="translate(-117.441 -1001.414)" fill="#fff"/>
      </g>
      <g id="Grupo_1157990" data-name="Grupo 1157990" transform="translate(218.565 219.325)">
        <path id="Trazado_993105" data-name="Trazado 993105" d="M31.92,1002.289l7.992-7.19c.7-.629-.335-1.657-1.031-1.031l-7.992,7.189c-.7.63.335,1.657,1.031,1.031Z" transform="translate(-30.656 -993.874)" fill="#fff"/>
      </g>
      <g id="Grupo_1157991" data-name="Grupo 1157991" transform="translate(435.536 374.285)">
        <path id="Trazado_993106" data-name="Trazado 993106" d="M92.292,534.4l7.992-7.189c.7-.629-.335-1.657-1.031-1.031l-7.992,7.19c-.7.629.335,1.657,1.031,1.031Z" transform="translate(-91.028 -525.989)" fill="#fff"/>
      </g>
      <path id="Trazado_992922" data-name="Trazado 992922" d="M859.251,521.842l1.295-4.951a.24.24,0,0,1,.248-.179,19.308,19.308,0,0,0,7.995-1.1.24.24,0,0,1,.288.1l2.585,4.415a1.51,1.51,0,0,0,2.066.54l3.241-1.9a1.513,1.513,0,0,0,.54-2.066l-2.584-4.415a.237.237,0,0,1,.05-.3,19.324,19.324,0,0,0,4.873-6.433.239.239,0,0,1,.277-.13l4.951,1.295a1.512,1.512,0,0,0,1.843-1.079l.95-3.633a1.511,1.511,0,0,0-1.079-1.844l-4.95-1.3a.242.242,0,0,1-.178-.248,19.234,19.234,0,0,0-1.1-7.995.238.238,0,0,1,.1-.288l4.415-2.584a1.512,1.512,0,0,0,.54-2.067l-1.9-3.241a1.51,1.51,0,0,0-2.066-.54l-4.415,2.585a.238.238,0,0,1-.3-.05,19.321,19.321,0,0,0-6.432-4.873.241.241,0,0,1-.13-.277l1.294-4.951a1.51,1.51,0,0,0-1.079-1.844l-3.633-.951a1.513,1.513,0,0,0-1.843,1.079l-1.295,4.951a.239.239,0,0,1-.249.178,19.292,19.292,0,0,0-7.995,1.1.24.24,0,0,1-.288-.1l-2.584-4.415a1.512,1.512,0,0,0-2.066-.54l-3.24,1.9a1.51,1.51,0,0,0-.54,2.066l2.585,4.415a.239.239,0,0,1-.051.3,19.31,19.31,0,0,0-4.873,6.432.238.238,0,0,1-.277.129l-4.95-1.3a1.511,1.511,0,0,0-1.843,1.079l-.951,3.633a1.511,1.511,0,0,0,1.079,1.844l4.951,1.295a.241.241,0,0,1,.178.249,19.2,19.2,0,0,0,1.1,7.995.238.238,0,0,1-.1.288l-4.415,2.585a1.512,1.512,0,0,0-.54,2.066l1.9,3.241a1.509,1.509,0,0,0,2.066.54l4.415-2.584a.238.238,0,0,1,.3.05,19.318,19.318,0,0,0,6.432,4.873.24.24,0,0,1,.13.277l-1.295,4.951a1.513,1.513,0,0,0,1.079,1.844l3.632.95a1.512,1.512,0,0,0,1.844-1.078ZM860,507.4a10.4,10.4,0,1,1,7.826-1.434A10.413,10.413,0,0,1,860,507.4Z" transform="translate(-322.722 -303.2)" fill="#7081f9"/>
      <path id="Trazado_992920" data-name="Trazado 992920" d="M992.937,602.016l.931-3.56a.172.172,0,0,1,.179-.128,13.893,13.893,0,0,0,5.749-.791.172.172,0,0,1,.207.075l1.859,3.175a1.086,1.086,0,0,0,1.486.389l2.33-1.364a1.088,1.088,0,0,0,.388-1.486l-1.858-3.175a.171.171,0,0,1,.036-.217,13.891,13.891,0,0,0,3.5-4.626.172.172,0,0,1,.2-.093l3.56.931a1.087,1.087,0,0,0,1.325-.776l.683-2.612a1.085,1.085,0,0,0-.776-1.325l-3.559-.931a.175.175,0,0,1-.129-.179,13.831,13.831,0,0,0-.791-5.749.171.171,0,0,1,.075-.207l3.175-1.858a1.087,1.087,0,0,0,.389-1.486l-1.364-2.33a1.086,1.086,0,0,0-1.486-.389l-3.175,1.859a.172.172,0,0,1-.217-.036,13.89,13.89,0,0,0-4.625-3.5.173.173,0,0,1-.093-.2l.931-3.56a1.085,1.085,0,0,0-.775-1.326l-2.612-.683a1.088,1.088,0,0,0-1.326.776l-.931,3.56a.173.173,0,0,1-.179.128,13.877,13.877,0,0,0-5.749.791.172.172,0,0,1-.207-.075l-1.858-3.175a1.087,1.087,0,0,0-1.486-.389l-2.33,1.364a1.086,1.086,0,0,0-.388,1.486l1.858,3.175a.171.171,0,0,1-.036.217,13.885,13.885,0,0,0-3.5,4.625.172.172,0,0,1-.2.093l-3.56-.931a1.086,1.086,0,0,0-1.325.776l-.683,2.612a1.086,1.086,0,0,0,.776,1.326l3.56.931a.174.174,0,0,1,.128.179,13.815,13.815,0,0,0,.791,5.749.171.171,0,0,1-.075.207l-3.175,1.859a1.088,1.088,0,0,0-.389,1.486l1.364,2.33a1.085,1.085,0,0,0,1.486.388l3.175-1.858a.172.172,0,0,1,.217.036,13.881,13.881,0,0,0,4.625,3.5.172.172,0,0,1,.093.2l-.931,3.56a1.087,1.087,0,0,0,.776,1.325l2.612.683a1.087,1.087,0,0,0,1.326-.776Zm.541-10.384a7.476,7.476,0,1,1,5.628-1.031A7.488,7.488,0,0,1,993.478,591.632Z" transform="translate(-821.621 -425.338)" fill="#7081f9"/>
    </g>
  </g>
</svg>
