<svg xmlns="http://www.w3.org/2000/svg" xmlns:xlink="http://www.w3.org/1999/xlink" width="113" height="113" viewBox="0 0 113 113">
  <defs>
    <filter id="Trazado_982547" x="0" y="0" width="113" height="113" filterUnits="userSpaceOnUse">
      <feOffset dy="3" input="SourceAlpha"/>
      <feGaussianBlur stdDeviation="3" result="blur"/>
      <feFlood flood-opacity="0.161"/>
      <feComposite operator="in" in2="blur"/>
      <feComposite in="SourceGraphic"/>
    </filter>
  </defs>
  <g id="Grupo_1164406" data-name="Grupo 1164406" transform="translate(-272 -3183.67)">
    <g id="Grupo_1164202" data-name="Grupo 1164202" transform="translate(281 3189.67)">
      <g id="Grupo_1158168" data-name="Grupo 1158168" transform="translate(0)">
        <g id="Grupo_1152576" data-name="Grupo 1152576">
          <g id="Grupo_1148633" data-name="Grupo 1148633">
            <g id="Grupo_1148525" data-name="Grupo 1148525">
              <g transform="matrix(1, 0, 0, 1, -9, -6)" filter="url(#Trazado_982547)">
                <g id="Trazado_982547-2" data-name="Trazado 982547" transform="translate(9 6)" fill="#fbf2fb">
                  <path d="M 47.5 93.5 C 41.28937149047852 93.5 35.26533508300781 92.28397369384766 29.59518623352051 89.88570404052734 C 24.11771965026855 87.56893157958984 19.19813346862793 84.25196075439453 14.97309303283691 80.02691650390625 C 10.74804019927979 75.80186462402344 7.431066513061523 70.88229370117188 5.114293098449707 65.40481567382812 C 2.716026782989502 59.73468017578125 1.5 53.71062850952148 1.5 47.5 C 1.5 41.28937149047852 2.716026782989502 35.26533508300781 5.114293098449707 29.59518623352051 C 7.431066513061523 24.11771965026855 10.74804019927979 19.19813346862793 14.97309303283691 14.97309303283691 C 19.19813346862793 10.74804019927979 24.11771965026855 7.431066513061523 29.59518623352051 5.114293098449707 C 35.26533508300781 2.716026782989502 41.28937149047852 1.5 47.5 1.5 C 53.71062850952148 1.5 59.73468017578125 2.716026782989502 65.40481567382812 5.114293098449707 C 70.88229370117188 7.431066513061523 75.80186462402344 10.74804019927979 80.02691650390625 14.97309303283691 C 84.25196075439453 19.19813346862793 87.56893157958984 24.11771965026855 89.88570404052734 29.59518623352051 C 92.28397369384766 35.26533508300781 93.5 41.28937149047852 93.5 47.5 C 93.5 53.71062850952148 92.28397369384766 59.73468017578125 89.88570404052734 65.40481567382812 C 87.56893157958984 70.88229370117188 84.25196075439453 75.80186462402344 80.02691650390625 80.02691650390625 C 75.80186462402344 84.25196075439453 70.88229370117188 87.56893157958984 65.40481567382812 89.88570404052734 C 59.73468017578125 92.28397369384766 53.71062850952148 93.5 47.5 93.5 Z" stroke="none"/>
                  <path d="M 47.5 3 C 41.49121475219727 3 35.66376876831055 4.176155090332031 30.17950439453125 6.495796203613281 C 24.88084411621094 8.736953735351562 20.12152099609375 11.94598388671875 16.03375244140625 16.03375244140625 C 11.94598388671875 20.12152099609375 8.736953735351562 24.88084411621094 6.495796203613281 30.17950439453125 C 4.176155090332031 35.66376876831055 3 41.49121475219727 3 47.5 C 3 53.50878524780273 4.176155090332031 59.33623123168945 6.495796203613281 64.82049560546875 C 8.736953735351562 70.11915588378906 11.94598388671875 74.87847900390625 16.03375244140625 78.96624755859375 C 20.12152099609375 83.05401611328125 24.88084411621094 86.26304626464844 30.17950439453125 88.50419616699219 C 35.66376876831055 90.82384490966797 41.49121475219727 92 47.5 92 C 53.50878524780273 92 59.33623123168945 90.82384490966797 64.82049560546875 88.50419616699219 C 70.11915588378906 86.26304626464844 74.87847900390625 83.05401611328125 78.96624755859375 78.96624755859375 C 83.05401611328125 74.87847900390625 86.26304626464844 70.11915588378906 88.50419616699219 64.82049560546875 C 90.82384490966797 59.33623123168945 92 53.50878524780273 92 47.5 C 92 41.49121475219727 90.82384490966797 35.66376876831055 88.50419616699219 30.17950439453125 C 86.26304626464844 24.88084411621094 83.05401611328125 20.12152099609375 78.96624755859375 16.03375244140625 C 74.87847900390625 11.94598388671875 70.11915588378906 8.736953735351562 64.82049560546875 6.495796203613281 C 59.33623123168945 4.176155090332031 53.50878524780273 3 47.5 3 M 47.5 0 C 73.7335205078125 0 95 21.2664794921875 95 47.5 C 95 73.7335205078125 73.7335205078125 95 47.5 95 C 21.2664794921875 95 0 73.7335205078125 0 47.5 C 0 21.2664794921875 21.2664794921875 0 47.5 0 Z" stroke="none" fill="#e087dc"/>
                </g>
              </g>
            </g>
          </g>
        </g>
      </g>
    </g>
    <g id="excellence_18488494" transform="translate(295.095 3204.79)">
      <path id="Trazado_999824" data-name="Trazado 999824" d="M204.317,263.407l8.357-3.289v-5.354c-.062-5.226-.477-9.205-2.82-10.976l-5.9,3.366a11.117,11.117,0,0,1-8.244.651,9.439,9.439,0,0,0-7.748,1.1q-.331.185-.658.389l-7.951,4.957a1.847,1.847,0,0,0-.049,3.12c3.748,3.1,6.738-1.613,11.188-1.639,2.046-.012,3.613.942,5.238,1.88l7.436,4.293a2.777,2.777,0,0,1,1.149,1.5Z" transform="translate(-153.687 -210.923)" fill="#f0e3df" fill-rule="evenodd"/>
      <path id="Trazado_999825" data-name="Trazado 999825" d="M71.952,257.368a1.847,1.847,0,0,1,.049-3.12l7.951-4.957q.327-.2.658-.389a9.441,9.441,0,0,0-7.749-1.1,11.118,11.118,0,0,1-8.244-.651l-5.9-3.366c-2.343,1.771-2.758,5.75-2.82,10.976v5.354c5.338,2.752,6.771,4.2,11.366,7.433a80.987,80.987,0,0,0,11.266,6.47l2.543,1.2c3.189,1.841,5.116-2.08,2.615-3.526l1.981,1.144A2.324,2.324,0,0,0,88,268.823h0l1.392.8a2.475,2.475,0,0,0,2.487-4.279l1.456.841a2.471,2.471,0,0,0,3.624-2.782,2.778,2.778,0,0,0-1.149-1.5l-7.436-4.293c-1.625-.938-3.192-1.892-5.238-1.88-4.45.026-7.44,4.743-11.188,1.639Z" transform="translate(-46.333 -210.922)" fill="#d9c5bf" fill-rule="evenodd"/>
      <g id="Grupo_1164405" data-name="Grupo 1164405" transform="translate(33.312 49.541)">
        <path id="Trazado_999826" data-name="Trazado 999826" d="M314.765,382.944l-8.063-4.655a1.237,1.237,0,0,0-1.237,2.143l5.921,3.418a2.482,2.482,0,0,0,3.379-.906Z" transform="translate(-297.69 -378.124)" fill="#ccb6af" fill-rule="evenodd"/>
        <path id="Trazado_999827" data-name="Trazado 999827" d="M276.735,407.024a1.237,1.237,0,0,0-1.237,2.143l5.7,3.291a2.482,2.482,0,0,0,3.376-.908Z" transform="translate(-271.443 -403.292)" fill="#ccb6af" fill-rule="evenodd"/>
        <path id="Trazado_999828" data-name="Trazado 999828" d="M256.348,440.018l-7.476-4.316a1.124,1.124,0,0,0-1.124,1.946l5.465,3.155a2.331,2.331,0,0,0,3.134-.785Z" transform="translate(-247.188 -428.424)" fill="#ccb6af" fill-rule="evenodd"/>
      </g>
      <path id="Trazado_999829" data-name="Trazado 999829" d="M398.728,232.935l6.052,14.772a1.917,1.917,0,0,0,2.5,1.045l2.833-1.161a1.917,1.917,0,0,0,1.045-2.5L405.1,230.323a1.917,1.917,0,0,0-2.5-1.045l-2.833,1.161a1.917,1.917,0,0,0-1.045,2.5Z" transform="translate(-346.48 -198.09)" fill="#75808f" fill-rule="evenodd"/>
      <path id="Trazado_999830" data-name="Trazado 999830" d="M23.562,232.935,17.51,247.707a1.917,1.917,0,0,1-2.5,1.045l-2.833-1.161a1.917,1.917,0,0,1-1.045-2.5l6.052-14.772a1.917,1.917,0,0,1,2.5-1.045l2.833,1.161a1.917,1.917,0,0,1,1.045,2.5Z" transform="translate(-7.001 -198.09)" fill="#6cbfff" fill-rule="evenodd"/>
      <path id="Trazado_999831" data-name="Trazado 999831" d="M13.6,248.173l-1.418-.581a1.917,1.917,0,0,1-1.045-2.5l6.052-14.772a1.917,1.917,0,0,1,2.5-1.045l1.417.58a1.917,1.917,0,0,1,1.045,2.5l-6.052,14.772A1.917,1.917,0,0,1,13.6,248.173Z" transform="translate(-7 -198.09)" fill="#85caff" fill-rule="evenodd"/>
      <path id="Trazado_999832" data-name="Trazado 999832" d="M407.277,252.849l1.418-.581a1.917,1.917,0,0,0,1.045-2.5L403.688,235a1.917,1.917,0,0,0-2.5-1.045l-1.417.58a1.917,1.917,0,0,0-1.045,2.5l6.052,14.772A1.917,1.917,0,0,0,407.277,252.849Z" transform="translate(-346.482 -202.185)" fill="#838e9c" fill-rule="evenodd"/>
      <path id="Trazado_999833" data-name="Trazado 999833" d="M200.747,11.108l1.891,4.9,5.245.284a.4.4,0,0,1,.229.7l-4.076,3.313,1.35,5.076a.4.4,0,0,1-.6.436l-4.41-2.853-4.41,2.853a.4.4,0,0,1-.6-.436l1.35-5.076L192.641,17a.4.4,0,0,1,.229-.7l5.245-.284,1.891-4.9a.4.4,0,0,1,.741,0Z" transform="translate(-165.971 -6.905)" fill="#fcdb35" fill-rule="evenodd"/>
      <path id="Trazado_999834" data-name="Trazado 999834" d="M207.856,18.864,203.2,22.651l1.515,5.7-5-3.234-4.334,2.8,1.339-5.032-4.076-3.313a.4.4,0,0,1,.229-.7l5.245-.284,1.848-4.788,1.83,4.742,6.063.329Z" transform="translate(-165.971 -9.479)" fill="#ffeb87" fill-rule="evenodd"/>
      <path id="Trazado_999835" data-name="Trazado 999835" d="M344.325,89.962l1.712,4.437,4.749.257a.36.36,0,0,1,.207.638l-3.691,3,1.223,4.6a.36.36,0,0,1-.543.394L343.99,100.7,340,103.285a.36.36,0,0,1-.543-.394l1.223-4.6-3.691-3a.36.36,0,0,1,.207-.638l4.749-.257,1.712-4.437a.36.36,0,0,1,.671,0Z" transform="translate(-292.41 -75.992)" fill="#fcdb35" fill-rule="evenodd"/>
      <path id="Trazado_999836" data-name="Trazado 999836" d="M350.763,96.986l-4.219,3.429,1.372,5.157-4.528-2.929-3.924,2.538,1.212-4.557-3.691-3a.36.36,0,0,1,.207-.638l4.749-.257,1.673-4.336,1.657,4.294,5.49.3Z" transform="translate(-292.41 -78.322)" fill="#ffeb87" fill-rule="evenodd"/>
      <path id="Trazado_999837" data-name="Trazado 999837" d="M67.6,89.962,69.317,94.4l4.749.257a.36.36,0,0,1,.207.638l-3.691,3,1.223,4.6a.36.36,0,0,1-.543.394L67.269,100.7l-3.993,2.583a.36.36,0,0,1-.543-.394l1.223-4.6-3.691-3a.36.36,0,0,1,.207-.638l4.749-.257,1.712-4.437A.36.36,0,0,1,67.6,89.962Z" transform="translate(-50.039 -75.992)" fill="#fcdb35" fill-rule="evenodd"/>
      <path id="Trazado_999838" data-name="Trazado 999838" d="M74.043,96.986l-4.219,3.429,1.372,5.157-4.528-2.929-3.924,2.538,1.212-4.557-3.691-3a.36.36,0,0,1,.207-.638l4.749-.257,1.673-4.336,1.657,4.294,5.491.3Z" transform="translate(-50.04 -78.322)" fill="#ffeb87" fill-rule="evenodd"/>
      <path id="Trazado_999839" data-name="Trazado 999839" d="M41.805,23.276a1,1,0,0,1,0,1.4L33.8,32.688a1,1,0,0,1-.7.291c-.028,0-.053,0-.081,0a.994.994,0,0,1-.726-.411l-3.8-5.312A.993.993,0,1,1,30.1,26.1l3.123,4.36,7.18-7.179a.993.993,0,0,1,1.4,0Zm-26.48-3.695a.993.993,0,0,0,.934-.68l.971-2.915L18.2,18.9a.993.993,0,0,0,.935.68l3.072.022-2.472,1.824a.994.994,0,0,0-.358,1.1l.929,2.929-2.5-1.788a.994.994,0,0,0-1.157,0l-2.5,1.788.928-2.929a.993.993,0,0,0-.357-1.1L12.252,19.6Zm-5.65.59,3.3,2.432-1.239,3.907A1.408,1.408,0,0,0,13.9,28.082L17.23,25.7l3.333,2.386a1.408,1.408,0,0,0,2.161-1.571L21.486,22.6l3.3-2.433a1.408,1.408,0,0,0-.825-2.541l-4.1-.029-1.295-3.889a1.408,1.408,0,0,0-2.672,0L14.6,17.6l-4.1.029a1.408,1.408,0,0,0-.825,2.541Zm40-.59a.994.994,0,0,0,.935-.68l.97-2.915.971,2.915a.993.993,0,0,0,.935.68l3.072.022-2.472,1.824a1,1,0,0,0-.357,1.1l.928,2.929-2.5-1.788a.992.992,0,0,0-1.156,0l-2.5,1.788.928-2.929a.993.993,0,0,0-.357-1.1L46.6,19.6l3.073-.022Zm-5.65.59,3.3,2.432-1.239,3.907a1.408,1.408,0,0,0,2.161,1.571L51.581,25.7l3.333,2.386a1.409,1.409,0,0,0,2.162-1.571L55.837,22.6l3.3-2.433a1.408,1.408,0,0,0-.825-2.541l-4.1-.029-1.295-3.889a1.407,1.407,0,0,0-2.671,0L48.95,17.6l-4.1.029a1.408,1.408,0,0,0-.827,2.541ZM32.305,10.3a.994.994,0,0,0,.935-.679l1.165-3.5,1.166,3.5a.993.993,0,0,0,.936.679l3.69.026-2.971,2.191a.994.994,0,0,0-.357,1.1l1.116,3.519-3-2.149a1,1,0,0,0-1.156,0l-3,2.149,1.116-3.519a.993.993,0,0,0-.357-1.1l-2.97-2.191,3.692-.026Zm-6.166.67a1.45,1.45,0,0,1,.85-2.618l4.591-.033,1.448-4.355a1.451,1.451,0,0,1,2.753,0l1.45,4.355,4.589.033a1.451,1.451,0,0,1,.852,2.618l-3.7,2.724,1.388,4.376a1.451,1.451,0,0,1-2.227,1.618l-3.733-2.672-3.733,2.672a1.45,1.45,0,0,1-2.226-1.618l1.387-4.376L26.14,10.97ZM63.254,48.578l-2.833,1.161a.923.923,0,0,1-1.2-.5L53.168,34.464a.923.923,0,0,1,.5-1.2L56.5,32.1a.907.907,0,0,1,.347-.069.925.925,0,0,1,.357.073.913.913,0,0,1,.5.5l6.053,14.772a.922.922,0,0,1-.5,1.2ZM51.13,51.222l5.82-2.29L51.843,36.469l-1.07.611a12.022,12.022,0,0,1-9.052.732c-2.356-.776-4.834-.323-7.576,1.387L26.189,44.16c-.4.247-.414.5-.418.581a1.218,1.218,0,0,0,.476.933c1.688,1.4,3,.86,5.37-.3a11.892,11.892,0,0,1,5.186-1.57,10.639,10.639,0,0,1,5.559,1.907l7.627,4.4a.932.932,0,0,1,.083.054,4.109,4.109,0,0,1,1.058,1.051Zm-1.591,2.641a1.492,1.492,0,0,1-2.027.543l-1.468-.848h0L41.01,50.651a.993.993,0,0,0-.993,1.72l5.034,2.906a1.483,1.483,0,0,1-1.485,2.568l-1.4-.81h0l-5.18-2.991a.993.993,0,1,0-.993,1.72l5.181,2.992a1.333,1.333,0,0,1-1.333,2.308l-1.982-1.145h0l-4.577-2.642A.993.993,0,1,0,32.283,59l4.579,2.644a1.12,1.12,0,0,1,.49,1.6c-.3.519-1.013.847-2.114.212-.024-.013-.047-.026-.072-.038l-2.543-1.2A80.531,80.531,0,0,1,21.5,55.816c-1.169-.822-2.148-1.539-3.012-2.173a54.308,54.308,0,0,0-6.745-4.413L16.92,36.588l.862.492a12.022,12.022,0,0,0,9.052.732,7.682,7.682,0,0,1,5.361.262l-7.058,4.4a2.708,2.708,0,0,0-1.349,2.133,3.188,3.188,0,0,0,1.193,2.6c2.753,2.28,5.279,1.046,7.508-.042a10.2,10.2,0,0,1,4.327-1.369h.034a8.892,8.892,0,0,1,4.519,1.64l7.582,4.378a1.767,1.767,0,0,1,.744.971,1.5,1.5,0,0,1-.155,1.081ZM9.591,49.236l6.051-14.772a.921.921,0,0,0-.5-1.2L12.307,32.1a.9.9,0,0,0-.346-.069.928.928,0,0,0-.358.073.915.915,0,0,0-.5.5L5.054,47.377a.921.921,0,0,0,.5,1.2l2.833,1.161a.922.922,0,0,0,1.2-.5Zm56-2.612L59.543,31.852a2.911,2.911,0,0,0-3.792-1.588l-2.833,1.161a2.905,2.905,0,0,0-1.765,3.152l-1.365.778a10.191,10.191,0,0,1-7.445.57,10.183,10.183,0,0,0-8.065.915,10.189,10.189,0,0,0-8.065-.915,10.193,10.193,0,0,1-7.445-.57l-1.131-.645a2.912,2.912,0,0,0-1.742-3.285L13.06,30.264a2.911,2.911,0,0,0-3.792,1.588L3.217,46.624A2.91,2.91,0,0,0,4.8,50.416l2.833,1.161a2.885,2.885,0,0,0,1.1.217,2.925,2.925,0,0,0,2.035-.83,52.682,52.682,0,0,1,6.539,4.282c.871.639,1.858,1.362,3.043,2.195A82.68,82.68,0,0,0,31.773,64l2.51,1.188a4.208,4.208,0,0,0,2.079.6,3.11,3.11,0,0,0,2.711-1.562,3.2,3.2,0,0,0,.394-1.166,3.269,3.269,0,0,0,1.026.166,3.361,3.361,0,0,0,.868-.115A3.307,3.307,0,0,0,43.82,60a3.354,3.354,0,0,0,.478.034,3.5,3.5,0,0,0,.907-.12,3.454,3.454,0,0,0,2.569-3.353,3.416,3.416,0,0,0,.468.033,3.524,3.524,0,0,0,.909-.12,3.448,3.448,0,0,0,2.108-1.614,3.488,3.488,0,0,0,.458-1.73l6.1-2.4a2.921,2.921,0,0,0,2.257,1.07,2.889,2.889,0,0,0,1.1-.217l2.834-1.161a2.909,2.909,0,0,0,1.587-3.792Z" transform="translate(0)" fill-rule="evenodd"/>
    </g>
  </g>
</svg>
