<svg xmlns="http://www.w3.org/2000/svg" xmlns:xlink="http://www.w3.org/1999/xlink" width="113" height="113" viewBox="0 0 113 113">
  <defs>
    <filter id="Trazado_982547" x="0" y="0" width="113" height="113" filterUnits="userSpaceOnUse">
      <feOffset dy="3" input="SourceAlpha"/>
      <feGaussianBlur stdDeviation="3" result="blur"/>
      <feFlood flood-opacity="0.161"/>
      <feComposite operator="in" in2="blur"/>
      <feComposite in="SourceGraphic"/>
    </filter>
  </defs>
  <g id="Grupo_1164408" data-name="Grupo 1164408" transform="translate(-587 -3183.67)">
    <g id="Grupo_1164203" data-name="Grupo 1164203" transform="translate(596 3189.67)">
      <g id="Grupo_1158168" data-name="Grupo 1158168" transform="translate(0)">
        <g id="Grupo_1152576" data-name="Grupo 1152576">
          <g id="Grupo_1148633" data-name="Grupo 1148633">
            <g id="Grupo_1148525" data-name="Grupo 1148525">
              <g transform="matrix(1, 0, 0, 1, -9, -6)" filter="url(#Trazado_982547)">
                <g id="Trazado_982547-2" data-name="Trazado 982547" transform="translate(9 6)" fill="#fbf2fb">
                  <path d="M 47.5 93.5 C 41.28937149047852 93.5 35.26533508300781 92.28397369384766 29.59518623352051 89.88570404052734 C 24.11771965026855 87.56893157958984 19.19813346862793 84.25196075439453 14.97309303283691 80.02691650390625 C 10.74804019927979 75.80186462402344 7.431066513061523 70.88229370117188 5.114293098449707 65.40481567382812 C 2.716026782989502 59.73468017578125 1.5 53.71062850952148 1.5 47.5 C 1.5 41.28937149047852 2.716026782989502 35.26533508300781 5.114293098449707 29.59518623352051 C 7.431066513061523 24.11771965026855 10.74804019927979 19.19813346862793 14.97309303283691 14.97309303283691 C 19.19813346862793 10.74804019927979 24.11771965026855 7.431066513061523 29.59518623352051 5.114293098449707 C 35.26533508300781 2.716026782989502 41.28937149047852 1.5 47.5 1.5 C 53.71062850952148 1.5 59.73468017578125 2.716026782989502 65.40481567382812 5.114293098449707 C 70.88229370117188 7.431066513061523 75.80186462402344 10.74804019927979 80.02691650390625 14.97309303283691 C 84.25196075439453 19.19813346862793 87.56893157958984 24.11771965026855 89.88570404052734 29.59518623352051 C 92.28397369384766 35.26533508300781 93.5 41.28937149047852 93.5 47.5 C 93.5 53.71062850952148 92.28397369384766 59.73468017578125 89.88570404052734 65.40481567382812 C 87.56893157958984 70.88229370117188 84.25196075439453 75.80186462402344 80.02691650390625 80.02691650390625 C 75.80186462402344 84.25196075439453 70.88229370117188 87.56893157958984 65.40481567382812 89.88570404052734 C 59.73468017578125 92.28397369384766 53.71062850952148 93.5 47.5 93.5 Z" stroke="none"/>
                  <path d="M 47.5 3 C 41.49121475219727 3 35.66376876831055 4.176155090332031 30.17950439453125 6.495796203613281 C 24.88084411621094 8.736953735351562 20.12152099609375 11.94598388671875 16.03375244140625 16.03375244140625 C 11.94598388671875 20.12152099609375 8.736953735351562 24.88084411621094 6.495796203613281 30.17950439453125 C 4.176155090332031 35.66376876831055 3 41.49121475219727 3 47.5 C 3 53.50878524780273 4.176155090332031 59.33623123168945 6.495796203613281 64.82049560546875 C 8.736953735351562 70.11915588378906 11.94598388671875 74.87847900390625 16.03375244140625 78.96624755859375 C 20.12152099609375 83.05401611328125 24.88084411621094 86.26304626464844 30.17950439453125 88.50419616699219 C 35.66376876831055 90.82384490966797 41.49121475219727 92 47.5 92 C 53.50878524780273 92 59.33623123168945 90.82384490966797 64.82049560546875 88.50419616699219 C 70.11915588378906 86.26304626464844 74.87847900390625 83.05401611328125 78.96624755859375 78.96624755859375 C 83.05401611328125 74.87847900390625 86.26304626464844 70.11915588378906 88.50419616699219 64.82049560546875 C 90.82384490966797 59.33623123168945 92 53.50878524780273 92 47.5 C 92 41.49121475219727 90.82384490966797 35.66376876831055 88.50419616699219 30.17950439453125 C 86.26304626464844 24.88084411621094 83.05401611328125 20.12152099609375 78.96624755859375 16.03375244140625 C 74.87847900390625 11.94598388671875 70.11915588378906 8.736953735351562 64.82049560546875 6.495796203613281 C 59.33623123168945 4.176155090332031 53.50878524780273 3 47.5 3 M 47.5 0 C 73.7335205078125 0 95 21.2664794921875 95 47.5 C 95 73.7335205078125 73.7335205078125 95 47.5 95 C 21.2664794921875 95 0 73.7335205078125 0 47.5 C 0 21.2664794921875 21.2664794921875 0 47.5 0 Z" stroke="none" fill="#e087dc"/>
                </g>
              </g>
            </g>
          </g>
        </g>
      </g>
    </g>
    <g id="Page-1" transform="translate(614 3206.999)">
      <g id="_066---Audio-Conference" data-name="066---Audio-Conference">
        <circle id="Oval" cx="6" cy="6" r="6" transform="translate(6 18)" fill="#b29885"/>
        <path id="Shape" d="M22.72,40.54A8.771,8.771,0,0,0,19,47.75V54H1.61A.617.617,0,0,1,1,53.37V42.75a8.746,8.746,0,0,1,4.63-7.77v-.01a8.32,8.32,0,0,1,2.96-.92c.32-.03.64-.05.96-.05h4.9c.31,0,.64.02.95.05a8.372,8.372,0,0,1,2.97.92v.01a8.656,8.656,0,0,1,4.35,5.56Z" fill="#b29bea"/>
        <circle id="Oval-2" data-name="Oval" cx="6" cy="6" r="6" transform="translate(42 18)" fill="#b29885"/>
        <path id="Shape-2" data-name="Shape" d="M41,54H58.39a.617.617,0,0,0,.61-.63V42.75a8.746,8.746,0,0,0-4.63-7.77v-.01a8.372,8.372,0,0,0-2.97-.92c-.31-.03-.64-.05-.95-.05h-4.9c-.32,0-.64.02-.96.05a8.32,8.32,0,0,0-2.96.92v.01a8.656,8.656,0,0,0-4.35,5.56" fill="#6ca4ea"/>
        <circle id="Oval-3" data-name="Oval" cx="6" cy="6" r="6" transform="translate(24 23)" fill="#f4d4bb"/>
        <path id="Shape-3" data-name="Shape" d="M41,47.75V58.37a.617.617,0,0,1-.61.63H19.61a.617.617,0,0,1-.61-.63V47.75a8.771,8.771,0,0,1,3.72-7.21,6.538,6.538,0,0,1,.91-.56v-.01a8.32,8.32,0,0,1,2.96-.92c.32-.03.64-.05.96-.05h4.9c.31,0,.64.02.95.05a8.372,8.372,0,0,1,2.97.92v.01a6.538,6.538,0,0,1,.91.56A8.771,8.771,0,0,1,41,47.75Z" fill="#eb6371"/>
        <path id="Shape-4" data-name="Shape" d="M20,6h5v8H20a1,1,0,0,1-1-1V7A1,1,0,0,1,20,6Z" fill="#fa7a62"/>
        <path id="Shape-5" data-name="Shape" d="M30.349,18.757,25,14V6l5.349-4.759A1,1,0,0,1,32,2V18a1,1,0,0,1-1.651.757Z" fill="#fb8f7d"/>
        <g id="Grupo_1164407" data-name="Grupo 1164407">
          <path id="Shape-6" data-name="Shape" d="M5,24a1,1,0,0,0,2,0,5,5,0,1,1,1.667,3.727,1,1,0,0,0-1.334,1.49A7,7,0,1,0,5,24Z"/>
          <path id="Shape-7" data-name="Shape" d="M54.958,34.161a.892.892,0,0,0-.122-.076,9.366,9.366,0,0,0-3.339-1.03c-.342-.034-.706-.055-1.047-.055h-4.9c-.351,0-.7.021-1.072.057a9.337,9.337,0,0,0-3.314,1.028.91.91,0,0,0-.119.074,9.6,9.6,0,0,0-4.313,4.877,9.341,9.341,0,0,0-3.235-.981c-.342-.034-.706-.055-1.047-.055h-4.9c-.351,0-.7.021-1.072.057a9.312,9.312,0,0,0-3.21.979,9.611,9.611,0,0,0-4.311-4.876.983.983,0,0,0-.121-.075,9.366,9.366,0,0,0-3.339-1.03c-.342-.034-.706-.055-1.047-.055H9.55c-.351,0-.7.021-1.072.057a9.337,9.337,0,0,0-3.314,1.028,1.044,1.044,0,0,0-.12.074A9.723,9.723,0,0,0,0,42.75V53.37A1.622,1.622,0,0,0,1.61,55H18v3.37A1.622,1.622,0,0,0,19.61,60H40.39A1.622,1.622,0,0,0,42,58.37V55H58.39A1.622,1.622,0,0,0,60,53.37V50a1,1,0,0,0-2,0v3H42V47.75a9.782,9.782,0,0,0-3.565-7.568,7.62,7.62,0,0,1,3.659-4.316.89.89,0,0,0,.111-.068,7.337,7.337,0,0,1,2.479-.753c.289-.027.578-.045.866-.045h4.9c.279,0,.574.018.838.043a7.391,7.391,0,0,1,2.505.754,1.049,1.049,0,0,0,.112.069A7.722,7.722,0,0,1,58,42.75V45a1,1,0,0,0,2,0V42.75a9.72,9.72,0,0,0-5.042-8.589ZM2,53V42.75a7.722,7.722,0,0,1,4.1-6.884.878.878,0,0,0,.11-.068,7.337,7.337,0,0,1,2.479-.753c.289-.027.578-.045.866-.045h4.9c.279,0,.574.018.838.043a7.391,7.391,0,0,1,2.5.754,1,1,0,0,0,.113.069,7.622,7.622,0,0,1,3.659,4.294c-.062.051-.115.11-.176.162-.127.11-.249.224-.37.339-.152.146-.3.294-.441.449-.113.123-.221.247-.327.376-.134.162-.261.328-.384.5-.1.133-.191.267-.28.4-.116.179-.222.362-.326.548-.078.141-.158.281-.229.426-.1.2-.182.4-.265.6-.06.145-.124.288-.177.435-.077.215-.139.435-.2.656-.04.143-.086.282-.12.427-.058.247-.1.5-.137.751-.019.124-.047.245-.062.37A10,10,0,0,0,18,47.75V53Zm38-5.25V58H20V47.75a7.785,7.785,0,0,1,3.306-6.4,5.343,5.343,0,0,1,.769-.474.952.952,0,0,0,.13-.078,7.36,7.36,0,0,1,2.479-.753c.289-.027.578-.045.866-.045h4.9c.279,0,.574.018.838.043a7.391,7.391,0,0,1,2.505.754,1.024,1.024,0,0,0,.132.079,5.426,5.426,0,0,1,.783.484A7.777,7.777,0,0,1,40,47.75Z"/>
          <path id="Shape-8" data-name="Shape" d="M48,31a7,7,0,1,0-7-7A7,7,0,0,0,48,31Zm0-12a5,5,0,1,1-5,5A5,5,0,0,1,48,19Z"/>
          <path id="Shape-9" data-name="Shape" d="M30,36a7,7,0,1,0-7-7A7,7,0,0,0,30,36Zm0-12a5,5,0,1,1-5,5A5,5,0,0,1,30,24Z"/>
          <path id="Shape-10" data-name="Shape" d="M32,7a1,1,0,0,0,1-1V2A2,2,0,0,0,29.685.494L24.619,5H20a2,2,0,0,0-2,2v6a2,2,0,0,0,2,2h4.619l5.08,4.518a1.984,1.984,0,0,0,1.3.482,2.02,2.02,0,0,0,.842-.187A1.979,1.979,0,0,0,33,18V14a1,1,0,0,0-2,0l.015,4.011L26,13.551v-7.1L31,2V6a1,1,0,0,0,1,1ZM20,7h4v6H20Z"/>
          <path id="Shape-11" data-name="Shape" d="M23,49a1,1,0,0,0,1-1V47a1,1,0,0,0-2,0v1A1,1,0,0,0,23,49Z"/>
          <path id="Shape-12" data-name="Shape" d="M27,54H24V52a1,1,0,0,0-2,0v2a2,2,0,0,0,2,2h3a1,1,0,0,0,0-2Z"/>
          <path id="Shape-13" data-name="Shape" d="M32,54H31a1,1,0,0,0,0,2h1a1,1,0,0,0,0-2Z"/>
          <path id="Shape-14" data-name="Shape" d="M5,44a1,1,0,0,0,1-1V42a1,1,0,0,0-2,0v1A1,1,0,0,0,5,44Z"/>
          <path id="Shape-15" data-name="Shape" d="M11,49H6V47a1,1,0,0,0-2,0v2a2,2,0,0,0,2,2h5a1,1,0,0,0,0-2Z"/>
          <path id="Shape-16" data-name="Shape" d="M38,10a3.13,3.13,0,0,0-1.575-2.9.976.976,0,0,0-1.291.454,1.022,1.022,0,0,0,.408,1.34A1.2,1.2,0,0,1,36,10c0,.842-.376,1.069-.376,1.073a1,1,0,0,0,.752,1.854A3.027,3.027,0,0,0,38,10Z"/>
          <path id="Shape-17" data-name="Shape" d="M38.547,14.108a1,1,0,0,0,.906,1.784C39.714,15.759,42,14.469,42,10c0-4.352-2.393-5.8-2.494-5.863a.989.989,0,0,0-1.349.345,1.01,1.01,0,0,0,.321,1.371C38.54,5.893,40,6.868,40,10c0,3.229-1.415,4.086-1.453,4.108Z"/>
        </g>
      </g>
    </g>
  </g>
</svg>
