<svg xmlns="http://www.w3.org/2000/svg" xmlns:xlink="http://www.w3.org/1999/xlink" width="110" height="110" viewBox="0 0 110 110">
  <defs>
    <filter id="Trazado_982547" x="0" y="0" width="110" height="110" filterUnits="userSpaceOnUse">
      <feOffset dy="3" input="SourceAlpha"/>
      <feGaussianBlur stdDeviation="3" result="blur"/>
      <feFlood flood-opacity="0.161"/>
      <feComposite operator="in" in2="blur"/>
      <feComposite in="SourceGraphic"/>
    </filter>
  </defs>
  <g id="Grupo_1164398" data-name="Grupo 1164398" transform="translate(-800 -1431.326)">
    <g id="Grupo_1164143" data-name="Grupo 1164143" transform="translate(0 -2364.674)">
      <g id="Grupo_1159364" data-name="Grupo 1159364" transform="translate(0 -542)">
        <g id="Grupo_1157015" data-name="Grupo 1157015" transform="translate(0 3549)">
          <g id="Grupo_1155792" data-name="Grupo 1155792" transform="translate(-1 -3894.666)">
            <g id="Grupo_1154703" data-name="Grupo 1154703" transform="translate(0 1465.666)">
              <g id="Grupo_1150789" data-name="Grupo 1150789" transform="translate(3 2320)">
                <g id="Grupo_1154212" data-name="Grupo 1154212" transform="translate(-236 -5809)">
                  <g id="Grupo_1152583" data-name="Grupo 1152583" transform="translate(1043 6713)">
                    <g id="Grupo_1146973" data-name="Grupo 1146973" transform="translate(0 0)">
                      <g id="Grupo_1146954" data-name="Grupo 1146954">
                        <g transform="matrix(1, 0, 0, 1, -9, -6)" filter="url(#Trazado_982547)">
                          <g id="Trazado_982547-2" data-name="Trazado 982547" transform="translate(9 6)" fill="#fceaf1">
                            <path d="M 46 90.49987030029297 C 39.99187850952148 90.49987030029297 34.16426849365234 89.32350921630859 28.67905426025391 87.00345611572266 C 23.38019943237305 84.76224517822266 18.62104034423828 81.55341339111328 14.53374671936035 77.46613311767578 C 10.44646644592285 73.37885284423828 7.237639904022217 68.61969757080078 4.996413230895996 63.32085418701172 C 2.676359891891479 57.83565521240234 1.5 52.008056640625 1.5 45.99993515014648 C 1.5 39.99181365966797 2.676359891891479 34.16421508789062 4.996413230895996 28.67901420593262 C 7.237639904022217 23.38017463684082 10.44646644592285 18.62101554870605 14.53374671936035 14.53373527526855 C 18.62104034423828 10.44645500183105 23.38019943237305 7.23762845993042 28.67905426025391 4.996415138244629 C 34.16426849365234 2.676361799240112 39.99187850952148 1.500001788139343 46 1.500001788139343 C 52.00812149047852 1.500001788139343 57.83573150634766 2.676361799240112 63.32094573974609 4.996415138244629 C 68.61979675292969 7.23762845993042 73.37895965576172 10.44645500183105 77.46625518798828 14.53373527526855 C 81.55353546142578 18.62101554870605 84.76235961914062 23.38017463684082 87.00358581542969 28.67901420593262 C 89.32363891601562 34.16421508789062 90.5 39.99181365966797 90.5 45.99993515014648 C 90.5 52.008056640625 89.32363891601562 57.83565521240234 87.00358581542969 63.32085418701172 C 84.76235961914062 68.61969757080078 81.55353546142578 73.37885284423828 77.46625518798828 77.46613311767578 C 73.37895965576172 81.55341339111328 68.61979675292969 84.76224517822266 63.32094573974609 87.00345611572266 C 57.83573150634766 89.32350921630859 52.00812149047852 90.49987030029297 46 90.49987030029297 Z" stroke="none"/>
                            <path d="M 46 2.999992370605469 C 40.1937141418457 2.999992370605469 34.56269836425781 4.136489868164062 29.26337051391602 6.377906799316406 C 24.14332580566406 8.543502807617188 19.54441070556641 11.64437866210938 15.59439849853516 15.59437561035156 C 11.64440155029297 19.54439544677734 8.54351806640625 24.14329528808594 6.377914428710938 29.26333618164062 C 4.136497497558594 34.56264877319336 3 40.19366455078125 3 45.99993515014648 C 3 51.80620574951172 4.136497497558594 57.43720626831055 6.377914428710938 62.73651885986328 C 8.54351806640625 67.8565673828125 11.64440155029297 72.45545959472656 15.59439849853516 76.40547943115234 C 19.54441070556641 80.35547637939453 24.14332580566406 83.45635223388672 29.26337051391602 85.6219482421875 C 34.56269836425781 87.86336517333984 40.1937141418457 88.99986267089844 46 88.99986267089844 C 51.8062858581543 88.99986267089844 57.43730163574219 87.86336517333984 62.73661422729492 85.6219482421875 C 67.85667419433594 83.45635223388672 72.45557403564453 80.35547637939453 76.40558624267578 76.40547943115234 C 80.35559844970703 72.45545959472656 83.45647430419922 67.8565673828125 85.6220703125 62.73651885986328 C 87.86350250244141 57.43720626831055 89 51.80620574951172 89 45.99993515014648 C 89 40.19366455078125 87.86350250244141 34.56264877319336 85.6220703125 29.26333618164062 C 83.45647430419922 24.14329528808594 80.35559844970703 19.54439544677734 76.40558624267578 15.59437561035156 C 72.45557403564453 11.64437866210938 67.85667419433594 8.543502807617188 62.73661422729492 6.377906799316406 C 57.43730163574219 4.136489868164062 51.8062858581543 2.999992370605469 46 2.999992370605469 M 46 -7.62939453125e-06 C 71.40509033203125 -7.62939453125e-06 92 20.59486389160156 92 45.99993515014648 C 92 71.40499114990234 71.40509033203125 91.99986267089844 46 91.99986267089844 C 20.59490203857422 91.99986267089844 0 71.40499114990234 0 45.99993515014648 C 0 20.59486389160156 20.59490203857422 -7.62939453125e-06 46 -7.62939453125e-06 Z" stroke="none" fill="#e93b81"/>
                          </g>
                        </g>
                      </g>
                    </g>
                  </g>
                </g>
              </g>
            </g>
          </g>
        </g>
      </g>
    </g>
    <g id="content-creator_9836578" transform="translate(822.082 1445.887)">
      <g id="Grupo_1164397" data-name="Grupo 1164397" transform="translate(1.976 9.781)">
        <g id="Grupo_1164394" data-name="Grupo 1164394" transform="translate(0 4.255)">
          <path id="Trazado_999792" data-name="Trazado 999792" d="M19.308,51.108h4.13V53.18A10.446,10.446,0,0,1,27.2,54.738l1.466-1.466,2.92,2.92-1.466,1.466a10.447,10.447,0,0,1,1.558,3.759h2.072v4.13H31.675A10.445,10.445,0,0,1,30.117,69.3l1.466,1.466-2.92,2.92L27.2,72.225a10.444,10.444,0,0,1-3.759,1.558v2.072h-4.13V73.782a10.445,10.445,0,0,1-3.759-1.558l-1.466,1.466-2.92-2.92L12.63,69.3a10.449,10.449,0,0,1-1.558-3.759H9v-4.13h2.072a10.445,10.445,0,0,1,1.558-3.759l-1.466-1.466,2.92-2.92,1.466,1.466a10.444,10.444,0,0,1,3.759-1.558Z" transform="translate(-9 -51.108)" fill="#ffe600" fill-rule="evenodd"/>
          <circle id="Elipse_11816" data-name="Elipse 11816" cx="6.434" cy="6.434" r="6.434" transform="translate(5.939 5.939)" fill="#eff4f7"/>
        </g>
        <g id="Grupo_1164395" data-name="Grupo 1164395" transform="translate(16.997 30.857)">
          <circle id="Elipse_11817" data-name="Elipse 11817" cx="7.391" cy="7.391" r="7.391" transform="translate(6.235)" fill="#ffd6bd"/>
          <path id="Trazado_999793" data-name="Trazado 999793" d="M146.1,397.365a13.676,13.676,0,0,1,27.244,0,1.116,1.116,0,0,1-1.112,1.215h-25.02a1.116,1.116,0,0,1-1.112-1.215Z" transform="translate(-146.091 -370.121)" fill="#4294ff" fill-rule="evenodd"/>
        </g>
        <g id="Grupo_1164396" data-name="Grupo 1164396" transform="translate(39.167 0)">
          <path id="Trazado_999794" data-name="Trazado 999794" d="M345.62,45.793H326.275a1.37,1.37,0,0,1-1.368-1.368V18.16a1.371,1.371,0,0,1,1.368-1.368h14.577a1.438,1.438,0,0,1,1.052.436l4.648,4.648a1.438,1.438,0,0,1,.436,1.052v21.5a1.371,1.371,0,0,1-1.368,1.368Z" transform="translate(-324.907 -16.792)" fill="#eff4f7" fill-rule="evenodd"/>
          <path id="Trazado_999795" data-name="Trazado 999795" d="M458.479,17.832a1.491,1.491,0,0,1,.436.307l4.648,4.648a1.471,1.471,0,0,1,.337.506h-4.552a.87.87,0,0,1-.868-.868Z" transform="translate(-441.918 -17.703)" fill="#e2e3e3" fill-rule="evenodd"/>
          <path id="Trazado_999796" data-name="Trazado 999796" d="M390.721,49.784l-8.505,4.91a.757.757,0,0,1-1.137-.656V44.217a.757.757,0,0,1,1.137-.656l8.505,4.91A.759.759,0,0,1,390.721,49.784Z" transform="translate(-374.115 -40.151)" fill="#eb3b48" fill-rule="evenodd"/>
        </g>
      </g>
      <path id="Trazado_999797" data-name="Trazado 999797" d="M51.844,42.494V54.326a.992.992,0,0,1-.994.992h-5.7l.386.341a.991.991,0,1,1-1.3,1.493l-2.374-2.079a.991.991,0,0,1,0-1.493L44.231,51.5a.991.991,0,1,1,1.3,1.493l-.386.341h4.707V42.494a.994.994,0,0,1,1.988,0Zm8.391-7.664a.992.992,0,0,1-.994.992H45.125a.992.992,0,1,1,0-1.984H59.241A.992.992,0,0,1,60.236,34.829ZM49.1,23.263V14.252l7.8,4.505Zm.637-10.931a1.75,1.75,0,0,0-2.626,1.515v9.822a1.746,1.746,0,0,0,2.626,1.515l8.508-4.911a1.754,1.754,0,0,0,0-3.031ZM19.957,68.105H45.242A12.7,12.7,0,0,0,32.606,56.412h-.012A12.7,12.7,0,0,0,19.957,68.105ZM26.2,48.03a6.4,6.4,0,1,1,6.4,6.4h-.012A6.4,6.4,0,0,1,26.2,48.03Zm10.859,7.093a8.386,8.386,0,1,0-8.923,0A14.693,14.693,0,0,0,17.934,69.1a.991.991,0,0,0,.988.992H46.277a.991.991,0,0,0,.988-.992A14.693,14.693,0,0,0,37.062,55.123Zm8.064-26.56H59.241a.992.992,0,1,1,0,1.984H45.125a.992.992,0,1,1,0-1.984Zm17.1,8.851V16.363H58.575a1.859,1.859,0,0,1-1.86-1.86V10.773h-14.2a.379.379,0,0,0-.374.376V37.414a.377.377,0,0,0,.374.376H61.855a.379.379,0,0,0,.374-.376ZM58.7,12.176l2.2,2.2H58.7Zm4.789,1.988L58.844,9.515a2.443,2.443,0,0,0-1.754-.726H42.511a2.363,2.363,0,0,0-2.362,2.36V37.414a2.362,2.362,0,0,0,2.362,2.36H61.855a2.362,2.362,0,0,0,2.362-2.36v-21.5a2.417,2.417,0,0,0-.731-1.753ZM22.694,55.317H14.35a.992.992,0,0,1-.994-.992V45.133l-.339.389a.991.991,0,0,1-1.491-1.307L13.6,41.841a1,1,0,0,1,1.5,0l2.076,2.376a.991.991,0,1,1-1.491,1.307l-.339-.391v8.2h7.35a.992.992,0,0,1,0,1.984ZM8.905,26.41a5.444,5.444,0,1,1,5.444,5.442A5.451,5.451,0,0,1,8.905,26.41Zm12.871,0a7.426,7.426,0,1,0-7.426,7.425A7.436,7.436,0,0,0,21.776,26.41Zm3.041-10.851a.992.992,0,0,1,.994-.992H35l-.392-.341a.993.993,0,1,1,1.31-1.493L38.3,14.812a.991.991,0,0,1,0,1.493l-2.374,2.079a.993.993,0,1,1-1.31-1.493L35,16.551H25.811a.992.992,0,0,1-.994-.992ZM9.075,34.327a9.416,9.416,0,0,0,3.4,1.411.99.99,0,0,1,.8.972v1.08H15.42V36.71a1,1,0,0,1,.8-.972,9.436,9.436,0,0,0,3.4-1.411.99.99,0,0,1,1.251.124l.766.764L23.156,33.7l-.766-.765a.993.993,0,0,1-.123-1.252,9.3,9.3,0,0,0,1.409-3.4,1,1,0,0,1,.977-.8h1.076V25.336H24.653a1,1,0,0,1-.977-.8,9.281,9.281,0,0,0-1.409-3.4.993.993,0,0,1,.123-1.252l.766-.765L21.642,17.6l-.766.765a.991.991,0,0,1-1.251.124,9.456,9.456,0,0,0-3.4-1.41,1,1,0,0,1-.8-.973v-1.08H13.274v1.08a.993.993,0,0,1-.8.973,9.413,9.413,0,0,0-3.4,1.41.99.99,0,0,1-1.251-.124l-.76-.765-1.52,1.517.766.765a.993.993,0,0,1,.123,1.252,9.3,9.3,0,0,0-1.409,3.4,1,1,0,0,1-.977.8H2.97v2.146H4.046a1,1,0,0,1,.977.8,9.376,9.376,0,0,0,1.409,3.4.993.993,0,0,1-.123,1.252l-.766.765,1.52,1.518.76-.765A.99.99,0,0,1,9.075,34.327Zm2.216,4.455V37.494a11.348,11.348,0,0,1-2.62-1.085l-.912.911a.987.987,0,0,1-1.4,0L3.438,34.4a.994.994,0,0,1,0-1.4l.912-.911a11.249,11.249,0,0,1-1.088-2.62H1.976a.993.993,0,0,1-.994-.992v-4.13a.992.992,0,0,1,.994-.992H3.262a11.247,11.247,0,0,1,1.088-2.62l-.912-.911a.987.987,0,0,1,0-1.4L6.362,15.5a.987.987,0,0,1,1.4,0l.912.911a11.445,11.445,0,0,1,2.62-1.085V14.036a.992.992,0,0,1,.994-.992h4.128a.992.992,0,0,1,.994.992v1.288a11.488,11.488,0,0,1,2.62,1.085l.912-.911a.984.984,0,0,1,.7-.29,1,1,0,0,1,.7.29l2.918,2.921a.994.994,0,0,1,0,1.4l-.912.911a11.245,11.245,0,0,1,1.088,2.62h1.286a.992.992,0,0,1,.994.992v4.13a.993.993,0,0,1-.994.992H25.437a11.249,11.249,0,0,1-1.088,2.62l.912.911a1,1,0,0,1,0,1.4L22.338,37.32a.986.986,0,0,1-1.4,0l-.912-.911a11.446,11.446,0,0,1-2.62,1.086v1.288a.992.992,0,0,1-.994.992H12.285a.993.993,0,0,1-.994-.992Z" fill-rule="evenodd"/>
    </g>
  </g>
</svg>
