<svg xmlns="http://www.w3.org/2000/svg" xmlns:xlink="http://www.w3.org/1999/xlink" width="110" height="110" viewBox="0 0 110 110">
  <defs>
    <filter id="Trazado_982547" x="0" y="0" width="110" height="110" filterUnits="userSpaceOnUse">
      <feOffset dy="3" input="SourceAlpha"/>
      <feGaussianBlur stdDeviation="3" result="blur"/>
      <feFlood flood-opacity="0.161"/>
      <feComposite operator="in" in2="blur"/>
      <feComposite in="SourceGraphic"/>
    </filter>
  </defs>
  <g id="Grupo_1164400" data-name="Grupo 1164400" transform="translate(-1112.818 -1431.326)">
    <g id="Grupo_1164142" data-name="Grupo 1164142" transform="translate(0 -2364.674)">
      <g id="Grupo_1159367" data-name="Grupo 1159367" transform="translate(312.818 -542)">
        <g id="Grupo_1157015" data-name="Grupo 1157015" transform="translate(0 3549)">
          <g id="Grupo_1155792" data-name="Grupo 1155792" transform="translate(-1 -3894.666)">
            <g id="Grupo_1154703" data-name="Grupo 1154703" transform="translate(0 1465.666)">
              <g id="Grupo_1150789" data-name="Grupo 1150789" transform="translate(3 2320)">
                <g id="Grupo_1154212" data-name="Grupo 1154212" transform="translate(-236 -5809)">
                  <g id="Grupo_1152583" data-name="Grupo 1152583" transform="translate(1043 6713)">
                    <g id="Grupo_1146973" data-name="Grupo 1146973" transform="translate(0 0)">
                      <g id="Grupo_1146954" data-name="Grupo 1146954">
                        <g transform="matrix(1, 0, 0, 1, -9, -6)" filter="url(#Trazado_982547)">
                          <g id="Trazado_982547-2" data-name="Trazado 982547" transform="translate(9 6)" fill="#fceaf1">
                            <path d="M 46 90.49987030029297 C 39.99187850952148 90.49987030029297 34.16426849365234 89.32350921630859 28.67905426025391 87.00345611572266 C 23.38019943237305 84.76224517822266 18.62104034423828 81.55341339111328 14.53374671936035 77.46613311767578 C 10.44646644592285 73.37885284423828 7.237639904022217 68.61969757080078 4.996413230895996 63.32085418701172 C 2.676359891891479 57.83565521240234 1.5 52.008056640625 1.5 45.99993515014648 C 1.5 39.99181365966797 2.676359891891479 34.16421508789062 4.996413230895996 28.67901420593262 C 7.237639904022217 23.38017463684082 10.44646644592285 18.62101554870605 14.53374671936035 14.53373527526855 C 18.62104034423828 10.44645500183105 23.38019943237305 7.23762845993042 28.67905426025391 4.996415138244629 C 34.16426849365234 2.676361799240112 39.99187850952148 1.500001788139343 46 1.500001788139343 C 52.00812149047852 1.500001788139343 57.83573150634766 2.676361799240112 63.32094573974609 4.996415138244629 C 68.61979675292969 7.23762845993042 73.37895965576172 10.44645500183105 77.46625518798828 14.53373527526855 C 81.55353546142578 18.62101554870605 84.76235961914062 23.38017463684082 87.00358581542969 28.67901420593262 C 89.32363891601562 34.16421508789062 90.5 39.99181365966797 90.5 45.99993515014648 C 90.5 52.008056640625 89.32363891601562 57.83565521240234 87.00358581542969 63.32085418701172 C 84.76235961914062 68.61969757080078 81.55353546142578 73.37885284423828 77.46625518798828 77.46613311767578 C 73.37895965576172 81.55341339111328 68.61979675292969 84.76224517822266 63.32094573974609 87.00345611572266 C 57.83573150634766 89.32350921630859 52.00812149047852 90.49987030029297 46 90.49987030029297 Z" stroke="none"/>
                            <path d="M 46 2.999992370605469 C 40.1937141418457 2.999992370605469 34.56269836425781 4.136489868164062 29.26337051391602 6.377906799316406 C 24.14332580566406 8.543502807617188 19.54441070556641 11.64437866210938 15.59439849853516 15.59437561035156 C 11.64440155029297 19.54439544677734 8.54351806640625 24.14329528808594 6.377914428710938 29.26333618164062 C 4.136497497558594 34.56264877319336 3 40.19366455078125 3 45.99993515014648 C 3 51.80620574951172 4.136497497558594 57.43720626831055 6.377914428710938 62.73651885986328 C 8.54351806640625 67.8565673828125 11.64440155029297 72.45545959472656 15.59439849853516 76.40547943115234 C 19.54441070556641 80.35547637939453 24.14332580566406 83.45635223388672 29.26337051391602 85.6219482421875 C 34.56269836425781 87.86336517333984 40.1937141418457 88.99986267089844 46 88.99986267089844 C 51.8062858581543 88.99986267089844 57.43730163574219 87.86336517333984 62.73661422729492 85.6219482421875 C 67.85667419433594 83.45635223388672 72.45557403564453 80.35547637939453 76.40558624267578 76.40547943115234 C 80.35559844970703 72.45545959472656 83.45647430419922 67.8565673828125 85.6220703125 62.73651885986328 C 87.86350250244141 57.43720626831055 89 51.80620574951172 89 45.99993515014648 C 89 40.19366455078125 87.86350250244141 34.56264877319336 85.6220703125 29.26333618164062 C 83.45647430419922 24.14329528808594 80.35559844970703 19.54439544677734 76.40558624267578 15.59437561035156 C 72.45557403564453 11.64437866210938 67.85667419433594 8.543502807617188 62.73661422729492 6.377906799316406 C 57.43730163574219 4.136489868164062 51.8062858581543 2.999992370605469 46 2.999992370605469 M 46 -7.62939453125e-06 C 71.40509033203125 -7.62939453125e-06 92 20.59486389160156 92 45.99993515014648 C 92 71.40499114990234 71.40509033203125 91.99986267089844 46 91.99986267089844 C 20.59490203857422 91.99986267089844 0 71.40499114990234 0 45.99993515014648 C 0 20.59486389160156 20.59490203857422 -7.62939453125e-06 46 -7.62939453125e-06 Z" stroke="none" fill="#e93b81"/>
                          </g>
                        </g>
                      </g>
                    </g>
                  </g>
                </g>
              </g>
            </g>
          </g>
        </g>
      </g>
    </g>
    <g id="voice_10349566" transform="translate(1138.55 1437.491)">
      <g id="Grupo_1164399" data-name="Grupo 1164399" transform="translate(0.289 18.994)">
        <path id="Trazado_999798" data-name="Trazado 999798" d="M77.919,334.3a.456.456,0,0,0-.646-.644,6.255,6.255,0,0,0,0,8.835.457.457,0,0,0,.646-.646A5.34,5.34,0,0,1,77.919,334.3Z" transform="translate(-67.074 -297.849)" fill="#ffc107" fill-rule="evenodd"/>
        <path id="Trazado_999799" data-name="Trazado 999799" d="M41.808,322.364a.456.456,0,1,0,.646-.645,9.534,9.534,0,0,1,0-13.468.456.456,0,1,0-.646-.645,10.448,10.448,0,0,0,0,14.758Z" transform="translate(-34.569 -274.758)" fill="#ffc107" fill-rule="evenodd"/>
        <path id="Trazado_999800" data-name="Trazado 999800" d="M6.985,301.687a13.728,13.728,0,0,1,0-19.392.457.457,0,0,0-.646-.646,14.642,14.642,0,0,0,0,20.683.456.456,0,1,0,.646-.645Z" transform="translate(-2.063 -251.763)" fill="#ffc107" fill-rule="evenodd"/>
        <path id="Trazado_999801" data-name="Trazado 999801" d="M139.157,53.38a20.79,20.79,0,0,0-23.995-31.436l0,0h0a19.592,19.592,0,0,0-13.641,22.046l.014.085L95.735,53.4a1.2,1.2,0,0,0,.911,1.821l5.406.475v5.274H97.792a.456.456,0,1,0,0,.913h4.261v3.1a3.311,3.311,0,0,0,3.306,3.307h6.407a.906.906,0,0,1,.91.812l.479,4.217a1.2,1.2,0,0,0,1.184,1.061l22.65.068h0a1.2,1.2,0,0,0,1.162-1.473,39.608,39.608,0,0,1-.532-15.825,8.984,8.984,0,0,1,1.533-3.772Z" transform="translate(-84.887 -20.766)" fill="#ffc107" fill-rule="evenodd"/>
      </g>
      <path id="Trazado_999802" data-name="Trazado 999802" d="M11.3,55.61a5.111,5.111,0,0,0,0,7.222.685.685,0,1,1-.968.969,6.483,6.483,0,0,1,0-9.158.685.685,0,0,1,.968.967ZM7.366,66.761a.685.685,0,1,0,.968-.968,9.306,9.306,0,0,1,0-13.145.685.685,0,1,0-.968-.968,10.676,10.676,0,0,0,0,15.081ZM5.372,68.756a.685.685,0,1,1-.968.968,14.871,14.871,0,0,1,0-21.006.685.685,0,1,1,.968.969,13.5,13.5,0,0,0,0,19.069Zm43.7-26.7a.588.588,0,1,1-.587.588A.588.588,0,0,1,49.068,42.053ZM38.2,40.527a.588.588,0,1,1-.588-.588A.588.588,0,0,1,38.2,40.527Zm-1.181-5.089a.588.588,0,1,1,.589.587A.588.588,0,0,1,37.017,35.438Zm7.754,8.377V32.148a1.334,1.334,0,0,0-1.332-1.332h-.49v7.1a.685.685,0,0,1-.342.593l-3.057,1.764a1.96,1.96,0,1,1-.645-1.208l2.674-1.544v-6.7H31.772a1.334,1.334,0,0,0-1.332,1.332V43.815a1.333,1.333,0,0,0,1.332,1.331h.491l0-7.095a.683.683,0,0,1,.342-.592l3.058-1.766a1.906,1.906,0,0,1-.019-.256,1.964,1.964,0,1,1,.664,1.465l-2.677,1.545,0,6.7h9.807a1.333,1.333,0,0,0,1.332-1.331Zm-2.506,6.218a.588.588,0,1,1,.588-.588.588.588,0,0,1-.588.588Zm-4.659,1.849a.588.588,0,1,1,.588-.587.588.588,0,0,1-.588.587Zm-4.66-1.849a.588.588,0,1,1,.587-.588A.588.588,0,0,1,32.947,50.033Zm-6.8-6.8a.588.588,0,1,1,.588-.589A.588.588,0,0,1,26.143,43.23Zm-1.85-4.66a.588.588,0,1,1,.588-.588A.588.588,0,0,1,24.293,38.57Zm1.85-4.66a.588.588,0,1,1,.588-.588.588.588,0,0,1-.588.588Zm6.8-7.978a.588.588,0,1,1-.588.588A.588.588,0,0,1,32.947,25.932Zm4.66-1.849a.588.588,0,1,1-.589.588A.588.588,0,0,1,37.606,24.082Zm4.659,1.849a.588.588,0,1,1-.588.588A.588.588,0,0,1,42.265,25.932Zm6.8,6.8a.588.588,0,1,1-.587.588A.588.588,0,0,1,49.068,32.734Zm1.85,4.66a.588.588,0,1,1-.588.588A.588.588,0,0,1,50.918,37.395ZM46.14,38.667h2.947a1.957,1.957,0,1,0,0-1.369H46.14V34.007h1.1a1.957,1.957,0,1,0,0-1.369h-1.1v-.489a2.7,2.7,0,0,0-2.7-2.7H42.95v-1.1a1.957,1.957,0,1,0-1.369,0v1.1H38.29V26.5a1.957,1.957,0,1,0-1.369,0v2.946h-3.29v-1.1a1.957,1.957,0,1,0-1.369,0v1.1h-.489a2.7,2.7,0,0,0-2.7,2.7v.489h-1.1a1.957,1.957,0,1,0,0,1.369h1.1V37.3H26.124a1.957,1.957,0,1,0,0,1.369h2.947v3.29h-1.1a1.958,1.958,0,1,0,0,1.369h1.1v.489a2.7,2.7,0,0,0,2.7,2.7h.491v1.1a1.957,1.957,0,1,0,1.369,0v-1.1h3.287v2.947a1.958,1.958,0,1,0,1.369,0V46.516h3.291v1.1a1.957,1.957,0,1,0,1.369,0v-1.1h.489a2.7,2.7,0,0,0,2.7-2.7v-.489h1.1a1.957,1.957,0,1,0,0-1.369h-1.1Zm6.307,32.8A40.691,40.691,0,0,1,51.9,55.19a9.987,9.987,0,0,1,1.721-4.231A19.65,19.65,0,0,0,30.928,21.253l-.029.009A18.454,18.454,0,0,0,18.082,42.274a.685.685,0,0,1-.092.485l-5.884,9.473a.041.041,0,0,0,0,.052c.011.024.018.029.044.031l5.823.511a.684.684,0,0,1,.625.681v5.464h1.053l.792-2.178a.685.685,0,0,1,.643-.451h0a.686.686,0,0,1,.642.46l1.009,2.9L25.2,52.639a.685.685,0,0,1,1.29-.009L28.8,58.991l.8-2.2a.685.685,0,0,1,.643-.451h0a.685.685,0,0,1,.642.46l.756,2.169H35.3a.685.685,0,0,1,0,1.369H31.16a.685.685,0,0,1-.647-.459l-.283-.813-.785,2.16a.685.685,0,0,1-1.287,0l-2.3-6.324L23.385,62a.685.685,0,0,1-1.293,0L21.07,59.069l-.3.822a.685.685,0,0,1-.643.451H18.6v2.871a2.168,2.168,0,0,0,2.165,2.166h6.407A2.054,2.054,0,0,1,29.212,67.2l.478,4.218a.051.051,0,0,0,.053.048l22.651.068c.026,0,.028,0,.042-.02a.04.04,0,0,0,.01-.047Zm2.3-19.731A21.018,21.018,0,0,0,30.488,19.956a19.819,19.819,0,0,0-13.8,22.3l-5.746,9.25a1.424,1.424,0,0,0,1.085,2.169l5.2.456v4.837H13.193a.685.685,0,0,0,0,1.369h4.033v2.871a3.539,3.539,0,0,0,3.535,3.535h6.407a.678.678,0,0,1,.683.609l.479,4.217a1.422,1.422,0,0,0,1.41,1.263l22.65.068h0a1.424,1.424,0,0,0,1.385-1.754,39.322,39.322,0,0,1-.529-15.734,8.718,8.718,0,0,1,1.5-3.68Z" fill-rule="evenodd"/>
    </g>
  </g>
</svg>
