<svg xmlns="http://www.w3.org/2000/svg" xmlns:xlink="http://www.w3.org/1999/xlink" width="110" height="110" viewBox="0 0 110 110">
  <defs>
    <filter id="Trazado_982547" x="0" y="0" width="110" height="110" filterUnits="userSpaceOnUse">
      <feOffset dy="3" input="SourceAlpha"/>
      <feGaussianBlur stdDeviation="3" result="blur"/>
      <feFlood flood-opacity="0.161"/>
      <feComposite operator="in" in2="blur"/>
      <feComposite in="SourceGraphic"/>
    </filter>
  </defs>
  <g id="Grupo_1164403" data-name="Grupo 1164403" transform="translate(-9237 -1476.326)">
    <g id="Grupo_1164145" data-name="Grupo 1164145" transform="translate(8437 -2319.674)">
      <g id="Grupo_1159364" data-name="Grupo 1159364" transform="translate(0 -542)">
        <g id="Grupo_1157015" data-name="Grupo 1157015" transform="translate(0 3549)">
          <g id="Grupo_1155792" data-name="Grupo 1155792" transform="translate(-1 -3894.666)">
            <g id="Grupo_1154703" data-name="Grupo 1154703" transform="translate(0 1465.666)">
              <g id="Grupo_1150789" data-name="Grupo 1150789" transform="translate(3 2320)">
                <g id="Grupo_1154212" data-name="Grupo 1154212" transform="translate(-236 -5809)">
                  <g id="Grupo_1152583" data-name="Grupo 1152583" transform="translate(1043 6713)">
                    <g id="Grupo_1146973" data-name="Grupo 1146973" transform="translate(0 0)">
                      <g id="Grupo_1146954" data-name="Grupo 1146954">
                        <g transform="matrix(1, 0, 0, 1, -9, -6)" filter="url(#Trazado_982547)">
                          <g id="Trazado_982547-2" data-name="Trazado 982547" transform="translate(9 6)" fill="#fceaf1">
                            <path d="M 46 90.49987030029297 C 39.99187850952148 90.49987030029297 34.16426849365234 89.32350921630859 28.67905426025391 87.00345611572266 C 23.38019943237305 84.76224517822266 18.62104034423828 81.55341339111328 14.53374671936035 77.46613311767578 C 10.44646644592285 73.37885284423828 7.237639904022217 68.61969757080078 4.996413230895996 63.32085418701172 C 2.676359891891479 57.83565521240234 1.5 52.008056640625 1.5 45.99993515014648 C 1.5 39.99181365966797 2.676359891891479 34.16421508789062 4.996413230895996 28.67901420593262 C 7.237639904022217 23.38017463684082 10.44646644592285 18.62101554870605 14.53374671936035 14.53373527526855 C 18.62104034423828 10.44645500183105 23.38019943237305 7.23762845993042 28.67905426025391 4.996415138244629 C 34.16426849365234 2.676361799240112 39.99187850952148 1.500001788139343 46 1.500001788139343 C 52.00812149047852 1.500001788139343 57.83573150634766 2.676361799240112 63.32094573974609 4.996415138244629 C 68.61979675292969 7.23762845993042 73.37895965576172 10.44645500183105 77.46625518798828 14.53373527526855 C 81.55353546142578 18.62101554870605 84.76235961914062 23.38017463684082 87.00358581542969 28.67901420593262 C 89.32363891601562 34.16421508789062 90.5 39.99181365966797 90.5 45.99993515014648 C 90.5 52.008056640625 89.32363891601562 57.83565521240234 87.00358581542969 63.32085418701172 C 84.76235961914062 68.61969757080078 81.55353546142578 73.37885284423828 77.46625518798828 77.46613311767578 C 73.37895965576172 81.55341339111328 68.61979675292969 84.76224517822266 63.32094573974609 87.00345611572266 C 57.83573150634766 89.32350921630859 52.00812149047852 90.49987030029297 46 90.49987030029297 Z" stroke="none"/>
                            <path d="M 46 2.999992370605469 C 40.1937141418457 2.999992370605469 34.56269836425781 4.136489868164062 29.26337051391602 6.377906799316406 C 24.14332580566406 8.543502807617188 19.54441070556641 11.64437866210938 15.59439849853516 15.59437561035156 C 11.64440155029297 19.54439544677734 8.54351806640625 24.14329528808594 6.377914428710938 29.26333618164062 C 4.136497497558594 34.56264877319336 3 40.19366455078125 3 45.99993515014648 C 3 51.80620574951172 4.136497497558594 57.43720626831055 6.377914428710938 62.73651885986328 C 8.54351806640625 67.8565673828125 11.64440155029297 72.45545959472656 15.59439849853516 76.40547943115234 C 19.54441070556641 80.35547637939453 24.14332580566406 83.45635223388672 29.26337051391602 85.6219482421875 C 34.56269836425781 87.86336517333984 40.1937141418457 88.99986267089844 46 88.99986267089844 C 51.8062858581543 88.99986267089844 57.43730163574219 87.86336517333984 62.73661422729492 85.6219482421875 C 67.85667419433594 83.45635223388672 72.45557403564453 80.35547637939453 76.40558624267578 76.40547943115234 C 80.35559844970703 72.45545959472656 83.45647430419922 67.8565673828125 85.6220703125 62.73651885986328 C 87.86350250244141 57.43720626831055 89 51.80620574951172 89 45.99993515014648 C 89 40.19366455078125 87.86350250244141 34.56264877319336 85.6220703125 29.26333618164062 C 83.45647430419922 24.14329528808594 80.35559844970703 19.54439544677734 76.40558624267578 15.59437561035156 C 72.45557403564453 11.64437866210938 67.85667419433594 8.543502807617188 62.73661422729492 6.377906799316406 C 57.43730163574219 4.136489868164062 51.8062858581543 2.999992370605469 46 2.999992370605469 M 46 -7.62939453125e-06 C 71.40509033203125 -7.62939453125e-06 92 20.59486389160156 92 45.99993515014648 C 92 71.40499114990234 71.40509033203125 91.99986267089844 46 91.99986267089844 C 20.59490203857422 91.99986267089844 0 71.40499114990234 0 45.99993515014648 C 0 20.59486389160156 20.59490203857422 -7.62939453125e-06 46 -7.62939453125e-06 Z" stroke="none" fill="#e93b81"/>
                          </g>
                        </g>
                      </g>
                    </g>
                  </g>
                </g>
              </g>
            </g>
          </g>
        </g>
      </g>
    </g>
    <g id="artificial-intelligence_994983" transform="translate(9263.117 1501.829)">
      <g id="Grupo_1164402" data-name="Grupo 1164402" transform="translate(3.386 2.892)">
        <path id="Trazado_999803" data-name="Trazado 999803" d="M94.1,67.644V59.5h6.587l-4.157-13.71a22.016,22.016,0,0,0-13.4-20.26V73.2h5.408A5.557,5.557,0,0,0,94.1,67.644Z" transform="translate(-77.139 -25.531)" fill="#d8d8e4"/>
        <rect id="Rectángulo_412657" data-name="Rectángulo 412657" width="3.836" height="6.087" transform="translate(0 47.67)" fill="#d8d8e4"/>
      </g>
      <path id="Trazado_999804" data-name="Trazado 999804" d="M260.11,10.013V24.675l1.724,7h6.383V37.23l5.555-5.555H287.4V10.013Z" transform="translate(-230.763 -8.872)" fill="#72d8ff"/>
      <path id="Trazado_999805" data-name="Trazado 999805" d="M10.014,103.817a8.123,8.123,0,0,0,0-16.246Z" transform="translate(-8.884 -77.679)" fill="#4dbaf6"/>
      <path id="Trazado_999806" data-name="Trazado 999806" d="M10.014,137.886a3.159,3.159,0,0,0,0-6.318Z" transform="translate(-8.884 -116.712)" fill="#fff"/>
      <circle id="Elipse_11818" data-name="Elipse 11818" cx="2.256" cy="2.256" r="2.256" transform="translate(1.129 39.95)" fill="#ff5d5d"/>
      <path id="Trazado_999807" data-name="Trazado 999807" d="M275.922,330.6l-2.373-5.682a2.215,2.215,0,0,0-4.052-.084l-1.873,4.01-2.885-7.046a2.216,2.216,0,0,0-4.188.256L257.8,332.144l-2.332-6.611a2.194,2.194,0,0,0-2.069-1.478h-.021A2.194,2.194,0,0,0,251.3,325.5l-1.077,2.885-2.118-3.721a1.128,1.128,0,0,0-1.961,1.116l2.161,3.8a2.216,2.216,0,0,0,4-.321l1.068-2.861,2.339,6.628A2.205,2.205,0,0,0,257.8,334.5h.083a2.206,2.206,0,0,0,2.057-1.631l2.756-10.1,2.875,7.021a2.216,2.216,0,0,0,4.058.1l1.873-4.011,2.338,5.6a1.128,1.128,0,0,0,2.082-.87Z" transform="translate(-218.242 -284.259)"/>
      <path id="Trazado_999808" data-name="Trazado 999808" d="M28.013,36.535l-3.822-12.6H36.326v4.427a1.128,1.128,0,0,0,1.926.8l5.225-5.225h13.16A1.128,1.128,0,0,0,57.766,22.8V1.141A1.128,1.128,0,0,0,56.638.013H21.519A1.128,1.128,0,0,0,20.39,1.141v9.738a23.308,23.308,0,0,0-3.138-3.963A23,23,0,0,0,1.146.016,1.128,1.128,0,1,0,1.11,2.272a20.973,20.973,0,0,1,20.539,20.88,1.125,1.125,0,0,0,.049.327l3.716,12.254H20.346a1.128,1.128,0,0,0-1.128,1.128v3.089H16.925a1.128,1.128,0,1,0,0,2.256h2.294V45a4.434,4.434,0,0,1-4.429,4.429H4.514V45.4a3.384,3.384,0,1,0-2.256,0v4.037H1.13a1.128,1.128,0,0,0,0,2.256H6.094v4.959a1.128,1.128,0,1,0,2.256,0V51.691h6.439a6.693,6.693,0,0,0,6.686-6.686V37.991h5.459a1.128,1.128,0,0,0,1.08-1.455ZM22.647,2.27H55.509V21.675H43.01a1.129,1.129,0,0,0-.8.33l-3.629,3.629V22.8a1.128,1.128,0,0,0-1.128-1.128h-13.6A23.08,23.08,0,0,0,22.647,15.6V2.27ZM3.386,41.078a1.128,1.128,0,1,1-1.128,1.128A1.129,1.129,0,0,1,3.386,41.078Z"/>
      <path id="Trazado_999809" data-name="Trazado 999809" d="M119.933,195.879a1.128,1.128,0,1,0-.8.331A1.137,1.137,0,0,0,119.933,195.879Z" transform="translate(-104.693 -172.058)"/>
      <path id="Trazado_999810" data-name="Trazado 999810" d="M1.144,79.829h.028a1.128,1.128,0,0,0,.007-2.256H1.144a1.128,1.128,0,0,0,0,2.256Z" transform="translate(-0.014 -68.809)"/>
      <path id="Trazado_999811" data-name="Trazado 999811" d="M1.142,103.175a9.262,9.262,0,0,0,9.251-9.251A9.225,9.225,0,0,0,5.386,85.7a1.128,1.128,0,0,0-1.037,2,6.976,6.976,0,0,1,3.787,6.218,7,7,0,0,1-6.995,6.995,1.128,1.128,0,1,0,0,2.256Z" transform="translate(-0.013 -75.908)"/>
      <path id="Trazado_999812" data-name="Trazado 999812" d="M1.144,154.984A4.292,4.292,0,0,0,5.431,150.7a1.128,1.128,0,0,0-2.256,0,2.033,2.033,0,0,1-2.031,2.031,1.128,1.128,0,0,0,0,2.256Z" transform="translate(-0.014 -132.682)"/>
      <path id="Trazado_999813" data-name="Trazado 999813" d="M314.1,67.293a1.128,1.128,0,0,0,1.128-1.128V57.139a1.128,1.128,0,0,0-2.256,0v9.026A1.128,1.128,0,0,0,314.1,67.293Z" transform="translate(-277.662 -49.68)"/>
      <path id="Trazado_999814" data-name="Trazado 999814" d="M455.119,67.293a1.128,1.128,0,0,0,1.128-1.128V57.139a1.128,1.128,0,0,0-2.256,0v9.026A1.128,1.128,0,0,0,455.119,67.293Z" transform="translate(-402.769 -49.68)"/>
      <path id="Trazado_999815" data-name="Trazado 999815" d="M223.316,67.293a3.711,3.711,0,0,0,3.707-3.707V59.718a3.707,3.707,0,1,0-7.414,0v3.868A3.711,3.711,0,0,0,223.316,67.293Zm-1.451-7.575a1.45,1.45,0,1,1,2.9,0v3.868a1.45,1.45,0,1,1-2.9,0Z" transform="translate(-194.831 -49.68)"/>
      <path id="Trazado_999816" data-name="Trazado 999816" d="M364.333,67.293a3.711,3.711,0,0,0,3.707-3.707V59.718a3.707,3.707,0,0,0-7.414,0v3.868A3.711,3.711,0,0,0,364.333,67.293Zm-1.451-7.575a1.451,1.451,0,1,1,2.9,0v3.868a1.451,1.451,0,1,1-2.9,0Z" transform="translate(-319.938 -49.68)"/>
      <path id="Trazado_999817" data-name="Trazado 999817" d="M406.075,246.332a1.128,1.128,0,1,0,.8-.331A1.137,1.137,0,0,0,406.075,246.332Z" transform="translate(-359.965 -218.234)"/>
      <path id="Trazado_999818" data-name="Trazado 999818" d="M449.192,246.332a1.128,1.128,0,1,0,.8-.331A1.137,1.137,0,0,0,449.192,246.332Z" transform="translate(-398.218 -218.234)"/>
      <path id="Trazado_999819" data-name="Trazado 999819" d="M493.117,246a1.129,1.129,0,1,0,.8.331A1.137,1.137,0,0,0,493.117,246Z" transform="translate(-436.48 -218.234)"/>
    </g>
  </g>
</svg>
