<svg xmlns="http://www.w3.org/2000/svg" xmlns:xlink="http://www.w3.org/1999/xlink" width="108" height="108" viewBox="0 0 108 108">
  <defs>
    <filter id="Trazado_904820" x="0" y="0" width="108" height="108" filterUnits="userSpaceOnUse">
      <feOffset dy="3" input="SourceAlpha"/>
      <feGaussianBlur stdDeviation="3" result="blur"/>
      <feFlood flood-opacity="0.161"/>
      <feComposite operator="in" in2="blur"/>
      <feComposite in="SourceGraphic"/>
    </filter>
  </defs>
  <g id="Grupo_1159948" data-name="Grupo 1159948" transform="translate(-192 -2562)">
    <g id="Icono" transform="translate(-423.101 -2438)">
      <g transform="matrix(1, 0, 0, 1, 615.1, 5000)" filter="url(#Trazado_904820)">
        <g id="Trazado_904820-2" data-name="Trazado 904820" transform="translate(9 6)" fill="#ebfefd">
          <path d="M 45 88.5 C 39.12687683105469 88.5 33.43022537231445 87.35007476806641 28.06830024719238 85.08217620849609 C 22.88852500915527 82.89131164550781 18.23629951477051 79.75458526611328 14.2408504486084 75.75914764404297 C 10.24541282653809 71.76370239257812 7.108687400817871 67.11147308349609 4.917825222015381 61.93170166015625 C 2.649924993515015 56.56977462768555 1.5 50.87312316894531 1.5 45 C 1.5 39.12687683105469 2.649924993515015 33.43022537231445 4.917825222015381 28.06830024719238 C 7.108687400817871 22.88852500915527 10.24541282653809 18.23629951477051 14.2408504486084 14.2408504486084 C 18.23629951477051 10.24541282653809 22.88852500915527 7.108687400817871 28.06830024719238 4.917825222015381 C 33.43022537231445 2.649924993515015 39.12687683105469 1.5 45 1.5 C 50.87312316894531 1.5 56.56977462768555 2.649924993515015 61.93170166015625 4.917825222015381 C 67.11147308349609 7.108687400817871 71.76370239257812 10.24541282653809 75.75914764404297 14.2408504486084 C 79.75458526611328 18.23629951477051 82.89131164550781 22.88852500915527 85.08217620849609 28.06830024719238 C 87.35007476806641 33.43022537231445 88.5 39.12687683105469 88.5 45 C 88.5 50.87312316894531 87.35007476806641 56.56977462768555 85.08217620849609 61.93170166015625 C 82.89131164550781 67.11147308349609 79.75458526611328 71.76370239257812 75.75914764404297 75.75914764404297 C 71.76370239257812 79.75458526611328 67.11147308349609 82.89131164550781 61.93170166015625 85.08217620849609 C 56.56977462768555 87.35007476806641 50.87312316894531 88.5 45 88.5 Z" stroke="none"/>
          <path d="M 45 3 C 39.32871246337891 3 33.82865524291992 4.110054016113281 28.65262985229492 6.299339294433594 C 23.65165710449219 8.414573669433594 19.15968322753906 11.44334411621094 15.301513671875 15.301513671875 C 11.44334411621094 19.15968322753906 8.414573669433594 23.65165710449219 6.299339294433594 28.65262985229492 C 4.110054016113281 33.82865524291992 3 39.32871246337891 3 45 C 3 50.67128753662109 4.110054016113281 56.17134475708008 6.299339294433594 61.34737396240234 C 8.414573669433594 66.34834289550781 11.44334411621094 70.84031677246094 15.301513671875 74.698486328125 C 19.15968322753906 78.55665588378906 23.65165710449219 81.58542633056641 28.65262985229492 83.70066070556641 C 33.82865524291992 85.88994598388672 39.32871246337891 87 45 87 C 50.67128753662109 87 56.17134475708008 85.88994598388672 61.34737396240234 83.70066070556641 C 66.34834289550781 81.58542633056641 70.84031677246094 78.55665588378906 74.698486328125 74.698486328125 C 78.55665588378906 70.84031677246094 81.58542633056641 66.34834289550781 83.70066070556641 61.34737396240234 C 85.88994598388672 56.17134475708008 87 50.67128753662109 87 45 C 87 39.32871246337891 85.88994598388672 33.82865524291992 83.70066070556641 28.65262985229492 C 81.58542633056641 23.65165710449219 78.55665588378906 19.15968322753906 74.698486328125 15.301513671875 C 70.84031677246094 11.44334411621094 66.34834289550781 8.414573669433594 61.34737396240234 6.299339294433594 C 56.17134475708008 4.110054016113281 50.67128753662109 3 45 3 M 45 0 C 69.85281372070312 0 90 20.14718627929688 90 45 C 90 69.85281372070312 69.85281372070312 90 45 90 C 20.14718627929688 90 0 69.85281372070312 0 45 C 0 20.14718627929688 20.14718627929688 0 45 0 Z" stroke="none" fill="#268985"/>
        </g>
      </g>
    </g>
    <g id="estrategia" transform="translate(216.832 2585.595)">
      <path id="Trazado_995069" data-name="Trazado 995069" d="M76.867,33.823V68.46H24V33.823A1.817,1.817,0,0,1,25.823,32H75.044A1.817,1.817,0,0,1,76.867,33.823Zm0,0" transform="translate(-21.266 -28.354)" fill="#48cfad"/>
      <path id="Trazado_995070" data-name="Trazado 995070" d="M443.646,32H440a1.817,1.817,0,0,1,1.823,1.823V68.46h3.646V33.823A1.817,1.817,0,0,0,443.646,32Zm0,0" transform="translate(-389.868 -28.354)" fill="#37bc9b"/>
      <path id="Trazado_995071" data-name="Trazado 995071" d="M183.3,424h14.839l.975,2.734h-16.79Zm0,0" transform="translate(-161.548 -375.691)" fill="#f7c292"/>
      <path id="Trazado_995072" data-name="Trazado 995072" d="M137.115,376l-1.951,5.469-.975,2.734-1.632,4.557H128L132.557,376Zm0,0" transform="translate(-113.416 -333.16)" fill="#ffd2a6"/>
      <path id="Trazado_995073" data-name="Trazado 995073" d="M308.557,376l4.557,12.761h-4.557l-1.632-4.557-.975-2.734L304,376Zm0,0" transform="translate(-269.363 -333.16)" fill="#ffd2a6"/>
      <path id="Trazado_995074" data-name="Trazado 995074" d="M64.513,352v2.734H8V352Zm0,0" transform="translate(-7.089 -311.894)" fill="#656d78"/>
      <path id="Trazado_995075" data-name="Trazado 995075" d="M473.823,352H472v2.734h3.646V352Zm0,0" transform="translate(-418.222 -311.894)" fill="#434a54"/>
      <path id="Trazado_995076" data-name="Trazado 995076" d="M224,8h7.292v2.734H224Zm0,0" transform="translate(-198.478 -7.089)" fill="#ffd2a6"/>
      <path id="Trazado_995077" data-name="Trazado 995077" d="M389.469,88l-.911,1.823.911,1.823H384V88Zm0,0" transform="translate(-340.248 -77.974)" fill="#ed5565"/>
      <path id="Trazado_995078" data-name="Trazado 995078" d="M365.469,138.734A2.734,2.734,0,1,1,362.734,136,2.731,2.731,0,0,1,365.469,138.734Zm0,0" transform="translate(-318.983 -120.505)" fill="#f5f7fa"/>
      <path id="Trazado_995079" data-name="Trazado 995079" d="M82.734,248A2.734,2.734,0,1,1,80,250.734,2.731,2.731,0,0,1,82.734,248Zm0,0" transform="translate(-70.885 -219.744)" fill="#f5f7fa"/>
      <path id="Trazado_995080" data-name="Trazado 995080" d="M16.911,76.46A.91.91,0,0,1,16,75.548V40.911a.911.911,0,0,1,1.823,0V75.548A.91.91,0,0,1,16.911,76.46Zm0,0" transform="translate(-14.177 -35.443)"/>
      <path id="Trazado_995081" data-name="Trazado 995081" d="M16.911,27.646A.91.91,0,0,1,16,26.734,2.738,2.738,0,0,1,18.734,24a.911.911,0,1,1,0,1.823.912.912,0,0,0-.911.911A.91.91,0,0,1,16.911,27.646Zm0,0" transform="translate(-14.177 -21.266)"/>
      <path id="Trazado_995082" data-name="Trazado 995082" d="M480.911,76.46a.91.91,0,0,1-.911-.911V40.911a.911.911,0,0,1,1.823,0V75.548A.91.91,0,0,1,480.911,76.46Zm0,0" transform="translate(-425.31 -35.443)"/>
      <path id="Trazado_995083" data-name="Trazado 995083" d="M466.734,27.646a.91.91,0,0,1-.911-.911.912.912,0,0,0-.912-.911.911.911,0,0,1,0-1.823,2.738,2.738,0,0,1,2.734,2.734A.91.91,0,0,1,466.734,27.646Zm0,0" transform="translate(-411.133 -21.266)"/>
      <path id="Trazado_995084" data-name="Trazado 995084" d="M82.132,25.823H32.911a.911.911,0,0,1,0-1.823H82.132a.911.911,0,1,1,0,1.823Zm0,0" transform="translate(-28.354 -21.266)"/>
      <path id="Trazado_995085" data-name="Trazado 995085" d="M57.424,348.557H.911A.91.91,0,0,1,0,347.646v-2.734A.91.91,0,0,1,.911,344H57.424a.91.91,0,0,1,.911.911v2.734A.91.91,0,0,1,57.424,348.557Zm-55.6-1.823h54.69v-.911H1.823Zm0,0" transform="translate(0 -304.806)"/>
      <path id="Trazado_995086" data-name="Trazado 995086" d="M160.911,382.575a.9.9,0,0,1-.306-.054.909.909,0,0,1-.551-1.164l4.557-12.761a.911.911,0,0,1,1.715.612l-4.557,12.761A.909.909,0,0,1,160.911,382.575Zm0,0" transform="translate(-141.769 -326.062)"/>
      <path id="Trazado_995087" data-name="Trazado 995087" d="M120.911,382.575a.9.9,0,0,1-.306-.054.909.909,0,0,1-.551-1.164l4.557-12.761a.911.911,0,0,1,1.715.612l-4.557,12.761a.909.909,0,0,1-.858.605Zm0,0" transform="translate(-106.327 -326.062)"/>
      <path id="Trazado_995088" data-name="Trazado 995088" d="M125.469,481.823h-4.557a.911.911,0,0,1,0-1.823h4.557a.911.911,0,0,1,0,1.823Zm0,0" transform="translate(-106.328 -425.31)"/>
      <path id="Trazado_995089" data-name="Trazado 995089" d="M301.469,382.582a.909.909,0,0,1-.858-.605l-4.557-12.761a.911.911,0,0,1,1.715-.612l4.557,12.761a.909.909,0,0,1-.551,1.164A.9.9,0,0,1,301.469,382.582Zm0,0" transform="translate(-262.275 -326.069)"/>
      <path id="Trazado_995090" data-name="Trazado 995090" d="M341.469,382.582a.909.909,0,0,1-.858-.605l-4.557-12.761a.911.911,0,0,1,1.715-.612l4.557,12.761a.909.909,0,0,1-.551,1.164A.9.9,0,0,1,341.469,382.582Zm0,0" transform="translate(-297.717 -326.069)"/>
      <path id="Trazado_995091" data-name="Trazado 995091" d="M341.469,481.823h-4.557a.911.911,0,0,1,0-1.823h4.557a.911.911,0,0,1,0,1.823Zm0,0" transform="translate(-297.717 -425.31)"/>
      <path id="Trazado_995092" data-name="Trazado 995092" d="M198.612,417.823H183.767a.911.911,0,1,1,0-1.823h14.844a.911.911,0,0,1,0,1.823Zm0,0" transform="translate(-162.022 -368.602)"/>
      <path id="Trazado_995093" data-name="Trazado 995093" d="M192,441.823H175.2a.911.911,0,1,1,0-1.823H192a.911.911,0,0,1,0,1.823Zm0,0" transform="translate(-154.431 -389.868)"/>
      <path id="Trazado_995094" data-name="Trazado 995094" d="M224.2,4.557h-7.292A.91.91,0,0,1,216,3.646V.911A.91.91,0,0,1,216.911,0H224.2a.91.91,0,0,1,.911.911V3.646A.91.91,0,0,1,224.2,4.557Zm-6.38-1.823h5.469V1.823h-5.469Zm0,0" transform="translate(-191.39)"/>
      <path id="Trazado_995095" data-name="Trazado 995095" d="M75.646,247.292a3.646,3.646,0,1,1,3.646-3.646A3.65,3.65,0,0,1,75.646,247.292Zm0-5.469a1.823,1.823,0,1,0,1.823,1.823A1.825,1.825,0,0,0,75.646,241.823Zm0,0" transform="translate(-63.797 -212.655)"/>
      <path id="Trazado_995096" data-name="Trazado 995096" d="M355.646,135.292a3.646,3.646,0,1,1,3.646-3.646A3.65,3.65,0,0,1,355.646,135.292Zm0-5.469a1.823,1.823,0,1,0,1.823,1.823A1.825,1.825,0,0,0,355.646,129.823Zm0,0" transform="translate(-311.894 -113.416)"/>
      <path id="Trazado_995097" data-name="Trazado 995097" d="M376.911,90.026a.91.91,0,0,1-.911-.911v-8.2a.911.911,0,0,1,1.823,0v8.2A.91.91,0,0,1,376.911,90.026Zm0,0" transform="translate(-333.16 -70.885)"/>
      <path id="Trazado_995098" data-name="Trazado 995098" d="M382.38,81.823h-5.469a.911.911,0,1,1,0-1.823h5.469a.911.911,0,1,1,0,1.823Zm0,0" transform="translate(-333.16 -70.885)"/>
      <path id="Trazado_995099" data-name="Trazado 995099" d="M382.38,113.823h-5.469a.911.911,0,0,1,0-1.823h5.469a.911.911,0,0,1,0,1.823Zm0,0" transform="translate(-333.16 -99.239)"/>
      <path id="Trazado_995100" data-name="Trazado 995100" d="M417.818,85.469a.912.912,0,0,1-.817-.5l-.911-1.823a.911.911,0,0,1,0-.816L417,80.5a.912.912,0,0,1,1.631.816l-.707,1.416.707,1.416a.911.911,0,0,1-.814,1.319Zm0,0" transform="translate(-368.596 -70.885)"/>
      <path id="Trazado_995101" data-name="Trazado 995101" d="M136.914,162.026a.912.912,0,0,1-.681-1.517c.309-.348,7.724-8.51,21.645-8.51a.911.911,0,1,1,0,1.823c-13.112,0-20.213,7.819-20.283,7.9a.906.906,0,0,1-.681.306Zm0,0" transform="translate(-120.507 -134.682)"/>
      <path id="Trazado_995102" data-name="Trazado 995102" d="M304.909,155.643a.911.911,0,0,1-.644-1.556l1.823-1.823a.911.911,0,0,1,1.289,1.289l-1.823,1.823A.91.91,0,0,1,304.909,155.643Zm0,0" transform="translate(-269.361 -134.679)"/>
      <path id="Trazado_995103" data-name="Trazado 995103" d="M306.732,139.643a.91.91,0,0,1-.644-.267l-1.823-1.823a.911.911,0,0,1,1.289-1.289l1.823,1.823a.911.911,0,0,1-.644,1.556Zm0,0" transform="translate(-269.361 -120.502)"/>
      <path id="Trazado_995104" data-name="Trazado 995104" d="M97.115,265.831a.912.912,0,0,1-.01-1.823h.01a.911.911,0,0,1,0,1.823Zm0,0" transform="translate(-85.238 -233.928)"/>
      <path id="Trazado_995105" data-name="Trazado 995105" d="M84.555,125.466a.91.91,0,0,1-.644-.267l-3.646-3.646a.911.911,0,1,1,1.289-1.289L85.2,123.91a.911.911,0,0,1-.644,1.556Zm0,0" transform="translate(-70.882 -106.325)"/>
      <path id="Trazado_995106" data-name="Trazado 995106" d="M80.909,125.466a.911.911,0,0,1-.644-1.556l3.646-3.646a.911.911,0,1,1,1.289,1.289L81.553,125.2A.91.91,0,0,1,80.909,125.466Zm0,0" transform="translate(-70.882 -106.325)"/>
      <path id="Trazado_995107" data-name="Trazado 995107" d="M204.555,69.466a.91.91,0,0,1-.644-.267l-3.646-3.646a.911.911,0,0,1,1.289-1.289L205.2,67.91a.911.911,0,0,1-.644,1.556Zm0,0" transform="translate(-177.21 -56.705)"/>
      <path id="Trazado_995108" data-name="Trazado 995108" d="M200.909,69.466a.911.911,0,0,1-.644-1.556l3.646-3.646a.911.911,0,1,1,1.289,1.289L201.553,69.2A.91.91,0,0,1,200.909,69.466Zm0,0" transform="translate(-177.21 -56.705)"/>
      <path id="Trazado_995109" data-name="Trazado 995109" d="M220.555,277.466a.91.91,0,0,1-.644-.267l-3.646-3.646a.911.911,0,0,1,1.289-1.289l3.646,3.646a.911.911,0,0,1-.644,1.556Zm0,0" transform="translate(-191.387 -241.007)"/>
      <path id="Trazado_995110" data-name="Trazado 995110" d="M216.909,277.466a.911.911,0,0,1-.644-1.556l3.646-3.646a.911.911,0,0,1,1.289,1.289l-3.646,3.646A.91.91,0,0,1,216.909,277.466Zm0,0" transform="translate(-191.387 -241.007)"/>
      <path id="Trazado_995111" data-name="Trazado 995111" d="M340.555,237.466a.91.91,0,0,1-.644-.267l-3.646-3.646a.911.911,0,0,1,1.289-1.289l3.646,3.646a.911.911,0,0,1-.644,1.556Zm0,0" transform="translate(-297.715 -205.564)"/>
      <path id="Trazado_995112" data-name="Trazado 995112" d="M336.909,237.466a.911.911,0,0,1-.644-1.556l3.646-3.646a.911.911,0,0,1,1.289,1.289l-3.646,3.646A.91.91,0,0,1,336.909,237.466Zm0,0" transform="translate(-297.715 -205.564)"/>
    </g>
  </g>
</svg>
