<svg xmlns="http://www.w3.org/2000/svg" xmlns:xlink="http://www.w3.org/1999/xlink" width="108" height="108" viewBox="0 0 108 108">
  <defs>
    <filter id="Trazado_904820" x="0" y="0" width="108" height="108" filterUnits="userSpaceOnUse">
      <feOffset dy="3" input="SourceAlpha"/>
      <feGaussianBlur stdDeviation="3" result="blur"/>
      <feFlood flood-opacity="0.161"/>
      <feComposite operator="in" in2="blur"/>
      <feComposite in="SourceGraphic"/>
    </filter>
  </defs>
  <g id="Grupo_1159950" data-name="Grupo 1159950" transform="translate(-822 -2562)">
    <g id="Icono" transform="translate(206.899 -2438)">
      <g transform="matrix(1, 0, 0, 1, 615.1, 5000)" filter="url(#Trazado_904820)">
        <g id="Trazado_904820-2" data-name="Trazado 904820" transform="translate(9 6)" fill="#ebfefd">
          <path d="M 45 88.5 C 39.12687683105469 88.5 33.43022537231445 87.35007476806641 28.06830024719238 85.08217620849609 C 22.88852500915527 82.89131164550781 18.23629951477051 79.75458526611328 14.2408504486084 75.75914764404297 C 10.24541282653809 71.76370239257812 7.108687400817871 67.11147308349609 4.917825222015381 61.93170166015625 C 2.649924993515015 56.56977462768555 1.5 50.87312316894531 1.5 45 C 1.5 39.12687683105469 2.649924993515015 33.43022537231445 4.917825222015381 28.06830024719238 C 7.108687400817871 22.88852500915527 10.24541282653809 18.23629951477051 14.2408504486084 14.2408504486084 C 18.23629951477051 10.24541282653809 22.88852500915527 7.108687400817871 28.06830024719238 4.917825222015381 C 33.43022537231445 2.649924993515015 39.12687683105469 1.5 45 1.5 C 50.87312316894531 1.5 56.56977462768555 2.649924993515015 61.93170166015625 4.917825222015381 C 67.11147308349609 7.108687400817871 71.76370239257812 10.24541282653809 75.75914764404297 14.2408504486084 C 79.75458526611328 18.23629951477051 82.89131164550781 22.88852500915527 85.08217620849609 28.06830024719238 C 87.35007476806641 33.43022537231445 88.5 39.12687683105469 88.5 45 C 88.5 50.87312316894531 87.35007476806641 56.56977462768555 85.08217620849609 61.93170166015625 C 82.89131164550781 67.11147308349609 79.75458526611328 71.76370239257812 75.75914764404297 75.75914764404297 C 71.76370239257812 79.75458526611328 67.11147308349609 82.89131164550781 61.93170166015625 85.08217620849609 C 56.56977462768555 87.35007476806641 50.87312316894531 88.5 45 88.5 Z" stroke="none"/>
          <path d="M 45 3 C 39.32871246337891 3 33.82865524291992 4.110054016113281 28.65262985229492 6.299339294433594 C 23.65165710449219 8.414573669433594 19.15968322753906 11.44334411621094 15.301513671875 15.301513671875 C 11.44334411621094 19.15968322753906 8.414573669433594 23.65165710449219 6.299339294433594 28.65262985229492 C 4.110054016113281 33.82865524291992 3 39.32871246337891 3 45 C 3 50.67128753662109 4.110054016113281 56.17134475708008 6.299339294433594 61.34737396240234 C 8.414573669433594 66.34834289550781 11.44334411621094 70.84031677246094 15.301513671875 74.698486328125 C 19.15968322753906 78.55665588378906 23.65165710449219 81.58542633056641 28.65262985229492 83.70066070556641 C 33.82865524291992 85.88994598388672 39.32871246337891 87 45 87 C 50.67128753662109 87 56.17134475708008 85.88994598388672 61.34737396240234 83.70066070556641 C 66.34834289550781 81.58542633056641 70.84031677246094 78.55665588378906 74.698486328125 74.698486328125 C 78.55665588378906 70.84031677246094 81.58542633056641 66.34834289550781 83.70066070556641 61.34737396240234 C 85.88994598388672 56.17134475708008 87 50.67128753662109 87 45 C 87 39.32871246337891 85.88994598388672 33.82865524291992 83.70066070556641 28.65262985229492 C 81.58542633056641 23.65165710449219 78.55665588378906 19.15968322753906 74.698486328125 15.301513671875 C 70.84031677246094 11.44334411621094 66.34834289550781 8.414573669433594 61.34737396240234 6.299339294433594 C 56.17134475708008 4.110054016113281 50.67128753662109 3 45 3 M 45 0 C 69.85281372070312 0 90 20.14718627929688 90 45 C 90 69.85281372070312 69.85281372070312 90 45 90 C 20.14718627929688 90 0 69.85281372070312 0 45 C 0 20.14718627929688 20.14718627929688 0 45 0 Z" stroke="none" fill="#268985"/>
        </g>
      </g>
    </g>
    <g id="strategic-planning_18488569" transform="translate(843.925 2581.482)">
      <g id="Grupo_1159949" data-name="Grupo 1159949" transform="translate(3.887 4.363)">
        <path id="Trazado_995113" data-name="Trazado 995113" d="M23.162,17.278l-2.535-1.7a1.022,1.022,0,0,0-1.3.127L15.4,19.629a1.022,1.022,0,0,0-.127,1.3l1.7,2.535-2.156,5.2-2.994.59a1.022,1.022,0,0,0-.831,1.011v5.548a1.022,1.022,0,0,0,.831,1.011l2.994.59,2.156,5.2-1.7,2.535a1.022,1.022,0,0,0,.127,1.3l3.923,3.923a1.022,1.022,0,0,0,1.3.127l2.535-1.7,5.2,2.156.59,2.994a1.022,1.022,0,0,0,1.011.831h2.765V46.065a13.018,13.018,0,0,1,0-26.037V11.3H29.968a1.022,1.022,0,0,0-1.011.831l-.59,2.994Z" transform="translate(-10.993 -11.297)" fill="#b7bfc9" fill-rule="evenodd"/>
        <path id="Trazado_995114" data-name="Trazado 995114" d="M34.965,15.88,30.622,20.3l2.1,3.106L30.5,28.778l-3.889.767v7l3.889.767,2.221,5.369-2.1,3.106,4.343,4.424,3.4-2.283,5.215,2.161.864,4.7h2.174V46.066a13.018,13.018,0,0,1,0-26.037V11.3H44.448L43.585,16,38.37,18.163Z" transform="translate(-24.882 -11.298)" fill="#d1d6dc" fill-rule="evenodd"/>
        <path id="Trazado_995115" data-name="Trazado 995115" d="M288.062,188.417H307.97c-.126-9.127-5.911-12.625-10.53-16.913l.331-3.378a5.531,5.531,0,0,0,6.013.847l1.774.476.63,1.826,3.19.41,1.767-3.244a1.226,1.226,0,0,0-.337-1.571l-8.154-6.195,1.35-2.339a10.127,10.127,0,0,0-15.943,8.3Z" transform="translate(-257.316 -140.386)" fill="#fdb0a0" fill-rule="evenodd"/>
        <path id="Trazado_995116" data-name="Trazado 995116" d="M288.061,189.561h16.517c-.114-8.25-4.851-11.9-9.171-15.692l.706-6.294a8.948,8.948,0,0,0,1.657,1.7,5.531,5.531,0,0,0,6.013.847l1.774.475.63,1.826.71.091,1.884-3.459-9.52-7.233,1.35-2.339a10.112,10.112,0,0,0-4.121-1.694,10.127,10.127,0,0,0-8.431,9.994v21.781Z" transform="translate(-257.315 -141.53)" fill="#fdc0b1" fill-rule="evenodd"/>
        <path id="Trazado_995117" data-name="Trazado 995117" d="M258.7,444.129h22.076a2.454,2.454,0,0,1,2.446,2.446v3.809H256.252v-3.809a2.454,2.454,0,0,1,2.446-2.446Z" transform="translate(-229.036 -396.099)" fill="#c95645" fill-rule="evenodd"/>
        <path id="Trazado_995118" data-name="Trazado 995118" d="M258.7,444.129h18.684a2.453,2.453,0,0,1,2.446,2.446v3.809H256.251v-3.809a2.454,2.454,0,0,1,2.446-2.446Z" transform="translate(-229.035 -396.099)" fill="#d96b5a" fill-rule="evenodd"/>
      </g>
      <circle id="Elipse_11784" data-name="Elipse 11784" cx="13.649" cy="13.649" r="13.649" transform="translate(6.309 26.113) rotate(-45)" fill="#ff6b84"/>
      <path id="Trazado_995119" data-name="Trazado 995119" d="M106.228,111.667a13.648,13.648,0,1,1,13.133-13.639A13.649,13.649,0,0,1,106.228,111.667Z" transform="translate(-80.097 -71.916)" fill="#ff8298" fill-rule="evenodd"/>
      <circle id="Elipse_11785" data-name="Elipse 11785" cx="9.434" cy="9.434" r="9.434" transform="translate(16.18 16.679)" fill="#dee2e6"/>
      <path id="Trazado_995120" data-name="Trazado 995120" d="M130.837,141.205a9.433,9.433,0,1,1,9.06-9.426A9.434,9.434,0,0,1,130.837,141.205Z" transform="translate(-105.597 -105.666)" fill="#fff" fill-rule="evenodd"/>
      <circle id="Elipse_11786" data-name="Elipse 11786" cx="5.219" cy="5.219" r="5.219" transform="translate(20.396 20.894)" fill="#ff6b84"/>
      <path id="Trazado_995121" data-name="Trazado 995121" d="M172.773,170.846a5.219,5.219,0,1,1,4.761-5.2A5.219,5.219,0,0,1,172.773,170.846Z" transform="translate(-146.701 -139.535)" fill="#ff8298" fill-rule="evenodd"/>
      <path id="Trazado_995122" data-name="Trazado 995122" d="M293.69,34.751V29.5l5.443-5.443v5.247h5.247l-5.443,5.443Z" transform="translate(-258.433 -18.281)" fill="#f2cc8a" fill-rule="evenodd"/>
      <path id="Trazado_995123" data-name="Trazado 995123" d="M293.69,42.183V36.936l4.516-4.516v5.247h5.247l-4.516,4.516Z" transform="translate(-258.433 -25.713)" fill="#fcdca4" fill-rule="evenodd"/>
      <path id="Trazado_995124" data-name="Trazado 995124" d="M24.727,46.953H22.845a.136.136,0,0,1-.141-.116l-.589-2.99a.889.889,0,0,0-.531-.648l-5.2-2.153a.882.882,0,0,0-.834.083l-2.531,1.7a.135.135,0,0,1-.181-.018L8.921,38.89A.135.135,0,0,1,8.9,38.71l1.7-2.531a.888.888,0,0,0,.083-.835l-2.154-5.2a.89.89,0,0,0-.649-.531l-2.99-.589a.135.135,0,0,1-.115-.141v-5.54a.135.135,0,0,1,.115-.141l2.991-.59a.89.89,0,0,0,.648-.531l2.154-5.2a.887.887,0,0,0-.083-.834L8.9,13.517a.136.136,0,0,1,.018-.181l3.917-3.917a.136.136,0,0,1,.181-.018l2.531,1.7a.887.887,0,0,0,.834.083l5.2-2.154a.888.888,0,0,0,.531-.648l.589-2.99a.135.135,0,0,1,.141-.116h1.882V11.6a14.536,14.536,0,0,0,0,29.018ZM36.146,11.591l3.668-3.668v3.1a.887.887,0,0,0,.888.888h3.1l-3.668,3.668H36.146V11.591Zm4.007,14.522a14.451,14.451,0,0,0-2.93-8.755H40.5a.887.887,0,0,0,.628-.26l5.443-5.443a.887.887,0,0,0-.627-1.515h-4.36V5.781a.888.888,0,0,0-1.516-.628L34.63,10.6a.885.885,0,0,0-.26.628V16.1l-9.383,9.383a.888.888,0,0,0,1.256,1.255l3-3a4.331,4.331,0,1,1-3.625-1.961,4.361,4.361,0,0,1,.847.083.888.888,0,0,0,.345-1.742,6.107,6.107,0,1,0-1.193,12.1,6.106,6.106,0,0,0,4.9-9.75l1.738-1.738a8.521,8.521,0,1,1-2.691-2.2.888.888,0,1,0,.821-1.575,10.349,10.349,0,1,0,3.13,2.515l1.732-1.732a12.741,12.741,0,1,1-2.905-2.474.888.888,0,1,0,.936-1.508A14.486,14.486,0,0,0,26.5,11.6V4.386a.887.887,0,0,0-.888-.888h-2.77a1.9,1.9,0,0,0-1.883,1.548l-.5,2.523-4.321,1.79L14.008,7.926a1.9,1.9,0,0,0-2.426.237L7.665,12.081a1.9,1.9,0,0,0-.236,2.425l1.432,2.136-1.79,4.321-2.524.5A1.9,1.9,0,0,0,3,23.343v5.54a1.9,1.9,0,0,0,1.548,1.882l2.524.5,1.79,4.321L7.429,37.721a1.9,1.9,0,0,0,.236,2.426l3.917,3.917a1.9,1.9,0,0,0,2.426.236l2.136-1.433,4.321,1.79.5,2.523a1.9,1.9,0,0,0,1.883,1.548h2.77a.887.887,0,0,0,.888-.888V40.622a14.554,14.554,0,0,0,13.65-14.509ZM55.66,53.273a1.563,1.563,0,0,1,1.561,1.562v2.927H31.991V54.835a1.563,1.563,0,0,1,1.563-1.562H55.66Zm-5.206-19.42a6.419,6.419,0,0,1-5.354-.22L44.957,35.1c.569.518,1.161,1.034,1.738,1.535A32.692,32.692,0,0,1,52.539,42.7a16.766,16.766,0,0,1,2.893,8.8h.228A3.34,3.34,0,0,1,59,54.835v3.814a.887.887,0,0,1-.888.888H31.1a.887.887,0,0,1-.888-.888V54.835A3.341,3.341,0,0,1,33.554,51.5h.2V39.518a.888.888,0,1,1,1.776,0V51.5H53.654c-.4-6.792-4.154-10.067-8.125-13.527-.7-.607-1.416-1.234-2.1-1.87a.886.886,0,0,1-.28-.737l.331-3.383a.888.888,0,0,1,1.47-.58A4.645,4.645,0,0,0,50,32.112a.888.888,0,0,1,.609-.055l1.776.476A.885.885,0,0,1,53,33.1l.452,1.308,2.045.263,1.622-2.977-8.4-6.384a.888.888,0,0,1-.232-1.15l.928-1.608A9.241,9.241,0,0,0,41.5,21.91a.888.888,0,1,1-.629-1.66,11.017,11.017,0,0,1,10.238,1.286.887.887,0,0,1,.258,1.171l-.961,1.664L58.8,30.742a.888.888,0,0,1,.243,1.132l-2.278,4.18a.886.886,0,0,1-.892.456l-3.194-.41a.89.89,0,0,1-.727-.592l-.476-1.381-1.021-.274Z" transform="translate(0 0)" fill-rule="evenodd"/>
    </g>
  </g>
</svg>
