<svg xmlns="http://www.w3.org/2000/svg" xmlns:xlink="http://www.w3.org/1999/xlink" width="108" height="108" viewBox="0 0 108 108">
  <defs>
    <filter id="Trazado_904820" x="0" y="0" width="108" height="108" filterUnits="userSpaceOnUse">
      <feOffset dy="3" input="SourceAlpha"/>
      <feGaussianBlur stdDeviation="3" result="blur"/>
      <feFlood flood-opacity="0.161"/>
      <feComposite operator="in" in2="blur"/>
      <feComposite in="SourceGraphic"/>
    </filter>
  </defs>
  <g id="Grupo_1164269" data-name="Grupo 1164269" transform="translate(-200 -2521)">
    <g id="Grupo_1164000" data-name="Grupo 1164000" transform="translate(209 2527)">
      <g id="Icono">
        <g transform="matrix(1, 0, 0, 1, -9, -6)" filter="url(#Trazado_904820)">
          <g id="Trazado_904820-2" data-name="Trazado 904820" transform="translate(9 6)" fill="#fbf2fb">
            <path d="M 45 88.5 C 39.12687683105469 88.5 33.43022537231445 87.35007476806641 28.06830024719238 85.08217620849609 C 22.88852500915527 82.89131164550781 18.23629951477051 79.75458526611328 14.2408504486084 75.75914764404297 C 10.24541282653809 71.76370239257812 7.108687400817871 67.11147308349609 4.917825222015381 61.93170166015625 C 2.649924993515015 56.56977462768555 1.5 50.87312316894531 1.5 45 C 1.5 39.12687683105469 2.649924993515015 33.43022537231445 4.917825222015381 28.06830024719238 C 7.108687400817871 22.88852500915527 10.24541282653809 18.23629951477051 14.2408504486084 14.2408504486084 C 18.23629951477051 10.24541282653809 22.88852500915527 7.108687400817871 28.06830024719238 4.917825222015381 C 33.43022537231445 2.649924993515015 39.12687683105469 1.5 45 1.5 C 50.87312316894531 1.5 56.56977462768555 2.649924993515015 61.93170166015625 4.917825222015381 C 67.11147308349609 7.108687400817871 71.76370239257812 10.24541282653809 75.75914764404297 14.2408504486084 C 79.75458526611328 18.23629951477051 82.89131164550781 22.88852500915527 85.08217620849609 28.06830024719238 C 87.35007476806641 33.43022537231445 88.5 39.12687683105469 88.5 45 C 88.5 50.87312316894531 87.35007476806641 56.56977462768555 85.08217620849609 61.93170166015625 C 82.89131164550781 67.11147308349609 79.75458526611328 71.76370239257812 75.75914764404297 75.75914764404297 C 71.76370239257812 79.75458526611328 67.11147308349609 82.89131164550781 61.93170166015625 85.08217620849609 C 56.56977462768555 87.35007476806641 50.87312316894531 88.5 45 88.5 Z" stroke="none"/>
            <path d="M 45 3 C 39.32871246337891 3 33.82865524291992 4.110054016113281 28.65262985229492 6.299339294433594 C 23.65165710449219 8.414573669433594 19.15968322753906 11.44334411621094 15.301513671875 15.301513671875 C 11.44334411621094 19.15968322753906 8.414573669433594 23.65165710449219 6.299339294433594 28.65262985229492 C 4.110054016113281 33.82865524291992 3 39.32871246337891 3 45 C 3 50.67128753662109 4.110054016113281 56.17134475708008 6.299339294433594 61.34737396240234 C 8.414573669433594 66.34834289550781 11.44334411621094 70.84031677246094 15.301513671875 74.698486328125 C 19.15968322753906 78.55665588378906 23.65165710449219 81.58542633056641 28.65262985229492 83.70066070556641 C 33.82865524291992 85.88994598388672 39.32871246337891 87 45 87 C 50.67128753662109 87 56.17134475708008 85.88994598388672 61.34737396240234 83.70066070556641 C 66.34834289550781 81.58542633056641 70.84031677246094 78.55665588378906 74.698486328125 74.698486328125 C 78.55665588378906 70.84031677246094 81.58542633056641 66.34834289550781 83.70066070556641 61.34737396240234 C 85.88994598388672 56.17134475708008 87 50.67128753662109 87 45 C 87 39.32871246337891 85.88994598388672 33.82865524291992 83.70066070556641 28.65262985229492 C 81.58542633056641 23.65165710449219 78.55665588378906 19.15968322753906 74.698486328125 15.301513671875 C 70.84031677246094 11.44334411621094 66.34834289550781 8.414573669433594 61.34737396240234 6.299339294433594 C 56.17134475708008 4.110054016113281 50.67128753662109 3 45 3 M 45 0 C 69.85281372070312 0 90 20.14718627929688 90 45 C 90 69.85281372070312 69.85281372070312 90 45 90 C 20.14718627929688 90 0 69.85281372070312 0 45 C 0 20.14718627929688 20.14718627929688 0 45 0 Z" stroke="none" fill="#e087dc"/>
          </g>
        </g>
      </g>
    </g>
    <g id="customer_15597782" transform="translate(196.875 2475.519)">
      <g id="Grupo_1164268" data-name="Grupo 1164268" transform="translate(25.91 75.379)">
        <path id="Trazado_999037" data-name="Trazado 999037" d="M155.65,136.1a16.45,16.45,0,1,1-16.45,16.45A16.451,16.451,0,0,1,155.65,136.1Z" transform="translate(-124.442 -136.1)" fill="#7c9885" fill-rule="evenodd"/>
        <path id="Trazado_999038" data-name="Trazado 999038" d="M43.661,369.3H38.9c-3.357,0-6.1,3.273-6.1,7.282v3.246H49.75v-3.246C49.75,372.573,47,369.3,43.661,369.3Z" transform="translate(-32.8 -336.954)" fill="#fbb13c" fill-rule="evenodd"/>
        <path id="Trazado_999039" data-name="Trazado 999039" d="M59.879,297.3a5.479,5.479,0,1,0,5.479,5.479A5.482,5.482,0,0,0,59.879,297.3Z" transform="translate(-51.404 -274.941)" fill="#fbd1a2" fill-rule="evenodd"/>
        <path id="Trazado_999040" data-name="Trazado 999040" d="M371.547,369.3H366.8c-3.357,0-6.1,3.273-6.1,7.282v3.246h16.95v-3.246C377.65,372.573,374.89,369.3,371.547,369.3Z" transform="translate(-315.219 -336.954)" fill="#fbb13c" fill-rule="evenodd"/>
        <path id="Trazado_999041" data-name="Trazado 999041" d="M387.679,297.3a5.479,5.479,0,1,0,5.479,5.479A5.482,5.482,0,0,0,387.679,297.3Z" transform="translate(-333.736 -274.941)" fill="#fbd1a2" fill-rule="evenodd"/>
        <path id="Trazado_999042" data-name="Trazado 999042" d="M205.5,247h-4.952c-3.5,0-6.353,3.412-6.353,7.587v3.384h17.643v-3.384C211.857,250.412,208.986,247,205.5,247Z" transform="translate(-171.813 -231.618)" fill="#fbb13c" fill-rule="evenodd"/>
        <path id="Trazado_999043" data-name="Trazado 999043" d="M222.4,172.1a5.7,5.7,0,1,0,5.7,5.7A5.7,5.7,0,0,0,222.4,172.1Z" transform="translate(-191.192 -167.107)" fill="#fbd1a2" fill-rule="evenodd"/>
      </g>
      <path id="Trazado_999044" data-name="Trazado 999044" d="M57.118,81.482a4.591,4.591,0,1,0,4.591,4.591A4.588,4.588,0,0,0,57.118,81.482Zm-4.813-.222a6.809,6.809,0,0,1,10.139,9.057,8.873,8.873,0,0,1,4.619,8.031v3.384a1.113,1.113,0,0,1-1.11,1.11H48.3a1.113,1.113,0,0,1-1.11-1.11V98.348a8.848,8.848,0,0,1,4.619-8.031A6.811,6.811,0,0,1,52.305,81.26Zm8.211,10.708a6.855,6.855,0,0,1-6.8,0,5.106,5.106,0,0,0-2.927,1.983,7.255,7.255,0,0,0-1.4,4.383v2.275H64.816V98.334c.028-2.83-1.609-5.756-4.3-6.367Zm19.336,6.88a4.369,4.369,0,1,0,4.369,4.369A4.369,4.369,0,0,0,79.852,98.848Zm-4.647-.291a6.585,6.585,0,0,1,9.834,8.725,8.562,8.562,0,0,1,4.411,7.726v3.246a1.113,1.113,0,0,1-1.11,1.11H71.391a1.113,1.113,0,0,1-1.11-1.11v-3.246a8.562,8.562,0,0,1,4.4-7.726A6.592,6.592,0,0,1,75.206,98.556Zm7.92,10.375a6.51,6.51,0,0,1-3.273.86,6.7,6.7,0,0,1-3.273-.86,4.922,4.922,0,0,0-2.76,1.886,6.987,6.987,0,0,0-1.332,4.189v2.136H87.217v-2.136c0-2.7-1.54-5.493-4.092-6.075ZM34.385,98.848a4.369,4.369,0,1,0,4.369,4.369A4.369,4.369,0,0,0,34.385,98.848Zm-4.647-.291a6.585,6.585,0,0,1,9.834,8.725,8.551,8.551,0,0,1,4.4,7.726v3.246a1.113,1.113,0,0,1-1.11,1.11H25.91a1.113,1.113,0,0,1-1.11-1.11v-3.246a8.547,8.547,0,0,1,4.411-7.726,6.592,6.592,0,0,1,.527-8.725Zm7.92,10.375a6.51,6.51,0,0,1-3.273.86,6.7,6.7,0,0,1-3.273-.86,4.876,4.876,0,0,0-2.76,1.886,6.987,6.987,0,0,0-1.332,4.189v2.136H41.75v-2.136c0-2.7-1.54-5.493-4.092-6.075Zm44.594-18.2a1.11,1.11,0,1,1,0,2.219H76.925a1.11,1.11,0,0,1,0-2.219Zm-44.927,0a1.11,1.11,0,1,1,0,2.219H32a1.11,1.11,0,0,1,0-2.219ZM56.009,66.71a1.11,1.11,0,1,1,2.219,0v5.326a1.11,1.11,0,1,1-2.219,0Zm0,44.927a1.11,1.11,0,0,1,2.219,0v5.326a1.11,1.11,0,0,1-2.219,0ZM70.7,106.255a1.109,1.109,0,1,1,1.526,1.609,22.057,22.057,0,0,1-10.486,5.507,1.113,1.113,0,0,1-.458-2.178A19.775,19.775,0,0,0,70.7,106.255Zm-17.713,4.938a1.113,1.113,0,0,1-.458,2.178,21.937,21.937,0,0,1-10.486-5.507A1.114,1.114,0,0,1,42,106.3a1.1,1.1,0,0,1,1.567-.042,19.587,19.587,0,0,0,9.418,4.938ZM37.769,87.7a1.113,1.113,0,0,1-2.178-.458A22.019,22.019,0,0,1,52.527,70.316a1.113,1.113,0,1,1,.458,2.178A19.768,19.768,0,0,0,37.769,87.7Zm23.5-15.216a1.113,1.113,0,1,1,.458-2.178A22.057,22.057,0,0,1,78.659,87.224a1.113,1.113,0,0,1-2.178.458,19.761,19.761,0,0,0-15.216-15.2Zm-4.147,1.789a17.567,17.567,0,1,1-17.56,17.56A17.564,17.564,0,0,1,57.118,74.269ZM67.979,81a15.345,15.345,0,1,0,0,21.694A15.354,15.354,0,0,0,67.979,81Z"/>
    </g>
  </g>
</svg>
