<svg xmlns="http://www.w3.org/2000/svg" xmlns:xlink="http://www.w3.org/1999/xlink" width="400" height="310" viewBox="0 0 400 310">
  <defs>
    <clipPath id="clip-path">
      <rect id="Rectángulo_412350" data-name="Rectángulo 412350" width="400" height="310" transform="translate(180 4092)" fill="#fff" stroke="#707070" stroke-width="1"/>
    </clipPath>
    <clipPath id="clip-path-2">
      <rect id="Rectángulo_412349" data-name="Rectángulo 412349" width="395.429" height="308.814" fill="none"/>
    </clipPath>
  </defs>
  <g id="Enmascarar_grupo_1159102" data-name="Enmascarar grupo 1159102" transform="translate(-180 -4092)" clip-path="url(#clip-path)">
    <g id="Grupo_1164272" data-name="Grupo 1164272" transform="translate(175.248 4033.824)">
      <g id="Grupo_1164271" data-name="Grupo 1164271" transform="translate(0 58.905)" clip-path="url(#clip-path-2)">
        <path id="Trazado_999045" data-name="Trazado 999045" d="M447.969,264.932a9.481,9.481,0,0,1-9.488,9.488h-86.23a9.495,9.495,0,0,1-9.5-9.488Z" transform="translate(-131.193 -137.763)" fill="#29275f"/>
        <path id="Trazado_999046" data-name="Trazado 999046" d="M446.323,176.285v52.8H349.771v-52.8a5.017,5.017,0,0,1,5.012-5.019H441.3a5.023,5.023,0,0,1,5.019,5.019" transform="translate(-133.878 -101.912)" fill="#29275f"/>
        <rect id="Rectángulo_412348" data-name="Rectángulo 412348" width="86.653" height="53.329" transform="translate(220.843 73.839)" fill="#fff"/>
        <path id="Trazado_999047" data-name="Trazado 999047" d="M412.974,173.814a1.422,1.422,0,1,1-1.422-1.422,1.421,1.421,0,0,1,1.422,1.422" transform="translate(-156.981 -102.343)" fill="#7351fa"/>
        <path id="Trazado_999048" data-name="Trazado 999048" d="M121.758,423.189h84.279l3.429,29,24.443,77.752H175.75L160.1,488.212l-15.816,41.726H86.291l13.692-66.359a79.975,79.975,0,0,1,21.774-40.39" transform="translate(-33.029 -198.337)" fill="#29275f"/>
        <path id="Trazado_999049" data-name="Trazado 999049" d="M206.619,288.256a6.566,6.566,0,0,1-1.062,3.847l-.881,1.346-5.011,7.654a4.35,4.35,0,0,1-1.754,1.558l-3.068-7.733L176.1,302.361l2.95-20.667a18.977,18.977,0,0,0,.2-2.737,19.308,19.308,0,0,0-3.65-11.273l1.9-.779a9.511,9.511,0,0,0,6.836,3.863,11.885,11.885,0,0,0,1.275.071c.2,0,.4-.008.582-.023a4.769,4.769,0,0,0,.677-.063,3.612,3.612,0,0,0,.5-.079.109.109,0,0,0,.071-.008,1.158,1.158,0,0,0,.228-.047c.015,0,.023,0,.031-.008a2.115,2.115,0,0,0,.212-.055,2.794,2.794,0,0,0,.37-.1,1.434,1.434,0,0,0,.173-.055,3.957,3.957,0,0,0,.512-.2,4.907,4.907,0,0,0,.464-.212,2.618,2.618,0,0,0,.251-.133,4.716,4.716,0,0,0,.575-.362,2.367,2.367,0,0,0,.283-.2c.149-.11.3-.236.44-.362a7.421,7.421,0,0,0,.842-.889c.063-.07.11-.133.165-.2v-.008c.063-.078.118-.157.173-.236a2.268,2.268,0,0,0,.165-.244c.118-.173.228-.354.33-.535a.151.151,0,0,0,.023-.039c.079-.141.157-.275.22-.417.079-.157.157-.307.22-.464a12,12,0,0,0,.622-1.723c.055-.181.094-.354.142-.519.047-.2.086-.4.125-.59a15.812,15.812,0,0,0,.252-1.786c0-.064.008-.119.008-.157.008-.087.008-.142.008-.165a14.936,14.936,0,0,0,1.738,2.155c-2.139,3.233-1.825,8.221-1.2,11.926,1.1,5.6,3.658,13.814,10.636,13.35h.015a.008.008,0,0,1,.008-.008c.008-.008.031.008.031,0l.441-.047c.094,0,.2-.031.291-.024l.008-.007.268-.024h.007a.075.075,0,0,1,.039-.007h.008c.015,0,.039-.008.055-.008" transform="translate(-67.212 -136.239)" fill="#7351fa"/>
        <path id="Trazado_999050" data-name="Trazado 999050" d="M173.623,255.01a29.532,29.532,0,0,0,19.888,3.658v.007c0,.024,0,.079-.008.165,0,.047-.007.094-.007.157a15.807,15.807,0,0,1-.252,1.786c-.04.189-.079.386-.126.59-.047.165-.086.338-.141.519a12.071,12.071,0,0,1-.622,1.723c-.063.157-.142.307-.22.464-.071.142-.142.283-.22.417a.215.215,0,0,1-.023.04c-.1.181-.212.362-.331.535a2.121,2.121,0,0,1-.165.244c-.056.079-.11.157-.173.236v.007c-.055.071-.11.142-.165.2a7.467,7.467,0,0,1-.842.889,4.884,4.884,0,0,1-.441.362,2.306,2.306,0,0,1-.283.2,4.744,4.744,0,0,1-.574.362,2.57,2.57,0,0,1-.252.134,5,5,0,0,1-.464.212,4.076,4.076,0,0,1-.511.2,1.483,1.483,0,0,1-.173.056,2.883,2.883,0,0,1-.37.1,2.071,2.071,0,0,1-.212.056c-.008.007-.015.007-.031.007a1.933,1.933,0,0,1-.228.048.114.114,0,0,1-.071.008,3.748,3.748,0,0,1-.5.078,4.7,4.7,0,0,1-.677.063c-.189.015-.386.023-.582.023a11.892,11.892,0,0,1-1.275-.071,9.511,9.511,0,0,1-6.837-3.863c-3.013-4-3.115-9.621-3.115-9.621" transform="translate(-66.456 -133.966)" fill="#fff"/>
        <path id="Trazado_999051" data-name="Trazado 999051" d="M263.713,305.623l-8.977,2.36a7.863,7.863,0,0,1-.087-3.879q3.292.047,7.112.22h.008c1.188.118,2.376.267,3.556.433l-.117.794a3.576,3.576,0,0,0-1.495.071" transform="translate(-97.394 -152.757)" fill="#7351fa"/>
        <path id="Trazado_999052" data-name="Trazado 999052" d="M421.522,283.066l-29.871,4.461L373.51,299.453,363,287.361l-1.778-2.038,1.7-4.713a9.878,9.878,0,0,1,9.291-6.521H395.97a6.829,6.829,0,0,1-1.18,3.626h22.138a5.223,5.223,0,0,1,4.594,5.35" transform="translate(-138.26 -141.269)" fill="#fff"/>
        <path id="Trazado_999053" data-name="Trazado 999053" d="M163.831,264.271l-1.9.779a19.307,19.307,0,0,0-12.965-7.883,19.064,19.064,0,0,0-9.07.889,23.83,23.83,0,0,1,7.34-2.21l13.39-1.778.086.583s.1,5.617,3.116,9.621" transform="translate(-53.547 -133.605)" fill="#7351fa"/>
        <path id="Trazado_999054" data-name="Trazado 999054" d="M224.084,359.445l6.156,20.1a7.7,7.7,0,0,1-1.8,1.888h-.008c-3.965,3.21-15.852,9.385-48.681,9.385-32.231,0-39.406-5.947-44.354-9.2v-.007a11.275,11.275,0,0,1-2.525-2.062l2.364-10.565a18.954,18.954,0,0,0,7.576-1.337l49.947-19.809-1.778-4.492-.991-2.486c1.612.433,16.245-1.495,16.245-1.495l1.518-.4,11.989-3.155a3.577,3.577,0,0,0,2.549-4.366l-.055-.2a3.578,3.578,0,0,0-4.366-2.549l1.817-.48a3.587,3.587,0,0,0,2.549-4.366l-.056-.2a3.589,3.589,0,0,0-4.366-2.549l1.424-.378a3.578,3.578,0,0,0,2.549-4.366l-.055-.2a3.579,3.579,0,0,0-4.366-2.549l1.684-.44a3.59,3.59,0,0,0,2.549-4.374l-.055-.2a3.58,3.58,0,0,0-2.871-2.62l.118-.794c3.367.48,6.727,1.149,10.054,1.92l.464,3.627a38.843,38.843,0,0,1-4.744,24.12l-3.225,5.68,2.722,18.763Z" transform="translate(-50.857 -153.162)" fill="#7351fa"/>
        <path id="Trazado_999055" data-name="Trazado 999055" d="M220.178,333.767,211.745,312.5a4.35,4.35,0,0,0,1.754-1.558l5.011-7.654.881-1.346a6.568,6.568,0,0,0,1.062-3.847,4.668,4.668,0,0,0-.031-.472.236.236,0,0,0-.008-.078,6,6,0,0,0-.165-.9l-2.258-8.583a1,1,0,0,1,.716-1.22,2.506,2.506,0,0,1,.33-.071,5.678,5.678,0,0,1,1.2-.126,5.976,5.976,0,0,1,5.6,3.918l2.549,6.978.118.322a6.779,6.779,0,0,1,.338,1.346l.621,4.437,8.929-2.344,8.977-2.36a3.571,3.571,0,0,1,4.366,2.549l.055.2a3.59,3.59,0,0,1-2.549,4.374l-1.683.441a3.577,3.577,0,0,1,4.366,2.549l.056.2a3.578,3.578,0,0,1-2.549,4.366L248,314a3.59,3.59,0,0,1,4.366,2.549l.055.2a3.588,3.588,0,0,1-2.549,4.366l-1.818.48a3.578,3.578,0,0,1,4.366,2.549l.055.2a3.577,3.577,0,0,1-2.549,4.366l-11.989,3.155-1.518.4s-14.632,1.928-16.245,1.495" transform="translate(-81.047 -146.074)" fill="#fff"/>
        <path id="Trazado_999056" data-name="Trazado 999056" d="M347.322,310.355l-53.763,37.211-.023.023a19.13,19.13,0,0,1-4.327,2.36c-.04.016-.086.031-.133.048a.393.393,0,0,1-.135.047c-.2.079-.393.149-.59.22a19.327,19.327,0,0,1-9.409.873l-.023-.173L276.2,332.2l3.226-5.68a38.847,38.847,0,0,0,4.743-24.121l-.464-3.626c2.36.543,4.721,1.149,7.065,1.786l1.03,2.659,2.667-1.636c3.021.849,6.034,1.723,9.039,2.565,3.123,4.806,7.072,8.441,11.737,7.072,8.945-2.62,9.157-19.447,8.7-27.762l4.735,5.452,1.778,2.038,10.51,12.092,2.5,2.887Z" transform="translate(-105.716 -144.854)" fill="#7351fa"/>
        <path id="Trazado_999057" data-name="Trazado 999057" d="M332.1,248.855c.456,8.315.244,25.143-8.7,27.762-4.665,1.369-8.614-2.266-11.737-7.072l.409.118a60.515,60.515,0,0,1-3.642-6.255,86.8,86.8,0,0,1-4.736-11.218c-.173-.488-.33-.984-.5-1.479a123.832,123.832,0,0,1-5.538-28.9,2.175,2.175,0,0,1-.008-.228c-.031-.511-.055-1.022-.079-1.526A72.832,72.832,0,0,1,298.585,204l-.023.024c1.322-6.326,4.24-11.7,10.51-10.9,14.224,4.146,21.437,37.73,22.641,51.072,0,0,.228,1.841.386,4.65m-5.169,4.712q.024-.7,0-1.534a123.806,123.806,0,0,0-1.723-15.506,113.744,113.744,0,0,0-6.538-23.373c-2.281-5.019-5.806-12.862-10.675-14.711-3.359-.141-4.524,8.489-4.806,11.218-1.251,13.138,1.644,28.974,5.735,41.113a102.409,102.409,0,0,0,4.067,9.834c2.384,4.885,5.5,9.629,9.055,10.715,4.413-1.03,4.877-13.618,4.885-17.756" transform="translate(-113.873 -110.251)" fill="#ecb85e"/>
        <path id="Trazado_999058" data-name="Trazado 999058" d="M246.452,281.34a.047.047,0,0,0,.031.008q-3.824-.177-7.112-.22c-3.336-.048-6.285-.016-8.906.078-.346.016-.684.024-1.015.039l-2.549-6.978a5.976,5.976,0,0,0-5.6-3.918,5.636,5.636,0,0,0-1.2.126,2.4,2.4,0,0,0-.33.07,1,1,0,0,0-.716,1.22l2.258,8.583a6.014,6.014,0,0,1,.165.9,6.209,6.209,0,0,1-1.809-1.739c-.086-.118-.173-.236-.252-.362-.063-.094-.118-.181-.181-.275-2.258-3.634-4.075-10.172-4.579-15.766-.055-.668-.1-1.33-.118-1.967-.008-.236-.008-.464-.008-.693,0-.322.008-.637.016-.944s.023-.59.047-.873c.008-.165.023-.33.04-.5.015-.181.04-.362.063-.543.008-.1.023-.2.04-.307q.035-.272.094-.543v-.015a1.125,1.125,0,0,1,.048-.22V256.5c0-.008,0-.008.008-.015v-.016c.007-.055.023-.1.031-.157.007-.04.023-.086.031-.126a.145.145,0,0,1,.015-.055c.016-.078.039-.149.055-.22.024-.1.056-.2.087-.291.039-.126.078-.252.125-.37.071-.2.15-.378.228-.551a.414.414,0,0,0,.04-.086.339.339,0,0,0,.04-.07v-.008c.007-.008.007-.008.007-.016l.008-.007a.029.029,0,0,0,.008-.024l.008-.007a.074.074,0,0,0,.023-.04.026.026,0,0,0,.007-.016l.008-.007c.008-.016.016-.031.023-.048a.523.523,0,0,0,.056-.086l.007-.008a3.339,3.339,0,0,1,.323-.448,2.372,2.372,0,0,1,.2-.2,2.283,2.283,0,0,1,.9-.543.062.062,0,0,1,.031-.016c2.376-.794,5.429-1.887,9.071-3.359,3.241-1.313,6.954-2.926,11.076-4.893.5-.244,1.015-.488,1.526-.732a.942.942,0,0,0-.11.079,1.616,1.616,0,0,0-.252.189,2.8,2.8,0,0,0-.307.3,3.18,3.18,0,0,0-.173.275c-.008.015-.016.023-.023.04a.028.028,0,0,0-.008.023c-.094.149-.181.3-.267.456v.008c-.1.189-.2.378-.283.574a10.943,10.943,0,0,0-.535,1.432,22.915,22.915,0,0,0-.786,7.411c.015.33.023.661.039,1a54.378,54.378,0,0,0,3.281,15.616c.079.236.173.472.26.7.322.857.645,1.644.967,2.344.189.409.394.818.6,1.227.1.2.2.4.315.6s.22.393.33.582c.094.157.2.322.291.48.015.031.039.055.055.086a12.506,12.506,0,0,0,1.4,1.92,1.353,1.353,0,0,0,.094.11l.007.007c.008.008.008.008.008.016.11.126.22.252.338.37a.008.008,0,0,0,.008.008v.008c.071.07.149.141.228.212a5.355,5.355,0,0,0,.449.385,4.094,4.094,0,0,0,.48.338.2.2,0,0,0,.056.031,2.823,2.823,0,0,0,.3.165h.008c.078.039.141.071.22.1h.007a1.635,1.635,0,0,0,.2.078c.039.008.078.023.118.032h.015a1.972,1.972,0,0,0,.291.063" transform="translate(-82.115 -129.78)" fill="#ecb85e"/>
        <path id="Trazado_999059" data-name="Trazado 999059" d="M265.547,304.279c-.039-.008-.079-.023-.118-.031a1.646,1.646,0,0,1-.2-.078c.1.039.213.078.323.11" transform="translate(-101.517 -152.782)" fill="#fff"/>
        <path id="Trazado_999060" data-name="Trazado 999060" d="M242.023,228.792c-.008,0-.008,0-.008.008-.007-.008-.015,0-.015.008-.071.039-.142.078-.212.125a.883.883,0,0,1,.11-.078c-.511.244-1.031.488-1.526.731a23.709,23.709,0,0,0-6.719-.055l-6.49.857c-.055-.078-.078-.118-.078-.118l-3.879-7.953-.653-.008c.2-.048.4-.11.6-.165a17.737,17.737,0,0,0,12.54-17.834c3.052,1.589,5.295,4.437,7.1,7.395a35.8,35.8,0,0,1,5.051,13.571c-1.455.968-2.926,1.9-4.429,2.792H243.4c-.338.181-.8.409-1.376.724" transform="translate(-85.183 -114.56)" fill="#29275f"/>
        <path id="Trazado_999061" data-name="Trazado 999061" d="M248.708,307.97l-8.929,2.344-.622-4.437a6.736,6.736,0,0,0-.338-1.346l-.118-.322c.33-.016.668-.024,1.015-.039,2.62-.094,5.57-.126,8.906-.079a7.856,7.856,0,0,0,.086,3.879" transform="translate(-91.365 -152.744)" fill="#fff"/>
        <path id="Trazado_999062" data-name="Trazado 999062" d="M251.255,247.223a13.851,13.851,0,0,0-.519,1.432c-.008-.008-.008-.008-.016,0a11.03,11.03,0,0,1,.535-1.432" transform="translate(-95.965 -130.985)" fill="#fff"/>
        <path id="Trazado_999063" data-name="Trazado 999063" d="M330.271,256.908c-.008,4.138-.472,16.725-4.885,17.756-3.556-1.086-6.671-5.829-9.055-10.715a102.405,102.405,0,0,1-4.067-9.834c-4.091-12.139-6.986-27.975-5.735-41.113.283-2.729,1.447-11.36,4.806-11.218,4.869,1.849,8.394,9.693,10.675,14.711a113.744,113.744,0,0,1,6.538,23.373,123.8,123.8,0,0,1,1.723,15.506q.024.838,0,1.534" transform="translate(-117.214 -113.592)" fill="#fff"/>
        <path id="Trazado_999064" data-name="Trazado 999064" d="M290.026,270.2a60.65,60.65,0,0,0,3.642,6.255l-.409-.119c-3-.841-6.018-1.715-9.039-2.565-1.227-.346-2.462-.692-3.7-1.023-2.345-.637-4.7-1.242-7.065-1.786-3.328-.771-6.687-1.439-10.054-1.92-1.18-.165-2.368-.314-3.556-.433h-.008a.05.05,0,0,1-.031-.007,1.966,1.966,0,0,1-.291-.063H259.5c-.11-.031-.22-.071-.323-.11h-.007c-.079-.031-.142-.063-.22-.1h-.008a2.826,2.826,0,0,1-.3-.165.211.211,0,0,1-.056-.031,4.088,4.088,0,0,1-.48-.338,5.148,5.148,0,0,1-.448-.386c-.079-.07-.157-.141-.228-.212v-.008a.007.007,0,0,1-.008-.007c-.118-.118-.228-.244-.338-.37,0-.008,0-.008-.008-.016l-.007-.008a1.238,1.238,0,0,1-.094-.11c-.071-.094-.149-.189-.228-.283a12.122,12.122,0,0,1-1.172-1.636c-.015-.031-.04-.055-.055-.086-.094-.157-.2-.323-.291-.48-.11-.189-.22-.386-.33-.583s-.212-.393-.315-.6c-.2-.409-.409-.818-.6-1.228-.323-.7-.646-1.486-.968-2.344-.086-.228-.181-.464-.26-.7a54.381,54.381,0,0,1-3.281-15.616c-.015-.338-.023-.668-.039-1a24.665,24.665,0,0,1,.8-7.411,13.855,13.855,0,0,1,.519-1.432c.086-.2.181-.385.283-.574V232.7c.086-.157.173-.307.267-.456a.029.029,0,0,1,.008-.024c.008-.015.015-.023.023-.039a3.185,3.185,0,0,1,.173-.275,2.762,2.762,0,0,1,.307-.3,1.619,1.619,0,0,1,.251-.189c.071-.047.142-.086.212-.125,0-.008.008-.016.016-.008,0-.008,0-.008.008-.008.574-.315,1.038-.543,1.376-.724h.008c1.5-.9,2.974-1.825,4.429-2.792,7.474-4.964,14.428-10.77,21.383-16.4a.007.007,0,0,1,.007-.008c.212-.181.433-.354.645-.527l.023-.023a72.831,72.831,0,0,0-1.015,16.048c.016.5.04,1.015.079,1.526a2.178,2.178,0,0,0,.008.228,123.787,123.787,0,0,0,5.538,28.9c.165.5.323.991.5,1.479a86.849,86.849,0,0,0,4.736,11.218" transform="translate(-95.471 -117.043)" fill="#fff"/>
        <path id="Trazado_999065" data-name="Trazado 999065" d="M250.234,249.538a24.666,24.666,0,0,0-.8,7.411,22.917,22.917,0,0,1,.786-7.411c.008-.008.008-.008.016,0" transform="translate(-95.464 -131.869)" fill="#fff"/>
        <path id="Trazado_999066" data-name="Trazado 999066" d="M236.511,245.039a23.71,23.71,0,0,1,6.719.055c-4.123,1.967-7.836,3.579-11.077,4.893a30.123,30.123,0,0,0-2.132-4.091Z" transform="translate(-88.042 -130.068)" fill="#7351fa"/>
        <path id="Trazado_999067" data-name="Trazado 999067" d="M196.113,155.488a30.162,30.162,0,0,1-2.832,12.807l-3.446-22.468c-17.213,1.534-33.238-6.986-33.238-6.986,4.665,17.992-7.1,24.088-7.1,24.088a9.441,9.441,0,1,0-4.87,16.363,9.584,9.584,0,0,0,1.794-.456c.087.071.181.142.276.22l.1.637,3.839,25.033-13.39,1.778a23.813,23.813,0,0,0-7.34,2.21,19.442,19.442,0,0,0-8.4,5.751l-.063-.055c-5.688-3.36-7.647-11.84-7.639-18.07,1.086-16.537,19.29-27.589,21.784-43.67,0-.015.008-.031.008-.047.047-.59.118-1.172.2-1.747a30.33,30.33,0,0,1,60.308,4.61" transform="translate(-43.561 -84.265)" fill="#29275f"/>
        <path id="Trazado_999068" data-name="Trazado 999068" d="M206.441,182.49v.008a17.737,17.737,0,0,1-12.54,17.834c-.2.056-.393.119-.6.165a17.609,17.609,0,0,1-1.833.386l-12.178,1.872,18.543,5.7-.071.142c-.488,1.015-3.9,7.182-14.774,8.85a29.534,29.534,0,0,1-19.888-3.658l-.086-.582-3.839-25.033-.1-.637-.047-.307c-.079.031-.149.055-.228.086a9.682,9.682,0,0,1-1.794.456,9.439,9.439,0,1,1-2.863-18.66,9.455,9.455,0,0,1,7.733,2.3s11.761-6.1,7.1-24.089c0,0,16.025,8.52,33.238,6.986l3.445,22.468.606,3.949a16.935,16.935,0,0,1,.181,1.762" transform="translate(-55.934 -92.748)" fill="#fff"/>
        <path id="Trazado_999069" data-name="Trazado 999069" d="M220.767,246.56a30.12,30.12,0,0,1,2.132,4.091c-3.642,1.471-6.695,2.565-9.07,3.359a.06.06,0,0,0-.031.015c-.858.236-1.715.551-2.573.787a6.828,6.828,0,0,0-3.642,2.785,14.994,14.994,0,0,1-1.739-2.156v-.007c10.872-1.668,14.287-7.836,14.774-8.851Z" transform="translate(-78.788 -130.731)" fill="#fff"/>
        <path id="Trazado_999070" data-name="Trazado 999070" d="M229.928,246.487l-.149.023c.047-.094.071-.141.071-.141s.023.039.078.118" transform="translate(-87.95 -130.658)" fill="#fff"/>
        <path id="Trazado_999071" data-name="Trazado 999071" d="M214.518,233.478l3.878,7.953-18.541-5.7,12.178-1.872a17.648,17.648,0,0,0,1.833-.386Z" transform="translate(-76.496 -125.721)" fill="#29275f"/>
        <path id="Trazado_999072" data-name="Trazado 999072" d="M218.241,287.378c-.015,0-.04.008-.055.008h-.008a.076.076,0,0,0-.04.007h-.007l-.268.024-.008.008c-.094-.008-.2.023-.291.023l-.441.047c0,.008-.023-.008-.031,0a.008.008,0,0,0-.008.008h-.015c-6.978.464-9.535-7.749-10.636-13.35-.629-3.705-.944-8.693,1.2-11.926a6.83,6.83,0,0,1,3.643-2.785c.857-.236,1.715-.551,2.572-.786a2.275,2.275,0,0,0-.9.543,2.461,2.461,0,0,0-.2.2,2.41,2.41,0,0,0-.173.22,2.271,2.271,0,0,0-.157.228v.008H212.4c-.016.032-.031.055-.048.086l-.023.047-.008.008a.026.026,0,0,1-.007.016.073.073,0,0,1-.023.039l-.008.008c-.008.008-.008.016-.016.023v.008c0,.008,0,.008-.007.016v.007h-.008a.285.285,0,0,0-.031.071c-.023.04-.048.086-.071.134a1.3,1.3,0,0,0-.094.22.512.512,0,0,0-.04.094.04.04,0,0,0-.015.031.041.041,0,0,0-.016.031v.016a.339.339,0,0,0-.031.079c-.031.07-.062.141-.086.212a10.831,10.831,0,0,0-.307,1.164c-.047.228-.086.456-.126.692-.007.071-.015.142-.023.213-.023.149-.04.3-.055.456-.023.2-.039.417-.055.622,0,.023-.008.039-.008.055,0,.063-.008.118-.008.173-.015.228-.023.464-.031.7q-.012.46,0,.944c0,.228,0,.456.008.693.015.637.063,1.3.118,1.967.464,5.6,2.242,12.139,4.579,15.766.063.094.118.181.181.275.078.126.165.244.252.362a6.2,6.2,0,0,0,1.817,1.817,4.668,4.668,0,0,1,.031.472" transform="translate(-78.835 -135.361)" fill="#fff"/>
        <path id="Trazado_999073" data-name="Trazado 999073" d="M224.668,303.218a.24.24,0,0,1,.008.079,6.2,6.2,0,0,1-1.817-1.818,6.2,6.2,0,0,0,1.809,1.739" transform="translate(-85.301 -151.752)" fill="#fff"/>
        <path id="Trazado_999074" data-name="Trazado 999074" d="M214.74,274.906c.5,5.593,2.321,12.131,4.579,15.766-2.337-3.627-4.115-10.164-4.579-15.766" transform="translate(-82.193 -141.581)" fill="#fff"/>
        <path id="Trazado_999075" data-name="Trazado 999075" d="M216.566,260.223a2.24,2.24,0,0,0-.149.228h-.008a2.412,2.412,0,0,1,.157-.228" transform="translate(-82.832 -135.961)" fill="#fff"/>
        <path id="Trazado_999076" data-name="Trazado 999076" d="M216.417,260.593l-.008.008v-.008Z" transform="translate(-82.832 -136.102)" fill="#fff"/>
        <path id="Trazado_999077" data-name="Trazado 999077" d="M216.375,260.6a.515.515,0,0,1-.055.086c.015-.031.031-.055.047-.086Z" transform="translate(-82.798 -136.107)" fill="#fff"/>
        <path id="Trazado_999078" data-name="Trazado 999078" d="M216.2,260.937a.028.028,0,0,1-.008.023h-.008c.008-.008.008-.015.016-.023" transform="translate(-82.745 -136.234)" fill="#fff"/>
        <path id="Trazado_999079" data-name="Trazado 999079" d="M216.188,260.975l-.008.008v-.008Z" transform="translate(-82.744 -136.249)" fill="#fff"/>
        <path id="Trazado_999080" data-name="Trazado 999080" d="M216.142,261.026a.328.328,0,0,1-.04.071.288.288,0,0,1,.031-.071Z" transform="translate(-82.715 -136.268)" fill="#fff"/>
        <path id="Trazado_999081" data-name="Trazado 999081" d="M215.5,261.141a.452.452,0,0,1-.04.086c-.078.173-.157.354-.228.551-.048.118-.087.244-.126.37-.031.094-.063.189-.086.291-.016.071-.04.141-.056.22a.153.153,0,0,0-.015.055c-.008.04-.023.086-.031.126a.655.655,0,0,0-.031.134v.039h-.008v.024a1.074,1.074,0,0,0-.047.22v.016q-.059.271-.094.543c-.016.1-.031.2-.04.307-.023.181-.047.362-.063.543-.015.165-.031.33-.04.5q-.035.425-.047.873a.012.012,0,0,1-.016,0c.008-.236.016-.472.031-.7,0-.055.008-.11.008-.173,0-.016.008-.031.008-.055.015-.2.031-.417.055-.622.016-.157.031-.307.055-.456.008-.071.016-.142.023-.213.04-.236.079-.464.126-.692a10.973,10.973,0,0,1,.307-1.164c.024-.071.056-.142.087-.213a.3.3,0,0,1,.031-.078v-.008c0-.008,0-.008.007-.008,0-.015,0-.023.008-.031a.039.039,0,0,1,.016-.031.509.509,0,0,1,.039-.094,1.385,1.385,0,0,1,.094-.22c.024-.048.048-.094.072-.134" transform="translate(-82.115 -136.312)" fill="#fff"/>
        <path id="Trazado_999082" data-name="Trazado 999082" d="M215.737,261.918c-.008.008-.008.016-.008.031h-.007a.041.041,0,0,1,.015-.031" transform="translate(-82.569 -136.61)" fill="#fff"/>
        <path id="Trazado_999083" data-name="Trazado 999083" d="M215.729,261.969c-.008,0-.008,0-.008.008v-.008Z" transform="translate(-82.569 -136.629)" fill="#fff"/>
        <path id="Trazado_999084" data-name="Trazado 999084" d="M215.14,263.894c-.008.055-.023.1-.031.157v-.023a.7.7,0,0,1,.031-.134" transform="translate(-82.335 -137.366)" fill="#fff"/>
        <path id="Trazado_999085" data-name="Trazado 999085" d="M215.1,264.174c-.008.008-.008.008-.008.015v-.015Z" transform="translate(-82.33 -137.473)" fill="#fff"/>
        <path id="Trazado_999086" data-name="Trazado 999086" d="M214.548,269.068c-.008.307-.015.622-.015.944q-.012-.483,0-.944a.01.01,0,0,0,.015,0" transform="translate(-82.112 -139.346)" fill="#fff"/>
        <path id="Trazado_999087" data-name="Trazado 999087" d="M205.826,261.217c0,.04-.008.094-.008.157,0-.063.008-.11.008-.157" transform="translate(-78.778 -136.341)" fill="#fff"/>
        <path id="Trazado_999088" data-name="Trazado 999088" d="M205.206,264.955c.047-.2.086-.4.126-.59-.04.189-.079.386-.126.59" transform="translate(-78.544 -137.546)" fill="#fff"/>
        <path id="Trazado_999089" data-name="Trazado 999089" d="M204.977,265.84c.055-.181.094-.354.141-.519-.047.165-.086.338-.141.519" transform="translate(-78.457 -137.912)" fill="#fff"/>
        <path id="Trazado_999090" data-name="Trazado 999090" d="M203.613,269.418c.078-.157.157-.307.22-.464-.063.157-.142.307-.22.464" transform="translate(-77.934 -139.303)" fill="#fff"/>
        <path id="Trazado_999091" data-name="Trazado 999091" d="M203.256,270.123c.079-.134.149-.275.22-.417-.063.141-.141.275-.22.417" transform="translate(-77.798 -139.591)" fill="#fff"/>
        <path id="Trazado_999092" data-name="Trazado 999092" d="M202.683,270.98c.118-.173.228-.354.33-.535-.1.181-.212.362-.33.535" transform="translate(-77.578 -139.874)" fill="#fff"/>
        <path id="Trazado_999093" data-name="Trazado 999093" d="M202.135,271.943c.063-.078.118-.157.173-.236-.055.078-.11.157-.173.236" transform="translate(-77.369 -140.357)" fill="#fff"/>
        <path id="Trazado_999094" data-name="Trazado 999094" d="M201.867,272.306c.055-.063.11-.134.165-.2-.056.07-.1.133-.165.2" transform="translate(-77.266 -140.508)" fill="#fff"/>
        <path id="Trazado_999095" data-name="Trazado 999095" d="M199.79,274.236a4.961,4.961,0,0,0,.44-.362c-.142.126-.291.252-.44.362" transform="translate(-76.471 -141.186)" fill="#fff"/>
        <path id="Trazado_999096" data-name="Trazado 999096" d="M199.331,274.664a2.36,2.36,0,0,0,.283-.2,2.36,2.36,0,0,1-.283.2" transform="translate(-76.295 -141.41)" fill="#fff"/>
        <path id="Trazado_999097" data-name="Trazado 999097" d="M197.992,275.511a2.568,2.568,0,0,0,.252-.134,2.568,2.568,0,0,1-.252.134" transform="translate(-75.783 -141.761)" fill="#fff"/>
        <path id="Trazado_999098" data-name="Trazado 999098" d="M197.24,275.806a5,5,0,0,0,.464-.212,5,5,0,0,1-.464.212" transform="translate(-75.495 -141.844)" fill="#fff"/>
        <path id="Trazado_999099" data-name="Trazado 999099" d="M196.132,276.312a1.432,1.432,0,0,0,.173-.055,1.432,1.432,0,0,1-.173.055" transform="translate(-75.071 -142.098)" fill="#fff"/>
        <path id="Trazado_999100" data-name="Trazado 999100" d="M195.188,276.567c.071-.016.141-.031.212-.055-.071.023-.141.039-.212.055" transform="translate(-74.71 -142.196)" fill="#fff"/>
        <path id="Trazado_999101" data-name="Trazado 999101" d="M194.768,276.661a1.943,1.943,0,0,0,.228-.048,1.166,1.166,0,0,1-.228.048" transform="translate(-74.549 -142.234)" fill="#fff"/>
        <path id="Trazado_999102" data-name="Trazado 999102" d="M193.85,276.781a3.637,3.637,0,0,0,.5-.079,3.637,3.637,0,0,1-.5.079" transform="translate(-74.198 -142.268)" fill="#fff"/>
        <path id="Trazado_999103" data-name="Trazado 999103" d="M191.811,276.955c.2,0,.393-.008.582-.023-.181.015-.378.023-.582.023" transform="translate(-73.417 -142.357)" fill="#fff"/>
        <path id="Trazado_999104" data-name="Trazado 999104" d="M166.879,211.982l.048.307c-.094-.078-.189-.149-.276-.22.079-.031.15-.055.228-.086" transform="translate(-63.787 -117.496)" fill="#fff"/>
        <path id="Trazado_999105" data-name="Trazado 999105" d="M136.21,126.716a8.559,8.559,0,1,1-8.559,8.559,8.558,8.558,0,0,1,8.559-8.559" transform="translate(-48.859 -84.86)" fill="#29275f"/>
        <path id="Trazado_999106" data-name="Trazado 999106" d="M137.029,406.705c.126.047.1.094-.023.134Z" transform="translate(-52.44 -192.028)" fill="#fff"/>
        <path id="Trazado_999107" data-name="Trazado 999107" d="M182.5,330.077l-49.947,19.809a19.344,19.344,0,0,1-11.147.912,18.189,18.189,0,0,1-2.51-.716,19.237,19.237,0,0,1-12.1-23.364.124.124,0,0,0,.007-.055c0-.008,0-.008.008-.016l6.475-45.424a23.662,23.662,0,0,1,.849-5.939,19.171,19.171,0,0,1,4.413-9.676,19.441,19.441,0,0,1,8.4-5.751,19.067,19.067,0,0,1,9.071-.889,19.421,19.421,0,0,1,16.615,19.156,18.976,18.976,0,0,1-.2,2.737l-2.95,20.667,18.739-7.434,3.068,7.733,8.433,21.272.991,2.486Z" transform="translate(-40.6 -135.406)" fill="#7351fa"/>
        <path id="Trazado_999108" data-name="Trazado 999108" d="M197.83,302.9a.613.613,0,0,1-.227-.043.63.63,0,0,1-.359-.355l-2.835-7.148-18.154,7.2a.631.631,0,0,1-.856-.675l2.95-20.666a18.437,18.437,0,0,0,.191-2.649.63.63,0,1,1,1.26,0,19.67,19.67,0,0,1-.2,2.828l-2.8,19.589,17.73-7.033a.631.631,0,0,1,.818.354l2.794,7.043a3.687,3.687,0,0,0,.912-.975l5.9-9.006a5.907,5.907,0,0,0,.949-2.8h-.036l-.342.04a.635.635,0,0,1-.138.015c-5.576.382-9.389-4.29-11.27-13.859-.891-5.242-.544-9.26,1.025-11.971-.181-.2-.347-.393-.5-.572q-.044.272-.1.572l-.025.117c-.032.158-.066.322-.1.49l-.062.23c-.028.107-.057.218-.091.331a12.605,12.605,0,0,1-.652,1.8c-.046.118-.116.259-.189.4l-.04.08c-.047.106-.116.231-.188.359l-.045.081-.027.044h0c-.112.2-.231.393-.359.58a2.447,2.447,0,0,1-.193.281c-.038.054-.08.114-.126.175a.635.635,0,0,1-.043.064c-.078.1-.128.164-.189.235a7.979,7.979,0,0,1-.894.94c-.158.141-.323.279-.487.4a2.747,2.747,0,0,1-.327.235,4.93,4.93,0,0,1-.6.38,2.974,2.974,0,0,1-.29.152,5.359,5.359,0,0,1-.491.224,4.47,4.47,0,0,1-.553.212,1.659,1.659,0,0,1-.176.056,3.506,3.506,0,0,1-.4.112c-.069.022-.137.038-.2.054h0l-.031.009a1.776,1.776,0,0,1-.327.065l-.031,0a4.423,4.423,0,0,1-.542.084,5.187,5.187,0,0,1-.714.065,11.083,11.083,0,0,1-1.946-.051,10.121,10.121,0,0,1-7.272-4.11.63.63,0,1,1,1.006-.759,8.9,8.9,0,0,0,6.4,3.616,9.462,9.462,0,0,0,1.736.046,4.387,4.387,0,0,0,.62-.056,3.578,3.578,0,0,0,.46-.071.644.644,0,0,1,.119-.017l.033,0a.6.6,0,0,0,.111-.023.413.413,0,0,1,.054-.014l.017,0c.066-.015.11-.025.155-.04a.6.6,0,0,1,.087-.023,1.983,1.983,0,0,0,.283-.08l.13-.038a4.2,4.2,0,0,0,.483-.185c.174-.071.311-.133.442-.2a2.348,2.348,0,0,0,.222-.117,4.263,4.263,0,0,0,.522-.328,2.282,2.282,0,0,0,.255-.181c.164-.123.3-.236.425-.349a6.774,6.774,0,0,0,.769-.812c.054-.062.086-.1.118-.143a.507.507,0,0,1,.046-.068c.05-.062.094-.125.138-.187a2.15,2.15,0,0,0,.152-.224c.128-.19.23-.356.322-.52.008-.014.016-.027.025-.04l.045-.082c.053-.1.106-.186.148-.282l.054-.109c.056-.111.111-.22.157-.334a11.444,11.444,0,0,0,.6-1.661c.033-.106.057-.2.08-.292l.061-.227c.029-.128.06-.281.091-.431l.023-.115a15.1,15.1,0,0,0,.241-1.712h0s0-.048,0-.089c.009-.127.009-.164.009-.179a.63.63,0,0,1,1.165-.334,14.536,14.536,0,0,0,1.66,2.054.631.631,0,0,1,.07.783c-1.588,2.4-1.968,6.366-1.1,11.473,1.728,8.791,5.058,13.1,9.909,12.832a.584.584,0,0,1,.128-.014l.4-.043.023.07a.629.629,0,0,1,.089-.049l0-.03c.044-.007.1-.014.159-.018a.43.43,0,0,1,.048-.006l.246-.022c.019,0,.038-.007.056-.008a.679.679,0,0,1,.13-.012.63.63,0,0,1,.63.6,7.152,7.152,0,0,1-1.163,4.216l-5.893,9a4.962,4.962,0,0,1-2,1.778.631.631,0,0,1-.277.064m8.083-15.216.065.2h.006l-.022-.156Z" transform="translate(-67.133 -135.849)" fill="#29275f"/>
        <path id="Trazado_999109" data-name="Trazado 999109" d="M184.459,268.806a12.842,12.842,0,0,1-1.343-.075,10.117,10.117,0,0,1-7.271-4.11c-3.1-4.121-3.239-9.752-3.243-9.989a.631.631,0,0,1,.985-.532,29.181,29.181,0,0,0,19.437,3.556.631.631,0,0,1,.726.623c0,.039,0,.113-.01.23,0,.018-.006.137-.008.156a16.2,16.2,0,0,1-.262,1.855l-.024.117c-.033.158-.067.322-.1.49l-.062.23c-.028.107-.057.218-.091.331a12.606,12.606,0,0,1-.652,1.8c-.046.119-.116.259-.189.4l-.04.08c-.081.16-.157.312-.241.454,0,.009-.012.019-.019.031h0c-.111.2-.231.393-.359.58a2.447,2.447,0,0,1-.193.281c-.038.054-.08.114-.126.175a.642.642,0,0,1-.043.064c-.064.082-.125.16-.186.23a7.914,7.914,0,0,1-.9.944,5.386,5.386,0,0,1-.5.409,1.8,1.8,0,0,1-.252.184,5.731,5.731,0,0,1-.667.421,2.99,2.99,0,0,1-.29.152,5.375,5.375,0,0,1-.491.224,4.412,4.412,0,0,1-.556.212,1.644,1.644,0,0,1-.173.056,3.65,3.65,0,0,1-.4.111c-.069.022-.137.038-.2.054h0a.479.479,0,0,1-.059.015,2.263,2.263,0,0,1-.3.059l-.031,0a4.426,4.426,0,0,1-.541.084,5.107,5.107,0,0,1-.714.065c-.176.015-.389.024-.6.024m-10.5-13.019a17.2,17.2,0,0,0,2.9,8.076,8.9,8.9,0,0,0,6.4,3.615,9.248,9.248,0,0,0,1.739.046,4.318,4.318,0,0,0,.618-.056,3.59,3.59,0,0,0,.46-.071.647.647,0,0,1,.118-.017l.033,0,.157-.036.008,0,.017,0c.066-.015.11-.025.155-.039a.6.6,0,0,1,.087-.023,2.015,2.015,0,0,0,.283-.08l.13-.038a4.087,4.087,0,0,0,.483-.185c.174-.071.311-.133.442-.2a2.27,2.27,0,0,0,.222-.117,4.265,4.265,0,0,0,.522-.328l.077-.051a1.272,1.272,0,0,0,.158-.113,5.354,5.354,0,0,0,.446-.367,6.769,6.769,0,0,0,.769-.812c.046-.054.083-.1.118-.144a.556.556,0,0,1,.046-.067c.049-.062.093-.125.137-.187a2.151,2.151,0,0,0,.152-.224c.128-.189.23-.356.323-.52a.422.422,0,0,1,.028-.045c.08-.141.139-.259.2-.377l.045-.091c.056-.111.112-.22.157-.334a11.436,11.436,0,0,0,.6-1.661c.033-.106.057-.2.08-.292l.061-.227c.029-.128.061-.281.091-.431l.023-.115c.1-.477.156-.9.2-1.254a30.643,30.643,0,0,1-18.477-3.225" transform="translate(-66.065 -133.576)" fill="#29275f"/>
        <path id="Trazado_999110" data-name="Trazado 999110" d="M254.346,308.223a.63.63,0,0,1-.6-.456,8.546,8.546,0,0,1-.1-4.176.63.63,0,0,1,.618-.506h.009c2.281.033,4.681.107,7.132.221,1.127.11,2.3.253,3.622.438a.63.63,0,0,1,.536.717l-.118.8a.629.629,0,0,1-.252.416.621.621,0,0,1-.473.113,2.931,2.931,0,0,0-1.231.057h0l-8.977,2.36a.656.656,0,0,1-.16.02m.441-3.87a7.314,7.314,0,0,0,.02,2.468l7.977-2.1c-.509-.06-1-.114-1.467-.16-2.223-.1-4.423-.172-6.53-.209m8.535.88h0Z" transform="translate(-97.003 -152.367)" fill="#29275f"/>
        <path id="Trazado_999111" data-name="Trazado 999111" d="M373.12,299.692a.63.63,0,0,1-.476-.217l-12.287-14.127a.63.63,0,0,1-.118-.628l1.7-4.713a10.545,10.545,0,0,1,9.883-6.938H395.58a.63.63,0,0,1,.63.619,7.387,7.387,0,0,1-.723,3.008h21.05a.618.618,0,0,1,.122.012,5.884,5.884,0,0,1,5.1,6.011.631.631,0,0,1-.535.579l-29.734,4.44-18.025,11.85a.629.629,0,0,1-.346.1M361.549,284.8l11.684,13.435,17.681-11.623a.627.627,0,0,1,.253-.1l29.322-4.379a4.575,4.575,0,0,0-4.015-4.178H394.4a.63.63,0,0,1-.518-.988,6.294,6.294,0,0,0,1.015-2.64H371.821a9.281,9.281,0,0,0-8.7,6.107Zm59.582-2.123h0Zm0,0h0Z" transform="translate(-137.87 -140.878)" fill="#29275f"/>
        <path id="Trazado_999112" data-name="Trazado 999112" d="M179.358,391.057c-30.808,0-39.029-5.511-43.942-8.8l-.758-.506a.557.557,0,0,1-.073-.057,11.607,11.607,0,0,1-2.6-2.15.625.625,0,0,1-.119-.527l2.364-10.565a.658.658,0,0,1,.634-.492,18.155,18.155,0,0,0,7.325-1.293l49.361-19.577-2.537-6.392a.628.628,0,0,1,.115-.651.635.635,0,0,1,.634-.191c1.083.289,10.39-.772,16-1.51l1.439-.386,11.99-3.155a2.949,2.949,0,0,0,2.1-3.6l-.054-.2a2.949,2.949,0,0,0-3.6-2.1h0a.63.63,0,0,1-.322-1.218h0l1.818-.48a2.958,2.958,0,0,0,2.1-3.6l-.054-.2a2.959,2.959,0,0,0-3.6-2.1.63.63,0,0,1-.324-1.217l.009,0,1.415-.376a2.949,2.949,0,0,0,2.1-3.6l-.054-.2a2.948,2.948,0,0,0-3.582-2.107l-.014,0h0a.63.63,0,0,1-.32-1.218l.022-.006,1.663-.436a2.952,2.952,0,0,0,2.1-3.6l-.052-.187a2.952,2.952,0,0,0-2.37-2.169.629.629,0,0,1-.518-.714l.118-.8a.62.62,0,0,1,.712-.531c3.112.443,6.418,1.075,10.107,1.929a.629.629,0,0,1,.483.534l.464,3.628a39.476,39.476,0,0,1-4.821,24.51l-3.119,5.492,2.708,18.676,6.141,20.052a.629.629,0,0,1-.051.489,8.168,8.168,0,0,1-1.954,2.071.567.567,0,0,1-.069.048c-4.443,3.563-16.7,9.48-49.02,9.48m-43.932-10.31.691.461c4.793,3.212,12.815,8.589,43.24,8.589,33.271,0,44.851-6.466,48.285-9.245a.706.706,0,0,1,.06-.044,8.955,8.955,0,0,0,1.455-1.458l-6.068-19.812a.68.68,0,0,1-.022-.1l-.023-.173-2.721-18.758a.627.627,0,0,1,.075-.4l3.225-5.68a38.207,38.207,0,0,0,4.667-23.728l-.409-3.192c-2.772-.635-5.326-1.139-7.743-1.531a4.179,4.179,0,0,1,1.622,2.353l.052.184a4.222,4.222,0,0,1-1.962,4.729c.051.027.1.055.152.085a4.166,4.166,0,0,1,1.946,2.562l.054.2a4.219,4.219,0,0,1-1.788,4.611q.2.1.391.226a4.159,4.159,0,0,1,1.792,2.461l.054.2a4.227,4.227,0,0,1-2.065,4.771c.041.022.081.044.121.068a4.164,4.164,0,0,1,1.946,2.562l.054.2a4.209,4.209,0,0,1-3,5.14L206,339.578c-2.218.3-11.918,1.55-15.456,1.571l2.4,6.061a.63.63,0,0,1-.354.818l-49.947,19.809a19.533,19.533,0,0,1-7.219,1.391h-.087l-2.18,9.744a13.276,13.276,0,0,0,2.184,1.715.581.581,0,0,1,.078.06" transform="translate(-50.466 -152.77)" fill="#29275f"/>
        <path id="Trazado_999113" data-name="Trazado 999113" d="M220.647,334.062a4.609,4.609,0,0,1-1.023-.077.629.629,0,0,1-.422-.377l-8.434-21.273a.63.63,0,0,1,.309-.8,3.706,3.706,0,0,0,1.5-1.331l5.9-9.006a5.9,5.9,0,0,0,.96-3.476,4.156,4.156,0,0,0-.028-.433,5.607,5.607,0,0,0-.156-.878l-2.258-8.584a1.623,1.623,0,0,1,1.173-1.99,2.9,2.9,0,0,1,.389-.084,6.191,6.191,0,0,1,1.289-.132,6.625,6.625,0,0,1,6.193,4.331l2.667,7.3a7.344,7.344,0,0,1,.369,1.464l.525,3.744,17.219-4.524a4.2,4.2,0,0,1,5.136,3l.052.184a4.222,4.222,0,0,1-1.962,4.729c.051.027.1.055.152.085a4.166,4.166,0,0,1,1.946,2.562l.054.2a4.217,4.217,0,0,1-1.789,4.61,4.5,4.5,0,0,1,.391.226A4.16,4.16,0,0,1,252.587,316l.054.2a4.226,4.226,0,0,1-2.065,4.771c.041.022.081.044.121.068a4.161,4.161,0,0,1,1.946,2.562l.054.2a4.208,4.208,0,0,1-3,5.14l-13.5,3.555c-2.238.3-12.087,1.572-15.546,1.572m-.409-1.256c1.917.13,10.444-.855,15.711-1.549l1.439-.386,11.99-3.155a2.949,2.949,0,0,0,2.1-3.6l-.054-.2a2.95,2.95,0,0,0-3.594-2.1h0a.63.63,0,1,1-.322-1.218h0l1.817-.48a2.958,2.958,0,0,0,2.1-3.6l-.054-.2a2.959,2.959,0,0,0-3.59-2.106l-.006,0A.63.63,0,0,1,247.45,313h0l1.423-.378a2.949,2.949,0,0,0,2.1-3.6l-.054-.2a2.949,2.949,0,0,0-3.581-2.108l-.018,0A.63.63,0,0,1,247,305.5l.021-.006,1.664-.436a2.953,2.953,0,0,0,2.1-3.6l-.052-.187a2.952,2.952,0,0,0-2.37-2.169,2.993,2.993,0,0,0-1.228.059l-17.907,4.7a.63.63,0,0,1-.783-.522l-.622-4.437a6.006,6.006,0,0,0-.3-1.212l-2.669-7.305a5.358,5.358,0,0,0-5.01-3.5,5.078,5.078,0,0,0-1.063.112,2.446,2.446,0,0,0-.286.06.376.376,0,0,0-.244.172.362.362,0,0,0-.039.281l2.257,8.584a6.552,6.552,0,0,1,.183.99h0a1.137,1.137,0,0,1,.013.146,3.878,3.878,0,0,1,.031.472,7.125,7.125,0,0,1-1.165,4.19l-5.893,9a4.929,4.929,0,0,1-1.494,1.491Z" transform="translate(-80.656 -145.683)" fill="#29275f"/>
        <path id="Trazado_999114" data-name="Trazado 999114" d="M281.51,351.6a20.031,20.031,0,0,1-3.053-.234.631.631,0,0,1-.528-.536l-.023-.173L275.184,331.9a.626.626,0,0,1,.075-.4l3.225-5.68a38.207,38.207,0,0,0,4.667-23.728l-.464-3.628a.628.628,0,0,1,.2-.546.617.617,0,0,1,.564-.147c2.18.5,4.5,1.088,7.088,1.791a.63.63,0,0,1,.422.38l.758,1.955,2.023-1.242a.624.624,0,0,1,.5-.069q2.142.6,4.277,1.214,2.383.68,4.761,1.351a.627.627,0,0,1,.359.263c3.638,5.6,7.35,7.888,11.031,6.811,8.649-2.533,8.651-19.813,8.249-27.124a.63.63,0,0,1,1.1-.448l23.38,26.9a.63.63,0,0,1-.117.931l-53.725,37.185-.049.041a19.841,19.841,0,0,1-4.469,2.438l-.115.042a.988.988,0,0,1-.2.07c-.165.065-.331.125-.5.185a20.1,20.1,0,0,1-6.727,1.159m-2.4-1.414a18.736,18.736,0,0,0,8.641-.909c.227-.082.4-.144.566-.212a.625.625,0,0,1,.094-.03.67.67,0,0,1,.078-.031l.1-.035a18.537,18.537,0,0,0,4.157-2.261.794.794,0,0,1,.067-.055L346,309.847l-21.732-25c.343,9.586-.626,24.067-9.235,26.588-4.233,1.241-8.374-1.159-12.312-7.134q-2.267-.637-4.539-1.288-2-.571-4.008-1.139l-2.433,1.493a.63.63,0,0,1-.917-.309l-.916-2.362c-2.107-.57-4.033-1.061-5.852-1.492l.349,2.729a39.475,39.475,0,0,1-4.821,24.509l-3.119,5.493Zm9.251-1.122h0" transform="translate(-105.326 -144.464)" fill="#29275f"/>
        <path id="Trazado_999115" data-name="Trazado 999115" d="M321.024,277.151c-3.528,0-6.979-2.563-10.284-7.651a.629.629,0,0,1-.054-.584,62.845,62.845,0,0,1-3.213-5.61,87.67,87.67,0,0,1-4.769-11.3c-.12-.339-.233-.684-.348-1.031l-.15-.456a124.872,124.872,0,0,1-5.57-29.063c-.008-.078-.009-.168-.009-.269-.028-.431-.05-.9-.072-1.365l-.006-.131a73.454,73.454,0,0,1,.993-16.022.6.6,0,0,1,.011-.162c2.159-10.323,7.284-11.891,11.207-11.392a.736.736,0,0,1,.1.02c15.72,4.583,22.214,41.883,23.092,51.621,0,0,.23,1.875.387,4.67h0c.518,9.454.019,25.716-9.152,28.4a7.65,7.65,0,0,1-2.159.317m-8.762-7.641c3.489,5.092,7.04,7.146,10.567,6.114,8.649-2.533,8.65-19.813,8.249-27.124-.154-2.751-.38-4.588-.381-4.606-1.28-14.179-8.627-46.521-22.145-50.531-4.873-.6-8.146,2.845-9.729,10.236a.586.586,0,0,1-.01.135,71.874,71.874,0,0,0-1,15.908l.006.124c.022.459.043.923.072,1.386,0,.1,0,.148.006.206a123.586,123.586,0,0,0,5.511,28.773l.15.454c.111.338.222.674.34,1.007a86.225,86.225,0,0,0,4.7,11.14,60.136,60.136,0,0,0,3.605,6.192.631.631,0,0,1,.061.586m9.391,2.054a.64.64,0,0,1-.183-.027c-3.157-.964-6.333-4.679-9.438-11.041a103.42,103.42,0,0,1-4.092-9.893c-4.744-14.076-6.9-29.542-5.771-41.389.464-4.473,1.786-11.955,5.46-11.789a.652.652,0,0,1,.2.041c5.065,1.923,8.611,9.727,10.958,14.89l.067.149a115.654,115.654,0,0,1,6.584,23.518,124.115,124.115,0,0,1,1.734,15.606q.024.849,0,1.559c-.011,5.154-.557,17.235-5.372,18.359a.622.622,0,0,1-.143.017m-14.171-72.881c-2.186.069-3.55,5.751-4.059,10.655-1.112,11.675,1.021,26.946,5.706,40.846a102.06,102.06,0,0,0,4.036,9.759c2.887,5.916,5.747,9.39,8.5,10.335,3.1-1,4.227-9.785,4.241-17.1a.191.191,0,0,1,0-.019q.022-.679,0-1.5a122.735,122.735,0,0,0-1.714-15.413,114.5,114.5,0,0,0-6.5-23.242l-.06-.129c-2.244-4.939-5.627-12.383-10.155-14.194" transform="translate(-113.482 -109.863)" fill="#29275f"/>
        <path id="Trazado_999116" data-name="Trazado 999116" d="M246.093,281.588h-.029c-2.437-.113-4.824-.187-7.091-.22-3.2-.044-6.184-.018-8.874.078l-1.008.039a.623.623,0,0,1-.621-.413l-2.549-6.978a5.359,5.359,0,0,0-5.01-3.5,5.078,5.078,0,0,0-1.064.112,2.19,2.19,0,0,0-.286.06.374.374,0,0,0-.244.172.365.365,0,0,0-.04.281l2.258,8.584a6.537,6.537,0,0,1,.183.99.63.63,0,0,1-.938.614,6.83,6.83,0,0,1-2-1.911c-.1-.132-.193-.264-.28-.4l-.169-.257c-2.234-3.595-4.155-10.192-4.682-16.059-.05-.609-.1-1.319-.121-2.007-.007-.239-.007-.473-.007-.709,0-.328.007-.648.016-.96s.024-.615.049-.909c.007-.154.023-.329.04-.5s.04-.376.065-.566c.006-.085.023-.2.042-.322.021-.167.052-.347.09-.53a1.7,1.7,0,0,1,.062-.306c.006-.036.014-.071.022-.106l.038-.167h0a.765.765,0,0,1,.033-.133q.013-.055.028-.107c.047-.2.083-.309.121-.422.041-.129.086-.27.139-.4.069-.193.154-.389.239-.577.017-.035.017-.036.017-.03a.593.593,0,0,1,.059-.125.54.54,0,0,1,.031-.067.627.627,0,0,1,.057-.1.494.494,0,0,1,.03-.049.938.938,0,0,1,.051-.082.581.581,0,0,1,.054-.086,2.576,2.576,0,0,1,.164-.243,2.757,2.757,0,0,1,.2-.252,3.389,3.389,0,0,1,.251-.259,2.915,2.915,0,0,1,1.094-.66l.06-.022v0c2.9-.969,5.937-2.095,9.035-3.346,3.6-1.461,7.32-3.1,11.041-4.877.378-.186.777-.375,1.176-.565l.351-.167a.63.63,0,0,1,.593,1.111c-.023.018-.088.065-.113.08a1.054,1.054,0,0,0-.152.116l-.077.07a1.156,1.156,0,0,0-.152.148c-.036.05-.079.125-.122.2a.716.716,0,0,1-.046.086c-.078.122-.149.244-.22.373q-.012.028-.026.054c-.094.175-.181.348-.26.529a10.54,10.54,0,0,0-.508,1.357,22.186,22.186,0,0,0-.761,7.209l.04.992a53.5,53.5,0,0,0,3.241,15.424c.065.194.132.367.2.537l.062.161c.326.865.646,1.641.951,2.3.181.393.378.786.575,1.178.113.227.211.414.316.6.125.222.224.4.325.571l.287.474a1.154,1.154,0,0,1,.076.122A11.761,11.761,0,0,0,243.7,278.6l.073.088a.528.528,0,0,1,.055.066c.1.111.193.22.3.325l.014.015c.015.015.029.032.043.048.049.047.1.094.154.141a4.732,4.732,0,0,0,.406.351,3.511,3.511,0,0,0,.434.307l.009.007c.017.008.032.017.044.024.065.041.127.077.191.11a.632.632,0,0,1,.067.028c.053.026.093.047.136.065a.622.622,0,0,1,.091.036,1.077,1.077,0,0,0,.123.045.283.283,0,0,1,.124.028,1.253,1.253,0,0,0,.2.042c.026,0,.052.01.077.016a.63.63,0,0,1-.141,1.244m-10.079-1.5q1.455,0,2.976.021c1.458.022,2.964.059,4.5.114l-.01-.01c-.076-.067-.164-.146-.243-.227a.624.624,0,0,1-.057-.064c-.109-.114-.214-.231-.318-.351-.012-.013-.023-.028-.033-.042-.031-.035-.059-.069-.088-.1a13.029,13.029,0,0,1-1.455-2,1.105,1.105,0,0,1-.075-.121l-.27-.444c-.107-.184-.211-.368-.315-.554-.14-.251-.248-.456-.354-.67-.217-.434-.42-.838-.607-1.244-.318-.691-.649-1.494-.985-2.386l-.059-.154c-.072-.187-.145-.378-.209-.569A54.769,54.769,0,0,1,235.1,255.5l-.04-1a23.427,23.427,0,0,1,.814-7.627,11.617,11.617,0,0,1,.565-1.507l.016-.037c-3.5,1.656-6.993,3.189-10.386,4.565-3.107,1.254-6.156,2.384-9.065,3.359a.622.622,0,0,1-.091.035,1.647,1.647,0,0,0-.655.4,1.725,1.725,0,0,0-.151.156,2.474,2.474,0,0,0-.26.362c-.007.012-.014.024-.022.035s-.03.048-.048.073a.721.721,0,0,1-.057.1.777.777,0,0,1-.053.1c-.012.027-.023.051-.031.067-.064.14-.136.306-.2.486-.049.123-.083.234-.117.344-.03.088-.055.164-.075.246l-.051.2a.584.584,0,0,1-.022.08l-.019.08c-.007.033-.016.077-.027.12a.468.468,0,0,1-.052.223c0,.013,0,.027-.006.041-.046.244-.075.407-.1.57-.015.1-.03.188-.036.274-.027.206-.049.378-.064.551s-.03.315-.038.471c-.023.293-.038.572-.047.859s-.015.61-.015.927c0,.221,0,.443.007.672.017.661.068,1.349.117,1.936.512,5.688,2.356,12.057,4.485,15.485l.169.257c.081.13.159.235.235.338s.168.222.251.326l-1.981-7.533a1.623,1.623,0,0,1,1.173-1.99,2.978,2.978,0,0,1,.389-.083,6.15,6.15,0,0,1,1.289-.132,6.625,6.625,0,0,1,6.193,4.33l2.392,6.548.552-.022c1.86-.067,3.858-.1,5.966-.1m7.672-.545h0ZM214.5,254.066h0Z" transform="translate(-81.725 -129.39)" fill="#29275f"/>
        <path id="Trazado_999117" data-name="Trazado 999117" d="M265.156,304.518a.625.625,0,0,1-.117-.01l-.056-.014h0c-.028-.007-.058-.014-.069-.018a2.409,2.409,0,0,1-.361-.133.63.63,0,0,1,.507-1.152c.084.033.176.066.267.091a.63.63,0,0,1-.172,1.236" transform="translate(-101.126 -152.391)" fill="#29275f"/>
        <path id="Trazado_999118" data-name="Trazado 999118" d="M226.772,230.628a.631.631,0,0,1-.517-.27c-.071-.1-.1-.153-.1-.153l-3.735-7.654-.264,0a.63.63,0,0,1-.134-1.244c.128-.03.254-.067.378-.1l.191-.055a17.211,17.211,0,0,0,12.08-17.2.63.63,0,0,1,.92-.591c2.7,1.4,5.03,3.827,7.343,7.626A36.484,36.484,0,0,1,248.07,224.8a.629.629,0,0,1-.275.61c-1.461.972-2.96,1.917-4.456,2.81a.61.61,0,0,1-.093.045l-.377.2c-.255.131-.554.285-.893.47-.02.013-.041.025-.062.037h0c-.055.031-.111.061-.167.1a.635.635,0,0,1-.243.1l-.077.036c-.393.187-.787.374-1.167.561a.657.657,0,0,1-.372.058,23.006,23.006,0,0,0-6.54-.054l-6.492.858a.62.62,0,0,1-.083.006m-3.153-8.49,3.5,7.179,6.061-.8a24.283,24.283,0,0,1,6.7.028c.33-.16.668-.322,1.006-.481l.351-.167.031-.014a.662.662,0,0,1,.107-.057h0c.347-.189.654-.347.917-.483l.419-.219.037-.018c1.347-.805,2.7-1.654,4.016-2.524a35.467,35.467,0,0,0-4.908-12.938,19.762,19.762,0,0,0-5.9-6.615,18.249,18.249,0,0,1-12.335,17.111" transform="translate(-84.793 -114.169)" fill="#29275f"/>
        <path id="Trazado_999119" data-name="Trazado 999119" d="M239.388,310.555a.631.631,0,0,1-.623-.543l-.622-4.437a6.006,6.006,0,0,0-.3-1.212l-.12-.328a.629.629,0,0,1,.562-.844l1.016-.04c2.716-.1,5.722-.124,8.943-.08a.63.63,0,0,1,.609.754,7.219,7.219,0,0,0,.074,3.581.63.63,0,0,1-.445.783l-8.93,2.344a.612.612,0,0,1-.16.021m-.207-6.138a8.163,8.163,0,0,1,.209.975l.524,3.744,7.645-2.007a8.358,8.358,0,0,1-.07-2.805c-2.923-.031-5.658,0-8.141.088Z" transform="translate(-90.974 -152.354)" fill="#29275f"/>
        <path id="Trazado_999120" data-name="Trazado 999120" d="M250.344,248.893h-.016A.622.622,0,0,1,250,248.8a.629.629,0,0,1-.275-.716,11.612,11.612,0,0,1,.566-1.513.63.63,0,0,1,1.153.506,13.272,13.272,0,0,0-.5,1.367.629.629,0,0,1-.6.451" transform="translate(-95.574 -130.594)" fill="#29275f"/>
        <path id="Trazado_999121" data-name="Trazado 999121" d="M325,274.9a.64.64,0,0,1-.183-.027c-3.157-.964-6.333-4.679-9.438-11.041a103.06,103.06,0,0,1-4.092-9.894c-4.744-14.075-6.9-29.541-5.771-41.389.464-4.473,1.786-11.955,5.46-11.789a.651.651,0,0,1,.2.041c5.065,1.923,8.611,9.727,10.958,14.89l.067.149a115.653,115.653,0,0,1,6.584,23.518,124.115,124.115,0,0,1,1.734,15.606q.024.849,0,1.559c-.011,5.154-.557,17.235-5.372,18.359a.622.622,0,0,1-.143.017m-14.171-72.881c-2.186.069-3.55,5.751-4.059,10.655-1.112,11.675,1.021,26.946,5.706,40.846a101.979,101.979,0,0,0,4.036,9.759c2.887,5.916,5.747,9.39,8.5,10.335,3.1-1,4.227-9.785,4.241-17.1a.191.191,0,0,1,0-.019q.022-.679,0-1.5a122.741,122.741,0,0,0-1.714-15.413,114.5,114.5,0,0,0-6.5-23.242l-.06-.129c-2.244-4.939-5.627-12.383-10.155-14.194" transform="translate(-116.824 -113.201)" fill="#29275f"/>
        <path id="Trazado_999122" data-name="Trazado 999122" d="M293.277,276.686a.656.656,0,0,1-.178-.025l-.409-.118q-2.368-.664-4.758-1.35-2.134-.608-4.273-1.214c-1.225-.345-2.458-.691-3.69-1.02-2.576-.7-4.879-1.283-7.042-1.781-3.655-.847-6.926-1.471-10-1.91-1.3-.182-2.459-.322-3.529-.429a.634.634,0,0,1-.086-.014,2.532,2.532,0,0,1-.31-.065.567.567,0,0,1-.06-.013c-.111-.032-.223-.07-.329-.11a.626.626,0,0,1-.062-.02c-.078-.031-.144-.062-.217-.1l-.04-.016a3.55,3.55,0,0,1-.367-.2.478.478,0,0,1-.1-.06,4.414,4.414,0,0,1-.51-.365,5.445,5.445,0,0,1-.475-.409c-.076-.068-.164-.147-.243-.227a.582.582,0,0,1-.054-.062c-.11-.113-.215-.233-.32-.352-.012-.013-.023-.028-.033-.042-.031-.035-.059-.069-.088-.1-.082-.108-.154-.194-.225-.28a12.743,12.743,0,0,1-1.23-1.718,1.064,1.064,0,0,1-.075-.12l-.27-.444c-.107-.184-.211-.368-.315-.554-.14-.251-.248-.456-.354-.67-.217-.434-.42-.838-.607-1.244-.318-.691-.649-1.494-.985-2.386l-.059-.153c-.072-.187-.145-.378-.209-.57a54.77,54.77,0,0,1-3.312-15.784l-.04-1a25.132,25.132,0,0,1,.828-7.62,14.116,14.116,0,0,1,.543-1.5c.089-.2.181-.391.281-.577a.686.686,0,0,1,.03-.064c.084-.153.169-.3.259-.444l.007-.014h0c.011-.022.035-.063.048-.083.065-.111.13-.219.2-.32a2.52,2.52,0,0,1,.321-.33l.069-.061a2.259,2.259,0,0,1,.362-.27c.039-.028.1-.061.158-.1a.621.621,0,0,1,.136-.078h0c.348-.189.654-.347.917-.483L253,229.6l.037-.018c1.454-.869,2.916-1.792,4.348-2.744,6.55-4.35,12.788-9.422,18.821-14.327l2.5-2.026.014-.012h0c.151-.128.307-.253.46-.377l.2-.158a.609.609,0,0,1,.728-.1.635.635,0,0,1,.312.684,71.9,71.9,0,0,0-1,15.908c.015.5.039,1,.077,1.5,0,.106,0,.157.007.215A123.618,123.618,0,0,0,285,256.912l.15.454c.111.338.222.674.339,1.007a86.4,86.4,0,0,0,4.7,11.14v0a60.225,60.225,0,0,0,3.6,6.189.631.631,0,0,1-.523.981m-33.7-9.091c1.115.109,2.249.248,3.523.426,3.113.444,6.419,1.075,10.109,1.93,2.179.5,4.5,1.088,7.087,1.791,1.236.331,2.473.678,3.7,1.025q2.142.6,4.277,1.214,1.783.509,3.562,1.013c-.955-1.525-1.881-3.169-2.765-4.905a87.717,87.717,0,0,1-4.77-11.3c-.12-.339-.234-.684-.348-1.031l-.15-.456a124.872,124.872,0,0,1-5.569-29.063,2.541,2.541,0,0,1-.009-.268c-.038-.472-.062-.993-.078-1.506a75.88,75.88,0,0,1,.736-14.51L277,213.486c-6.056,4.924-12.32,10.015-18.918,14.4-1.466.975-2.965,1.92-4.455,2.809a.622.622,0,0,1-.093.046l-.377.2c-.256.131-.555.286-.893.47a.631.631,0,0,1-.062.036l0,0c-.055.03-.11.06-.165.1a1.07,1.07,0,0,0-.183.136l-.077.069a1.157,1.157,0,0,0-.152.148c-.035.048-.077.122-.12.2l0,0a.715.715,0,0,1-.046.086c-.078.122-.149.244-.22.373-.008.019-.017.037-.026.054-.094.173-.181.348-.26.528a12.985,12.985,0,0,0-.491,1.357,23.841,23.841,0,0,0-.777,7.217l.039.984a53.5,53.5,0,0,0,3.241,15.424c.065.194.132.367.2.537l.062.161c.326.865.646,1.641.951,2.3.181.393.378.786.575,1.178.113.228.211.414.316.6.125.222.224.4.325.571l.287.474a1.154,1.154,0,0,1,.076.122,11.508,11.508,0,0,0,1.092,1.518c.089.106.173.208.251.31a.767.767,0,0,1,.1.116c.1.11.192.219.294.322l0,0a.645.645,0,0,1,.055.061c.049.046.1.093.152.139a4.733,4.733,0,0,0,.406.351,3.517,3.517,0,0,0,.434.307l.009.007c.017.008.032.017.044.024.065.041.127.077.191.11a.632.632,0,0,1,.067.028c.052.027.091.046.132.064l.041.014c.072.028.147.056.225.08a.516.516,0,0,1,.074.017,1.413,1.413,0,0,0,.2.042.6.6,0,0,1,.065.013" transform="translate(-95.081 -116.644)" fill="#29275f"/>
        <path id="Trazado_999123" data-name="Trazado 999123" d="M249.041,257.192a.63.63,0,0,1-.629-.609,23.381,23.381,0,0,1,.814-7.618.634.634,0,0,1,.168-.271.65.65,0,0,1,.9.011.629.629,0,0,1,.158.625,23.869,23.869,0,0,0-.776,7.217.63.63,0,0,1-.612.644h-.019" transform="translate(-95.073 -131.482)" fill="#29275f"/>
        <path id="Trazado_999124" data-name="Trazado 999124" d="M231.763,250.227a.63.63,0,0,1-.581-.385,29.281,29.281,0,0,0-2.085-4,.63.63,0,0,1,.451-.959l6.49-.857a24.389,24.389,0,0,1,6.9.057.63.63,0,0,1,.177,1.192c-3.743,1.786-7.482,3.437-11.111,4.908a.638.638,0,0,1-.236.046m-1.1-4.222a31.03,31.03,0,0,1,1.428,2.777c2.763-1.131,5.587-2.365,8.425-3.682a23.1,23.1,0,0,0-4.315.173h0Zm5.455-1.356h0Z" transform="translate(-87.652 -129.678)" fill="#29275f"/>
        <path id="Trazado_999125" data-name="Trazado 999125" d="M121.121,214.706a.629.629,0,0,1-.415-.156c-5.848-3.46-7.924-12.184-7.916-18.6.58-8.847,5.943-16.174,11.131-23.26,4.666-6.373,9.491-12.963,10.66-20.505,0-.016,0-.032.007-.046.048-.591.114-1.148.2-1.746a31.083,31.083,0,0,1,5.8-13.821,30.962,30.962,0,0,1,52.872,31.6.63.63,0,0,1-1.193-.172l-3.357-21.887c-14.268,1.077-27.738-4.608-31.778-6.507,3.841,17.265-7.614,23.431-7.732,23.493a.633.633,0,0,1-.711-.091,8.8,8.8,0,0,0-5.269-2.224,8.62,8.62,0,0,0-1.946.081,8.728,8.728,0,0,0-4.935,2.517,8.81,8.81,0,0,0,7.606,14.9,9.08,9.08,0,0,0,1.677-.427.633.633,0,0,1,.611.106l.278.223a.633.633,0,0,1,.22.385l.1.638,3.839,25.037a.63.63,0,0,1-.539.72l-13.389,1.778a23.178,23.178,0,0,0-7.146,2.152,18.915,18.915,0,0,0-8.2,5.593.634.634,0,0,1-.434.219l-.046,0m14.706-62.338v.01c-1.217,7.846-6.134,14.562-10.889,21.057-5.081,6.941-10.334,14.117-10.889,22.558-.006,5.9,1.821,13.905,6.961,17.257a20.052,20.052,0,0,1,8.308-5.519,24.219,24.219,0,0,1,7.464-2.24l12.752-1.693-3.773-24.6a10.07,10.07,0,0,1-10.116-16.7,10.081,10.081,0,0,1,13.54-.727c1.933-1.193,10.483-7.47,6.414-23.162a.63.63,0,0,1,.905-.715c.158.084,16.071,8.412,32.887,6.915a.631.631,0,0,1,.678.531l3.109,20.273A29.7,29.7,0,0,0,141.6,137.326a29.819,29.819,0,0,0-5.561,13.257c-.091.6-.156,1.155-.2,1.7a.7.7,0,0,1-.012.084" transform="translate(-43.171 -83.875)" fill="#29275f"/>
        <path id="Trazado_999126" data-name="Trazado 999126" d="M177.723,218.066a28.919,28.919,0,0,1-15.365-4.144.632.632,0,0,1-.268-.428l-.086-.582-3.871-25.229a10.2,10.2,0,0,1-1.422.325,10.07,10.07,0,0,1-8.693-17.027,10.08,10.08,0,0,1,13.54-.728c1.933-1.192,10.483-7.47,6.414-23.162a.63.63,0,0,1,.906-.714c.159.084,16.071,8.412,32.887,6.914a.632.632,0,0,1,.678.532l4.052,26.417a17.6,17.6,0,0,1,.188,1.824c0,.011,0,.023,0,.034v.008a18.245,18.245,0,0,1-12.987,18.438l-.189.054c-.148.043-.3.086-.449.122a17.869,17.869,0,0,1-1.88.394l-9.463,1.455,15.917,4.9a.63.63,0,0,1,.379.882l-.071.143c-.591,1.229-4.123,7.486-15.243,9.191a32.671,32.671,0,0,1-4.973.384m-14.429-5.042a29.5,29.5,0,0,0,19.211,3.413c9.359-1.436,13.023-6.314,14.025-7.992l-17.812-5.479a.63.63,0,0,1,.089-1.225l12.178-1.873a16.771,16.771,0,0,0,1.768-.372c.148-.035.273-.072.4-.108l.191-.055a17.211,17.211,0,0,0,12.08-17.2l.63-.041-.63.034a16.153,16.153,0,0,0-.174-1.7l-3.963-25.84c-14.267,1.078-27.738-4.607-31.778-6.507,3.841,17.265-7.613,23.431-7.732,23.493a.631.631,0,0,1-.711-.091,8.793,8.793,0,0,0-5.269-2.223,8.586,8.586,0,0,0-1.946.08,8.729,8.729,0,0,0-4.935,2.517,8.811,8.811,0,0,0,7.606,14.9,9.119,9.119,0,0,0,1.677-.428l.2-.077a.63.63,0,0,1,.858.489Z" transform="translate(-55.545 -92.357)" fill="#29275f"/>
        <path id="Trazado_999127" data-name="Trazado 999127" d="M207.191,257.836a.631.631,0,0,1-.456-.2,15.476,15.476,0,0,1-1.817-2.257.628.628,0,0,1-.1-.333.638.638,0,0,1,.535-.631c10.718-1.644,13.967-7.8,14.3-8.5a.628.628,0,0,1,.468-.349l.149-.023a.627.627,0,0,1,.633.288,30.627,30.627,0,0,1,2.178,4.18.628.628,0,0,1-.344.829c-3.106,1.255-6.155,2.385-9.065,3.359a.639.639,0,0,1-.106.04c-.42.116-.841.251-1.261.386-.437.141-.875.281-1.312.4a6.208,6.208,0,0,0-3.281,2.521.632.632,0,0,1-.47.283c-.019,0-.038,0-.057,0m-.644-2.34c.163.21.36.452.59.716a7.289,7.289,0,0,1,1.071-1.071q-.8.194-1.661.355m13.779-8.188a16.106,16.106,0,0,1-5.422,5.145c2.2-.766,4.465-1.615,6.766-2.536-.466-1.03-.953-1.933-1.344-2.609" transform="translate(-78.397 -130.341)" fill="#29275f"/>
        <path id="Trazado_999128" data-name="Trazado 999128" d="M229.388,246.749a.63.63,0,0,1-.564-.911l.07-.141a.631.631,0,0,1,.538-.35.637.637,0,0,1,.565.3l.056.083a.63.63,0,0,1-.417.983l-.149.023a.607.607,0,0,1-.1.008" transform="translate(-87.559 -130.267)" fill="#29275f"/>
        <path id="Trazado_999129" data-name="Trazado 999129" d="M218,241.671a.639.639,0,0,1-.186-.028l-18.542-5.7a.63.63,0,0,1,.09-1.225l12.178-1.872a16.784,16.784,0,0,0,1.768-.372.566.566,0,0,1,.168-.02l.652.007a.63.63,0,0,1,.559.354l3.878,7.953a.63.63,0,0,1-.566.906m-15.732-6.128,14.53,4.469-3.072-6.3-.18,0a17.779,17.779,0,0,1-1.815.378Z" transform="translate(-76.105 -125.33)" fill="#29275f"/>
        <path id="Trazado_999130" data-name="Trazado 999130" d="M216.08,287.764c-5.255,0-8.846-4.665-10.657-13.879-.938-5.522-.5-9.688,1.289-12.4a7.461,7.461,0,0,1,3.966-3.034c.455-.127.875-.261,1.3-.4.437-.141.875-.281,1.312-.4a.63.63,0,0,1,.349,1.21,1.647,1.647,0,0,0-.655.4,1.7,1.7,0,0,0-.15.156,2,2,0,0,0-.137.172c-.049.065-.085.116-.117.165a.55.55,0,0,1-.045.073l0,.007c-.007.014-.015.029-.025.046a.568.568,0,0,1-.049.086c0,.009-.009.016-.014.024a2.4,2.4,0,0,0-.065.124l-.048.092a.824.824,0,0,0-.062.141.582.582,0,0,1-.034.081.47.47,0,0,1-.055.136c0,.007-.007.015-.01.023-.009.023-.019.052-.025.067-.023.052-.047.1-.065.157a10.3,10.3,0,0,0-.286,1.091c-.046.22-.083.44-.122.668l-.019.178c-.026.168-.04.306-.055.451-.022.2-.038.4-.052.592,0,.015,0,.041-.007.069s0,.059,0,.088c-.019.3-.027.53-.034.757-.007.293-.007.6,0,.909,0,.236,0,.458.007.687.017.661.068,1.349.117,1.936.477,5.758,2.319,12.121,4.48,15.476l.175.265c.081.131.158.235.235.338a5.623,5.623,0,0,0,1.628,1.647.632.632,0,0,1,.31.48c.018.179.035.358.035.536a.63.63,0,0,1-.557.626l-.037,0a.614.614,0,0,1-.138.015l-.145.014a.638.638,0,0,1-.193.015,1.218,1.218,0,0,1-.236.026l-.342.04a.635.635,0,0,1-.138.015q-.31.021-.613.021m1.2-.777.019.059Zm-6.065-27.376-.172.048a6.208,6.208,0,0,0-3.281,2.521c-1.59,2.4-1.97,6.369-1.1,11.477,1.729,8.791,5.058,13.1,9.909,12.831a.628.628,0,0,1,.128-.014h.011a8.421,8.421,0,0,1-1.224-1.413c-.088-.121-.185-.253-.272-.393l-.17-.257c-2.3-3.576-4.182-10.027-4.683-16.064-.049-.6-.1-1.315-.12-2-.008-.238-.008-.473-.008-.708-.008-.318-.008-.643,0-.96.008-.249.016-.493.033-.728l.006-.129a.86.86,0,0,1,.013-.133c.017-.234.032-.428.054-.615.017-.161.034-.323.059-.484l.019-.182c.046-.279.086-.515.135-.751a11.408,11.408,0,0,1,.325-1.232c.032-.1.07-.185.11-.273,0,0,0-.014.02-.059a.679.679,0,0,1,.049-.121c.009-.022.018-.041.027-.059a2,2,0,0,1,.126-.283l.008-.016" transform="translate(-78.443 -134.97)" fill="#29275f"/>
        <path id="Trazado_999131" data-name="Trazado 999131" d="M224.286,303.536a.634.634,0,0,1-.317-.085,6.791,6.791,0,0,1-2.015-2,.63.63,0,0,1,1.021-.738,5.593,5.593,0,0,0,1.615,1.567.634.634,0,0,1,.287.351,1.253,1.253,0,0,1,.039.275.629.629,0,0,1-.63.63" transform="translate(-84.91 -151.362)" fill="#29275f"/>
        <path id="Trazado_999132" data-name="Trazado 999132" d="M218.928,290.91a.627.627,0,0,1-.53-.289c-2.3-3.566-4.177-10.018-4.677-16.054a.63.63,0,0,1,1.255-.109c.512,5.692,2.357,12.062,4.486,15.49a.63.63,0,0,1-.535.962" transform="translate(-81.803 -141.19)" fill="#29275f"/>
        <path id="Trazado_999133" data-name="Trazado 999133" d="M216.028,260.691a.635.635,0,0,1-.552-.32.628.628,0,0,1,0-.634,3.02,3.02,0,0,1,.2-.291.63.63,0,0,1,1,.772,1.519,1.519,0,0,0-.107.166.632.632,0,0,1-.541.306" transform="translate(-82.443 -135.57)" fill="#29275f"/>
        <path id="Trazado_999134" data-name="Trazado 999134" d="M216.019,260.84a.63.63,0,0,1-.63-.63.633.633,0,0,1,1.217-.249.63.63,0,0,1-.133.686l-.007.008a.632.632,0,0,1-.446.185" transform="translate(-82.442 -135.712)" fill="#29275f"/>
        <path id="Trazado_999135" data-name="Trazado 999135" d="M215.928,260.948a.63.63,0,0,1-.562-.915l.046-.085a.665.665,0,0,1,1.1-.046.632.632,0,0,1,.027.616,1.119,1.119,0,0,1-.113.178.629.629,0,0,1-.5.251" transform="translate(-82.407 -135.734)" fill="#29275f"/>
        <path id="Trazado_999136" data-name="Trazado 999136" d="M215.8,261.2a.633.633,0,0,1-.528-.987.785.785,0,0,1,.078-.1.63.63,0,0,1,1.087.434.692.692,0,0,1-.193.469.628.628,0,0,1-.445.185m-.023-.654-.141-.141Z" transform="translate(-82.356 -135.844)" fill="#29275f"/>
        <path id="Trazado_999137" data-name="Trazado 999137" d="M215.789,261.222a.63.63,0,0,1-.63-.63.632.632,0,0,1,1.219-.241.628.628,0,0,1-.147.691l-.008.008a.632.632,0,0,1-.434.173" transform="translate(-82.354 -135.858)" fill="#29275f"/>
        <path id="Trazado_999138" data-name="Trazado 999138" d="M215.713,261.346a.629.629,0,0,1-.6-.83,1.307,1.307,0,0,1,.1-.22.658.658,0,0,1,1.039-.019.633.633,0,0,1,.091.568,1.333,1.333,0,0,1-.117.227.629.629,0,0,1-.52.275" transform="translate(-82.325 -135.888)" fill="#29275f"/>
        <path id="Trazado_999139" data-name="Trazado 999139" d="M214.152,266.273a.639.639,0,0,1-.453-.185.632.632,0,0,1-.185-.467c.009-.244.017-.487.033-.722l.006-.129a.86.86,0,0,1,.013-.133c.017-.234.032-.428.054-.615.016-.162.033-.323.059-.484l.019-.182c.046-.279.086-.515.135-.751a11.446,11.446,0,0,1,.325-1.232c.031-.1.07-.185.11-.273a.168.168,0,0,1,.02-.059.678.678,0,0,1,.049-.121c.009-.022.018-.041.027-.059a1.852,1.852,0,0,1,.126-.283c.017-.036.049-.1.08-.149a.63.63,0,0,1,1.154.472,1.341,1.341,0,0,1-.086.214c-.064.14-.136.306-.2.486-.049.123-.083.234-.117.344-.029.088-.055.164-.075.246l-.051.2a.688.688,0,0,1-.021.08l-.02.08c0,.017-.019.067-.03.1s-.006.041-.009.062a.713.713,0,0,1-.027.131.47.47,0,0,0-.019.089c-.046.244-.075.407-.1.57-.015.1-.03.188-.036.274-.026.206-.049.378-.064.551s-.03.315-.038.471c-.023.293-.038.572-.046.859a.629.629,0,0,1-.185.428.639.639,0,0,1-.453.185" transform="translate(-81.724 -135.921)" fill="#29275f"/>
        <path id="Trazado_999140" data-name="Trazado 999140" d="M215.339,262.189a.637.637,0,0,1-.638-.63.722.722,0,0,1,.188-.465h0a.63.63,0,0,1,1.062.612.632.632,0,0,1-.612.484" transform="translate(-82.178 -136.219)" fill="#29275f"/>
        <path id="Trazado_999141" data-name="Trazado 999141" d="M215.33,262.216h0a.631.631,0,0,1-.63-.62v-.01a.637.637,0,0,1,.63-.638h.008a.634.634,0,0,1-.008,1.268" transform="translate(-82.178 -136.239)" fill="#29275f"/>
        <path id="Trazado_999142" data-name="Trazado 999142" d="M214.717,264.251a.537.537,0,0,1-.063,0,.6.6,0,0,1-.566-.587.947.947,0,0,1,.009-.125,1.2,1.2,0,0,1,.07-.269.63.63,0,0,1,1.207.325c0,.018-.022.116-.027.134a.677.677,0,0,1-.63.526m.5-.559.118.048Z" transform="translate(-81.944 -136.975)" fill="#29275f"/>
        <path id="Trazado_999143" data-name="Trazado 999143" d="M214.706,264.442h0a.631.631,0,0,1-.63-.625v0a.653.653,0,0,1,.169-.436l.012-.014a.658.658,0,0,1,1.031.186.642.642,0,0,1-.582.894" transform="translate(-81.939 -137.096)" fill="#29275f"/>
        <path id="Trazado_999144" data-name="Trazado 999144" d="M214.142,270.252a.631.631,0,0,1-.63-.615q-.011-.5,0-.975a.63.63,0,0,1,.4-.569.792.792,0,0,1,.242-.045.67.67,0,0,1,.256.051.631.631,0,0,1,.381.6c-.008.3-.015.61-.015.928a.63.63,0,0,1-.622.63Z" transform="translate(-81.721 -138.956)" fill="#29275f"/>
        <path id="Trazado_999145" data-name="Trazado 999145" d="M205.428,261.612A.614.614,0,0,1,204.8,261c0-.016,0-.032,0-.046,0-.035,0-.067,0-.1a.649.649,0,0,1,.654-.614.605.605,0,0,1,.608.6v0c0,.022,0,.084,0,.106s0,.02,0,.03a.649.649,0,0,1-.631.627" transform="translate(-78.388 -135.969)" fill="#29275f"/>
        <path id="Trazado_999146" data-name="Trazado 999146" d="M204.816,265.194a.622.622,0,0,1-.142-.016.63.63,0,0,1-.472-.755c.036-.159.068-.312.1-.462l.024-.115a.63.63,0,0,1,1.247.128.653.653,0,0,1-.013.128l-.024.114c-.032.158-.066.322-.1.49a.631.631,0,0,1-.614.488" transform="translate(-78.154 -137.155)" fill="#29275f"/>
        <path id="Trazado_999147" data-name="Trazado 999147" d="M204.586,266.08a.636.636,0,0,1-.184-.027.631.631,0,0,1-.419-.786c.029-.1.054-.19.077-.282l.061-.227a.63.63,0,0,1,1.236.173.618.618,0,0,1-.024.172l-.053.2c-.028.107-.057.217-.091.331a.631.631,0,0,1-.6.447" transform="translate(-78.066 -137.522)" fill="#29275f"/>
        <path id="Trazado_999148" data-name="Trazado 999148" d="M203.223,269.657a.63.63,0,0,1-.564-.911l.043-.084c.056-.112.111-.22.157-.334a.63.63,0,0,1,1.17.469c-.059.146-.129.287-.2.431l-.04.079a.629.629,0,0,1-.564.349" transform="translate(-77.544 -138.912)" fill="#29275f"/>
        <path id="Trazado_999149" data-name="Trazado 999149" d="M202.866,270.365a.63.63,0,0,1-.551-.935l.049-.087.034-.06c.041-.078.081-.159.122-.24a.635.635,0,0,1,.835-.291.627.627,0,0,1,.308.823c-.048.106-.1.209-.159.312-.03.057-.061.112-.093.167a.629.629,0,0,1-.544.312" transform="translate(-77.407 -139.203)" fill="#29275f"/>
        <path id="Trazado_999150" data-name="Trazado 999150" d="M202.292,271.219a.63.63,0,0,1-.52-.985c.108-.159.209-.324.3-.489a.63.63,0,1,1,1.1.62c-.111.2-.231.392-.359.58a.629.629,0,0,1-.521.275" transform="translate(-77.188 -139.483)" fill="#29275f"/>
        <path id="Trazado_999151" data-name="Trazado 999151" d="M201.744,272.36a.629.629,0,0,1-.492-1.022c.049-.063.093-.125.137-.188l1.043.708c-.071.1-.129.182-.194.264a.629.629,0,0,1-.493.238" transform="translate(-76.978 -140.143)" fill="#29275f"/>
        <path id="Trazado_999152" data-name="Trazado 999152" d="M201.476,272.7a.63.63,0,0,1-.475-1.043c.047-.054.094-.115.141-.176l1,.772c-.078.1-.128.164-.189.235a.63.63,0,0,1-.473.212" transform="translate(-76.875 -140.269)" fill="#29275f"/>
        <path id="Trazado_999153" data-name="Trazado 999153" d="M199.4,274.474a.63.63,0,0,1-.374-1.137c.135-.1.268-.213.4-.326a.63.63,0,1,1,.837.941,5.389,5.389,0,0,1-.5.407.626.626,0,0,1-.361.114" transform="translate(-76.08 -140.795)" fill="#29275f"/>
        <path id="Trazado_999154" data-name="Trazado 999154" d="M198.94,274.9a.63.63,0,0,1-.349-1.154l.05-.033.059-.038c.04-.028.078-.058.119-.092a.63.63,0,0,1,.828.949,1.912,1.912,0,0,1-.175.14c-.065.048-.13.091-.2.136a.624.624,0,0,1-.33.093" transform="translate(-75.905 -141.019)" fill="#29275f"/>
        <path id="Trazado_999155" data-name="Trazado 999155" d="M197.6,275.751a.63.63,0,0,1-.261-1.2,1.9,1.9,0,0,0,.189-.1.63.63,0,0,1,.647,1.081,3.108,3.108,0,0,1-.315.167.62.62,0,0,1-.26.057" transform="translate(-75.393 -141.371)" fill="#29275f"/>
        <path id="Trazado_999156" data-name="Trazado 999156" d="M196.849,276.046a.631.631,0,0,1-.585-.4.641.641,0,0,1-.045-.235.631.631,0,0,1,.4-.585,4.379,4.379,0,0,0,.406-.185.629.629,0,0,1,.851.264.622.622,0,0,1,.073.294.631.631,0,0,1-.337.557c-.169.088-.346.168-.523.24a.64.64,0,0,1-.235.045" transform="translate(-75.104 -141.453)" fill="#29275f"/>
        <path id="Trazado_999157" data-name="Trazado 999157" d="M195.765,276.56a.636.636,0,0,1-.614-.457.652.652,0,0,1-.025-.177.616.616,0,0,1,.45-.6l.023-.006a.671.671,0,0,1,.864.327.719.719,0,0,1,.055.27.572.572,0,0,1-.354.543,2.209,2.209,0,0,1-.227.075.655.655,0,0,1-.172.023" transform="translate(-74.686 -141.721)" fill="#29275f"/>
        <path id="Trazado_999158" data-name="Trazado 999158" d="M194.823,276.8a.636.636,0,0,1-.622-.485.648.648,0,0,1-.017-.149.616.616,0,0,1,.477-.605l.022,0c.044-.01.089-.02.133-.034a.628.628,0,0,1,.8.4.609.609,0,0,1,.033.2.628.628,0,0,1-.43.6,2.379,2.379,0,0,1-.249.067.608.608,0,0,1-.144.017" transform="translate(-74.325 -141.805)" fill="#29275f"/>
        <path id="Trazado_999159" data-name="Trazado 999159" d="M194.377,276.909a.63.63,0,0,1-.065-1.257h0a.712.712,0,0,0,.081-.018.66.66,0,0,1,.789.438.6.6,0,0,1-.394.762,1.84,1.84,0,0,1-.343.072h0a.6.6,0,0,1-.066,0" transform="translate(-74.158 -141.853)" fill="#29275f"/>
        <path id="Trazado_999160" data-name="Trazado 999160" d="M193.459,277.021a.63.63,0,0,1-.626-.571c0-.02,0-.04,0-.06a.63.63,0,0,1,.571-.626,2.918,2.918,0,0,0,.408-.064.63.63,0,1,1,.293,1.226,4.332,4.332,0,0,1-.583.093c-.02,0-.04,0-.06,0" transform="translate(-73.807 -141.878)" fill="#29275f"/>
        <path id="Trazado_999161" data-name="Trazado 999161" d="M191.42,277.2a.63.63,0,1,1,0-1.26c.179,0,.359-.007.53-.022a.63.63,0,0,1,.106,1.255c-.2.017-.413.027-.636.027" transform="translate(-73.026 -141.966)" fill="#29275f"/>
        <path id="Trazado_999162" data-name="Trazado 999162" d="M166.536,212.528a.632.632,0,0,1-.4-.145l-.272-.218a.63.63,0,0,1,.168-1.073l.224-.086a.639.639,0,0,1,.548.037.628.628,0,0,1,.31.452l.048.307a.629.629,0,0,1-.623.725" transform="translate(-63.396 -117.106)" fill="#29275f"/>
        <path id="Trazado_999163" data-name="Trazado 999163" d="M135.82,144.073a9.189,9.189,0,1,1,9.189-9.19,9.2,9.2,0,0,1-9.189,9.19m0-17.119a7.929,7.929,0,1,0,7.929,7.929,7.938,7.938,0,0,0-7.929-7.929" transform="translate(-48.469 -84.469)" fill="#29275f"/>
        <path id="Trazado_999164" data-name="Trazado 999164" d="M125.175,352.143c-.2,0-.4,0-.609-.009a19.4,19.4,0,0,1-3.684-.439,18.959,18.959,0,0,1-2.593-.739,19.87,19.87,0,0,1-12.5-24.1c0-.019.007-.038.012-.058l6.468-45.379a23.993,23.993,0,0,1,.866-6.019,19.737,19.737,0,0,1,4.542-9.918,20.065,20.065,0,0,1,8.675-5.936.63.63,0,1,1,.412,1.19,18.805,18.805,0,0,0-8.128,5.564,18.586,18.586,0,0,0-4.27,9.361,23.494,23.494,0,0,0-.843,5.856l-6.48,45.5a.679.679,0,0,1-.023.1c0,.017-.008.034-.012.05h0a18.814,18.814,0,0,0-.7,5.056,18.509,18.509,0,0,0,1.317,6.856,18.7,18.7,0,0,0,11.089,10.692,17.669,17.669,0,0,0,2.426.691,18.727,18.727,0,0,0,10.786-.881L181.292,330l-13.806-34.812-18.154,7.2a.63.63,0,0,1-.856-.675l2.95-20.666a18.424,18.424,0,0,0,.191-2.649.63.63,0,1,1,1.26,0,19.745,19.745,0,0,1-.2,2.828l-2.8,19.59,17.73-7.034a.639.639,0,0,1,.482.007.632.632,0,0,1,.336.346L182.7,330.126a.631.631,0,0,1-.354.818l-49.947,19.809a19.533,19.533,0,0,1-7.219,1.391" transform="translate(-40.209 -135.687)" fill="#29275f"/>
        <path id="Trazado_999165" data-name="Trazado 999165" d="M324.767,265.536c-2.633,0-5.224-5.557-6.389-11.07-1.222-5.782-1.03-12.244,1.733-12.828s5.553,5.247,6.775,11.029,1.03,12.244-1.733,12.828a1.865,1.865,0,0,1-.386.041M320.5,242.857a.619.619,0,0,0-.132.014c-1.262.267-2.161,4.708-.761,11.334s4.017,10.333,5.282,10.058,2.161-4.708.76-11.334c-1.353-6.4-3.844-10.071-5.149-10.071" transform="translate(-121.587 -128.832)" fill="#29275f"/>
        <path id="Trazado_999166" data-name="Trazado 999166" d="M259.039,320.493a.63.63,0,0,1-.138-1.244l6.377-1.441a.63.63,0,0,1,.277,1.229l-6.377,1.441a.63.63,0,0,1-.139.015" transform="translate(-98.908 -157.996)" fill="#29275f"/>
        <path id="Trazado_999167" data-name="Trazado 999167" d="M261.873,332.069a.63.63,0,0,1-.105-1.251l5.076-.868a.63.63,0,1,1,.212,1.242l-5.076.868a.631.631,0,0,1-.107.009" transform="translate(-99.993 -162.646)" fill="#29275f"/>
        <path id="Trazado_999168" data-name="Trazado 999168" d="M262.869,344.29a.63.63,0,0,1-.106-1.251l4.516-.778a.636.636,0,0,1,.728.515.629.629,0,0,1-.514.727l-4.516.778a.644.644,0,0,1-.108.009" transform="translate(-100.374 -167.359)" fill="#29275f"/>
        <path id="Trazado_999169" data-name="Trazado 999169" d="M292.641,319.871a.63.63,0,0,1-.393-1.122l5.21-4.158a.63.63,0,1,1,.786.984l-5.21,4.158a.628.628,0,0,1-.393.138" transform="translate(-111.769 -156.718)" fill="#29275f"/>
        <path id="Trazado_999170" data-name="Trazado 999170" d="M395.928,281.4H384.7a.63.63,0,0,1,0-1.26h11.226c2.739,0,4.833-.713,6.225-2.118a6.655,6.655,0,0,0,1.82-4.316.631.631,0,0,1,.622-.637.645.645,0,0,1,.638.62,7.834,7.834,0,0,1-2.17,5.2c-1.638,1.663-4.039,2.507-7.135,2.507" transform="translate(-147.007 -140.878)" fill="#29275f"/>
        <path id="Trazado_999171" data-name="Trazado 999171" d="M201.466,182.45a3.4,3.4,0,1,1-3.876-2.844,3.4,3.4,0,0,1,3.876,2.844" transform="translate(-74.525 -105.089)" fill="#29275f"/>
        <path id="Trazado_999172" data-name="Trazado 999172" d="M230.343,178.016a3.4,3.4,0,1,1-3.876-2.844,3.4,3.4,0,0,1,3.876,2.844" transform="translate(-85.578 -103.392)" fill="#29275f"/>
        <path id="Trazado_999173" data-name="Trazado 999173" d="M224.089,164.2c-.9.063-2.035.12-2.794.131a2.147,2.147,0,0,0-2.316,1.83c-.072,1,.663,2.333,1.83,2.315,1.306-.02,2.61-.062,3.913-.152a2.1,2.1,0,0,0,1.746-2.379,2.14,2.14,0,0,0-2.379-1.746" transform="translate(-83.814 -99.204)" fill="#29275f"/>
        <path id="Trazado_999174" data-name="Trazado 999174" d="M195.675,168.67c-.88.2-1.994.427-2.742.553a2.146,2.146,0,0,0-2.012,2.159c.081,1,1.008,2.206,2.159,2.012,1.288-.217,2.57-.456,3.845-.743a2.1,2.1,0,0,0,1.366-2.616,2.14,2.14,0,0,0-2.616-1.365" transform="translate(-73.074 -100.893)" fill="#29275f"/>
        <path id="Trazado_999175" data-name="Trazado 999175" d="M215.06,191.876a.63.63,0,0,1-.3-1.184l4.778-2.588-5.176-7.077a.63.63,0,0,1,1.017-.744l5.6,7.661a.631.631,0,0,1-.209.926L215.36,191.8a.624.624,0,0,1-.3.076" transform="translate(-82.003 -105.264)" fill="#29275f"/>
        <path id="Trazado_999176" data-name="Trazado 999176" d="M208.9,208.4a6.065,6.065,0,0,1-4.97-1.989c-1.85-2.266-1.2-5.581-1.172-5.721a.626.626,0,0,1,.681-.5l11.387,1.159a.63.63,0,0,1,.556.512,5.93,5.93,0,0,1-1.12,4.515c-1.117,1.344-2.921,2.025-5.362,2.025m-4.981-6.9a5.891,5.891,0,0,0,.99,4.115,4.888,4.888,0,0,0,3.99,1.521c2.043,0,3.519-.526,4.386-1.563a4.472,4.472,0,0,0,.9-3.028Z" transform="translate(-77.556 -112.983)" fill="#29275f"/>
        <path id="Trazado_999177" data-name="Trazado 999177" d="M190.519,195.6a5.019,5.019,0,1,1-5.019-5.019,5.019,5.019,0,0,1,5.019,5.019" transform="translate(-69.08 -109.306)" fill="#7351fa"/>
        <path id="Trazado_999178" data-name="Trazado 999178" d="M161.948,200.493a.63.63,0,0,1-.629-.606c-.244-6.363-6.574-10.07-6.638-10.107a.63.63,0,0,1,.626-1.094c.286.164,7,4.081,7.272,11.152a.63.63,0,0,1-.606.654h-.025" transform="translate(-59.084 -108.548)" fill="#29275f"/>
        <path id="Trazado_999179" data-name="Trazado 999179" d="M259.335,241.924a.63.63,0,0,1-.293-1.188c.126-.066,12.661-6.665,18.29-12.535a.63.63,0,1,1,.909.872c-5.772,6.019-18.093,12.506-18.615,12.779a.63.63,0,0,1-.292.072" transform="translate(-99.021 -123.63)" fill="#29275f"/>
        <path id="Trazado_999180" data-name="Trazado 999180" d="M136.51,440.674s-14.334,11.952-17.119,28.135-13.319,67.821-13.319,67.821" transform="translate(-40.6 -205.03)" fill="none" stroke="#fff" stroke-linecap="round" stroke-linejoin="round" stroke-width="1.5"/>
        <path id="Trazado_999181" data-name="Trazado 999181" d="M205.87,518.319l2.879-7.141,32.221-9.331" transform="translate(-78.799 -228.444)" fill="none" stroke="#fff" stroke-linecap="round" stroke-linejoin="round" stroke-width="1.5"/>
        <path id="Trazado_999182" data-name="Trazado 999182" d="M132.475,275.092c-5.062,0-5.071,7.867,0,7.867s5.071-7.867,0-7.867" transform="translate(-49.251 -141.652)" fill="#ecb85e"/>
        <path id="Trazado_999183" data-name="Trazado 999183" d="M154.088,299.185c-5.062,0-5.071,7.867,0,7.867s5.071-7.867,0-7.867" transform="translate(-57.524 -150.874)" fill="#ecb85e"/>
        <path id="Trazado_999184" data-name="Trazado 999184" d="M134.247,317.609c-5.062,0-5.071,7.867,0,7.867s5.071-7.867,0-7.867" transform="translate(-49.93 -157.926)" fill="#ecb85e"/>
        <path id="Trazado_999185" data-name="Trazado 999185" d="M262.153,415.045c-5.062,0-5.071,7.867,0,7.867s5.071-7.867,0-7.867" transform="translate(-98.887 -195.22)" fill="#ecb85e"/>
        <path id="Trazado_999186" data-name="Trazado 999186" d="M262.507,384.928c-5.062,0-5.071,7.867,0,7.867s5.071-7.867,0-7.867" transform="translate(-99.022 -183.693)" fill="#ecb85e"/>
        <path id="Trazado_999187" data-name="Trazado 999187" d="M243.729,397.684c-5.062,0-5.071,7.867,0,7.867s5.071-7.867,0-7.867" transform="translate(-91.835 -188.575)" fill="#ecb85e"/>
        <path id="Trazado_999188" data-name="Trazado 999188" d="M470.922,159.816v1.81H386.509v-1.81a4.655,4.655,0,0,1,4.653-4.656h75.1a4.656,4.656,0,0,1,4.656,4.656" transform="translate(-147.939 -95.747)" fill="#7ecfe7"/>
        <path id="Trazado_999189" data-name="Trazado 999189" d="M470.922,165.635v47.85a4.655,4.655,0,0,1-4.656,4.653h-75.1a4.654,4.654,0,0,1-4.653-4.653v-47.85Z" transform="translate(-147.939 -99.757)" fill="#fff"/>
        <path id="Trazado_999190" data-name="Trazado 999190" d="M465.875,214.369h-75.1a5.29,5.29,0,0,1-5.284-5.284v-49.66a5.291,5.291,0,0,1,5.284-5.286h75.1a5.292,5.292,0,0,1,5.287,5.286v49.66a5.291,5.291,0,0,1-5.287,5.284m-75.1-58.97a4.029,4.029,0,0,0-4.023,4.026v49.66a4.028,4.028,0,0,0,4.023,4.024h75.1a4.03,4.03,0,0,0,4.026-4.024v-49.66a4.031,4.031,0,0,0-4.026-4.026Z" transform="translate(-147.548 -95.357)" fill="#29275f"/>
        <path id="Trazado_999191" data-name="Trazado 999191" d="M498.46,165.875H459.084a.63.63,0,1,1,0-1.26H498.46a.63.63,0,1,1,0,1.26" transform="translate(-175.477 -99.366)" fill="#29275f"/>
        <path id="Trazado_999192" data-name="Trazado 999192" d="M409.122,165.875h-23a.63.63,0,0,1,0-1.26h23a.63.63,0,1,1,0,1.26" transform="translate(-147.548 -99.366)" fill="#29275f"/>
        <path id="Trazado_999193" data-name="Trazado 999193" d="M465.444,215.906h-68.8a.63.63,0,0,1-.63-.63v-44.4a.63.63,0,0,1,1.26,0v43.77h67.54v-43.77a.631.631,0,0,1,1.261,0v44.4a.631.631,0,0,1-.63.63" transform="translate(-151.577 -101.522)" fill="#29275f"/>
        <path id="Trazado_999194" data-name="Trazado 999194" d="M422.468,137.527h-4.432v59.725H404.53V137.527h-4.436l11.189-14.334Z" transform="translate(-153.139 -83.512)" fill="#7351fa"/>
        <path id="Trazado_999195" data-name="Trazado 999195" d="M496.143,137.527h-4.432v59.725H478.2V137.527h-4.435l11.189-14.334Z" transform="translate(-181.339 -83.512)" fill="#7351fa"/>
        <path id="Trazado_999196" data-name="Trazado 999196" d="M460.249,90.591h-4.432l.341,88.7H442.652l-.341-88.7h-4.436l11.189-14.334Z" transform="translate(-167.6 -65.547)" fill="#ecb85e"/>
        <path id="Trazado_999197" data-name="Trazado 999197" d="M417.645,197.49H404.139a.63.63,0,0,1-.63-.63V137.766H399.7a.63.63,0,0,1-.5-1.018L410.4,122.415a.63.63,0,0,1,.993,0l11.185,14.334a.63.63,0,0,1-.5,1.018h-3.8v59.095a.63.63,0,0,1-.63.63m-12.876-1.26h12.246V137.136a.631.631,0,0,1,.63-.63h3.141l-9.894-12.679-9.9,12.679h3.144a.631.631,0,0,1,.63.63Z" transform="translate(-152.749 -83.121)" fill="#29275f"/>
        <path id="Trazado_999198" data-name="Trazado 999198" d="M491.32,197.49H477.814a.63.63,0,0,1-.63-.63V137.766h-3.806a.63.63,0,0,1-.5-1.018l11.189-14.334a.63.63,0,0,1,.993,0l11.186,14.334a.63.63,0,0,1-.5,1.018h-3.8v59.095a.63.63,0,0,1-.63.63m-12.876-1.26H490.69V137.136a.631.631,0,0,1,.63-.63h3.141l-9.894-12.679-9.9,12.679h3.144a.631.631,0,0,1,.63.63Z" transform="translate(-180.948 -83.121)" fill="#29275f"/>
        <path id="Trazado_999199" data-name="Trazado 999199" d="M455.768,179.526H442.261a.629.629,0,0,1-.63-.627l-.339-88.068h-3.808a.63.63,0,0,1-.5-1.017L448.176,75.48a.63.63,0,0,1,.994,0l11.185,14.334a.63.63,0,0,1-.5,1.017h-3.8l.339,88.063a.63.63,0,0,1-.63.632m-12.879-1.26h12.246L454.8,90.2a.629.629,0,0,1,.63-.632h3.141l-9.894-12.68-9.9,12.68h3.144a.63.63,0,0,1,.63.627Z" transform="translate(-167.21 -65.156)" fill="#29275f"/>
        <path id="Trazado_999200" data-name="Trazado 999200" d="M575.9,536.671a36.359,36.359,0,1,1-36.359-36.359A36.359,36.359,0,0,1,575.9,536.671" transform="translate(-192.595 -227.857)" fill="#7ecfe7"/>
        <path id="Trazado_999201" data-name="Trazado 999201" d="M625.555,465.507a.631.631,0,0,1-.62-.521l-1.278-7.279a25.687,25.687,0,0,1-7.609,0l-1.279,7.279a.629.629,0,0,1-.259.407.635.635,0,0,1-.472.1,33.578,33.578,0,0,1-10.938-3.986.63.63,0,0,1-.293-.383.623.623,0,0,1,.063-.477l3.678-6.361a25.707,25.707,0,0,1-5.874-4.872l-5.606,4.7a.639.639,0,0,1-.461.145.628.628,0,0,1-.428-.223,33.622,33.622,0,0,1-5.8-10.081.63.63,0,0,1,.377-.807l6.766-2.468a25.39,25.39,0,0,1-1.4-7.548h-7.164a.629.629,0,0,1-.63-.635,34.037,34.037,0,0,1,2.049-11.46.634.634,0,0,1,.807-.376l6.605,2.409a25.465,25.465,0,0,1,3.807-6.74l-5.34-4.485a.63.63,0,0,1-.08-.884A32.719,32.719,0,0,1,603.1,403.5a.629.629,0,0,1,.86.23l3.45,5.964a25.281,25.281,0,0,1,7.307-2.678l-1.189-6.772a.631.631,0,0,1,.536-.734c.3-.041.6-.088.9-.136a18.769,18.769,0,0,1,1.995-.245l2.865-.139,2.922.139a18.727,18.727,0,0,1,2,.245c.3.048.6.1.9.136a.631.631,0,0,1,.536.734l-1.189,6.772a25.24,25.24,0,0,1,7.307,2.678l3.449-5.964a.631.631,0,0,1,.86-.23,32.7,32.7,0,0,1,8.924,7.471.63.63,0,0,1-.08.884l-5.34,4.485a25.444,25.444,0,0,1,3.807,6.74l6.606-2.409a.631.631,0,0,1,.807.377,34.062,34.062,0,0,1,2.049,11.46.63.63,0,0,1-.63.635H645.58a25.348,25.348,0,0,1-1.4,7.548l6.767,2.468a.63.63,0,0,1,.377.807,33.63,33.63,0,0,1-5.8,10.081.629.629,0,0,1-.428.223.636.636,0,0,1-.461-.145l-5.605-4.7a25.717,25.717,0,0,1-5.874,4.872l3.678,6.361a.63.63,0,0,1-.231.86,33.565,33.565,0,0,1-10.937,3.986.6.6,0,0,1-.111.01m-1.386-9.151a.63.63,0,0,1,.62.521l1.277,7.264a32.288,32.288,0,0,0,9.359-3.41l-3.672-6.35a.631.631,0,0,1-.063-.479.637.637,0,0,1,.3-.383,24.481,24.481,0,0,0,6.5-5.387.63.63,0,0,1,.885-.074l5.59,4.69a32.31,32.31,0,0,0,4.964-8.625l-6.76-2.465a.63.63,0,0,1-.374-.814,24.11,24.11,0,0,0,1.545-8.337.63.63,0,0,1,.63-.626H652.1a32.782,32.782,0,0,0-1.751-9.809l-6.6,2.407a.631.631,0,0,1-.81-.385,24.2,24.2,0,0,0-4.2-7.442.629.629,0,0,1,.081-.883l5.329-4.475a31.405,31.405,0,0,0-7.638-6.385l-3.444,5.955a.632.632,0,0,1-.385.293.62.62,0,0,1-.479-.065,24,24,0,0,0-8.056-2.952.63.63,0,0,1-.513-.73l1.185-6.749-.28-.044a17.815,17.815,0,0,0-1.863-.231l-2.858-.138-2.8.138a17.831,17.831,0,0,0-1.859.231l-.28.044,1.184,6.749a.631.631,0,0,1-.513.73,24.024,24.024,0,0,0-8.057,2.952.631.631,0,0,1-.864-.228l-3.444-5.955a31.422,31.422,0,0,0-7.638,6.385l5.329,4.475a.629.629,0,0,1,.081.883,24.213,24.213,0,0,0-4.2,7.442.632.632,0,0,1-.81.385l-6.6-2.407a32.781,32.781,0,0,0-1.752,9.809h7.142a.631.631,0,0,1,.63.626,24.11,24.11,0,0,0,1.544,8.337.63.63,0,0,1-.374.814l-6.759,2.465a32.355,32.355,0,0,0,4.963,8.625l5.591-4.69a.631.631,0,0,1,.885.074,24.466,24.466,0,0,0,6.5,5.387.63.63,0,0,1,.233.862l-3.673,6.35a32.294,32.294,0,0,0,9.359,3.41l1.276-7.264a.629.629,0,0,1,.729-.511,24.485,24.485,0,0,0,8.416,0,.656.656,0,0,1,.109-.01m-4.317-6.938a17.17,17.17,0,1,1,17.175-17.175,17.2,17.2,0,0,1-17.175,17.175m0-33.081a15.91,15.91,0,1,0,15.915,15.906,15.929,15.929,0,0,0-15.915-15.906" transform="translate(-224.422 -189.074)" fill="#29275f"/>
        <path id="Trazado_999202" data-name="Trazado 999202" d="M265.7,36.359A36.359,36.359,0,1,1,229.341,0,36.359,36.359,0,0,1,265.7,36.359" transform="translate(-73.865 -36.359)" fill="#7ecfe7"/>
      </g>
    </g>
  </g>
</svg>
