<svg xmlns="http://www.w3.org/2000/svg" xmlns:xlink="http://www.w3.org/1999/xlink" width="113" height="113" viewBox="0 0 113 113">
  <defs>
    <filter id="Trazado_982547" x="0" y="0" width="113" height="113" filterUnits="userSpaceOnUse">
      <feOffset dy="3" input="SourceAlpha"/>
      <feGaussianBlur stdDeviation="3" result="blur"/>
      <feFlood flood-opacity="0.161"/>
      <feComposite operator="in" in2="blur"/>
      <feComposite in="SourceGraphic"/>
    </filter>
  </defs>
  <g id="Grupo_1164237" data-name="Grupo 1164237" transform="translate(-272 -1107)">
    <g id="Grupo_1163948" data-name="Grupo 1163948" transform="translate(0 -1371)">
      <g id="Grupo_1158168" data-name="Grupo 1158168" transform="translate(281 2484)">
        <g id="Grupo_1152576" data-name="Grupo 1152576" transform="translate(0)">
          <g id="Grupo_1148633" data-name="Grupo 1148633">
            <g id="Grupo_1148525" data-name="Grupo 1148525">
              <g transform="matrix(1, 0, 0, 1, -9, -6)" filter="url(#Trazado_982547)">
                <g id="Trazado_982547-2" data-name="Trazado 982547" transform="translate(9 6)" fill="#fbf2fb">
                  <path d="M 47.5 93.5 C 41.28937149047852 93.5 35.26533508300781 92.28397369384766 29.59518623352051 89.88570404052734 C 24.11771965026855 87.56893157958984 19.19813346862793 84.25196075439453 14.97309303283691 80.02691650390625 C 10.74804019927979 75.80186462402344 7.431066513061523 70.88229370117188 5.114293098449707 65.40481567382812 C 2.716026782989502 59.73468017578125 1.5 53.71062850952148 1.5 47.5 C 1.5 41.28937149047852 2.716026782989502 35.26533508300781 5.114293098449707 29.59518623352051 C 7.431066513061523 24.11771965026855 10.74804019927979 19.19813346862793 14.97309303283691 14.97309303283691 C 19.19813346862793 10.74804019927979 24.11771965026855 7.431066513061523 29.59518623352051 5.114293098449707 C 35.26533508300781 2.716026782989502 41.28937149047852 1.5 47.5 1.5 C 53.71062850952148 1.5 59.73468017578125 2.716026782989502 65.40481567382812 5.114293098449707 C 70.88229370117188 7.431066513061523 75.80186462402344 10.74804019927979 80.02691650390625 14.97309303283691 C 84.25196075439453 19.19813346862793 87.56893157958984 24.11771965026855 89.88570404052734 29.59518623352051 C 92.28397369384766 35.26533508300781 93.5 41.28937149047852 93.5 47.5 C 93.5 53.71062850952148 92.28397369384766 59.73468017578125 89.88570404052734 65.40481567382812 C 87.56893157958984 70.88229370117188 84.25196075439453 75.80186462402344 80.02691650390625 80.02691650390625 C 75.80186462402344 84.25196075439453 70.88229370117188 87.56893157958984 65.40481567382812 89.88570404052734 C 59.73468017578125 92.28397369384766 53.71062850952148 93.5 47.5 93.5 Z" stroke="none"/>
                  <path d="M 47.5 3 C 41.49121475219727 3 35.66376876831055 4.176155090332031 30.17950439453125 6.495796203613281 C 24.88084411621094 8.736953735351562 20.12152099609375 11.94598388671875 16.03375244140625 16.03375244140625 C 11.94598388671875 20.12152099609375 8.736953735351562 24.88084411621094 6.495796203613281 30.17950439453125 C 4.176155090332031 35.66376876831055 3 41.49121475219727 3 47.5 C 3 53.50878524780273 4.176155090332031 59.33623123168945 6.495796203613281 64.82049560546875 C 8.736953735351562 70.11915588378906 11.94598388671875 74.87847900390625 16.03375244140625 78.96624755859375 C 20.12152099609375 83.05401611328125 24.88084411621094 86.26304626464844 30.17950439453125 88.50419616699219 C 35.66376876831055 90.82384490966797 41.49121475219727 92 47.5 92 C 53.50878524780273 92 59.33623123168945 90.82384490966797 64.82049560546875 88.50419616699219 C 70.11915588378906 86.26304626464844 74.87847900390625 83.05401611328125 78.96624755859375 78.96624755859375 C 83.05401611328125 74.87847900390625 86.26304626464844 70.11915588378906 88.50419616699219 64.82049560546875 C 90.82384490966797 59.33623123168945 92 53.50878524780273 92 47.5 C 92 41.49121475219727 90.82384490966797 35.66376876831055 88.50419616699219 30.17950439453125 C 86.26304626464844 24.88084411621094 83.05401611328125 20.12152099609375 78.96624755859375 16.03375244140625 C 74.87847900390625 11.94598388671875 70.11915588378906 8.736953735351562 64.82049560546875 6.495796203613281 C 59.33623123168945 4.176155090332031 53.50878524780273 3 47.5 3 M 47.5 0 C 73.7335205078125 0 95 21.2664794921875 95 47.5 C 95 73.7335205078125 73.7335205078125 95 47.5 95 C 21.2664794921875 95 0 73.7335205078125 0 47.5 C 0 21.2664794921875 21.2664794921875 0 47.5 0 Z" stroke="none" fill="#e087dc"/>
                </g>
              </g>
            </g>
          </g>
        </g>
      </g>
    </g>
    <g id="Layer_x0020_1" transform="translate(298.686 1131.686)">
      <path id="Trazado_998971" data-name="Trazado 998971" d="M5.171,13.6a.7.7,0,0,1-.494-.2L.894,9.608a.7.7,0,0,1-.161-.738L3.768.725A.7.7,0,0,1,4.916.475L13.81,9.368a.7.7,0,0,1-.25,1.149L5.415,13.552a.7.7,0,0,1-.244.044ZM2.2,8.937l3.148,3.148,6.7-2.5L4.7,2.231,2.2,8.937Z" transform="translate(23.385 9.166)" fill-rule="evenodd"/>
      <path id="Trazado_998972" data-name="Trazado 998972" d="M3.881,10.18l6.7-2.5L3.23.326.732,7.031Z" transform="translate(24.853 11.071)" fill="#ececff" fill-rule="evenodd"/>
      <path id="Trazado_998973" data-name="Trazado 998973" d="M9.813,18.432a8.619,8.619,0,1,1,8.618-8.619A8.629,8.629,0,0,1,9.813,18.432Zm0-15.839a7.221,7.221,0,1,0,7.22,7.22A7.229,7.229,0,0,0,9.813,2.593Z" transform="translate(40.533 40.533)" fill-rule="evenodd"/>
      <path id="Trazado_998974" data-name="Trazado 998974" d="M3.409,9.66a.7.7,0,0,1-.688-.821L3.1,6.689,1.53,5.175A.7.7,0,0,1,1.919,3.98l2.162-.3.954-1.963a.7.7,0,0,1,1.257,0l.955,1.963,2.162.3A.7.7,0,0,1,9.8,5.175L8.226,6.689l.381,2.15a.7.7,0,0,1-1.017.738L5.664,8.55,3.738,9.578a.7.7,0,0,1-.329.083Zm2.255-2.6a.7.7,0,0,1,.329.083l.987.526-.2-1.1a.7.7,0,0,1,.2-.625l.806-.777L6.686,5.011a.7.7,0,0,1-.532-.386l-.49-1.006L5.175,4.624a.7.7,0,0,1-.532.386l-1.108.154.806.777a.7.7,0,0,1,.2.625l-.2,1.1.987-.526a.7.7,0,0,1,.328-.083Z" transform="translate(44.683 44.856)" fill-rule="evenodd"/>
      <path id="Trazado_998975" data-name="Trazado 998975" d="M29.814,59.628a29.821,29.821,0,0,1-14.6-3.816A.7.7,0,0,1,15,54.774a7.238,7.238,0,0,0-3.849-11.415,7.31,7.31,0,0,0-6.3,1.267.7.7,0,0,1-1.036-.21,29.837,29.837,0,0,1,0-29.2A.7.7,0,0,1,4.853,15,7.235,7.235,0,0,0,15,4.854a.7.7,0,0,1,.211-1.037,29.838,29.838,0,0,1,29.2,0,.7.7,0,0,1,.21,1.037,7.235,7.235,0,0,0,3.85,11.415A7.3,7.3,0,0,0,54.774,15a.7.7,0,0,1,1.037.21,29.838,29.838,0,0,1,0,29.2.7.7,0,0,1-1.037.21A7.234,7.234,0,0,0,44.626,54.775a.7.7,0,0,1-.21,1.036,29.825,29.825,0,0,1-14.6,3.817ZM16.577,54.963a28.452,28.452,0,0,0,26.476,0,8.634,8.634,0,0,1,7.289-13.249,8.687,8.687,0,0,1,4.621,1.337,28.451,28.451,0,0,0,0-26.477,8.714,8.714,0,0,1-6.849,1.044A8.638,8.638,0,0,1,43.051,4.664a28.452,28.452,0,0,0-26.476,0A8.633,8.633,0,0,1,9.287,17.915h0a8.683,8.683,0,0,1-4.622-1.338,28.45,28.45,0,0,0,0,26.477A8.63,8.63,0,0,1,17.618,52.58a8.6,8.6,0,0,1-1.041,2.383Z" transform="translate(0 0)" fill-rule="evenodd"/>
      <path id="Trazado_998976" data-name="Trazado 998976" d="M9.833,17.285a8.634,8.634,0,1,1,8.332-6.4,8.647,8.647,0,0,1-8.332,6.4ZM9.824,1.417a7.251,7.251,0,1,0,1.877.249,7.242,7.242,0,0,0-1.877-.249Z" transform="translate(40.518 0.629)" fill-rule="evenodd"/>
      <path id="Trazado_998977" data-name="Trazado 998977" d="M8.655,18.46a8.632,8.632,0,1,1,8.332-6.4,8.647,8.647,0,0,1-8.332,6.4ZM8.646,2.591a7.241,7.241,0,1,0,1.877.249,7.241,7.241,0,0,0-1.877-.249Z" transform="translate(0.63 40.519)" fill-rule="evenodd"/>
      <path id="Trazado_998978" data-name="Trazado 998978" d="M29.243,21.812H1.13a.7.7,0,0,1-.7-.7V3.563A3.084,3.084,0,0,1,3.512.483h6.911a.7.7,0,0,1,.655.942l-.121.325L14.106,4.9l6.705-2.5-.726-.726A.7.7,0,0,1,20.579.482H26.86a3.085,3.085,0,0,1,3.081,3.081v17.55a.7.7,0,0,1-.7.7Zm-27.415-1.4H28.544V3.563A1.685,1.685,0,0,0,26.861,1.88H22.266l.3.3a.7.7,0,0,1-.25,1.149L14.173,6.365a.7.7,0,0,1-.738-.161L9.652,2.421a.7.7,0,0,1-.2-.541H3.512A1.685,1.685,0,0,0,1.829,3.563Z" transform="translate(14.627 16.352)" fill-rule="evenodd"/>
      <path id="Trazado_998979" data-name="Trazado 998979" d="M23.5,16.072H1.213a.7.7,0,0,1-.7-.7V1.264a.7.7,0,0,1,.7-.7H5.152a.7.7,0,0,1,.494,1.193l-.927.927a.857.857,0,0,0,0,1.21L6.29,5.467a.9.9,0,0,0,1.236,0l3.08-3.08a.7.7,0,0,1,.25-.161L15.2.609a.7.7,0,0,1,.244-.044H23.5a.7.7,0,0,1,.7.7V15.373a.7.7,0,0,1-.7.7Zm-21.592-1.4H22.8V1.963H15.569l-4.081,1.52L8.515,6.455a2.276,2.276,0,0,1-3.213,0L3.73,4.883A2.258,2.258,0,0,1,3.5,1.962H1.911V14.674h0Z" transform="translate(17.456 19.181)" fill-rule="evenodd"/>
      <path id="Trazado_998980" data-name="Trazado 998980" d="M31.1,7.079H3.384A3.017,3.017,0,0,1,.371,4.066V1.751a.7.7,0,0,1,.7-.7h32.34a.7.7,0,0,1,.7.7V4.066A3.016,3.016,0,0,1,31.1,7.079ZM1.768,2.45V4.066A1.617,1.617,0,0,0,3.384,5.681H31.1A1.617,1.617,0,0,0,32.71,4.066V2.45H1.768Z" transform="translate(12.575 35.714)" fill-rule="evenodd"/>
      <path id="Trazado_998981" data-name="Trazado 998981" d="M3.259,8.973A1.921,1.921,0,0,1,1.325,7.048V2.071A1.931,1.931,0,0,1,4.219.4L8.525,2.883a1.934,1.934,0,0,1,0,3.347L4.219,8.715A1.924,1.924,0,0,1,3.259,8.973Zm0-7.437a.534.534,0,0,0-.534.54V7.041a.532.532,0,0,0,.8.463L7.826,5.019a.537.537,0,0,0,0-.927L3.521,1.607a.524.524,0,0,0-.265-.07Z" transform="translate(44.94 4.725)" fill-rule="evenodd"/>
      <path id="Trazado_998982" data-name="Trazado 998982" d="M8.637,17.255a8.618,8.618,0,1,1,8.618-8.618A8.628,8.628,0,0,1,8.637,17.255Zm0-15.839a7.221,7.221,0,1,0,7.221,7.221A7.229,7.229,0,0,0,8.637,1.417Z" transform="translate(0.644 0.644)" fill-rule="evenodd"/>
      <path id="Trazado_998983" data-name="Trazado 998983" d="M6.532,6.844A8.542,8.542,0,0,1,.273,4.15.7.7,0,0,1,.25,3.215a8.274,8.274,0,0,1,12.564,0,.7.7,0,0,1-.023.935A8.541,8.541,0,0,1,6.532,6.844Zm-4.771-3.2a7.147,7.147,0,0,0,4.771,1.8,7.148,7.148,0,0,0,4.77-1.8,6.878,6.878,0,0,0-9.541,0Z" transform="translate(2.75 11.055)" fill-rule="evenodd"/>
      <path id="Trazado_998984" data-name="Trazado 998984" d="M3.858,7.549a3.7,3.7,0,1,1,3.7-3.7A3.7,3.7,0,0,1,3.858,7.549Zm0-6a2.3,2.3,0,1,0,2.3,2.3A2.3,2.3,0,0,0,3.858,1.551Z" transform="translate(5.423 5.229)" fill-rule="evenodd"/>
      <path id="Trazado_998985" data-name="Trazado 998985" d="M.856,8.951A.7.7,0,0,1,.362,7.758L6.583,1.537a.7.7,0,1,1,.988.988L1.35,8.746a.7.7,0,0,1-.494.2Z" transform="translate(5.315 45.205)" fill-rule="evenodd"/>
      <circle id="Elipse_11808" data-name="Elipse 11808" cx="0.943" cy="0.943" r="0.943" transform="translate(9.815 51.362)"/>
      <circle id="Elipse_11809" data-name="Elipse 11809" cx="0.943" cy="0.943" r="0.943" transform="translate(6.495 47.798)"/>
      <path id="Trazado_998986" data-name="Trazado 998986" d="M4.425,9.215a2.254,2.254,0,0,1-1.607-.664L1.246,6.979a2.256,2.256,0,0,1,0-3.186L4.34.7a.719.719,0,0,1,.988,0L9.111,4.483a.7.7,0,0,1,0,.988l-3.08,3.08a2.254,2.254,0,0,1-1.606.664Zm.409-7.032-2.6,2.6a.857.857,0,0,0,0,1.21L3.805,7.563a.9.9,0,0,0,1.236,0L7.628,4.977,4.833,2.183Z" transform="translate(19.94 17.085)" fill-rule="evenodd"/>
      <path id="Trazado_998987" data-name="Trazado 998987" d="M5.256,6.167a.7.7,0,0,1-.494-.2L1.055,2.255a.7.7,0,0,1,.007-1A3.32,3.32,0,0,1,5.757,5.954a.7.7,0,0,1-.5.213H5.256Zm-2.615-4.3,2.51,2.51a1.933,1.933,0,0,0-.417-2.091,1.963,1.963,0,0,0-2.092-.419Z" transform="translate(28.853 10.966)" fill-rule="evenodd"/>
      <path id="Trazado_998988" data-name="Trazado 998988" d="M7.295,8.065a.7.7,0,0,1-.372-.107l-5.886-3.7A.7.7,0,0,1,.914,3.176L3.252.838a.7.7,0,0,1,.866-.1L10,4.436a.7.7,0,0,1,.123,1.086L7.789,7.86a.7.7,0,0,1-.494.2ZM2.523,3.544,7.195,6.478,8.519,5.154,3.847,2.22Z" transform="translate(24.068 21.472)" fill-rule="evenodd"/>
      <path id="Trazado_998989" data-name="Trazado 998989" d="M1.7,3.91A.7.7,0,0,1,1.2,2.717L3.472.447a.7.7,0,1,1,.988.988L2.19,3.705a.7.7,0,0,1-.494.2Z" transform="translate(33.832 8.217)" fill-rule="evenodd"/>
      <path id="Trazado_998990" data-name="Trazado 998990" d="M1.654,4.781a.7.7,0,0,1-.7-.7V.872a.7.7,0,0,1,1.4,0v3.21A.7.7,0,0,1,1.654,4.781Z" transform="translate(32.415 5.887)" fill-rule="evenodd"/>
      <path id="Trazado_998991" data-name="Trazado 998991" d="M4.947,1.747H1.737a.7.7,0,0,1,0-1.4h3.21a.7.7,0,0,1,0,1.4Z" transform="translate(35.25 11.84)" fill-rule="evenodd"/>
      <path id="Trazado_998992" data-name="Trazado 998992" d="M9.733,2.233H4.622a.7.7,0,1,1,0-1.4H9.733a.7.7,0,0,1,0,1.4Zm-7.5,0H1.274a.7.7,0,0,1,0-1.4h.957a.7.7,0,1,1,0,1.4Z" transform="translate(19.526 28.362)" fill-rule="evenodd"/>
      <path id="Trazado_998993" data-name="Trazado 998993" d="M9.733,2.307H8.777a.7.7,0,1,1,0-1.4h.956a.7.7,0,0,1,0,1.4Zm-3.347,0H1.274a.7.7,0,0,1,0-1.4H6.385a.7.7,0,0,1,0,1.4Z" transform="translate(19.526 30.873)" fill-rule="evenodd"/>
      <path id="Trazado_998994" data-name="Trazado 998994" d="M14.28,10.334a7.243,7.243,0,0,0-5.115-8.86q-.135-.036-.27-.066A7.32,7.32,0,0,0,3.024,2.623q-.08.059-.158.119a7.234,7.234,0,1,0,11.326,7.9q.047-.15.088-.3Zm-10.592.744L9.91,4.858a.7.7,0,0,1,.988.988L4.676,12.067a.7.7,0,1,1-.988-.988ZM8.763,9.506a.932.932,0,1,1-.932.932A.932.932,0,0,1,8.763,9.506ZM4.526,6.858a.932.932,0,1,1,.932.932A.931.931,0,0,1,4.526,6.858Z" transform="translate(1.988 41.884)" fill="#ff6c6c" fill-rule="evenodd"/>
      <path id="Trazado_998995" data-name="Trazado 998995" d="M8.455,1.234a7.221,7.221,0,1,0,7.22,7.22A7.229,7.229,0,0,0,8.455,1.234Zm.629,3.445.955,1.963,2.162.3a.7.7,0,0,1,.389,1.195L11.017,9.653,11.4,11.8a.7.7,0,0,1-1.017.738L8.455,11.514,6.529,12.541A.7.7,0,0,1,5.512,11.8l.382-2.15L4.321,8.138A.7.7,0,0,1,4.71,6.944l2.162-.3.954-1.963a.7.7,0,0,1,1.257,0Z" transform="translate(41.891 41.892)" fill="#ffbe61" fill-rule="evenodd"/>
      <path id="Trazado_998996" data-name="Trazado 998996" d="M13,11.678A7.219,7.219,0,1,0,.059,7.28a7.184,7.184,0,0,0,1.5,4.4,8.275,8.275,0,0,1,3.194-1.9,3.7,3.7,0,1,1,5.058,0A8.266,8.266,0,0,1,13,11.678Z" transform="translate(2.002 2.002)" fill="#cfe7b4" fill-rule="evenodd"/>
      <path id="Trazado_998997" data-name="Trazado 998997" d="M2.5,4.794a2.3,2.3,0,1,0-2.3-2.3A2.3,2.3,0,0,0,2.5,4.794Z" transform="translate(6.78 6.586)" fill="#ffe5c1" fill-rule="evenodd"/>
      <path id="Trazado_998998" data-name="Trazado 998998" d="M9.665,2.287a6.878,6.878,0,0,0-9.536,0,7.191,7.191,0,0,0,4.14,1.776q.311.026.628.027t.642-.028A7.194,7.194,0,0,0,9.665,2.287Z" transform="translate(4.384 12.413)" fill="#8dbd57" fill-rule="evenodd"/>
      <path id="Trazado_998999" data-name="Trazado 998999" d="M1.364.719V5.684a.532.532,0,0,0,.8.463L6.468,3.662a.537.537,0,0,0,0-.927L2.163.25A.524.524,0,0,0,1.9.179a.534.534,0,0,0-.534.54Z" transform="translate(46.297 6.082)" fill="#ffe470" fill-rule="evenodd"/>
      <path id="Trazado_999000" data-name="Trazado 999000" d="M7.283,3.135,11.588,5.62a1.934,1.934,0,0,1,0,3.347L7.283,11.453A1.93,1.93,0,0,1,4.388,9.785V4.808a1.932,1.932,0,0,1,2.9-1.674ZM6.6,14.281a7.308,7.308,0,0,0,6.085-1.107q.109-.078.214-.16A7.234,7.234,0,1,0,1.586,5.074q-.055.172-.1.348A7.233,7.233,0,0,0,6.6,14.281Z" transform="translate(41.876 1.987)" fill="#eb5468" fill-rule="evenodd"/>
      <path id="Trazado_999001" data-name="Trazado 999001" d="M3.51,1.387,3.021,2.393a.7.7,0,0,1-.532.386L1.38,2.934l.806.777a.7.7,0,0,1,.2.625l-.2,1.1.987-.526a.7.7,0,0,1,.657,0l.987.526-.2-1.1a.7.7,0,0,1,.2-.625l.806-.777L4.532,2.78A.7.7,0,0,1,4,2.393L3.51,1.387Z" transform="translate(46.837 47.087)" fill="#ffe8b2" fill-rule="evenodd"/>
      <path id="Trazado_999002" data-name="Trazado 999002" d="M2.027,4.324H29.738a1.617,1.617,0,0,0,1.615-1.616V1.093H.411V2.708A1.617,1.617,0,0,0,2.027,4.324Z" transform="translate(13.932 37.072)" fill="#545353" fill-rule="evenodd"/>
      <path id="Trazado_999003" data-name="Trazado 999003" d="M.471,19.056H27.186V2.205A1.685,1.685,0,0,0,25.5.522H20.909l.3.3a.7.7,0,0,1-.25,1.149l-.17.063h4.183a.7.7,0,0,1,.7.7V16.843a.7.7,0,0,1-.7.7H2.684a.7.7,0,0,1-.7-.7V2.735a.7.7,0,0,1,.7-.7h3.65L7.847.522H2.154A1.685,1.685,0,0,0,.471,2.205V19.056Z" transform="translate(15.985 17.71)" fill="#7a7a7a" fill-rule="evenodd"/>
      <path id="Trazado_999004" data-name="Trazado 999004" d="M.555,13.317H21.448V.606H14.212l-4.081,1.52-.015.015,5.144,3.23a.7.7,0,0,1,.123,1.086L13.045,8.794a.7.7,0,0,1-.866.1L6.7,5.453A2.28,2.28,0,0,1,3.945,5.1L2.374,3.526A2.258,2.258,0,0,1,2.146.605H.554V13.317Zm10.59-1.373a.7.7,0,0,1-.7.7H9.491a.7.7,0,1,1,0-1.4h.956A.7.7,0,0,1,11.145,11.944Zm-4.046-.7a.7.7,0,0,1,0,1.4H1.988a.7.7,0,1,1,0-1.4H7.1Zm4.046-1.887a.7.7,0,0,1-.7.7H5.336a.7.7,0,1,1,0-1.4h5.111A.7.7,0,0,1,11.145,9.359Zm-7.5,0a.7.7,0,0,1-.7.7H1.988a.7.7,0,1,1,0-1.4h.957A.7.7,0,0,1,3.643,9.359Z" transform="translate(18.812 20.538)" fill="#ffffe6" fill-rule="evenodd"/>
      <path id="Trazado_999005" data-name="Trazado 999005" d="M.761,2,5.433,4.936,6.757,3.611,2.085.678Z" transform="translate(25.83 23.014)" fill="#fe6a8d" fill-rule="evenodd"/>
      <g id="Grupo_1164236" data-name="Grupo 1164236" transform="translate(21.924 12.692)">
        <path id="Trazado_999006" data-name="Trazado 999006" d="M3.686,5.932,6.023,3.594l.017-.017.231-.232L3.477.552,1.823,2.2l-.018.018L.878,3.15a.857.857,0,0,0,0,1.21L2.449,5.932a.9.9,0,0,0,1.237,0Z" transform="translate(-0.628 6.024)" fill="#ff4974" fill-rule="evenodd"/>
        <path id="Trazado_999007" data-name="Trazado 999007" d="M.9.5l2.51,2.51A1.933,1.933,0,0,0,2.994.921,1.963,1.963,0,0,0,.9.5Z" transform="translate(8.668 -0.363)" fill="#ff4974" fill-rule="evenodd"/>
      </g>
    </g>
  </g>
</svg>
