<svg xmlns="http://www.w3.org/2000/svg" xmlns:xlink="http://www.w3.org/1999/xlink" width="108" height="108" viewBox="0 0 108 108">
  <defs>
    <filter id="Trazado_904820" x="0" y="0" width="108" height="108" filterUnits="userSpaceOnUse">
      <feOffset dy="3" input="SourceAlpha"/>
      <feGaussianBlur stdDeviation="3" result="blur"/>
      <feFlood flood-opacity="0.161"/>
      <feComposite operator="in" in2="blur"/>
      <feComposite in="SourceGraphic"/>
    </filter>
  </defs>
  <g id="Grupo_1159947" data-name="Grupo 1159947" transform="translate(-200 -1756)">
    <g id="Icono" transform="translate(-415.101 -3244)">
      <g transform="matrix(1, 0, 0, 1, 615.1, 5000)" filter="url(#Trazado_904820)">
        <g id="Trazado_904820-2" data-name="Trazado 904820" transform="translate(9 6)" fill="#fbf2fb">
          <path d="M 45 88.5 C 39.12687683105469 88.5 33.43022537231445 87.35007476806641 28.06830024719238 85.08217620849609 C 22.88852500915527 82.89131164550781 18.23629951477051 79.75458526611328 14.2408504486084 75.75914764404297 C 10.24541282653809 71.76370239257812 7.108687400817871 67.11147308349609 4.917825222015381 61.93170166015625 C 2.649924993515015 56.56977462768555 1.5 50.87312316894531 1.5 45 C 1.5 39.12687683105469 2.649924993515015 33.43022537231445 4.917825222015381 28.06830024719238 C 7.108687400817871 22.88852500915527 10.24541282653809 18.23629951477051 14.2408504486084 14.2408504486084 C 18.23629951477051 10.24541282653809 22.88852500915527 7.108687400817871 28.06830024719238 4.917825222015381 C 33.43022537231445 2.649924993515015 39.12687683105469 1.5 45 1.5 C 50.87312316894531 1.5 56.56977462768555 2.649924993515015 61.93170166015625 4.917825222015381 C 67.11147308349609 7.108687400817871 71.76370239257812 10.24541282653809 75.75914764404297 14.2408504486084 C 79.75458526611328 18.23629951477051 82.89131164550781 22.88852500915527 85.08217620849609 28.06830024719238 C 87.35007476806641 33.43022537231445 88.5 39.12687683105469 88.5 45 C 88.5 50.87312316894531 87.35007476806641 56.56977462768555 85.08217620849609 61.93170166015625 C 82.89131164550781 67.11147308349609 79.75458526611328 71.76370239257812 75.75914764404297 75.75914764404297 C 71.76370239257812 79.75458526611328 67.11147308349609 82.89131164550781 61.93170166015625 85.08217620849609 C 56.56977462768555 87.35007476806641 50.87312316894531 88.5 45 88.5 Z" stroke="none"/>
          <path d="M 45 3 C 39.32871246337891 3 33.82865524291992 4.110054016113281 28.65262985229492 6.299339294433594 C 23.65165710449219 8.414573669433594 19.15968322753906 11.44334411621094 15.301513671875 15.301513671875 C 11.44334411621094 19.15968322753906 8.414573669433594 23.65165710449219 6.299339294433594 28.65262985229492 C 4.110054016113281 33.82865524291992 3 39.32871246337891 3 45 C 3 50.67128753662109 4.110054016113281 56.17134475708008 6.299339294433594 61.34737396240234 C 8.414573669433594 66.34834289550781 11.44334411621094 70.84031677246094 15.301513671875 74.698486328125 C 19.15968322753906 78.55665588378906 23.65165710449219 81.58542633056641 28.65262985229492 83.70066070556641 C 33.82865524291992 85.88994598388672 39.32871246337891 87 45 87 C 50.67128753662109 87 56.17134475708008 85.88994598388672 61.34737396240234 83.70066070556641 C 66.34834289550781 81.58542633056641 70.84031677246094 78.55665588378906 74.698486328125 74.698486328125 C 78.55665588378906 70.84031677246094 81.58542633056641 66.34834289550781 83.70066070556641 61.34737396240234 C 85.88994598388672 56.17134475708008 87 50.67128753662109 87 45 C 87 39.32871246337891 85.88994598388672 33.82865524291992 83.70066070556641 28.65262985229492 C 81.58542633056641 23.65165710449219 78.55665588378906 19.15968322753906 74.698486328125 15.301513671875 C 70.84031677246094 11.44334411621094 66.34834289550781 8.414573669433594 61.34737396240234 6.299339294433594 C 56.17134475708008 4.110054016113281 50.67128753662109 3 45 3 M 45 0 C 69.85281372070312 0 90 20.14718627929688 90 45 C 90 69.85281372070312 69.85281372070312 90 45 90 C 20.14718627929688 90 0 69.85281372070312 0 45 C 0 20.14718627929688 20.14718627929688 0 45 0 Z" stroke="none" fill="#e93b81"/>
        </g>
      </g>
    </g>
    <g id="resolucion-de-problemas_2_" data-name="resolucion-de-problemas (2)" transform="translate(197.312 1776.054)">
      <path id="Trazado_995049" data-name="Trazado 995049" d="M342.6,132h-6.022A10.228,10.228,0,0,1,332,135.981V142.6a.757.757,0,0,0,.757.757H342.6a.757.757,0,0,0,.757-.757v-9.842A.757.757,0,0,0,342.6,132Z" transform="translate(-265.826 -115.527)" fill="#cb97e7"/>
      <g id="Grupo_1159934" data-name="Grupo 1159934" transform="translate(66.172 17.317)">
        <path id="Trazado_995050" data-name="Trazado 995050" d="M335.992,148.525v-9.753A10.22,10.22,0,0,1,332,141.909v6.617a.757.757,0,0,0,.757.757h3.993A.757.757,0,0,1,335.992,148.525Z" transform="translate(-331.999 -138.772)" fill="#bd80e1"/>
      </g>
      <g id="Grupo_1159945" data-name="Grupo 1159945" transform="translate(29.206 0.936)">
        <path id="Trazado_995051" data-name="Trazado 995051" d="M108.809,273.834l2.139-5.82a14.615,14.615,0,0,1-13.891,0l2.139,5.82Z" transform="translate(-89.409 -235.505)" fill="#fff0ad"/>
        <path id="Trazado_995052" data-name="Trazado 995052" d="M104.453,273.834l-1.508-4.1a14.5,14.5,0,0,1-5.888-1.717l2.139,5.82Z" transform="translate(-89.41 -235.505)" fill="#ffe177"/>
        <path id="Trazado_995053" data-name="Trazado 995053" d="M126,393.588v1.947a1.872,1.872,0,0,0,1.872,1.872H130.8a1.872,1.872,0,0,0,1.872-1.872v-1.947Z" transform="translate(-114.74 -345.409)" fill="#02c7dd"/>
        <path id="Trazado_995054" data-name="Trazado 995054" d="M129.12,395.535v-1.947H126v1.947a1.872,1.872,0,0,0,1.872,1.872H130.8c.033,0,.065,0,.1-.005A1.87,1.87,0,0,1,129.12,395.535Z" transform="translate(-114.74 -345.409)" fill="#07b2cd"/>
        <path id="Trazado_995055" data-name="Trazado 995055" d="M113.43,362.995v3.318a.624.624,0,0,0,.624.624h8.557a.624.624,0,0,0,.624-.624v-3.318Z" transform="translate(-103.739 -318.633)" fill="#a6e7f0"/>
        <path id="Trazado_995056" data-name="Trazado 995056" d="M116.55,366.314V363h-3.12v3.319a.624.624,0,0,0,.624.624h3.12A.624.624,0,0,1,116.55,366.314Z" transform="translate(-103.739 -318.633)" fill="#6bd9e7"/>
        <path id="Trazado_995057" data-name="Trazado 995057" d="M58.452,53.3a10.207,10.207,0,0,1,.3-2.459,14.594,14.594,0,1,0,6.2,11.957A10.19,10.19,0,0,1,58.452,53.3Z" transform="translate(-35.77 -43.115)" fill="#ffe177"/>
        <g id="Grupo_1159935" data-name="Grupo 1159935" transform="translate(0 5.078)">
          <path id="Trazado_995058" data-name="Trazado 995058" d="M42.051,62.787A14.6,14.6,0,0,1,53.5,48.534a14.593,14.593,0,1,0,0,28.507A14.6,14.6,0,0,1,42.051,62.787Z" transform="translate(-35.769 -48.194)" fill="#ffd15b"/>
        </g>
        <g id="Grupo_1159936" data-name="Grupo 1159936" transform="translate(7.819 38.329)">
          <path id="Trazado_995059" data-name="Trazado 995059" d="M110.729,320.809H99.677a1.248,1.248,0,0,1-1.248-1.248V315.9a1.248,1.248,0,0,1,1.248-1.248h11.053a1.248,1.248,0,0,1,1.248,1.248v3.662A1.248,1.248,0,0,1,110.729,320.809Z" transform="translate(-98.429 -314.651)" fill="#eaf9fa"/>
        </g>
        <path id="Trazado_995060" data-name="Trazado 995060" d="M102.619,319.561V315.9a1.248,1.248,0,0,1,1.248-1.248H99.678A1.248,1.248,0,0,0,98.43,315.9v3.662a1.248,1.248,0,0,0,1.248,1.248h4.189A1.248,1.248,0,0,1,102.619,319.561Z" transform="translate(-90.611 -276.322)" fill="#d4f2f6"/>
        <g id="Grupo_1159937" data-name="Grupo 1159937" transform="translate(26.374 33.429)">
          <path id="Trazado_995061" data-name="Trazado 995061" d="M271.617,290.331a4.382,4.382,0,0,1-2.792-.76.375.375,0,0,0-.592.3v6a.624.624,0,0,1-.624.624h-6a.375.375,0,0,0-.3.592,4.4,4.4,0,1,1-7.248-.011.373.373,0,0,0-.311-.582h-6a.624.624,0,0,1-.624-.624v-4.713a.62.62,0,0,1,.672-.622,4.5,4.5,0,0,0,.7.012,4.4,4.4,0,0,0-.273-8.789q-.207,0-.41.019a.626.626,0,0,1-.689-.62V276.01a.624.624,0,0,1,.624-.624h4.913a.621.621,0,0,1,.623.638c0,.044,0,.088,0,.132a4.4,4.4,0,1,0,8.8,0q0-.066,0-.132a.621.621,0,0,1,.623-.638h4.913a.624.624,0,0,1,.624.624v6a.373.373,0,0,0,.582.311,4.4,4.4,0,1,1,2.8,8.009Z" transform="translate(-247.12 -275.386)" fill="#fe9738"/>
        </g>
        <g id="Grupo_1159938" data-name="Grupo 1159938" transform="translate(26.374 33.429)">
          <path id="Trazado_995062" data-name="Trazado 995062" d="M271.617,290.331a4.382,4.382,0,0,1-2.792-.76.375.375,0,0,0-.592.3v6a.624.624,0,0,1-.624.624h-6a.375.375,0,0,0-.3.592,4.4,4.4,0,1,1-7.248-.011.373.373,0,0,0-.311-.582h-6a.624.624,0,0,1-.624-.624v-4.713a.62.62,0,0,1,.672-.622,4.5,4.5,0,0,0,.7.012,4.4,4.4,0,0,0-.273-8.789q-.207,0-.41.019a.626.626,0,0,1-.689-.62V276.01a.624.624,0,0,1,.624-.624h4.913a.621.621,0,0,1,.623.638c0,.044,0,.088,0,.132a4.4,4.4,0,1,0,8.8,0q0-.066,0-.132a.621.621,0,0,1,.623-.638h4.913a.624.624,0,0,1,.624.624v6a.373.373,0,0,0,.582.311,4.4,4.4,0,1,1,2.8,8.009Z" transform="translate(-247.12 -275.386)" fill="#fe9738"/>
        </g>
        <g id="Grupo_1159941" data-name="Grupo 1159941" transform="translate(26.374 33.429)">
          <g id="Grupo_1159939" data-name="Grupo 1159939" transform="translate(0)">
            <path id="Trazado_995063" data-name="Trazado 995063" d="M247.807,281.785q.2-.019.41-.019a4.389,4.389,0,0,1,3.364,1.565v-7.319a.624.624,0,0,1,.624-.624h-4.464a.624.624,0,0,0-.624.624v5.153A.626.626,0,0,0,247.807,281.785Z" transform="translate(-247.118 -275.388)" fill="#fe860a"/>
          </g>
          <g id="Grupo_1159940" data-name="Grupo 1159940" transform="translate(0 13.603)">
            <path id="Trazado_995064" data-name="Trazado 995064" d="M251.582,391.284V384.4a4.4,4.4,0,0,1-3.091,1.563,4.478,4.478,0,0,1-.7-.012.62.62,0,0,0-.672.622v4.712a.624.624,0,0,0,.624.624h4.464a.624.624,0,0,1-.624-.624Z" transform="translate(-247.118 -384.398)" fill="#fe860a"/>
          </g>
        </g>
        <g id="Grupo_1159944" data-name="Grupo 1159944" transform="translate(22.682)">
          <g id="Grupo_1159942" data-name="Grupo 1159942">
            <circle id="Elipse_11783" data-name="Elipse 11783" cx="10.188" cy="10.188" r="10.188" fill="#05e39c"/>
          </g>
          <g id="Grupo_1159943" data-name="Grupo 1159943" transform="translate(0 0)">
            <path id="Trazado_995065" data-name="Trazado 995065" d="M222.8,17.688a10.192,10.192,0,0,1,7.557-9.844,10.189,10.189,0,1,0,0,19.687A10.191,10.191,0,0,1,222.8,17.688Z" transform="translate(-217.536 -7.5)" fill="#0ed290"/>
          </g>
        </g>
      </g>
      <g id="Grupo_1159946" data-name="Grupo 1159946" transform="translate(28.27 0)">
        <path id="Trazado_995066" data-name="Trazado 995066" d="M268.647,275.74a5.338,5.338,0,0,0-6.043-1.247v-5.046a1.562,1.562,0,0,0-1.56-1.56H256.13a1.569,1.569,0,0,0-1.121.474,1.54,1.54,0,0,0-.437,1.128c0,.034,0,.069,0,.1a3.463,3.463,0,0,1-6.925,0c0-.034,0-.069,0-.1a1.54,1.54,0,0,0-.438-1.128,1.569,1.569,0,0,0-1.121-.474h-4.913a1.562,1.562,0,0,0-1.56,1.56V274.6a1.559,1.559,0,0,0,.507,1.149,1.576,1.576,0,0,0,1.2.4c.107-.01.216-.015.324-.015a3.463,3.463,0,0,1,.216,6.919,3.563,3.563,0,0,1-.554-.01,1.545,1.545,0,0,0-1.185.395,1.568,1.568,0,0,0-.513,1.159v4.712a1.562,1.562,0,0,0,1.56,1.56h5.046a5.336,5.336,0,0,0,4.88,7.478c.126,0,.254,0,.381-.013A5.338,5.338,0,0,0,256,290.872h5.045a1.562,1.562,0,0,0,1.56-1.56v-5.045a5.335,5.335,0,0,0,6.043-8.527Zm-.446,3.887a3.465,3.465,0,0,1-3.211,3.207h0a3.433,3.433,0,0,1-2.2-.6,1.311,1.311,0,0,0-2.058,1.075V289h-5.689a1.311,1.311,0,0,0-1.075,2.058,3.463,3.463,0,1,1-5.707-.009,1.309,1.309,0,0,0-1.081-2.05h-5.689v-4.069c.164,0,.329,0,.493-.007a5.335,5.335,0,0,0-.493-10.656v-4.508h4.289a5.335,5.335,0,0,0,10.664,0h4.289v5.689a1.309,1.309,0,0,0,2.05,1.081,3.462,3.462,0,0,1,5.419,3.1Z" transform="translate(-213.245 -234.458)"/>
        <path id="Trazado_995067" data-name="Trazado 995067" d="M49.916,38.412,51.5,34.1a15.573,15.573,0,0,0,4.421-3.786.936.936,0,0,0-1.461-1.171,13.606,13.606,0,0,1-7.51,4.758V26.161h1.835a3.707,3.707,0,1,0-3.707-3.707V24.29H42.518V22.455a3.707,3.707,0,1,0-3.707,3.707h1.835V33.9a13.657,13.657,0,1,1,10.492-24.8,11.126,11.126,0,0,0,6.3,12.141,13.564,13.564,0,0,1-.925,4.359.936.936,0,1,0,1.742.684,15.407,15.407,0,0,0,1.016-4.388,11.139,11.139,0,0,0,5.961-.1v5.28a1.7,1.7,0,0,0,1.693,1.693H76.77a1.7,1.7,0,0,0,1.693-1.693V24.084a.936.936,0,0,0-1.872,0v2.808H67.107V21.043a11.2,11.2,0,0,0,4.144-3.636h5.34v2.309a.936.936,0,1,0,1.872,0V17.229a1.7,1.7,0,0,0-1.693-1.693H72.288A11.124,11.124,0,1,0,51.66,7.221,15.525,15.525,0,1,0,36.092,34.086l1.59,4.327a2.186,2.186,0,0,0-1.593,2.1v3.662a2.185,2.185,0,0,0,1.872,2.159v2.283a1.562,1.562,0,0,0,1.56,1.56h.009v.887a2.811,2.811,0,0,0,2.808,2.808h2.924a2.811,2.811,0,0,0,2.808-2.808v-.887h.009a1.562,1.562,0,0,0,1.56-1.56V46.333a2.185,2.185,0,0,0,1.872-2.159V40.513A2.186,2.186,0,0,0,49.916,38.412ZM46.952,22.455a1.835,1.835,0,1,1,1.835,1.835H46.952ZM62.077,1.872a9.253,9.253,0,1,1-9.253,9.253A9.263,9.263,0,0,1,62.077,1.872ZM46.952,35.816A15.441,15.441,0,0,0,49.1,35.21l-1.146,3.119h-1Zm-4.434-9.655H45.08V34.2c-.423.039-.851.06-1.281.06s-.859-.021-1.281-.061V26.161Zm0,9.922c.423.035.849.053,1.281.053s.857-.018,1.281-.053v2.245H42.518ZM38.812,24.29a1.835,1.835,0,1,1,1.835-1.835V24.29Zm1.835,11.525v2.514h-1L38.5,35.2A15.393,15.393,0,0,0,40.646,35.815ZM46.2,51.063a.937.937,0,0,1-.936.936H42.337a.937.937,0,0,1-.936-.936v-.887h4.8Zm3.44-6.888a.312.312,0,0,1-.312.312h-2.87a.936.936,0,0,0,0,1.872h1.31V48.3H39.833V46.358h2.255a.936.936,0,0,0,0-1.872H38.273a.312.312,0,0,1-.312-.312V40.513a.312.312,0,0,1,.312-.312H49.325a.312.312,0,0,1,.312.312Z" transform="translate(-28.27 0)"/>
        <path id="Trazado_995068" data-name="Trazado 995068" d="M254.744,67.332a.936.936,0,0,0,.7.333h.012a.936.936,0,0,0,.7-.315l6.131-6.917a.936.936,0,0,0-1.4-1.242L255.478,65.3l-3.49-4.144a.936.936,0,1,0-1.432,1.206Z" transform="translate(-222.626 -51.529)"/>
      </g>
    </g>
  </g>
</svg>
