<svg xmlns="http://www.w3.org/2000/svg" xmlns:xlink="http://www.w3.org/1999/xlink" width="108" height="108" viewBox="0 0 108 108">
  <defs>
    <filter id="Trazado_982547" x="0" y="0" width="108" height="108" filterUnits="userSpaceOnUse">
      <feOffset dy="3" input="SourceAlpha"/>
      <feGaussianBlur stdDeviation="3" result="blur"/>
      <feFlood flood-opacity="0.161"/>
      <feComposite operator="in" in2="blur"/>
      <feComposite in="SourceGraphic"/>
    </filter>
  </defs>
  <g id="Grupo_1164273" data-name="Grupo 1164273" transform="translate(-171 -249)">
    <g id="Grupo_1160147" data-name="Grupo 1160147" transform="translate(10 -1906)">
      <g id="Grupo_1153207" data-name="Grupo 1153207" transform="translate(0 703)">
        <g id="Grupo_1153117" data-name="Grupo 1153117" transform="translate(-93 939)">
          <g id="Grupo_1149598" data-name="Grupo 1149598" transform="translate(80 315)">
            <g id="Grupo_1148770" data-name="Grupo 1148770" transform="translate(-27 -2583)">
              <g id="Grupo_1146954" data-name="Grupo 1146954" transform="translate(-415 -1202)">
                <g transform="matrix(1, 0, 0, 1, 616, 3983)" filter="url(#Trazado_982547)">
                  <g id="Trazado_982547-2" data-name="Trazado 982547" transform="translate(9 6)" fill="#ebfefd">
                    <path d="M 45 88.5 C 39.12687683105469 88.5 33.43022537231445 87.35007476806641 28.06830024719238 85.08217620849609 C 22.88852500915527 82.89131164550781 18.23629951477051 79.75458526611328 14.2408504486084 75.75914764404297 C 10.24541282653809 71.76370239257812 7.108687400817871 67.11147308349609 4.917825222015381 61.93170166015625 C 2.649924993515015 56.56977462768555 1.5 50.87312316894531 1.5 45 C 1.5 39.12687683105469 2.649924993515015 33.43022537231445 4.917825222015381 28.06830024719238 C 7.108687400817871 22.88852500915527 10.24541282653809 18.23629951477051 14.2408504486084 14.2408504486084 C 18.23629951477051 10.24541282653809 22.88852500915527 7.108687400817871 28.06830024719238 4.917825222015381 C 33.43022537231445 2.649924993515015 39.12687683105469 1.5 45 1.5 C 50.87312316894531 1.5 56.56977462768555 2.649924993515015 61.93170166015625 4.917825222015381 C 67.11147308349609 7.108687400817871 71.76370239257812 10.24541282653809 75.75914764404297 14.2408504486084 C 79.75458526611328 18.23629951477051 82.89131164550781 22.88852500915527 85.08217620849609 28.06830024719238 C 87.35007476806641 33.43022537231445 88.5 39.12687683105469 88.5 45 C 88.5 50.87312316894531 87.35007476806641 56.56977462768555 85.08217620849609 61.93170166015625 C 82.89131164550781 67.11147308349609 79.75458526611328 71.76370239257812 75.75914764404297 75.75914764404297 C 71.76370239257812 79.75458526611328 67.11147308349609 82.89131164550781 61.93170166015625 85.08217620849609 C 56.56977462768555 87.35007476806641 50.87312316894531 88.5 45 88.5 Z" stroke="none"/>
                    <path d="M 45 3 C 39.32871246337891 3 33.82865524291992 4.110054016113281 28.65262985229492 6.299339294433594 C 23.65165710449219 8.414573669433594 19.15968322753906 11.44334411621094 15.301513671875 15.301513671875 C 11.44334411621094 19.15968322753906 8.414573669433594 23.65165710449219 6.299339294433594 28.65262985229492 C 4.110054016113281 33.82865524291992 3 39.32871246337891 3 45 C 3 50.67128753662109 4.110054016113281 56.17134475708008 6.299339294433594 61.34737396240234 C 8.414573669433594 66.34834289550781 11.44334411621094 70.84031677246094 15.301513671875 74.698486328125 C 19.15968322753906 78.55665588378906 23.65165710449219 81.58542633056641 28.65262985229492 83.70066070556641 C 33.82865524291992 85.88994598388672 39.32871246337891 87 45 87 C 50.67128753662109 87 56.17134475708008 85.88994598388672 61.34737396240234 83.70066070556641 C 66.34834289550781 81.58542633056641 70.84031677246094 78.55665588378906 74.698486328125 74.698486328125 C 78.55665588378906 70.84031677246094 81.58542633056641 66.34834289550781 83.70066070556641 61.34737396240234 C 85.88994598388672 56.17134475708008 87 50.67128753662109 87 45 C 87 39.32871246337891 85.88994598388672 33.82865524291992 83.70066070556641 28.65262985229492 C 81.58542633056641 23.65165710449219 78.55665588378906 19.15968322753906 74.698486328125 15.301513671875 C 70.84031677246094 11.44334411621094 66.34834289550781 8.414573669433594 61.34737396240234 6.299339294433594 C 56.17134475708008 4.110054016113281 50.67128753662109 3 45 3 M 45 0 C 69.85281372070312 0 90 20.14718627929688 90 45 C 90 69.85281372070312 69.85281372070312 90 45 90 C 20.14718627929688 90 0 69.85281372070312 0 45 C 0 20.14718627929688 20.14718627929688 0 45 0 Z" stroke="none" fill="#268985"/>
                  </g>
                </g>
              </g>
            </g>
          </g>
        </g>
      </g>
    </g>
    <g id="Filled_outline" data-name="Filled outline" transform="translate(179.022 252.022)">
      <path id="Trazado_999203" data-name="Trazado 999203" d="M176.006,55.013l-.33,2.967-.222,2h-27.98l-.222-2-.33-2.967a15.376,15.376,0,0,1,1.149-7.753,15.39,15.39,0,0,0,1.224-6.824l-.174-3.457a12.358,12.358,0,1,1,24.685,0l-.174,3.457a15.39,15.39,0,0,0,1.224,6.824,15.367,15.367,0,0,1,1.149,7.753Z" transform="translate(-114.487 -7.005)" fill="#8f4d2e"/>
      <path id="Trazado_999204" data-name="Trazado 999204" d="M256.892,55.008l-.33,2.967H245.348V46.982l2-4V34.991a11,11,0,0,0-8.087-10.6,12.371,12.371,0,0,1,15.433,12.586l-.174,3.457a15.39,15.39,0,0,0,1.224,6.824,15.367,15.367,0,0,1,1.149,7.753Z" transform="translate(-195.373 -7)" fill="#82462a"/>
      <path id="Trazado_999205" data-name="Trazado 999205" d="M220.391,223.994a1.4,1.4,0,0,1-1.4-1.4V216H211v6.6a1.4,1.4,0,0,1-1.4,1.4H208v6h13.99v-6Z" transform="translate(-168.018 -175.018)" fill="#fec9a3"/>
      <path id="Trazado_999206" data-name="Trazado 999206" d="M236.6,221a5.483,5.483,0,0,0,3.395-1.225V216H232v3.771A5.483,5.483,0,0,0,235.395,221Z" transform="translate(-189.02 -175.018)" fill="#feb784"/>
      <path id="Trazado_999207" data-name="Trazado 999207" d="M209.987,86v5a8.993,8.993,0,0,1-17.987,0V86a13.557,13.557,0,0,0,4.609-5.221L197,80l.567.473A24.95,24.95,0,0,0,209.987,86Z" transform="translate(-154.016 -56.006)" fill="#fec9a3"/>
      <path id="Trazado_999208" data-name="Trazado 999208" d="M285.031,121.6v5a9,9,0,0,1-7.275,8.829,10.952,10.952,0,0,0,3.278-7.83V120.69a24.92,24.92,0,0,0,4,.913Z" transform="translate(-229.06 -91.613)" fill="#fec093"/>
      <path id="Trazado_999209" data-name="Trazado 999209" d="M224,312h9.993v6.995H224Z" transform="translate(-182.019 -259.027)" fill="#e0e0de"/>
      <path id="Trazado_999210" data-name="Trazado 999210" d="M123.283,305.94a3.033,3.033,0,0,1-3.369-2.012l-6.6-12.382a7.782,7.782,0,0,1-1.394,7.441v7.994H93.933v-7.994a7.794,7.794,0,0,1-1.379-7.533l-6.708,12.475a3.032,3.032,0,1,1-5.757-1.9l7.337-18.263A5.994,5.994,0,0,1,92.99,280h3.941l6,10.992,6-10.992h3.926a6,6,0,0,1,5.571,3.781l7.253,18.243a3.034,3.034,0,0,1-2.39,3.916Z" transform="translate(-55.949 -231.024)" fill="#ec8c8c"/>
      <path id="Trazado_999211" data-name="Trazado 999211" d="M74.16,393.369,74.881,384h6v9.627a3.363,3.363,0,1,1-6.716-.258Z" transform="translate(-50.887 -322.033)" fill="#f59898"/>
      <path id="Trazado_999212" data-name="Trazado 999212" d="M33.346,266.891a1.944,1.944,0,0,0-1.267,2.755l.915,1.829H29.412a6,6,0,0,1-2.681-.633l-1-.5A1.2,1.2,0,0,0,24,271.417v2.82a2,2,0,0,0,1.1,1.788l1.626.813a6,6,0,0,0,2.681.633h7.578v-6l-1.368-3.421A1.944,1.944,0,0,0,33.346,266.891Z" transform="translate(-7.001 -219.501)" fill="#fec9a3"/>
      <path id="Trazado_999213" data-name="Trazado 999213" d="M80,352h6v4H80Z" transform="translate(-56.006 -294.031)" fill="#e0e0de"/>
      <path id="Trazado_999214" data-name="Trazado 999214" d="M223.651,309.65a3.033,3.033,0,0,1-3.369-2.012l-6.6-12.382a7.782,7.782,0,0,1-1.394,7.441v7.994H194.63c8.248-5.386,15.206-12.221,21.047-26.451a5.986,5.986,0,0,1,3.11,3.251l7.253,18.243a3.034,3.034,0,0,1-2.39,3.916Z" transform="translate(-156.318 -234.734)" fill="#e07f7f"/>
      <path id="Trazado_999215" data-name="Trazado 999215" d="M305.993,351.988l-9.993-2V336l9.993,2Z" transform="translate(-245.026 -280.029)" fill="#a36548"/>
      <path id="Trazado_999216" data-name="Trazado 999216" d="M408,351.988l9.993-2V336L408,338Z" transform="translate(-343.036 -280.029)" fill="#8f4d2e"/>
      <path id="Trazado_999217" data-name="Trazado 999217" d="M376,352h4v13.99h-4Z" transform="translate(-315.033 -294.031)" fill="#95573a"/>
      <path id="Trazado_999218" data-name="Trazado 999218" d="M307.991,317a3.539,3.539,0,0,0-2.957-3.491L296,312v3l9.993,2h2a3.539,3.539,0,0,1,2.957-3.491L319.983,312v3l-9.993,2Z" transform="translate(-245.026 -259.027)" fill="#d4bd81"/>
      <path id="Trazado_999219" data-name="Trazado 999219" d="M437.161,421.9l-4,.666a1,1,0,0,1-1.164-.986v-3.714a1.3,1.3,0,0,1,1.087-1.283l3.394-.566A1.3,1.3,0,0,1,438,417.3v3.614a1,1,0,0,1-.835.986Z" transform="translate(-364.038 -350.038)" fill="#fec9a3"/>
      <path id="Trazado_999220" data-name="Trazado 999220" d="M217.5,136a1.5,1.5,0,1,0,1.5,1.5A1.5,1.5,0,0,0,217.5,136Z" transform="translate(-175.018 -105.011)"/>
      <path id="Trazado_999221" data-name="Trazado 999221" d="M289.5,136a1.5,1.5,0,1,0,1.5,1.5A1.5,1.5,0,0,0,289.5,136Z" transform="translate(-238.025 -105.011)"/>
      <path id="Trazado_999222" data-name="Trazado 999222" d="M243,177a1,1,0,0,1-1-1h-2a3,3,0,0,0,6,0h-2A1,1,0,0,1,243,177Z" transform="translate(-196.02 -140.015)"/>
      <path id="Trazado_999223" data-name="Trazado 999223" d="M75.6,52.211a1,1,0,0,0-.81-.223l-9.034,1.506a4.547,4.547,0,0,0-1.674.634L63.4,52.389a6.656,6.656,0,0,0-1.147-1.914l.261-2.363a17.312,17.312,0,0,0,.105-1.813,16.309,16.309,0,0,0-1.33-6.439,14.434,14.434,0,0,1-1.14-6.383l.17-3.459c.01-.218.021-.443.021-.667a13.358,13.358,0,1,0-26.7.668l.169,3.447c.01.257.019.5.019.741a14.245,14.245,0,0,1-1.158,5.652,16.329,16.329,0,0,0-1.224,8.259l.26,2.33a6.784,6.784,0,0,0-.791,1.144l-1.364-3.41a2.943,2.943,0,1,0-5.365,2.409l.192.382H22.412a5.021,5.021,0,0,1-2.234-.527l-1-.5A2.2,2.2,0,0,0,16,51.915v2.82a2.981,2.981,0,0,0,1.657,2.681l1.626.813a7.03,7.03,0,0,0,3.128.738h.583v2.959l-.718,9.332a4.362,4.362,0,0,0,4.35,4.7q.111,0,.221-.006c.064,0,.127.005.191.005a4.022,4.022,0,0,0,3.779-2.643l4.561-8.481a8.74,8.74,0,0,0,1.607,3.479v7.644h2V67.962a1,1,0,0,0-.232-.64,6.813,6.813,0,0,1,.871-9.585L38.343,56.2A8.808,8.808,0,0,0,37.1,57.47a1.028,1.028,0,0,0-.1.125h0l-.018.031-.012.022a8.75,8.75,0,0,0-1.3,2.429l-4.678,8.7V56.634l1.42-3.536a4.789,4.789,0,0,1,1.052-1.613,5.057,5.057,0,0,1,3.584-1.51h3.344L46.1,60.447a1,1,0,0,0,1.754,0l2.121-3.888v13.4a1,1,0,0,0,.8.98l4.193.839v4.177h2V72.179l3.823.764c.025,0,.141.016.174.016h1.89l.192.357a4.048,4.048,0,0,0,3.793,2.64A3.763,3.763,0,0,0,67.5,75.9a4.05,4.05,0,0,0,3.128-2.609l2.658-.443a1.99,1.99,0,0,0,1.665-1.869l.2-.04a1,1,0,0,0,.8-.98V52.973a1,1,0,0,0-.353-.762ZM42.552,49.769a2.4,2.4,0,0,0,1.428-2.192V44.519a10,10,0,0,0,6,0v3.058A2.4,2.4,0,0,0,51.4,49.768l-1.2,2.206H43.755Zm4.425-6.788a8,8,0,0,1-7.994-7.994V30.512a14.6,14.6,0,0,0,4.325-4.951,25.884,25.884,0,0,0,11.664,5.28v4.144A8,8,0,0,1,46.977,42.98Zm13.5,8.522.018.019a4.631,4.631,0,0,1,1.037,1.6l.429,1.084a4.545,4.545,0,0,0-1.793-.712l-7.815-1.3,1.208-2.215H56.9A4.951,4.951,0,0,1,60.482,51.5Zm.584,5.468-4.547-.909-4.547-.909v-1l7.871,1.312a2.531,2.531,0,0,1,1.92,1.506Zm5.021-1.506,7.87-1.312v1l-4.7.94-4.392.878h-.7a2.531,2.531,0,0,1,1.919-1.506Zm-45.91.978-1.626-.813A.994.994,0,0,1,18,54.736v-2.82a.2.2,0,0,1,.289-.179l1,.5a7.03,7.03,0,0,0,3.128.738h3.581a1,1,0,0,0,.894-1.446l-.915-1.83a.945.945,0,1,1,1.722-.773l1.3,3.242v4.8H22.412a5.021,5.021,0,0,1-2.234-.527Zm8.813,2.526v2h-4v-2ZM24.27,71.413l.65-8.447H28.99v8.628A2.365,2.365,0,0,1,26.8,73.949a1.019,1.019,0,0,0-.112.006c-.02,0-.039,0-.059,0a2.364,2.364,0,0,1-2.357-2.545ZM37,57.6a1,1,0,0,1,.064-.077L37,57.6Zm-3.455-8.675-.115-1.027a14.327,14.327,0,0,1,1.074-7.247,16.232,16.232,0,0,0,1.32-6.44c0-.279-.01-.553-.021-.829l-.17-3.458a11.359,11.359,0,1,1,22.7-.57c0,.176-.009.368-.019.57l-.17,3.455a16.44,16.44,0,0,0,1.3,7.269A14.322,14.322,0,0,1,60.617,46.3a15.31,15.31,0,0,1-.094,1.6l-.114,1.03a6.989,6.989,0,0,0-3.51-.95H52.373a.405.405,0,0,1-.4-.4V43.635a10,10,0,0,0,5-8.648v-5A1,1,0,0,0,56.112,29a23.892,23.892,0,0,1-11.925-5.3l-.567-.473a1,1,0,0,0-1.534.321l-.387.774a12.589,12.589,0,0,1-4.27,4.837,1,1,0,0,0-.445.832v5a10,10,0,0,0,5,8.648v3.943a.405.405,0,0,1-.4.4H37.045a7.04,7.04,0,0,0-3.5.944Zm13.432,8.96-2.132-3.909h4.264Zm5-.691,7.994,1.6V70.74l-7.994-1.6Zm9.993,1.779h2V70.96h-2Zm5.192,14.964a1.788,1.788,0,0,1-.316.025,2.047,2.047,0,0,1-1.761-1.007l.056-.008.022,0h.008l2.054-.411a1.972,1.972,0,0,0,1.006.876A2.083,2.083,0,0,1,67.159,73.933Zm5.8-3.055-4,.666V67.83a.3.3,0,0,1,.252-.3l3.394-.566a.327.327,0,0,1,.051,0,.3.3,0,0,1,.3.3v3.613ZM72.279,65l-3.394.566a2.293,2.293,0,0,0-1.922,2.269v2.711l-1,.2V58.789l7.994-1.6v8.179A2.293,2.293,0,0,0,72.279,65Z" transform="translate(0)"/>
    </g>
  </g>
</svg>
