<svg xmlns="http://www.w3.org/2000/svg" xmlns:xlink="http://www.w3.org/1999/xlink" width="110" height="110" viewBox="0 0 110 110">
  <defs>
    <filter id="Trazado_982547" x="0" y="0" width="110" height="110" filterUnits="userSpaceOnUse">
      <feOffset dy="3" input="SourceAlpha"/>
      <feGaussianBlur stdDeviation="3" result="blur"/>
      <feFlood flood-opacity="0.161"/>
      <feComposite operator="in" in2="blur"/>
      <feComposite in="SourceGraphic"/>
    </filter>
  </defs>
  <g id="Grupo_1160022" data-name="Grupo 1160022" transform="translate(-800 -3796)">
    <g id="Grupo_1159364" data-name="Grupo 1159364" transform="translate(0 -542)">
      <g id="Grupo_1157015" data-name="Grupo 1157015" transform="translate(0 3549)">
        <g id="Grupo_1155792" data-name="Grupo 1155792" transform="translate(-1 -3894.666)">
          <g id="Grupo_1154703" data-name="Grupo 1154703" transform="translate(0 1465.666)">
            <g id="Grupo_1150789" data-name="Grupo 1150789" transform="translate(3 2320)">
              <g id="Grupo_1154212" data-name="Grupo 1154212" transform="translate(-236 -5809)">
                <g id="Grupo_1152583" data-name="Grupo 1152583" transform="translate(1043 6713)">
                  <g id="Grupo_1146973" data-name="Grupo 1146973" transform="translate(0 0)">
                    <g id="Grupo_1146954" data-name="Grupo 1146954">
                      <g transform="matrix(1, 0, 0, 1, -9, -6)" filter="url(#Trazado_982547)">
                        <g id="Trazado_982547-2" data-name="Trazado 982547" transform="translate(9 6)" fill="#fceaf1">
                          <path d="M 46 90.49987030029297 C 39.99187850952148 90.49987030029297 34.16426849365234 89.32350921630859 28.67905426025391 87.00345611572266 C 23.38019943237305 84.76224517822266 18.62104034423828 81.55341339111328 14.53374671936035 77.46613311767578 C 10.44646644592285 73.37885284423828 7.237639904022217 68.61969757080078 4.996413230895996 63.32085418701172 C 2.676359891891479 57.83565521240234 1.5 52.008056640625 1.5 45.99993515014648 C 1.5 39.99181365966797 2.676359891891479 34.16421508789062 4.996413230895996 28.67901420593262 C 7.237639904022217 23.38017463684082 10.44646644592285 18.62101554870605 14.53374671936035 14.53373527526855 C 18.62104034423828 10.44645500183105 23.38019943237305 7.23762845993042 28.67905426025391 4.996415138244629 C 34.16426849365234 2.676361799240112 39.99187850952148 1.500001788139343 46 1.500001788139343 C 52.00812149047852 1.500001788139343 57.83573150634766 2.676361799240112 63.32094573974609 4.996415138244629 C 68.61979675292969 7.23762845993042 73.37895965576172 10.44645500183105 77.46625518798828 14.53373527526855 C 81.55353546142578 18.62101554870605 84.76235961914062 23.38017463684082 87.00358581542969 28.67901420593262 C 89.32363891601562 34.16421508789062 90.5 39.99181365966797 90.5 45.99993515014648 C 90.5 52.008056640625 89.32363891601562 57.83565521240234 87.00358581542969 63.32085418701172 C 84.76235961914062 68.61969757080078 81.55353546142578 73.37885284423828 77.46625518798828 77.46613311767578 C 73.37895965576172 81.55341339111328 68.61979675292969 84.76224517822266 63.32094573974609 87.00345611572266 C 57.83573150634766 89.32350921630859 52.00812149047852 90.49987030029297 46 90.49987030029297 Z" stroke="none"/>
                          <path d="M 46 2.999992370605469 C 40.1937141418457 2.999992370605469 34.56269836425781 4.136489868164062 29.26337051391602 6.377906799316406 C 24.14332580566406 8.543502807617188 19.54441070556641 11.64437866210938 15.59439849853516 15.59437561035156 C 11.64440155029297 19.54439544677734 8.54351806640625 24.14329528808594 6.377914428710938 29.26333618164062 C 4.136497497558594 34.56264877319336 3 40.19366455078125 3 45.99993515014648 C 3 51.80620574951172 4.136497497558594 57.43720626831055 6.377914428710938 62.73651885986328 C 8.54351806640625 67.8565673828125 11.64440155029297 72.45545959472656 15.59439849853516 76.40547943115234 C 19.54441070556641 80.35547637939453 24.14332580566406 83.45635223388672 29.26337051391602 85.6219482421875 C 34.56269836425781 87.86336517333984 40.1937141418457 88.99986267089844 46 88.99986267089844 C 51.8062858581543 88.99986267089844 57.43730163574219 87.86336517333984 62.73661422729492 85.6219482421875 C 67.85667419433594 83.45635223388672 72.45557403564453 80.35547637939453 76.40558624267578 76.40547943115234 C 80.35559844970703 72.45545959472656 83.45647430419922 67.8565673828125 85.6220703125 62.73651885986328 C 87.86350250244141 57.43720626831055 89 51.80620574951172 89 45.99993515014648 C 89 40.19366455078125 87.86350250244141 34.56264877319336 85.6220703125 29.26333618164062 C 83.45647430419922 24.14329528808594 80.35559844970703 19.54439544677734 76.40558624267578 15.59437561035156 C 72.45557403564453 11.64437866210938 67.85667419433594 8.543502807617188 62.73661422729492 6.377906799316406 C 57.43730163574219 4.136489868164062 51.8062858581543 2.999992370605469 46 2.999992370605469 M 46 -7.62939453125e-06 C 71.40509033203125 -7.62939453125e-06 92 20.59486389160156 92 45.99993515014648 C 92 71.40499114990234 71.40509033203125 91.99986267089844 46 91.99986267089844 C 20.59490203857422 91.99986267089844 0 71.40499114990234 0 45.99993515014648 C 0 20.59486389160156 20.59490203857422 -7.62939453125e-06 46 -7.62939453125e-06 Z" stroke="none" fill="#e93b81"/>
                        </g>
                      </g>
                    </g>
                  </g>
                </g>
              </g>
            </g>
          </g>
        </g>
      </g>
    </g>
    <g id="idea-genial" transform="translate(826.034 3819.034)">
      <g id="Grupo_1160020" data-name="Grupo 1160020" transform="translate(1.902 1.902)">
        <g id="Grupo_1160000" data-name="Grupo 1160000" transform="translate(36.085 41.498)">
          <path id="Trazado_995183" data-name="Trazado 995183" d="M47.413,50.517A11.048,11.048,0,0,1,49.5,49.389L52.825,48a9.534,9.534,0,0,1,7.217,9.247V60.63H42a12.1,12.1,0,0,1,2.2-6.973A11.954,11.954,0,0,1,47.413,50.517Z" transform="translate(-42 -48)" fill="#e6e9ed"/>
        </g>
        <g id="Grupo_1160001" data-name="Grupo 1160001" transform="translate(15.868 42.671)">
          <path id="Trazado_995184" data-name="Trazado 995184" d="M42.008,53.784a12.1,12.1,0,0,0-2.2,6.973H21.764A12.121,12.121,0,0,0,19.59,53.82a10.23,10.23,0,0,1,3.166-3.266A10.029,10.029,0,0,1,25.634,49.3l1.543,6.946,3.608-3.608,3.608,3.608L35.936,49.3a9.9,9.9,0,0,1,2.824,1.227,10.012,10.012,0,0,1,3.148,3.184Z" transform="translate(-19.59 -49.3)" fill="#4fc1e9"/>
        </g>
        <g id="Grupo_1160002" data-name="Grupo 1160002" transform="translate(27.063 42.391)">
          <path id="Trazado_995185" data-name="Trazado 995185" d="M37.151,49.27l-1.543,6.946L32,52.607l3.608-3.617A9.506,9.506,0,0,1,37.151,49.27Z" transform="translate(-32 -48.99)" fill="#3bafda"/>
        </g>
        <g id="Grupo_1160003" data-name="Grupo 1160003" transform="translate(21.912 42.391)">
          <path id="Trazado_995186" data-name="Trazado 995186" d="M27.833,48.99l3.608,3.617-3.608,3.608L26.29,49.27a9.506,9.506,0,0,1,1.543-.28Z" transform="translate(-26.29 -48.99)" fill="#3bafda"/>
        </g>
        <g id="Grupo_1160004" data-name="Grupo 1160004" transform="translate(0 41.498)">
          <path id="Trazado_995187" data-name="Trazado 995187" d="M7.413,60.63H2V57.247A9.543,9.543,0,0,1,9.217,48l.9,3.608,4.511,2.706L16,51.581a11.555,11.555,0,0,1,1.867,2.111,12.121,12.121,0,0,1,2.174,6.937Z" transform="translate(-2 -48)" fill="#b4dd7f"/>
        </g>
        <g id="Grupo_1160005" data-name="Grupo 1160005" transform="translate(7.217 41.498)">
          <path id="Trazado_995188" data-name="Trazado 995188" d="M15.413,50.517a9.636,9.636,0,0,1,1.371,1.064l-1.371,2.733L10.9,51.608,10,48l3.329,1.389A11.048,11.048,0,0,1,15.413,50.517Z" transform="translate(-10 -48)" fill="#a0d468"/>
        </g>
        <g id="Grupo_1160006" data-name="Grupo 1160006" transform="translate(0 25.26)">
          <path id="Trazado_995189" data-name="Trazado 995189" d="M9.217,39.021v4.511l-1.055-.523A11.175,11.175,0,0,1,2,33.031V30H9.217v4.511a1.81,1.81,0,0,0-1.8,1.8v.153a1.81,1.81,0,0,0,.532,1.281Z" transform="translate(-2 -30)" fill="#656d78"/>
        </g>
        <g id="Grupo_1160007" data-name="Grupo 1160007" transform="translate(46.91 25.26)">
          <path id="Trazado_995190" data-name="Trazado 995190" d="M61.217,30v3.031a11.175,11.175,0,0,1-6.161,9.977L54,43.532V39.021l1.272-1.272a1.81,1.81,0,0,0,.532-1.281v-.153a1.81,1.81,0,0,0-1.8-1.8V30Z" transform="translate(-54 -30)" fill="#fcd770"/>
        </g>
        <g id="Grupo_1160008" data-name="Grupo 1160008" transform="translate(36.085 25.26)">
          <path id="Trazado_995191" data-name="Trazado 995191" d="M47.413,43.532H46.88A3.08,3.08,0,0,1,43.8,40.456V38.119l-.523-.262A2.316,2.316,0,0,1,42,35.792a2.214,2.214,0,0,1,.117-.731L43.8,30h9.021v4.511a1.81,1.81,0,0,1,1.8,1.8v.153a1.81,1.81,0,0,1-.532,1.281l-1.272,1.272v7.217L49.5,47.627a11.048,11.048,0,0,0-2.084,1.128Z" transform="translate(-42 -30)" fill="#f0d0b4"/>
        </g>
        <g id="Grupo_1160009" data-name="Grupo 1160009" transform="translate(23.455 39.685)">
          <path id="Trazado_995192" data-name="Trazado 995192" d="M34.315,45.99l.9,2.706-3.608,3.617L28,48.7l.9-2.706Z" transform="translate(-28 -45.99)" fill="#f0d0b4"/>
        </g>
        <g id="Grupo_1160010" data-name="Grupo 1160010" transform="translate(19.847 25.26)">
          <path id="Trazado_995193" data-name="Trazado 995193" d="M38.434,35.792v4.123a4.512,4.512,0,0,1-4.511,4.511H28.511A4.512,4.512,0,0,1,24,39.914V30H38.434Z" transform="translate(-24 -30)" fill="#f0d0b4"/>
        </g>
        <g id="Grupo_1160011" data-name="Grupo 1160011" transform="translate(5.413 25.26)">
          <path id="Trazado_995194" data-name="Trazado 995194" d="M15.217,43.532v5.223a11.048,11.048,0,0,0-2.084-1.128L9.8,46.238V39.021L8.532,37.749A1.81,1.81,0,0,1,8,36.468v-.153a1.81,1.81,0,0,1,1.8-1.8V30h9.021l1.687,5.061a2.214,2.214,0,0,1,.117.731,2.316,2.316,0,0,1-1.281,2.066l-.523.262v2.336a3.08,3.08,0,0,1-3.076,3.076Z" transform="translate(-8 -30)" fill="#f0d0b4"/>
        </g>
        <g id="Grupo_1160012" data-name="Grupo 1160012" transform="translate(2.706 9.022)">
          <path id="Trazado_995195" data-name="Trazado 995195" d="M10.413,12V28.238H5V12Z" transform="translate(-5 -12)" fill="#69d6f4"/>
        </g>
        <g id="Grupo_1160013" data-name="Grupo 1160013" transform="translate(8.119 9.022)">
          <path id="Trazado_995196" data-name="Trazado 995196" d="M11,12h5.413V28.238H11Z" transform="translate(-11 -12)" fill="#ef7385"/>
        </g>
        <g id="Grupo_1160014" data-name="Grupo 1160014" transform="translate(2.706 0)">
          <path id="Trazado_995197" data-name="Trazado 995197" d="M11.721,2.8l4.1,8.218H5L9.1,2.8a1.467,1.467,0,0,1,2.616,0Z" transform="translate(-5 -2)" fill="#969faa"/>
        </g>
        <g id="Grupo_1160015" data-name="Grupo 1160015" transform="translate(22.553 21.651)">
          <path id="Trazado_995198" data-name="Trazado 995198" d="M36.021,26v3.608H27V26h9.021Z" transform="translate(-27 -26)" fill="#aab2bd"/>
        </g>
        <g id="Grupo_1160016" data-name="Grupo 1160016" transform="translate(17.143)">
          <path id="Trazado_995199" data-name="Trazado 995199" d="M29.778,2.063A9.921,9.921,0,0,0,24.645,19.6a4.644,4.644,0,0,1,1.768,3.572v.478h9.021v-.478a4.569,4.569,0,0,1,1.732-3.545A9.919,9.919,0,0,0,29.778,2.063Z" transform="translate(-21.003 -1.999)" fill="#ffeaa7"/>
        </g>
        <g id="Grupo_1160017" data-name="Grupo 1160017" transform="translate(28.633 8.12)">
          <path id="Trazado_995200" data-name="Trazado 995200" d="M37.051,11.532a1.764,1.764,0,0,1,.532,1.272,1.81,1.81,0,0,1-1.8,1.8H33.74l.126-1.922A1.8,1.8,0,0,1,35.662,11h.117A1.764,1.764,0,0,1,37.051,11.532Z" transform="translate(-33.74 -11)" fill="#fcd770"/>
        </g>
        <g id="Grupo_1160018" data-name="Grupo 1160018" transform="translate(43.302 18.043)">
          <circle id="Elipse_11789" data-name="Elipse 11789" cx="2" cy="2" r="2" transform="translate(-0.238 0.021)" fill="#ef7385"/>
        </g>
        <g id="Grupo_1160019" data-name="Grupo 1160019" transform="translate(21.651 8.12)">
          <path id="Trazado_995201" data-name="Trazado 995201" d="M29.717,12.687l.126,1.922H27.8A1.817,1.817,0,0,1,26,12.8,1.81,1.81,0,0,1,27.8,11h.117a1.8,1.8,0,0,1,1.8,1.687Z" transform="translate(-26 -11)" fill="#fcd770"/>
        </g>
      </g>
      <g id="Grupo_1160021" data-name="Grupo 1160021" transform="translate(1 1)">
        <path id="Trazado_995202" data-name="Trazado 995202" d="M50.268,40.975a11.987,11.987,0,0,0,6.663-10.781V26.259H39.141l-1.892,5.674a3.241,3.241,0,0,0-.164,1.016,3.2,3.2,0,0,0,1.776,2.875l.028,1.789A3.944,3.944,0,0,0,42.5,41.559v3.876a13.047,13.047,0,0,0-2.3,2.124,10.836,10.836,0,0,0-6.944-4.093l-.373-1.121a5.419,5.419,0,0,0,4.207-5.273V26.259H34.378V23.075a3.66,3.66,0,0,1,1.393-2.841,10.815,10.815,0,0,0,.41-16.479A10.827,10.827,0,0,0,18.273,10.11,10.778,10.778,0,0,0,22.114,20.2a3.751,3.751,0,0,1,1.439,2.88v3.182H20.847V37.072a5.419,5.419,0,0,0,4.207,5.273l-.374,1.122a11.009,11.009,0,0,0-6.941,4.1,13.063,13.063,0,0,0-2.306-2.128V41.559a3.947,3.947,0,0,0,3.609-3.946V35.838l.028-.014a3.215,3.215,0,0,0,1.611-3.892l-1.891-5.673H16.336V10.71l-4.2-8.4a2.362,2.362,0,0,0-4.226,0l-4.2,8.405V26.259H1v3.934A11.987,11.987,0,0,0,7.663,40.975l.554.277v1.475A10.41,10.41,0,0,0,1,52.643v4.288H56.931V52.643a10.41,10.41,0,0,0-7.217-9.917V41.251Zm4.859-10.781a10.178,10.178,0,0,1-5.413,9.018V36.556l1.011-1.011a2.687,2.687,0,0,0,.793-1.914v-.154a2.712,2.712,0,0,0-1.8-2.552V28.063h5.413ZM44.3,41.6h1.8v-1.8H42.87a2.16,2.16,0,0,1-1.538-.638,2.19,2.19,0,0,1-.639-1.54v-2.89l-1.025-.513a1.409,1.409,0,0,1-.707-1.706l1.48-4.44H47.91v4.511h.9a.9.9,0,0,1,.9.9v.154a.9.9,0,0,1-.264.639l-1.54,1.54V42.8l-2.776,1.157q-.425.177-.833.382ZM28.966,46.632l-2.576-2.586.521-1.562h4.112l.521,1.562Zm-3.922-1.379,2.648,2.657-1.81,1.81-.987-4.443Zm7.846,0,.149.023-.988,4.444-1.81-1.81ZM23.256,18.8a8.994,8.994,0,0,1-3.2-8.417,9.087,9.087,0,0,1,7.866-7.522,9.017,9.017,0,0,1,6.715,15.969,5.468,5.468,0,0,0-2.039,3.82H30.832l.541-8.119h1.2a2.706,2.706,0,1,0,0-5.413h-.116a2.714,2.714,0,0,0-2.7,2.527l-.072,1.082h-1.44l-.072-1.083a2.714,2.714,0,0,0-2.7-2.526h-.116a2.706,2.706,0,0,0,0,5.413h1.2l.541,8.119H25.332a5.578,5.578,0,0,0-2.076-3.85Zm5.651,3.85-.541-8.119h1.2l-.541,8.119Zm2.586-9.923.064-.962a.905.905,0,0,1,.9-.843h.116a.9.9,0,1,1,0,1.8Zm-5.055,0H25.357a.9.9,0,0,1,0-1.8h.116a.905.905,0,0,1,.9.843ZM25.357,24.455h7.217v1.8H25.357ZM22.651,37.072V28.063H35.28v9.009a3.612,3.612,0,0,1-3.608,3.608H26.259a3.613,3.613,0,0,1-3.608-3.608ZM14.782,47.2,14.16,48.44l-3.355-2.013-.376-1.5,1.673.7A11.29,11.29,0,0,1,14.782,47.2ZM18.97,32.5a1.412,1.412,0,0,1-.707,1.708l-1.025.513v2.89a2.176,2.176,0,0,1-2.177,2.177H11.825v1.8h1.8v2.742q-.407-.2-.833-.382L10.021,42.8V35.809l-1.54-1.54a.9.9,0,0,1-.264-.639v-.154a.9.9,0,0,1,.9-.9h.9V28.063H17.49Zm-8.047-6.244V11.825h3.608V26.259ZM9.522,3.112a.578.578,0,0,1,1,0l3.455,6.909H6.068ZM5.511,11.825H9.119V26.259H5.511ZM2.8,30.193v-2.13H8.217v2.861a2.712,2.712,0,0,0-1.8,2.552v.154a2.69,2.69,0,0,0,.793,1.914l1.011,1.011v2.655A10.179,10.179,0,0,1,2.8,30.193ZM8.217,55.127V49.714h-1.8v5.413H2.8V52.643a8.609,8.609,0,0,1,5.671-8.1l.761,3.046,5.666,3.4,1.249-2.5a11.231,11.231,0,0,1,2.855,6.636Zm12.6,0a13.046,13.046,0,0,0-1.951-6.03,9.184,9.184,0,0,1,4.285-3.356l1.683,7.577,4.133-4.133L33.1,53.318l1.685-7.584A9.044,9.044,0,0,1,39.067,49.1a13.04,13.04,0,0,0-1.952,6.032Zm34.311-2.484v2.484H51.518V49.714h-1.8v5.413H38.925a11.243,11.243,0,0,1,6.9-9.507l3.047-1.269A8.613,8.613,0,0,1,55.127,52.643Z" transform="translate(-1 -1)"/>
        <path id="Trazado_995203" data-name="Trazado 995203" d="M35.315,38h-1.8a.9.9,0,0,1-.9.9H29v1.8h3.608A2.71,2.71,0,0,0,35.315,38Z" transform="translate(-3.741 -4.622)"/>
        <path id="Trazado_995204" data-name="Trazado 995204" d="M49,23.706A2.706,2.706,0,1,0,51.706,21,2.71,2.71,0,0,0,49,23.706Zm3.608,0a.9.9,0,1,1-.9-.9A.9.9,0,0,1,52.608,23.706Z" transform="translate(-5.698 -2.958)"/>
        <path id="Trazado_995205" data-name="Trazado 995205" d="M47.8,8.167A3.366,3.366,0,0,1,51.167,4.8h.492a3.363,3.363,0,0,1,2.1,5.989l-3.249,2.6v4.041h1.8V14.258L54.886,12.2A5.167,5.167,0,0,0,51.658,3h-.492A5.172,5.172,0,0,0,46,8.167v.245h1.8Z" transform="translate(-5.405 -1.196)"/>
      </g>
    </g>
  </g>
</svg>
