<svg xmlns="http://www.w3.org/2000/svg" xmlns:xlink="http://www.w3.org/1999/xlink" width="110" height="110" viewBox="0 0 110 110">
  <defs>
    <filter id="Trazado_982547" x="0" y="0" width="110" height="110" filterUnits="userSpaceOnUse">
      <feOffset dy="3" input="SourceAlpha"/>
      <feGaussianBlur stdDeviation="3" result="blur"/>
      <feFlood flood-opacity="0.161"/>
      <feComposite operator="in" in2="blur"/>
      <feComposite in="SourceGraphic"/>
    </filter>
  </defs>
  <g id="Grupo_1159999" data-name="Grupo 1159999" transform="translate(-1112.818 -3796)">
    <g id="Grupo_1159367" data-name="Grupo 1159367" transform="translate(312.818 -542)">
      <g id="Grupo_1157015" data-name="Grupo 1157015" transform="translate(0 3549)">
        <g id="Grupo_1155792" data-name="Grupo 1155792" transform="translate(-1 -3894.666)">
          <g id="Grupo_1154703" data-name="Grupo 1154703" transform="translate(0 1465.666)">
            <g id="Grupo_1150789" data-name="Grupo 1150789" transform="translate(3 2320)">
              <g id="Grupo_1154212" data-name="Grupo 1154212" transform="translate(-236 -5809)">
                <g id="Grupo_1152583" data-name="Grupo 1152583" transform="translate(1043 6713)">
                  <g id="Grupo_1146973" data-name="Grupo 1146973" transform="translate(0 0)">
                    <g id="Grupo_1146954" data-name="Grupo 1146954">
                      <g transform="matrix(1, 0, 0, 1, -9, -6)" filter="url(#Trazado_982547)">
                        <g id="Trazado_982547-2" data-name="Trazado 982547" transform="translate(9 6)" fill="#fceaf1">
                          <path d="M 46 90.49987030029297 C 39.99187850952148 90.49987030029297 34.16426849365234 89.32350921630859 28.67905426025391 87.00345611572266 C 23.38019943237305 84.76224517822266 18.62104034423828 81.55341339111328 14.53374671936035 77.46613311767578 C 10.44646644592285 73.37885284423828 7.237639904022217 68.61969757080078 4.996413230895996 63.32085418701172 C 2.676359891891479 57.83565521240234 1.5 52.008056640625 1.5 45.99993515014648 C 1.5 39.99181365966797 2.676359891891479 34.16421508789062 4.996413230895996 28.67901420593262 C 7.237639904022217 23.38017463684082 10.44646644592285 18.62101554870605 14.53374671936035 14.53373527526855 C 18.62104034423828 10.44645500183105 23.38019943237305 7.23762845993042 28.67905426025391 4.996415138244629 C 34.16426849365234 2.676361799240112 39.99187850952148 1.500001788139343 46 1.500001788139343 C 52.00812149047852 1.500001788139343 57.83573150634766 2.676361799240112 63.32094573974609 4.996415138244629 C 68.61979675292969 7.23762845993042 73.37895965576172 10.44645500183105 77.46625518798828 14.53373527526855 C 81.55353546142578 18.62101554870605 84.76235961914062 23.38017463684082 87.00358581542969 28.67901420593262 C 89.32363891601562 34.16421508789062 90.5 39.99181365966797 90.5 45.99993515014648 C 90.5 52.008056640625 89.32363891601562 57.83565521240234 87.00358581542969 63.32085418701172 C 84.76235961914062 68.61969757080078 81.55353546142578 73.37885284423828 77.46625518798828 77.46613311767578 C 73.37895965576172 81.55341339111328 68.61979675292969 84.76224517822266 63.32094573974609 87.00345611572266 C 57.83573150634766 89.32350921630859 52.00812149047852 90.49987030029297 46 90.49987030029297 Z" stroke="none"/>
                          <path d="M 46 2.999992370605469 C 40.1937141418457 2.999992370605469 34.56269836425781 4.136489868164062 29.26337051391602 6.377906799316406 C 24.14332580566406 8.543502807617188 19.54441070556641 11.64437866210938 15.59439849853516 15.59437561035156 C 11.64440155029297 19.54439544677734 8.54351806640625 24.14329528808594 6.377914428710938 29.26333618164062 C 4.136497497558594 34.56264877319336 3 40.19366455078125 3 45.99993515014648 C 3 51.80620574951172 4.136497497558594 57.43720626831055 6.377914428710938 62.73651885986328 C 8.54351806640625 67.8565673828125 11.64440155029297 72.45545959472656 15.59439849853516 76.40547943115234 C 19.54441070556641 80.35547637939453 24.14332580566406 83.45635223388672 29.26337051391602 85.6219482421875 C 34.56269836425781 87.86336517333984 40.1937141418457 88.99986267089844 46 88.99986267089844 C 51.8062858581543 88.99986267089844 57.43730163574219 87.86336517333984 62.73661422729492 85.6219482421875 C 67.85667419433594 83.45635223388672 72.45557403564453 80.35547637939453 76.40558624267578 76.40547943115234 C 80.35559844970703 72.45545959472656 83.45647430419922 67.8565673828125 85.6220703125 62.73651885986328 C 87.86350250244141 57.43720626831055 89 51.80620574951172 89 45.99993515014648 C 89 40.19366455078125 87.86350250244141 34.56264877319336 85.6220703125 29.26333618164062 C 83.45647430419922 24.14329528808594 80.35559844970703 19.54439544677734 76.40558624267578 15.59437561035156 C 72.45557403564453 11.64437866210938 67.85667419433594 8.543502807617188 62.73661422729492 6.377906799316406 C 57.43730163574219 4.136489868164062 51.8062858581543 2.999992370605469 46 2.999992370605469 M 46 -7.62939453125e-06 C 71.40509033203125 -7.62939453125e-06 92 20.59486389160156 92 45.99993515014648 C 92 71.40499114990234 71.40509033203125 91.99986267089844 46 91.99986267089844 C 20.59490203857422 91.99986267089844 0 71.40499114990234 0 45.99993515014648 C 0 20.59486389160156 20.59490203857422 -7.62939453125e-06 46 -7.62939453125e-06 Z" stroke="none" fill="#e93b81"/>
                        </g>
                      </g>
                    </g>
                  </g>
                </g>
              </g>
            </g>
          </g>
        </g>
      </g>
    </g>
    <g id="objetivo_4_" data-name="objetivo (4)" transform="translate(1124.468 3820.882)">
      <g id="Grupo_1159993" data-name="Grupo 1159993" transform="translate(14.688 0.853)">
        <g id="Grupo_1159982" data-name="Grupo 1159982" transform="translate(22.489)">
          <path id="Trazado_995141" data-name="Trazado 995141" d="M249.839,54.926H219.174l-.114.113V79.3a13.886,13.886,0,0,1,7.254,19.085H249.4a.551.551,0,0,0,.55-.551v-42.8Z" transform="translate(-219.06 -49.532)" fill="#c8effe"/>
          <path id="Trazado_995142" data-name="Trazado 995142" d="M222.465,81.268V55.039l.114-.113h-3.405l-.114.113V79.3A13.866,13.866,0,0,1,222.465,81.268Z" transform="translate(-219.06 -49.532)" fill="#99e6fc"/>
          <g id="Grupo_1159968" data-name="Grupo 1159968">
            <path id="Trazado_995143" data-name="Trazado 995143" d="M249.953,13.008H219.06V8.637A1.137,1.137,0,0,1,220.2,7.5h28.618a1.137,1.137,0,0,1,1.137,1.137Z" transform="translate(-219.06 -7.5)" fill="#7ca1b1"/>
          </g>
          <g id="Grupo_1159969" data-name="Grupo 1159969">
            <path id="Trazado_995144" data-name="Trazado 995144" d="M220.2,7.5a1.137,1.137,0,0,0-1.137,1.137v4.371h6.825V7.5Z" transform="translate(-219.06 -7.5)" fill="#678d98"/>
          </g>
          <g id="Grupo_1159970" data-name="Grupo 1159970">
            <path id="Trazado_995145" data-name="Trazado 995145" d="M223.6,7.5H220.2a1.137,1.137,0,0,0-1.137,1.137v4.371h3.405V8.637A1.137,1.137,0,0,1,223.6,7.5Z" transform="translate(-219.06 -7.5)" fill="#537983"/>
          </g>
          <g id="Grupo_1159973" data-name="Grupo 1159973" transform="translate(5.149 9.25)">
            <g id="Grupo_1159971" data-name="Grupo 1159971">
              <path id="Trazado_995146" data-name="Trazado 995146" d="M268.3,93.135h-3.628a.341.341,0,0,1-.341-.341V89.165a.341.341,0,0,1,.341-.341H268.3a.341.341,0,0,1,.341.341v3.628A.341.341,0,0,1,268.3,93.135Z" transform="translate(-264.328 -88.824)" fill="#01d0fb"/>
            </g>
            <g id="Grupo_1159972" data-name="Grupo 1159972">
              <path id="Trazado_995147" data-name="Trazado 995147" d="M266.236,92.793V89.165a.341.341,0,0,1,.341-.341h-1.908a.341.341,0,0,0-.341.341v3.628a.341.341,0,0,0,.341.341h1.908A.341.341,0,0,1,266.236,92.793Z" transform="translate(-264.328 -88.824)" fill="#01c0fa"/>
            </g>
          </g>
          <g id="Grupo_1159976" data-name="Grupo 1159976" transform="translate(5.149 16.883)">
            <g id="Grupo_1159974" data-name="Grupo 1159974">
              <path id="Trazado_995148" data-name="Trazado 995148" d="M268.3,160.247h-3.628a.341.341,0,0,1-.341-.341v-3.628a.341.341,0,0,1,.341-.341H268.3a.341.341,0,0,1,.341.341v3.628A.341.341,0,0,1,268.3,160.247Z" transform="translate(-264.328 -155.936)" fill="#01d0fb"/>
            </g>
            <g id="Grupo_1159975" data-name="Grupo 1159975">
              <path id="Trazado_995149" data-name="Trazado 995149" d="M266.236,159.905v-3.628a.341.341,0,0,1,.341-.341h-1.908a.341.341,0,0,0-.341.341v3.628a.341.341,0,0,0,.341.341h1.908A.341.341,0,0,1,266.236,159.905Z" transform="translate(-264.328 -155.936)" fill="#01c0fa"/>
            </g>
          </g>
          <g id="Grupo_1159979" data-name="Grupo 1159979" transform="translate(5.149 24.517)">
            <g id="Grupo_1159977" data-name="Grupo 1159977">
              <path id="Trazado_995150" data-name="Trazado 995150" d="M268.3,227.359h-3.628a.341.341,0,0,1-.341-.341v-3.628a.341.341,0,0,1,.341-.341H268.3a.341.341,0,0,1,.341.341v3.628A.341.341,0,0,1,268.3,227.359Z" transform="translate(-264.328 -223.048)" fill="#01d0fb"/>
            </g>
            <g id="Grupo_1159978" data-name="Grupo 1159978">
              <path id="Trazado_995151" data-name="Trazado 995151" d="M266.236,227.017v-3.628a.341.341,0,0,1,.341-.341h-1.908a.341.341,0,0,0-.341.341v3.628a.341.341,0,0,0,.341.341h1.908A.341.341,0,0,1,266.236,227.017Z" transform="translate(-264.328 -223.048)" fill="#01c0fa"/>
            </g>
          </g>
          <g id="Grupo_1159981" data-name="Grupo 1159981" transform="translate(5.149 32.15)">
            <path id="Trazado_995152" data-name="Trazado 995152" d="M268.3,290.159h-3.628a.341.341,0,0,0-.341.341v.875a13.9,13.9,0,0,1,2.11,3.094h1.86a.341.341,0,0,0,.341-.341V290.5A.341.341,0,0,0,268.3,290.159Z" transform="translate(-264.328 -290.159)" fill="#01d0fb"/>
            <g id="Grupo_1159980" data-name="Grupo 1159980">
              <path id="Trazado_995153" data-name="Trazado 995153" d="M266.236,294.08V290.5a.341.341,0,0,1,.341-.341h-1.908a.341.341,0,0,0-.341.341v.875A13.922,13.922,0,0,1,266.236,294.08Z" transform="translate(-264.328 -290.159)" fill="#01c0fa"/>
            </g>
          </g>
        </g>
        <g id="Grupo_1159989" data-name="Grupo 1159989" transform="translate(3.449 28.775)">
          <path id="Trazado_995154" data-name="Trazado 995154" d="M65.539,260.489a13.93,13.93,0,0,0-2.923.309,7.344,7.344,0,0,1-10.084,8.724,13.879,13.879,0,1,0,13.008-9.034Z" transform="translate(-51.662 -260.489)" fill="#fd5426"/>
          <g id="Grupo_1159983" data-name="Grupo 1159983" transform="translate(0 9.034)">
            <path id="Trazado_995155" data-name="Trazado 995155" d="M54.542,344.758a13.869,13.869,0,0,1,.647-4.2,7.3,7.3,0,0,1-2.659-.644,13.884,13.884,0,0,0,13.008,18.72,14.013,14.013,0,0,0,1.44-.074A13.879,13.879,0,0,1,54.542,344.758Z" transform="translate(-51.661 -339.915)" fill="#ef4424"/>
          </g>
          <path id="Trazado_995156" data-name="Trazado 995156" d="M100.645,300.1a9.325,9.325,0,0,0-3.156.548,7.357,7.357,0,0,1-5.12,4.432,9.369,9.369,0,1,0,8.276-4.98Z" transform="translate(-86.768 -295.595)" fill="#fff"/>
          <path id="Trazado_995157" data-name="Trazado 995157" d="M94.2,309.473a9.386,9.386,0,0,1,7.908-9.257,9.36,9.36,0,0,0-4.619.433,7.357,7.357,0,0,1-5.12,4.432,9.369,9.369,0,0,0,9.739,13.648A9.386,9.386,0,0,1,94.2,309.473Z" transform="translate(-86.768 -295.595)" fill="#eef5f6"/>
          <g id="Grupo_1159984" data-name="Grupo 1159984" transform="translate(31.257 10.631)">
            <path id="Trazado_995158" data-name="Trazado 995158" d="M335.592,353.952H328.87a.341.341,0,0,0-.282.149l-2.114,3.1,2.114,3.1a.341.341,0,0,0,.282.149h6.722a.341.341,0,0,0,.278-.539l-1.932-2.707,1.932-2.707A.341.341,0,0,0,335.592,353.952Z" transform="translate(-326.474 -353.952)" fill="#fff"/>
          </g>
          <g id="Grupo_1159985" data-name="Grupo 1159985" transform="translate(31.257 10.631)">
            <path id="Trazado_995159" data-name="Trazado 995159" d="M335.592,353.952H328.87a.341.341,0,0,0-.282.149l-2.114,3.1,2.114,3.1a.341.341,0,0,0,.282.149h6.722a.341.341,0,0,0,.278-.539l-1.932-2.707,1.932-2.707A.341.341,0,0,0,335.592,353.952Z" transform="translate(-326.474 -353.952)" fill="#fff"/>
          </g>
          <g id="Grupo_1159986" data-name="Grupo 1159986" transform="translate(31.258 10.63)">
            <path id="Trazado_995160" data-name="Trazado 995160" d="M331.473,360.3l-2.114-3.1,2.114-3.1a.342.342,0,0,1,.282-.149H328.87a.342.342,0,0,0-.282.149l-2.114,3.1,2.114,3.1a.341.341,0,0,0,.282.149h2.884A.341.341,0,0,1,331.473,360.3Z" transform="translate(-326.475 -353.951)" fill="#eef5f6"/>
          </g>
          <g id="Grupo_1159987" data-name="Grupo 1159987" transform="translate(9.011 9.011)">
            <circle id="Elipse_11787" data-name="Elipse 11787" cx="4.866" cy="4.866" r="4.866" fill="#fd5426"/>
          </g>
          <g id="Grupo_1159988" data-name="Grupo 1159988" transform="translate(9.011 9.011)">
            <path id="Trazado_995161" data-name="Trazado 995161" d="M133.742,344.58a4.874,4.874,0,0,1,3.438-4.652,4.866,4.866,0,1,0,0,9.3A4.874,4.874,0,0,1,133.742,344.58Z" transform="translate(-130.886 -339.714)" fill="#ef4424"/>
          </g>
        </g>
        <g id="Grupo_1159992" data-name="Grupo 1159992" transform="translate(0 23.772)">
          <g id="Grupo_1159990" data-name="Grupo 1159990">
            <circle id="Elipse_11788" data-name="Elipse 11788" cx="7.345" cy="7.345" r="7.345" fill="#fed402"/>
          </g>
          <g id="Grupo_1159991" data-name="Grupo 1159991" transform="translate(0)">
            <path id="Trazado_995162" data-name="Trazado 995162" d="M25.164,223.847a7.347,7.347,0,0,1,5.43-7.091,7.345,7.345,0,1,0,0,14.183,7.347,7.347,0,0,1-5.43-7.091Z" transform="translate(-21.335 -216.502)" fill="#fac600"/>
          </g>
        </g>
      </g>
      <g id="Grupo_1159997" data-name="Grupo 1159997" transform="translate(21.019 5.573)">
        <g id="Grupo_1159995" data-name="Grupo 1159995" transform="translate(0 0)">
          <g id="Grupo_1159994" data-name="Grupo 1159994">
            <path id="Trazado_995163" data-name="Trazado 995163" d="M79.491,49.117l-2.375,2.375a.4.4,0,0,0-.117.282V64.7a.4.4,0,0,0,.4.4H89.451a.4.4,0,0,0,.4-.4V49.4a.4.4,0,0,0-.4-.4H79.773a.4.4,0,0,0-.282.117Z" transform="translate(-77 -49)" fill="#fdf6ec"/>
          </g>
        </g>
        <g id="Grupo_1159996" data-name="Grupo 1159996">
          <path id="Trazado_995164" data-name="Trazado 995164" d="M80.867,64.7V51.773a.4.4,0,0,1,.117-.282l2.374-2.374A.4.4,0,0,1,83.641,49H79.773a.4.4,0,0,0-.282.117l-2.374,2.375a.4.4,0,0,0-.117.282V64.7a.4.4,0,0,0,.4.4h3.867a.4.4,0,0,1-.4-.4Z" transform="translate(-77 -49)" fill="#fef1da"/>
        </g>
      </g>
      <g id="Grupo_1159998" data-name="Grupo 1159998" transform="translate(13.835)">
        <path id="Trazado_995165" data-name="Trazado 995165" d="M68.07,26.217a.853.853,0,0,0,.853-.853V1.99A1.993,1.993,0,0,0,66.933,0H38.315a1.993,1.993,0,0,0-1.99,1.99V29.419a14.736,14.736,0,0,0-6.666-.454A8.2,8.2,0,1,0,17.964,39.083,14.728,14.728,0,0,0,44.942,50.56H67.52a1.405,1.405,0,0,0,1.4-1.4V29.345a.853.853,0,0,0-1.706,0V48.854H45.739a14.626,14.626,0,0,0,.98-4.5h2.225l1.86,2.725a1.193,1.193,0,0,0,.987.521h6.722a1.194,1.194,0,0,0,.972-1.888l-.97-1.358h.041a.853.853,0,0,0,0-1.706h-.041l.969-1.358a1.194,1.194,0,0,0-.972-1.888H51.79a1.193,1.193,0,0,0-.987.521l-1.86,2.725H46.719a14.628,14.628,0,0,0-.976-4.486H46.3a1.2,1.2,0,0,0,1.194-1.194V33.344A1.2,1.2,0,0,0,46.3,32.15H42.668a1.19,1.19,0,0,0-.857.365,14.774,14.774,0,0,0-3.78-2.454V7.214H67.217v18.15a.853.853,0,0,0,.853.853ZM52.061,45.9l-1.051-1.54h5.41l1.1,1.54Zm0-4.787h5.458l-1.1,1.54H51.01ZM15.541,31.97a6.492,6.492,0,1,1,6.492,6.492,6.5,6.5,0,0,1-6.492-6.492ZM32.014,56.529a13.026,13.026,0,0,1-12.48-16.752,8.165,8.165,0,0,0,2.5.391c.107,0,.214,0,.32-.008A10.219,10.219,0,0,0,37.6,52.061a.853.853,0,1,0-.935-1.427,8.513,8.513,0,0,1-12.34-10.8,8.234,8.234,0,0,0,5.161-4.468,8.515,8.515,0,0,1,11,7.282h-2.82a5.719,5.719,0,1,0,0,1.706h2.82a8.477,8.477,0,0,1-1.279,3.7.853.853,0,0,0,1.441.914A10.179,10.179,0,0,0,42.2,44.358H45.01a13.04,13.04,0,0,1-13,12.171Zm0-12.171h3.921a4.013,4.013,0,1,1,0-1.706H32.014a.853.853,0,0,0,0,1.706Zm11.165-10.5h2.6v2.6h-.836a14.8,14.8,0,0,0-1.768-2.553v-.052Zm1.83,8.8H42.2a10.221,10.221,0,0,0-12.111-9.189,8.108,8.108,0,0,0,.026-2.843A13.018,13.018,0,0,1,45.01,42.652ZM43.149,5.508H38.031V1.99a.285.285,0,0,1,.284-.284H43.15v3.8Zm1.706,0v-3.8H66.933a.285.285,0,0,1,.284.284V5.508Z" transform="translate(-13.835)"/>
        <path id="Trazado_995166" data-name="Trazado 995166" d="M335.188,87.114H321.9a.853.853,0,1,0,0,1.706h13.291a.853.853,0,1,0,0-1.706Z" transform="translate(-286.102 -77.206)"/>
        <path id="Trazado_995167" data-name="Trazado 995167" d="M321.9,115.138h7.872a.853.853,0,0,0,0-1.706H321.9a.853.853,0,1,0,0,1.706Z" transform="translate(-286.102 -100.53)"/>
        <path id="Trazado_995168" data-name="Trazado 995168" d="M335.188,154.226H321.9a.853.853,0,1,0,0,1.706h13.291a.853.853,0,1,0,0-1.706Z" transform="translate(-286.102 -136.684)"/>
        <path id="Trazado_995169" data-name="Trazado 995169" d="M321.9,182.25h7.872a.853.853,0,0,0,0-1.706H321.9a.853.853,0,1,0,0,1.706Z" transform="translate(-286.102 -160.009)"/>
        <path id="Trazado_995170" data-name="Trazado 995170" d="M335.188,221.337H321.9a.853.853,0,1,0,0,1.706h13.291a.853.853,0,1,0,0-1.706Z" transform="translate(-286.102 -196.162)"/>
        <path id="Trazado_995171" data-name="Trazado 995171" d="M321.9,249.362h7.872a.853.853,0,1,0,0-1.706H321.9a.853.853,0,1,0,0,1.706Z" transform="translate(-286.102 -219.487)"/>
        <path id="Trazado_995172" data-name="Trazado 995172" d="M262.845,82.518a1.2,1.2,0,0,0-1.194-1.194h-3.628a1.2,1.2,0,0,0-1.194,1.194v3.628a1.2,1.2,0,0,0,1.194,1.194h3.628a1.2,1.2,0,0,0,1.194-1.194Zm-1.706,3.116h-2.6v-2.6h2.6Z" transform="translate(-229.19 -72.074)"/>
        <path id="Trazado_995173" data-name="Trazado 995173" d="M262.845,149.63a1.2,1.2,0,0,0-1.194-1.194h-3.628a1.2,1.2,0,0,0-1.194,1.194v3.628a1.2,1.2,0,0,0,1.194,1.194h3.628a1.2,1.2,0,0,0,1.194-1.194Zm-1.706,3.116h-2.6v-2.6h2.6Z" transform="translate(-229.19 -131.553)"/>
        <path id="Trazado_995174" data-name="Trazado 995174" d="M261.65,215.547h-3.628a1.2,1.2,0,0,0-1.194,1.194v3.628a1.2,1.2,0,0,0,1.194,1.194h3.628a1.2,1.2,0,0,0,1.194-1.194v-3.628A1.2,1.2,0,0,0,261.65,215.547Zm-.512,4.311h-2.6v-2.6h2.6Z" transform="translate(-229.19 -191.03)"/>
        <path id="Trazado_995175" data-name="Trazado 995175" d="M336.041,289.3a.853.853,0,0,0-.853-.853H321.9a.853.853,0,1,0,0,1.706h13.291A.853.853,0,0,0,336.041,289.3Z" transform="translate(-286.102 -255.641)"/>
        <path id="Trazado_995176" data-name="Trazado 995176" d="M321.9,314.768a.853.853,0,1,0,0,1.706h7.872a.853.853,0,0,0,0-1.706Z" transform="translate(-286.102 -278.966)"/>
        <path id="Trazado_995177" data-name="Trazado 995177" d="M62.838,245.071v-.616a2.28,2.28,0,0,0-.064-4.56H61.2a.575.575,0,1,1,0-1.151h2.781a.853.853,0,0,0,0-1.706H62.838v-.613a.853.853,0,1,0-1.706,0v.616a2.28,2.28,0,0,0,.064,4.56h1.579a.575.575,0,0,1,0,1.151H59.993a.853.853,0,0,0,0,1.706h1.139v.613a.853.853,0,0,0,1.706,0Z" transform="translate(-53.787 -208.779)"/>
        <path id="Trazado_995178" data-name="Trazado 995178" d="M70.752,59.3H82.8a1.254,1.254,0,0,0,1.252-1.252v-5.8a.853.853,0,1,0-1.706,0v5.346H71.206V45.315l2.108-2.109H82.35v5.061a.853.853,0,0,0,1.706,0V42.752A1.253,1.253,0,0,0,82.8,41.5H73.126a1.245,1.245,0,0,0-.885.367l-2.374,2.374a1.244,1.244,0,0,0-.367.885V58.049A1.253,1.253,0,0,0,70.752,59.3Z" transform="translate(-63.169 -36.78)"/>
        <path id="Trazado_995179" data-name="Trazado 995179" d="M108.569,74.185h-5.381a.853.853,0,0,0,0,1.706h5.381a.853.853,0,0,0,0-1.706Z" transform="translate(-92.269 -65.747)"/>
        <path id="Trazado_995180" data-name="Trazado 995180" d="M108.569,99.448h-5.381a.853.853,0,0,0,0,1.706h5.381a.853.853,0,1,0,0-1.706Z" transform="translate(-92.269 -88.137)"/>
        <path id="Trazado_995181" data-name="Trazado 995181" d="M109.422,125.791a.853.853,0,0,0-.853-.853h-5.381a.853.853,0,0,0,0,1.706h5.381A.853.853,0,0,0,109.422,125.791Z" transform="translate(-92.269 -110.727)"/>
        <path id="Trazado_995182" data-name="Trazado 995182" d="M103.188,150.315a.853.853,0,0,0,0,1.706H105.6a.853.853,0,0,0,0-1.706Z" transform="translate(-92.269 -133.218)"/>
      </g>
    </g>
  </g>
</svg>
