<svg xmlns="http://www.w3.org/2000/svg" xmlns:xlink="http://www.w3.org/1999/xlink" width="110" height="110" viewBox="0 0 110 110">
  <defs>
    <filter id="Trazado_982547" x="0" y="0" width="110" height="110" filterUnits="userSpaceOnUse">
      <feOffset dy="3" input="SourceAlpha"/>
      <feGaussianBlur stdDeviation="3" result="blur"/>
      <feFlood flood-opacity="0.161"/>
      <feComposite operator="in" in2="blur"/>
      <feComposite in="SourceGraphic"/>
    </filter>
  </defs>
  <g id="Grupo_1160024" data-name="Grupo 1160024" transform="translate(-4598 -3796)">
    <g id="Grupo_1159368" data-name="Grupo 1159368" transform="translate(3798 -542)">
      <g id="Grupo_1157015" data-name="Grupo 1157015" transform="translate(0 3549)">
        <g id="Grupo_1155792" data-name="Grupo 1155792" transform="translate(-1 -3894.666)">
          <g id="Grupo_1154703" data-name="Grupo 1154703" transform="translate(0 1465.666)">
            <g id="Grupo_1150789" data-name="Grupo 1150789" transform="translate(3 2320)">
              <g id="Grupo_1154212" data-name="Grupo 1154212" transform="translate(-236 -5809)">
                <g id="Grupo_1152583" data-name="Grupo 1152583" transform="translate(1043 6713)">
                  <g id="Grupo_1146973" data-name="Grupo 1146973" transform="translate(0 0)">
                    <g id="Grupo_1146954" data-name="Grupo 1146954">
                      <g transform="matrix(1, 0, 0, 1, -9, -6)" filter="url(#Trazado_982547)">
                        <g id="Trazado_982547-2" data-name="Trazado 982547" transform="translate(9 6)" fill="#fceaf1">
                          <path d="M 46 90.49987030029297 C 39.99187850952148 90.49987030029297 34.16426849365234 89.32350921630859 28.67905426025391 87.00345611572266 C 23.38019943237305 84.76224517822266 18.62104034423828 81.55341339111328 14.53374671936035 77.46613311767578 C 10.44646644592285 73.37885284423828 7.237639904022217 68.61969757080078 4.996413230895996 63.32085418701172 C 2.676359891891479 57.83565521240234 1.5 52.008056640625 1.5 45.99993515014648 C 1.5 39.99181365966797 2.676359891891479 34.16421508789062 4.996413230895996 28.67901420593262 C 7.237639904022217 23.38017463684082 10.44646644592285 18.62101554870605 14.53374671936035 14.53373527526855 C 18.62104034423828 10.44645500183105 23.38019943237305 7.23762845993042 28.67905426025391 4.996415138244629 C 34.16426849365234 2.676361799240112 39.99187850952148 1.500001788139343 46 1.500001788139343 C 52.00812149047852 1.500001788139343 57.83573150634766 2.676361799240112 63.32094573974609 4.996415138244629 C 68.61979675292969 7.23762845993042 73.37895965576172 10.44645500183105 77.46625518798828 14.53373527526855 C 81.55353546142578 18.62101554870605 84.76235961914062 23.38017463684082 87.00358581542969 28.67901420593262 C 89.32363891601562 34.16421508789062 90.5 39.99181365966797 90.5 45.99993515014648 C 90.5 52.008056640625 89.32363891601562 57.83565521240234 87.00358581542969 63.32085418701172 C 84.76235961914062 68.61969757080078 81.55353546142578 73.37885284423828 77.46625518798828 77.46613311767578 C 73.37895965576172 81.55341339111328 68.61979675292969 84.76224517822266 63.32094573974609 87.00345611572266 C 57.83573150634766 89.32350921630859 52.00812149047852 90.49987030029297 46 90.49987030029297 Z" stroke="none"/>
                          <path d="M 46 2.999992370605469 C 40.1937141418457 2.999992370605469 34.56269836425781 4.136489868164062 29.26337051391602 6.377906799316406 C 24.14332580566406 8.543502807617188 19.54441070556641 11.64437866210938 15.59439849853516 15.59437561035156 C 11.64440155029297 19.54439544677734 8.54351806640625 24.14329528808594 6.377914428710938 29.26333618164062 C 4.136497497558594 34.56264877319336 3 40.19366455078125 3 45.99993515014648 C 3 51.80620574951172 4.136497497558594 57.43720626831055 6.377914428710938 62.73651885986328 C 8.54351806640625 67.8565673828125 11.64440155029297 72.45545959472656 15.59439849853516 76.40547943115234 C 19.54441070556641 80.35547637939453 24.14332580566406 83.45635223388672 29.26337051391602 85.6219482421875 C 34.56269836425781 87.86336517333984 40.1937141418457 88.99986267089844 46 88.99986267089844 C 51.8062858581543 88.99986267089844 57.43730163574219 87.86336517333984 62.73661422729492 85.6219482421875 C 67.85667419433594 83.45635223388672 72.45557403564453 80.35547637939453 76.40558624267578 76.40547943115234 C 80.35559844970703 72.45545959472656 83.45647430419922 67.8565673828125 85.6220703125 62.73651885986328 C 87.86350250244141 57.43720626831055 89 51.80620574951172 89 45.99993515014648 C 89 40.19366455078125 87.86350250244141 34.56264877319336 85.6220703125 29.26333618164062 C 83.45647430419922 24.14329528808594 80.35559844970703 19.54439544677734 76.40558624267578 15.59437561035156 C 72.45557403564453 11.64437866210938 67.85667419433594 8.543502807617188 62.73661422729492 6.377906799316406 C 57.43730163574219 4.136489868164062 51.8062858581543 2.999992370605469 46 2.999992370605469 M 46 -7.62939453125e-06 C 71.40509033203125 -7.62939453125e-06 92 20.59486389160156 92 45.99993515014648 C 92 71.40499114990234 71.40509033203125 91.99986267089844 46 91.99986267089844 C 20.59490203857422 91.99986267089844 0 71.40499114990234 0 45.99993515014648 C 0 20.59486389160156 20.59490203857422 -7.62939453125e-06 46 -7.62939453125e-06 Z" stroke="none" fill="#e93b81"/>
                        </g>
                      </g>
                    </g>
                  </g>
                </g>
              </g>
            </g>
          </g>
        </g>
      </g>
    </g>
    <g id="Filled_outline" data-name="Filled outline" transform="translate(4608.179 3803.179)">
      <rect id="Rectángulo_409975" data-name="Rectángulo 409975" width="29.89" height="54.065" rx="14.945" transform="translate(30.876 20.766)" fill="#e0e0de"/>
      <path id="Trazado_995206" data-name="Trazado 995206" d="M136,104h29.821v39.761H136Z" transform="translate(-105.09 -77.066)" fill="#348fd9"/>
      <path id="Trazado_995207" data-name="Trazado 995207" d="M160.231,431.82a3.939,3.939,0,0,0,.965.132h21.869a3.976,3.976,0,0,0,3.976-3.976V424H163.552Z" transform="translate(-126.31 -357.305)" fill="#d6d6d4"/>
      <path id="Trazado_995208" data-name="Trazado 995208" d="M325.477,56h-.1l-2.533,5.964h6.6V59.976A3.976,3.976,0,0,0,325.477,56Z" transform="translate(-268.722 -35.03)" fill="#d6d6d4"/>
      <path id="Trazado_995209" data-name="Trazado 995209" d="M186.959,143.761h23.489V104h-6.6Z" transform="translate(-149.717 -77.066)" fill="#3086cd"/>
      <path id="Trazado_995210" data-name="Trazado 995210" d="M147.928,277.916v-5.964a3.976,3.976,0,0,0-3.976-3.976h-1.988l.994-3.976L136,267.976v13.916h7.952A3.976,3.976,0,0,0,147.928,277.916Z" transform="translate(-105.09 -217.185)" fill="#3086cd"/>
      <path id="Trazado_995211" data-name="Trazado 995211" d="M308.676,224.41,302.188,216v15.9l-4.473-4.473a3.514,3.514,0,0,0-4.97,4.97l6.461,6.461-.445.668a8.7,8.7,0,0,0,.445,10.266h11.928V230.955a9.94,9.94,0,0,0-2.459-6.545Z" transform="translate(-241.457 -175.149)" fill="#fec9a3"/>
      <path id="Trazado_995212" data-name="Trazado 995212" d="M45.869,43.881H37.916l.994,4.97-6.958-4.97H27.976A3.976,3.976,0,0,1,24,39.9V27.976A3.976,3.976,0,0,1,27.976,24H45.869a3.976,3.976,0,0,1,3.976,3.976V39.9A3.976,3.976,0,0,1,45.869,43.881Z" transform="translate(-7.006 -7.006)" fill="#ffb531"/>
      <path id="Trazado_995213" data-name="Trazado 995213" d="M137.988,115.928h7.952a3.976,3.976,0,0,0,3.976-3.976V104H136v14.768l2.982,2.13Z" transform="translate(-105.09 -77.066)" fill="#3086cd"/>
      <path id="Trazado_995214" data-name="Trazado 995214" d="M43.881,251.976H41.892L42.887,248l-6.958,3.976H27.976A3.976,3.976,0,0,0,24,255.952v5.964a3.976,3.976,0,0,0,3.976,3.976h15.9a3.976,3.976,0,0,0,3.976-3.976v-5.964A3.976,3.976,0,0,0,43.881,251.976Z" transform="translate(-7.006 -203.173)" fill="#60d1e0"/>
      <path id="Trazado_995215" data-name="Trazado 995215" d="M82.641,280H82.45a54.593,54.593,0,0,1-14.19,13.916H82.641a3.976,3.976,0,0,0,3.976-3.976v-5.964A3.976,3.976,0,0,0,82.641,280Z" transform="translate(-45.767 -231.197)" fill="#5ac6d4"/>
      <path id="Trazado_995216" data-name="Trazado 995216" d="M372.97,341.964a.99.99,0,0,1-.7-.291l-3.976-3.976a.994.994,0,1,1,1.406-1.406l3.976,3.976a.994.994,0,0,1-.7,1.7Z" transform="translate(-308.263 -280.239)" fill="#f7a468"/>
      <path id="Trazado_995217" data-name="Trazado 995217" d="M55.649,31.894c-6.883,8.592-16.505,13.93-23.437,17.56a3.95,3.95,0,0,0,2.956,1.339h3.976l6.958,4.97-.994-4.97H53.06a3.976,3.976,0,0,0,3.976-3.976V34.889A3.949,3.949,0,0,0,55.649,31.894Z" transform="translate(-14.198 -13.919)" fill="#ffa912"/>
      <path id="Trazado_995218" data-name="Trazado 995218" d="M80,96h7.952v5.964H80Z" transform="translate(-56.048 -70.06)" fill="#f35244"/>
      <g id="Grupo_1160023" data-name="Grupo 1160023" transform="translate(22.964 20.766)">
        <ellipse id="Elipse_11790" data-name="Elipse 11790" cx="2.418" cy="2.637" rx="2.418" ry="2.637" transform="translate(0 0)" fill="#de4132"/>
        <circle id="Elipse_11791" data-name="Elipse 11791" cx="2.637" cy="2.637" r="2.637" transform="translate(4.835 0)" fill="#de4132"/>
        <path id="Trazado_995219" data-name="Trazado 995219" d="M144,97.988,147.976,96v5.964L144,99.976Z" transform="translate(-135.06 -90.826)" fill="#de4132"/>
      </g>
      <path id="Trazado_995220" data-name="Trazado 995220" d="M376,216v10.4l5.035-3.873Z" transform="translate(-315.269 -175.149)" fill="#fec093"/>
      <path id="Trazado_995221" data-name="Trazado 995221" d="M291.833,91.976V103.9a3.976,3.976,0,0,1-3.976,3.976h-4.97l-6.958,4.97.994-4.97h-8.946A3.974,3.974,0,0,1,264,103.9V91.976A3.976,3.976,0,0,1,267.976,88h19.88a3.973,3.973,0,0,1,3.976,3.976Z" transform="translate(-217.185 -63.054)" fill="#4db7e5"/>
      <path id="Trazado_995222" data-name="Trazado 995222" d="M306.011,95.681v11.928a3.976,3.976,0,0,1-3.976,3.976h-4.97l-6.958,4.97.994-4.97h-8.946a3.963,3.963,0,0,1-1.964-.518c9.284-4.4,17.629-10.529,23.823-18.837A3.976,3.976,0,0,1,306.011,95.681Z" transform="translate(-231.364 -66.758)" fill="#48add9"/>
      <circle id="Elipse_11792" data-name="Elipse 11792" cx="2.857" cy="2.857" r="2.857" transform="translate(59.887 29.118)" fill="#f35244"/>
      <path id="Trazado_995223" data-name="Trazado 995223" d="M291.833,173.964a3.976,3.976,0,0,1-3.976,3.976h-4.97l-6.958,4.97.994-4.97h-8.946A3.974,3.974,0,0,1,264,173.964L271.952,168l4.52,3.39,3.432,2.575,5.964-3.976Z" transform="translate(-217.185 -133.113)" fill="#7eb457"/>
      <path id="Trazado_995224" data-name="Trazado 995224" d="M306.011,187.976a3.976,3.976,0,0,1-3.976,3.976h-4.97l-6.958,4.97.994-4.97h-8.946a3.964,3.964,0,0,1-1.964-.518,72.249,72.249,0,0,0,10.461-6.033l3.432,2.575L300.047,184Z" transform="translate(-231.364 -147.125)" fill="#77ad50"/>
      <path id="Trazado_995225" data-name="Trazado 995225" d="M248,448h1.988v1.988H248Z" transform="translate(-203.173 -378.323)"/>
      <path id="Trazado_995226" data-name="Trazado 995226" d="M20.97,37.869h3.658l6.7,4.785a.994.994,0,0,0,1.552-1l-.756-3.781h6.74a4.976,4.976,0,0,0,4.97-4.97V20.97A4.976,4.976,0,0,0,38.863,16H20.97A4.976,4.976,0,0,0,16,20.97V32.9a4.976,4.976,0,0,0,4.97,4.97Zm-2.982-16.9a2.985,2.985,0,0,1,2.982-2.982H38.863a2.985,2.985,0,0,1,2.982,2.982V32.9a2.985,2.985,0,0,1-2.982,2.982H30.91a.994.994,0,0,0-.975,1.189l.5,2.5-4.913-3.509a.994.994,0,0,0-.578-.185H20.97A2.985,2.985,0,0,1,17.988,32.9Z" transform="translate(0)"/>
      <path id="Trazado_995227" data-name="Trazado 995227" d="M65.06,54.037V60a.994.994,0,0,0,.994.994h7.952A.994.994,0,0,0,75,60v-.38l2.537,1.269A.994.994,0,0,0,78.977,60V54.037a.994.994,0,0,0-1.439-.889L75,54.417v-.38c0-.017-.009-.03-.009-.047a3.474,3.474,0,1,0-4.961-4.866,3.474,3.474,0,1,0-4.961,4.866C65.069,54.007,65.06,54.021,65.06,54.037Zm7.952,4.97H67.048V55.031h5.964Zm3.976-3.362v2.747L75,57.4V56.64Zm-4.473-5.585a1.491,1.491,0,1,1-1.491,1.491,1.491,1.491,0,0,1,1.491-1.491Zm-4.97,0a1.491,1.491,0,1,1-1.491,1.491,1.491,1.491,0,0,1,1.491-1.491Z" transform="translate(-42.102 -28.097)"/>
      <path id="Trazado_995228" data-name="Trazado 995228" d="M168.755,51.976h-9.047A4.978,4.978,0,0,0,154.839,48H143.9v1.988h10.934a2.977,2.977,0,0,1,2.8,1.988h-8.763a4.976,4.976,0,0,0-4.97,4.97V68.875a4.976,4.976,0,0,0,4.97,4.97h7.734l-.756,3.781a.994.994,0,0,0,1.552,1l.417-.3v4.047L155.044,79.6a4.508,4.508,0,0,0-6.376,6.376l5.883,5.883a9.34,9.34,0,0,0-.934,1.864H128V98.7a4.976,4.976,0,0,0,4.97,4.97h34.791a.994.994,0,0,0,.994-.994V83.825a10.885,10.885,0,0,0-2.662-7.148l-2.115-2.743.125-.089h4.652a4.976,4.976,0,0,0,4.97-4.97V56.946A4.976,4.976,0,0,0,168.755,51.976Zm-19.881,1.988h19.881a2.985,2.985,0,0,1,2.982,2.982V67.017l-4.419-2.946a1,1,0,0,0-1.1,0l-5.379,3.585-7.39-5.542a.993.993,0,0,0-1.192,0l-6.363,4.771v-9.94A2.985,2.985,0,0,1,148.875,53.964ZM129.988,98.7V95.713h23.076a9.683,9.683,0,0,0,.97,5.964H132.97A2.985,2.985,0,0,1,129.988,98.7Zm34.57-20.758a8.946,8.946,0,0,1,2.209,5.887v17.853H156.335A7.7,7.7,0,0,1,155.255,95a7.458,7.458,0,0,1,.955-2.044l.447-.666a.994.994,0,0,0-.122-1.257l-6.461-6.461a2.52,2.52,0,0,1,3.565-3.564l8.449,8.449,1.406-1.406-3.685-3.685V76.912l2.551-1.822Zm4.2-6.081h-4.97a.994.994,0,0,0-.578.185l-4.913,3.509.5-2.5a.994.994,0,0,0-.975-1.189h-8.946a2.979,2.979,0,0,1-2.935-2.52l6.912-5.183,7.356,5.517a.993.993,0,0,0,1.147.032l5.413-3.609,4.92,3.28a2.98,2.98,0,0,1-2.932,2.483Z" transform="translate(-98.084 -28.024)"/>
      <path id="Trazado_995229" data-name="Trazado 995229" d="M363.976,119.952A3.976,3.976,0,1,0,360,115.976,3.976,3.976,0,0,0,363.976,119.952Zm0-5.964a1.988,1.988,0,1,1-1.988,1.988A1.988,1.988,0,0,1,363.976,113.988Z" transform="translate(-301.257 -84.072)"/>
      <path id="Trazado_995230" data-name="Trazado 995230" d="M20.97,259.883h15.9a4.976,4.976,0,0,0,4.97-4.97v-5.964a4.976,4.976,0,0,0-4.97-4.97H36.16l.684-2.741a.994.994,0,0,0-1.457-1.1l-6.729,3.845H20.97a4.976,4.976,0,0,0-4.97,4.97v5.964a4.976,4.976,0,0,0,4.97,4.97Zm-2.982-10.934a2.985,2.985,0,0,1,2.982-2.982h7.952a.994.994,0,0,0,.493-.131l4.936-2.821-.429,1.716a.994.994,0,0,0,.964,1.235h1.988a2.985,2.985,0,0,1,2.982,2.982v5.964a2.985,2.985,0,0,1-2.982,2.982H20.97a2.985,2.985,0,0,1-2.982-2.982Z" transform="translate(0 -196.17)"/>
      <path id="Trazado_995231" data-name="Trazado 995231" d="M48,312H58.934v1.988H48Z" transform="translate(-28.024 -259.221)"/>
      <path id="Trazado_995232" data-name="Trazado 995232" d="M152,312h4.97v1.988H152Z" transform="translate(-119.102 -259.221)"/>
      <path id="Trazado_995233" data-name="Trazado 995233" d="M48,344H65.892v1.988H48Z" transform="translate(-28.024 -287.245)"/>
    </g>
  </g>
</svg>
