<svg xmlns="http://www.w3.org/2000/svg" xmlns:xlink="http://www.w3.org/1999/xlink" width="110" height="110" viewBox="0 0 110 110">
  <defs>
    <filter id="Trazado_982547" x="0" y="0" width="110" height="110" filterUnits="userSpaceOnUse">
      <feOffset dy="3" input="SourceAlpha"/>
      <feGaussianBlur stdDeviation="3" result="blur"/>
      <feFlood flood-opacity="0.161"/>
      <feComposite operator="in" in2="blur"/>
      <feComposite in="SourceGraphic"/>
    </filter>
  </defs>
  <g id="Grupo_1159369" data-name="Grupo 1159369" transform="translate(-800 -4338)">
    <g id="Grupo_1157015" data-name="Grupo 1157015" transform="translate(0 3549)">
      <g id="Grupo_1155792" data-name="Grupo 1155792" transform="translate(-1 -3894.666)">
        <g id="Grupo_1154703" data-name="Grupo 1154703" transform="translate(0 1465.666)">
          <g id="Grupo_1150789" data-name="Grupo 1150789" transform="translate(3 2320)">
            <g id="Grupo_1154212" data-name="Grupo 1154212" transform="translate(-236 -5809)">
              <g id="Grupo_1152583" data-name="Grupo 1152583" transform="translate(1043 6713)">
                <g id="Grupo_1146973" data-name="Grupo 1146973" transform="translate(0 0)">
                  <g id="Grupo_1146954" data-name="Grupo 1146954">
                    <g transform="matrix(1, 0, 0, 1, -9, -6)" filter="url(#Trazado_982547)">
                      <g id="Trazado_982547-2" data-name="Trazado 982547" transform="translate(9 6)" fill="#fceaf1">
                        <path d="M 46 90.49987030029297 C 39.99187850952148 90.49987030029297 34.16426849365234 89.32350921630859 28.67905426025391 87.00345611572266 C 23.38019943237305 84.76224517822266 18.62104034423828 81.55341339111328 14.53374671936035 77.46613311767578 C 10.44646644592285 73.37885284423828 7.237639904022217 68.61969757080078 4.996413230895996 63.32085418701172 C 2.676359891891479 57.83565521240234 1.5 52.008056640625 1.5 45.99993515014648 C 1.5 39.99181365966797 2.676359891891479 34.16421508789062 4.996413230895996 28.67901420593262 C 7.237639904022217 23.38017463684082 10.44646644592285 18.62101554870605 14.53374671936035 14.53373527526855 C 18.62104034423828 10.44645500183105 23.38019943237305 7.23762845993042 28.67905426025391 4.996415138244629 C 34.16426849365234 2.676361799240112 39.99187850952148 1.500001788139343 46 1.500001788139343 C 52.00812149047852 1.500001788139343 57.83573150634766 2.676361799240112 63.32094573974609 4.996415138244629 C 68.61979675292969 7.23762845993042 73.37895965576172 10.44645500183105 77.46625518798828 14.53373527526855 C 81.55353546142578 18.62101554870605 84.76235961914062 23.38017463684082 87.00358581542969 28.67901420593262 C 89.32363891601562 34.16421508789062 90.5 39.99181365966797 90.5 45.99993515014648 C 90.5 52.008056640625 89.32363891601562 57.83565521240234 87.00358581542969 63.32085418701172 C 84.76235961914062 68.61969757080078 81.55353546142578 73.37885284423828 77.46625518798828 77.46613311767578 C 73.37895965576172 81.55341339111328 68.61979675292969 84.76224517822266 63.32094573974609 87.00345611572266 C 57.83573150634766 89.32350921630859 52.00812149047852 90.49987030029297 46 90.49987030029297 Z" stroke="none"/>
                        <path d="M 46 2.999992370605469 C 40.1937141418457 2.999992370605469 34.56269836425781 4.136489868164062 29.26337051391602 6.377906799316406 C 24.14332580566406 8.543502807617188 19.54441070556641 11.64437866210938 15.59439849853516 15.59437561035156 C 11.64440155029297 19.54439544677734 8.54351806640625 24.14329528808594 6.377914428710938 29.26333618164062 C 4.136497497558594 34.56264877319336 3 40.19366455078125 3 45.99993515014648 C 3 51.80620574951172 4.136497497558594 57.43720626831055 6.377914428710938 62.73651885986328 C 8.54351806640625 67.8565673828125 11.64440155029297 72.45545959472656 15.59439849853516 76.40547943115234 C 19.54441070556641 80.35547637939453 24.14332580566406 83.45635223388672 29.26337051391602 85.6219482421875 C 34.56269836425781 87.86336517333984 40.1937141418457 88.99986267089844 46 88.99986267089844 C 51.8062858581543 88.99986267089844 57.43730163574219 87.86336517333984 62.73661422729492 85.6219482421875 C 67.85667419433594 83.45635223388672 72.45557403564453 80.35547637939453 76.40558624267578 76.40547943115234 C 80.35559844970703 72.45545959472656 83.45647430419922 67.8565673828125 85.6220703125 62.73651885986328 C 87.86350250244141 57.43720626831055 89 51.80620574951172 89 45.99993515014648 C 89 40.19366455078125 87.86350250244141 34.56264877319336 85.6220703125 29.26333618164062 C 83.45647430419922 24.14329528808594 80.35559844970703 19.54439544677734 76.40558624267578 15.59437561035156 C 72.45557403564453 11.64437866210938 67.85667419433594 8.543502807617188 62.73661422729492 6.377906799316406 C 57.43730163574219 4.136489868164062 51.8062858581543 2.999992370605469 46 2.999992370605469 M 46 -7.62939453125e-06 C 71.40509033203125 -7.62939453125e-06 92 20.59486389160156 92 45.99993515014648 C 92 71.40499114990234 71.40509033203125 91.99986267089844 46 91.99986267089844 C 20.59490203857422 91.99986267089844 0 71.40499114990234 0 45.99993515014648 C 0 20.59486389160156 20.59490203857422 -7.62939453125e-06 46 -7.62939453125e-06 Z" stroke="none" fill="#e93b81"/>
                      </g>
                    </g>
                  </g>
                </g>
              </g>
            </g>
          </g>
        </g>
      </g>
    </g>
    <g id="idea_2_" data-name="idea (2)" transform="translate(824.542 4359.621)">
      <path id="Trazado_995250" data-name="Trazado 995250" d="M184.09,296.18v22.27h28.344V296.18Zm0,0" transform="translate(-160.718 -258.703)" fill="#00b39d"/>
      <path id="Trazado_995251" data-name="Trazado 995251" d="M27.981,69.815a8.464,8.464,0,0,1-.8,1.923l1.346,2.015-2.864,2.865-2.015-1.346a8.506,8.506,0,0,1-1.923.8l-.476,2.378H17.2l-.475-2.378a8.5,8.5,0,0,1-1.924-.8l-2.014,1.346L9.922,73.753l1.346-2.015a8.466,8.466,0,0,1-.8-1.923L8.09,69.339V65.29l2.379-.475a8.465,8.465,0,0,1,.8-1.923L9.922,60.876l2.865-2.865L14.8,59.358a8.5,8.5,0,0,1,1.924-.8l.475-2.379h4.049l.476,2.379a8.507,8.507,0,0,1,1.923.8l2.015-1.346,2.864,2.865-1.346,2.015a8.464,8.464,0,0,1,.8,1.923l2.379.475v4.049Zm0,0" transform="translate(-6.988 -49.07)" fill="#ff9811"/>
      <path id="Trazado_995252" data-name="Trazado 995252" d="M444.139,10.2v2.025H440.09V10.2a2.025,2.025,0,0,1,4.049,0Zm0,0" transform="translate(-384.325 -7.144)" fill="#3d9ae2"/>
      <path id="Trazado_995253" data-name="Trazado 995253" d="M444.139,184.18v1.012l-2.025,5.061-2.025-5.061V184.18Zm0,0" transform="translate(-384.325 -160.874)" fill="#1e81ce"/>
      <path id="Trazado_995254" data-name="Trazado 995254" d="M440.09,40.18h4.049V58.4H440.09Zm0,0" transform="translate(-384.325 -35.095)" fill="#5aaae7"/>
      <path id="Trazado_995255" data-name="Trazado 995255" d="M30.163,296.18V306.3H24.09Zm0,0" transform="translate(-20.963 -258.703)" fill="#00b39d"/>
      <path id="Trazado_995256" data-name="Trazado 995256" d="M212.434,296.18l6.074,10.123H190.164L184.09,296.18Zm0,0" transform="translate(-160.718 -258.703)" fill="#009986"/>
      <path id="Trazado_995257" data-name="Trazado 995257" d="M86.262,296.18v22.27H72.09V296.18Zm0,0" transform="translate(-62.89 -258.703)" fill="#00ccb3"/>
      <path id="Trazado_995258" data-name="Trazado 995258" d="M66.213,109.241a5.061,5.061,0,1,1-5.061-5.061A5.061,5.061,0,0,1,66.213,109.241Zm0,0" transform="translate(-48.914 -90.997)" fill="#ff5023"/>
      <path id="Trazado_995259" data-name="Trazado 995259" d="M304.09,160.18h6.074a3.037,3.037,0,1,1-6.074,0Zm0,0" transform="translate(-265.534 -139.911)" fill="#898890"/>
      <path id="Trazado_995260" data-name="Trazado 995260" d="M296.846,128.292a2.023,2.023,0,0,1-.658,3.937h-6.074a2.03,2.03,0,0,1-2.025-2.025,1.979,1.979,0,0,1,.6-1.427,1.914,1.914,0,0,1,.769-.486,1.989,1.989,0,0,1,.658-.112h6.074A1.986,1.986,0,0,1,296.846,128.292Zm0,0" transform="translate(-251.558 -111.961)" fill="#acabb1"/>
      <path id="Trazado_995261" data-name="Trazado 995261" d="M280.279,16.212a8.082,8.082,0,0,1-4.4,7.2,1.987,1.987,0,0,0-.658-.112h-6.074a1.989,1.989,0,0,0-.658.112,8.1,8.1,0,1,1,11.793-7.2Zm0,0" transform="translate(-230.588 -7.078)" fill="#ffd422"/>
      <path id="Trazado_995262" data-name="Trazado 995262" d="M66.561,288.671a1.013,1.013,0,0,0-.867-.491H23.178a1,1,0,0,0-.853.5l-.014-.009-6.074,10.123a1.012,1.012,0,0,0,.867,1.533h5.061v11.135a1.012,1.012,0,0,0,1.012,1.012H65.693a1.012,1.012,0,0,0,1.012-1.012V300.327h5.061a1.012,1.012,0,0,0,.867-1.533ZM18.892,298.3l3.274-5.456V298.3ZM36.337,310.45H24.19V290.2H36.337Zm28.344,0H38.362v-17.6l4.194,6.99a1.012,1.012,0,0,0,.867.491H64.681ZM44,298.3l-4.859-8.1H65.12l4.859,8.1Zm0,0" transform="translate(-13.978 -251.715)"/>
      <path id="Trazado_995263" data-name="Trazado 995263" d="M259.753,16.415a3,3,0,0,0,1.491,4.709,4.049,4.049,0,0,0,7.908,0,3,3,0,0,0,1.491-4.709,9.11,9.11,0,1,0-10.89,0Zm5.445,5.878a2.015,2.015,0,0,1-1.743-1.012h3.486a2.016,2.016,0,0,1-1.743,1.012Zm3.037-3.037h-6.074a1.012,1.012,0,0,1,0-2.025h6.074a1.012,1.012,0,1,1,0,2.025ZM265.2,2.048a7.07,7.07,0,0,1,3.523,13.21,2.966,2.966,0,0,0-.486-.05h-6.074a2.972,2.972,0,0,0-.486.05A7.07,7.07,0,0,1,265.2,2.048Zm0,0" transform="translate(-223.605)"/>
      <path id="Trazado_995264" data-name="Trazado 995264" d="M293.143,60.992l1.182-1.776,1.182,1.773a1.012,1.012,0,0,0,1.685,0l2.025-3.037-1.684-1.123-1.182,1.779-1.182-1.776a1.052,1.052,0,0,0-1.684,0L292.3,58.608l-1.182-1.776-1.684,1.123,2.025,3.037a1.052,1.052,0,0,0,1.685,0Zm0,0" transform="translate(-252.732 -49.272)"/>
      <path id="Trazado_995265" data-name="Trazado 995265" d="M54.163,108.327a6.074,6.074,0,1,0-6.074-6.074A6.073,6.073,0,0,0,54.163,108.327Zm0-10.123a4.049,4.049,0,1,1-4.049,4.049A4.049,4.049,0,0,1,54.163,98.2Zm0,0" transform="translate(-41.926 -84.009)"/>
      <path id="Trazado_995266" data-name="Trazado 995266" d="M2.216,67.485l2.864,2.864a1.013,1.013,0,0,0,1.277.127l1.518-1.012a10.193,10.193,0,0,0,.983.4l.362,1.8a1.012,1.012,0,0,0,.992.81h4.049a1.011,1.011,0,0,0,.992-.81l.359-1.8a10.193,10.193,0,0,0,.983-.4l1.518,1.012a1.013,1.013,0,0,0,1.278-.127l2.866-2.865a1.012,1.012,0,0,0,.127-1.278l-1.012-1.518a10.113,10.113,0,0,0,.405-.983l1.8-.362a1.012,1.012,0,0,0,.81-.993V58.3a1.012,1.012,0,0,0-.81-.992l-1.8-.359a10.114,10.114,0,0,0-.405-.983l1.012-1.518a1.012,1.012,0,0,0-.127-1.278L19.4,50.305a1.013,1.013,0,0,0-1.278-.127L16.6,51.191a10.191,10.191,0,0,0-.983-.4l-.362-1.8a1.012,1.012,0,0,0-.992-.81H10.212a1.013,1.013,0,0,0-.992.81l-.359,1.8a10.182,10.182,0,0,0-.983.4L6.36,50.178a1.013,1.013,0,0,0-1.278.127L2.216,53.169a1.012,1.012,0,0,0-.127,1.278L3.1,55.965a10.059,10.059,0,0,0-.4.983L.9,57.31a1.013,1.013,0,0,0-.81.992v4.049a1.013,1.013,0,0,0,.81.993l1.8.359a10.11,10.11,0,0,0,.4.983L2.088,66.2a1.013,1.013,0,0,0,.128,1.281Zm-.1-5.963V59.133l1.567-.314a1.012,1.012,0,0,0,.774-.715,8.078,8.078,0,0,1,.709-1.71,1.012,1.012,0,0,0-.042-1.054l-.885-1.326,1.69-1.69,1.326.885a1.012,1.012,0,0,0,1.054.042,8.078,8.078,0,0,1,1.71-.709,1.012,1.012,0,0,0,.715-.774l.31-1.563h2.389l.314,1.567a1.012,1.012,0,0,0,.715.775,8.113,8.113,0,0,1,1.71.708,1.012,1.012,0,0,0,1.054-.042l1.326-.885,1.69,1.69-.885,1.326a1.012,1.012,0,0,0-.042,1.054,8.113,8.113,0,0,1,.708,1.71,1.013,1.013,0,0,0,.775.715l1.563.31v2.389l-1.567.314a1.013,1.013,0,0,0-.775.715,8.1,8.1,0,0,1-.708,1.71,1.011,1.011,0,0,0,.042,1.054l.885,1.326-1.691,1.69-1.326-.885a1.012,1.012,0,0,0-1.054-.042,8.093,8.093,0,0,1-1.71.709,1.011,1.011,0,0,0-.714.774l-.31,1.563H11.043l-.314-1.567a1.013,1.013,0,0,0-.715-.775A8.1,8.1,0,0,1,8.3,67.4a1.012,1.012,0,0,0-1.054.042l-1.326.885-1.69-1.69.885-1.326a1.013,1.013,0,0,0,.042-1.054,8.088,8.088,0,0,1-.709-1.71,1.012,1.012,0,0,0-.775-.715Zm0,0" transform="translate(0 -42.083)"/>
      <path id="Trazado_995267" data-name="Trazado 995267" d="M435.127.18a3.037,3.037,0,0,0-3.037,3.037V24.474a1.022,1.022,0,0,0,.072.377l2.025,5.061a1.012,1.012,0,0,0,1.881,0l2.025-5.061a1.023,1.023,0,0,0,.072-.377V3.217A3.037,3.037,0,0,0,435.127.18Zm0,2.025a1.012,1.012,0,0,1,1.012,1.012V4.229h-2.025V3.217A1.012,1.012,0,0,1,435.127,2.2ZM434.115,22.45V6.253h2.025v16.2Zm1.012,4.361-.934-2.336h1.869Zm0,0" transform="translate(-377.337 -0.157)"/>
      <path id="Trazado_995268" data-name="Trazado 995268" d="M190.186,204.353h2.025a14.98,14.98,0,0,0-4.346-9.826l-1.431,1.431A13.16,13.16,0,0,1,190.186,204.353Zm0,0" transform="translate(-162.765 -169.913)"/>
      <path id="Trazado_995269" data-name="Trazado 995269" d="M266.177,211.484c0-.032.506-3.258,4.775-7.526l-1.431-1.431c-4.739,4.739-5.325,8.512-5.348,8.67Zm0,0" transform="translate(-230.667 -176.9)"/>
      <path id="Trazado_995270" data-name="Trazado 995270" d="M364.582,207.869l-1.815-.9a19.633,19.633,0,0,0-.838,1.965l1.9.691a17.9,17.9,0,0,1,.751-1.76Zm0,0" transform="translate(-316.054 -180.783)"/>
      <path id="Trazado_995271" data-name="Trazado 995271" d="M352.09,257.178h2.025a14.272,14.272,0,0,1,.175-1.869l-2-.3a15.86,15.86,0,0,0-.2,2.173Zm0,0" transform="translate(-307.46 -222.737)"/>
      <path id="Trazado_995272" data-name="Trazado 995272" d="M375.3,186.472l-1.627-1.2a17.754,17.754,0,0,0-1.169,1.8l1.761,1A16.245,16.245,0,0,1,375.3,186.472Zm0,0" transform="translate(-325.295 -161.826)"/>
      <path id="Trazado_995273" data-name="Trazado 995273" d="M357.612,231.063l-1.933-.594c-.2.673-.382,1.366-.523,2.059l1.985.4A18.5,18.5,0,0,1,357.612,231.063Zm0,0" transform="translate(-310.139 -201.306)"/>
      <path id="Trazado_995274" data-name="Trazado 995274" d="M389.382,171.958l-1.431-1.431q-.5.5-.939,1.021l1.549,1.306C388.815,172.549,389.091,172.255,389.382,171.958Zm0,0" transform="translate(-337.963 -148.949)"/>
      <path id="Trazado_995275" data-name="Trazado 995275" d="M352.09,432.18h4.049V434.2H352.09Zm0,0" transform="translate(-307.46 -377.494)"/>
      <path id="Trazado_995276" data-name="Trazado 995276" d="M320.09,432.18h2.025V434.2H320.09Zm0,0" transform="translate(-279.509 -377.494)"/>
    </g>
  </g>
</svg>
