<svg xmlns="http://www.w3.org/2000/svg" xmlns:xlink="http://www.w3.org/1999/xlink" width="110" height="110" viewBox="0 0 110 110">
  <defs>
    <filter id="Trazado_982547" x="0" y="0" width="110" height="110" filterUnits="userSpaceOnUse">
      <feOffset dy="3" input="SourceAlpha"/>
      <feGaussianBlur stdDeviation="3" result="blur"/>
      <feFlood flood-opacity="0.161"/>
      <feComposite operator="in" in2="blur"/>
      <feComposite in="SourceGraphic"/>
    </filter>
  </defs>
  <g id="Grupo_1159370" data-name="Grupo 1159370" transform="translate(-800 -4338)">
    <g id="Grupo_1157015" data-name="Grupo 1157015" transform="translate(0 3549)">
      <g id="Grupo_1155792" data-name="Grupo 1155792" transform="translate(-1 -3894.666)">
        <g id="Grupo_1154703" data-name="Grupo 1154703" transform="translate(0 1465.666)">
          <g id="Grupo_1150789" data-name="Grupo 1150789" transform="translate(3 2320)">
            <g id="Grupo_1154212" data-name="Grupo 1154212" transform="translate(-236 -5809)">
              <g id="Grupo_1152583" data-name="Grupo 1152583" transform="translate(1043 6713)">
                <g id="Grupo_1146973" data-name="Grupo 1146973" transform="translate(0 0)">
                  <g id="Grupo_1146954" data-name="Grupo 1146954">
                    <g transform="matrix(1, 0, 0, 1, -9, -6)" filter="url(#Trazado_982547)">
                      <g id="Trazado_982547-2" data-name="Trazado 982547" transform="translate(9 6)" fill="#fceaf1">
                        <path d="M 46 90.49987030029297 C 39.99187850952148 90.49987030029297 34.16426849365234 89.32350921630859 28.67905426025391 87.00345611572266 C 23.38019943237305 84.76224517822266 18.62104034423828 81.55341339111328 14.53374671936035 77.46613311767578 C 10.44646644592285 73.37885284423828 7.237639904022217 68.61969757080078 4.996413230895996 63.32085418701172 C 2.676359891891479 57.83565521240234 1.5 52.008056640625 1.5 45.99993515014648 C 1.5 39.99181365966797 2.676359891891479 34.16421508789062 4.996413230895996 28.67901420593262 C 7.237639904022217 23.38017463684082 10.44646644592285 18.62101554870605 14.53374671936035 14.53373527526855 C 18.62104034423828 10.44645500183105 23.38019943237305 7.23762845993042 28.67905426025391 4.996415138244629 C 34.16426849365234 2.676361799240112 39.99187850952148 1.500001788139343 46 1.500001788139343 C 52.00812149047852 1.500001788139343 57.83573150634766 2.676361799240112 63.32094573974609 4.996415138244629 C 68.61979675292969 7.23762845993042 73.37895965576172 10.44645500183105 77.46625518798828 14.53373527526855 C 81.55353546142578 18.62101554870605 84.76235961914062 23.38017463684082 87.00358581542969 28.67901420593262 C 89.32363891601562 34.16421508789062 90.5 39.99181365966797 90.5 45.99993515014648 C 90.5 52.008056640625 89.32363891601562 57.83565521240234 87.00358581542969 63.32085418701172 C 84.76235961914062 68.61969757080078 81.55353546142578 73.37885284423828 77.46625518798828 77.46613311767578 C 73.37895965576172 81.55341339111328 68.61979675292969 84.76224517822266 63.32094573974609 87.00345611572266 C 57.83573150634766 89.32350921630859 52.00812149047852 90.49987030029297 46 90.49987030029297 Z" stroke="none"/>
                        <path d="M 46 2.999992370605469 C 40.1937141418457 2.999992370605469 34.56269836425781 4.136489868164062 29.26337051391602 6.377906799316406 C 24.14332580566406 8.543502807617188 19.54441070556641 11.64437866210938 15.59439849853516 15.59437561035156 C 11.64440155029297 19.54439544677734 8.54351806640625 24.14329528808594 6.377914428710938 29.26333618164062 C 4.136497497558594 34.56264877319336 3 40.19366455078125 3 45.99993515014648 C 3 51.80620574951172 4.136497497558594 57.43720626831055 6.377914428710938 62.73651885986328 C 8.54351806640625 67.8565673828125 11.64440155029297 72.45545959472656 15.59439849853516 76.40547943115234 C 19.54441070556641 80.35547637939453 24.14332580566406 83.45635223388672 29.26337051391602 85.6219482421875 C 34.56269836425781 87.86336517333984 40.1937141418457 88.99986267089844 46 88.99986267089844 C 51.8062858581543 88.99986267089844 57.43730163574219 87.86336517333984 62.73661422729492 85.6219482421875 C 67.85667419433594 83.45635223388672 72.45557403564453 80.35547637939453 76.40558624267578 76.40547943115234 C 80.35559844970703 72.45545959472656 83.45647430419922 67.8565673828125 85.6220703125 62.73651885986328 C 87.86350250244141 57.43720626831055 89 51.80620574951172 89 45.99993515014648 C 89 40.19366455078125 87.86350250244141 34.56264877319336 85.6220703125 29.26333618164062 C 83.45647430419922 24.14329528808594 80.35559844970703 19.54439544677734 76.40558624267578 15.59437561035156 C 72.45557403564453 11.64437866210938 67.85667419433594 8.543502807617188 62.73661422729492 6.377906799316406 C 57.43730163574219 4.136489868164062 51.8062858581543 2.999992370605469 46 2.999992370605469 M 46 -7.62939453125e-06 C 71.40509033203125 -7.62939453125e-06 92 20.59486389160156 92 45.99993515014648 C 92 71.40499114990234 71.40509033203125 91.99986267089844 46 91.99986267089844 C 20.59490203857422 91.99986267089844 0 71.40499114990234 0 45.99993515014648 C 0 20.59486389160156 20.59490203857422 -7.62939453125e-06 46 -7.62939453125e-06 Z" stroke="none" fill="#e93b81"/>
                      </g>
                    </g>
                  </g>
                </g>
              </g>
            </g>
          </g>
        </g>
      </g>
    </g>
    <g id="estrategia-de-planificacion" transform="translate(810.462 4340.264)">
      <path id="Trazado_995234" data-name="Trazado 995234" d="M146.924,44.626a2.592,2.592,0,0,1,2.395-1.6h3.025V37.318h-3.025a2.592,2.592,0,0,1-1.833-4.425l2.139-2.139-4.036-4.036-2.139,2.139a2.592,2.592,0,0,1-2.825.562h0a2.592,2.592,0,0,1-1.6-2.395V24h-5.708s0,1.665,0,3.024a2.6,2.6,0,0,1-1.608,2.4l-.04.017a2.515,2.515,0,0,1-2.741-.545l-2.174-2.175-4.036,4.036,2.139,2.139a2.592,2.592,0,0,1-1.833,4.425H120v5.708h3.025a2.592,2.592,0,0,1,2.395,1.6h0a2.592,2.592,0,0,1-.562,2.825l-2.139,2.139,4.036,4.036,2.139-2.139a2.592,2.592,0,0,1,2.825-.562h0a2.592,2.592,0,0,1,1.6,2.395v3.025h5.708s0-1.665,0-3.024a2.6,2.6,0,0,1,1.608-2.4l.04-.017a2.515,2.515,0,0,1,2.741.545l2.174,2.175,4.036-4.036-2.139-2.139a2.592,2.592,0,0,1-.562-2.825Zm-10.753.3a4.756,4.756,0,1,1,4.756-4.756A4.756,4.756,0,0,1,136.172,44.928Z" transform="translate(-91.633 -7.049)" fill="#ef5e3b"/>
      <rect id="Rectángulo_409976" data-name="Rectángulo 409976" width="13.953" height="9.66" transform="translate(57.418 63.813)" fill="#ffc431"/>
      <path id="Trazado_995235" data-name="Trazado 995235" d="M360,253.879h15.22V240.562A8.562,8.562,0,0,0,366.659,232H360Z" transform="translate(-303.095 -190.315)" fill="#ffceb6"/>
      <rect id="Rectángulo_409977" data-name="Rectángulo 409977" width="13.953" height="9.66" transform="translate(17.705 63.813)" fill="#ffc431"/>
      <path id="Trazado_995236" data-name="Trazado 995236" d="M39.22,253.879H24V240.562A8.562,8.562,0,0,1,32.562,232H39.22Z" transform="translate(-7.049 -190.315)" fill="#ffceb6"/>
      <path id="Trazado_995237" data-name="Trazado 995237" d="M96,216v26.636a2.854,2.854,0,0,0,2.854,2.854H131.2a2.854,2.854,0,0,0,2.854-2.854V216Z" transform="translate(-70.487 -176.218)" fill="#548aff"/>
      <path id="Trazado_995238" data-name="Trazado 995238" d="M373.708,214.441h0a2.854,2.854,0,0,0-2.854-2.854H368V184h2.854a2.854,2.854,0,0,1,2.854,2.854Z" transform="translate(-310.144 -148.023)" fill="#7dafff"/>
      <path id="Trazado_995239" data-name="Trazado 995239" d="M96,214.441h0a2.854,2.854,0,0,1,2.854-2.854h2.854V184H98.854A2.854,2.854,0,0,0,96,186.854Z" transform="translate(-70.487 -148.023)" fill="#7dafff"/>
      <path id="Trazado_995240" data-name="Trazado 995240" d="M232,337.9l2.854-1.9,2.854,1.9-2.854,1.9Z" transform="translate(-190.315 -281.949)" fill="#fa8669"/>
      <path id="Trazado_995241" data-name="Trazado 995241" d="M168.951,336,168,339.805h4.756l.951-3.805Z" transform="translate(-133.926 -281.949)" fill="#ffc431"/>
      <path id="Trazado_995242" data-name="Trazado 995242" d="M296.951,336,296,339.805h4.756l.951-3.805Z" transform="translate(-246.705 -281.949)" fill="#ffc431"/>
      <rect id="Rectángulo_409978" data-name="Rectángulo 409978" width="4.293" height="4.293" rx="2.147" transform="translate(42.391 46.64)" fill="#a6cfff"/>
      <rect id="Rectángulo_409979" data-name="Rectángulo 409979" width="4.293" height="3.22" rx="1.61" transform="translate(42.391 60.593)" fill="#a6cfff"/>
      <path id="Trazado_995243" data-name="Trazado 995243" d="M312,395.549v-2.854l1.138-.569a1.185,1.185,0,0,1,1.368.222h0a1.185,1.185,0,0,0,.838.347h1.412v2.854Z" transform="translate(-260.803 -331.29)" fill="#ffe28f"/>
      <path id="Trazado_995244" data-name="Trazado 995244" d="M64,269.708l6.074-5.206a2.083,2.083,0,0,1,1.356-.5h0a2.083,2.083,0,0,1,2.083,2.083v.016a2.083,2.083,0,0,1-.483,1.334l-4.274,5.128h0a8.767,8.767,0,0,1-3.454,4.522l-.351.234H64Z" transform="translate(-42.292 -218.51)" fill="#ffceb6"/>
      <path id="Trazado_995245" data-name="Trazado 995245" d="M377.513,269.708l-6.074-5.206a2.084,2.084,0,0,0-1.356-.5h0A2.083,2.083,0,0,0,368,266.083v.016a2.083,2.083,0,0,0,.483,1.334l4.274,5.128h0a8.767,8.767,0,0,0,3.454,4.522l.351.234h.951Z" transform="translate(-310.144 -218.51)" fill="#ffceb6"/>
      <path id="Trazado_995246" data-name="Trazado 995246" d="M181.88,286.269h-1.412a.233.233,0,0,1-.165-.068,2.14,2.14,0,0,0-.326-.265v-1.569h.951a.951.951,0,0,0,.923-.721l.951-3.805a.951.951,0,0,0-.923-1.182h-4.756a.951.951,0,0,0-.923.721l-.3,1.182h-1.347l-2.614-1.743a.951.951,0,0,0-1.055,0l-2.614,1.743H167.4l.18-.721a.951.951,0,0,0-.923-1.182h-1.9v-2.854h3.017a2.858,2.858,0,0,0,2.69,1.9h1.9a2.854,2.854,0,1,0,0-5.708h-1.9a2.858,2.858,0,0,0-2.69,1.9h-3.969a.951.951,0,0,0-.951.951v3.805H161.9a.951.951,0,0,0-.923.721l-.951,3.8a.951.951,0,0,0,.923,1.182h4.756a.951.951,0,0,0,.923-.721l.3-1.182h1.348l2.614,1.743a.951.951,0,0,0,1.055,0l2.614-1.743h.872l-.18.721a.951.951,0,0,0,.923,1.182h1.9V285.7a2.143,2.143,0,0,0-.238.1l-1.138.569a.951.951,0,0,0-.526.851h-1.115a2.858,2.858,0,0,0-2.69-1.9h-1.9a2.854,2.854,0,1,0,0,5.708h1.9a2.858,2.858,0,0,0,2.69-1.9h1.115v.951a.951.951,0,0,0,.951.951h4.756a.951.951,0,0,0,.951-.951V287.22A.951.951,0,0,0,181.88,286.269ZM170.464,273.9h1.9a.951.951,0,1,1,0,1.9h-1.9a.951.951,0,1,1,0-1.9Zm-5.5,8.561h-2.8l.476-1.9h2.8Zm6.45-.192-1.139-.759,1.139-.759,1.139.759Zm6.45-1.711h2.8l-.476,1.9h-2.8Zm-5.5,8.562h-1.9a.951.951,0,0,1,0-1.9h1.9a.951.951,0,1,1,0,1.9Zm8.562,0h-2.854v-1.315l.613-.306a.234.234,0,0,1,.27.044,2.123,2.123,0,0,0,1.511.626h.46Z" transform="translate(-126.877 -225.559)"/>
      <rect id="Rectángulo_409980" data-name="Rectángulo 409980" width="1.073" height="1.073" transform="translate(38.098 43.42)"/>
      <rect id="Rectángulo_409981" data-name="Rectángulo 409981" width="4.293" height="1.073" transform="translate(42.391 43.42)"/>
      <rect id="Rectángulo_409982" data-name="Rectángulo 409982" width="1.073" height="1.073" transform="translate(49.905 43.42)"/>
      <path id="Trazado_995247" data-name="Trazado 995247" d="M64.515,181.755v-1.95A3.809,3.809,0,0,0,60.71,176H57.856a.951.951,0,0,0-.951.951v2.854H32.172v-2.854A.951.951,0,0,0,31.22,176H28.367a3.809,3.809,0,0,0-3.805,3.805v1.95A9.526,9.526,0,0,0,16,191.22v22.831h1.9V205.49h6.659v1.9a3.809,3.809,0,0,0,3.805,3.805H31.22v2.854h1.9V211.2H55.954v2.854h1.9V211.2H60.71a3.809,3.809,0,0,0,3.805-3.805v-1.9h6.659v8.562h1.9V191.22A9.526,9.526,0,0,0,64.515,181.755ZM60.71,177.9a1.9,1.9,0,0,1,1.9,1.9v7.037l-.7-.6a3.031,3.031,0,0,0-3.107-.511V177.9Zm-1.9,14.043L61.77,195.5a9.688,9.688,0,0,0,.843,1.775V204.1a3.782,3.782,0,0,0-1.9-.511h-1.9Zm-32.343,5.33a9.687,9.687,0,0,0,.843-1.775l2.963-3.555v11.642h-1.9a3.782,3.782,0,0,0-1.9.511Zm1.9-19.373h1.9v7.83a3.031,3.031,0,0,0-3.107.511l-.7.6v-7.037a1.9,1.9,0,0,1,1.9-1.9ZM17.9,203.587V191.22a7.62,7.62,0,0,1,6.659-7.549v4.8l-3.473,2.977,1.238,1.445,6.074-5.206a1.132,1.132,0,0,1,1.869.859v.016a1.134,1.134,0,0,1-.262.725l-4.274,5.128a.952.952,0,0,0-.172.308,7.853,7.853,0,0,1-3.08,4.032l-.351.234,1.056,1.583.351-.234a9.623,9.623,0,0,0,1.024-.789v4.037Zm42.808,5.708H28.367a1.9,1.9,0,1,1,0-3.805H31.22a.951.951,0,0,0,.951-.951V181.708H56.905v22.831a.951.951,0,0,0,.951.951H60.71a1.9,1.9,0,0,1,0,3.805Zm10.464-5.708H64.515V199.55a9.62,9.62,0,0,0,1.024.789l.351.234,1.056-1.583-.351-.234a7.853,7.853,0,0,1-3.079-4.032.952.952,0,0,0-.172-.308l-4.274-5.128a1.134,1.134,0,0,1-.262-.725v-.016a1.132,1.132,0,0,1,1.869-.859l6.074,5.206,1.238-1.445-3.473-2.977v-4.8a7.62,7.62,0,0,1,6.659,7.549Z" transform="translate(0 -140.974)"/>
      <path id="Trazado_995248" data-name="Trazado 995248" d="M113.9,31.22h2.073a3.543,3.543,0,0,0,2.505-6.049l-1.466-1.466,2.69-2.691,1.5,1.5a3.456,3.456,0,0,0,3.777.752l.041-.017a3.539,3.539,0,0,0,2.2-3.277V17.9h3.805v2.073a3.543,3.543,0,0,0,6.049,2.505l1.466-1.466,2.691,2.691-1.466,1.466a3.543,3.543,0,0,0,2.505,6.049h2.073v1.9h1.9V30.269a.951.951,0,0,0-.951-.951H142.27a1.641,1.641,0,0,1-1.16-2.8l2.139-2.139a.951.951,0,0,0,0-1.345L139.213,19a.951.951,0,0,0-1.345,0l-2.139,2.139a1.641,1.641,0,0,1-2.8-1.16V16.951a.951.951,0,0,0-.951-.951h-5.708a.951.951,0,0,0-.951.951v3.024a1.642,1.642,0,0,1-1.02,1.519l-.041.017a1.559,1.559,0,0,1-1.7-.339L120.379,19a.951.951,0,0,0-.673-.279h0a.951.951,0,0,0-.673.279L115,23.033a.951.951,0,0,0,0,1.345l2.139,2.139a1.641,1.641,0,0,1-1.16,2.8h-3.025a.951.951,0,0,0-.951.951v2.854h1.9Z" transform="translate(-84.585)"/>
      <path id="Trazado_995249" data-name="Trazado 995249" d="M218.272,121.135a5.708,5.708,0,1,0-9.132,0l1.521-1.143a3.805,3.805,0,1,1,6.089,0Z" transform="translate(-169.168 -84.587)"/>
    </g>
  </g>
</svg>
