<svg xmlns="http://www.w3.org/2000/svg" xmlns:xlink="http://www.w3.org/1999/xlink" width="110" height="110" viewBox="0 0 110 110">
  <defs>
    <filter id="Trazado_982547" x="0" y="0" width="110" height="110" filterUnits="userSpaceOnUse">
      <feOffset dy="3" input="SourceAlpha"/>
      <feGaussianBlur stdDeviation="3" result="blur"/>
      <feFlood flood-opacity="0.161"/>
      <feComposite operator="in" in2="blur"/>
      <feComposite in="SourceGraphic"/>
    </filter>
  </defs>
  <g id="Grupo_1160028" data-name="Grupo 1160028" transform="translate(-5536.637 -3795.39)">
    <g id="Grupo_1159371" data-name="Grupo 1159371" transform="translate(4736.637 -542.611)">
      <g id="Grupo_1157015" data-name="Grupo 1157015" transform="translate(0 3549)">
        <g id="Grupo_1155792" data-name="Grupo 1155792" transform="translate(-1 -3894.666)">
          <g id="Grupo_1154703" data-name="Grupo 1154703" transform="translate(0 1465.666)">
            <g id="Grupo_1150789" data-name="Grupo 1150789" transform="translate(3 2320)">
              <g id="Grupo_1154212" data-name="Grupo 1154212" transform="translate(-236 -5809)">
                <g id="Grupo_1152583" data-name="Grupo 1152583" transform="translate(1043 6713)">
                  <g id="Grupo_1146973" data-name="Grupo 1146973" transform="translate(0 0)">
                    <g id="Grupo_1146954" data-name="Grupo 1146954">
                      <g transform="matrix(1, 0, 0, 1, -9, -6)" filter="url(#Trazado_982547)">
                        <g id="Trazado_982547-2" data-name="Trazado 982547" transform="translate(9 6)" fill="#fceaf1">
                          <path d="M 46 90.49987030029297 C 39.99187850952148 90.49987030029297 34.16426849365234 89.32350921630859 28.67905426025391 87.00345611572266 C 23.38019943237305 84.76224517822266 18.62104034423828 81.55341339111328 14.53374671936035 77.46613311767578 C 10.44646644592285 73.37885284423828 7.237639904022217 68.61969757080078 4.996413230895996 63.32085418701172 C 2.676359891891479 57.83565521240234 1.5 52.008056640625 1.5 45.99993515014648 C 1.5 39.99181365966797 2.676359891891479 34.16421508789062 4.996413230895996 28.67901420593262 C 7.237639904022217 23.38017463684082 10.44646644592285 18.62101554870605 14.53374671936035 14.53373527526855 C 18.62104034423828 10.44645500183105 23.38019943237305 7.23762845993042 28.67905426025391 4.996415138244629 C 34.16426849365234 2.676361799240112 39.99187850952148 1.500001788139343 46 1.500001788139343 C 52.00812149047852 1.500001788139343 57.83573150634766 2.676361799240112 63.32094573974609 4.996415138244629 C 68.61979675292969 7.23762845993042 73.37895965576172 10.44645500183105 77.46625518798828 14.53373527526855 C 81.55353546142578 18.62101554870605 84.76235961914062 23.38017463684082 87.00358581542969 28.67901420593262 C 89.32363891601562 34.16421508789062 90.5 39.99181365966797 90.5 45.99993515014648 C 90.5 52.008056640625 89.32363891601562 57.83565521240234 87.00358581542969 63.32085418701172 C 84.76235961914062 68.61969757080078 81.55353546142578 73.37885284423828 77.46625518798828 77.46613311767578 C 73.37895965576172 81.55341339111328 68.61979675292969 84.76224517822266 63.32094573974609 87.00345611572266 C 57.83573150634766 89.32350921630859 52.00812149047852 90.49987030029297 46 90.49987030029297 Z" stroke="none"/>
                          <path d="M 46 2.999992370605469 C 40.1937141418457 2.999992370605469 34.56269836425781 4.136489868164062 29.26337051391602 6.377906799316406 C 24.14332580566406 8.543502807617188 19.54441070556641 11.64437866210938 15.59439849853516 15.59437561035156 C 11.64440155029297 19.54439544677734 8.54351806640625 24.14329528808594 6.377914428710938 29.26333618164062 C 4.136497497558594 34.56264877319336 3 40.19366455078125 3 45.99993515014648 C 3 51.80620574951172 4.136497497558594 57.43720626831055 6.377914428710938 62.73651885986328 C 8.54351806640625 67.8565673828125 11.64440155029297 72.45545959472656 15.59439849853516 76.40547943115234 C 19.54441070556641 80.35547637939453 24.14332580566406 83.45635223388672 29.26337051391602 85.6219482421875 C 34.56269836425781 87.86336517333984 40.1937141418457 88.99986267089844 46 88.99986267089844 C 51.8062858581543 88.99986267089844 57.43730163574219 87.86336517333984 62.73661422729492 85.6219482421875 C 67.85667419433594 83.45635223388672 72.45557403564453 80.35547637939453 76.40558624267578 76.40547943115234 C 80.35559844970703 72.45545959472656 83.45647430419922 67.8565673828125 85.6220703125 62.73651885986328 C 87.86350250244141 57.43720626831055 89 51.80620574951172 89 45.99993515014648 C 89 40.19366455078125 87.86350250244141 34.56264877319336 85.6220703125 29.26333618164062 C 83.45647430419922 24.14329528808594 80.35559844970703 19.54439544677734 76.40558624267578 15.59437561035156 C 72.45557403564453 11.64437866210938 67.85667419433594 8.543502807617188 62.73661422729492 6.377906799316406 C 57.43730163574219 4.136489868164062 51.8062858581543 2.999992370605469 46 2.999992370605469 M 46 -7.62939453125e-06 C 71.40509033203125 -7.62939453125e-06 92 20.59486389160156 92 45.99993515014648 C 92 71.40499114990234 71.40509033203125 91.99986267089844 46 91.99986267089844 C 20.59490203857422 91.99986267089844 0 71.40499114990234 0 45.99993515014648 C 0 20.59486389160156 20.59490203857422 -7.62939453125e-06 46 -7.62939453125e-06 Z" stroke="none" fill="#e93b81"/>
                        </g>
                      </g>
                    </g>
                  </g>
                </g>
              </g>
            </g>
          </g>
        </g>
      </g>
    </g>
    <g id="estrategia_2_" data-name="estrategia (2)" transform="translate(5563.123 3819.194)">
      <g id="Grupo_1160026" data-name="Grupo 1160026" transform="translate(0.912 0.912)">
        <path id="Trazado_995277" data-name="Trazado 995277" d="M83.867,78.234H33.005V47.809a2.281,2.281,0,0,1,2.281-2.281h46.3a2.281,2.281,0,0,1,2.281,2.281V78.234Z" transform="translate(-30.153 -41.248)" fill="#f9f6f6"/>
        <path id="Trazado_995278" data-name="Trazado 995278" d="M33.005,314.313H83.867v2.053H33.005Z" transform="translate(-30.153 -279.38)" fill="#ecdaec"/>
        <path id="Trazado_995279" data-name="Trazado 995279" d="M63.425,332.313H9.14A1.14,1.14,0,0,0,8,333.453v2a1.14,1.14,0,0,0,1.14,1.14H63.425a1.14,1.14,0,0,0,1.14-1.14v-2A1.14,1.14,0,0,0,63.425,332.313Z" transform="translate(-8 -295.327)" fill="#ffba57"/>
        <path id="Trazado_995280" data-name="Trazado 995280" d="M63.425,332.313H9.14A1.14,1.14,0,0,0,8,333.453v2a1.14,1.14,0,0,0,1.14,1.14H63.425a1.14,1.14,0,0,0,1.14-1.14v-2A1.14,1.14,0,0,0,63.425,332.313Z" transform="translate(-8 -295.327)" fill="#ffba57"/>
        <path id="Trazado_995281" data-name="Trazado 995281" d="M63.425,343.191H9.14A1.14,1.14,0,0,1,8,342.077c0,.009,0,.018,0,.027v2a1.14,1.14,0,0,0,1.14,1.14H63.425a1.14,1.14,0,0,0,1.14-1.14v-2c0-.009,0-.018,0-.027A1.14,1.14,0,0,1,63.425,343.191Z" transform="translate(-8 -303.978)" fill="#ffac3e"/>
        <path id="Trazado_995282" data-name="Trazado 995282" d="M223.4,8H216.39a1.14,1.14,0,0,0-1.14,1.14V12.28h9.295V9.14A1.14,1.14,0,0,0,223.4,8Z" transform="translate(-191.614 -8)" fill="#e8834d"/>
        <path id="Trazado_995283" data-name="Trazado 995283" d="M215.25,27.528h9.295v2.053H215.25Z" transform="translate(-191.614 -25.301)" fill="#d66e41"/>
        <path id="Trazado_995284" data-name="Trazado 995284" d="M124.8,385.141h-5.131l3.079-15.3h5.131Z" transform="translate(-106.933 -328.575)" fill="#e8834d"/>
        <path id="Trazado_995285" data-name="Trazado 995285" d="M143.045,371.894h5.131l.413-2.053h-5.131Z" transform="translate(-127.644 -328.575)" fill="#d66e41"/>
        <path id="Trazado_995286" data-name="Trazado 995286" d="M323.883,385.141h5.131l-3.079-15.3H320.8Z" transform="translate(-285.131 -328.575)" fill="#e8834d"/>
        <path id="Trazado_995287" data-name="Trazado 995287" d="M325.935,369.841H320.8l.413,2.053h5.131Z" transform="translate(-285.131 -328.575)" fill="#d66e41"/>
        <path id="Trazado_995288" data-name="Trazado 995288" d="M174.828,425.1h17.264l.736,3.653H174.092Z" transform="translate(-155.15 -377.53)" fill="#ffba57"/>
        <path id="Trazado_995289" data-name="Trazado 995289" d="M174.505,439.129l-.413,2.053h18.735l-.413-2.053Z" transform="translate(-155.15 -389.961)" fill="#ffac3e"/>
        <g id="Grupo_1160025" data-name="Grupo 1160025" transform="translate(11.078 10.349)">
          <circle id="Elipse_11793" data-name="Elipse 11793" cx="5.527" cy="5.527" r="5.527" fill="#98db7c"/>
        </g>
        <path id="Trazado_995290" data-name="Trazado 995290" d="M110.663,142.714a5.528,5.528,0,0,1-5.43-4.5,5.527,5.527,0,1,0,10.861,0A5.528,5.528,0,0,1,110.663,142.714Z" transform="translate(-94.058 -123.363)" fill="#82d361"/>
        <ellipse id="Elipse_11794" data-name="Elipse 11794" cx="2.769" cy="2.769" rx="2.769" ry="2.769" transform="matrix(0.16, -0.987, 0.987, 0.16, 26.977, 31.122)" fill="#ff4755"/>
        <path id="Trazado_995291" data-name="Trazado 995291" d="M250.957,253.58a2.769,2.769,0,0,1-2.572-1.743,2.769,2.769,0,1,0,5.144,0A2.769,2.769,0,0,1,250.957,253.58Z" transform="translate(-220.796 -224.029)" fill="#fc2b3a"/>
      </g>
      <g id="Grupo_1160027" data-name="Grupo 1160027" transform="translate(0 0)">
        <path id="Trazado_995292" data-name="Trazado 995292" d="M132.665,37.058h-.858V7.431a3.146,3.146,0,0,0-3.142-3.142H110.982V2a2,2,0,0,0-2-2h-7.027a2,2,0,0,0-2,2V4.288H93.91A.857.857,0,1,0,93.91,6h34.755a1.43,1.43,0,0,1,1.428,1.428V37.058H116.6a.857.857,0,0,0,0,1.714h16.069a.286.286,0,0,1,.286.286v2a.286.286,0,0,1-.286.286H86.949a.857.857,0,0,0,0,1.714h4.98l-2.879,14.3a.857.857,0,0,0,.84,1.026h5.141a.857.857,0,0,0,.84-.688l.939-4.668H114.18l.939,4.668a.857.857,0,0,0,.84.688H121.1a.857.857,0,0,0,.84-1.026l-2.879-14.3h13.6a2,2,0,0,0,2-2v-2a2,2,0,0,0-2-2ZM101.67,2a.286.286,0,0,1,.286-.286h7.027a.286.286,0,0,1,.286.286V4.288h-7.6Zm10.5,41.061.926,4.6H97.893l.926-4.6ZM94.33,56.677H90.937l2.74-13.616h3.393Zm2.826-5.356.392-1.946h15.895l.392,1.946Zm22.9,5.356h-3.393l-2.74-13.616h3.393Z" transform="translate(-76.274 0)"/>
        <path id="Trazado_995293" data-name="Trazado 995293" d="M7.247,74.659H2a.286.286,0,0,1-.286-.286v-2A.286.286,0,0,1,2,72.085H36.894a.857.857,0,1,0,0-1.714H4.571V40.743A1.43,1.43,0,0,1,6,39.315h8.209a.857.857,0,1,0,0-1.714H6a3.146,3.146,0,0,0-3.142,3.142V70.371H2a2,2,0,0,0-2,2v2a2,2,0,0,0,2,2H7.247a.857.857,0,1,0,0-1.714Z" transform="translate(0 -33.313)"/>
        <path id="Trazado_995294" data-name="Trazado 995294" d="M129.872,125.9a.857.857,0,0,0-1.212.015l-2.783,2.853-1.169-1.136a.857.857,0,0,0-1.195,1.229l1.782,1.733a.857.857,0,0,0,1.211-.016l3.38-3.466A.857.857,0,0,0,129.872,125.9Z" transform="translate(-109.198 -111.322)"/>
        <path id="Trazado_995295" data-name="Trazado 995295" d="M110.117,97.322a6.395,6.395,0,1,0-6.395,6.395A6.4,6.4,0,0,0,110.117,97.322ZM103.722,102a4.681,4.681,0,1,1,4.681-4.681A4.686,4.686,0,0,1,103.722,102Z" transform="translate(-86.227 -80.557)"/>
        <path id="Trazado_995296" data-name="Trazado 995296" d="M134.367,236.763a.857.857,0,0,0-1.212,0l-1.312,1.312-1.312-1.312a.857.857,0,0,0-1.212,1.212l1.312,1.312-1.312,1.312a.857.857,0,0,0,1.212,1.212l1.312-1.312,1.312,1.312a.857.857,0,0,0,1.212-1.212l-1.312-1.312,1.312-1.312A.857.857,0,0,0,134.367,236.763Z" transform="translate(-114.349 -209.54)"/>
        <path id="Trazado_995297" data-name="Trazado 995297" d="M363.55,236.763a.857.857,0,0,0-1.212,0l-1.312,1.312-1.312-1.312a.857.857,0,0,0-1.212,1.212l1.312,1.312L358.5,240.6a.857.857,0,0,0,1.212,1.212l1.312-1.312,1.312,1.312a.857.857,0,0,0,1.212-1.212l-1.312-1.312,1.312-1.312A.857.857,0,0,0,363.55,236.763Z" transform="translate(-317.395 -209.54)"/>
        <path id="Trazado_995298" data-name="Trazado 995298" d="M248.419,129.331a.857.857,0,0,0,1.212,0l1.312-1.312,1.312,1.312a.857.857,0,1,0,1.212-1.212l-1.312-1.312,1.312-1.312a.857.857,0,1,0-1.212-1.212l-1.312,1.312-1.312-1.312a.857.857,0,0,0-1.212,1.212l1.312,1.312-1.312,1.312A.857.857,0,0,0,248.419,129.331Z" transform="translate(-219.866 -109.887)"/>
        <path id="Trazado_995299" data-name="Trazado 995299" d="M240.658,232.634A3.632,3.632,0,1,0,244.29,229,3.636,3.636,0,0,0,240.658,232.634Zm5.549,0a1.918,1.918,0,1,1-1.918-1.918A1.92,1.92,0,0,1,246.207,232.634Z" transform="translate(-213.212 -202.886)"/>
        <path id="Trazado_995300" data-name="Trazado 995300" d="M224.347,123.76a.857.857,0,0,0,.691,1,22.341,22.341,0,0,0,3.676.283c2.819,0,6.725-.485,9.756-2.718a11.071,11.071,0,0,0,4.361-7.937.857.857,0,0,0-1.7-.208,9.424,9.424,0,0,1-3.671,6.761c-4.643,3.425-12.043,2.145-12.117,2.132A.858.858,0,0,0,224.347,123.76Z" transform="translate(-198.749 -100.488)"/>
      </g>
    </g>
  </g>
</svg>
