<svg xmlns="http://www.w3.org/2000/svg" xmlns:xlink="http://www.w3.org/1999/xlink" width="100.001" height="100.001" viewBox="0 0 100.001 100.001">
  <defs>
    <filter id="Trazado_904820" x="0" y="0" width="100.001" height="100.001" filterUnits="userSpaceOnUse">
      <feOffset dy="3" input="SourceAlpha"/>
      <feGaussianBlur stdDeviation="3" result="blur"/>
      <feFlood flood-opacity="0.161"/>
      <feComposite operator="in" in2="blur"/>
      <feComposite in="SourceGraphic"/>
    </filter>
    <clipPath id="clip-path">
      <path id="path6343" d="M0-682.665H50.03v50.03H0Z" transform="translate(0 682.665)"/>
    </clipPath>
  </defs>
  <g id="Grupo_1164291" data-name="Grupo 1164291" transform="translate(-508.999 -1129.132)">
    <g id="Grupo_1164016" data-name="Grupo 1164016" transform="translate(309.999 -1959.868)">
      <g id="Icono" transform="translate(208 3095)">
        <g transform="matrix(1, 0, 0, 1, -9, -6)" filter="url(#Trazado_904820)">
          <g id="Trazado_904820-2" data-name="Trazado 904820" transform="translate(9 6)" fill="#fbf2fb">
            <path d="M 41.00049209594727 80.50098419189453 C 35.66730499267578 80.50098419189453 30.49443244934082 79.45680999755859 25.62557411193848 77.39745330810547 C 20.92206764221191 75.40804290771484 16.69756317138672 72.55970764160156 13.06942176818848 68.93156433105469 C 9.441280364990234 65.30342102050781 6.592950820922852 61.07891464233398 4.603527545928955 56.37540817260742 C 2.544174432754517 51.50654983520508 1.499997973442078 46.33369064331055 1.499997973442078 41.00049209594727 C 1.499997973442078 35.66730499267578 2.544174432754517 30.49443244934082 4.603527545928955 25.62558555603027 C 6.592950820922852 20.92206764221191 9.441280364990234 16.69757461547852 13.06942176818848 13.06942176818848 C 16.69757461547852 9.441280364990234 20.92206764221191 6.592950820922852 25.62558555603027 4.603527545928955 C 30.49443244934082 2.544174432754517 35.66730499267578 1.499997973442078 41.00049209594727 1.499997973442078 C 46.33369064331055 1.499997973442078 51.50654983520508 2.544174432754517 56.37540817260742 4.603527545928955 C 61.07891464233398 6.592950820922852 65.30342102050781 9.441280364990234 68.93156433105469 13.06942176818848 C 72.55970764160156 16.69756317138672 75.40804290771484 20.92206764221191 77.39745330810547 25.62557411193848 C 79.45680999755859 30.49443244934082 80.50098419189453 35.66730499267578 80.50098419189453 41.00049209594727 C 80.50098419189453 46.33369064331055 79.45680999755859 51.50654983520508 77.39745330810547 56.37540817260742 C 75.40804290771484 61.07891464233398 72.55970764160156 65.30342102050781 68.93156433105469 68.93156433105469 C 65.30342102050781 72.55970764160156 61.07891464233398 75.40804290771484 56.37540817260742 77.39745330810547 C 51.50654983520508 79.45680999755859 46.33369064331055 80.50098419189453 41.00049209594727 80.50098419189453 Z" stroke="none"/>
            <path d="M 41.00049209594727 3 C 35.86913299560547 3 30.89286422729492 4.004302978515625 26.20990371704102 5.985038757324219 C 21.68518447875977 7.898826599121094 17.62095642089844 10.63921356201172 14.13008880615234 14.13008880615234 C 10.63921356201172 17.62095642089844 7.898826599121094 21.68518447875977 5.985038757324219 26.20990371704102 C 4.004302978515625 30.89286422729492 3 35.86913299560547 3 41.00049209594727 C 3 46.13185119628906 4.004302978515625 51.10811614990234 5.985038757324219 55.79107666015625 C 7.898826599121094 60.31579971313477 10.63921356201172 64.38002777099609 14.13008880615234 67.87089538574219 C 17.62095642089844 71.36177062988281 21.68518447875977 74.10215759277344 26.20990371704102 76.01594543457031 C 30.89286422729492 77.99668121337891 35.86913299560547 79.00098419189453 41.00049209594727 79.00098419189453 C 46.13185119628906 79.00098419189453 51.10811614990234 77.99668121337891 55.79107666015625 76.01594543457031 C 60.31579971313477 74.10215759277344 64.38002777099609 71.36177062988281 67.87089538574219 67.87089538574219 C 71.36177062988281 64.38002777099609 74.10215759277344 60.31579971313477 76.01594543457031 55.79107666015625 C 77.99668121337891 51.10811614990234 79.00098419189453 46.13185119628906 79.00098419189453 41.00049209594727 C 79.00098419189453 35.86913299560547 77.99668121337891 30.89286422729492 76.01594543457031 26.20990371704102 C 74.10215759277344 21.68518447875977 71.36177062988281 17.62095642089844 67.87089538574219 14.13008880615234 C 64.38002777099609 10.63921356201172 60.31579971313477 7.898826599121094 55.79107666015625 5.985038757324219 C 51.10811614990234 4.004302978515625 46.13185119628906 3 41.00049209594727 3 M 41.00049209594727 0 C 63.64443969726562 0 82.00098419189453 18.35654449462891 82.00098419189453 41.00049209594727 C 82.00098419189453 63.64443969726562 63.64443969726562 82.00098419189453 41.00049209594727 82.00098419189453 C 18.35654449462891 82.00098419189453 0 63.64443969726562 0 41.00049209594727 C 0 18.35654449462891 18.35654449462891 0 41.00049209594727 0 Z" stroke="none" fill="#e087dc"/>
          </g>
        </g>
      </g>
    </g>
    <g id="g6315" transform="translate(533.984 1836.782)">
      <g id="g6317" transform="translate(40.503 -681.932)">
        <path id="path6319" d="M-74.137,0-80,11.726l8.794-2.931V0Z" transform="translate(80)" fill="#3a6fd8"/>
      </g>
      <g id="g6321" transform="translate(0.733 -681.932)">
        <path id="path6323" d="M0,0V8.794l2.931,2.931h42.7V0Z" fill="#3b88f5"/>
      </g>
      <g id="g6325" transform="translate(34.64 -673.138)">
        <path id="path6327" d="M-148.274,0-160,13.289l11.726,13.289h2.931V0Z" transform="translate(160)" fill="#93b7c0"/>
      </g>
      <g id="g6329" transform="translate(0.733 -673.138)">
        <path id="path6331" d="M0,0V26.579H45.633V23.647L33.907,13.289,45.633,2.931V0Z" fill="#acd5df"/>
      </g>
      <g id="g6333" transform="translate(25.846 -670.206)">
        <path id="path6335" d="M-222.411,0-240,10.358l17.589,10.358h2.931V0Z" transform="translate(239.999)" fill="#c4f3ff"/>
      </g>
      <path id="path6337" d="M50-491.95H89.77v-20.716H50Z" transform="translate(-46.336 -157.541)" fill="#fff"/>
      <g id="g6339" transform="translate(0 -682.665)">
        <g id="g6341" clip-path="url(#clip-path)">
          <g id="g6347" transform="translate(25.015 15.39)">
            <path id="path6349" d="M0,0V33.907a.732.732,0,0,0,.6-.313l9.692-13.845a12.5,12.5,0,0,0,2.264-7.193A12.556,12.556,0,0,0,0,0" fill="#cc3245"/>
          </g>
          <g id="g6351" transform="translate(12.459 15.39)">
            <path id="path6353" d="M-164.594-424.8l7.43-13.845a15.256,15.256,0,0,0,1.735-7.193c0-6.935-4.309-12.556-9.625-12.556a12.556,12.556,0,0,0-12.556,12.556,12.5,12.5,0,0,0,2.264,7.193l9.692,13.845a.732.732,0,0,0,.6.313.538.538,0,0,0,.46-.313" transform="translate(177.61 458.395)" fill="#ff3e3a"/>
          </g>
          <g id="g6355" transform="translate(43.434 3.664)">
            <path id="path6357" d="M0-18.534A1.466,1.466,0,0,1,1.466-20a1.466,1.466,0,0,1,1.466,1.466,1.466,1.466,0,0,1-1.466,1.466A1.466,1.466,0,0,1,0-18.534" transform="translate(0 20)" fill="#94e368"/>
          </g>
          <g id="g6359" transform="translate(37.572 3.664)">
            <path id="path6361" d="M0-18.534A1.466,1.466,0,0,1,1.466-20a1.466,1.466,0,0,1,1.466,1.466,1.466,1.466,0,0,1-1.466,1.466A1.466,1.466,0,0,1,0-18.534" transform="translate(0 20)" fill="#ffd06a"/>
          </g>
          <g id="g6363" transform="translate(31.709 3.664)">
            <path id="path6365" d="M0-18.534A1.466,1.466,0,0,1,1.466-20a1.466,1.466,0,0,1,1.466,1.466,1.466,1.466,0,0,1-1.466,1.466A1.466,1.466,0,0,1,0-18.534" transform="translate(0 20)" fill="#ff3e3a"/>
          </g>
          <path id="path6367" d="M50-629.734H75.113v-2.932H50Z" transform="translate(-46.336 636.329)" fill="#fff" stroke="#000" stroke-linecap="round" stroke-linejoin="round" stroke-miterlimit="10" stroke-width="1"/>
          <g id="g6369" transform="translate(0.733 9.527)">
            <path id="path6371" d="M0,0H48.565" fill="none" stroke="#000" stroke-linecap="round" stroke-linejoin="round" stroke-miterlimit="10" stroke-width="1"/>
          </g>
          <g id="g6373" transform="translate(43.434 3.664)">
            <path id="path6375" d="M0-18.534A1.466,1.466,0,0,1,1.466-20a1.466,1.466,0,0,1,1.466,1.466,1.466,1.466,0,0,1-1.466,1.466A1.466,1.466,0,0,1,0-18.534Z" transform="translate(0 20)" fill="none" stroke="#000" stroke-linecap="round" stroke-linejoin="round" stroke-miterlimit="10" stroke-width="1"/>
          </g>
          <g id="g6377" transform="translate(37.572 3.664)">
            <path id="path6379" d="M0-18.534A1.466,1.466,0,0,1,1.466-20a1.466,1.466,0,0,1,1.466,1.466,1.466,1.466,0,0,1-1.466,1.466A1.466,1.466,0,0,1,0-18.534Z" transform="translate(0 20)" fill="none" stroke="#000" stroke-linecap="round" stroke-linejoin="round" stroke-miterlimit="10" stroke-width="1"/>
          </g>
          <g id="g6381" transform="translate(31.709 3.664)">
            <path id="path6383" d="M0-18.534A1.466,1.466,0,0,1,1.466-20a1.466,1.466,0,0,1,1.466,1.466,1.466,1.466,0,0,1-1.466,1.466A1.466,1.466,0,0,1,0-18.534Z" transform="translate(0 20)" fill="none" stroke="#000" stroke-linecap="round" stroke-linejoin="round" stroke-miterlimit="10" stroke-width="1"/>
          </g>
          <g id="g6385" transform="translate(0.733 0.733)">
            <path id="path6387" d="M-185.457-447.293h-14.666v-35.373h48.565v35.373h-14.666" transform="translate(200.123 482.665)" fill="none" stroke="#000" stroke-linecap="round" stroke-linejoin="round" stroke-miterlimit="10" stroke-width="1"/>
          </g>
          <g id="g6389" transform="translate(3.664 24.282)">
            <path id="path6391" d="M0,0V8.892H9.932" fill="none" stroke="#000" stroke-linecap="round" stroke-linejoin="round" stroke-miterlimit="10" stroke-width="1"/>
          </g>
          <g id="g6393" transform="translate(3.664 12.459)">
            <path id="path6395" d="M-414.373-261.95h9.932v-20.716h-42.7v8.892" transform="translate(447.143 282.666)" fill="none" stroke="#000" stroke-linecap="round" stroke-linejoin="round" stroke-miterlimit="10" stroke-width="1"/>
          </g>
          <g id="g6397" transform="translate(25.015 18.322)">
            <path id="path6399" d="M0,0V19.25A9.625,9.625,0,0,0,9.625,9.625,9.625,9.625,0,0,0,0,0" fill="#ffd06a"/>
          </g>
          <g id="g6401" transform="translate(15.39 18.322)">
            <path id="path6403" d="M-206.348-121.708c0-5.316-3-9.625-6.694-9.625a9.625,9.625,0,0,0-9.625,9.625,9.625,9.625,0,0,0,9.625,9.625c3.7,0,6.694-4.309,6.694-9.625" transform="translate(222.666 131.333)" fill="#ffe7b5"/>
          </g>
          <g id="g6405" transform="translate(15.39 18.322)">
            <path id="path6407" d="M-243.416-121.708a9.625,9.625,0,0,1-9.625,9.625,9.625,9.625,0,0,1-9.625-9.625,9.625,9.625,0,0,1,9.625-9.625A9.625,9.625,0,0,1-243.416-121.708Z" transform="translate(262.666 131.333)" fill="none" stroke="#000" stroke-linecap="round" stroke-linejoin="round" stroke-miterlimit="10" stroke-width="1"/>
          </g>
          <g id="g6409" transform="translate(12.459 15.39)">
            <path id="path6411" d="M-317.553-158.776a12.556,12.556,0,0,0-12.556-12.556,12.556,12.556,0,0,0-12.556,12.556,12.5,12.5,0,0,0,2.264,7.193l9.692,13.845a.732.732,0,0,0,.6.313.732.732,0,0,0,.6-.313l9.692-13.845A12.5,12.5,0,0,0-317.553-158.776Z" transform="translate(342.666 171.333)" fill="none" stroke="#000" stroke-linecap="round" stroke-linejoin="round" stroke-miterlimit="10" stroke-width="1"/>
          </g>
        </g>
      </g>
    </g>
  </g>
</svg>
