<svg xmlns="http://www.w3.org/2000/svg" xmlns:xlink="http://www.w3.org/1999/xlink" width="100.001" height="100.001" viewBox="0 0 100.001 100.001">
  <defs>
    <filter id="Trazado_904820" x="0" y="0" width="100.001" height="100.001" filterUnits="userSpaceOnUse">
      <feOffset dy="3" input="SourceAlpha"/>
      <feGaussianBlur stdDeviation="3" result="blur"/>
      <feFlood flood-opacity="0.161"/>
      <feComposite operator="in" in2="blur"/>
      <feComposite in="SourceGraphic"/>
    </filter>
  </defs>
  <g id="Grupo_1164296" data-name="Grupo 1164296" transform="translate(-1138.999 -1129.132)">
    <g id="Grupo_1164018" data-name="Grupo 1164018" transform="translate(939.999 -1959.868)">
      <g id="Icono" transform="translate(208 3095)">
        <g transform="matrix(1, 0, 0, 1, -9, -6)" filter="url(#Trazado_904820)">
          <g id="Trazado_904820-2" data-name="Trazado 904820" transform="translate(9 6)" fill="#fbf2fb">
            <path d="M 41.00049209594727 80.50098419189453 C 35.66730499267578 80.50098419189453 30.49443244934082 79.45680999755859 25.62557411193848 77.39745330810547 C 20.92206764221191 75.40804290771484 16.69756317138672 72.55970764160156 13.06942176818848 68.93156433105469 C 9.441280364990234 65.30342102050781 6.592950820922852 61.07891464233398 4.603527545928955 56.37540817260742 C 2.544174432754517 51.50654983520508 1.499997973442078 46.33369064331055 1.499997973442078 41.00049209594727 C 1.499997973442078 35.66730499267578 2.544174432754517 30.49443244934082 4.603527545928955 25.62558555603027 C 6.592950820922852 20.92206764221191 9.441280364990234 16.69757461547852 13.06942176818848 13.06942176818848 C 16.69757461547852 9.441280364990234 20.92206764221191 6.592950820922852 25.62558555603027 4.603527545928955 C 30.49443244934082 2.544174432754517 35.66730499267578 1.499997973442078 41.00049209594727 1.499997973442078 C 46.33369064331055 1.499997973442078 51.50654983520508 2.544174432754517 56.37540817260742 4.603527545928955 C 61.07891464233398 6.592950820922852 65.30342102050781 9.441280364990234 68.93156433105469 13.06942176818848 C 72.55970764160156 16.69756317138672 75.40804290771484 20.92206764221191 77.39745330810547 25.62557411193848 C 79.45680999755859 30.49443244934082 80.50098419189453 35.66730499267578 80.50098419189453 41.00049209594727 C 80.50098419189453 46.33369064331055 79.45680999755859 51.50654983520508 77.39745330810547 56.37540817260742 C 75.40804290771484 61.07891464233398 72.55970764160156 65.30342102050781 68.93156433105469 68.93156433105469 C 65.30342102050781 72.55970764160156 61.07891464233398 75.40804290771484 56.37540817260742 77.39745330810547 C 51.50654983520508 79.45680999755859 46.33369064331055 80.50098419189453 41.00049209594727 80.50098419189453 Z" stroke="none"/>
            <path d="M 41.00049209594727 3 C 35.86913299560547 3 30.89286422729492 4.004302978515625 26.20990371704102 5.985038757324219 C 21.68518447875977 7.898826599121094 17.62095642089844 10.63921356201172 14.13008880615234 14.13008880615234 C 10.63921356201172 17.62095642089844 7.898826599121094 21.68518447875977 5.985038757324219 26.20990371704102 C 4.004302978515625 30.89286422729492 3 35.86913299560547 3 41.00049209594727 C 3 46.13185119628906 4.004302978515625 51.10811614990234 5.985038757324219 55.79107666015625 C 7.898826599121094 60.31579971313477 10.63921356201172 64.38002777099609 14.13008880615234 67.87089538574219 C 17.62095642089844 71.36177062988281 21.68518447875977 74.10215759277344 26.20990371704102 76.01594543457031 C 30.89286422729492 77.99668121337891 35.86913299560547 79.00098419189453 41.00049209594727 79.00098419189453 C 46.13185119628906 79.00098419189453 51.10811614990234 77.99668121337891 55.79107666015625 76.01594543457031 C 60.31579971313477 74.10215759277344 64.38002777099609 71.36177062988281 67.87089538574219 67.87089538574219 C 71.36177062988281 64.38002777099609 74.10215759277344 60.31579971313477 76.01594543457031 55.79107666015625 C 77.99668121337891 51.10811614990234 79.00098419189453 46.13185119628906 79.00098419189453 41.00049209594727 C 79.00098419189453 35.86913299560547 77.99668121337891 30.89286422729492 76.01594543457031 26.20990371704102 C 74.10215759277344 21.68518447875977 71.36177062988281 17.62095642089844 67.87089538574219 14.13008880615234 C 64.38002777099609 10.63921356201172 60.31579971313477 7.898826599121094 55.79107666015625 5.985038757324219 C 51.10811614990234 4.004302978515625 46.13185119628906 3 41.00049209594727 3 M 41.00049209594727 0 C 63.64443969726562 0 82.00098419189453 18.35654449462891 82.00098419189453 41.00049209594727 C 82.00098419189453 63.64443969726562 63.64443969726562 82.00098419189453 41.00049209594727 82.00098419189453 C 18.35654449462891 82.00098419189453 0 63.64443969726562 0 41.00049209594727 C 0 18.35654449462891 18.35654449462891 0 41.00049209594727 0 Z" stroke="none" fill="#e087dc"/>
          </g>
        </g>
      </g>
    </g>
    <g id="_26-Content" data-name="26-Content" transform="translate(1165.22 1152.22)">
      <path id="Trazado_999265" data-name="Trazado 999265" d="M5,40H17.558v4.709H5Z" transform="translate(-0.86 -8.389)" fill="#a3c778"/>
      <path id="Trazado_999266" data-name="Trazado 999266" d="M5.709,31v4.709H1Z" transform="translate(0 -6.453)" fill="#c1c1c1"/>
      <path id="Trazado_999267" data-name="Trazado 999267" d="M14.845,46.7l2.888-2.888,2.1-2.1V31H5.709v4.709H1V56.116H19.837V48.55l-1.57,1.57L15.913,51.2l-3.924,1.782,1.782-3.924ZM4.14,42.773V38.064H16.7v4.709Z" transform="translate(0 -6.453)" fill="#f0f0f0"/>
      <path id="Trazado_999268" data-name="Trazado 999268" d="M13.558,13.558V4.14H4.14v9.419ZM1,18.268V2.57A1.574,1.574,0,0,1,2.57,1H27.686a1.574,1.574,0,0,1,1.57,1.57v15.7a1.574,1.574,0,0,1-.691,1.3,1.549,1.549,0,0,1-.879.267H2.57A1.574,1.574,0,0,1,1,18.268Z" fill="#d0d0d0"/>
      <path id="Trazado_999269" data-name="Trazado 999269" d="M14.419,5v5.494l-1.57-1.57-1.57,1.57L8.924,8.14,5,12.064V5Z" transform="translate(-0.86 -0.86)" fill="#fece98"/>
      <path id="Trazado_999270" data-name="Trazado 999270" d="M14.419,11.355v3.924H5V12.924L8.924,9l2.355,2.355,1.57-1.57Z" transform="translate(-0.86 -1.721)" fill="#a3c778"/>
      <circle id="Elipse_11811" data-name="Elipse 11811" cx="1.5" cy="1.5" r="1.5" transform="translate(41.78 18.78)" fill="#ececec"/>
      <path id="Trazado_999271" data-name="Trazado 999271" d="M49.709,15.14,45,18.279V12Z" transform="translate(-9.465 -2.366)" fill="#ececec"/>
      <path id="Trazado_999272" data-name="Trazado 999272" d="M54.977,7H36.14V19.558a1.574,1.574,0,0,1-.691,1.3,1.549,1.549,0,0,1-.879.267H33v4.709h4.419l.863-.863a2.433,2.433,0,0,1,3.43,0,2.311,2.311,0,0,1,.549.863H54.977a1.574,1.574,0,0,0,1.57-1.57V8.57A1.574,1.574,0,0,0,54.977,7ZM42.419,10.924l4.709,3.14L42.419,17.2ZM50.268,22.7a1.57,1.57,0,1,1,1.57-1.57,1.57,1.57,0,0,1-1.57,1.57Z" transform="translate(-6.884 -1.291)" fill="#db6454"/>
      <path id="Trazado_999273" data-name="Trazado 999273" d="M36.924,23.483a1.549,1.549,0,0,0,.879-.267,1.574,1.574,0,0,0,.691-1.3V7H36.14V19.558a1.574,1.574,0,0,1-.691,1.3,1.549,1.549,0,0,1-.879.267H33v2.355Z" transform="translate(-6.884 -1.291)" fill="#ba5242"/>
      <path id="Trazado_999274" data-name="Trazado 999274" d="M62.14,40V52.558H59V40Z" transform="translate(-12.477 -8.389)" fill="#fc8272"/>
      <path id="Trazado_999275" data-name="Trazado 999275" d="M18.924,56.143,15,57.924,16.782,54Z" transform="translate(-3.012 -11.401)" fill="#5e5e5e"/>
      <path id="Trazado_999276" data-name="Trazado 999276" d="M21.767,51v3.422L19.413,55.5,17.27,53.355,18.345,51Z" transform="translate(-3.5 -10.756)" fill="#fece98"/>
      <path id="Trazado_999277" data-name="Trazado 999277" d="M43.123,32.546a2.579,2.579,0,0,1-.432.589l-1.719,1.711L37.55,31.424l.848-.856.863-.863A2.421,2.421,0,0,1,43.4,31.416a2.476,2.476,0,0,1-.275,1.13Z" transform="translate(-7.862 -6.022)" fill="#fc8272"/>
      <path id="Trazado_999278" data-name="Trazado 999278" d="M34,38.424l-4.592,4.584H25.2a4.5,4.5,0,0,0,1.232,2.975l-4.372,4.372V46.932H18.64l7.347-7.347,7.5-7.5L36.9,35.512Z" transform="translate(-3.795 -6.688)" fill="#fdab62"/>
      <path id="Trazado_999279" data-name="Trazado 999279" d="M36.343,31l-.848.856-7.5,7.5V35.709L31.14,31h5.2Z" transform="translate(-5.808 -6.453)" fill="#ffbeaa"/>
      <path id="Trazado_999280" data-name="Trazado 999280" d="M52.116,39.391v10.2h-1.57c-1.57,0-3.14,1.57-6.279,1.57-6.279,0-6.279-3.14-7.849-3.14A21.477,21.477,0,0,1,33.53,47.7c-1.366-.212-2.606-.463-2.606-.463a3.749,3.749,0,0,1-2.692-.95A4.5,4.5,0,0,1,27,43.315H37.2l1.57-2.355L35.8,38.732l2.9-2.912,1.719-1.711a2.58,2.58,0,0,0,.432-.589l7.339,5.871Z" transform="translate(-5.593 -6.995)" fill="#ffcdbe"/>
      <path id="Trazado_999281" data-name="Trazado 999281" d="M59,40h1.57V52.558H59Z" transform="translate(-12.477 -8.389)" fill="#db6454"/>
      <path id="Trazado_999282" data-name="Trazado 999282" d="M41.578,35.865l-.461.459-2.9,2.912,2.972,2.229.991-1.648A3.14,3.14,0,0,0,41.578,35.865Z" transform="translate(-8.005 -7.5)" fill="#ffbeaa"/>
      <path id="Trazado_999283" data-name="Trazado 999283" d="M48.192,41v6.848a1.565,1.565,0,0,1-.929,1.433,11.93,11.93,0,0,1-3.78,1.137c-1.57,0-4.709-2.355-5.494-2.355S27,48.064,27,44.924A4.5,4.5,0,0,0,28.232,47.9a3.749,3.749,0,0,0,2.692.95s1.24.251,2.606.463a21.477,21.477,0,0,0,2.888.322c1.57,0,1.57,3.14,7.849,3.14,3.14,0,4.709-1.57,6.279-1.57h1.57V41Z" transform="translate(-5.593 -8.605)" fill="#ffbeaa"/>
      <path id="Trazado_999284" data-name="Trazado 999284" d="M21.279,54.93l-2.355,1.075-2.578,1.17L15,60.141l3.924-1.782,2.355-1.075,1.57-1.57V53.36Z" transform="translate(-3.012 -11.263)" fill="#e4e4e4"/>
      <path id="Trazado_999285" data-name="Trazado 999285" d="M4.924,37v1.57H2.57V57.407H1V37Z" transform="translate(0 -7.744)" fill="#e4e4e4"/>
      <g id="Grupo_1164295" data-name="Grupo 1164295" transform="translate(1 1)">
        <path id="Trazado_999286" data-name="Trazado 999286" d="M52.116,50.988h-1.57c-1.57,0-3.14,1.57-6.279,1.57-6.279,0-6.279-3.14-7.849-3.14a44.254,44.254,0,0,1-5.494-.785C27,48.634,27,44.709,27,44.709H37.2l1.57-2.355L35.634,40" transform="translate(-6.593 -9.389)" fill="none" stroke="#000" stroke-linejoin="round" stroke-width="1"/>
        <path id="Trazado_999287" data-name="Trazado 999287" d="M44,33l7.849,6.279h3.924" transform="translate(-10.25 -7.884)" fill="none" stroke="#000" stroke-linejoin="round" stroke-width="1"/>
        <path id="Trazado_999288" data-name="Trazado 999288" d="M59,40h3.14V52.558H59Z" transform="translate(-13.477 -9.389)" fill="none" stroke="#000" stroke-linejoin="round" stroke-width="1"/>
        <path id="Trazado_999289" data-name="Trazado 999289" d="M29.409,42.342,34,37.758l2.9-2.912,1.719-1.711a2.58,2.58,0,0,0,.432-.589,2.476,2.476,0,0,0,.275-1.13A2.421,2.421,0,0,0,35.193,29.7l-.863.863-.848.856-7.5,7.5L18.64,46.266h3.422v3.422l4.372-4.372" transform="translate(-4.795 -7.022)" fill="none" stroke="#000" stroke-linejoin="round" stroke-width="1"/>
        <path id="Trazado_999290" data-name="Trazado 999290" d="M21.28,54.424,15,57.279,17.855,51" transform="translate(-4.012 -11.755)" fill="none" stroke="#000" stroke-linejoin="round" stroke-width="1"/>
        <path id="Trazado_999291" data-name="Trazado 999291" d="M19.466,56.192l-2.284-2.284" transform="translate(-4.481 -12.381)" fill="none" stroke="#000" stroke-linejoin="round" stroke-width="1"/>
        <path id="Trazado_999292" data-name="Trazado 999292" d="M40.975,35.512l-3.426-3.426" transform="translate(-8.862 -7.687)" fill="none" stroke="#000" stroke-linejoin="round" stroke-width="1"/>
        <path id="Trazado_999293" data-name="Trazado 999293" d="M36.634,31H31.14L28,35.709v3.924" transform="translate(-6.808 -7.453)" fill="none" stroke="#000" stroke-linejoin="round" stroke-width="1"/>
        <rect id="Rectángulo_412351" data-name="Rectángulo 412351" width="28" height="19" rx="2" transform="translate(-0.22 -0.22)" fill="none" stroke="#000" stroke-linejoin="round" stroke-width="1"/>
        <path id="Trazado_999294" data-name="Trazado 999294" d="M45.634,25.837h10.2a1.57,1.57,0,0,0,1.57-1.57V8.57A1.57,1.57,0,0,0,55.837,7H37" transform="translate(-8.744 -2.291)" fill="none" stroke="#000" stroke-linejoin="round" stroke-width="1"/>
        <path id="Trazado_999295" data-name="Trazado 999295" d="M19.837,41.988V31H5.709L1,35.709V56.116H19.837V48.267" transform="translate(-1 -7.453)" fill="none" stroke="#000" stroke-linejoin="round" stroke-width="1"/>
        <path id="Trazado_999296" data-name="Trazado 999296" d="M33,25v3.14" transform="translate(-7.884 -6.163)" fill="none" stroke="#000" stroke-linejoin="round" stroke-width="1"/>
        <path id="Trazado_999297" data-name="Trazado 999297" d="M5.709,31v4.709H1" transform="translate(-1 -7.453)" fill="none" stroke="#000" stroke-linejoin="round" stroke-width="1"/>
        <path id="Trazado_999298" data-name="Trazado 999298" d="M5,40H17.558v4.709H5Z" transform="translate(-1.86 -9.389)" fill="none" stroke="#000" stroke-linejoin="round" stroke-width="1"/>
        <path id="Trazado_999299" data-name="Trazado 999299" d="M4,50H5.57" transform="translate(-1.645 -11.541)" fill="none" stroke="#000" stroke-linejoin="round" stroke-width="1"/>
        <path id="Trazado_999300" data-name="Trazado 999300" d="M8,50h6.279" transform="translate(-2.506 -11.541)" fill="none" stroke="#000" stroke-linejoin="round" stroke-width="1"/>
        <path id="Trazado_999301" data-name="Trazado 999301" d="M4,54h7.849" transform="translate(-1.645 -12.401)" fill="none" stroke="#000" stroke-linejoin="round" stroke-width="1"/>
        <path id="Trazado_999302" data-name="Trazado 999302" d="M4,58h7.064" transform="translate(-1.645 -13.261)" fill="none" stroke="#000" stroke-linejoin="round" stroke-width="1"/>
        <path id="Trazado_999303" data-name="Trazado 999303" d="M45,12v6.279l4.709-3.14Z" transform="translate(-10.465 -3.366)" fill="none" stroke="#000" stroke-linejoin="round" stroke-width="1"/>
        <circle id="Elipse_11812" data-name="Elipse 11812" cx="1.5" cy="1.5" r="1.5" transform="translate(40.78 17.78)" fill="none" stroke="#000" stroke-linejoin="round" stroke-width="1"/>
        <path id="Trazado_999304" data-name="Trazado 999304" d="M60.14,25H57" transform="translate(-13.046 -6.163)" fill="none" stroke="#000" stroke-linejoin="round" stroke-width="1"/>
        <path id="Trazado_999305" data-name="Trazado 999305" d="M49.988,25H39" transform="translate(-9.174 -6.163)" fill="none" stroke="#000" stroke-linejoin="round" stroke-width="1"/>
        <path id="Trazado_999306" data-name="Trazado 999306" d="M5,5h9.419v9.419H5Z" transform="translate(-1.86 -1.86)" fill="none" stroke="#000" stroke-linejoin="round" stroke-width="1"/>
        <path id="Trazado_999307" data-name="Trazado 999307" d="M5,12.924,8.924,9l2.355,2.355,1.57-1.57,1.57,1.57" transform="translate(-1.86 -2.721)" fill="none" stroke="#000" stroke-linejoin="round" stroke-width="1"/>
        <path id="Trazado_999308" data-name="Trazado 999308" d="M20,5h1.57" transform="translate(-5.087 -1.86)" fill="none" stroke="#000" stroke-linejoin="round" stroke-width="1"/>
        <path id="Trazado_999309" data-name="Trazado 999309" d="M24,5h7.849" transform="translate(-5.948 -1.86)" fill="none" stroke="#000" stroke-linejoin="round" stroke-width="1"/>
        <path id="Trazado_999310" data-name="Trazado 999310" d="M20,9H30.988" transform="translate(-5.087 -2.721)" fill="none" stroke="#000" stroke-linejoin="round" stroke-width="1"/>
        <path id="Trazado_999311" data-name="Trazado 999311" d="M20,13h9.419" transform="translate(-5.087 -3.581)" fill="none" stroke="#000" stroke-linejoin="round" stroke-width="1"/>
        <path id="Trazado_999312" data-name="Trazado 999312" d="M20,17H30.988" transform="translate(-5.087 -4.442)" fill="none" stroke="#000" stroke-linejoin="round" stroke-width="1"/>
        <path id="Trazado_999313" data-name="Trazado 999313" d="M4,21H5.57" transform="translate(-1.645 -5.302)" fill="none" stroke="#000" stroke-linejoin="round" stroke-width="1"/>
        <path id="Trazado_999314" data-name="Trazado 999314" d="M8,21H26.837" transform="translate(-2.506 -5.302)" fill="none" stroke="#000" stroke-linejoin="round" stroke-width="1"/>
      </g>
    </g>
  </g>
</svg>
