<svg xmlns="http://www.w3.org/2000/svg" xmlns:xlink="http://www.w3.org/1999/xlink" width="108" height="108" viewBox="0 0 108 108">
  <defs>
    <filter id="Trazado_904820" x="0" y="0" width="108" height="108" filterUnits="userSpaceOnUse">
      <feOffset dy="3" input="SourceAlpha"/>
      <feGaussianBlur stdDeviation="3" result="blur"/>
      <feFlood flood-opacity="0.161"/>
      <feComposite operator="in" in2="blur"/>
      <feComposite in="SourceGraphic"/>
    </filter>
  </defs>
  <g id="Grupo_1159967" data-name="Grupo 1159967" transform="translate(-199 -3089)">
    <g id="Icono" transform="translate(-416.101 -1911)">
      <g transform="matrix(1, 0, 0, 1, 615.1, 5000)" filter="url(#Trazado_904820)">
        <g id="Trazado_904820-2" data-name="Trazado 904820" transform="translate(9 6)" fill="#fbf2fb">
          <path d="M 45 88.5 C 39.12687683105469 88.5 33.43022537231445 87.35007476806641 28.06830024719238 85.08217620849609 C 22.88852500915527 82.89131164550781 18.23629951477051 79.75458526611328 14.2408504486084 75.75914764404297 C 10.24541282653809 71.76370239257812 7.108687400817871 67.11147308349609 4.917825222015381 61.93170166015625 C 2.649924993515015 56.56977462768555 1.5 50.87312316894531 1.5 45 C 1.5 39.12687683105469 2.649924993515015 33.43022537231445 4.917825222015381 28.06830024719238 C 7.108687400817871 22.88852500915527 10.24541282653809 18.23629951477051 14.2408504486084 14.2408504486084 C 18.23629951477051 10.24541282653809 22.88852500915527 7.108687400817871 28.06830024719238 4.917825222015381 C 33.43022537231445 2.649924993515015 39.12687683105469 1.5 45 1.5 C 50.87312316894531 1.5 56.56977462768555 2.649924993515015 61.93170166015625 4.917825222015381 C 67.11147308349609 7.108687400817871 71.76370239257812 10.24541282653809 75.75914764404297 14.2408504486084 C 79.75458526611328 18.23629951477051 82.89131164550781 22.88852500915527 85.08217620849609 28.06830024719238 C 87.35007476806641 33.43022537231445 88.5 39.12687683105469 88.5 45 C 88.5 50.87312316894531 87.35007476806641 56.56977462768555 85.08217620849609 61.93170166015625 C 82.89131164550781 67.11147308349609 79.75458526611328 71.76370239257812 75.75914764404297 75.75914764404297 C 71.76370239257812 79.75458526611328 67.11147308349609 82.89131164550781 61.93170166015625 85.08217620849609 C 56.56977462768555 87.35007476806641 50.87312316894531 88.5 45 88.5 Z" stroke="none"/>
          <path d="M 45 3 C 39.32871246337891 3 33.82865524291992 4.110054016113281 28.65262985229492 6.299339294433594 C 23.65165710449219 8.414573669433594 19.15968322753906 11.44334411621094 15.301513671875 15.301513671875 C 11.44334411621094 19.15968322753906 8.414573669433594 23.65165710449219 6.299339294433594 28.65262985229492 C 4.110054016113281 33.82865524291992 3 39.32871246337891 3 45 C 3 50.67128753662109 4.110054016113281 56.17134475708008 6.299339294433594 61.34737396240234 C 8.414573669433594 66.34834289550781 11.44334411621094 70.84031677246094 15.301513671875 74.698486328125 C 19.15968322753906 78.55665588378906 23.65165710449219 81.58542633056641 28.65262985229492 83.70066070556641 C 33.82865524291992 85.88994598388672 39.32871246337891 87 45 87 C 50.67128753662109 87 56.17134475708008 85.88994598388672 61.34737396240234 83.70066070556641 C 66.34834289550781 81.58542633056641 70.84031677246094 78.55665588378906 74.698486328125 74.698486328125 C 78.55665588378906 70.84031677246094 81.58542633056641 66.34834289550781 83.70066070556641 61.34737396240234 C 85.88994598388672 56.17134475708008 87 50.67128753662109 87 45 C 87 39.32871246337891 85.88994598388672 33.82865524291992 83.70066070556641 28.65262985229492 C 81.58542633056641 23.65165710449219 78.55665588378906 19.15968322753906 74.698486328125 15.301513671875 C 70.84031677246094 11.44334411621094 66.34834289550781 8.414573669433594 61.34737396240234 6.299339294433594 C 56.17134475708008 4.110054016113281 50.67128753662109 3 45 3 M 45 0 C 69.85281372070312 0 90 20.14718627929688 90 45 C 90 69.85281372070312 69.85281372070312 90 45 90 C 20.14718627929688 90 0 69.85281372070312 0 45 C 0 20.14718627929688 20.14718627929688 0 45 0 Z" stroke="none" fill="#e087dc"/>
        </g>
      </g>
    </g>
    <g id="el-pensamiento-de-diseno" transform="translate(223.77 3110.77)">
      <g id="Grupo_1159965" data-name="Grupo 1159965" transform="translate(1.911 1.911)">
        <g id="Grupo_1159951" data-name="Grupo 1159951" transform="translate(38.265 10.928)">
          <path id="Trazado_995125" data-name="Trazado 995125" d="M54.019,18.553l-6.438,6.438a15.442,15.442,0,0,0-3.46-5.446l-.1-.1L49.466,14Z" transform="translate(-44.02 -14)" fill="#5cd6b3"/>
        </g>
        <g id="Grupo_1159952" data-name="Grupo 1159952" transform="translate(9.106 37.555)">
          <path id="Trazado_995126" data-name="Trazado 995126" d="M24.021,48.3,16.553,55.77,12,51.217l7.977-7.977A17.91,17.91,0,0,1,24.021,48.3Z" transform="translate(-12 -43.24)" fill="#5cd6b3"/>
        </g>
        <g id="Grupo_1159953" data-name="Grupo 1159953" transform="translate(4.553 32.537)">
          <path id="Trazado_995127" data-name="Trazado 995127" d="M19.53,42.748l-7.977,7.977L7,46.172l8.442-8.442a15.431,15.431,0,0,0,2.987,3.934c.364.364.729.729,1.1,1.084Z" transform="translate(-7 -37.73)" fill="#ff826e"/>
        </g>
        <g id="Grupo_1159954" data-name="Grupo 1159954" transform="translate(32.719 6.375)">
          <path id="Trazado_995128" data-name="Trazado 995128" d="M48.921,13.553,43.476,19a15.352,15.352,0,0,0-5.546-3.561L44.368,9Z" transform="translate(-37.93 -9)" fill="#ff826e"/>
        </g>
        <g id="Grupo_1159955" data-name="Grupo 1159955" transform="translate(41.89)">
          <path id="Trazado_995129" data-name="Trazado 995129" d="M60.749,8.438a6.422,6.422,0,0,1-1.885,4.553l-1.758,1.758L48,5.643l1.758-1.758A6.438,6.438,0,0,1,60.749,8.438Z" transform="translate(-48 -2)" fill="#aab2bd"/>
        </g>
        <g id="Grupo_1159956" data-name="Grupo 1159956" transform="translate(0 40.979)">
          <path id="Trazado_995130" data-name="Trazado 995130" d="M15.66,56.106,4.085,60.559a1.611,1.611,0,0,1-.546.1A1.543,1.543,0,0,1,2,59.121a1.611,1.611,0,0,1,.1-.546L6.553,47l4.553,4.553Z" transform="translate(-2 -47)" fill="#ccd1d9"/>
        </g>
        <g id="Grupo_1159957" data-name="Grupo 1159957" transform="translate(39.158 3.643)">
          <path id="Trazado_995131" data-name="Trazado 995131" d="M56.838,15.106l-2.732,2.732-4.553-4.553L45,8.732,47.732,6Z" transform="translate(-45 -6)" fill="#e6e9ed"/>
        </g>
        <g id="Grupo_1159958" data-name="Grupo 1159958" transform="translate(32.938 27.319)">
          <path id="Trazado_995132" data-name="Trazado 995132" d="M49.854,32.956a2.651,2.651,0,0,0,1.639,2.459c.009,0,.027.009.036.009a2.648,2.648,0,0,0,2.9-.565l.683-.683,2.577,2.577-.683.683a2.648,2.648,0,0,0-.565,2.9c0,.009.009.027.009.036a2.651,2.651,0,0,0,2.459,1.639h.956V45.66h-.956A2.651,2.651,0,0,0,56.456,47.3c0,.009-.009.027-.009.036a2.648,2.648,0,0,0,.565,2.9l.683.683L55.117,53.5l-.683-.683a2.648,2.648,0,0,0-2.9-.565c-.009,0-.027.009-.036.009a2.651,2.651,0,0,0-1.639,2.459v.956H46.211v-.956a2.651,2.651,0,0,0-1.639-2.459c-.009,0-.027-.009-.036-.009a2.648,2.648,0,0,0-2.9.565l-.683.683-2.3-2.3a1.8,1.8,0,0,0,.282-.983,1.828,1.828,0,0,0-.756-1.475c.883-2.841,2.759-4.69,4.644-6.52a5.633,5.633,0,0,0-.246,1.621,5.464,5.464,0,1,0,5.464-5.464,5.556,5.556,0,0,0-2.1.419A11.133,11.133,0,0,0,48.032,32h1.821Z" transform="translate(-38.17 -32)" fill="#ffc729"/>
        </g>
        <g id="Grupo_1159959" data-name="Grupo 1159959" transform="translate(37.336 33.694)">
          <path id="Trazado_995133" data-name="Trazado 995133" d="M48.464,39A5.464,5.464,0,1,1,43,44.464a5.633,5.633,0,0,1,.246-1.621v-.009a25.263,25.263,0,0,0,3.114-3.415,5.556,5.556,0,0,1,2.1-.419Zm1.821,5.464a1.821,1.821,0,1,0-1.821,1.821A1.827,1.827,0,0,0,50.285,44.464Z" transform="translate(-43 -39)" fill="#fcd770"/>
        </g>
        <g id="Grupo_1159960" data-name="Grupo 1159960" transform="translate(22.766 50.996)">
          <path id="Trazado_995134" data-name="Trazado 995134" d="M31.553,61.643a4.666,4.666,0,0,1-4.526-3.533L27,58h9.106l-.027.109a4.7,4.7,0,0,1-1.657,2.55A4.651,4.651,0,0,1,31.553,61.643Z" transform="translate(-27 -58)" fill="#aab2bd"/>
        </g>
        <g id="Grupo_1159961" data-name="Grupo 1159961" transform="translate(20.945 47.354)">
          <path id="Trazado_995135" data-name="Trazado 995135" d="M35.928,54a1.827,1.827,0,0,1,1.821,1.821,1.835,1.835,0,0,1-1.821,1.821H26.821A1.827,1.827,0,0,1,25,55.821,1.835,1.835,0,0,1,26.821,54Z" transform="translate(-25 -54)" fill="#ccd1d9"/>
        </g>
        <g id="Grupo_1159962" data-name="Grupo 1159962" transform="translate(20.945 43.711)">
          <path id="Trazado_995136" data-name="Trazado 995136" d="M37.749,51.821a1.8,1.8,0,0,1-.282.983,2.022,2.022,0,0,1-.255.3,1.781,1.781,0,0,1-1.284.537H26.821A1.827,1.827,0,0,1,25,51.821a1.781,1.781,0,0,1,.537-1.284,1.1,1.1,0,0,1,.219-.191A1.8,1.8,0,0,1,26.821,50h9.106a1.8,1.8,0,0,1,1.065.346A1.828,1.828,0,0,1,37.749,51.821Z" transform="translate(-25 -50)" fill="#ccd1d9"/>
        </g>
        <g id="Grupo_1159963" data-name="Grupo 1159963" transform="translate(11.838 11.838)">
          <path id="Trazado_995137" data-name="Trazado 995137" d="M44.988,25.081a15.442,15.442,0,0,0-3.46-5.446l-.1-.1A15.522,15.522,0,0,0,30.781,15h-.009a6.233,6.233,0,0,1,.619,2.732,6.3,6.3,0,0,1-.337,2.04v.009a3.566,3.566,0,0,1,1.248-.228,3.643,3.643,0,1,1,0,7.285H15.428A15.461,15.461,0,0,0,15,30.481,11.308,11.308,0,0,0,16.157,35.7a15.431,15.431,0,0,0,2.987,3.934c.364.364.729.729,1.1,1.084a17.91,17.91,0,0,1,4.043,5.063,8.777,8.777,0,0,1,.574,1.439,1.8,1.8,0,0,1,1.065-.346h9.106a1.8,1.8,0,0,1,1.065.346c.883-2.841,2.759-4.69,4.644-6.52v-.009a25.263,25.263,0,0,0,3.114-3.415,11.133,11.133,0,0,0,2.1-6.793,15.355,15.355,0,0,0-.974-5.4Z" transform="translate(-15 -15)" fill="#ffeaa7"/>
        </g>
        <g id="Grupo_1159964" data-name="Grupo 1159964" transform="translate(0 3.643)">
          <path id="Trazado_995138" data-name="Trazado 995138" d="M21.4,11.045A6.374,6.374,0,0,1,29.611,14.2a6.233,6.233,0,0,1,.619,2.732,6.3,6.3,0,0,1-.337,2.04v.009a3.566,3.566,0,0,1,1.248-.228,3.643,3.643,0,0,1,0,7.285H6.553a4.55,4.55,0,0,1-.437-9.079v-.009a8.079,8.079,0,0,1-.474-2.75,8.195,8.195,0,0,1,15.745-3.187Z" transform="translate(-2 -6)" fill="#e6e9ed"/>
        </g>
      </g>
      <g id="Grupo_1159966" data-name="Grupo 1159966" transform="translate(1 1)">
        <path id="Trazado_995139" data-name="Trazado 995139" d="M48.732,47.464A2.732,2.732,0,1,0,46,44.732,2.735,2.735,0,0,0,48.732,47.464Zm0-3.643a.911.911,0,1,1-.911.911A.912.912,0,0,1,48.732,43.821Z" transform="translate(-5.021 -4.664)"/>
        <path id="Trazado_995140" data-name="Trazado 995140" d="M53.963,37.224a1.747,1.747,0,0,1,.372-1.915l1.325-1.326L51.8,30.118l-1.327,1.326a1.757,1.757,0,0,1-1.95.357,1.735,1.735,0,0,1-1.076-1.61V28.319H45.575a16.133,16.133,0,0,0-.807-4.234L55.306,13.548a7.35,7.35,0,1,0-10.393-10.4L34.386,13.681a16.177,16.177,0,0,0-4.3-.8,7.247,7.247,0,0,0-8.322-3.4A9.089,9.089,0,0,0,4.884,15.805,5.463,5.463,0,0,0,6.464,26.5H13.07a16.512,16.512,0,0,0-.231,2.732,12.5,12.5,0,0,0,.969,5.029L5.683,42.383,1.163,54.136A2.424,2.424,0,0,0,1,55.013,2.447,2.447,0,0,0,4.325,57.3l11.753-4.52,5.94-5.941a2.662,2.662,0,0,0,.637,2.429,2.708,2.708,0,0,0,1.33,4.453,5.547,5.547,0,0,0,10.491,0,2.728,2.728,0,0,0,2.04-2.632c0-.068-.015-.132-.02-.2l1.131,1.131,1.327-1.326a1.783,1.783,0,0,1,3.026,1.254v1.871h5.464V51.946a1.785,1.785,0,0,1,3.027-1.254L51.8,52.018l3.865-3.865-1.325-1.326a1.761,1.761,0,0,1-.358-1.95A1.738,1.738,0,0,1,55.589,43.8H57.46V38.336H55.589a1.752,1.752,0,0,1-1.626-1.113ZM40.318,39.908A27.177,27.177,0,0,0,43.166,36.8a4.5,4.5,0,0,1,1.545-.287,4.6,4.6,0,1,1-4.393,3.393Zm1.094-21.571,4.21-4.211,3.266,3.266-4.864,4.864A16.526,16.526,0,0,0,41.412,18.337Zm.944-10.052L43.8,6.841l7.819,7.819L50.175,16.1ZM50.11,2.821a5.529,5.529,0,0,1,3.909,9.438l-1.113,1.113L45.088,5.553,46.2,4.44A5.5,5.5,0,0,1,50.11,2.821ZM41.068,9.573l3.266,3.266-4.208,4.208a16.508,16.508,0,0,0-3.917-2.614ZM43.8,29.23c0,4.738-2.386,7.066-4.912,9.529a17.809,17.809,0,0,0-4.566,6.007,2.692,2.692,0,0,0-.539-.055H30.141V40.158a2.735,2.735,0,0,0-2.732-2.732H25.587a.911.911,0,0,1,0-1.821h9.106a2.732,2.732,0,1,0,0-5.464H27.409a.912.912,0,0,1-.911-.911V26.5h4.553a4.553,4.553,0,0,0,0-9.106c-.025,0-.049.007-.075.007a7.17,7.17,0,0,0,.075-.918,7.3,7.3,0,0,0-.215-1.727A14.648,14.648,0,0,1,43.8,29.23ZM23.766,47.443a.912.912,0,0,1,.911-.911h9.106a.911.911,0,0,1,0,1.821H24.677A.912.912,0,0,1,23.766,47.443Zm-11.461,0L19,40.749a16.53,16.53,0,0,1,2.927,3.6L15.57,50.708ZM2.821,21.034a3.643,3.643,0,0,1,7.285,0h1.821A5.466,5.466,0,0,0,6.7,15.582,7.278,7.278,0,0,1,20.1,10.2a7.291,7.291,0,0,0-3.569,5.487,3.642,3.642,0,0,0-2.777,3.528H15.57a1.821,1.821,0,1,1,3.643,0h1.821a3.637,3.637,0,0,0-2.673-3.5A5.457,5.457,0,1,1,29.03,17.886,4.544,4.544,0,0,0,26.5,21.945h1.821a2.732,2.732,0,1,1,2.732,2.732H6.464A3.646,3.646,0,0,1,2.821,21.034ZM24.677,26.5V29.23a2.735,2.735,0,0,0,2.732,2.732h7.285a.911.911,0,1,1,0,1.821H25.587a2.732,2.732,0,0,0,0,5.464h1.821a.912.912,0,0,1,.911.911v4.553H24.677a2.692,2.692,0,0,0-.539.055,17.809,17.809,0,0,0-4.566-6.007C17.046,36.3,14.66,33.968,14.66,29.23a14.68,14.68,0,0,1,.28-2.732ZM17.7,39.474l-6.681,6.681L7.752,42.89,14.7,35.941a20.485,20.485,0,0,0,3,3.532ZM6.811,44.524l7.125,7.125L7.9,53.969,4.49,50.556ZM3.672,55.6a.626.626,0,0,1-.81-.808l.912-2.373,2.268,2.268Zm25.558.042a3.742,3.742,0,0,1-3.209-1.821h6.418a3.742,3.742,0,0,1-3.209,1.821ZM33.783,52H24.677a.911.911,0,1,1,0-1.821h9.106a.911.911,0,1,1,0,1.821ZM55.639,41.979h-.05a3.606,3.606,0,0,0-2.542,6.136l.038.038L51.8,49.443l-.038-.038a3.606,3.606,0,0,0-6.136,2.542V52H43.8v-.05A3.606,3.606,0,0,0,37.663,49.4l-.038.038-1.234-1.234a2.669,2.669,0,0,0,.124-.766,2.706,2.706,0,0,0-.612-1.7,11.744,11.744,0,0,1,2.488-3.881,6.372,6.372,0,1,0,6.32-7.166c-.089,0-.176.009-.264.013a11.948,11.948,0,0,0,1.146-4.566h.028v.05a3.606,3.606,0,0,0,6.136,2.542l.038-.038,1.289,1.289-.038.038a3.606,3.606,0,0,0,2.542,6.136h.05Z" transform="translate(-1 -1)"/>
      </g>
    </g>
  </g>
</svg>
