<svg id="Grupo_1155614" data-name="Grupo 1155614" xmlns="http://www.w3.org/2000/svg" width="37.401" height="42.043" viewBox="0 0 37.401 42.043">
  <path id="Trazado_992642" data-name="Trazado 992642" d="M258.72,273.055a3.513,3.513,0,0,0-3.977-.82v-3.321a1.028,1.028,0,0,0-1.026-1.026h-3.233a1.033,1.033,0,0,0-.738.312,1.013,1.013,0,0,0-.288.742c0,.022,0,.045,0,.068a2.279,2.279,0,1,1-4.557,0c0-.023,0-.045,0-.068a1.013,1.013,0,0,0-.288-.742,1.033,1.033,0,0,0-.737-.312h-3.233a1.028,1.028,0,0,0-1.026,1.026V272.3a1.026,1.026,0,0,0,.334.756,1.037,1.037,0,0,0,.792.265c.07-.006.142-.01.213-.01a2.279,2.279,0,0,1,.142,4.553,2.346,2.346,0,0,1-.365-.006,1.017,1.017,0,0,0-.78.26,1.032,1.032,0,0,0-.338.763v3.1a1.028,1.028,0,0,0,1.026,1.026h3.321a3.511,3.511,0,0,0,3.212,4.921c.083,0,.167,0,.251-.009a3.513,3.513,0,0,0,2.969-4.912h3.32a1.028,1.028,0,0,0,1.026-1.026v-3.32a3.511,3.511,0,0,0,3.976-5.611Zm-.293,2.558a2.28,2.28,0,0,1-2.113,2.111h0a2.259,2.259,0,0,1-1.447-.393.863.863,0,0,0-1.354.708v3.743h-3.743a.863.863,0,0,0-.708,1.354,2.278,2.278,0,1,1-3.756-.006.862.862,0,0,0-.711-1.349h-3.743V279.1c.108,0,.216,0,.324,0a3.51,3.51,0,0,0-.324-7.012v-2.967h2.822a3.51,3.51,0,0,0,7.017,0h2.822v3.743a.862.862,0,0,0,1.349.712,2.278,2.278,0,0,1,3.566,2.039Z" transform="translate(-222.264 -245.889)"/>
  <path id="Trazado_992643" data-name="Trazado 992643" d="M42.514,25.277l1.044-2.839a10.247,10.247,0,0,0,2.909-2.491.616.616,0,0,0-.961-.77,8.953,8.953,0,0,1-4.942,3.131V17.215h1.207a2.439,2.439,0,1,0-2.439-2.439v1.208H37.646V14.776a2.439,2.439,0,1,0-2.439,2.439h1.207v5.09a8.987,8.987,0,1,1,6.9-16.321,7.322,7.322,0,0,0,4.148,7.99,8.925,8.925,0,0,1-.609,2.868.616.616,0,0,0,1.147.45,10.138,10.138,0,0,0,.668-2.887,7.33,7.33,0,0,0,3.922-.066v3.474a1.115,1.115,0,0,0,1.114,1.114h6.476A1.115,1.115,0,0,0,61.3,17.814V15.848a.616.616,0,0,0-1.232,0V17.7H53.827V13.848a7.373,7.373,0,0,0,2.727-2.392h3.514v1.519a.616.616,0,0,0,1.232,0V11.337a1.115,1.115,0,0,0-1.114-1.114h-2.95A7.32,7.32,0,1,0,43.661,4.752,10.216,10.216,0,1,0,33.417,22.43l1.046,2.847a1.438,1.438,0,0,0-1.048,1.382v2.41a1.438,1.438,0,0,0,1.232,1.421v1.5a1.028,1.028,0,0,0,1.026,1.026h.006V33.6a1.85,1.85,0,0,0,1.848,1.848h1.924A1.85,1.85,0,0,0,41.3,33.6v-.584H41.3a1.028,1.028,0,0,0,1.026-1.026v-1.5a1.438,1.438,0,0,0,1.232-1.421v-2.41a1.439,1.439,0,0,0-1.048-1.382Zm-1.951-10.5a1.207,1.207,0,1,1,1.207,1.208H40.563ZM50.516,1.232A6.089,6.089,0,1,1,44.428,7.32,6.1,6.1,0,0,1,50.516,1.232ZM40.563,23.568a10.161,10.161,0,0,0,1.413-.4l-.754,2.052h-.658Zm-2.918-6.353h1.686v5.293c-.279.026-.56.04-.843.04s-.565-.014-.843-.04V17.215Zm0,6.529c.278.023.559.035.843.035s.564-.012.843-.035v1.477H37.646Zm-2.439-7.761a1.208,1.208,0,1,1,1.207-1.208v1.208Zm1.207,7.584v1.654h-.658L35,23.166A10.13,10.13,0,0,0,36.414,23.568ZM40.067,33.6a.617.617,0,0,1-.616.616H37.527a.617.617,0,0,1-.616-.616v-.584h3.156Zm2.264-4.533a.206.206,0,0,1-.205.205H40.237a.616.616,0,0,0,0,1.232H41.1v1.28h-5.22v-1.28h1.484a.616.616,0,0,0,0-1.232h-2.51a.206.206,0,0,1-.205-.205v-2.41a.206.206,0,0,1,.205-.205h7.273a.206.206,0,0,1,.205.205Z" transform="translate(-28.27 0)"/>
  <path id="Trazado_992644" data-name="Trazado 992644" d="M253.237,64.44a.616.616,0,0,0,.463.219h.008a.616.616,0,0,0,.461-.207L258.2,59.9a.616.616,0,0,0-.922-.817L253.72,63.1l-2.3-2.727a.616.616,0,0,0-.942.793Z" transform="translate(-232.102 -54.042)"/>
</svg>
