<svg xmlns="http://www.w3.org/2000/svg" xmlns:xlink="http://www.w3.org/1999/xlink" width="108" height="108" viewBox="0 0 108 108">
  <defs>
    <filter id="Trazado_982547" x="0" y="0" width="108" height="108" filterUnits="userSpaceOnUse">
      <feOffset dy="3" input="SourceAlpha"/>
      <feGaussianBlur stdDeviation="3" result="blur"/>
      <feFlood flood-opacity="0.161"/>
      <feComposite operator="in" in2="blur"/>
      <feComposite in="SourceGraphic"/>
    </filter>
  </defs>
  <g id="Grupo_1164393" data-name="Grupo 1164393" transform="translate(-171 -249)">
    <g id="Grupo_1153207" data-name="Grupo 1153207" transform="translate(10 -1203)">
      <g id="Grupo_1153117" data-name="Grupo 1153117" transform="translate(-93 939)">
        <g id="Grupo_1149598" data-name="Grupo 1149598" transform="translate(80 315)">
          <g id="Grupo_1148770" data-name="Grupo 1148770" transform="translate(-27 -2583)">
            <g id="Grupo_1146954" data-name="Grupo 1146954" transform="translate(-415 -1202)">
              <g transform="matrix(1, 0, 0, 1, 616, 3983)" filter="url(#Trazado_982547)">
                <g id="Trazado_982547-2" data-name="Trazado 982547" transform="translate(9 6)" fill="#ebfefd">
                  <path d="M 45 88.5 C 39.12687683105469 88.5 33.43022537231445 87.35007476806641 28.06830024719238 85.08217620849609 C 22.88852500915527 82.89131164550781 18.23629951477051 79.75458526611328 14.2408504486084 75.75914764404297 C 10.24541282653809 71.76370239257812 7.108687400817871 67.11147308349609 4.917825222015381 61.93170166015625 C 2.649924993515015 56.56977462768555 1.5 50.87312316894531 1.5 45 C 1.5 39.12687683105469 2.649924993515015 33.43022537231445 4.917825222015381 28.06830024719238 C 7.108687400817871 22.88852500915527 10.24541282653809 18.23629951477051 14.2408504486084 14.2408504486084 C 18.23629951477051 10.24541282653809 22.88852500915527 7.108687400817871 28.06830024719238 4.917825222015381 C 33.43022537231445 2.649924993515015 39.12687683105469 1.5 45 1.5 C 50.87312316894531 1.5 56.56977462768555 2.649924993515015 61.93170166015625 4.917825222015381 C 67.11147308349609 7.108687400817871 71.76370239257812 10.24541282653809 75.75914764404297 14.2408504486084 C 79.75458526611328 18.23629951477051 82.89131164550781 22.88852500915527 85.08217620849609 28.06830024719238 C 87.35007476806641 33.43022537231445 88.5 39.12687683105469 88.5 45 C 88.5 50.87312316894531 87.35007476806641 56.56977462768555 85.08217620849609 61.93170166015625 C 82.89131164550781 67.11147308349609 79.75458526611328 71.76370239257812 75.75914764404297 75.75914764404297 C 71.76370239257812 79.75458526611328 67.11147308349609 82.89131164550781 61.93170166015625 85.08217620849609 C 56.56977462768555 87.35007476806641 50.87312316894531 88.5 45 88.5 Z" stroke="none"/>
                  <path d="M 45 3 C 39.32871246337891 3 33.82865524291992 4.110054016113281 28.65262985229492 6.299339294433594 C 23.65165710449219 8.414573669433594 19.15968322753906 11.44334411621094 15.301513671875 15.301513671875 C 11.44334411621094 19.15968322753906 8.414573669433594 23.65165710449219 6.299339294433594 28.65262985229492 C 4.110054016113281 33.82865524291992 3 39.32871246337891 3 45 C 3 50.67128753662109 4.110054016113281 56.17134475708008 6.299339294433594 61.34737396240234 C 8.414573669433594 66.34834289550781 11.44334411621094 70.84031677246094 15.301513671875 74.698486328125 C 19.15968322753906 78.55665588378906 23.65165710449219 81.58542633056641 28.65262985229492 83.70066070556641 C 33.82865524291992 85.88994598388672 39.32871246337891 87 45 87 C 50.67128753662109 87 56.17134475708008 85.88994598388672 61.34737396240234 83.70066070556641 C 66.34834289550781 81.58542633056641 70.84031677246094 78.55665588378906 74.698486328125 74.698486328125 C 78.55665588378906 70.84031677246094 81.58542633056641 66.34834289550781 83.70066070556641 61.34737396240234 C 85.88994598388672 56.17134475708008 87 50.67128753662109 87 45 C 87 39.32871246337891 85.88994598388672 33.82865524291992 83.70066070556641 28.65262985229492 C 81.58542633056641 23.65165710449219 78.55665588378906 19.15968322753906 74.698486328125 15.301513671875 C 70.84031677246094 11.44334411621094 66.34834289550781 8.414573669433594 61.34737396240234 6.299339294433594 C 56.17134475708008 4.110054016113281 50.67128753662109 3 45 3 M 45 0 C 69.85281372070312 0 90 20.14718627929688 90 45 C 90 69.85281372070312 69.85281372070312 90 45 90 C 20.14718627929688 90 0 69.85281372070312 0 45 C 0 20.14718627929688 20.14718627929688 0 45 0 Z" stroke="none" fill="#79c9e0"/>
                </g>
              </g>
            </g>
          </g>
        </g>
      </g>
    </g>
    <g id="online-marketing_3880196" transform="translate(187.544 227.295)">
      <g id="Grupo_1164391" data-name="Grupo 1164391" transform="translate(8.95 48.95)">
        <path id="Trazado_999775" data-name="Trazado 999775" d="M90.759,112h4.276a2.375,2.375,0,0,1,2.376,2.375v32.782H48V114.375A2.375,2.375,0,0,1,50.375,112h4.276" transform="translate(-44.199 -105.349)" fill="#3e3d42"/>
        <path id="Trazado_999776" data-name="Trazado 999776" d="M111.908,136h3.8v29.456H72V136h3.8" transform="translate(-65.349 -126.498)" fill="#83d8f4"/>
        <path id="Trazado_999777" data-name="Trazado 999777" d="M140.108,104v28.031a2.375,2.375,0,0,1-2.375,2.376H106.375A2.375,2.375,0,0,1,104,132.031V104Z" transform="translate(-93.548 -98.299)" fill="#ffeb99"/>
        <path id="Trazado_999778" data-name="Trazado 999778" d="M140.108,58.375V61.7H104V58.375A2.375,2.375,0,0,1,106.375,56h31.357A2.375,2.375,0,0,1,140.108,58.375Z" transform="translate(-93.548 -56)" fill="#787680"/>
        <g id="Grupo_1164390" data-name="Grupo 1164390" transform="translate(17.104 10.452)">
          <path id="Trazado_999779" data-name="Trazado 999779" d="M184,176h11.4v9.5H184Z" transform="translate(-181.149 -172.199)" fill="#787680"/>
          <path id="Trazado_999780" data-name="Trazado 999780" d="M204.751,261.7h-3.8L200,256h3.8Z" transform="translate(-195.249 -242.697)" fill="#d8d7da"/>
          <g id="Grupo_1164389" data-name="Grupo 1164389">
            <path id="Trazado_999781" data-name="Trazado 999781" d="M288.552,161.1,280,157.3v-9.5l8.552-3.8Z" transform="translate(-265.747 -144)" fill="#ff9811"/>
            <path id="Trazado_999782" data-name="Trazado 999782" d="M160,200h2.851v3.8H160Z" transform="translate(-160 -193.349)" fill="#ff9811"/>
          </g>
        </g>
        <path id="Trazado_999783" data-name="Trazado 999783" d="M16,408H73.012v3.326a2.375,2.375,0,0,1-2.375,2.375H18.375A2.375,2.375,0,0,1,16,411.326Z" transform="translate(-16 -366.191)" fill="#e0e0e2"/>
        <path id="Trazado_999784" data-name="Trazado 999784" d="M230.651,410.851h-5.7L224,408h7.6Z" transform="translate(-199.295 -366.191)" fill="#787680"/>
      </g>
      <g id="Grupo_1164392" data-name="Grupo 1164392" transform="translate(8 48)">
        <path id="Trazado_999785" data-name="Trazado 999785" d="M65.962,89.809H63.111V57.977a3.329,3.329,0,0,0-3.326-3.326H56.46V51.326A3.329,3.329,0,0,0,53.134,48H21.778a3.329,3.329,0,0,0-3.326,3.326v3.326H15.126A3.329,3.329,0,0,0,11.8,57.977V89.809H8.95a.95.95,0,0,0-.95.95v3.326a3.329,3.329,0,0,0,3.326,3.326H63.587a3.329,3.329,0,0,0,3.326-3.326V90.759A.95.95,0,0,0,65.962,89.809ZM20.353,51.326A1.426,1.426,0,0,1,21.778,49.9H53.134a1.426,1.426,0,0,1,1.425,1.425V53.7H20.353Zm0,4.276H54.56V82.682a1.426,1.426,0,0,1-1.425,1.425H21.778a1.426,1.426,0,0,1-1.425-1.425Zm1.425,30.406H53.134a3.329,3.329,0,0,0,3.326-3.326V59.4h1.9V86.958H16.552V59.4h1.9v23.28A3.329,3.329,0,0,0,21.778,86.008ZM13.7,57.977a1.426,1.426,0,0,1,1.425-1.425h3.326v.95H15.6a.95.95,0,0,0-.95.95V87.908a.95.95,0,0,0,.95.95H59.311a.95.95,0,0,0,.95-.95V58.452a.95.95,0,0,0-.95-.95H56.46v-.95h3.326a1.426,1.426,0,0,1,1.425,1.425V89.809H13.7ZM39.939,91.709l-.317.95H35.291l-.317-.95Zm25.073,2.375a1.426,1.426,0,0,1-1.425,1.425H11.326A1.426,1.426,0,0,1,9.9,94.085V91.709H32.97l.734,2.2a.95.95,0,0,0,.9.65h5.7a.95.95,0,0,0,.9-.65l.734-2.2h23.07Z" transform="translate(-8 -48)"/>
        <path id="Trazado_999786" data-name="Trazado 999786" d="M176.273,136.154a.952.952,0,0,0-.9-.071L167,139.8H155.8a.95.95,0,0,0-.95.95v1.9h-1.9a.95.95,0,0,0-.95.95v3.8a.95.95,0,0,0,.95.95h1.9v1.9a.95.95,0,0,0,.95.95h1.1l.818,4.907a.95.95,0,0,0,.937.795h3.8a.95.95,0,0,0,.937-1.106l-.766-4.6H167l8.368,3.719a.95.95,0,0,0,1.336-.868v-17.1a.951.951,0,0,0-.432-.8Zm-21.422,10.3h-.95v-1.9h.95ZM159.457,155l-.634-3.8H160.7l.634,3.8Zm6.8-5.7h-9.5v-7.6h9.5Zm8.552,3.289-6.651-2.956V141.37l6.651-2.956Z" transform="translate(-134.896 -125.549)"/>
        <path id="Trazado_999787" data-name="Trazado 999787" d="M120.95,73.9h.95a.95.95,0,0,0,0-1.9h-.95a.95.95,0,0,0,0,1.9Z" transform="translate(-106.697 -69.149)"/>
        <path id="Trazado_999788" data-name="Trazado 999788" d="M152.95,73.9h.95a.95.95,0,0,0,0-1.9h-.95a.95.95,0,0,0,0,1.9Z" transform="translate(-134.896 -69.149)"/>
        <path id="Trazado_999789" data-name="Trazado 999789" d="M184.95,73.9h.95a.95.95,0,1,0,0-1.9h-.95a.95.95,0,0,0,0,1.9Z" transform="translate(-163.096 -69.149)"/>
        <path id="Trazado_999790" data-name="Trazado 999790" d="M208.95,193.9h3.8a.95.95,0,1,0,0-1.9h-3.8a.95.95,0,1,0,0,1.9Z" transform="translate(-184.245 -174.896)"/>
        <path id="Trazado_999791" data-name="Trazado 999791" d="M208.95,225.9h3.8a.95.95,0,0,0,0-1.9h-3.8a.95.95,0,0,0,0,1.9Z" transform="translate(-184.245 -203.096)"/>
      </g>
    </g>
  </g>
</svg>
