<svg xmlns="http://www.w3.org/2000/svg" width="40.827" height="36.176" viewBox="0 0 40.827 36.176">
  <g id="interest-rate_8490813" transform="translate(-1.33 -4.945)">
    <path id="Trazado_998758" data-name="Trazado 998758" d="M55.082,13.981a2.5,2.5,0,0,0-1.754-.741,2.555,2.555,0,0,0-1.786.728,2.651,2.651,0,0,0-.787,1.876V23.4l-.741.7a2.515,2.515,0,0,0-3.43-.2L43.129,26.81a7.907,7.907,0,0,0-2.218,9.013v.832h-.5a.622.622,0,0,0-.625.625v6.163a.622.622,0,0,0,.625.625h9.664a.622.622,0,0,0,.625-.625V37.28a.622.622,0,0,0-.625-.625h-.271V35.642A48.621,48.621,0,0,0,54.082,30.3a10.294,10.294,0,0,0,1.741-5.75v-8.78a2.521,2.521,0,0,0-.741-1.792Zm-5.628,28.83H41.034V37.9h8.413v4.912Zm5.119-18.257a9.02,9.02,0,0,1-1.534,5.054,50.184,50.184,0,0,1-4.313,5.357.622.622,0,0,0-.168.425v1.257h-6.4v-.954a.642.642,0,0,0-.052-.245,6.651,6.651,0,0,1,1.824-7.685l3.455-2.92a1.25,1.25,0,0,1,1.644,1.882L45.8,29.641a.625.625,0,1,0,.838.928l3.236-2.914a2.507,2.507,0,0,0,.748-2.424l1.186-1.115A.609.609,0,0,0,52,23.658v-7.82a1.415,1.415,0,0,1,.419-.986,1.2,1.2,0,0,1,.89-.367,1.311,1.311,0,0,1,.89.374,1.272,1.272,0,0,1,.374.909Z" transform="translate(-13.666 -2.947)"/>
    <path id="Trazado_998759" data-name="Trazado 998759" d="M16.744,36.644h-.5v-.832A7.9,7.9,0,0,0,14.03,26.8l-3.455-2.92a2.515,2.515,0,0,0-3.43.2l-.741-.7V15.834a2.657,2.657,0,0,0-.793-1.876,2.448,2.448,0,0,0-1.786-.728,2.553,2.553,0,0,0-1.754.741,2.521,2.521,0,0,0-.741,1.792v8.78a10.294,10.294,0,0,0,1.741,5.75,48.622,48.622,0,0,0,4.274,5.338v1.012H7.08a.622.622,0,0,0-.625.625v6.163a.622.622,0,0,0,.625.625h9.664a.622.622,0,0,0,.625-.625V37.27A.626.626,0,0,0,16.744,36.644Zm-8.31-1.683A49.314,49.314,0,0,1,4.121,29.6,9.065,9.065,0,0,1,2.594,24.55V15.77a1.3,1.3,0,0,1,.374-.909,1.254,1.254,0,0,1,.89-.374,1.218,1.218,0,0,1,.89.367,1.388,1.388,0,0,1,.419.98v7.82a.644.644,0,0,0,.193.458l1.186,1.115a2.493,2.493,0,0,0,.748,2.424l3.236,2.914a.625.625,0,1,0,.838-.928L8.131,26.723A1.25,1.25,0,0,1,9.775,24.84l3.462,2.92a6.639,6.639,0,0,1,1.818,7.685A.642.642,0,0,0,15,35.69v.954h-6.4V35.387a.66.66,0,0,0-.174-.425Zm7.691,7.846H7.706V37.895h8.413v4.912Z" transform="translate(0 -2.944)"/>
    <path id="Trazado_998760" data-name="Trazado 998760" d="M28.506,22.9a8.139,8.139,0,1,0-8.136-8.142A8.151,8.151,0,0,0,28.506,22.9Zm0-15.034a6.888,6.888,0,1,1-6.885,6.885,6.893,6.893,0,0,1,6.885-6.885Z" transform="translate(-6.765 -0.595)"/>
    <path id="Trazado_998761" data-name="Trazado 998761" d="M34.077,19.85a2.444,2.444,0,0,0,0,2.9,1.885,1.885,0,0,0,2.721,0,2.444,2.444,0,0,0,0-2.9,1.661,1.661,0,0,0-1.36-.58A1.68,1.68,0,0,0,34.077,19.85Zm2.031.6a1.6,1.6,0,0,1,0,1.7.865.865,0,0,1-1.347,0,1.6,1.6,0,0,1,0-1.7.865.865,0,0,1,1.347,0Z" transform="translate(-11.466 -5.09)"/>
    <path id="Trazado_998762" data-name="Trazado 998762" d="M28.88,20.606a.406.406,0,0,0,.135.309.432.432,0,0,0,.529.058.52.52,0,0,0,.168-.168l4.416-7.072a.526.526,0,0,0,.09-.284.376.376,0,0,0-.129-.3.466.466,0,0,0-.316-.1.409.409,0,0,0-.367.213l-4.455,7.124a.371.371,0,0,0-.071.219Z" transform="translate(-9.789 -2.88)"/>
    <path id="Trazado_998763" data-name="Trazado 998763" d="M28.547,16.971a1.678,1.678,0,0,0,1.36-.58,2.208,2.208,0,0,0,.477-1.451,2.2,2.2,0,0,0-.477-1.451,1.661,1.661,0,0,0-1.36-.58,1.678,1.678,0,0,0-1.36.58,2.208,2.208,0,0,0-.477,1.451,2.2,2.2,0,0,0,.477,1.451A1.661,1.661,0,0,0,28.547,16.971ZM27.87,14.09a.8.8,0,0,1,.677-.322.775.775,0,0,1,.67.322,1.6,1.6,0,0,1,0,1.7.775.775,0,0,1-.67.322.8.8,0,0,1-.677-.322,1.6,1.6,0,0,1,0-1.7Z" transform="translate(-9.018 -2.83)"/>
    <path id="Trazado_998764" data-name="Trazado 998764" d="M48.965,11.732l.29-.3V15.71a.625.625,0,1,0,1.251,0V11.436l.3.3a.627.627,0,0,0,.89-.883l-1.36-1.36a.623.623,0,0,0-.883,0l-1.36,1.36a.623.623,0,0,0,0,.883A.615.615,0,0,0,48.965,11.732Z" transform="translate(-16.549 -1.549)"/>
    <path id="Trazado_998765" data-name="Trazado 998765" d="M50.625,21.36a.622.622,0,0,0-.625.625V22.8a.625.625,0,1,0,1.251,0v-.819A.622.622,0,0,0,50.625,21.36Z" transform="translate(-17.294 -5.833)"/>
    <path id="Trazado_998766" data-name="Trazado 998766" d="M32.352,35.669a.623.623,0,0,0-.883,0l-1.36,1.36a.625.625,0,0,0,.883.883l.3-.3V41.89a.625.625,0,0,0,1.251,0V37.616l.3.3a.627.627,0,0,0,.89-.883Z" transform="translate(-10.161 -10.852)"/>
    <path id="Trazado_998767" data-name="Trazado 998767" d="M32.655,47.54a.622.622,0,0,0-.625.625v.819a.625.625,0,0,0,1.251,0v-.819A.626.626,0,0,0,32.655,47.54Z" transform="translate(-10.908 -15.135)"/>
    <path id="Trazado_998768" data-name="Trazado 998768" d="M13,7.372l.3-.3V11.35a.625.625,0,1,0,1.251,0V7.082l.3.3a.625.625,0,1,0,.883-.883L14.362,5.129a.623.623,0,0,0-.883,0l-1.36,1.36A.625.625,0,0,0,13,7.372Z" transform="translate(-3.768)"/>
    <path id="Trazado_998769" data-name="Trazado 998769" d="M14.675,17.01a.622.622,0,0,0-.625.625v.819a.625.625,0,0,0,1.251,0v-.819A.626.626,0,0,0,14.675,17.01Z" transform="translate(-4.52 -4.287)"/>
  </g>
</svg>
