<svg xmlns="http://www.w3.org/2000/svg" xmlns:xlink="http://www.w3.org/1999/xlink" width="438" height="178.733" viewBox="0 0 438 178.733">
  <defs>
    <filter id="Rectángulo_412280" x="0" y="14.733" width="438" height="164" filterUnits="userSpaceOnUse">
      <feOffset dy="3" input="SourceAlpha"/>
      <feGaussianBlur stdDeviation="3" result="blur"/>
      <feFlood flood-opacity="0.161"/>
      <feComposite operator="in" in2="blur"/>
      <feComposite in="SourceGraphic"/>
    </filter>
    <clipPath id="clip-path">
      <rect id="Rectángulo_412655" data-name="Rectángulo 412655" width="269.381" height="172.733" fill="none"/>
    </clipPath>
  </defs>
  <g id="Grupo_1164640" data-name="Grupo 1164640" transform="translate(-886 -2984.267)">
    <g transform="matrix(1, 0, 0, 1, 886, 2984.27)" filter="url(#Rectángulo_412280)">
      <rect id="Rectángulo_412280-2" data-name="Rectángulo 412280" width="420" height="146" transform="translate(9 20.73)" fill="#f8e6f8"/>
    </g>
    <g id="Grupo_1164388" data-name="Grupo 1164388" transform="translate(960.619 2984.267)">
      <g id="Grupo_1164387" data-name="Grupo 1164387" clip-path="url(#clip-path)">
        <path id="Trazado_999646" data-name="Trazado 999646" d="M265.1,74.964c-4.25-2.312-8.828-4.307-13.653-6.407a173.229,173.229,0,0,1-26.764-14.592,164.408,164.408,0,0,1-15.98-12.076C173.393,11.6,107.685,2.457,75.125,26.9,47.416,47.7,31.153,73.2,37.149,125.17s73.62,56.964,101.6,55.3,84-19.184,98.936-17.322c16.184,2.016,34.023-3.695,44.7-16.342,12.748-15.1,11.436-38.267,1.585-54.528-4.563-7.531-11.2-13.138-18.869-17.312" transform="translate(-22.273 -7.994)" fill="#bcd7f4"/>
        <path id="Trazado_999647" data-name="Trazado 999647" d="M672.325,32.264s-.293-.368-.9-.979" transform="translate(-416.457 -19.405)" fill="none" stroke="#1a004f" stroke-linecap="round" stroke-linejoin="round" stroke-width="1"/>
        <path id="Trazado_999648" data-name="Trazado 999648" d="M265.765,10.416c-5.728-4.763-20.406-13.551-46.7-8.293C183.923,9.152,120.325,59.026,92.878,92.5c-26.444,32.249-49.16,43.37-72.338,45.337" transform="translate(-12.74 -0.31)" fill="none" stroke="#1a004f" stroke-linecap="round" stroke-linejoin="round" stroke-width="1" stroke-dasharray="6.942 6.942"/>
        <path id="Trazado_999649" data-name="Trazado 999649" d="M14.911,362.424q-.662.046-1.326.083" transform="translate(-8.426 -224.795)" fill="none" stroke="#1a004f" stroke-linecap="round" stroke-linejoin="round" stroke-width="1"/>
        <path id="Trazado_999650" data-name="Trazado 999650" d="M682.019,50.279l-6.124-15.492,6.517-5.647Z" transform="translate(-419.227 -18.075)" fill="#fff"/>
        <path id="Trazado_999651" data-name="Trazado 999651" d="M682.019,50.279l-6.124-15.492,6.517-5.647Z" transform="translate(-419.227 -18.075)" fill="none" stroke="#1a004f" stroke-linecap="round" stroke-linejoin="round" stroke-width="1"/>
        <path id="Trazado_999652" data-name="Trazado 999652" d="M662.254,42.8l-8.351-.74,14.475,16.231Z" transform="translate(-405.587 -26.09)" fill="#fff"/>
        <path id="Trazado_999653" data-name="Trazado 999653" d="M662.254,42.8l-8.351-.74,14.475,16.231Z" transform="translate(-405.587 -26.09)" fill="none" stroke="#1a004f" stroke-linecap="round" stroke-linejoin="round" stroke-width="1"/>
        <path id="Trazado_999654" data-name="Trazado 999654" d="M169.42,44.057a20.168,20.168,0,1,0-20.169,20.169A20.169,20.169,0,0,0,169.42,44.057" transform="translate(-80.064 -14.817)" fill="#1a004f"/>
        <path id="Trazado_999655" data-name="Trazado 999655" d="M171.964,50.619A16.151,16.151,0,1,0,155.813,66.77a16.151,16.151,0,0,0,16.151-16.151" transform="translate(-86.626 -21.379)" fill="#fff"/>
        <circle id="Elipse_11813" data-name="Elipse 11813" cx="16.151" cy="16.151" r="16.151" transform="translate(49.049 18.462) rotate(-16.845)" fill="none" stroke="#1a004f" stroke-miterlimit="10" stroke-width="1"/>
        <path id="Trazado_999656" data-name="Trazado 999656" d="M175.644,60.109A10.34,10.34,0,1,0,165.3,70.45a10.34,10.34,0,0,0,10.34-10.34" transform="translate(-96.117 -30.869)" fill="#1a004f"/>
        <path id="Trazado_999657" data-name="Trazado 999657" d="M178.492,67.454a5.844,5.844,0,1,0-5.844,5.844,5.844,5.844,0,0,0,5.844-5.844" transform="translate(-103.462 -38.214)" fill="#fff"/>
        <path id="Trazado_999658" data-name="Trazado 999658" d="M178.492,67.454a5.844,5.844,0,1,0-5.844,5.844A5.844,5.844,0,0,0,178.492,67.454Z" transform="translate(-103.462 -38.214)" fill="none" stroke="#1a004f" stroke-miterlimit="10" stroke-width="1"/>
        <path id="Trazado_999659" data-name="Trazado 999659" d="M180.631,72.969a2.467,2.467,0,1,0-2.468,2.468,2.467,2.467,0,0,0,2.468-2.468" transform="translate(-108.976 -43.729)" fill="#dc3341"/>
        <path id="Trazado_999660" data-name="Trazado 999660" d="M180.631,72.969a2.467,2.467,0,1,0-2.468,2.468A2.467,2.467,0,0,0,180.631,72.969Z" transform="translate(-108.976 -43.729)" fill="none" stroke="#1a004f" stroke-miterlimit="10" stroke-width="1"/>
        <line id="Línea_2069" data-name="Línea 2069" x1="34.563" transform="translate(33.621 29.24)" fill="#fff"/>
        <path id="Trazado_999661" data-name="Trazado 999661" d="M136.6,76.69H109.479v-.978H136.6a.489.489,0,1,1,0,.978" transform="translate(-67.905 -46.961)" fill="#1a004f"/>
        <path id="Trazado_999662" data-name="Trazado 999662" d="M89.2,67.841l.151.175,2.835,2.81H83.7l-3.035-2.985Z" transform="translate(-50.035 -42.078)" fill="#1a004f"/>
        <path id="Trazado_999663" data-name="Trazado 999663" d="M80.668,81.148,83.7,78.264h8.482a18.244,18.244,0,0,0-3.011,2.884Z" transform="translate(-50.035 -48.544)" fill="#1a004f"/>
        <rect id="Rectángulo_412581" data-name="Rectángulo 412581" width="27.939" height="18.931" transform="translate(111.157 20.404)" fill="#1a004f"/>
        <rect id="Rectángulo_412582" data-name="Rectángulo 412582" width="27.939" height="18.931" transform="translate(111.157 20.404)" fill="none" stroke="#1a004f" stroke-miterlimit="10" stroke-width="1"/>
        <rect id="Rectángulo_412583" data-name="Rectángulo 412583" width="27.939" height="18.172" transform="translate(112.664 19.145)" fill="#fff"/>
        <rect id="Rectángulo_412584" data-name="Rectángulo 412584" width="27.939" height="18.172" transform="translate(112.664 19.145)" fill="none" stroke="#1a004f" stroke-miterlimit="10" stroke-width="1"/>
        <path id="Trazado_999664" data-name="Trazado 999664" d="M296.684,50.414l13.97,9.753,13.97-9.753" transform="translate(-184.02 -31.27)" fill="none" stroke="#1a004f" stroke-miterlimit="10" stroke-width="1"/>
        <rect id="Rectángulo_412585" data-name="Rectángulo 412585" width="29.66" height="24.477" transform="translate(7.022 49.723)" fill="#1a004f"/>
        <rect id="Rectángulo_412586" data-name="Rectángulo 412586" width="29.66" height="24.477" transform="translate(7.022 49.723)" fill="none" stroke="#1a004f" stroke-miterlimit="10" stroke-width="1"/>
        <rect id="Rectángulo_412587" data-name="Rectángulo 412587" width="29.66" height="24.477" transform="translate(8.574 47.24)" fill="#d8dcf6"/>
        <rect id="Rectángulo_412588" data-name="Rectángulo 412588" width="29.66" height="24.477" transform="translate(8.574 47.24)" fill="none" stroke="#1a004f" stroke-miterlimit="10" stroke-width="1"/>
        <rect id="Rectángulo_412589" data-name="Rectángulo 412589" width="3.725" height="3.725" transform="translate(10.365 54.13)" fill="#dc3341"/>
        <rect id="Rectángulo_412590" data-name="Rectángulo 412590" width="3.725" height="3.725" transform="translate(10.365 54.13)" fill="none" stroke="#1a004f" stroke-miterlimit="10" stroke-width="1"/>
        <rect id="Rectángulo_412591" data-name="Rectángulo 412591" width="3.725" height="3.725" transform="translate(15.953 54.13)" fill="#fff"/>
        <rect id="Rectángulo_412592" data-name="Rectángulo 412592" width="3.725" height="3.725" transform="translate(15.953 54.13)" fill="none" stroke="#1a004f" stroke-miterlimit="10" stroke-width="1"/>
        <rect id="Rectángulo_412593" data-name="Rectángulo 412593" width="3.725" height="3.725" transform="translate(21.541 54.13)" fill="#fff"/>
        <rect id="Rectángulo_412594" data-name="Rectángulo 412594" width="3.725" height="3.725" transform="translate(21.541 54.13)" fill="none" stroke="#1a004f" stroke-miterlimit="10" stroke-width="1"/>
        <rect id="Rectángulo_412595" data-name="Rectángulo 412595" width="3.725" height="3.725" transform="translate(27.129 54.13)" fill="#fff"/>
        <rect id="Rectángulo_412596" data-name="Rectángulo 412596" width="3.725" height="3.725" transform="translate(27.129 54.13)" fill="none" stroke="#1a004f" stroke-miterlimit="10" stroke-width="1"/>
        <rect id="Rectángulo_412597" data-name="Rectángulo 412597" width="3.725" height="3.725" transform="translate(32.717 54.13)" fill="#fff"/>
        <rect id="Rectángulo_412598" data-name="Rectángulo 412598" width="3.725" height="3.725" transform="translate(32.717 54.13)" fill="none" stroke="#1a004f" stroke-miterlimit="10" stroke-width="1"/>
        <rect id="Rectángulo_412599" data-name="Rectángulo 412599" width="3.725" height="3.725" transform="translate(10.365 59.874)" fill="#fff"/>
        <rect id="Rectángulo_412600" data-name="Rectángulo 412600" width="3.725" height="3.725" transform="translate(10.365 59.874)" fill="none" stroke="#1a004f" stroke-miterlimit="10" stroke-width="1"/>
        <rect id="Rectángulo_412601" data-name="Rectángulo 412601" width="3.725" height="3.725" transform="translate(15.953 59.874)" fill="#fff"/>
        <rect id="Rectángulo_412602" data-name="Rectángulo 412602" width="3.725" height="3.725" transform="translate(15.953 59.874)" fill="none" stroke="#1a004f" stroke-miterlimit="10" stroke-width="1"/>
        <rect id="Rectángulo_412603" data-name="Rectángulo 412603" width="3.725" height="3.725" transform="translate(21.541 59.874)" fill="#dc3341"/>
        <rect id="Rectángulo_412604" data-name="Rectángulo 412604" width="3.725" height="3.725" transform="translate(21.541 59.874)" fill="none" stroke="#1a004f" stroke-miterlimit="10" stroke-width="1"/>
        <rect id="Rectángulo_412605" data-name="Rectángulo 412605" width="3.725" height="3.725" transform="translate(27.129 59.874)" fill="#fff"/>
        <rect id="Rectángulo_412606" data-name="Rectángulo 412606" width="3.725" height="3.725" transform="translate(27.129 59.874)" fill="none" stroke="#1a004f" stroke-miterlimit="10" stroke-width="1"/>
        <rect id="Rectángulo_412607" data-name="Rectángulo 412607" width="3.725" height="3.725" transform="translate(32.717 59.874)" fill="#fff"/>
        <rect id="Rectángulo_412608" data-name="Rectángulo 412608" width="3.725" height="3.725" transform="translate(32.717 59.874)" fill="none" stroke="#1a004f" stroke-miterlimit="10" stroke-width="1"/>
        <rect id="Rectángulo_412609" data-name="Rectángulo 412609" width="3.725" height="3.725" transform="translate(10.365 65.617)" fill="#fff"/>
        <rect id="Rectángulo_412610" data-name="Rectángulo 412610" width="3.725" height="3.725" transform="translate(10.365 65.617)" fill="none" stroke="#1a004f" stroke-miterlimit="10" stroke-width="1"/>
        <rect id="Rectángulo_412611" data-name="Rectángulo 412611" width="3.725" height="3.725" transform="translate(15.953 65.617)" fill="#fff"/>
        <rect id="Rectángulo_412612" data-name="Rectángulo 412612" width="3.725" height="3.725" transform="translate(15.953 65.617)" fill="none" stroke="#1a004f" stroke-miterlimit="10" stroke-width="1"/>
        <rect id="Rectángulo_412613" data-name="Rectángulo 412613" width="3.725" height="3.725" transform="translate(21.541 65.617)" fill="#fff"/>
        <rect id="Rectángulo_412614" data-name="Rectángulo 412614" width="3.725" height="3.725" transform="translate(21.541 65.617)" fill="none" stroke="#1a004f" stroke-miterlimit="10" stroke-width="1"/>
        <rect id="Rectángulo_412615" data-name="Rectángulo 412615" width="3.725" height="3.725" transform="translate(27.129 65.617)" fill="#fff"/>
        <rect id="Rectángulo_412616" data-name="Rectángulo 412616" width="3.725" height="3.725" transform="translate(27.129 65.617)" fill="none" stroke="#1a004f" stroke-miterlimit="10" stroke-width="1"/>
        <rect id="Rectángulo_412617" data-name="Rectángulo 412617" width="3.725" height="3.725" transform="translate(32.717 65.617)" fill="#fff"/>
        <rect id="Rectángulo_412618" data-name="Rectángulo 412618" width="3.725" height="3.725" transform="translate(32.717 65.617)" fill="none" stroke="#1a004f" stroke-miterlimit="10" stroke-width="1"/>
        <path id="Trazado_999665" data-name="Trazado 999665" d="M49.843,120.242a1.082,1.082,0,0,1-1.083-1.083v-3.725a1.083,1.083,0,1,1,2.165,0v3.725a1.082,1.082,0,0,1-1.083,1.083" transform="translate(-30.244 -70.927)" fill="#1a004f"/>
        <path id="Trazado_999666" data-name="Trazado 999666" d="M69.882,120.242a1.082,1.082,0,0,1-1.083-1.083v-3.725a1.083,1.083,0,1,1,2.165,0v3.725a1.082,1.082,0,0,1-1.083,1.083" transform="translate(-42.673 -70.927)" fill="#1a004f"/>
        <rect id="Rectángulo_412619" data-name="Rectángulo 412619" width="5.463" height="12.73" transform="translate(6.774 108.883)" fill="#1a004f"/>
        <rect id="Rectángulo_412620" data-name="Rectángulo 412620" width="5.463" height="12.73" transform="translate(6.774 108.883)" fill="none" stroke="#1a004f" stroke-miterlimit="10" stroke-width="1"/>
        <rect id="Rectángulo_412621" data-name="Rectángulo 412621" width="5.463" height="17.672" transform="translate(13.456 103.942)" fill="#1a004f"/>
        <rect id="Rectángulo_412622" data-name="Rectángulo 412622" width="5.463" height="17.672" transform="translate(13.456 103.942)" fill="none" stroke="#1a004f" stroke-miterlimit="10" stroke-width="1"/>
        <rect id="Rectángulo_412623" data-name="Rectángulo 412623" width="5.463" height="29.673" transform="translate(20.139 91.941)" fill="#1a004f"/>
        <rect id="Rectángulo_412624" data-name="Rectángulo 412624" width="5.463" height="29.673" transform="translate(20.139 91.941)" fill="none" stroke="#1a004f" stroke-miterlimit="10" stroke-width="1"/>
        <rect id="Rectángulo_412625" data-name="Rectángulo 412625" width="5.463" height="21.907" transform="translate(26.821 99.706)" fill="#1a004f"/>
        <rect id="Rectángulo_412626" data-name="Rectángulo 412626" width="5.463" height="21.907" transform="translate(26.821 99.706)" fill="none" stroke="#1a004f" stroke-miterlimit="10" stroke-width="1"/>
        <rect id="Rectángulo_412627" data-name="Rectángulo 412627" width="5.463" height="13.201" transform="translate(8.181 106.826)" fill="#fff"/>
        <rect id="Rectángulo_412628" data-name="Rectángulo 412628" width="5.463" height="13.201" transform="translate(8.181 106.826)" fill="none" stroke="#1a004f" stroke-miterlimit="10" stroke-width="1"/>
        <rect id="Rectángulo_412629" data-name="Rectángulo 412629" width="5.463" height="18.325" transform="translate(14.863 101.701)" fill="#fff"/>
        <rect id="Rectángulo_412630" data-name="Rectángulo 412630" width="5.463" height="18.325" transform="translate(14.863 101.701)" fill="none" stroke="#1a004f" stroke-miterlimit="10" stroke-width="1"/>
        <rect id="Rectángulo_412631" data-name="Rectángulo 412631" width="5.463" height="30.77" transform="translate(21.546 89.256)" fill="#dc3341"/>
        <rect id="Rectángulo_412632" data-name="Rectángulo 412632" width="5.463" height="30.77" transform="translate(21.546 89.256)" fill="none" stroke="#1a004f" stroke-miterlimit="10" stroke-width="1"/>
        <rect id="Rectángulo_412633" data-name="Rectángulo 412633" width="5.463" height="22.718" transform="translate(28.228 97.309)" fill="#fff"/>
        <rect id="Rectángulo_412634" data-name="Rectángulo 412634" width="5.463" height="22.718" transform="translate(28.228 97.309)" fill="none" stroke="#1a004f" stroke-miterlimit="10" stroke-width="1"/>
        <path id="Trazado_999667" data-name="Trazado 999667" d="M583.747,338.764a14.04,14.04,0,0,0,4.1.453c.03,0-.625-1.9-.68-2.018-.637-1.334-2.654-3.536-4.295-3.314a1.959,1.959,0,0,0-1.573,2.455,4.1,4.1,0,0,0,2.45,2.423" transform="translate(-360.516 -207.085)" fill="#1a004f"/>
        <path id="Trazado_999668" data-name="Trazado 999668" d="M585.151,333.414a13.631,13.631,0,0,0,4.032-.633,34.669,34.669,0,0,0,1.573,4.352c.357.826.742,1.647,1.138,2.465-.237-.347-.451-.655-.485-.695-.967-1.118-3.494-2.71-5.017-2.062a1.959,1.959,0,0,0-.869,2.783,4.1,4.1,0,0,0,3,1.69,12.991,12.991,0,0,0,3.919-.6c.155.312.307.626.464.937.751,1.5,1.506,2.984,2.2,4.468.246.522.469,1.046.693,1.569-.21-.308-.39-.565-.422-.6-.968-1.118-3.494-2.71-5.018-2.062a1.959,1.959,0,0,0-.868,2.784,4.1,4.1,0,0,0,3,1.69,12.491,12.491,0,0,0,3.813-.572c.214.543.43,1.086.613,1.622.117.368.255.715.351,1.092s.206.738.307,1.1c.17.707.349,1.436.5,2.13.107.482.2.943.294,1.408-.238-.523-.727-1.537-.778-1.617-.786-1.252-3.043-3.207-4.647-2.8a1.959,1.959,0,0,0-1.279,2.62,4.093,4.093,0,0,0,2.712,2.125,13.443,13.443,0,0,0,4.058-.012c.154.769.3,1.519.42,2.228q.139.788.254,1.514h1.031q-.146-.809-.321-1.695c-.153-.782-.333-1.614-.526-2.466a21.306,21.306,0,0,0,2.264-1.064,14.348,14.348,0,0,0,3.3,2.128c-.3.727-.59,1.431-.879,2.09-.152.35-.3.68-.446,1.008h1.09c.087-.207.172-.41.26-.625.3-.737.613-1.53.922-2.347a13.475,13.475,0,0,0,4.047.314,4.1,4.1,0,0,0,2.864-1.918,1.959,1.959,0,0,0-1.082-2.708c-1.569-.527-3.965,1.255-4.842,2.445-.052.07-.529.894-.821,1.419.125-.335.25-.658.374-1,.251-.682.48-1.371.73-2.111l.328-1.1c.117-.363.194-.763.295-1.147.214-.9.386-1.815.54-2.744a12.872,12.872,0,0,0,3.841.883,4.094,4.094,0,0,0,3.121-1.462,1.959,1.959,0,0,0-.658-2.84c-1.471-.759-4.11.64-5.157,1.683-.065.065-.733.9-1.091,1.362.088-.559.178-1.117.249-1.686.2-1.642.359-3.309.521-4.973.049-.51.1-1.017.158-1.524a13.607,13.607,0,0,0,3.971.931,4.094,4.094,0,0,0,3.121-1.462,1.959,1.959,0,0,0-.659-2.84c-1.471-.759-4.109.64-5.157,1.683-.079.079-1.038,1.278-1.267,1.6.118-1.119.246-2.232.417-3.324a34.448,34.448,0,0,1,.954-4.372,13.827,13.827,0,0,0,3.993.939,4.1,4.1,0,0,0,3.121-1.462,1.959,1.959,0,0,0-.658-2.84c-1.472-.759-4.109.64-5.157,1.683-.082.082-1.113,1.373-1.284,1.621.025-.083.041-.172.066-.254a25.227,25.227,0,0,1,1.732-4.137c.376-.737.778-1.42,1.183-2.076a13.178,13.178,0,0,0,3.781,1.33,4.1,4.1,0,0,0,3.263-1.11,1.959,1.959,0,0,0-.343-2.9c-1.379-.916-4.154.185-5.311,1.107-.063.05-.646.63-1.064,1.059.187-.294.375-.6.56-.876.693-1.043,1.391-1.956,2.016-2.759.359-.453.693-.857,1.009-1.231a13.1,13.1,0,0,0,3.948-.562,4.1,4.1,0,0,0,2.384-2.488,1.959,1.959,0,0,0-1.638-2.412c-1.646-.177-3.6,2.078-4.2,3.429-.052.117-.655,2.035-.625,2.035h.035c-.312.354-.641.737-.993,1.162-.644.791-1.364,1.691-2.082,2.722a34.908,34.908,0,0,0-2.159,3.439,25.58,25.58,0,0,0-1.844,4.152c-.005.017-.009.035-.015.052.009-.485-.013-1.842-.026-1.946-.19-1.466-1.419-4.187-3.047-4.489a1.96,1.96,0,0,0-2.26,1.843,4.1,4.1,0,0,0,1.573,3.066,13.648,13.648,0,0,0,3.712,1.7,34.729,34.729,0,0,0-1.089,4.5c-.158.886-.29,1.783-.41,2.684-.006-.42-.015-.795-.022-.847-.19-1.467-1.419-4.187-3.047-4.489a1.959,1.959,0,0,0-2.259,1.843,4.093,4.093,0,0,0,1.573,3.066,12.987,12.987,0,0,0,3.6,1.661c-.042.346-.089.692-.13,1.037-.2,1.662-.389,3.32-.627,4.942-.083.572-.186,1.131-.287,1.691-.006-.372-.014-.686-.02-.734-.19-1.466-1.419-4.187-3.047-4.489a1.96,1.96,0,0,0-2.26,1.843,4.1,4.1,0,0,0,1.573,3.066,12.5,12.5,0,0,0,3.5,1.626c-.121.571-.241,1.143-.383,1.691-.106.372-.182.737-.309,1.1l-.351,1.088c-.249.684-.5,1.391-.76,2.051-.177.461-.354.9-.531,1.337.089-.568.242-1.683.244-1.778a7.611,7.611,0,0,0-1.02-3.7,2.325,2.325,0,0,0-.027-.433,1.96,1.96,0,0,0-2.4-1.662c-1.6.426-2.614,3.234-2.69,4.71,0,.087.053,1.038.1,1.637-.081-.348-.155-.687-.242-1.044-.168-.707-.356-1.408-.556-2.164l-.331-1.095c-.1-.368-.258-.743-.387-1.119-.316-.865-.679-1.727-1.064-2.586a12.863,12.863,0,0,0,3.691-1.383,4.1,4.1,0,0,0,1.8-2.94,1.959,1.959,0,0,0-2.116-2.006c-1.646.179-3.074,2.8-3.373,4.249-.019.09-.116,1.153-.159,1.738-.235-.515-.468-1.03-.722-1.543-.736-1.482-1.526-2.958-2.309-4.435-.24-.452-.474-.905-.709-1.358a13.634,13.634,0,0,0,3.826-1.415,4.1,4.1,0,0,0,1.8-2.941,1.959,1.959,0,0,0-2.116-2.006c-1.646.179-3.074,2.8-3.373,4.249-.022.109-.16,1.639-.177,2.029-.518-1-1.026-2-1.486-3a34.569,34.569,0,0,1-1.616-4.173,13.82,13.82,0,0,0,3.849-1.42,4.1,4.1,0,0,0,1.8-2.941A1.959,1.959,0,0,0,593.1,326.4c-1.646.179-3.074,2.8-3.373,4.249-.023.114-.171,1.76-.176,2.059-.026-.082-.062-.165-.086-.248a25.289,25.289,0,0,1-.838-4.407c-.092-.822-.134-1.613-.158-2.383a13.193,13.193,0,0,0,3.887-.977,4.1,4.1,0,0,0,2.109-2.725,1.959,1.959,0,0,0-1.883-2.226c-1.656,0-3.363,2.446-3.819,3.853-.025.076-.191.882-.3,1.47-.005-.348-.017-.707-.016-1.04,0-1.252.082-2.4.16-3.413.049-.577.105-1.1.163-1.584a13.11,13.11,0,0,0,2.983-2.647,4.1,4.1,0,0,0,.616-3.39,1.959,1.959,0,0,0-2.7-1.108c-1.471.76-1.858,3.721-1.615,5.179.021.126.577,2.059.6,2.042l.029-.02c-.065.467-.129.968-.188,1.517-.1,1.015-.205,2.162-.234,3.419a34.838,34.838,0,0,0,.1,4.06,25.562,25.562,0,0,0,.752,4.48c0,.017.012.035.017.052-.26-.409-1.027-1.529-1.1-1.608-.967-1.118-3.493-2.71-5.017-2.063a1.96,1.96,0,0,0-.868,2.784,4.1,4.1,0,0,0,3,1.69" transform="translate(-360.916 -193.317)" fill="#1a004f"/>
        <path id="Trazado_999669" data-name="Trazado 999669" d="M658.69,336.391c.026.016.529-1.931.546-2.058.2-1.464-.263-4.413-1.754-5.134a1.959,1.959,0,0,0-2.666,1.181,4.1,4.1,0,0,0,.707,3.372,14.031,14.031,0,0,0,3.166,2.638" transform="translate(-406.065 -204.073)" fill="#1a004f"/>
        <path id="Trazado_999670" data-name="Trazado 999670" d="M237.165,350.587a12.384,12.384,0,0,0,3.617.4c.027,0-.551-1.68-.6-1.781-.563-1.178-2.344-3.123-3.793-2.927A1.73,1.73,0,0,0,235,348.448a3.617,3.617,0,0,0,2.164,2.14" transform="translate(-145.728 -214.773)" fill="#1a004f"/>
        <path id="Trazado_999671" data-name="Trazado 999671" d="M238.4,345.864a12.033,12.033,0,0,0,3.561-.559,30.678,30.678,0,0,0,1.389,3.843c.315.729.655,1.454,1,2.177-.208-.306-.4-.578-.428-.614-.854-.987-3.085-2.392-4.43-1.821a1.73,1.73,0,0,0-.767,2.458,3.614,3.614,0,0,0,2.652,1.492,11.458,11.458,0,0,0,3.461-.53c.137.276.271.553.409.827.663,1.321,1.331,2.635,1.946,3.945.217.461.414.924.613,1.386-.186-.272-.345-.5-.373-.531-.854-.987-3.085-2.393-4.43-1.821a1.73,1.73,0,0,0-.767,2.458,3.617,3.617,0,0,0,2.652,1.492,11.034,11.034,0,0,0,3.367-.5c.189.479.379.958.541,1.432.1.325.225.632.31.964l.271.973c.15.624.308,1.268.439,1.881.094.426.176.833.26,1.243-.21-.462-.642-1.357-.687-1.428-.695-1.105-2.687-2.832-4.1-2.471a1.73,1.73,0,0,0-1.13,2.313,3.616,3.616,0,0,0,2.4,1.877,11.886,11.886,0,0,0,3.583-.011c.136.679.262,1.341.371,1.967q.122.7.224,1.337h.91q-.129-.715-.284-1.5c-.135-.69-.294-1.425-.464-2.178a18.73,18.73,0,0,0,2-.94,12.644,12.644,0,0,0,2.914,1.879c-.261.642-.521,1.263-.776,1.846-.134.309-.265.6-.395.889h.963c.077-.183.152-.362.23-.552.268-.65.541-1.351.814-2.072a11.91,11.91,0,0,0,3.574.278,3.618,3.618,0,0,0,2.529-1.693,1.73,1.73,0,0,0-.955-2.391c-1.385-.466-3.5,1.108-4.276,2.159-.046.062-.467.79-.725,1.253.11-.3.22-.581.33-.887.222-.6.424-1.211.645-1.865l.29-.968c.1-.321.172-.673.26-1.012.189-.792.341-1.6.477-2.423a11.369,11.369,0,0,0,3.392.78,3.615,3.615,0,0,0,2.756-1.291,1.73,1.73,0,0,0-.581-2.508c-1.3-.67-3.628.565-4.554,1.486-.058.057-.648.793-.963,1.2.077-.494.158-.986.219-1.489.18-1.449.317-2.922.46-4.391.044-.45.093-.9.14-1.346a12.008,12.008,0,0,0,3.507.822,3.616,3.616,0,0,0,2.756-1.29,1.73,1.73,0,0,0-.581-2.508c-1.3-.67-3.628.565-4.554,1.486-.07.07-.917,1.129-1.119,1.409.1-.988.218-1.97.369-2.935a30.492,30.492,0,0,1,.842-3.86,12.217,12.217,0,0,0,3.526.829,3.616,3.616,0,0,0,2.756-1.291,1.73,1.73,0,0,0-.581-2.508c-1.3-.67-3.628.565-4.554,1.486-.073.072-.983,1.213-1.134,1.431.022-.073.036-.151.059-.224a22.255,22.255,0,0,1,1.529-3.653c.332-.651.687-1.254,1.044-1.833a11.653,11.653,0,0,0,3.339,1.174,3.617,3.617,0,0,0,2.881-.98,1.73,1.73,0,0,0-.3-2.557c-1.218-.809-3.669.163-4.69.977-.055.044-.57.557-.939.935.165-.259.331-.529.495-.774.611-.921,1.228-1.726,1.78-2.436.317-.4.612-.757.891-1.087a11.568,11.568,0,0,0,3.486-.5,3.619,3.619,0,0,0,2.105-2.2,1.73,1.73,0,0,0-1.446-2.13c-1.454-.157-3.181,1.835-3.712,3.028-.046.1-.578,1.8-.552,1.8h.031c-.275.312-.566.65-.877,1.026-.569.7-1.2,1.493-1.838,2.4a30.7,30.7,0,0,0-1.907,3.037,22.581,22.581,0,0,0-1.628,3.666c0,.015-.008.031-.013.046.008-.428-.011-1.626-.024-1.718-.168-1.295-1.253-3.7-2.69-3.963a1.73,1.73,0,0,0-2,1.627,3.616,3.616,0,0,0,1.389,2.708,12.054,12.054,0,0,0,3.278,1.5,30.632,30.632,0,0,0-.962,3.971c-.14.782-.256,1.574-.362,2.37-.005-.371-.013-.7-.019-.748-.168-1.295-1.253-3.7-2.69-3.963a1.73,1.73,0,0,0-2,1.627,3.615,3.615,0,0,0,1.389,2.708,11.458,11.458,0,0,0,3.179,1.467c-.038.306-.079.611-.115.916-.175,1.467-.344,2.932-.553,4.364-.073.5-.164,1-.254,1.493,0-.328-.012-.606-.017-.648-.168-1.295-1.253-3.7-2.691-3.963a1.731,1.731,0,0,0-2,1.628,3.615,3.615,0,0,0,1.389,2.707,11.032,11.032,0,0,0,3.087,1.437c-.107.5-.213,1.009-.339,1.492-.094.328-.161.651-.273.975l-.31.961c-.22.6-.442,1.228-.671,1.811-.156.407-.313.792-.469,1.18.079-.5.213-1.486.215-1.569a6.718,6.718,0,0,0-.9-3.268,2.048,2.048,0,0,0-.024-.382,1.73,1.73,0,0,0-2.116-1.468c-1.413.376-2.309,2.856-2.375,4.159,0,.077.046.916.087,1.445-.071-.308-.136-.606-.213-.922-.148-.625-.315-1.244-.491-1.911l-.293-.967c-.091-.324-.228-.656-.341-.988-.279-.764-.6-1.525-.939-2.283a11.365,11.365,0,0,0,3.259-1.221,3.617,3.617,0,0,0,1.587-2.6,1.73,1.73,0,0,0-1.868-1.772c-1.454.158-2.715,2.473-2.979,3.752-.016.08-.1,1.018-.14,1.535-.208-.455-.413-.909-.638-1.362-.649-1.309-1.347-2.613-2.038-3.916-.212-.4-.418-.8-.626-1.2a12.037,12.037,0,0,0,3.378-1.249,3.617,3.617,0,0,0,1.587-2.6,1.73,1.73,0,0,0-1.868-1.771c-1.454.158-2.715,2.473-2.979,3.751-.02.1-.142,1.447-.156,1.792-.458-.881-.906-1.764-1.312-2.651a30.528,30.528,0,0,1-1.427-3.685,12.233,12.233,0,0,0,3.4-1.254,3.617,3.617,0,0,0,1.587-2.6,1.73,1.73,0,0,0-1.869-1.771c-1.453.158-2.714,2.473-2.978,3.752-.021.1-.151,1.554-.156,1.819-.023-.073-.054-.146-.076-.219a22.3,22.3,0,0,1-.74-3.891c-.082-.726-.119-1.424-.14-2.1a11.648,11.648,0,0,0,3.433-.863,3.616,3.616,0,0,0,1.862-2.407,1.73,1.73,0,0,0-1.663-1.966c-1.462,0-2.97,2.16-3.373,3.4-.022.068-.169.779-.268,1.3,0-.307-.016-.624-.014-.919,0-1.105.072-2.118.141-3.014.044-.509.093-.969.144-1.4a11.592,11.592,0,0,0,2.634-2.338,3.618,3.618,0,0,0,.544-2.994,1.73,1.73,0,0,0-2.381-.979c-1.3.671-1.641,3.286-1.426,4.573.019.111.509,1.818.532,1.8l.025-.017c-.057.412-.114.855-.166,1.34-.089.9-.181,1.91-.207,3.019a30.673,30.673,0,0,0,.085,3.585,22.543,22.543,0,0,0,.664,3.956c0,.015.01.031.014.046-.23-.362-.907-1.35-.968-1.42-.854-.987-3.085-2.393-4.43-1.821a1.73,1.73,0,0,0-.767,2.458,3.617,3.617,0,0,0,2.652,1.492" transform="translate(-146.082 -202.617)" fill="#1a004f"/>
        <path id="Trazado_999672" data-name="Trazado 999672" d="M303.34,348.492c.023.014.467-1.705.482-1.817.18-1.293-.232-3.9-1.549-4.533a1.73,1.73,0,0,0-2.354,1.042,3.616,3.616,0,0,0,.625,2.978,12.4,12.4,0,0,0,2.8,2.329" transform="translate(-185.949 -212.114)" fill="#1a004f"/>
        <path id="Trazado_999673" data-name="Trazado 999673" d="M152.174,234.889s3.554,1.354,3.892.846,3.892-12.523,3.892-12.523a5.13,5.13,0,0,0,2.087-1.974c.677-1.3-.226-5.81-.226-5.81a2.013,2.013,0,0,0-1.918-.564c-1.072.338-1.692,1.8-1.692,1.8s-.509-.234-.9,1.716a11.646,11.646,0,0,0,.226,4.376l-4.456,7.277-2.651-2.087-.846,5.19Z" transform="translate(-92.777 -133.223)" fill="#1a004f"/>
        <path id="Trazado_999674" data-name="Trazado 999674" d="M152.174,234.889s3.554,1.354,3.892.846,3.892-12.523,3.892-12.523a5.13,5.13,0,0,0,2.087-1.974c.677-1.3-.226-5.81-.226-5.81a2.013,2.013,0,0,0-1.918-.564c-1.072.338-1.692,1.8-1.692,1.8s-.509-.234-.9,1.716a11.646,11.646,0,0,0,.226,4.376l-4.456,7.277-2.651-2.087-.846,5.19Z" transform="translate(-92.777 -133.223)" fill="none" stroke="#1a004f" stroke-miterlimit="10" stroke-width="1"/>
        <path id="Trazado_999675" data-name="Trazado 999675" d="M92.827,286.209a41.779,41.779,0,0,0-1.515,6.781c-.144,2.308-1.659,17.458-1.659,17.458L85.036,325.67s-1.876,4.256-1.3,6.349,1.37,1.01,2.164-.577a23.743,23.743,0,0,0,1.226-5.555s8.008-13.274,8.585-14.5,3.463-9.595,3.463-9.595,1.01,13.418,1.082,13.851.433,13.346.433,13.346-.505,3.391.072,3.463a22.516,22.516,0,0,0,2.669-.144,12.994,12.994,0,0,0,3.174.649c.938-.072,1.515.216,1.443-.505s-4.473-3.246-4.617-3.9,2.814-12.7,3.03-14.717,1.587-20.416,1.659-21.426.451-3.474.451-3.474a8.157,8.157,0,0,1-5.934.877,80.445,80.445,0,0,1-9.811-3.607" transform="translate(-51.87 -177.523)" fill="#1a004f"/>
        <path id="Trazado_999676" data-name="Trazado 999676" d="M92.827,286.209a41.779,41.779,0,0,0-1.515,6.781c-.144,2.308-1.659,17.458-1.659,17.458L85.036,325.67s-1.876,4.256-1.3,6.349,1.37,1.01,2.164-.577a23.743,23.743,0,0,0,1.226-5.555s8.008-13.274,8.585-14.5,3.463-9.595,3.463-9.595,1.01,13.418,1.082,13.851.433,13.346.433,13.346-.505,3.391.072,3.463a22.516,22.516,0,0,0,2.669-.144,12.994,12.994,0,0,0,3.174.649c.938-.072,1.515.216,1.443-.505s-4.473-3.246-4.617-3.9,2.814-12.7,3.03-14.717,1.587-20.416,1.659-21.426.451-3.474.451-3.474a8.157,8.157,0,0,1-5.934.877A80.445,80.445,0,0,1,92.827,286.209Z" transform="translate(-51.87 -177.523)" fill="none" stroke="#1a004f" stroke-miterlimit="10" stroke-width="1"/>
        <path id="Trazado_999677" data-name="Trazado 999677" d="M118.609,220.181s-2.661.714-5.128,4.739-6.232,19.539-5.907,21.1,6.881,4.219,10.451,4.09,5.063-1.1,5.388-2.207,1.753-19.6,1.817-21.1a6.543,6.543,0,0,0-.649-3.9,5.275,5.275,0,0,0-5.972-2.726" transform="translate(-66.711 -136.482)" fill="#596bfb"/>
        <path id="Trazado_999678" data-name="Trazado 999678" d="M118.609,220.181s-2.661.714-5.128,4.739-6.232,19.539-5.907,21.1,6.881,4.219,10.451,4.09,5.063-1.1,5.388-2.207,1.753-19.6,1.817-21.1a6.543,6.543,0,0,0-.649-3.9A5.275,5.275,0,0,0,118.609,220.181Z" transform="translate(-66.711 -136.482)" fill="none" stroke="#1a004f" stroke-miterlimit="10" stroke-width="1"/>
        <line id="Línea_2070" data-name="Línea 2070" x1="4.118" y1="0.282" transform="translate(45.125 97.999)" fill="none" stroke="#1a004f" stroke-linecap="round" stroke-linejoin="round" stroke-width="1"/>
        <path id="Trazado_999679" data-name="Trazado 999679" d="M121.906,262.226s-5.359,2.031-6.938,2.595" transform="translate(-71.309 -162.647)" fill="none" stroke="#1a004f" stroke-linecap="round" stroke-linejoin="round" stroke-width="1"/>
        <path id="Trazado_999680" data-name="Trazado 999680" d="M123.064,263.86s-5.472,4.795-7.5,5.923" transform="translate(-71.677 -163.66)" fill="none" stroke="#1a004f" stroke-linecap="round" stroke-linejoin="round" stroke-width="1"/>
        <path id="Trazado_999681" data-name="Trazado 999681" d="M151.472,188.929s.3,1.516.433,2.382-.043,1.516.087,1.776,1.863,2.036,1.6,2.513a6.7,6.7,0,0,1-1.6,1.3,35.8,35.8,0,0,1-.173,3.639,1.4,1.4,0,0,1-1.213.39c-.693-.087-2.339-.173-2.339-.173l-2.729,3.639-.477,1.17-.39-1.256-2.9-5.329,1.256-2.3-1.516-4.722s-1.126-2.122,2.209-3.856,6.412-1.386,7.1-1.039.65,1.863.65,1.863" transform="translate(-87.658 -115.854)" fill="#fff"/>
        <path id="Trazado_999682" data-name="Trazado 999682" d="M151.472,188.929s.3,1.516.433,2.382-.043,1.516.087,1.776,1.863,2.036,1.6,2.513a6.7,6.7,0,0,1-1.6,1.3,35.8,35.8,0,0,1-.173,3.639,1.4,1.4,0,0,1-1.213.39c-.693-.087-2.339-.173-2.339-.173l-2.729,3.639-.477,1.17-.39-1.256-2.9-5.329,1.256-2.3-1.516-4.722s-1.126-2.122,2.209-3.856,6.412-1.386,7.1-1.039S151.472,188.929,151.472,188.929Z" transform="translate(-87.658 -115.854)" fill="none" stroke="#1a004f" stroke-miterlimit="10" stroke-width="1"/>
        <path id="Trazado_999683" data-name="Trazado 999683" d="M150.685,186.136s-.65-1.04-3.119-.216-.866,1.689-.736,2.079-1.992.65-2.166,1.256a40.326,40.326,0,0,0,.563,5.329,4.108,4.108,0,0,1,3.985-1.43c2.383.606,2.3,1.6,2.253,2.253a8.675,8.675,0,0,1-.346,2.816c-.347.563-2.816.173-5.372-.606s-2.3-2.6-2.3-2.6a17.67,17.67,0,0,0-.26-3.422c-.26-.519-1.516-.866-1.689-.39a5.506,5.506,0,0,0-.216.693s-1.386-3.119-1.213-4.722,6.671-4.939,8.837-4.9,2.773,3.422,1.776,3.856" transform="translate(-86.871 -113.06)" fill="#1a004f"/>
        <path id="Trazado_999684" data-name="Trazado 999684" d="M150.685,186.136s-.65-1.04-3.119-.216-.866,1.689-.736,2.079-1.992.65-2.166,1.256a40.326,40.326,0,0,0,.563,5.329,4.108,4.108,0,0,1,3.985-1.43c2.383.606,2.3,1.6,2.253,2.253a8.675,8.675,0,0,1-.346,2.816c-.347.563-2.816.173-5.372-.606s-2.3-2.6-2.3-2.6a17.67,17.67,0,0,0-.26-3.422c-.26-.519-1.516-.866-1.689-.39a5.506,5.506,0,0,0-.216.693s-1.386-3.119-1.213-4.722,6.671-4.939,8.837-4.9S151.682,185.7,150.685,186.136Z" transform="translate(-86.871 -113.06)" fill="none" stroke="#1a004f" stroke-miterlimit="10" stroke-width="1"/>
        <path id="Trazado_999685" data-name="Trazado 999685" d="M143.169,205.663a4.167,4.167,0,0,0,.087,1.949c.3,1.083,1.646,1.689,2.123.174s.087-2.643-.867-3.163-1.17.433-1.343,1.04" transform="translate(-88.755 -126.826)" fill="#fff"/>
        <path id="Trazado_999686" data-name="Trazado 999686" d="M143.169,205.663a4.167,4.167,0,0,0,.087,1.949c.3,1.083,1.646,1.689,2.123.174s.087-2.643-.867-3.163S143.342,205.057,143.169,205.663Z" transform="translate(-88.755 -126.826)" fill="none" stroke="#1a004f" stroke-miterlimit="10" stroke-width="1"/>
        <path id="Trazado_999687" data-name="Trazado 999687" d="M166.026,203.464c0,.359-.161.65-.359.65s-.36-.291-.36-.65.161-.65.36-.65.359.291.359.65" transform="translate(-102.532 -125.796)" fill="#1a004f"/>
        <path id="Trazado_999688" data-name="Trazado 999688" d="M163.4,200.3a3.287,3.287,0,0,0-2.512-.13c-1,.563-.433,2.3.26,2.729a1.65,1.65,0,0,0,2.166-.65C163.75,201.516,163.793,200.346,163.4,200.3Z" transform="translate(-99.459 -124.021)" fill="none" stroke="#1a004f" stroke-linecap="round" stroke-linejoin="round" stroke-width="1"/>
        <path id="Trazado_999689" data-name="Trazado 999689" d="M168.387,200.875s.477.043,1.256.043.693.563.65,1.343-.39.953-.39.953" transform="translate(-104.443 -124.594)" fill="none" stroke="#1a004f" stroke-linecap="round" stroke-linejoin="round" stroke-width="1"/>
        <line id="Línea_2071" data-name="Línea 2071" x1="4.808" y2="1.473" transform="translate(56.234 76.585)" fill="none" stroke="#1a004f" stroke-linecap="round" stroke-linejoin="round" stroke-width="1"/>
        <path id="Trazado_999690" data-name="Trazado 999690" d="M163.254,197.955a.96.96,0,0,1,1.473-.173" transform="translate(-101.259 -122.497)" fill="none" stroke="#1a004f" stroke-linecap="round" stroke-linejoin="round" stroke-width="1"/>
        <path id="Trazado_999691" data-name="Trazado 999691" d="M161.651,212.169a2.706,2.706,0,0,0,1.516,1.17s-1.04,1.213-1.69,1,.174-2.166.174-2.166" transform="translate(-100.002 -131.599)" fill="#fff"/>
        <path id="Trazado_999692" data-name="Trazado 999692" d="M134.991,217.26l3.515,7.69,3.1-2.834-4.127-6.76Z" transform="translate(-83.729 -133.576)" fill="#fff"/>
        <path id="Trazado_999693" data-name="Trazado 999693" d="M134.991,217.26l3.515,7.69,3.1-2.834-4.127-6.76Z" transform="translate(-83.729 -133.576)" fill="none" stroke="#1a004f" stroke-miterlimit="10" stroke-width="1"/>
        <path id="Trazado_999694" data-name="Trazado 999694" d="M151.162,231.7l.831-.31,1.331,2.243-.532-4.714Z" transform="translate(-93.759 -141.986)" fill="#fff"/>
        <path id="Trazado_999695" data-name="Trazado 999695" d="M151.162,231.7l.831-.31,1.331,2.243-.532-4.714Z" transform="translate(-93.759 -141.986)" fill="none" stroke="#1a004f" stroke-miterlimit="10" stroke-width="1"/>
        <path id="Trazado_999696" data-name="Trazado 999696" d="M132.883,227.271s-4.349-6.426-5.323-7.53-3.505.13-4.284,3.246,1.817,6.167,5.128,8.828,3.7,3.83,5,3.7,9.412-14.605,9.412-14.605a21.473,21.473,0,0,0,2.856-2.986,9.213,9.213,0,0,0-.071-2.992,8.31,8.31,0,0,0-.514-1.942,5.676,5.676,0,0,0-.649-1.168,1.113,1.113,0,0,0-1.558.195c-.324.455-1.493,1.688-1.882,2.272s-.195,3.116-.065,3.9a9.694,9.694,0,0,1,.13,1.428Z" transform="translate(-76.376 -131.239)" fill="#fff"/>
        <path id="Trazado_999697" data-name="Trazado 999697" d="M132.883,227.271s-4.349-6.426-5.323-7.53-3.505.13-4.284,3.246,1.817,6.167,5.128,8.828,3.7,3.83,5,3.7,9.412-14.605,9.412-14.605a21.473,21.473,0,0,0,2.856-2.986,9.213,9.213,0,0,0-.071-2.992,8.31,8.31,0,0,0-.514-1.942,5.676,5.676,0,0,0-.649-1.168,1.113,1.113,0,0,0-1.558.195c-.324.455-1.493,1.688-1.882,2.272s-.195,3.116-.065,3.9a9.694,9.694,0,0,1,.13,1.428Z" transform="translate(-76.376 -131.239)" fill="none" stroke="#1a004f" stroke-miterlimit="10" stroke-width="1"/>
        <path id="Trazado_999698" data-name="Trazado 999698" d="M172.307,214.476s-.859,2.61-.892,3.106" transform="translate(-106.321 -133.03)" fill="none" stroke="#1a004f" stroke-linecap="round" stroke-linejoin="round" stroke-width="1"/>
        <line id="Línea_2072" data-name="Línea 2072" x1="1.167" y2="3.851" transform="translate(66.504 80.554)" fill="none" stroke="#1a004f" stroke-linecap="round" stroke-linejoin="round" stroke-width="1"/>
        <line id="Línea_2073" data-name="Línea 2073" x1="0.728" y2="3.523" transform="translate(67.802 81.446)" fill="none" stroke="#1a004f" stroke-linecap="round" stroke-linejoin="round" stroke-width="1"/>
        <path id="Trazado_999699" data-name="Trazado 999699" d="M181.218,218.739a13.081,13.081,0,0,1-.444,2.468" transform="translate(-112.126 -135.674)" fill="none" stroke="#1a004f" stroke-linecap="round" stroke-linejoin="round" stroke-width="1"/>
        <path id="Trazado_999700" data-name="Trazado 999700" d="M134.775,238.166l-1.892,1.772s-4.349-6.426-5.323-7.53-3.505.13-4.284,3.246,1.817,6.167,5.128,8.828,3.7,3.83,5,3.7c.614-.062,2.756-3.337,4.841-6.77Z" transform="translate(-76.376 -143.906)" fill="#596bfb"/>
        <path id="Trazado_999701" data-name="Trazado 999701" d="M134.775,238.166l-1.892,1.772s-4.349-6.426-5.323-7.53-3.505.13-4.284,3.246,1.817,6.167,5.128,8.828,3.7,3.83,5,3.7c.614-.062,2.756-3.337,4.841-6.77Z" transform="translate(-76.376 -143.906)" fill="none" stroke="#1a004f" stroke-miterlimit="10" stroke-width="1"/>
        <path id="Trazado_999702" data-name="Trazado 999702" d="M152.763,256.489l-3.962-3.6,1.2,5.8" transform="translate(-92.295 -156.853)" fill="none" stroke="#1a004f" stroke-linecap="round" stroke-linejoin="round" stroke-width="1"/>
        <line id="Línea_2074" data-name="Línea 2074" x1="0.551" y2="5.803" transform="translate(55.956 96.032)" fill="none" stroke="#1a004f" stroke-linecap="round" stroke-linejoin="round" stroke-width="1"/>
        <path id="Trazado_999703" data-name="Trazado 999703" d="M184.593,96.2l2.769,25.767a8.723,8.723,0,0,0,10.424,7.617c18.325-3.758,59.246-11.479,84.284-11.072,33.022.537,62.875,17.216,62.875,17.216l-.306-15.028a262.447,262.447,0,0,0-10.568-68.571L329.743,37.38S306.618,63.022,272.9,73.73c-25.385,8.061-63.145,11.585-80.263,12.835a8.725,8.725,0,0,0-8.041,9.636" transform="translate(-114.463 -23.185)" fill="#dc3341"/>
        <path id="Trazado_999704" data-name="Trazado 999704" d="M184.593,96.2l2.769,25.767a8.723,8.723,0,0,0,10.424,7.617c18.325-3.758,59.246-11.479,84.284-11.072,33.022.537,62.875,17.216,62.875,17.216l-.306-15.028a262.447,262.447,0,0,0-10.568-68.571L329.743,37.38S306.618,63.022,272.9,73.73c-25.385,8.061-63.145,11.585-80.263,12.835A8.725,8.725,0,0,0,184.593,96.2Z" transform="translate(-114.463 -23.185)" fill="none" stroke="#1a004f" stroke-miterlimit="10" stroke-width="1"/>
        <path id="Trazado_999705" data-name="Trazado 999705" d="M465.063,45.414l-.224-.764S441.714,70.292,407.994,81c-1.822.579-3.707,1.134-5.644,1.666" transform="translate(-249.56 -27.694)" fill="none" stroke="#fff" stroke-miterlimit="10" stroke-width="5"/>
        <path id="Trazado_999706" data-name="Trazado 999706" d="M353.258,149.839c-5.724,1.331-11.729,2.5-17.748,3.51" transform="translate(-208.101 -92.938)" fill="none" stroke="#fff" stroke-miterlimit="10" stroke-width="5"/>
        <path id="Trazado_999707" data-name="Trazado 999707" d="M574.44,132.515q-.218.023-.44.028a5.025,5.025,0,0,1-5.126-4.922l-.305-15.028A257.5,257.5,0,0,0,558.2,45.336l-4.329-14.75a5.025,5.025,0,0,1,9.643-2.831l4.329,14.75a267.551,267.551,0,0,1,10.771,69.884l.3,15.028a5.026,5.026,0,0,1-4.481,5.1" transform="translate(-343.416 -14.976)" fill="#1a004f"/>
        <path id="Trazado_999708" data-name="Trazado 999708" d="M574.44,132.515q-.218.023-.44.028a5.025,5.025,0,0,1-5.126-4.922l-.305-15.028A257.5,257.5,0,0,0,558.2,45.336l-4.329-14.75a5.025,5.025,0,0,1,9.643-2.831l4.329,14.75a267.551,267.551,0,0,1,10.771,69.884l.3,15.028A5.026,5.026,0,0,1,574.44,132.515Z" transform="translate(-343.416 -14.976)" fill="none" stroke="#1a004f" stroke-linecap="round" stroke-linejoin="round" stroke-width="1"/>
        <path id="Trazado_999709" data-name="Trazado 999709" d="M244.2,150.754c-19.848,3.478-40.228,5.3-51.561,6.131a8.725,8.725,0,0,0-8.041,9.635l2.77,25.768a8.722,8.722,0,0,0,10.423,7.617c11.321-2.321,31.266-6.154,50.763-8.65Z" transform="translate(-114.463 -93.506)" fill="#1a004f"/>
        <path id="Trazado_999710" data-name="Trazado 999710" d="M244.2,150.754c-19.848,3.478-40.228,5.3-51.561,6.131a8.725,8.725,0,0,0-8.041,9.635l2.77,25.768a8.722,8.722,0,0,0,10.423,7.617c11.321-2.321,31.266-6.154,50.763-8.65Z" transform="translate(-114.463 -93.506)" fill="none" stroke="#1a004f" stroke-linecap="round" stroke-linejoin="round" stroke-width="1"/>
        <path id="Trazado_999711" data-name="Trazado 999711" d="M253.143,252.051s8.018,16.3,9.269,17.8a4.922,4.922,0,0,0,2.26,1.255,10.049,10.049,0,0,1,5.386,4.058c5.728,8.68,20.376,30.847,21.118,31.643.924.99,3.194,1.836,4.454.883s10.625-10.132,9.922-14.143-1.934-2.789-4.022-4.471c-1.68-1.354-8.169-12.958-10.637-17.434a3.309,3.309,0,0,1,.134-3.415l2.184-3.32s-9.544-7.692-9.69-9.038,3.837-2.319,3.962-3.695S284.094,246,284.094,246Z" transform="translate(-157.013 -152.583)" fill="#dc3341"/>
        <path id="Trazado_999712" data-name="Trazado 999712" d="M253.143,252.051s8.018,16.3,9.269,17.8a4.922,4.922,0,0,0,2.26,1.255,10.049,10.049,0,0,1,5.386,4.058c5.728,8.68,20.376,30.847,21.118,31.643.924.99,3.194,1.836,4.454.883s10.625-10.132,9.922-14.143-1.934-2.789-4.022-4.471c-1.68-1.354-8.169-12.958-10.637-17.434a3.309,3.309,0,0,1,.134-3.415l2.184-3.32s-9.544-7.692-9.69-9.038,3.837-2.319,3.962-3.695S284.094,246,284.094,246Z" transform="translate(-157.013 -152.583)" fill="none" stroke="#1a004f" stroke-miterlimit="10" stroke-width="1"/>
        <path id="Trazado_999713" data-name="Trazado 999713" d="M343,282.586l7,2.577a.441.441,0,0,1,.207.67l-1.258,1.767Z" transform="translate(-212.746 -175.275)" fill="#dc3341"/>
        <path id="Trazado_999714" data-name="Trazado 999714" d="M343,282.586l7,2.577a.441.441,0,0,1,.207.67l-1.258,1.767Z" transform="translate(-212.746 -175.275)" fill="none" stroke="#dc3341" stroke-miterlimit="10" stroke-width="1"/>
        <line id="Línea_2075" data-name="Línea 2075" x1="2.019" y2="1.562" transform="translate(110.821 113.86)" fill="none" stroke="#1a004f" stroke-miterlimit="10" stroke-width="1"/>
        <line id="Línea_2076" data-name="Línea 2076" x1="11.922" y2="9.224" transform="translate(114.586 103.286)" fill="none" stroke="#1a004f" stroke-miterlimit="10" stroke-width="1"/>
        <rect id="Rectángulo_412635" data-name="Rectángulo 412635" width="7.805" height="4.967" transform="matrix(0.994, -0.107, 0.107, 0.994, 103.905, 76.394)" fill="#dc3341"/>
        <rect id="Rectángulo_412636" data-name="Rectángulo 412636" width="7.805" height="4.967" transform="matrix(0.994, -0.107, 0.107, 0.994, 103.905, 76.394)" fill="none" stroke="#dc3341" stroke-miterlimit="10" stroke-width="1"/>
        <line id="Línea_2077" data-name="Línea 2077" x1="269.119" transform="translate(0 167.379)" fill="none" stroke="#1a004f" stroke-miterlimit="10" stroke-width="1"/>
        <rect id="Rectángulo_412637" data-name="Rectángulo 412637" width="51.577" height="12.06" transform="translate(8.884 155.16)" fill="#1a004f"/>
        <rect id="Rectángulo_412638" data-name="Rectángulo 412638" width="51.577" height="12.06" transform="translate(8.884 155.16)" fill="none" stroke="#1a004f" stroke-miterlimit="10" stroke-width="1"/>
        <rect id="Rectángulo_412639" data-name="Rectángulo 412639" width="172.462" height="12.06" transform="translate(25.116 155.16)" fill="#d8dcf6"/>
        <rect id="Rectángulo_412640" data-name="Rectángulo 412640" width="172.462" height="12.06" transform="translate(25.116 155.16)" fill="none" stroke="#1a004f" stroke-miterlimit="10" stroke-width="1"/>
        <path id="Trazado_999715" data-name="Trazado 999715" d="M425.962,164.177a14.207,14.207,0,0,1-3.9-.147c-2.615-.367-4.771.734-5.367,2.34s-1.468,10.138-1.468,10.138a35.353,35.353,0,0,0-5.826,8.67c-2.477,5.229-3.982,20.139-3.982,20.139a80.435,80.435,0,0,0-3.464,7.675c-.613,2.455-3.233,11.764-3.233,11.764s-1.881,1.56-2.11,3.027,0,2.661.734,2.34a4.851,4.851,0,0,0,2.018-2.294,32.247,32.247,0,0,0,1.377-3.027c.046-.138,9.22-15.677,10.045-17.375s6.041-13.694,6.041-13.694l3.868,14.015,3.853,18.429s-.046,3.12.413,3.486,1.789.137,2.018.137,1.377.551,1.835.6,1.835.183,2.156-.092.229-.55-.092-.688a8.5,8.5,0,0,1-2.477-1.468c-.459-.6-1.789-3.028-1.789-3.028s-.275-18.476-.275-20.861-.743-15.69-.743-18.534-.092-5.184-.092-5.184l.734-1.56s2.8-.826,3.349-3.073c0,0,5.137,4.174,6.835,4.5s10.276.55,10.276.55a9.874,9.874,0,0,0,2.352-.292,5.936,5.936,0,0,0,.493-2.781c-.092-.5-.78-.642-1.1-.642s.551-.6.78-1.285-.137-.734-.642-.321-1.1,1.009-1.743,1.56a5.248,5.248,0,0,0-1.1,1.606,35.257,35.257,0,0,1-5.368-1.239,26.375,26.375,0,0,1-3.486-1.7s-3.211-4.45-4.129-6.193a15.888,15.888,0,0,0-3.991-4.174,8.539,8.539,0,0,0-2.8-1.321" transform="translate(-245.948 -101.696)" fill="#1a004f"/>
        <path id="Trazado_999716" data-name="Trazado 999716" d="M425.962,164.177a14.207,14.207,0,0,1-3.9-.147c-2.615-.367-4.771.734-5.367,2.34s-1.468,10.138-1.468,10.138a35.353,35.353,0,0,0-5.826,8.67c-2.477,5.229-3.982,20.139-3.982,20.139a80.435,80.435,0,0,0-3.464,7.675c-.613,2.455-3.233,11.764-3.233,11.764s-1.881,1.56-2.11,3.027,0,2.661.734,2.34a4.851,4.851,0,0,0,2.018-2.294,32.247,32.247,0,0,0,1.377-3.027c.046-.138,9.22-15.677,10.045-17.375s6.041-13.694,6.041-13.694l3.868,14.015,3.853,18.429s-.046,3.12.413,3.486,1.789.137,2.018.137,1.377.551,1.835.6,1.835.183,2.156-.092.229-.55-.092-.688a8.5,8.5,0,0,1-2.477-1.468c-.459-.6-1.789-3.028-1.789-3.028s-.275-18.476-.275-20.861-.743-15.69-.743-18.534-.092-5.184-.092-5.184l.734-1.56s2.8-.826,3.349-3.073c0,0,5.137,4.174,6.835,4.5s10.276.55,10.276.55a9.874,9.874,0,0,0,2.352-.292,5.936,5.936,0,0,0,.493-2.781c-.092-.5-.78-.642-1.1-.642s.551-.6.78-1.285-.137-.734-.642-.321-1.1,1.009-1.743,1.56a5.248,5.248,0,0,0-1.1,1.606,35.257,35.257,0,0,1-5.368-1.239,26.375,26.375,0,0,1-3.486-1.7s-3.211-4.45-4.129-6.193a15.888,15.888,0,0,0-3.991-4.174A8.539,8.539,0,0,0,425.962,164.177Z" transform="translate(-245.948 -101.696)" fill="none" stroke="#1a004f" stroke-miterlimit="10" stroke-width="1"/>
        <path id="Trazado_999717" data-name="Trazado 999717" d="M463.191,177.7c-.14-.046-.274-.093-.4-.141a26.341,26.341,0,0,1-3.486-1.7s-3.211-4.449-4.129-6.193a15.9,15.9,0,0,0-3.991-4.175,8.552,8.552,0,0,0-2.8-1.321,14.186,14.186,0,0,1-3.9-.147c-2.615-.367-4.771.734-5.367,2.34s-1.468,10.138-1.468,10.138a34.917,34.917,0,0,0-4.969,6.988c5.217,4.868,12.749,4.547,15.411,4.249-.047-.843-.075-1.543-.075-2.017,0-2.844-.092-5.184-.092-5.184l.734-1.56s2.8-.826,3.349-3.073c0,0,5.138,4.175,6.835,4.5.568.107,1.909.2,3.44.287a4.065,4.065,0,0,1,.9-2.989" transform="translate(-268.376 -101.696)" fill="#596bfb"/>
        <path id="Trazado_999718" data-name="Trazado 999718" d="M463.191,177.7c-.14-.046-.274-.093-.4-.141a26.341,26.341,0,0,1-3.486-1.7s-3.211-4.449-4.129-6.193a15.9,15.9,0,0,0-3.991-4.175,8.552,8.552,0,0,0-2.8-1.321,14.186,14.186,0,0,1-3.9-.147c-2.615-.367-4.771.734-5.367,2.34s-1.468,10.138-1.468,10.138a34.917,34.917,0,0,0-4.969,6.988c5.217,4.868,12.749,4.547,15.411,4.249-.047-.843-.075-1.543-.075-2.017,0-2.844-.092-5.184-.092-5.184l.734-1.56s2.8-.826,3.349-3.073c0,0,5.138,4.175,6.835,4.5.568.107,1.909.2,3.44.287A4.065,4.065,0,0,1,463.191,177.7Z" transform="translate(-268.376 -101.696)" fill="none" stroke="#1a004f" stroke-miterlimit="10" stroke-width="1"/>
        <path id="Trazado_999719" data-name="Trazado 999719" d="M477.444,142.54a10.451,10.451,0,0,0-.564-4.837,5.751,5.751,0,0,0-5.024-3.428c-1.879-.235-9.2,3.287-9.955,3.475a4.242,4.242,0,0,0-1.127.423s1.221,4.555,2.864,6.715,3.005,3.944,6.1,4.414,5.119.376,5.87.094,2.3-.986,2.3-.986a37.98,37.98,0,0,1-.47-5.87" transform="translate(-285.797 -83.278)" fill="#1a004f"/>
        <path id="Trazado_999720" data-name="Trazado 999720" d="M477.444,142.54a10.451,10.451,0,0,0-.564-4.837,5.751,5.751,0,0,0-5.024-3.428c-1.879-.235-9.2,3.287-9.955,3.475a4.242,4.242,0,0,0-1.127.423s1.221,4.555,2.864,6.715,3.005,3.944,6.1,4.414,5.119.376,5.87.094,2.3-.986,2.3-.986A37.98,37.98,0,0,1,477.444,142.54Z" transform="translate(-285.797 -83.278)" fill="none" stroke="#1a004f" stroke-miterlimit="10" stroke-width="1"/>
        <path id="Trazado_999721" data-name="Trazado 999721" d="M498.865,139.435a9.443,9.443,0,0,1-.138,3.661" transform="translate(-309.338 -86.485)" fill="none" stroke="#1a004f" stroke-linecap="round" stroke-linejoin="round" stroke-width="1"/>
        <path id="Trazado_999722" data-name="Trazado 999722" d="M479.232,148.238s4.954,0,6.376-.642" transform="translate(-297.246 -91.547)" fill="none" stroke="#fff" stroke-linecap="round" stroke-linejoin="round" stroke-width="0.5"/>
        <path id="Trazado_999723" data-name="Trazado 999723" d="M468.964,144.373c1.055.229,2.933.419,2.933.419s5.783.269,7.893-1.061" transform="translate(-290.877 -89.15)" fill="none" stroke="#fff" stroke-linecap="round" stroke-linejoin="round" stroke-width="0.5"/>
        <path id="Trazado_999724" data-name="Trazado 999724" d="M472.9,160.642s-.688,2.523-1.009,3.945-.046,2.66.78,2.66,2.706-2.156,2.706-2.156-2.569-2.339-2.477-4.449" transform="translate(-292.612 -99.639)" fill="#fff"/>
        <path id="Trazado_999725" data-name="Trazado 999725" d="M472.9,160.642s-.688,2.523-1.009,3.945-.046,2.66.78,2.66,2.706-2.156,2.706-2.156S472.809,162.752,472.9,160.642Z" transform="translate(-292.612 -99.639)" fill="none" stroke="#1a004f" stroke-miterlimit="10" stroke-width="1"/>
        <path id="Trazado_999726" data-name="Trazado 999726" d="M475.418,148.582s0-2.279-.939-2.078-1.58,2.3-1.275,3.156c.046.131.1.253.148.363a1.166,1.166,0,0,0,.792.638,9.767,9.767,0,0,0-.67,2.682c0,1.006.335,3.017,1.609,3.419a7.328,7.328,0,0,0,4.895-1.14,15.151,15.151,0,0,0,2.548-4.358,17.1,17.1,0,0,0-.067-2.883s-4.962,1.14-7.04.2" transform="translate(-293.46 -90.862)" fill="#fff"/>
        <path id="Trazado_999727" data-name="Trazado 999727" d="M475.418,148.582s0-2.279-.939-2.078-1.58,2.3-1.275,3.156c.046.131.1.253.148.363a1.166,1.166,0,0,0,.792.638,9.767,9.767,0,0,0-.67,2.682c0,1.006.335,3.017,1.609,3.419a7.328,7.328,0,0,0,4.895-1.14,15.151,15.151,0,0,0,2.548-4.358,17.1,17.1,0,0,0-.067-2.883S477.5,149.522,475.418,148.582Z" transform="translate(-293.46 -90.862)" fill="none" stroke="#1a004f" stroke-miterlimit="10" stroke-width="1"/>
        <path id="Trazado_999728" data-name="Trazado 999728" d="M485.342,161.035a20.877,20.877,0,0,1-2.049,2.355.8.8,0,0,1-1.352-.436" transform="translate(-298.926 -99.883)" fill="none" stroke="#1a004f" stroke-linecap="round" stroke-linejoin="round" stroke-width="1"/>
        <path id="Trazado_999729" data-name="Trazado 999729" d="M492.161,160.33s1.265-.174,1.047.959" transform="translate(-305.265 -99.44)" fill="none" stroke="#1a004f" stroke-linecap="round" stroke-linejoin="round" stroke-width="1"/>
        <path id="Trazado_999730" data-name="Trazado 999730" d="M484.933,156.871a2.308,2.308,0,0,0-1.614-1" transform="translate(-299.781 -96.678)" fill="none" stroke="#1a004f" stroke-linecap="round" stroke-linejoin="round" stroke-width="1"/>
        <path id="Trazado_999731" data-name="Trazado 999731" d="M481.252,159.313a1.443,1.443,0,0,0,1.09.872" transform="translate(-298.499 -98.815)" fill="none" stroke="#1a004f" stroke-linecap="round" stroke-linejoin="round" stroke-width="1"/>
        <path id="Trazado_999732" data-name="Trazado 999732" d="M489.29,165.169a1.071,1.071,0,0,0,.959.567" transform="translate(-303.485 -102.447)" fill="none" stroke="#1a004f" stroke-linecap="round" stroke-linejoin="round" stroke-width="1"/>
        <path id="Trazado_999733" data-name="Trazado 999733" d="M478.636,163.676a1.219,1.219,0,0,0-.044,1.439" transform="translate(-296.712 -101.521)" fill="none" stroke="#1a004f" stroke-linecap="round" stroke-linejoin="round" stroke-width="1"/>
        <rect id="Rectángulo_412641" data-name="Rectángulo 412641" width="21.676" height="9.917" transform="translate(140.687 126.017)" fill="#1a004f"/>
        <rect id="Rectángulo_412642" data-name="Rectángulo 412642" width="21.676" height="9.917" transform="translate(140.687 126.017)" fill="none" stroke="#1a004f" stroke-miterlimit="10" stroke-width="1"/>
        <rect id="Rectángulo_412643" data-name="Rectángulo 412643" width="32.565" height="9.917" transform="translate(129.798 135.609)" fill="#1a004f"/>
        <rect id="Rectángulo_412644" data-name="Rectángulo 412644" width="32.565" height="9.917" transform="translate(129.798 135.609)" fill="none" stroke="#1a004f" stroke-miterlimit="10" stroke-width="1"/>
        <rect id="Rectángulo_412645" data-name="Rectángulo 412645" width="43.453" height="9.917" transform="translate(118.91 145.201)" fill="#1a004f"/>
        <rect id="Rectángulo_412646" data-name="Rectángulo 412646" width="43.453" height="9.917" transform="translate(118.91 145.201)" fill="none" stroke="#1a004f" stroke-miterlimit="10" stroke-width="1"/>
        <rect id="Rectángulo_412647" data-name="Rectángulo 412647" width="21.676" height="9.917" transform="translate(148.262 126.017)" fill="#d8dcf6"/>
        <rect id="Rectángulo_412648" data-name="Rectángulo 412648" width="21.676" height="9.917" transform="translate(148.262 126.017)" fill="none" stroke="#1a004f" stroke-miterlimit="10" stroke-width="1"/>
        <rect id="Rectángulo_412649" data-name="Rectángulo 412649" width="32.565" height="9.917" transform="translate(137.374 135.609)" fill="#d8dcf6"/>
        <rect id="Rectángulo_412650" data-name="Rectángulo 412650" width="32.565" height="9.917" transform="translate(137.374 135.609)" fill="none" stroke="#1a004f" stroke-miterlimit="10" stroke-width="1"/>
        <rect id="Rectángulo_412651" data-name="Rectángulo 412651" width="43.453" height="9.917" transform="translate(126.485 145.201)" fill="#d8dcf6"/>
        <rect id="Rectángulo_412652" data-name="Rectángulo 412652" width="43.453" height="9.917" transform="translate(126.485 145.201)" fill="none" stroke="#1a004f" stroke-miterlimit="10" stroke-width="1"/>
        <path id="Trazado_999734" data-name="Trazado 999734" d="M473.4,310.268H441.24a4.174,4.174,0,0,1-4.173-4.174V234.486a4.173,4.173,0,0,1,4.173-4.173H473.4a4.174,4.174,0,0,1,4.174,4.173v71.608a4.174,4.174,0,0,1-4.174,4.174" transform="translate(-271.093 -142.853)" fill="#1a004f"/>
        <path id="Rectángulo_412653" data-name="Rectángulo 412653" d="M10.991,0H29.514A10.99,10.99,0,0,1,40.5,10.99V68.965a10.99,10.99,0,0,1-10.99,10.99H10.991A10.991,10.991,0,0,1,0,68.964V10.991A10.991,10.991,0,0,1,10.991,0Z" transform="translate(165.974 87.46)" fill="none" stroke="#1a004f" stroke-miterlimit="10" stroke-width="1"/>
        <path id="Trazado_999735" data-name="Trazado 999735" d="M474.43,311.249h-28.9a4.174,4.174,0,0,1-4.174-4.174V238.568a4.174,4.174,0,0,1,4.174-4.174h28.9a4.174,4.174,0,0,1,4.174,4.174v68.508a4.174,4.174,0,0,1-4.174,4.174" transform="translate(-273.756 -145.384)" fill="#fff"/>
        <rect id="Rectángulo_412654" data-name="Rectángulo 412654" width="37.244" height="76.855" rx="10.991" transform="translate(167.604 89.01)" fill="none" stroke="#1a004f" stroke-miterlimit="10" stroke-width="1"/>
        <path id="Trazado_999736" data-name="Trazado 999736" d="M478.6,240.321v-2.63a3.3,3.3,0,0,0-3.3-3.3H444.657a3.3,3.3,0,0,0-3.3,3.3v2.63Z" transform="translate(-273.755 -145.384)" fill="#596bfb"/>
        <path id="Trazado_999737" data-name="Trazado 999737" d="M478.6,240.321v-2.63a3.3,3.3,0,0,0-3.3-3.3H444.657a3.3,3.3,0,0,0-3.3,3.3v2.63Z" transform="translate(-273.755 -145.384)" fill="none" stroke="#1a004f" stroke-miterlimit="10" stroke-width="1"/>
        <path id="Trazado_999738" data-name="Trazado 999738" d="M441.36,425.105v1.136a3.3,3.3,0,0,0,3.3,3.3h30.648a3.3,3.3,0,0,0,3.3-3.3v-1.136Z" transform="translate(-273.756 -263.673)" fill="#596bfb"/>
        <path id="Trazado_999739" data-name="Trazado 999739" d="M441.36,425.105v1.136a3.3,3.3,0,0,0,3.3,3.3h30.648a3.3,3.3,0,0,0,3.3-3.3v-1.136Z" transform="translate(-273.756 -263.673)" fill="none" stroke="#1a004f" stroke-miterlimit="10" stroke-width="1"/>
        <line id="Línea_2078" data-name="Línea 2078" x2="35.938" transform="translate(168.2 131.26)" fill="#fff"/>
        <line id="Línea_2079" data-name="Línea 2079" x2="35.938" transform="translate(168.2 131.26)" fill="none" stroke="#1a004f" stroke-miterlimit="10" stroke-width="1"/>
        <path id="Trazado_999740" data-name="Trazado 999740" d="M450.348,351.143l-.4.4-1.307,1.308-1.707-1.707a.925.925,0,0,1,1.307-1.308l.4.4.4-.4a.925.925,0,0,1,1.308,1.308" transform="translate(-277.047 -216.819)" fill="#dc3341"/>
        <path id="Trazado_999741" data-name="Trazado 999741" d="M450.348,351.143l-.4.4-1.307,1.308-1.707-1.707a.925.925,0,0,1,1.307-1.308l.4.4.4-.4a.925.925,0,0,1,1.308,1.308Z" transform="translate(-277.047 -216.819)" fill="none" stroke="#dc3341" stroke-miterlimit="10" stroke-width="1"/>
        <path id="Trazado_999742" data-name="Trazado 999742" d="M465.064,351.98a1.613,1.613,0,0,0,.208-.783,1.648,1.648,0,1,0-.8,1.4l.691.345Z" transform="translate(-286.565 -216.82)" fill="#fff"/>
        <path id="Trazado_999743" data-name="Trazado 999743" d="M465.064,351.98a1.613,1.613,0,0,0,.208-.783,1.648,1.648,0,1,0-.8,1.4l.691.345Z" transform="translate(-286.565 -216.82)" fill="none" stroke="#1a004f" stroke-miterlimit="10" stroke-width="1"/>
        <path id="Trazado_999744" data-name="Trazado 999744" d="M479.29,349.565l-2.476,2.028-1.415-.862Z" transform="translate(-294.868 -216.82)" fill="#fff"/>
        <path id="Trazado_999745" data-name="Trazado 999745" d="M479.29,349.565l-2.476,2.028-1.415-.862Z" transform="translate(-294.868 -216.82)" fill="none" stroke="#1a004f" stroke-linecap="round" stroke-linejoin="round" stroke-width="1"/>
        <path id="Trazado_999746" data-name="Trazado 999746" d="M479.125,351.593l.354,1.571,2.122-3.6Z" transform="translate(-297.18 -216.819)" fill="#fff"/>
        <path id="Trazado_999747" data-name="Trazado 999747" d="M479.125,351.593l.354,1.571,2.122-3.6Z" transform="translate(-297.18 -216.819)" fill="none" stroke="#1a004f" stroke-linecap="round" stroke-linejoin="round" stroke-width="1"/>
        <line id="Línea_2080" data-name="Línea 2080" x2="15.144" transform="translate(169.108 140.272)" fill="none" stroke="#1a004f" stroke-miterlimit="10" stroke-width="1"/>
        <line id="Línea_2081" data-name="Línea 2081" x2="31.4" transform="translate(169.108 143.329)" fill="none" stroke="#1a004f" stroke-miterlimit="10" stroke-width="1"/>
        <line id="Línea_2082" data-name="Línea 2082" x2="15.144" transform="translate(169.108 146.385)" fill="none" stroke="#1a004f" stroke-miterlimit="10" stroke-width="1"/>
        <path id="Trazado_999748" data-name="Trazado 999748" d="M483.067,213.073,452.03,214.89l-.32-5.444-1.123-19.226,31.037-1.817.288,4.928Z" transform="translate(-279.479 -116.858)" fill="#fff"/>
        <path id="Trazado_999749" data-name="Trazado 999749" d="M483.067,213.073,452.03,214.89l-.32-5.444-1.123-19.226,31.037-1.817.288,4.928Z" transform="translate(-279.479 -116.858)" fill="none" stroke="#1a004f" stroke-miterlimit="10" stroke-width="1"/>
        <path id="Trazado_999750" data-name="Trazado 999750" d="M484.9,218.108l-31.037,1.817-.32-5.444,12.637-11.532,6.69,4.326,8.263-10.754,2.611,1.845Z" transform="translate(-281.313 -121.893)" fill="#1a004f"/>
        <path id="Trazado_999751" data-name="Trazado 999751" d="M466.773,201.693a2.754,2.754,0,1,0-2.755,2.755,2.755,2.755,0,0,0,2.755-2.755" transform="translate(-286.101 -123.392)" fill="#1a004f"/>
        <path id="Trazado_999752" data-name="Trazado 999752" d="M532.892,199.054s-1.26.236-1.5.63-.039.551.787.472,1.3-.157,1.338-.669-.433-.472-.63-.433" transform="translate(-329.544 -123.451)" fill="#fff"/>
        <path id="Trazado_999753" data-name="Trazado 999753" d="M532.892,199.054s-1.26.236-1.5.63-.039.551.787.472,1.3-.157,1.338-.669S533.089,199.014,532.892,199.054Z" transform="translate(-329.544 -123.451)" fill="none" stroke="#1a004f" stroke-miterlimit="10" stroke-width="1"/>
        <path id="Trazado_999754" data-name="Trazado 999754" d="M533.774,201.041s.515.437.283.823-1.8.463-2.212.283.309-.643.309-.643,1.286-.077,1.621-.463" transform="translate(-329.801 -124.697)" fill="#fff"/>
        <path id="Trazado_999755" data-name="Trazado 999755" d="M533.774,201.041s.515.437.283.823-1.8.463-2.212.283.309-.643.309-.643S533.44,201.427,533.774,201.041Z" transform="translate(-329.801 -124.697)" fill="none" stroke="#1a004f" stroke-miterlimit="10" stroke-width="1"/>
        <path id="Trazado_999756" data-name="Trazado 999756" d="M534.215,203.75s.283.437.077.746-1.852.206-2.058-.051.232-.463.232-.463a10.924,10.924,0,0,0,1.749-.232" transform="translate(-330.087 -126.377)" fill="#fff"/>
        <path id="Trazado_999757" data-name="Trazado 999757" d="M534.215,203.75s.283.437.077.746-1.852.206-2.058-.051.232-.463.232-.463A10.924,10.924,0,0,0,534.215,203.75Z" transform="translate(-330.087 -126.377)" fill="none" stroke="#1a004f" stroke-miterlimit="10" stroke-width="1"/>
        <path id="Trazado_999758" data-name="Trazado 999758" d="M534.742,206.189a.5.5,0,0,1-.1.592,1.37,1.37,0,0,1-1.337.026c-.36-.206.051-.54.051-.54a10.484,10.484,0,0,0,1.389-.077" transform="translate(-330.691 -127.89)" fill="#fff"/>
        <path id="Trazado_999759" data-name="Trazado 999759" d="M534.742,206.189a.5.5,0,0,1-.1.592,1.37,1.37,0,0,1-1.337.026c-.36-.206.051-.54.051-.54A10.484,10.484,0,0,0,534.742,206.189Z" transform="translate(-330.691 -127.89)" fill="none" stroke="#1a004f" stroke-miterlimit="10" stroke-width="1"/>
        <path id="Trazado_999760" data-name="Trazado 999760" d="M440.084,164.188s-3.24-.295-4.112.256-8.945,9.817-8.807,10.918,6.972,12.982,6.972,12.982a20.877,20.877,0,0,1,1.193,2.2c.367.872,1.192,2.523,1.7,2.752a.384.384,0,0,0,.551-.5c-.138-.229-.6-1.284-.6-1.284l-.229-2.569a6.281,6.281,0,0,0,1.055.917c.413.229,1.147.183.963-.275s-.826-.734-1.1-1.238-.55-1.239-.917-1.468-2.248-.917-2.248-.917l-2.936-10.046,6.468-6.7" transform="translate(-264.95 -101.79)" fill="#fff"/>
        <path id="Trazado_999761" data-name="Trazado 999761" d="M440.084,164.188s-3.24-.295-4.112.256-8.945,9.817-8.807,10.918,6.972,12.982,6.972,12.982a20.877,20.877,0,0,1,1.193,2.2c.367.872,1.192,2.523,1.7,2.752a.384.384,0,0,0,.551-.5c-.138-.229-.6-1.284-.6-1.284l-.229-2.569a6.281,6.281,0,0,0,1.055.917c.413.229,1.147.183.963-.275s-.826-.734-1.1-1.238-.55-1.239-.917-1.468-2.248-.917-2.248-.917l-2.936-10.046,6.468-6.7" transform="translate(-264.95 -101.79)" fill="none" stroke="#1a004f" stroke-miterlimit="10" stroke-width="1"/>
        <path id="Trazado_999762" data-name="Trazado 999762" d="M440.084,164.188s-3.24-.295-4.112.256-8.945,9.817-8.807,10.918a35.717,35.717,0,0,0,2.393,4.823,7.544,7.544,0,0,1,2.865-1.349l-.854-2.923,6.468-6.7" transform="translate(-264.95 -101.79)" fill="#596bfb"/>
        <path id="Trazado_999763" data-name="Trazado 999763" d="M440.084,164.188s-3.24-.295-4.112.256-8.945,9.817-8.807,10.918a35.717,35.717,0,0,0,2.393,4.823,7.544,7.544,0,0,1,2.865-1.349l-.854-2.923,6.468-6.7" transform="translate(-264.95 -101.79)" fill="none" stroke="#1a004f" stroke-miterlimit="10" stroke-width="1"/>
        <path id="Trazado_999764" data-name="Trazado 999764" d="M209.977,313.565a8.8,8.8,0,1,0-8.8,8.8,8.8,8.8,0,0,0,8.8-8.8" transform="translate(-119.328 -189.035)" fill="#fff"/>
        <circle id="Elipse_11814" data-name="Elipse 11814" cx="8.796" cy="8.796" r="8.796" transform="translate(73.058 115.735)" fill="none" stroke="#1a004f" stroke-miterlimit="10" stroke-width="1"/>
        <path id="Trazado_999765" data-name="Trazado 999765" d="M211.214,316.755a6.843,6.843,0,1,0-6.843,6.843,6.842,6.842,0,0,0,6.843-6.843" transform="translate(-122.518 -192.224)" fill="#bcd7f4"/>
        <circle id="Elipse_11815" data-name="Elipse 11815" cx="6.843" cy="6.843" r="6.843" transform="matrix(0.973, -0.23, 0.23, 0.973, 73.622, 119.443)" fill="none" stroke="#1a004f" stroke-miterlimit="10" stroke-width="1"/>
        <line id="Línea_2083" data-name="Línea 2083" x1="8.755" y2="7.501" transform="translate(66.63 130.48)" fill="none" stroke="#1a004f" stroke-miterlimit="10" stroke-width="4"/>
        <line id="Línea_2084" data-name="Línea 2084" x1="18.831" y2="11.688" transform="translate(230.439 9.591)" fill="none" stroke="#1a004f" stroke-linecap="round" stroke-linejoin="round" stroke-width="1"/>
        <line id="Línea_2085" data-name="Línea 2085" y1="1.506" x2="14.008" transform="translate(236.608 58.409)" fill="none" stroke="#1a004f" stroke-linecap="round" stroke-linejoin="round" stroke-width="1"/>
        <line id="Línea_2086" data-name="Línea 2086" x2="16.883" y2="5.844" transform="translate(238.881 97.578)" fill="none" stroke="#1a004f" stroke-linecap="round" stroke-linejoin="round" stroke-width="1"/>
        <path id="Trazado_999766" data-name="Trazado 999766" d="M676.4,152.465h0a7.192,7.192,0,1,1,7.192-7.192,7.193,7.193,0,0,1-7.192,7.192" transform="translate(-415.08 -85.645)" fill="#1a004f"/>
        <path id="Trazado_999767" data-name="Trazado 999767" d="M683.662,154.267h1.751v-4.384h1.222l.13-1.468h-1.352v-.836c0-.346.07-.483.4-.483h.947v-1.524h-1.213c-1.3,0-1.89.574-1.89,1.672v1.17h-.911V149.9h.911Z" transform="translate(-423.48 -90.292)" fill="#fff"/>
        <path id="Trazado_999768" data-name="Trazado 999768" d="M637.805,209.21h0A7.192,7.192,0,1,1,645,202.018a7.192,7.192,0,0,1-7.192,7.192" transform="translate(-391.141 -120.842)" fill="#1a004f"/>
        <path id="Trazado_999769" data-name="Trazado 999769" d="M643.112,204.091c1.053,0,1.178,0,1.593.023a2.185,2.185,0,0,1,.733.136,1.3,1.3,0,0,1,.748.748,2.17,2.17,0,0,1,.136.732c.019.416.023.541.023,1.594s0,1.178-.023,1.593a2.167,2.167,0,0,1-.136.732,1.3,1.3,0,0,1-.748.748,2.172,2.172,0,0,1-.733.136c-.416.019-.54.023-1.593.023s-1.178,0-1.593-.023a2.172,2.172,0,0,1-.733-.136,1.3,1.3,0,0,1-.748-.748,2.18,2.18,0,0,1-.136-.732c-.019-.416-.023-.54-.023-1.593s0-1.178.023-1.594a2.182,2.182,0,0,1,.136-.732,1.3,1.3,0,0,1,.748-.748,2.186,2.186,0,0,1,.733-.136c.416-.019.54-.023,1.593-.023m0-.711c-1.071,0-1.205,0-1.626.024a2.9,2.9,0,0,0-.957.183,2.015,2.015,0,0,0-1.153,1.153,2.886,2.886,0,0,0-.183.957c-.019.421-.024.555-.024,1.626s0,1.205.024,1.626a2.882,2.882,0,0,0,.183.957,2.012,2.012,0,0,0,1.153,1.153,2.885,2.885,0,0,0,.957.183c.421.019.555.024,1.626.024s1.205,0,1.626-.024a2.884,2.884,0,0,0,.957-.183,2.012,2.012,0,0,0,1.153-1.153,2.885,2.885,0,0,0,.183-.957c.019-.42.024-.555.024-1.626s0-1.205-.024-1.626a2.889,2.889,0,0,0-.183-.957,2.015,2.015,0,0,0-1.153-1.153,2.9,2.9,0,0,0-.957-.183c-.421-.019-.555-.024-1.626-.024" transform="translate(-396.447 -126.147)" fill="#fff"/>
        <path id="Trazado_999770" data-name="Trazado 999770" d="M646.245,208.433a2.025,2.025,0,1,0,2.025,2.025,2.025,2.025,0,0,0-2.025-2.025m0,3.339a1.314,1.314,0,1,1,1.314-1.315,1.314,1.314,0,0,1-1.314,1.315" transform="translate(-399.581 -129.282)" fill="#fff"/>
        <path id="Trazado_999771" data-name="Trazado 999771" d="M654.8,207.449a.473.473,0,1,1-.473-.473.473.473,0,0,1,.473.473" transform="translate(-405.554 -128.378)" fill="#fff"/>
        <path id="Trazado_999772" data-name="Trazado 999772" d="M654.8,207.449a.473.473,0,1,1-.473-.473.473.473,0,0,1,.473.473" transform="translate(-405.554 -128.378)" fill="none" stroke="#fff" stroke-miterlimit="10" stroke-width="1"/>
        <path id="Trazado_999773" data-name="Trazado 999773" d="M632.236,96.445h0a7.192,7.192,0,1,1,7.192-7.192,7.192,7.192,0,0,1-7.192,7.192" transform="translate(-387.687 -50.899)" fill="#1a004f"/>
        <path id="Trazado_999774" data-name="Trazado 999774" d="M633.892,98.322a4.472,4.472,0,0,0,6.879-3.971,3.185,3.185,0,0,0,.785-.814,3.15,3.15,0,0,1-.9.248,1.575,1.575,0,0,0,.691-.87,3.147,3.147,0,0,1-1,.382,1.574,1.574,0,0,0-2.68,1.434,4.461,4.461,0,0,1-3.241-1.643,1.574,1.574,0,0,0,.486,2.1,1.574,1.574,0,0,1-.712-.2,1.574,1.574,0,0,0,1.261,1.562,1.572,1.572,0,0,1-.71.027,1.573,1.573,0,0,0,1.468,1.092,3.16,3.16,0,0,1-2.328.651" transform="translate(-393.175 -57.56)" fill="#fff"/>
      </g>
    </g>
  </g>
</svg>
