<svg xmlns="http://www.w3.org/2000/svg" xmlns:xlink="http://www.w3.org/1999/xlink" width="108" height="108" viewBox="0 0 108 108">
  <defs>
    <filter id="Trazado_982547" x="0" y="0" width="108" height="108" filterUnits="userSpaceOnUse">
      <feOffset dy="3" input="SourceAlpha"/>
      <feGaussianBlur stdDeviation="3" result="blur"/>
      <feFlood flood-opacity="0.161"/>
      <feComposite operator="in" in2="blur"/>
      <feComposite in="SourceGraphic"/>
    </filter>
  </defs>
  <g id="Grupo_1164201" data-name="Grupo 1164201" transform="translate(-161 -2155)">
    <g id="Grupo_1153207" data-name="Grupo 1153207" transform="translate(0 703)">
      <g id="Grupo_1153117" data-name="Grupo 1153117" transform="translate(-93 939)">
        <g id="Grupo_1149598" data-name="Grupo 1149598" transform="translate(80 315)">
          <g id="Grupo_1148770" data-name="Grupo 1148770" transform="translate(-27 -2583)">
            <g id="Grupo_1146954" data-name="Grupo 1146954" transform="translate(-415 -1202)">
              <g transform="matrix(1, 0, 0, 1, 616, 3983)" filter="url(#Trazado_982547)">
                <g id="Trazado_982547-2" data-name="Trazado 982547" transform="translate(9 6)" fill="#fbf2fb">
                  <path d="M 45 88.5 C 39.12687683105469 88.5 33.43022537231445 87.35007476806641 28.06830024719238 85.08217620849609 C 22.88852500915527 82.89131164550781 18.23629951477051 79.75458526611328 14.2408504486084 75.75914764404297 C 10.24541282653809 71.76370239257812 7.108687400817871 67.11147308349609 4.917825222015381 61.93170166015625 C 2.649924993515015 56.56977462768555 1.5 50.87312316894531 1.5 45 C 1.5 39.12687683105469 2.649924993515015 33.43022537231445 4.917825222015381 28.06830024719238 C 7.108687400817871 22.88852500915527 10.24541282653809 18.23629951477051 14.2408504486084 14.2408504486084 C 18.23629951477051 10.24541282653809 22.88852500915527 7.108687400817871 28.06830024719238 4.917825222015381 C 33.43022537231445 2.649924993515015 39.12687683105469 1.5 45 1.5 C 50.87312316894531 1.5 56.56977462768555 2.649924993515015 61.93170166015625 4.917825222015381 C 67.11147308349609 7.108687400817871 71.76370239257812 10.24541282653809 75.75914764404297 14.2408504486084 C 79.75458526611328 18.23629951477051 82.89131164550781 22.88852500915527 85.08217620849609 28.06830024719238 C 87.35007476806641 33.43022537231445 88.5 39.12687683105469 88.5 45 C 88.5 50.87312316894531 87.35007476806641 56.56977462768555 85.08217620849609 61.93170166015625 C 82.89131164550781 67.11147308349609 79.75458526611328 71.76370239257812 75.75914764404297 75.75914764404297 C 71.76370239257812 79.75458526611328 67.11147308349609 82.89131164550781 61.93170166015625 85.08217620849609 C 56.56977462768555 87.35007476806641 50.87312316894531 88.5 45 88.5 Z" stroke="none"/>
                  <path d="M 45 3 C 39.32871246337891 3 33.82865524291992 4.110054016113281 28.65262985229492 6.299339294433594 C 23.65165710449219 8.414573669433594 19.15968322753906 11.44334411621094 15.301513671875 15.301513671875 C 11.44334411621094 19.15968322753906 8.414573669433594 23.65165710449219 6.299339294433594 28.65262985229492 C 4.110054016113281 33.82865524291992 3 39.32871246337891 3 45 C 3 50.67128753662109 4.110054016113281 56.17134475708008 6.299339294433594 61.34737396240234 C 8.414573669433594 66.34834289550781 11.44334411621094 70.84031677246094 15.301513671875 74.698486328125 C 19.15968322753906 78.55665588378906 23.65165710449219 81.58542633056641 28.65262985229492 83.70066070556641 C 33.82865524291992 85.88994598388672 39.32871246337891 87 45 87 C 50.67128753662109 87 56.17134475708008 85.88994598388672 61.34737396240234 83.70066070556641 C 66.34834289550781 81.58542633056641 70.84031677246094 78.55665588378906 74.698486328125 74.698486328125 C 78.55665588378906 70.84031677246094 81.58542633056641 66.34834289550781 83.70066070556641 61.34737396240234 C 85.88994598388672 56.17134475708008 87 50.67128753662109 87 45 C 87 39.32871246337891 85.88994598388672 33.82865524291992 83.70066070556641 28.65262985229492 C 81.58542633056641 23.65165710449219 78.55665588378906 19.15968322753906 74.698486328125 15.301513671875 C 70.84031677246094 11.44334411621094 66.34834289550781 8.414573669433594 61.34737396240234 6.299339294433594 C 56.17134475708008 4.110054016113281 50.67128753662109 3 45 3 M 45 0 C 69.85281372070312 0 90 20.14718627929688 90 45 C 90 69.85281372070312 69.85281372070312 90 45 90 C 20.14718627929688 90 0 69.85281372070312 0 45 C 0 20.14718627929688 20.14718627929688 0 45 0 Z" stroke="none" fill="#e087dc"/>
                </g>
              </g>
            </g>
          </g>
        </g>
      </g>
    </g>
    <g id="bombilla_5_" data-name="bombilla (5)" transform="translate(175.037 2172)">
      <g id="Grupo_1157996" data-name="Grupo 1157996" transform="translate(6.963 0)">
        <path id="Trazado_993109" data-name="Trazado 993109" d="M218.119,460.583v1.708a4.092,4.092,0,0,1-.024.446,4.021,4.021,0,0,1-4,3.573h-6.163a4.021,4.021,0,0,1-4-3.573,4.092,4.092,0,0,1-.024-.446v-1.708a4.267,4.267,0,0,0,1.742.368h10.719A4.267,4.267,0,0,0,218.119,460.583Z" transform="translate(-177.529 -398.873)" fill="#50758d"/>
        <g id="Grupo_1157995" data-name="Grupo 1157995" transform="translate(0 0)">
          <path id="Trazado_993110" data-name="Trazado 993110" d="M248.922,8.784a1,1,0,0,1-1-1V1a1,1,0,0,1,2.01,0V7.779A1,1,0,0,1,248.922,8.784Z" transform="translate(-215.633 0)" fill="#ffe7c9"/>
          <path id="Trazado_993111" data-name="Trazado 993111" d="M83.332,77.374a1,1,0,0,1-.711-.294l-4.79-4.791a1,1,0,0,1,1.421-1.421l4.79,4.791a1,1,0,0,1-.711,1.715Z" transform="translate(-68.081 -61.118)" fill="#ffe7c9"/>
          <path id="Trazado_993112" data-name="Trazado 993112" d="M14.743,242.963H7.968a1,1,0,1,1,0-2.01h6.775a1,1,0,0,1,0,2.01Z" transform="translate(-6.963 -208.67)" fill="#ffe7c9"/>
          <path id="Trazado_993113" data-name="Trazado 993113" d="M78.541,382.38a1,1,0,0,1-.711-1.715l4.79-4.79a1,1,0,1,1,1.421,1.421l-4.79,4.79A1,1,0,0,1,78.541,382.38Z" transform="translate(-68.081 -325.259)" fill="#ffe7c9"/>
          <path id="Trazado_993114" data-name="Trazado 993114" d="M388.337,382.38a1,1,0,0,1-.711-.294l-4.79-4.79a1,1,0,1,1,1.421-1.421l4.79,4.79a1,1,0,0,1-.711,1.715Z" transform="translate(-332.22 -325.259)" fill="#ffe7c9"/>
          <path id="Trazado_993115" data-name="Trazado 993115" d="M446.086,242.963h-6.775a1,1,0,0,1,0-2.01h6.775a1,1,0,0,1,0,2.01Z" transform="translate(-380.514 -208.67)" fill="#ffe7c9"/>
          <path id="Trazado_993116" data-name="Trazado 993116" d="M383.546,77.374a1,1,0,0,1-.711-1.715l4.79-4.791a1,1,0,1,1,1.421,1.421l-4.79,4.791A1,1,0,0,1,383.546,77.374Z" transform="translate(-332.22 -61.118)" fill="#ffe7c9"/>
        </g>
        <path id="Trazado_993117" data-name="Trazado 993117" d="M211.018,453.333s-6.569,1.209-7.1.971v1.708a4.091,4.091,0,0,0,.024.446,4.021,4.021,0,0,0,4,3.573h1.742a4.022,4.022,0,0,1-3.789-2.674.4.4,0,0,1,.378-.541h10.11a4.265,4.265,0,0,0,1.718-.358,4.091,4.091,0,0,0,.024-.446V454.3C217.587,454.542,211.018,453.333,211.018,453.333Z" transform="translate(-177.529 -392.594)" fill="#2b597f"/>
        <path id="Trazado_993118" data-name="Trazado 993118" d="M203.725,381.1a4.284,4.284,0,0,1-4.287,4.287H188.719a4.284,4.284,0,0,1-4.287-4.287s-.063-6.262-.075-6.426v-.005l9.722-1.34,9.611,1.34Z" transform="translate(-160.589 -323.313)" fill="#50758d"/>
        <path id="Trazado_993119" data-name="Trazado 993119" d="M192.069,394.052h-3.35a4.284,4.284,0,0,1-4.287-4.287s-.063-6.262-.075-6.426v-.005h3.35v.005c.012.163.075,6.426.075,6.426a4.284,4.284,0,0,0,4.287,4.287Z" transform="translate(-160.589 -331.973)" fill="#2b597f"/>
        <path id="Trazado_993120" data-name="Trazado 993120" d="M300.338,417.843h-3.417a1,1,0,0,1,0-2.01h3.406l.005,1Z" transform="translate(-257.202 -360.119)" fill="#2b597f"/>
        <path id="Trazado_993121" data-name="Trazado 993121" d="M196.953,416.838a1,1,0,0,1-1,1H184.76l-.023-2.01h11.212A1,1,0,0,1,196.953,416.838Z" transform="translate(-160.918 -360.119)" fill="#2b597f"/>
        <path id="Trazado_993122" data-name="Trazado 993122" d="M133.6,90.487h0c-10.348-.159-19.049,8.859-18.863,19.132a19.219,19.219,0,0,0,5.438,13.445c1.982,2.038,3.7,3.922,3.887,6.658l19.332.032c.109-2.816,1.71-4.719,3.7-6.8a19.217,19.217,0,0,0,5.33-13.333A18.99,18.99,0,0,0,133.6,90.487Z" transform="translate(-100.296 -78.361)" fill="#fad207"/>
        <path id="Trazado_993123" data-name="Trazado 993123" d="M143.395,129.75v.005l-19.332-.032c-.19-2.736-1.905-4.62-3.887-6.658a19.219,19.219,0,0,1-5.438-13.445c-.186-10.272,8.516-19.291,18.863-19.131.523,0,1.04.023,1.552.064a19.233,19.233,0,0,0-11.627,32.512c1.982,2.038,3.7,3.922,3.887,6.658Z" transform="translate(-100.295 -78.364)" fill="#faa515"/>
        <path id="Trazado_993124" data-name="Trazado 993124" d="M192.67,208.1a2.21,2.21,0,0,1-1.664.853l-.083,0a2.211,2.211,0,0,1-1.64-.728l-6.3-6.967a2.211,2.211,0,0,1,3.28-2.965l4.529,5.01L198.021,194a2.211,2.211,0,1,1,3.492,2.712Z" transform="translate(-158.909 -167.266)" fill="#faa515"/>
      </g>
      <g id="Grupo_1157997" data-name="Grupo 1157997" transform="translate(6.963 0)">
        <path id="Trazado_993125" data-name="Trazado 993125" d="M248.922,8.784a1,1,0,0,0,1-1V1a1,1,0,1,0-2.01,0V7.779A1,1,0,0,0,248.922,8.784Z" transform="translate(-215.633 0)"/>
        <path id="Trazado_993126" data-name="Trazado 993126" d="M82.621,77.08a1,1,0,0,0,1.421-1.421l-4.79-4.791a1,1,0,0,0-1.421,1.421Z" transform="translate(-68.081 -61.118)"/>
        <path id="Trazado_993127" data-name="Trazado 993127" d="M14.743,240.953H7.968a1,1,0,1,0,0,2.01h6.775a1,1,0,0,0,0-2.01Z" transform="translate(-6.963 -208.67)"/>
        <path id="Trazado_993128" data-name="Trazado 993128" d="M82.621,375.874l-4.79,4.79a1,1,0,0,0,1.421,1.421l4.79-4.79a1,1,0,0,0-1.421-1.421Z" transform="translate(-68.081 -325.259)"/>
        <path id="Trazado_993129" data-name="Trazado 993129" d="M384.258,375.873a1,1,0,0,0-1.421,1.421l4.79,4.79a1,1,0,0,0,1.421-1.421Z" transform="translate(-332.221 -325.258)"/>
        <path id="Trazado_993130" data-name="Trazado 993130" d="M446.086,240.953h-6.775a1,1,0,0,0,0,2.01h6.775a1,1,0,0,0,0-2.01Z" transform="translate(-380.514 -208.67)"/>
        <path id="Trazado_993131" data-name="Trazado 993131" d="M387.627,70.868l-4.79,4.791a1,1,0,0,0,1.421,1.421l4.79-4.791a1,1,0,1,0-1.421-1.421Z" transform="translate(-332.221 -61.118)"/>
        <path id="Trazado_993132" data-name="Trazado 993132" d="M146.957,103.137A20.018,20.018,0,0,0,127.106,83a19.577,19.577,0,0,0-10.762,3.213,20.093,20.093,0,0,0-7.191,8.321,1,1,0,1,0,1.821.85,17.8,17.8,0,0,1,33.973,7.753,18.182,18.182,0,0,1-5.051,12.638c-1.878,1.961-3.476,3.834-3.887,6.46H118.466c-.518-2.725-2.377-4.637-4.048-6.354a18.167,18.167,0,0,1-5.153-12.744,18.566,18.566,0,0,1,.337-3.525,1,1,0,1,0-1.973-.383,20.569,20.569,0,0,0-.374,3.908,20.166,20.166,0,0,0,5.723,14.145c2.119,2.178,3.62,3.917,3.62,6.465,0,.009,0,.018,0,.027l.058,5.9a5.294,5.294,0,0,0,2.546,4.522V135.3a5.03,5.03,0,0,0,5.024,5.024h6.163a5.03,5.03,0,0,0,5.024-5.024v-1.105a5.294,5.294,0,0,0,2.546-4.522s-.007-6.569-.02-6.634c.191-2.329,1.6-3.984,3.409-5.872A20.184,20.184,0,0,0,146.957,103.137ZM133.4,135.3a3.018,3.018,0,0,1-3.015,3.015h-6.163a3.018,3.018,0,0,1-3.015-3.015v-.387a5.306,5.306,0,0,0,.737.052h10.719a5.329,5.329,0,0,0,.737-.052Zm-.737-2.345H121.948a3.286,3.286,0,0,1-3.283-3.283V129.6h10.183a1,1,0,0,0,0-2.01H118.665v-3.35h17.253l.031,3.35h-2.412a1,1,0,0,0,0,2.01h2.412v.067A3.286,3.286,0,0,1,132.666,132.953Z" transform="translate(-93.818 -71.879)"/>
        <path id="Trazado_993133" data-name="Trazado 993133" d="M192.234,192.155a1,1,0,1,0,1.587,1.232l1.989-2.562a3.216,3.216,0,0,0-5.08-3.944l-6.49,8.358-3.725-4.121a3.216,3.216,0,0,0-4.771,4.313l6.3,6.967a3.236,3.236,0,0,0,4.925-.184l3.977-5.122a1,1,0,1,0-1.587-1.232l-3.977,5.122a1.213,1.213,0,0,1-1.847.069l-6.3-6.967a1.206,1.206,0,1,1,1.789-1.617l4.529,5.01a1.012,1.012,0,0,0,1.539-.058l7.225-9.305a1.206,1.206,0,1,1,1.9,1.479Z" transform="translate(-152.412 -160.765)"/>
      </g>
    </g>
  </g>
</svg>
