<svg xmlns="http://www.w3.org/2000/svg" xmlns:xlink="http://www.w3.org/1999/xlink" width="108" height="108" viewBox="0 0 108 108">
  <defs>
    <filter id="Trazado_904820" x="0" y="0" width="108" height="108" filterUnits="userSpaceOnUse">
      <feOffset dy="3" input="SourceAlpha"/>
      <feGaussianBlur stdDeviation="3" result="blur"/>
      <feFlood flood-opacity="0.161"/>
      <feComposite operator="in" in2="blur"/>
      <feComposite in="SourceGraphic"/>
    </filter>
  </defs>
  <g id="Grupo_1164215" data-name="Grupo 1164215" transform="translate(-200 -314)">
    <g id="Grupo_1160148" data-name="Grupo 1160148" transform="translate(209 320)">
      <g id="Icono">
        <g transform="matrix(1, 0, 0, 1, -9, -6)" filter="url(#Trazado_904820)">
          <g id="Trazado_904820-2" data-name="Trazado 904820" transform="translate(9 6)" fill="#ebfefd">
            <path d="M 45 88.5 C 39.12687683105469 88.5 33.43022537231445 87.35007476806641 28.06830024719238 85.08217620849609 C 22.88852500915527 82.89131164550781 18.23629951477051 79.75458526611328 14.2408504486084 75.75914764404297 C 10.24541282653809 71.76370239257812 7.108687400817871 67.11147308349609 4.917825222015381 61.93170166015625 C 2.649924993515015 56.56977462768555 1.5 50.87312316894531 1.5 45 C 1.5 39.12687683105469 2.649924993515015 33.43022537231445 4.917825222015381 28.06830024719238 C 7.108687400817871 22.88852500915527 10.24541282653809 18.23629951477051 14.2408504486084 14.2408504486084 C 18.23629951477051 10.24541282653809 22.88852500915527 7.108687400817871 28.06830024719238 4.917825222015381 C 33.43022537231445 2.649924993515015 39.12687683105469 1.5 45 1.5 C 50.87312316894531 1.5 56.56977462768555 2.649924993515015 61.93170166015625 4.917825222015381 C 67.11147308349609 7.108687400817871 71.76370239257812 10.24541282653809 75.75914764404297 14.2408504486084 C 79.75458526611328 18.23629951477051 82.89131164550781 22.88852500915527 85.08217620849609 28.06830024719238 C 87.35007476806641 33.43022537231445 88.5 39.12687683105469 88.5 45 C 88.5 50.87312316894531 87.35007476806641 56.56977462768555 85.08217620849609 61.93170166015625 C 82.89131164550781 67.11147308349609 79.75458526611328 71.76370239257812 75.75914764404297 75.75914764404297 C 71.76370239257812 79.75458526611328 67.11147308349609 82.89131164550781 61.93170166015625 85.08217620849609 C 56.56977462768555 87.35007476806641 50.87312316894531 88.5 45 88.5 Z" stroke="none"/>
            <path d="M 45 3 C 39.32871246337891 3 33.82865524291992 4.110054016113281 28.65262985229492 6.299339294433594 C 23.65165710449219 8.414573669433594 19.15968322753906 11.44334411621094 15.301513671875 15.301513671875 C 11.44334411621094 19.15968322753906 8.414573669433594 23.65165710449219 6.299339294433594 28.65262985229492 C 4.110054016113281 33.82865524291992 3 39.32871246337891 3 45 C 3 50.67128753662109 4.110054016113281 56.17134475708008 6.299339294433594 61.34737396240234 C 8.414573669433594 66.34834289550781 11.44334411621094 70.84031677246094 15.301513671875 74.698486328125 C 19.15968322753906 78.55665588378906 23.65165710449219 81.58542633056641 28.65262985229492 83.70066070556641 C 33.82865524291992 85.88994598388672 39.32871246337891 87 45 87 C 50.67128753662109 87 56.17134475708008 85.88994598388672 61.34737396240234 83.70066070556641 C 66.34834289550781 81.58542633056641 70.84031677246094 78.55665588378906 74.698486328125 74.698486328125 C 78.55665588378906 70.84031677246094 81.58542633056641 66.34834289550781 83.70066070556641 61.34737396240234 C 85.88994598388672 56.17134475708008 87 50.67128753662109 87 45 C 87 39.32871246337891 85.88994598388672 33.82865524291992 83.70066070556641 28.65262985229492 C 81.58542633056641 23.65165710449219 78.55665588378906 19.15968322753906 74.698486328125 15.301513671875 C 70.84031677246094 11.44334411621094 66.34834289550781 8.414573669433594 61.34737396240234 6.299339294433594 C 56.17134475708008 4.110054016113281 50.67128753662109 3 45 3 M 45 0 C 69.85281372070312 0 90 20.14718627929688 90 45 C 90 69.85281372070312 69.85281372070312 90 45 90 C 20.14718627929688 90 0 69.85281372070312 0 45 C 0 20.14718627929688 20.14718627929688 0 45 0 Z" stroke="none" fill="#79c9e0"/>
          </g>
        </g>
      </g>
    </g>
    <g id="Layer_x0020_1" transform="translate(226.403 333.438)">
      <path id="Trazado_998923" data-name="Trazado 998923" d="M36.171,8.885H3.861A3.75,3.75,0,0,1,.116,5.14V2.135a.74.74,0,0,1,.74-.74H34.149a.74.74,0,0,1,0,1.48H1.6V5.14A2.268,2.268,0,0,0,3.862,7.4H36.171a.74.74,0,0,1,0,1.48Z" transform="translate(0.204 50.199)" fill-rule="evenodd"/>
      <path id="Trazado_998924" data-name="Trazado 998924" d="M12.3,5.749H1.274a.74.74,0,0,1-.74-.74V2.135a.74.74,0,0,1,.74-.74H12.3a.74.74,0,0,1,.74.74V5.009a.741.741,0,0,1-.74.74ZM2.014,4.269h9.543V2.875H2.014Z" transform="translate(15.271 50.199)" fill-rule="evenodd"/>
      <path id="Trazado_998925" data-name="Trazado 998925" d="M6.861,13.793a6.751,6.751,0,1,1,6.751-6.751A6.758,6.758,0,0,1,6.861,13.793Zm0-12.022a5.272,5.272,0,1,0,5.272,5.272A5.278,5.278,0,0,0,6.861,1.771Z" transform="translate(0 10.46)" fill-rule="evenodd"/>
      <path id="Trazado_998926" data-name="Trazado 998926" d="M5.6,6.7A6.72,6.72,0,0,1,.306,4.141a.74.74,0,0,1-.026-.885,6.492,6.492,0,0,1,10.636,0,.739.739,0,0,1-.026.885A6.721,6.721,0,0,1,5.6,6.7ZM1.848,3.654A5.243,5.243,0,0,0,5.6,5.22,5.243,5.243,0,0,0,9.347,3.654a5.011,5.011,0,0,0-7.5,0Z" transform="translate(1.264 17.554)" fill-rule="evenodd"/>
      <path id="Trazado_998927" data-name="Trazado 998927" d="M3.227,6.4A3.016,3.016,0,1,1,6.243,3.381,3.019,3.019,0,0,1,3.227,6.4Zm0-4.552A1.537,1.537,0,1,0,4.764,3.381,1.539,1.539,0,0,0,3.227,1.844Z" transform="translate(3.634 13.125)" fill-rule="evenodd"/>
      <path id="Trazado_998928" data-name="Trazado 998928" d="M7.455,13.133a6.193,6.193,0,1,1,6.193-6.194,6.2,6.2,0,0,1-6.193,6.194Zm0-10.907a4.713,4.713,0,1,0,4.713,4.713A4.719,4.719,0,0,0,7.455,2.226Z" transform="translate(41.436 26.865)" fill-rule="evenodd"/>
      <path id="Trazado_998929" data-name="Trazado 998929" d="M3,7.74A1.632,1.632,0,0,1,1.358,6.1V2.462A1.642,1.642,0,0,1,3.819,1.039l3.15,1.818a1.644,1.644,0,0,1,0,2.845L3.819,7.52A1.64,1.64,0,0,1,3,7.74ZM3,2.3a.161.161,0,0,0-.162.169V6.1A.162.162,0,0,0,3,6.26a.152.152,0,0,0,.078-.022L6.229,4.42a.164.164,0,0,0,0-.282L3.08,2.321A.156.156,0,0,0,3,2.3Z" transform="translate(44.895 29.524)" fill-rule="evenodd"/>
      <path id="Trazado_998930" data-name="Trazado 998930" d="M13.48,16.533a.737.737,0,0,1-.357-.092l-3.6-1.982A7.192,7.192,0,0,1,1.2,7.361a7.188,7.188,0,1,1,13.11,4.073l-.088,4.374a.741.741,0,0,1-.739.725ZM9.65,12.945a.737.737,0,0,1,.357.092l2.758,1.519.068-3.38a.741.741,0,0,1,.144-.425A5.707,5.707,0,1,0,8.385,13.07a5.767,5.767,0,0,0,1.121-.11.708.708,0,0,1,.145-.015Z" transform="translate(39.109 6.26)" fill-rule="evenodd"/>
      <path id="Trazado_998931" data-name="Trazado 998931" d="M8.2,1.816H2.027a.74.74,0,0,1,0-1.479H8.2a.74.74,0,0,1,0,1.479Z" transform="translate(42.38 12.118)" fill-rule="evenodd"/>
      <path id="Trazado_998932" data-name="Trazado 998932" d="M8.2,1.9H2.027a.74.74,0,1,1,0-1.479H8.2A.74.74,0,0,1,8.2,1.9Z" transform="translate(42.379 15.012)" fill-rule="evenodd"/>
      <path id="Trazado_998933" data-name="Trazado 998933" d="M6.179,1.748H2.062a.74.74,0,1,1,0-1.48H6.179a.74.74,0,0,1,0,1.48Z" transform="translate(43.607 9.66)" fill-rule="evenodd"/>
      <path id="Trazado_998934" data-name="Trazado 998934" d="M20.083,13.638,13.96,3.032a.731.731,0,0,0-1.265.731l2.134,3.7a.74.74,0,1,1-1.282.74L11.406,4.49a.731.731,0,0,0-1.258.743l2.134,3.7A.74.74,0,0,1,11,9.67L8.857,5.958A.731.731,0,0,0,7.6,6.7l2.134,3.7a.74.74,0,0,1-1.282.74L3.734,2.966A.731.731,0,0,0,2.468,3.7c1.023,1.774,4.347,7.728,5.3,9.007a.741.741,0,0,1-.844,1.155C4.763,13.086,3.4,12.63,3,12.895c.005.007-.119.764,1.276,1.6L8.8,17.409a9.683,9.683,0,0,0,4.766,1.3.739.739,0,0,1,.617.37l1.542,2.67a.74.74,0,0,1-1.282.741L13.1,20.164A10.787,10.787,0,0,1,7.98,18.641L3.511,15.767a3.979,3.979,0,0,1-1.972-2.515,1.553,1.553,0,0,1,.537-1.515c.747-.586,1.982-.406,3.333.014L1.187,4.437a2.21,2.21,0,0,1,3.828-2.21L6.557,4.9a2.207,2.207,0,0,1,2.126-.721,2.207,2.207,0,0,1,2.547-1.47,2.211,2.211,0,0,1,4.011-.414l6.107,10.577a2.973,2.973,0,0,1,.3,2.314L22.9,17.356a.74.74,0,0,1-1.281.74l-1.435-2.486c-.362-.627.465-1.027-.1-1.973Z" transform="translate(27.907 40.267)" fill-rule="evenodd"/>
      <path id="Trazado_998935" data-name="Trazado 998935" d="M4.858,3.7A5.266,5.266,0,0,0,7.687,2.213a5.011,5.011,0,0,0-7.5,0A5.267,5.267,0,0,0,3.025,3.7a5.321,5.321,0,0,0,.915.079,5.32,5.32,0,0,0,.877-.072L4.858,3.7Z" transform="translate(2.922 18.994)" fill="#8dbd57" fill-rule="evenodd"/>
      <path id="Trazado_998936" data-name="Trazado 998936" d="M1.788,3.478A1.537,1.537,0,1,0,.251,1.941,1.538,1.538,0,0,0,1.788,3.478Z" transform="translate(5.074 14.564)" fill="#ffe5c1" fill-rule="evenodd"/>
      <path id="Trazado_998937" data-name="Trazado 998937" d="M5.422,1.589A3.014,3.014,0,0,1,7.716,6.562,6.509,6.509,0,0,1,10.065,8.1,5.271,5.271,0,1,0,.15,5.6,5.239,5.239,0,0,0,.779,8.1,6.508,6.508,0,0,1,3.128,6.561,3.014,3.014,0,0,1,5.422,1.589Z" transform="translate(1.439 11.9)" fill="#ffe5c1" fill-rule="evenodd"/>
      <path id="Trazado_998938" data-name="Trazado 998938" d="M23.253,25.136h0ZM6.9,2.6A2.879,2.879,0,0,1,7.041.735H2.583A2.356,2.356,0,0,0,.23,3.089V25.136H28.757L27.68,23.27H2.835a.74.74,0,0,1-.74-.74V3.341a.74.74,0,0,1,.74-.74H6.9Z" transform="translate(4.315 26.458)" fill="#7a7a7a" fill-rule="evenodd"/>
      <path id="Trazado_998939" data-name="Trazado 998939" d="M14.9,4.309a.74.74,0,0,1-.74-.74V1.435H.156V3.7A2.268,2.268,0,0,0,2.422,5.965H32.214L29.774,4.4A3.979,3.979,0,0,1,27.8,1.881a2.228,2.228,0,0,1-.013-.446H26.663V3.57a.741.741,0,0,1-.74.74H14.9Z" transform="translate(1.644 51.638)" fill="#5e5d5d" fill-rule="evenodd"/>
      <path id="Trazado_998940" data-name="Trazado 998940" d="M.575,2.83h9.543V1.435H.575Z" transform="translate(16.711 51.638)" fill="#545353" fill-rule="evenodd"/>
      <path id="Trazado_998941" data-name="Trazado 998941" d="M1.4,1.029V4.658a.162.162,0,0,0,.165.162A.152.152,0,0,0,1.64,4.8L4.789,2.98a.164.164,0,0,0,0-.282L1.64.881A.156.156,0,0,0,1.559.86a.161.161,0,0,0-.162.169Z" transform="translate(46.335 30.964)" fill="#ffe470" fill-rule="evenodd"/>
      <path id="Trazado_998942" data-name="Trazado 998942" d="M5.837,2.259l3.15,1.818a1.644,1.644,0,0,1,0,2.845L5.838,8.741A1.641,1.641,0,0,1,3.377,7.324V3.682A1.642,1.642,0,0,1,5.837,2.259ZM1.3,5.5A4.713,4.713,0,1,0,6.015.787,4.719,4.719,0,0,0,1.3,5.5Z" transform="translate(42.877 28.304)" fill="#eb5468" fill-rule="evenodd"/>
      <path id="Trazado_998943" data-name="Trazado 998943" d="M14.343,20.409l6.066-3.5a.776.776,0,0,1-.225-.252l-1.435-2.486c-.362-.627.465-1.027-.1-1.973L12.526,1.591a.731.731,0,0,0-1.265.731l2.134,3.7a.74.74,0,1,1-1.282.74L9.972,3.049a.731.731,0,0,0-1.258.743l2.134,3.7a.74.74,0,0,1-1.282.739L7.424,4.517a.778.778,0,0,0-.147-.182.739.739,0,0,1-.144-.1.741.741,0,0,0-.965,1.028L8.3,8.96A.74.74,0,0,1,7.02,9.7L2.3,1.525a.731.731,0,0,0-1.266.732c.494.857,1.525,2.689,2.567,4.5a.74.74,0,0,1,.2.339c1.049,1.816,2.075,3.546,2.539,4.169a.741.741,0,0,1-.844,1.155c-2.163-.773-3.525-1.229-3.928-.965.005.007-.119.764,1.276,1.6l4.526,2.91a9.683,9.683,0,0,0,4.766,1.295.739.739,0,0,1,.617.37L14.29,20.3a.888.888,0,0,1,.053.106Z" transform="translate(29.341 41.708)" fill="#ffc6b9" fill-rule="evenodd"/>
      <path id="Trazado_998944" data-name="Trazado 998944" d="M3.857,7.729h6.176a.74.74,0,1,1,0,1.479H3.857a.74.74,0,1,1,0-1.479ZM1.237,5.922a5.713,5.713,0,0,0,6.829,5.6A.708.708,0,0,1,8.21,11.5a.737.737,0,0,1,.357.092l2.758,1.519.068-3.38a.741.741,0,0,1,.144-.425,5.708,5.708,0,1,0-10.3-3.389Zm8.8.312H3.858a.74.74,0,0,1,0-1.479h6.176a.74.74,0,0,1,0,1.479Zm-.8-2.526H4.654a.74.74,0,1,1,0-1.48H9.236a.74.74,0,0,1,0,1.48Z" transform="translate(40.549 7.7)" fill="#1ab193" fill-rule="evenodd"/>
      <path id="Trazado_998945" data-name="Trazado 998945" d="M31.478,28.055H.93a.74.74,0,0,1-.74-.74V4.528A3.837,3.837,0,0,1,4.023.7H10.09a.74.74,0,0,1,.368,1.381,1.412,1.412,0,0,0-.682.868A1.389,1.389,0,0,0,9.914,4L11.441,6.65a1.429,1.429,0,0,0,1.943.52l4.544-2.623-.595-1.031a.74.74,0,0,1,1.281-.74l.727,1.26L29.615,3.06l-.724-1.254A.74.74,0,0,1,29.531.7h4.78a3.867,3.867,0,0,1,3.862,3.862V17.494a.74.74,0,0,1-1.479,0V4.557a2.385,2.385,0,0,0-2.382-2.382h-3.5l.66,1.142A.739.739,0,0,1,30.9,4.423L19.169,5.538,14.124,8.451A2.908,2.908,0,0,1,10.16,7.389L8.633,4.744a2.853,2.853,0,0,1-.285-2.182,2.94,2.94,0,0,1,.133-.387H4.023A2.356,2.356,0,0,0,1.67,4.528V26.575H31.479a.74.74,0,0,1,0,1.48Z" transform="translate(2.875 25.019)" fill-rule="evenodd"/>
      <path id="Trazado_998946" data-name="Trazado 998946" d="M26.292,21.455H1.02a.74.74,0,0,1-.74-.74V1.525a.74.74,0,0,1,.74-.74H6.252a.739.739,0,0,1,.641.37L8.186,3.395a1.428,1.428,0,0,0,1.943.521l5.019-2.9a.709.709,0,0,1,.514-.232H30.832a.74.74,0,0,1,.74.74V17.114a.74.74,0,0,1-1.48,0V2.265H15.947L10.869,5.2A2.908,2.908,0,0,1,6.9,4.135L5.825,2.266H1.759V19.975H26.292a.74.74,0,0,1,0,1.479Z" transform="translate(6.13 28.273)" fill-rule="evenodd"/>
      <path id="Trazado_998947" data-name="Trazado 998947" d="M4.292,2.6a.74.74,0,0,1,.74.74V16.7a2.2,2.2,0,0,1,1.435-.185,2.214,2.214,0,0,1,.433-.767V3.118A2.385,2.385,0,0,0,4.516.735h-3.5l.66,1.142a.739.739,0,0,1,.017.709L1.686,2.6H4.292Z" transform="translate(32.67 26.458)" fill="#7a7a7a" fill-rule="evenodd"/>
      <path id="Trazado_998948" data-name="Trazado 998948" d="M4.839,11.743A2.915,2.915,0,0,1,2.32,10.294L.793,7.648A2.879,2.879,0,0,1,1.846,3.72L7.052.714a.74.74,0,0,1,1.01.271L11.74,7.352a.74.74,0,0,1-.271,1.011L6.284,11.356a2.9,2.9,0,0,1-1.445.387ZM7.152,2.364,2.585,5a1.4,1.4,0,0,0-.512,1.908L3.6,9.554a1.431,1.431,0,0,0,1.238.709,1.41,1.41,0,0,0,.705-.189l4.544-2.623L7.152,2.364Z" transform="translate(10.714 22.115)" fill-rule="evenodd"/>
      <path id="Trazado_998949" data-name="Trazado 998949" d="M4.994,17.933a.739.739,0,0,1-.641-.37L.677,11.195a.739.739,0,0,1,.038-.8L7.641.662A.74.74,0,0,1,8.884.721l8.643,14.971a.739.739,0,0,1-.571,1.106L5.064,17.929a.56.56,0,0,1-.07,0ZM2.2,10.867l3.2,5.545,10.273-.978L8.179,2.458,2.2,10.867Z" transform="translate(16.819 12.643)" fill-rule="evenodd"/>
      <path id="Trazado_998950" data-name="Trazado 998950" d="M5.175,8.632a.738.738,0,0,1-.641-.37l-3.6-6.24a.74.74,0,0,1,.28-1.016,4.343,4.343,0,0,1,4.342,7.52.742.742,0,0,1-.38.105ZM2.64,2.021,5.39,6.784A2.862,2.862,0,0,0,2.64,2.021Z" transform="translate(26.01 16.447)" fill-rule="evenodd"/>
      <path id="Trazado_998951" data-name="Trazado 998951" d="M7.777,11.559a.74.74,0,0,1-.542-.237l-6.5-7A.739.739,0,0,1,.907,3.177L4.842.905a.74.74,0,0,1,.912.137l6.5,7a.739.739,0,0,1-.172,1.144L8.146,11.459a.73.73,0,0,1-.369.1ZM2.45,3.994,7.918,9.883l2.621-1.513L5.071,2.482,2.45,3.994Z" transform="translate(15.352 29.011)" fill-rule="evenodd"/>
      <path id="Trazado_998952" data-name="Trazado 998952" d="M1.77,4.1a.74.74,0,0,1-.37-1.38L5.22.512a.74.74,0,0,1,.74,1.281L2.139,4a.734.734,0,0,1-.369.1Z" transform="translate(33.082 14.841)" fill-rule="evenodd"/>
      <path id="Trazado_998953" data-name="Trazado 998953" d="M1.732,6.032a.751.751,0,0,1-.192-.025A.74.74,0,0,1,1.017,5.1L2.159.839a.74.74,0,1,1,1.429.383L2.446,5.483a.739.739,0,0,1-.714.549Z" transform="translate(31.702 10.451)" fill-rule="evenodd"/>
      <path id="Trazado_998954" data-name="Trazado 998954" d="M6.07,3.16a.752.752,0,0,1-.192-.025L1.616,1.993A.74.74,0,0,1,2,.564L6.261,1.706A.74.74,0,0,1,6.07,3.16Z" transform="translate(34.462 19.377)" fill-rule="evenodd"/>
      <path id="Trazado_998955" data-name="Trazado 998955" d="M2.514,1.748H2.049a.74.74,0,1,1,0-1.48h.465a.74.74,0,0,1,0,1.48Z" transform="translate(43.155 9.66)" fill-rule="evenodd"/>
      <path id="Trazado_998956" data-name="Trazado 998956" d="M5.205,13.107a.74.74,0,0,1-.637-.364l-1.3-2.2H2.677A2.238,2.238,0,0,1,.442,8.3V2.235A2.238,2.238,0,0,1,2.677,0h21.3a2.238,2.238,0,0,1,2.236,2.235V8.3a2.238,2.238,0,0,1-2.236,2.236H7.144l-1.3,2.2a.74.74,0,0,1-.637.363ZM2.678,1.479a.757.757,0,0,0-.756.756V8.3a.757.757,0,0,0,.756.756h1.01a.74.74,0,0,1,.637.364l.88,1.49.88-1.49a.74.74,0,0,1,.637-.364H23.976a.756.756,0,0,0,.756-.756V2.235a.756.756,0,0,0-.756-.756H2.678Z" transform="translate(11.941)" fill-rule="evenodd"/>
      <path id="Trazado_998957" data-name="Trazado 998957" d="M5.374,6.4a.738.738,0,0,1-.348-.087L3.794,5.656l-1.232.657a.739.739,0,0,1-1.076-.782L1.73,4.156.724,3.187a.739.739,0,0,1,.411-1.265l1.383-.193L3.129.473a.74.74,0,0,1,1.33,0L5.07,1.729l1.383.193a.739.739,0,0,1,.411,1.265l-1.006.969L6.1,5.531a.739.739,0,0,1-.728.869ZM3.793,4.078a.737.737,0,0,1,.348.087l.238.127-.047-.266a.74.74,0,0,1,.215-.662l.194-.187-.268-.037a.74.74,0,0,1-.563-.409l-.118-.243-.118.243a.739.739,0,0,1-.563.409l-.268.037.194.187a.741.741,0,0,1,.215.662l-.047.266.238-.127a.742.742,0,0,1,.349-.087Z" transform="translate(13.925 2.041)" fill-rule="evenodd"/>
      <path id="Trazado_998958" data-name="Trazado 998958" d="M5.578,6.4a.739.739,0,0,1-.348-.087L4,5.656l-1.232.657A.739.739,0,0,1,1.69,5.531l.244-1.375L.928,3.187a.739.739,0,0,1,.411-1.265l1.383-.193L3.333.473a.74.74,0,0,1,1.33,0l.611,1.256,1.383.193a.74.74,0,0,1,.411,1.265l-1.005.969.244,1.375a.738.738,0,0,1-.728.869ZM4,4.078a.737.737,0,0,1,.348.087l.238.127-.047-.266a.741.741,0,0,1,.215-.662l.195-.188-.268-.037a.741.741,0,0,1-.563-.409L4,2.487,3.88,2.73a.74.74,0,0,1-.563.409l-.267.037.194.188a.741.741,0,0,1,.215.662l-.047.266.238-.127A.734.734,0,0,1,4,4.078Z" transform="translate(21.27 2.041)" fill-rule="evenodd"/>
      <path id="Trazado_998959" data-name="Trazado 998959" d="M5.782,6.4a.742.742,0,0,1-.348-.087L4.2,5.656,2.97,6.312a.739.739,0,0,1-1.076-.782l.244-1.375L1.132,3.187a.74.74,0,0,1,.411-1.265l1.383-.193L3.537.473a.74.74,0,0,1,1.33,0l.61,1.256,1.383.193a.74.74,0,0,1,.411,1.265l-1.006.969L6.51,5.531a.738.738,0,0,1-.728.869ZM3.253,3.176l.194.187a.739.739,0,0,1,.215.662l-.047.266.238-.127a.736.736,0,0,1,.7,0l.238.127L4.74,4.025a.739.739,0,0,1,.215-.662l.194-.187-.268-.038a.74.74,0,0,1-.563-.409L4.2,2.487l-.118.243a.739.739,0,0,1-.563.409l-.267.038Z" transform="translate(28.616 2.041)" fill-rule="evenodd"/>
      <path id="Trazado_998960" data-name="Trazado 998960" d="M15.988,2.626H14.312a.74.74,0,0,1,0-1.48h1.676a.74.74,0,0,1,0,1.48Zm-4.847,0H1.162a.74.74,0,0,1,0-1.48h9.979a.74.74,0,0,1,0,1.48Z" transform="translate(11.231 41.244)" fill-rule="evenodd"/>
      <path id="Trazado_998961" data-name="Trazado 998961" d="M15.988,2.7H6.009a.74.74,0,0,1,0-1.479h9.979a.74.74,0,0,1,0,1.479Zm-13.15,0H1.162a.74.74,0,1,1,0-1.479H2.838a.74.74,0,1,1,0,1.479Z" transform="translate(11.231 43.845)" fill-rule="evenodd"/>
      <g id="Grupo_1164235" data-name="Grupo 1164235" transform="translate(16.769 4.528)">
        <path id="Trazado_998962" data-name="Trazado 998962" d="M.755,1a.741.741,0,0,1,.215.662l-.047.266L1.161,1.8a.742.742,0,0,1,.7,0l.238.127-.047-.266A.74.74,0,0,1,2.264,1L2.458.811,2.191.774A.74.74,0,0,1,1.628.365L1.509.123,1.391.365A.739.739,0,0,1,.828.774L.561.811.755,1Z" transform="translate(-0.561 -0.123)" fill="#ffe8b2" fill-rule="evenodd"/>
        <path id="Trazado_998963" data-name="Trazado 998963" d="M.765.811.959,1a.741.741,0,0,1,.215.662l-.047.266L1.365,1.8a.739.739,0,0,1,.7,0l.238.127-.047-.266A.741.741,0,0,1,2.467,1L2.662.811,2.394.774A.741.741,0,0,1,1.831.365L1.713.123,1.595.365a.74.74,0,0,1-.563.409L.765.811Z" transform="translate(6.786 -0.122)" fill="#ffe8b2" fill-rule="evenodd"/>
        <path id="Trazado_998964" data-name="Trazado 998964" d="M.969.812,1.163,1a.739.739,0,0,1,.215.662l-.047.266L1.57,1.8a.736.736,0,0,1,.7,0l.238.127-.047-.266A.739.739,0,0,1,2.672,1L2.866.812,2.6.774A.74.74,0,0,1,2.035.365L1.917.123,1.8.365a.739.739,0,0,1-.563.409L.969.812Z" transform="translate(14.132 -0.122)" fill="#ffe8b2" fill-rule="evenodd"/>
      </g>
      <path id="Trazado_998965" data-name="Trazado 998965" d="M17.373,4.758l-1.006-.969a.74.74,0,0,1,.411-1.265l1.383-.193.611-1.256a.74.74,0,0,1,1.33,0l.61,1.256,1.383.193a.74.74,0,0,1,.411,1.265L21.5,4.758l.244,1.375a.74.74,0,0,1-1.077.782l-1.232-.657L18.2,6.915a.739.739,0,0,1-1.076-.782l.244-1.375Zm-3.421,0L14.2,6.133a.74.74,0,0,1-1.076.782l-1.232-.657-1.232.657a.739.739,0,0,1-1.076-.782l.244-1.375L8.817,3.788a.739.739,0,0,1,.411-1.265l1.383-.193.611-1.256a.74.74,0,0,1,1.33,0l.611,1.256,1.383.193a.74.74,0,0,1,.411,1.265l-1.005.969ZM5.282,7.62H22.536a.756.756,0,0,0,.756-.756V.8a.756.756,0,0,0-.756-.756H1.238A.757.757,0,0,0,.482.8V6.864a.757.757,0,0,0,.756.756h1.01a.74.74,0,0,1,.637.364l.88,1.49.88-1.49a.74.74,0,0,1,.637-.364Zm1.07-.759a.741.741,0,0,1-.782.054L4.337,6.258l-1.232.657a.739.739,0,0,1-1.076-.782l.244-1.375L1.267,3.788a.739.739,0,0,1,.411-1.265l1.383-.193.611-1.256a.74.74,0,0,1,1.33,0l.611,1.256L7,2.523a.739.739,0,0,1,.411,1.265L6.4,4.758l.244,1.375a.741.741,0,0,1-.293.728Z" transform="translate(13.381 1.439)" fill="#ffbe61" fill-rule="evenodd"/>
      <path id="Trazado_998966" data-name="Trazado 998966" d="M4.1,8.376l.007,0Zm3.948-3.67L5.711.662,1.2,3.267l-.019.011-.034.02A1.4,1.4,0,0,0,.633,5.206l.235.406L2.16,7.851a1.414,1.414,0,0,0,.865.661,1.429,1.429,0,0,0,.374.049,1.409,1.409,0,0,0,.7-.185l.007,0L8.04,6.1l.608-.351-.6-1.031-.007-.013Z" transform="translate(12.155 23.817)" fill="#ff4974" fill-rule="evenodd"/>
      <path id="Trazado_998967" data-name="Trazado 998967" d="M3.21.851.589,2.364,6.056,8.253,8.678,6.74Z" transform="translate(17.213 30.642)" fill="#fe6a8d" fill-rule="evenodd"/>
      <path id="Trazado_998968" data-name="Trazado 998968" d="M3.823,14.362,14.1,13.385l-1.934-3.349-.011-.018-3.6-6.24-.008-.014L6.6.408.621,8.817l3.2,5.545Z" transform="translate(18.393 14.693)" fill="#ececff" fill-rule="evenodd"/>
      <path id="Trazado_998969" data-name="Trazado 998969" d="M.882.581l2.75,4.763A2.863,2.863,0,0,0,1.566.5,2.855,2.855,0,0,0,.882.581Z" transform="translate(27.768 17.887)" fill="#ff4974" fill-rule="evenodd"/>
      <path id="Trazado_998970" data-name="Trazado 998970" d="M28.654.826H14.671l-.193.018h0l-.306.177,5.868,6.321a.739.739,0,0,1-.172,1.144L15.93,10.758a.73.73,0,0,1-.369.1.74.74,0,0,1-.542-.237L8.876,4.005A2.914,2.914,0,0,1,5.495,2.744L5.466,2.7,4.386.826H.321V18.536H23.572l-2.047-3.545a2.21,2.21,0,0,1,3.828-2.21L26.9,15.451a2.206,2.206,0,0,1,1.758-.766V.826Zm-9,11.851a.74.74,0,0,1,0,1.48H17.975a.74.74,0,0,1,0-1.48Zm-9.98,2.674H19.65a.74.74,0,0,1,0,1.479H9.671a.74.74,0,1,1,0-1.479ZM4.824,12.677H14.8a.74.74,0,0,1,0,1.48H4.824a.74.74,0,0,1,0-1.48ZM7.24,16.091a.74.74,0,0,1-.74.74H4.824a.74.74,0,1,1,0-1.479H6.5A.74.74,0,0,1,7.24,16.091Z" transform="translate(7.569 29.713)" fill="#ffffe6" fill-rule="evenodd"/>
    </g>
  </g>
</svg>
