<svg xmlns="http://www.w3.org/2000/svg" width="34.997" height="31.503" viewBox="0 0 34.997 31.503">
  <g id="cross-platform_10435216" transform="translate(-7 -32.539)">
    <path id="Trazado_998770" data-name="Trazado 998770" d="M436.88,100.131h2.236a1.025,1.025,0,0,1,1.025,1.026l-.009,18.743" transform="translate(-400.008 -62.503)" fill="none" stroke="#000" stroke-linecap="round" stroke-linejoin="round" stroke-miterlimit="10" stroke-width="1"/>
    <line id="Línea_1962" data-name="Línea 1962" x1="2.272" y1="0.001" transform="translate(32.205 37.626)" fill="none" stroke="#000" stroke-linecap="round" stroke-linejoin="round" stroke-miterlimit="10" stroke-width="1"/>
    <line id="Línea_1963" data-name="Línea 1963" y1="4.662" x2="0.002" transform="translate(8.863 52.723)" fill="none" stroke="#000" stroke-linecap="round" stroke-linejoin="round" stroke-miterlimit="10" stroke-width="1"/>
    <path id="Trazado_998771" data-name="Trazado 998771" d="M11.419,392.787H9.552A2.052,2.052,0,0,1,7.5,390.735a.684.684,0,0,1,.684-.684H26.314" transform="translate(0 -332.59)" fill="none" stroke="#000" stroke-linecap="round" stroke-linejoin="round" stroke-miterlimit="10" stroke-width="1"/>
    <line id="Línea_1964" data-name="Línea 1964" x1="12.5" transform="translate(13.813 60.197)" fill="none" stroke="#000" stroke-linecap="round" stroke-linejoin="round" stroke-miterlimit="10" stroke-width="1"/>
    <path id="Trazado_998772" data-name="Trazado 998772" d="M452.064,390.047h2.9a.684.684,0,0,1,.684.684h0a2.052,2.052,0,0,1-2.052,2.052h-1.517" transform="translate(-414.154 -332.587)" fill="none" stroke="#000" stroke-linecap="round" stroke-linejoin="round" stroke-miterlimit="10" stroke-width="1"/>
    <path id="Trazado_998773" data-name="Trazado 998773" d="M26.314,52.6H8.534A1.034,1.034,0,0,1,7.5,51.563V34.073a1.034,1.034,0,0,1,1.034-1.034H31.069A1.034,1.034,0,0,1,32.1,34.073v11.1" transform="translate(0)" fill="none" stroke="#000" stroke-linecap="round" stroke-linejoin="round" stroke-miterlimit="10" stroke-width="1"/>
    <path id="Trazado_998774" data-name="Trazado 998774" d="M111.88,62.041h15.479V72.188" transform="translate(-97.24 -27.018)" fill="none" stroke="#000" stroke-linecap="round" stroke-linejoin="round" stroke-miterlimit="10" stroke-width="1"/>
    <path id="Trazado_998775" data-name="Trazado 998775" d="M39.262,62.041H36.5v15.59H53.33" transform="translate(-27.016 -27.018)" fill="none" stroke="#000" stroke-linecap="round" stroke-linejoin="round" stroke-miterlimit="10" stroke-width="1"/>
    <circle id="Elipse_11804" data-name="Elipse 11804" cx="4.586" cy="4.586" r="4.586" transform="translate(15.215 38.095)" fill="none" stroke="#000" stroke-linecap="round" stroke-linejoin="round" stroke-miterlimit="10" stroke-width="1"/>
    <path id="Trazado_998776" data-name="Trazado 998776" d="M161.591,154.82l1.441,1.622,2.354-3.021" transform="translate(-143.55 -112.147)" fill="none" stroke="#000" stroke-linecap="round" stroke-linejoin="round" stroke-miterlimit="10" stroke-width="1"/>
    <path id="Trazado_998777" data-name="Trazado 998777" d="M284.43,223.274v5.685a1.378,1.378,0,0,0,1.378,1.378h8.56a1.377,1.377,0,0,0,1.377-1.378v-15.5a1.377,1.377,0,0,0-1.377-1.378h-8.56a1.378,1.378,0,0,0-1.378,1.378v7.421" transform="translate(-257.986 -166.795)" fill="none" stroke="#000" stroke-linecap="round" stroke-linejoin="round" stroke-miterlimit="10" stroke-width="1"/>
    <line id="Línea_1965" data-name="Línea 1965" x2="1.837" transform="translate(31.182 47.072)" fill="none" stroke="#000" stroke-linecap="round" stroke-linejoin="round" stroke-miterlimit="10" stroke-width="1"/>
    <circle id="Elipse_11805" data-name="Elipse 11805" cx="3.574" cy="3.574" r="3.574" transform="translate(28.527 50.84)" fill="none" stroke="#000" stroke-linecap="round" stroke-linejoin="round" stroke-miterlimit="10" stroke-width="1"/>
    <path id="Trazado_998778" data-name="Trazado 998778" d="M348.637,331.746l1.042,1.173,1.7-2.184" transform="translate(-317.801 -277.332)" fill="none" stroke="#000" stroke-linecap="round" stroke-linejoin="round" stroke-miterlimit="10" stroke-width="1"/>
  </g>
</svg>
