<svg xmlns="http://www.w3.org/2000/svg" xmlns:xlink="http://www.w3.org/1999/xlink" width="610" height="393" viewBox="0 0 610 393">
  <defs>
    <clipPath id="clip-path">
      <rect id="Rectángulo_409683" data-name="Rectángulo 409683" width="610" height="393" transform="translate(-2417.918 1581.975)" fill="#fff" stroke="#707070" stroke-width="1" opacity="0.33"/>
    </clipPath>
    <filter id="Elipse_11669" x="119.523" y="65.988" width="453.227" height="453.227" filterUnits="userSpaceOnUse">
      <feOffset dy="3" input="SourceAlpha"/>
      <feGaussianBlur stdDeviation="3" result="blur"/>
      <feFlood flood-opacity="0.161"/>
      <feComposite operator="in" in2="blur"/>
      <feComposite in="SourceGraphic"/>
    </filter>
    <linearGradient id="linear-gradient" x1="0.15" y1="0.217" x2="0.85" y2="0.949" gradientUnits="objectBoundingBox">
      <stop offset="0" stop-color="#fff"/>
      <stop offset="0.941" stop-color="#f9f9f9"/>
    </linearGradient>
    <clipPath id="clip-path-2">
      <rect id="Rectángulo_412347" data-name="Rectángulo 412347" width="378.717" height="370.85" fill="none"/>
    </clipPath>
    <clipPath id="clip-path-4">
      <rect id="Rectángulo_412340" data-name="Rectángulo 412340" width="45.208" height="8.782" fill="none"/>
    </clipPath>
    <clipPath id="clip-path-5">
      <rect id="Rectángulo_412342" data-name="Rectángulo 412342" width="67.409" height="111.764" fill="none"/>
    </clipPath>
    <clipPath id="clip-path-6">
      <path id="Trazado_998872" data-name="Trazado 998872" d="M102,53.2c7.162,24.825,6.7,46.714-1.027,48.891S81.17,85.912,74.008,61.087s-6.7-46.714,1.026-48.891a4.706,4.706,0,0,1,1.289-.175c7.73,0,18.9,17.7,25.676,41.183" transform="translate(-68.923 -12.021)" fill="none"/>
    </clipPath>
    <clipPath id="clip-path-8">
      <rect id="Rectángulo_412344" data-name="Rectángulo 412344" width="179.667" height="183.305" fill="none"/>
    </clipPath>
    <clipPath id="clip-path-9">
      <rect id="Rectángulo_412345" data-name="Rectángulo 412345" width="172.003" height="139.018" fill="none"/>
    </clipPath>
  </defs>
  <g id="Enmascarar_grupo_1098748" data-name="Enmascarar grupo 1098748" transform="translate(2417.918 -1581.975)" clip-path="url(#clip-path)">
    <g id="Grupo_1157992" data-name="Grupo 1157992" transform="translate(-2421.437 1577.04)">
      <g transform="matrix(1, 0, 0, 1, 3.52, 4.94)" filter="url(#Elipse_11669)">
        <circle id="Elipse_11669-2" data-name="Elipse 11669" cx="217.614" cy="217.614" r="217.614" transform="translate(128.52 71.99)" fill="#fff"/>
      </g>
      <circle id="Elipse_11670" data-name="Elipse 11670" cx="198.895" cy="198.895" r="198.895" transform="translate(68.371 294.535) rotate(-45)" fill="#ffb3da"/>
      <g id="Grupo_1157803" data-name="Grupo 1157803" transform="translate(221.923 51.06)">
        <g id="Grupo_1157799" data-name="Grupo 1157799" transform="translate(10.278 0)">
          <g id="Grupo_1157797" data-name="Grupo 1157797" transform="translate(0.306 9.475)">
            <path id="Trazado_992923" data-name="Trazado 992923" d="M419.882,579.061A25.895,25.895,0,1,0,386.926,604.1v9.037h14.738v-9.2A26.042,26.042,0,0,0,419.882,579.061Z" transform="translate(-368.093 -553.012)" fill="#fff" stroke="#000" stroke-linecap="round" stroke-linejoin="round" stroke-miterlimit="10" stroke-width="0.75"/>
            <path id="Trazado_992924" data-name="Trazado 992924" d="M398.71,620.841c.994-3.986-1.3-7.96-3.3-11.545q-2-3.587-3.706-7.327c-1.552-3.4-2.908-7.447-.943-10.712a3.838,3.838,0,0,1,1.822-1.646c1.963-.772,3.526.695,4.518,2.21a14.727,14.727,0,0,1,2.184,5.547,5.861,5.861,0,0,1,.092,1.1.952.952,0,0,1-1.8.406,9.7,9.7,0,0,1-.416-6.7c.493-1.931,1.379-3.867,3.23-4.834a3.631,3.631,0,0,1,2.5-.353c2.117.5,2.758,2.645,2.97,4.566a21.427,21.427,0,0,1-.275,6.493l-.006.03a.95.95,0,0,1-1.871-.28A10.684,10.684,0,0,1,409.2,589.3a3.818,3.818,0,0,1,2.653-.523,2.96,2.96,0,0,1,1.98,2.112c.5,1.761-.289,3.758-.862,5.168a17.308,17.308,0,0,1-2.621,4.346,31.032,31.032,0,0,0-6.612,22.288" transform="translate(-375.024 -563.838)" fill="none" stroke="#ffd387" stroke-miterlimit="10" stroke-width="0.363"/>
            <g id="Grupo_1157795" data-name="Grupo 1157795" transform="translate(18.152 55.669)">
              <path id="Trazado_992925" data-name="Trazado 992925" d="M410.867,634.817v4.372a5,5,0,0,1-.024.5,2.452,2.452,0,0,1-.056.412,5.609,5.609,0,0,1-5.532,4.734H400.38a5.609,5.609,0,0,1-5.532-4.734,2.383,2.383,0,0,1-.056-.412c-.016-.161-.024-.331-.024-.5v-4.372Z" transform="translate(-394.768 -634.817)" fill="#050004"/>
              <g id="Grupo_1157792" data-name="Grupo 1157792" transform="translate(0 1.298)">
                <rect id="Rectángulo_409681" data-name="Rectángulo 409681" width="16.099" height="0.419" fill="#0b0a10"/>
              </g>
              <g id="Grupo_1157793" data-name="Grupo 1157793" transform="translate(0 2.952)">
                <rect id="Rectángulo_409682" data-name="Rectángulo 409682" width="16.099" height="0.412" fill="#ffd387"/>
              </g>
              <g id="Grupo_1157794" data-name="Grupo 1157794" transform="translate(0.025 4.872)">
                <path id="Trazado_992926" data-name="Trazado 992926" d="M410.853,641.976a2.45,2.45,0,0,1-.056.412H394.859a2.379,2.379,0,0,1-.056-.412Z" transform="translate(-394.803 -641.976)" fill="#ffd387"/>
              </g>
            </g>
            <g id="Grupo_1157796" data-name="Grupo 1157796" transform="translate(40.868 8.76)">
              <path id="Trazado_992927" data-name="Trazado 992927" d="M428.149,568.354a5.883,5.883,0,0,0,.742,2.672,4.849,4.849,0,0,0,1.78,2.133,2.165,2.165,0,0,0,2.6-.223,2.709,2.709,0,0,0,.546-2.045,6.785,6.785,0,0,0-1.419-3.726C430.816,565.151,428.187,565.491,428.149,568.354Z" transform="translate(-428.148 -565.885)" fill="#fff"/>
              <path id="Trazado_992928" data-name="Trazado 992928" d="M434.319,581.659a16.2,16.2,0,0,0,.668,6.259c.3.97.857,2.047,1.855,2.21a1.964,1.964,0,0,0,1.83-.887,4.46,4.46,0,0,0,.671-2.022,12.421,12.421,0,0,0-.432-5.207c-.333-1.093-1.114-2.785-2.389-3.028C435.041,578.7,434.421,580.529,434.319,581.659Z" transform="translate(-430.099 -570.061)" fill="#fff"/>
            </g>
          </g>
          <g id="Grupo_1157798" data-name="Grupo 1157798">
            <line id="Línea_1075" data-name="Línea 1075" y1="3.706" x2="6.448" transform="translate(0 60.644)" fill="none" stroke="#fff" stroke-linecap="round" stroke-linejoin="round" stroke-miterlimit="10" stroke-width="1.087"/>
            <line id="Línea_1076" data-name="Línea 1076" y1="3.706" x2="6.448" transform="translate(54.193 22.19)" fill="none" stroke="#fff" stroke-linecap="round" stroke-linejoin="round" stroke-miterlimit="10" stroke-width="1.087"/>
            <line id="Línea_1077" data-name="Línea 1077" y1="5.659" x2="4.848" transform="translate(45.244 8.473)" fill="none" stroke="#fff" stroke-linecap="round" stroke-linejoin="round" stroke-miterlimit="10" stroke-width="1.087"/>
            <line id="Línea_1078" data-name="Línea 1078" y1="7.47" x2="0.069" transform="translate(27.676)" fill="none" stroke="#fff" stroke-linecap="round" stroke-linejoin="round" stroke-miterlimit="10" stroke-width="1.087"/>
            <line id="Línea_1079" data-name="Línea 1079" x1="4.703" y1="5.782" transform="translate(6.016 6.095)" fill="none" stroke="#fff" stroke-linecap="round" stroke-linejoin="round" stroke-miterlimit="10" stroke-width="1.087"/>
          </g>
        </g>
        <g id="Grupo_1157800" data-name="Grupo 1157800" transform="translate(1.339 37.933)">
          <line id="Línea_1080" data-name="Línea 1080" y1="0.408" x2="7.415" transform="translate(0 9.957)" fill="none" stroke="#fff" stroke-linecap="round" stroke-linejoin="round" stroke-miterlimit="10" stroke-width="1.087"/>
          <line id="Línea_1081" data-name="Línea 1081" y1="0.408" x2="7.415" transform="translate(65.576)" fill="none" stroke="#fff" stroke-linecap="round" stroke-linejoin="round" stroke-miterlimit="10" stroke-width="1.087"/>
        </g>
        <g id="Grupo_1157801" data-name="Grupo 1157801" transform="translate(0 31.561)">
          <line id="Línea_1082" data-name="Línea 1082" x2="6.845" y2="2.897" fill="none" stroke="#fff" stroke-linecap="round" stroke-linejoin="round" stroke-miterlimit="10" stroke-width="1.087"/>
          <line id="Línea_1083" data-name="Línea 1083" x2="6.845" y2="2.896" transform="translate(63.297 19.905)" fill="none" stroke="#fff" stroke-linecap="round" stroke-linejoin="round" stroke-miterlimit="10" stroke-width="1.087"/>
        </g>
        <g id="Grupo_1157802" data-name="Grupo 1157802" transform="translate(5.329 16.443)">
          <line id="Línea_1084" data-name="Línea 1084" x2="5.22" y2="5.314" fill="none" stroke="#fff" stroke-linecap="round" stroke-linejoin="round" stroke-miterlimit="10" stroke-width="1.087"/>
          <line id="Línea_1085" data-name="Línea 1085" x2="5.22" y2="5.313" transform="translate(50.887 42.781)" fill="none" stroke="#fff" stroke-linecap="round" stroke-linejoin="round" stroke-miterlimit="10" stroke-width="1.087"/>
        </g>
      </g>
      <g id="Grupo_1157866" data-name="Grupo 1157866" transform="translate(92.375 67.961)">
        <g id="Grupo_1157863" data-name="Grupo 1157863" transform="translate(11.258 12.866)">
          <path id="Trazado_992986" data-name="Trazado 992986" d="M654.567,616.244h39.07a9.039,9.039,0,0,1,9.038,9.039v39l-9.19-8.438H654.567a9.038,9.038,0,0,1-9.039-9.039V625.282A9.039,9.039,0,0,1,654.567,616.244Z" transform="translate(-645.528 -616.244)" fill="#fff" stroke="#000" stroke-linecap="round" stroke-linejoin="round" stroke-miterlimit="10" stroke-width="0.75"/>
        </g>
        <g id="Grupo_1157865" data-name="Grupo 1157865" transform="translate(0 0)">
          <path id="Trazado_992987" data-name="Trazado 992987" d="M671.109,597.338H710.18a9.038,9.038,0,0,1,9.039,9.039v39l-9.19-8.437h-38.92a9.038,9.038,0,0,1-9.038-9.039V606.377A9.039,9.039,0,0,1,671.109,597.338Z" transform="translate(-662.071 -597.338)" fill="#fff" stroke="#000" stroke-linecap="round" stroke-linejoin="round" stroke-miterlimit="10" stroke-width="0.75"/>
          <g id="Grupo_1157864" data-name="Grupo 1157864" transform="translate(10.174 16.591)">
            <path id="Trazado_992988" data-name="Trazado 992988" d="M679.372,625.648a3.93,3.93,0,1,0,3.93-3.93A3.93,3.93,0,0,0,679.372,625.648Z" transform="translate(-652.031 -621.718)"/>
            <path id="Trazado_992989" data-name="Trazado 992989" d="M699.461,625.648a3.93,3.93,0,1,0,3.929-3.93A3.93,3.93,0,0,0,699.461,625.648Z" transform="translate(-685.79 -621.718)"/>
            <path id="Trazado_992990" data-name="Trazado 992990" d="M719.549,625.648a3.93,3.93,0,1,0,3.93-3.93A3.93,3.93,0,0,0,719.549,625.648Z" transform="translate(-719.549 -621.718)"/>
          </g>
        </g>
      </g>
      <g id="Grupo_1157901" data-name="Grupo 1157901" transform="translate(35 97.277)">
        <g id="Grupo_1157891" data-name="Grupo 1157891" transform="translate(14.857)">
          <g id="Grupo_1157889" data-name="Grupo 1157889">
            <path id="Trazado_993025" data-name="Trazado 993025" d="M49.2,642.106a.94.94,0,0,1-.94-.941v-8.327a.94.94,0,1,1,1.881,0v8.327A.94.94,0,0,1,49.2,642.106Z" transform="translate(-48.258 -631.898)"/>
          </g>
          <g id="Grupo_1157890" data-name="Grupo 1157890" transform="translate(0 21.386)">
            <path id="Trazado_993026" data-name="Trazado 993026" d="M49.2,673.531a.94.94,0,0,1-.94-.941v-8.326a.94.94,0,1,1,1.881,0v8.326A.94.94,0,0,1,49.2,673.531Z" transform="translate(-48.258 -663.324)"/>
          </g>
        </g>
        <g id="Grupo_1157894" data-name="Grupo 1157894" transform="translate(0 14.855)">
          <g id="Grupo_1157892" data-name="Grupo 1157892" transform="translate(21.385)">
            <path id="Trazado_993027" data-name="Trazado 993027" d="M67.118,655.609H58.79a.94.94,0,0,1,0-1.881h8.328a.94.94,0,0,1,0,1.881Z" transform="translate(-57.85 -653.728)"/>
          </g>
          <g id="Grupo_1157893" data-name="Grupo 1157893">
            <path id="Trazado_993028" data-name="Trazado 993028" d="M35.693,655.609H27.365a.94.94,0,0,1,0-1.881h8.328a.94.94,0,0,1,0,1.881Z" transform="translate(-26.425 -653.728)"/>
          </g>
        </g>
        <g id="Grupo_1157897" data-name="Grupo 1157897" transform="translate(4.352 4.351)">
          <g id="Grupo_1157895" data-name="Grupo 1157895" transform="translate(0 15.121)">
            <line id="Línea_1091" data-name="Línea 1091" y1="5.888" x2="5.888" transform="translate(0.94 0.941)"/>
            <path id="Trazado_993029" data-name="Trazado 993029" d="M33.76,668.282a.941.941,0,0,1-.665-1.606l5.888-5.888a.94.94,0,1,1,1.33,1.33l-5.888,5.888A.935.935,0,0,1,33.76,668.282Z" transform="translate(-32.82 -660.512)"/>
          </g>
          <g id="Grupo_1157896" data-name="Grupo 1157896" transform="translate(15.121)">
            <line id="Línea_1092" data-name="Línea 1092" y1="5.888" x2="5.888" transform="translate(0.941 0.94)"/>
            <path id="Trazado_993030" data-name="Trazado 993030" d="M55.98,646.061a.941.941,0,0,1-.665-1.606l5.888-5.887a.94.94,0,0,1,1.33,1.33l-5.888,5.888A.938.938,0,0,1,55.98,646.061Z" transform="translate(-55.04 -638.292)"/>
          </g>
        </g>
        <g id="Grupo_1157900" data-name="Grupo 1157900" transform="translate(4.352 4.351)">
          <g id="Grupo_1157898" data-name="Grupo 1157898">
            <line id="Línea_1093" data-name="Línea 1093" x2="5.888" y2="5.888" transform="translate(0.94 0.94)"/>
            <path id="Trazado_993031" data-name="Trazado 993031" d="M39.649,646.061a.937.937,0,0,1-.665-.276L33.1,639.9a.94.94,0,0,1,1.33-1.33l5.888,5.887a.941.941,0,0,1-.666,1.606Z" transform="translate(-32.82 -638.292)"/>
          </g>
          <g id="Grupo_1157899" data-name="Grupo 1157899" transform="translate(15.12 15.121)">
            <line id="Línea_1094" data-name="Línea 1094" x2="5.888" y2="5.888" transform="translate(0.942 0.94)"/>
            <path id="Trazado_993032" data-name="Trazado 993032" d="M61.868,668.282a.937.937,0,0,1-.665-.276l-5.888-5.888a.94.94,0,0,1,1.33-1.33l5.888,5.888a.94.94,0,0,1-.665,1.605Z" transform="translate(-55.039 -660.513)"/>
          </g>
        </g>
      </g>
      <g id="Grupo_1157914" data-name="Grupo 1157914" transform="translate(201.064 359.261)">
        <g id="Grupo_1157904" data-name="Grupo 1157904" transform="translate(14.857 0)">
          <g id="Grupo_1157902" data-name="Grupo 1157902">
            <path id="Trazado_993033" data-name="Trazado 993033" d="M344.66,1002.2a.94.94,0,0,1-.941-.941V992.93a.94.94,0,1,1,1.881,0v8.327A.941.941,0,0,1,344.66,1002.2Z" transform="translate(-343.72 -991.989)"/>
          </g>
          <g id="Grupo_1157903" data-name="Grupo 1157903" transform="translate(0 21.383)">
            <path id="Trazado_993034" data-name="Trazado 993034" d="M344.66,1033.618a.94.94,0,0,1-.941-.94v-8.326a.94.94,0,0,1,1.881,0v8.326A.941.941,0,0,1,344.66,1033.618Z" transform="translate(-343.72 -1023.411)"/>
          </g>
        </g>
        <g id="Grupo_1157907" data-name="Grupo 1157907" transform="translate(0 14.853)">
          <g id="Grupo_1157905" data-name="Grupo 1157905" transform="translate(21.386)">
            <path id="Trazado_993035" data-name="Trazado 993035" d="M362.581,1015.7h-8.328a.94.94,0,0,1,0-1.881h8.328a.94.94,0,0,1,0,1.881Z" transform="translate(-353.313 -1013.816)"/>
          </g>
          <g id="Grupo_1157906" data-name="Grupo 1157906">
            <path id="Trazado_993036" data-name="Trazado 993036" d="M331.155,1015.7h-8.328a.94.94,0,1,1,0-1.881h8.328a.94.94,0,0,1,0,1.881Z" transform="translate(-321.887 -1013.816)"/>
          </g>
        </g>
        <g id="Grupo_1157910" data-name="Grupo 1157910" transform="translate(4.353 4.352)">
          <g id="Grupo_1157908" data-name="Grupo 1157908" transform="translate(0 15.12)">
            <line id="Línea_1095" data-name="Línea 1095" y1="5.893" x2="5.888" transform="translate(0.94 0.937)"/>
            <path id="Trazado_993037" data-name="Trazado 993037" d="M329.223,1028.373a.941.941,0,0,1-.665-1.605l5.888-5.888a.94.94,0,0,1,1.33,1.33l-5.888,5.888A.956.956,0,0,1,329.223,1028.373Z" transform="translate(-328.283 -1020.603)"/>
          </g>
          <g id="Grupo_1157909" data-name="Grupo 1157909" transform="translate(15.12)">
            <line id="Línea_1096" data-name="Línea 1096" y1="5.884" x2="5.888" transform="translate(0.941 0.938)"/>
            <path id="Trazado_993038" data-name="Trazado 993038" d="M351.442,1006.153a.941.941,0,0,1-.665-1.606l5.888-5.887A.941.941,0,1,1,358,999.99l-5.888,5.887A.954.954,0,0,1,351.442,1006.153Z" transform="translate(-350.502 -998.384)"/>
          </g>
        </g>
        <g id="Grupo_1157913" data-name="Grupo 1157913" transform="translate(4.353 4.352)">
          <g id="Grupo_1157911" data-name="Grupo 1157911">
            <line id="Línea_1097" data-name="Línea 1097" x2="5.888" y2="5.884" transform="translate(0.94 0.938)"/>
            <path id="Trazado_993039" data-name="Trazado 993039" d="M335.112,1006.153a.936.936,0,0,1-.665-.276l-5.888-5.887a.941.941,0,0,1,1.33-1.331l5.888,5.887a.941.941,0,0,1,0,1.33A.955.955,0,0,1,335.112,1006.153Z" transform="translate(-328.283 -998.384)"/>
          </g>
          <g id="Grupo_1157912" data-name="Grupo 1157912" transform="translate(15.12 15.12)">
            <line id="Línea_1098" data-name="Línea 1098" x2="5.888" y2="5.893" transform="translate(0.941 0.937)"/>
            <path id="Trazado_993040" data-name="Trazado 993040" d="M357.331,1028.373a.937.937,0,0,1-.665-.276l-5.888-5.888a.94.94,0,0,1,1.33-1.33l5.888,5.888a.94.94,0,0,1,0,1.33A.953.953,0,0,1,357.331,1028.373Z" transform="translate(-350.502 -1020.603)"/>
          </g>
        </g>
      </g>
      <g id="Grupo_1157927" data-name="Grupo 1157927" transform="translate(151.133 20.976)">
        <g id="Grupo_1157917" data-name="Grupo 1157917" transform="translate(14.857 0)">
          <g id="Grupo_1157915" data-name="Grupo 1157915">
            <path id="Trazado_993041" data-name="Trazado 993041" d="M305.486,474.265a.94.94,0,0,1-.94-.94V465a.94.94,0,0,1,1.881,0v8.327A.94.94,0,0,1,305.486,474.265Z" transform="translate(-304.546 -464.057)"/>
          </g>
          <g id="Grupo_1157916" data-name="Grupo 1157916" transform="translate(0 21.386)">
            <path id="Trazado_993042" data-name="Trazado 993042" d="M305.486,505.69a.94.94,0,0,1-.94-.941v-8.326a.94.94,0,0,1,1.881,0v8.326A.94.94,0,0,1,305.486,505.69Z" transform="translate(-304.546 -495.483)"/>
          </g>
        </g>
        <g id="Grupo_1157920" data-name="Grupo 1157920" transform="translate(0 14.855)">
          <g id="Grupo_1157918" data-name="Grupo 1157918" transform="translate(21.385)">
            <path id="Trazado_993043" data-name="Trazado 993043" d="M323.406,487.768h-8.328a.94.94,0,1,1,0-1.881h8.328a.94.94,0,1,1,0,1.881Z" transform="translate(-314.138 -485.887)"/>
          </g>
          <g id="Grupo_1157919" data-name="Grupo 1157919">
            <path id="Trazado_993044" data-name="Trazado 993044" d="M291.982,487.768h-8.328a.94.94,0,1,1,0-1.881h8.328a.94.94,0,1,1,0,1.881Z" transform="translate(-282.713 -485.887)"/>
          </g>
        </g>
        <g id="Grupo_1157923" data-name="Grupo 1157923" transform="translate(4.352 4.352)">
          <g id="Grupo_1157921" data-name="Grupo 1157921" transform="translate(0 15.121)">
            <line id="Línea_1099" data-name="Línea 1099" y1="5.888" x2="5.888" transform="translate(0.94 0.94)"/>
            <path id="Trazado_993045" data-name="Trazado 993045" d="M290.048,500.441a.94.94,0,0,1-.665-1.605l5.888-5.888a.94.94,0,1,1,1.33,1.33l-5.888,5.888A.937.937,0,0,1,290.048,500.441Z" transform="translate(-289.108 -492.672)"/>
          </g>
          <g id="Grupo_1157922" data-name="Grupo 1157922" transform="translate(15.12)">
            <line id="Línea_1100" data-name="Línea 1100" y1="5.888" x2="5.888" transform="translate(0.942 0.94)"/>
            <path id="Trazado_993046" data-name="Trazado 993046" d="M312.267,478.22a.941.941,0,0,1-.665-1.605l5.888-5.887a.94.94,0,1,1,1.33,1.33l-5.888,5.887A.935.935,0,0,1,312.267,478.22Z" transform="translate(-311.327 -470.452)"/>
          </g>
        </g>
        <g id="Grupo_1157926" data-name="Grupo 1157926" transform="translate(4.352 4.352)">
          <g id="Grupo_1157924" data-name="Grupo 1157924">
            <line id="Línea_1101" data-name="Línea 1101" x2="5.888" y2="5.888" transform="translate(0.94 0.94)"/>
            <path id="Trazado_993047" data-name="Trazado 993047" d="M295.937,478.22a.938.938,0,0,1-.665-.276l-5.888-5.887a.94.94,0,1,1,1.33-1.33l5.888,5.887a.941.941,0,0,1-.665,1.605Z" transform="translate(-289.108 -470.452)"/>
          </g>
          <g id="Grupo_1157925" data-name="Grupo 1157925" transform="translate(15.12 15.12)">
            <line id="Línea_1102" data-name="Línea 1102" x2="5.888" y2="5.888" transform="translate(0.942 0.941)"/>
            <path id="Trazado_993048" data-name="Trazado 993048" d="M318.156,500.441a.937.937,0,0,1-.665-.276l-5.888-5.888a.94.94,0,0,1,1.33-1.33l5.888,5.888a.941.941,0,0,1-.665,1.606Z" transform="translate(-311.327 -492.671)"/>
          </g>
        </g>
      </g>
      <g id="Grupo_1157940" data-name="Grupo 1157940" transform="translate(475.758 356.586)">
        <g id="Grupo_1157930" data-name="Grupo 1157930" transform="translate(14.857)">
          <g id="Grupo_1157928" data-name="Grupo 1157928">
            <path id="Trazado_993049" data-name="Trazado 993049" d="M748.322,998.267a.94.94,0,0,1-.94-.941V989a.94.94,0,1,1,1.881,0v8.327A.941.941,0,0,1,748.322,998.267Z" transform="translate(-747.382 -988.059)"/>
          </g>
          <g id="Grupo_1157929" data-name="Grupo 1157929" transform="translate(0 21.383)">
            <path id="Trazado_993050" data-name="Trazado 993050" d="M748.322,1029.688a.94.94,0,0,1-.94-.94v-8.326a.94.94,0,0,1,1.881,0v8.326A.941.941,0,0,1,748.322,1029.688Z" transform="translate(-747.382 -1019.481)"/>
          </g>
        </g>
        <g id="Grupo_1157933" data-name="Grupo 1157933" transform="translate(0 14.853)">
          <g id="Grupo_1157931" data-name="Grupo 1157931" transform="translate(21.385)">
            <path id="Trazado_993051" data-name="Trazado 993051" d="M766.242,1011.767h-8.328a.94.94,0,1,1,0-1.881h8.328a.94.94,0,1,1,0,1.881Z" transform="translate(-756.974 -1009.886)"/>
          </g>
          <g id="Grupo_1157932" data-name="Grupo 1157932">
            <path id="Trazado_993052" data-name="Trazado 993052" d="M734.818,1011.767H726.49a.94.94,0,1,1,0-1.881h8.328a.94.94,0,1,1,0,1.881Z" transform="translate(-725.549 -1009.886)"/>
          </g>
        </g>
        <g id="Grupo_1157936" data-name="Grupo 1157936" transform="translate(4.353 4.345)">
          <g id="Grupo_1157934" data-name="Grupo 1157934" transform="translate(0 15.126)">
            <line id="Línea_1103" data-name="Línea 1103" y1="5.886" x2="5.888" transform="translate(0.94 0.938)"/>
            <path id="Trazado_993053" data-name="Trazado 993053" d="M732.885,1024.442a.941.941,0,0,1-.665-1.606l5.888-5.888a.941.941,0,0,1,1.33,1.33l-5.888,5.888A.956.956,0,0,1,732.885,1024.442Z" transform="translate(-731.945 -1016.672)"/>
          </g>
          <g id="Grupo_1157935" data-name="Grupo 1157935" transform="translate(15.12)">
            <line id="Línea_1104" data-name="Línea 1104" y1="5.886" x2="5.888" transform="translate(0.941 0.944)"/>
            <path id="Trazado_993054" data-name="Trazado 993054" d="M755.1,1002.213a.941.941,0,0,1-.665-1.606l5.888-5.887a.94.94,0,0,1,1.33,1.33l-5.888,5.887A.924.924,0,0,1,755.1,1002.213Z" transform="translate(-754.164 -994.444)"/>
          </g>
        </g>
        <g id="Grupo_1157939" data-name="Grupo 1157939" transform="translate(4.352 4.345)">
          <g id="Grupo_1157937" data-name="Grupo 1157937">
            <line id="Línea_1105" data-name="Línea 1105" x2="5.888" y2="5.886" transform="translate(0.94 0.944)"/>
            <path id="Trazado_993055" data-name="Trazado 993055" d="M738.773,1002.213a.937.937,0,0,1-.665-.276l-5.889-5.887a.941.941,0,0,1,1.33-1.33l5.889,5.887a.941.941,0,0,1,0,1.331A.924.924,0,0,1,738.773,1002.213Z" transform="translate(-731.944 -994.444)"/>
          </g>
          <g id="Grupo_1157938" data-name="Grupo 1157938" transform="translate(15.12 15.126)">
            <line id="Línea_1106" data-name="Línea 1106" x2="5.888" y2="5.886" transform="translate(0.942 0.938)"/>
            <path id="Trazado_993056" data-name="Trazado 993056" d="M760.992,1024.442a.936.936,0,0,1-.665-.276l-5.889-5.888a.941.941,0,0,1,1.33-1.33l5.888,5.888a.941.941,0,0,1,0,1.33A.952.952,0,0,1,760.992,1024.442Z" transform="translate(-754.163 -1016.672)"/>
          </g>
        </g>
      </g>
      <g id="Grupo_1157953" data-name="Grupo 1157953" transform="translate(575.704 246.115)">
        <g id="Grupo_1157943" data-name="Grupo 1157943" transform="translate(14.857 0)">
          <g id="Grupo_1157941" data-name="Grupo 1157941">
            <path id="Trazado_993057" data-name="Trazado 993057" d="M939.277,750.137a.94.94,0,0,1-.94-.94v-8.327a.94.94,0,0,1,1.881,0V749.2A.94.94,0,0,1,939.277,750.137Z" transform="translate(-938.337 -739.929)"/>
          </g>
          <g id="Grupo_1157942" data-name="Grupo 1157942" transform="translate(0 21.386)">
            <path id="Trazado_993058" data-name="Trazado 993058" d="M939.277,781.562a.94.94,0,0,1-.94-.94V772.3a.94.94,0,0,1,1.881,0v8.326A.94.94,0,0,1,939.277,781.562Z" transform="translate(-938.337 -771.355)"/>
          </g>
        </g>
        <g id="Grupo_1157946" data-name="Grupo 1157946" transform="translate(0 14.856)">
          <g id="Grupo_1157944" data-name="Grupo 1157944" transform="translate(21.385)">
            <path id="Trazado_993059" data-name="Trazado 993059" d="M957.2,763.641H948.87a.941.941,0,1,1,0-1.881H957.2a.941.941,0,0,1,0,1.881Z" transform="translate(-947.929 -761.76)"/>
          </g>
          <g id="Grupo_1157945" data-name="Grupo 1157945">
            <path id="Trazado_993060" data-name="Trazado 993060" d="M925.772,763.641h-8.328a.941.941,0,0,1,0-1.881h8.328a.941.941,0,0,1,0,1.881Z" transform="translate(-916.504 -761.76)"/>
          </g>
        </g>
        <g id="Grupo_1157949" data-name="Grupo 1157949" transform="translate(4.352 4.351)">
          <g id="Grupo_1157947" data-name="Grupo 1157947" transform="translate(0 15.122)">
            <line id="Línea_1107" data-name="Línea 1107" y1="5.888" x2="5.888" transform="translate(0.94 0.94)"/>
            <path id="Trazado_993061" data-name="Trazado 993061" d="M923.84,776.313a.94.94,0,0,1-.665-1.605l5.888-5.888a.941.941,0,0,1,1.331,1.33l-5.888,5.888A.941.941,0,0,1,923.84,776.313Z" transform="translate(-922.899 -768.544)"/>
          </g>
          <g id="Grupo_1157948" data-name="Grupo 1157948" transform="translate(15.12)">
            <line id="Línea_1108" data-name="Línea 1108" y1="5.888" x2="5.888" transform="translate(0.941 0.94)"/>
            <path id="Trazado_993062" data-name="Trazado 993062" d="M946.058,754.092a.941.941,0,0,1-.665-1.606l5.888-5.887a.94.94,0,0,1,1.33,1.33l-5.888,5.887A.934.934,0,0,1,946.058,754.092Z" transform="translate(-945.118 -746.323)"/>
          </g>
        </g>
        <g id="Grupo_1157952" data-name="Grupo 1157952" transform="translate(4.352 4.352)">
          <g id="Grupo_1157950" data-name="Grupo 1157950">
            <line id="Línea_1109" data-name="Línea 1109" x2="5.888" y2="5.888" transform="translate(0.94 0.94)"/>
            <path id="Trazado_993063" data-name="Trazado 993063" d="M929.728,754.092a.937.937,0,0,1-.665-.276l-5.888-5.887a.94.94,0,0,1,1.33-1.33l5.888,5.887a.94.94,0,0,1-.665,1.605Z" transform="translate(-922.899 -746.324)"/>
          </g>
          <g id="Grupo_1157951" data-name="Grupo 1157951" transform="translate(15.12 15.12)">
            <line id="Línea_1110" data-name="Línea 1110" x2="5.888" y2="5.888" transform="translate(0.941 0.941)"/>
            <path id="Trazado_993064" data-name="Trazado 993064" d="M951.947,776.313a.936.936,0,0,1-.665-.276l-5.888-5.888a.941.941,0,0,1,1.33-1.331l5.888,5.888a.941.941,0,0,1-.666,1.606Z" transform="translate(-945.118 -768.543)"/>
          </g>
        </g>
      </g>
      <g id="Grupo_1157956" data-name="Grupo 1157956" transform="translate(125.494 58.048)">
        <g id="Grupo_1157955" data-name="Grupo 1157955" transform="translate(-32.424 146.4)">
          <path id="Trazado_993065" data-name="Trazado 993065" d="M278.9,560.113a9.721,9.721,0,0,0-9.744-9.7l-47.562.116a9.721,9.721,0,0,0-9.7,9.744l.076,31.481a9.721,9.721,0,0,0,9.744,9.7l10.218-.025,13.088,13.024,13.024-13.087,11.233-.027a9.721,9.721,0,0,0,9.7-9.744Z" transform="translate(-211.175 -549.696)" fill="#f381d8"/>
          <path id="Trazado_993066" data-name="Trazado 993066" d="M244.683,614.833a.712.712,0,0,1-.507-.21L231.3,601.81l-9.919.024h-.027a10.439,10.439,0,0,1-10.439-10.415l-.076-31.481a10.44,10.44,0,0,1,10.415-10.465l47.561-.115h.027a10.454,10.454,0,0,1,10.439,10.414h0l.076,31.481a10.451,10.451,0,0,1-10.415,10.465l-10.935.027L245.192,614.62A.712.712,0,0,1,244.683,614.833Zm-13.089-14.462a.719.719,0,0,1,.507.21L244.68,613.1,257.2,600.52a.721.721,0,0,1,.508-.212l11.232-.027a9.013,9.013,0,0,0,8.979-9.023l-.076-31.48a9.013,9.013,0,0,0-9-8.98h-.022l-47.561.115a9,9,0,0,0-8.979,9.024l.076,31.482a9,9,0,0,0,9,8.979h.024l10.217-.025h0Z" transform="translate(-210.838 -549.358)" fill="#050004"/>
        </g>
      </g>
      <g id="Grupo_1157957" data-name="Grupo 1157957" transform="translate(112.531 216.79)">
        <path id="Trazado_993067" data-name="Trazado 993067" d="M254.714,569.107l3.347,6.782a1,1,0,0,0,.75.545l7.484,1.088a1,1,0,0,1,.552,1.7l-5.416,5.279a1,1,0,0,0-.286.881l1.278,7.454a1,1,0,0,1-1.445,1.05l-6.694-3.519a1,1,0,0,0-.927,0l-6.694,3.519a1,1,0,0,1-1.445-1.05l1.279-7.454a1,1,0,0,0-.286-.881L240.8,579.22a1,1,0,0,1,.552-1.7l7.484-1.088a1,1,0,0,0,.75-.545l3.347-6.782A1,1,0,0,1,254.714,569.107Z" transform="translate(-239.774 -567.833)" fill="url(#linear-gradient)"/>
        <path id="Trazado_993068" data-name="Trazado 993068" d="M245.86,594.382a1.718,1.718,0,0,1-1.688-2.007l1.279-7.453a.276.276,0,0,0-.079-.244l-5.415-5.28a1.714,1.714,0,0,1,.95-2.925l7.484-1.088a.279.279,0,0,0,.21-.151l3.347-6.781a1.713,1.713,0,0,1,3.074,0l3.347,6.781a.278.278,0,0,0,.206.151l7.486,1.088a1.715,1.715,0,0,1,.95,2.925l-5.415,5.279a.276.276,0,0,0-.08.244l1.279,7.455a1.715,1.715,0,0,1-2.489,1.807l-6.694-3.519a.27.27,0,0,0-.256,0l-6.7,3.519A1.71,1.71,0,0,1,245.86,594.382Zm7.622-25.448a.266.266,0,0,0-.247.154l-3.347,6.782a1.711,1.711,0,0,1-1.292.938l-7.481,1.088a.276.276,0,0,0-.154.471l5.415,5.28a1.715,1.715,0,0,1,.495,1.516l-1.278,7.456a.265.265,0,0,0,.108.27.271.271,0,0,0,.292.021l6.695-3.519a1.71,1.71,0,0,1,1.6,0l6.692,3.519a.271.271,0,0,0,.292-.021.267.267,0,0,0,.11-.27l-1.279-7.454a1.713,1.713,0,0,1,.495-1.518l5.415-5.279a.277.277,0,0,0-.154-.472l-7.485-1.088a1.709,1.709,0,0,1-1.29-.938l-3.347-6.782h0A.266.266,0,0,0,253.482,568.934Z" transform="translate(-239.436 -567.495)" fill="#050004"/>
      </g>
      <path id="Trazado_993069" data-name="Trazado 993069" d="M487.206,496.591a4.232,4.232,0,1,1-2.773-5.3A4.232,4.232,0,0,1,487.206,496.591Z" transform="translate(-170.999 -472.695)"/>
      <path id="Trazado_993070" data-name="Trazado 993070" d="M746.449,829.593a3.871,3.871,0,1,1-3.871-3.871A3.871,3.871,0,0,1,746.449,829.593Z" transform="translate(-253.995 -579.607)"/>
      <path id="Trazado_993071" data-name="Trazado 993071" d="M803.028,839.344a1.853,1.853,0,1,1-1.853-1.853A1.853,1.853,0,0,1,803.028,839.344Z" transform="translate(-273.361 -583.367)"/>
      <path id="Trazado_993072" data-name="Trazado 993072" d="M715.57,760.9a1.853,1.853,0,1,1-1.853-1.853A1.853,1.853,0,0,1,715.57,760.9Z" transform="translate(-245.419 -558.304)"/>
      <path id="Trazado_993073" data-name="Trazado 993073" d="M320.253,721.293a1.853,1.853,0,1,1-1.667-2.022A1.853,1.853,0,0,1,320.253,721.293Z" transform="translate(-119.12 -545.594)"/>
      <path id="Trazado_993074" data-name="Trazado 993074" d="M335.123,768.777a3.5,3.5,0,1,1-3.149-3.821A3.5,3.5,0,0,1,335.123,768.777Z" transform="translate(-122.82 -560.187)"/>
      <path id="Trazado_993075" data-name="Trazado 993075" d="M363.389,698.573a3.5,3.5,0,1,1-3.149-3.822A3.5,3.5,0,0,1,363.389,698.573Z" transform="translate(-131.851 -537.757)"/>
      <path id="Trazado_993076" data-name="Trazado 993076" d="M544.186,494.6a1.62,1.62,0,1,1-1.062-2.03A1.621,1.621,0,0,1,544.186,494.6Z" transform="translate(-190.835 -473.144)"/>
      <path id="Trazado_993077" data-name="Trazado 993077" d="M458.529,530.824a3.439,3.439,0,1,1-2.254-4.31A3.439,3.439,0,0,1,458.529,530.824Z" transform="translate(-162.332 -483.961)"/>
      <path id="Trazado_993078" data-name="Trazado 993078" d="M772.4,776.547a3,3,0,1,1-3-3A3,3,0,0,1,772.4,776.547Z" transform="translate(-262.845 -562.938)"/>
      <g id="Grupo_1157965" data-name="Grupo 1157965" transform="translate(404.695 164.882)">
        <path id="Trazado_993080" data-name="Trazado 993080" d="M1049.359,444.526l12.775,11.2c.7.616,1.738-.411,1.031-1.031l-12.775-11.2c-.7-.616-1.739.412-1.031,1.031Z" transform="translate(-1049.121 -443.305)" fill="#fff"/>
      </g>
      <g id="Grupo_1157966" data-name="Grupo 1157966" transform="translate(492.454 181.429)">
        <path id="Trazado_993081" data-name="Trazado 993081" d="M1018.82,813.183l12.775,11.2c.7.616,1.738-.411,1.031-1.031l-12.775-11.2c-.7-.616-1.732.412-1.031,1.031Z" transform="translate(-1018.587 -811.962)" fill="#fff"/>
      </g>
      <g id="Grupo_1157967" data-name="Grupo 1157967" transform="translate(287.745 128.006)">
        <path id="Trazado_993082" data-name="Trazado 993082" d="M1020.078,311.5l8.82-12.763c.535-.774-.728-1.5-1.259-.736l-8.821,12.762c-.538.774.728,1.5,1.259.736Z" transform="translate(-1018.689 -297.678)" fill="#fff"/>
      </g>
      <g id="Grupo_1157968" data-name="Grupo 1157968" transform="translate(518.029 339.487)">
        <path id="Trazado_993083" data-name="Trazado 993083" d="M1020.449,969.559l8.821-12.763c.535-.774-.728-1.5-1.259-.736l-8.821,12.762c-.531.774.728,1.5,1.259.736Z" transform="translate(-1019.062 -955.735)" fill="#fff"/>
      </g>
      <g id="Grupo_1157969" data-name="Grupo 1157969" transform="translate(461.277 157.807)">
        <path id="Trazado_993084" data-name="Trazado 993084" d="M1025.349,664.5l8.821-12.763c.535-.774-.728-1.5-1.259-.736l-8.821,12.762c-.531.774.728,1.5,1.259.736Z" transform="translate(-1023.962 -650.678)" fill="#fff"/>
      </g>
      <g id="Grupo_1157970" data-name="Grupo 1157970" transform="translate(470.589 407.675)">
        <path id="Trazado_993085" data-name="Trazado 993085" d="M888.385,1033.7l8.821-12.763c.535-.774-.728-1.5-1.259-.736l-8.821,12.762c-.534.777.729,1.505,1.259.736Z" transform="translate(-886.997 -1019.875)" fill="#fff"/>
      </g>
      <g id="Grupo_1157971" data-name="Grupo 1157971" transform="translate(303.59 171.186)">
        <path id="Trazado_993086" data-name="Trazado 993086" d="M34.917,597.214l-4.9-15.148c-.287-.889-1.7-.508-1.406.387l4.9,15.148c.288.889,1.7.509,1.406-.387Z" transform="translate(-28.575 -581.56)" fill="#fff"/>
      </g>
      <g id="Grupo_1157972" data-name="Grupo 1157972" transform="translate(212.69 401.68)">
        <path id="Trazado_993087" data-name="Trazado 993087" d="M939.581,412.794a65.569,65.569,0,0,0,7.9,10.674c.633.7,1.661-.338,1.031-1.031a63.691,63.691,0,0,1-7.671-10.378.729.729,0,0,0-1.259.736Z" transform="translate(-939.474 -411.709)" fill="#fff"/>
      </g>
      <g id="Grupo_1157973" data-name="Grupo 1157973" transform="translate(431.983 179.122)">
        <path id="Trazado_993088" data-name="Trazado 993088" d="M963.485,567.608l7.992-7.19c.7-.629-.335-1.657-1.031-1.031l-7.992,7.19c-.7.629.335,1.658,1.031,1.031Z" transform="translate(-962.221 -559.193)" fill="#fff"/>
      </g>
      <g id="Grupo_1157975" data-name="Grupo 1157975" transform="translate(404.694 114.078)">
        <path id="Trazado_993090" data-name="Trazado 993090" d="M3.806,441.2l8.821-12.763c.535-.774-.728-1.5-1.259-.736L2.547,440.46c-.534.773.728,1.5,1.259.736Z" transform="translate(-2.418 -427.371)" fill="#fff"/>
      </g>
      <g id="Grupo_1157977" data-name="Grupo 1157977" transform="translate(475.225 266.607)">
        <path id="Trazado_993092" data-name="Trazado 993092" d="M254.117,148.779l7.992-7.19c.7-.629-.335-1.657-1.031-1.031l-7.992,7.19c-.7.629.335,1.657,1.031,1.031Z" transform="translate(-252.853 -140.364)" fill="#fff"/>
      </g>
      <g id="Grupo_1157979" data-name="Grupo 1157979" transform="translate(197.435 324.217)">
        <path id="Trazado_993094" data-name="Trazado 993094" d="M135.8,357.95l11.822,14.515c.593.727,1.618-.309,1.031-1.031l-11.822-14.515c-.593-.727-1.618.309-1.031,1.031Z" transform="translate(-135.625 -356.671)" fill="#fff"/>
      </g>
      <g id="Grupo_1157980" data-name="Grupo 1157980" transform="translate(187.409 196.427)">
        <path id="Trazado_993095" data-name="Trazado 993095" d="M39.955,880.171l11.822,14.515c.593.727,1.618-.309,1.031-1.031L40.986,879.14c-.593-.727-1.619.309-1.031,1.031Z" transform="translate(-39.78 -878.892)" fill="#fff"/>
      </g>
      <g id="Grupo_1157981" data-name="Grupo 1157981" transform="translate(523.197 264.917)">
        <path id="Trazado_993096" data-name="Trazado 993096" d="M926.433,695.729a65.563,65.563,0,0,0,7.9,10.674c.633.7,1.661-.338,1.031-1.031a63.705,63.705,0,0,1-7.671-10.378.73.73,0,0,0-1.259.736Z" transform="translate(-926.325 -694.644)" fill="#fff"/>
      </g>
      <g id="Grupo_1157982" data-name="Grupo 1157982" transform="translate(437.884 340.259)">
        <path id="Trazado_993097" data-name="Trazado 993097" d="M110.218,228.531l12.775,11.2c.7.616,1.738-.411,1.031-1.031l-12.775-11.2c-.7-.616-1.738.412-1.031,1.031Z" transform="translate(-109.981 -227.31)" fill="#fff"/>
      </g>
      <g id="Grupo_1157984" data-name="Grupo 1157984" transform="translate(324.536 352.866)">
        <path id="Trazado_993099" data-name="Trazado 993099" d="M32.8,280.945l8.821-12.763c.535-.774-.728-1.5-1.259-.736l-8.821,12.762c-.534.774.729,1.5,1.259.736Z" transform="translate(-31.416 -267.12)" fill="#fff"/>
      </g>
      <g id="Grupo_1157988" data-name="Grupo 1157988" transform="translate(224.904 334.264)">
        <path id="Trazado_993103" data-name="Trazado 993103" d="M23.115,135.032a65.568,65.568,0,0,0,7.9,10.674c.633.7,1.661-.338,1.031-1.031A63.7,63.7,0,0,1,24.374,134.3a.729.729,0,0,0-1.259.736Z" transform="translate(-23.007 -133.947)" fill="#fff"/>
      </g>
      <g id="Grupo_1157989" data-name="Grupo 1157989" transform="translate(249.6 356.586)">
        <path id="Trazado_993104" data-name="Trazado 993104" d="M118.7,1009.829l7.992-7.19c.7-.629-.335-1.657-1.031-1.031l-7.992,7.19c-.7.63.335,1.657,1.031,1.031Z" transform="translate(-117.441 -1001.414)" fill="#fff"/>
      </g>
      <g id="Grupo_1157990" data-name="Grupo 1157990" transform="translate(218.565 219.325)">
        <path id="Trazado_993105" data-name="Trazado 993105" d="M31.92,1002.289l7.992-7.19c.7-.629-.335-1.657-1.031-1.031l-7.992,7.189c-.7.63.335,1.657,1.031,1.031Z" transform="translate(-30.656 -993.874)" fill="#fff"/>
      </g>
      <g id="Grupo_1157991" data-name="Grupo 1157991" transform="translate(435.536 374.285)">
        <path id="Trazado_993106" data-name="Trazado 993106" d="M92.292,534.4l7.992-7.189c.7-.629-.335-1.657-1.031-1.031l-7.992,7.19c-.7.629.335,1.657,1.031,1.031Z" transform="translate(-91.028 -525.989)" fill="#fff"/>
      </g>
      <path id="Trazado_992922" data-name="Trazado 992922" d="M859.251,521.842l1.295-4.951a.24.24,0,0,1,.248-.179,19.308,19.308,0,0,0,7.995-1.1.24.24,0,0,1,.288.1l2.585,4.415a1.51,1.51,0,0,0,2.066.54l3.241-1.9a1.513,1.513,0,0,0,.54-2.066l-2.584-4.415a.237.237,0,0,1,.05-.3,19.324,19.324,0,0,0,4.873-6.433.239.239,0,0,1,.277-.13l4.951,1.295a1.512,1.512,0,0,0,1.843-1.079l.95-3.633a1.511,1.511,0,0,0-1.079-1.844l-4.95-1.3a.242.242,0,0,1-.178-.248,19.234,19.234,0,0,0-1.1-7.995.238.238,0,0,1,.1-.288l4.415-2.584a1.512,1.512,0,0,0,.54-2.067l-1.9-3.241a1.51,1.51,0,0,0-2.066-.54l-4.415,2.585a.238.238,0,0,1-.3-.05,19.321,19.321,0,0,0-6.432-4.873.241.241,0,0,1-.13-.277l1.294-4.951a1.51,1.51,0,0,0-1.079-1.844l-3.633-.951a1.513,1.513,0,0,0-1.843,1.079l-1.295,4.951a.239.239,0,0,1-.249.178,19.292,19.292,0,0,0-7.995,1.1.24.24,0,0,1-.288-.1l-2.584-4.415a1.512,1.512,0,0,0-2.066-.54l-3.24,1.9a1.51,1.51,0,0,0-.54,2.066l2.585,4.415a.239.239,0,0,1-.051.3,19.31,19.31,0,0,0-4.873,6.432.238.238,0,0,1-.277.129l-4.95-1.3a1.511,1.511,0,0,0-1.843,1.079l-.951,3.633a1.511,1.511,0,0,0,1.079,1.844l4.951,1.295a.241.241,0,0,1,.178.249,19.2,19.2,0,0,0,1.1,7.995.238.238,0,0,1-.1.288l-4.415,2.585a1.512,1.512,0,0,0-.54,2.066l1.9,3.241a1.509,1.509,0,0,0,2.066.54l4.415-2.584a.238.238,0,0,1,.3.05,19.318,19.318,0,0,0,6.432,4.873.24.24,0,0,1,.13.277l-1.295,4.951a1.513,1.513,0,0,0,1.079,1.844l3.632.95a1.512,1.512,0,0,0,1.844-1.078ZM860,507.4a10.4,10.4,0,1,1,7.826-1.434A10.413,10.413,0,0,1,860,507.4Z" transform="translate(-322.722 -303.2)" fill="#7081f9"/>
      <path id="Trazado_992920" data-name="Trazado 992920" d="M992.937,602.016l.931-3.56a.172.172,0,0,1,.179-.128,13.893,13.893,0,0,0,5.749-.791.172.172,0,0,1,.207.075l1.859,3.175a1.086,1.086,0,0,0,1.486.389l2.33-1.364a1.088,1.088,0,0,0,.388-1.486l-1.858-3.175a.171.171,0,0,1,.036-.217,13.891,13.891,0,0,0,3.5-4.626.172.172,0,0,1,.2-.093l3.56.931a1.087,1.087,0,0,0,1.325-.776l.683-2.612a1.085,1.085,0,0,0-.776-1.325l-3.559-.931a.175.175,0,0,1-.129-.179,13.831,13.831,0,0,0-.791-5.749.171.171,0,0,1,.075-.207l3.175-1.858a1.087,1.087,0,0,0,.389-1.486l-1.364-2.33a1.086,1.086,0,0,0-1.486-.389l-3.175,1.859a.172.172,0,0,1-.217-.036,13.89,13.89,0,0,0-4.625-3.5.173.173,0,0,1-.093-.2l.931-3.56a1.085,1.085,0,0,0-.775-1.326l-2.612-.683a1.088,1.088,0,0,0-1.326.776l-.931,3.56a.173.173,0,0,1-.179.128,13.877,13.877,0,0,0-5.749.791.172.172,0,0,1-.207-.075l-1.858-3.175a1.087,1.087,0,0,0-1.486-.389l-2.33,1.364a1.086,1.086,0,0,0-.388,1.486l1.858,3.175a.171.171,0,0,1-.036.217,13.885,13.885,0,0,0-3.5,4.625.172.172,0,0,1-.2.093l-3.56-.931a1.086,1.086,0,0,0-1.325.776l-.683,2.612a1.086,1.086,0,0,0,.776,1.326l3.56.931a.174.174,0,0,1,.128.179,13.815,13.815,0,0,0,.791,5.749.171.171,0,0,1-.075.207l-3.175,1.859a1.088,1.088,0,0,0-.389,1.486l1.364,2.33a1.085,1.085,0,0,0,1.486.388l3.175-1.858a.172.172,0,0,1,.217.036,13.881,13.881,0,0,0,4.625,3.5.172.172,0,0,1,.093.2l-.931,3.56a1.087,1.087,0,0,0,.776,1.325l2.612.683a1.087,1.087,0,0,0,1.326-.776Zm.541-10.384a7.476,7.476,0,1,1,5.628-1.031A7.488,7.488,0,0,1,993.478,591.632Z" transform="translate(-821.621 -425.338)" fill="#7081f9"/>
      <g id="Grupo_1164216" data-name="Grupo 1164216" transform="translate(187.409 28.184)">
        <g id="Grupo_1164234" data-name="Grupo 1164234" transform="translate(0 0)" clip-path="url(#clip-path-2)">
          <g id="Grupo_1164223" data-name="Grupo 1164223">
            <g id="Grupo_1164222" data-name="Grupo 1164222" clip-path="url(#clip-path-2)">
              <path id="Trazado_998838" data-name="Trazado 998838" d="M181.21,367.644l151.936-.063c14.019-.006,25.378-9.965,25.371-22.243l-.189-319.3c-.007-12.278-11.378-22.227-25.4-22.221l-151.935.064c-14.02.005-25.379,9.965-25.371,22.243l.189,319.3c.007,12.278,11.378,22.227,25.4,22.221" transform="translate(-141.317 0.145)" fill="#050004"/>
              <path id="Trazado_998839" data-name="Trazado 998839" d="M181.312,370.817h.011l151.934-.06a30.214,30.214,0,0,0,19.964-7.281,23.808,23.808,0,0,0,8.471-18.026l-.189-319.3C361.5,12.209,348.731.871,333.054.871h-.011L181.109.931a30.206,30.206,0,0,0-19.964,7.281,23.8,23.8,0,0,0-8.471,18.026l.191,319.3c.006,13.946,12.767,25.283,28.448,25.283M333.054,7c12.3,0,22.315,8.59,22.325,19.156l.188,319.3a17.77,17.77,0,0,1-6.383,13.42,24.046,24.046,0,0,1-15.926,5.761l-151.934.06h-.011c-12.307,0-22.315-8.591-22.322-19.157l-.191-319.3a17.763,17.763,0,0,1,6.383-13.419,24.038,24.038,0,0,1,15.926-5.762L333.043,7Z" transform="translate(-141.431 0.033)" fill="#050004"/>
              <g id="Grupo_1164218" data-name="Grupo 1164218" transform="translate(93.055 20.91)" opacity="0.89">
                <g id="Grupo_1164217" data-name="Grupo 1164217">
                  <g id="Grupo_1164216-2" data-name="Grupo 1164216" clip-path="url(#clip-path-4)">
                    <path id="Trazado_998840" data-name="Trazado 998840" d="M236.306,28.929h0l35.958-.012a4.516,4.516,0,0,0,4.625-4.385,4.517,4.517,0,0,0-4.628-4.385l-35.958.018a4.787,4.787,0,0,0-3.363,1.37,4.239,4.239,0,0,0-1.259,3.027,4.51,4.51,0,0,0,4.625,4.367" transform="translate(-231.681 -20.147)" fill="#fff"/>
                  </g>
                </g>
              </g>
              <rect id="Rectángulo_412341" data-name="Rectángulo 412341" width="189.943" height="303.458" transform="translate(20.375 36.247)" fill="#ffd387"/>
              <path id="Trazado_998841" data-name="Trazado 998841" d="M162.449,341.971h0l189.944-.086a2.91,2.91,0,0,0,2.166-1,3.645,3.645,0,0,0,.9-2.418l-.165-303.458a3.257,3.257,0,0,0-3.063-3.42l-189.942.086a2.91,2.91,0,0,0-2.166,1,3.633,3.633,0,0,0-.9,2.418l.162,303.458a3.257,3.257,0,0,0,3.064,3.42m186.878-6.928-183.818.087-.156-296.616,183.815-.087Z" transform="translate(-141.992 1.196)" fill="#050004"/>
              <path id="Trazado_998842" data-name="Trazado 998842" d="M232.317,347.037l44.008-.019a6.5,6.5,0,0,0,6.506-6.52l0-4.559a6.524,6.524,0,0,0-6.509-6.51l-44.011.019a6.515,6.515,0,0,0-6.506,6.51l.006,4.582a6.513,6.513,0,0,0,6.508,6.5m44-11.481.386,4.948v.006a.371.371,0,0,1-.111.27l-44.278.131-.388-4.959Zm3.449,4.948h0Z" transform="translate(-138.467 12.476)" fill="#fff"/>
              <path id="Trazado_998843" data-name="Trazado 998843" d="M156.885,178.771c14.038-.336,25.332-4.233,25.225-8.707s-11.574-7.824-25.614-7.488-25.331,4.233-25.224,8.706,11.574,7.826,25.613,7.489" transform="translate(60.364 6.156)" fill="#000201"/>
              <path id="Trazado_998844" data-name="Trazado 998844" d="M155.048,179.576c.63,0,1.255-.008,1.882-.023,12.688-.3,26.1-3.728,25.963-9.479s-13.709-8.516-26.387-8.226-26.1,3.729-25.962,9.479c.131,5.466,12.394,8.249,24.5,8.249m3.423-16.242c13.5,0,22.832,3.458,22.912,6.776.082,3.474-9.954,7.586-24.489,7.932s-24.756-3.279-24.84-6.752,9.954-7.585,24.489-7.932q.976-.023,1.928-.024" transform="translate(60.336 6.129)" fill="#000201"/>
              <path id="Trazado_998845" data-name="Trazado 998845" d="M169.229,167.937c3.712-9.939,3.835-21.326-2.084-30.456l-5.487,2.937s-7.822-15.172-10.384-26.7c-2.791-3.647-17.693,7.017-17.693,7.017s.976-4.579,1.464-6.869c.518-2.428,1.026-5.009.176-7.341s-3.626-4.14-5.852-3.042c-2.191,1.08-5.182,11.226-6.233,13.664-6.329,14.672-3.706,32.307-.076,47.354,1.935,8.02,10.219,92.258,12.153,95.775,11.682,21.23,43.331,17.173,49.271-6.32a61.437,61.437,0,0,0,.091-13.592c-.636-6.086-18.406-58.8-18.823-60.612-.585-2.545.311-4.986,1.417-7.345.713-1.523,1.513-3.01,2.058-4.469" transform="translate(69.984 3.907)" fill="#fff"/>
              <path id="Trazado_998846" data-name="Trazado 998846" d="M158.433,274.9a29.441,29.441,0,0,0,3.711-.239,26.958,26.958,0,0,0,23.115-20.495,61.955,61.955,0,0,0,.109-13.855c-.475-4.557-10.26-34.41-15.518-50.448-1.8-5.48-3.215-9.81-3.319-10.256-.505-2.2.18-4.328,1.366-6.855.214-.459.436-.913.658-1.366.506-1.037,1.031-2.109,1.424-3.159h0c4.187-11.208,3.4-22.555-2.158-31.13a.758.758,0,0,0-.99-.255l-4.805,2.572c-1.538-3.08-7.768-15.911-9.973-25.834a.76.76,0,0,0-.137-.295c-2.664-3.484-12.791,2.8-17.156,5.764l1.066-5c.489-2.294,1.1-5.149.147-7.756a6.177,6.177,0,0,0-3.4-3.519,4.243,4.243,0,0,0-3.5.057c-1.784.88-3.558,5.57-5.528,11.151-.438,1.243-.817,2.318-1.065,2.892-6.626,15.363-3.542,33.63-.116,47.829.859,3.562,3.012,22.574,5.292,42.7,3.5,30.924,5.876,51.339,6.934,53.26A26.881,26.881,0,0,0,158.433,274.9m10.131-107.2c-.367.982-.852,1.974-1.366,3.025-.224.46-.451.923-.669,1.389-1.14,2.431-2.106,5.063-1.469,7.834.113.492,1.17,3.72,3.356,10.389,5.239,15.984,14.991,45.737,15.452,50.132a60.79,60.79,0,0,1-.089,13.424,25.946,25.946,0,0,1-47.859,6.046c-1-1.838-4.191-30.04-6.759-52.7-2.284-20.176-4.443-39.235-5.323-42.887-3.371-13.971-6.415-31.925.033-46.876.269-.623.637-1.666,1.1-2.988,1.1-3.122,3.395-9.62,4.771-10.3a2.759,2.759,0,0,1,2.266-.01,4.69,4.69,0,0,1,2.544,2.635c.8,2.2.244,4.82-.207,6.924l-1.463,6.87a.755.755,0,0,0,1.178.771c5.834-4.174,14.707-9.1,16.559-7.28,2.595,11.468,10.33,26.544,10.408,26.7a.76.76,0,0,0,.446.376.769.769,0,0,0,.581-.055l4.867-2.606c4.958,8.1,5.562,18.694,1.64,29.194" transform="translate(69.942 3.879)" fill="#050004"/>
              <path id="Trazado_998847" data-name="Trazado 998847" d="M182.284,243.751a66.819,66.819,0,0,1-.1,14.783c-6.461,25.551-40.884,29.964-53.59,6.874-1.788-3.251-8.562-69.9-11.849-95.2l4.144,1.647a60.161,60.161,0,0,0,46.868-1.038c-1.12,2.449,13.834,66.312,14.526,72.932" transform="translate(74.903 6.446)" fill="#f34919"/>
              <g id="Grupo_1164221" data-name="Grupo 1164221" transform="translate(190.894 175.903)" opacity="0.24">
                <g id="Grupo_1164220" data-name="Grupo 1164220">
                  <g id="Grupo_1164219" data-name="Grupo 1164219" clip-path="url(#clip-path-5)">
                    <path id="Trazado_998848" data-name="Trazado 998848" d="M153.834,281.247a31.581,31.581,0,0,0,4.029-.259,29.251,29.251,0,0,0,25.084-22.241,67.345,67.345,0,0,0,.117-15.047c-.281-2.7-2.829-14.452-5.78-28.062-3.892-17.951-9.221-42.535-8.787-44.54a.714.714,0,0,0-.162-.816.765.765,0,0,0-.857-.126,59.717,59.717,0,0,1-46.279,1.024l-4.145-1.646a.766.766,0,0,0-.742.106.754.754,0,0,0-.285.693c1.158,8.914,2.735,22.836,4.4,37.575,3.807,33.619,6.388,55.811,7.532,57.889a29.174,29.174,0,0,0,25.87,15.449M167.031,172c.3,4.337,3.1,17.753,8.777,43.957,2.82,13,5.481,25.283,5.756,27.9a66.192,66.192,0,0,1-.1,14.617,28.286,28.286,0,0,1-52.178,6.6c-1.087-1.974-4.562-32.668-7.356-57.331-1.593-14.063-3.1-27.382-4.243-36.329l2.954,1.174A61.252,61.252,0,0,0,167.031,172m15.284,71.777h0Z" transform="translate(-116.021 -169.484)" fill="#050004"/>
                  </g>
                </g>
              </g>
              <path id="Trazado_998849" data-name="Trazado 998849" d="M153.834,281.247a31.581,31.581,0,0,0,4.029-.259,29.251,29.251,0,0,0,25.084-22.241,67.345,67.345,0,0,0,.117-15.047c-.281-2.7-2.829-14.452-5.78-28.062-3.892-17.951-9.221-42.535-8.787-44.54a.714.714,0,0,0-.162-.816.765.765,0,0,0-.857-.126,59.717,59.717,0,0,1-46.279,1.024l-4.145-1.646a.766.766,0,0,0-.742.106.754.754,0,0,0-.285.693c1.158,8.914,2.735,22.836,4.4,37.575,3.807,33.619,6.388,55.811,7.532,57.889a29.174,29.174,0,0,0,25.87,15.449M167.031,172c.3,4.337,3.1,17.753,8.777,43.957,2.82,13,5.481,25.283,5.756,27.9a66.192,66.192,0,0,1-.1,14.617,28.286,28.286,0,0,1-52.178,6.6c-1.087-1.974-4.562-32.668-7.356-57.331-1.593-14.063-3.1-27.382-4.243-36.329l2.954,1.174A61.252,61.252,0,0,0,167.031,172m15.284,71.777h0Z" transform="translate(74.872 6.419)" fill="#050004"/>
              <path id="Trazado_998850" data-name="Trazado 998850" d="M145.772,130.6l17.065,13.272,7.9-24.012-3.825-9.849-19.071,10.676Z" transform="translate(56.687 4.166)" fill="#111"/>
              <path id="Trazado_998851" data-name="Trazado 998851" d="M163.279,145.171l8.322-25.288-4.239-10.912-20.128,11.268L145,130.951ZM170,119.926l-7.481,22.737-15.848-12.325,1.906-9.117,18.011-10.084Z" transform="translate(56.627 4.127)" fill="#000201"/>
              <path id="Trazado_998852" data-name="Trazado 998852" d="M201.3,95.959l-10.288,2.923c-5.026,1.428-10.335-1.756-11.856-7.11l-.574-2.02c-1.52-5.354,1.32-10.853,6.348-12.281l10.288-2.923Z" transform="translate(-7.498 2.823)" fill="#000201"/>
              <path id="Trazado_998853" data-name="Trazado 998853" d="M191.219,99.553l10.289-2.924a.67.67,0,0,0,.462-.829l-6.081-21.411a.671.671,0,0,0-.83-.463L184.77,76.849a9.786,9.786,0,0,0-6.042,5.006,11.025,11.025,0,0,0-.767,8.106l.574,2.019a11.026,11.026,0,0,0,4.913,6.492,10.1,10.1,0,0,0,3.8,1.358,9.612,9.612,0,0,0,3.972-.275m9.277-4.032-9.643,2.739a8.45,8.45,0,0,1-6.713-.941,9.69,9.69,0,0,1-4.312-5.707l-.574-2.019a9.692,9.692,0,0,1,.668-7.122,8.451,8.451,0,0,1,5.216-4.329l9.643-2.74Z" transform="translate(-7.525 2.799)" fill="#000201"/>
              <path id="Trazado_998854" data-name="Trazado 998854" d="M161.366,177h0c-4.857,1.379-10.1-2.1-11.712-7.776l-15.76-55.481c-1.612-5.674,1.018-11.393,5.875-12.772s10.1,2.1,11.712,7.776l15.76,55.482c1.612,5.674-1.018,11.393-5.875,12.772" transform="translate(72.53 3.812)" fill="#000201"/>
              <path id="Trazado_998855" data-name="Trazado 998855" d="M161.578,177.666h0c5.206-1.479,8.048-7.581,6.338-13.6l-15.76-55.482c-1.711-6.022-7.336-9.717-12.542-8.239a9.134,9.134,0,0,0-5.79,5.141,12.247,12.247,0,0,0-.548,8.462l15.76,55.48a12.252,12.252,0,0,0,4.913,6.909A9.8,9.8,0,0,0,158,177.911a8.671,8.671,0,0,0,3.581-.245m-10.713-68.715,15.76,55.482c1.507,5.308-.922,10.665-5.414,11.942a7.812,7.812,0,0,1-6.518-1.156,10.9,10.9,0,0,1-4.365-6.158l-15.76-55.48a10.9,10.9,0,0,1,.475-7.532,7.812,7.812,0,0,1,4.938-4.411,7.273,7.273,0,0,1,3.016-.2c3.482.488,6.694,3.39,7.867,7.516m10.543,68.071-.012,0Z" transform="translate(72.502 3.788)" fill="#000201"/>
              <path id="Trazado_998856" data-name="Trazado 998856" d="M171.991,107.322l-18.819,5.346a7.419,7.419,0,0,1-9.163-5.109l-1.191-4.2a7.418,7.418,0,0,1,5.108-9.162l18.82-5.346a7.418,7.418,0,0,1,9.162,5.109l1.191,4.2a7.417,7.417,0,0,1-5.108,9.162" transform="translate(53.403 3.354)" fill="#fff9f3"/>
              <path id="Trazado_998857" data-name="Trazado 998857" d="M153.377,113.339l18.819-5.346A8.09,8.09,0,0,0,177.767,98l-1.191-4.2a8.1,8.1,0,0,0-9.992-5.571l-18.821,5.345a8.1,8.1,0,0,0-5.57,9.994l1.191,4.2a8.075,8.075,0,0,0,9.993,5.571m21.907-19.166,1.19,4.2a6.753,6.753,0,0,1-4.647,8.333l-18.819,5.345a6.744,6.744,0,0,1-8.333-4.646l-1.193-4.2a6.755,6.755,0,0,1,4.647-8.333l18.82-5.346a6.75,6.75,0,0,1,8.334,4.647" transform="translate(53.382 3.33)" fill="#000201"/>
              <path id="Trazado_998858" data-name="Trazado 998858" d="M197.505,99.516l-21.626,6.143c-10.566,3-21.723-3.691-24.919-14.946l-1.206-4.244c-3.2-11.256,2.776-22.813,13.342-25.815l21.625-6.143Z" transform="translate(26.681 2.064)" fill="#f381d8"/>
              <path id="Trazado_998859" data-name="Trazado 998859" d="M176.092,106.329l21.625-6.143a.67.67,0,0,0,.462-.829L185.4,54.352a.67.67,0,0,0-.829-.463l-21.626,6.143A19.833,19.833,0,0,0,150.7,70.181a22.429,22.429,0,0,0-1.558,16.495l1.2,4.245a21.941,21.941,0,0,0,17.729,15.958,19.411,19.411,0,0,0,8.021-.55M196.7,99.078l-20.98,5.959c-10.2,2.9-21-3.6-24.091-14.484l-1.2-4.244a21.1,21.1,0,0,1,1.46-15.511,18.491,18.491,0,0,1,11.42-9.474l20.98-5.96Z" transform="translate(26.653 2.04)" fill="#050004"/>
              <path id="Trazado_998860" data-name="Trazado 998860" d="M75.631,56.438h0l12.784,45.005a76.294,76.294,0,0,1,50.125,3.243L164.45,114.91,132.755,3.619,116.567,27.328a76.294,76.294,0,0,1-40.936,29.11" transform="translate(135.772 0.137)" fill="#f8eee2"/>
              <path id="Trazado_998861" data-name="Trazado 998861" d="M164.926,115.432a.669.669,0,0,0,.194-.681L133.426,3.459a.675.675,0,0,0-.538-.479.706.706,0,0,0-.663.285L116.046,26.958A75.255,75.255,0,0,1,75.473,55.816a.672.672,0,0,0-.462.83l12.783,45.005a.667.667,0,0,0,.829.462,75.281,75.281,0,0,1,49.7,3.222l25.909,10.224a.663.663,0,0,0,.153.04.672.672,0,0,0,.545-.168M88.9,100.641,76.485,56.922A76.649,76.649,0,0,0,117.146,27.73L132.528,5.205l30.929,108.6-24.634-9.72a80.878,80.878,0,0,0-19.614-5.373A74.831,74.831,0,0,0,88.9,100.641" transform="translate(135.747 0.113)" fill="#000201"/>
              <path id="Trazado_998862" data-name="Trazado 998862" d="M75.631,56.438h0l12.784,45.005a76.294,76.294,0,0,1,50.125,3.243L164.45,114.91,132.755,3.619,116.567,27.328a76.294,76.294,0,0,1-40.936,29.11" transform="translate(135.772 0.137)" fill="#f38200"/>
              <path id="Trazado_998863" data-name="Trazado 998863" d="M164.926,115.432a.669.669,0,0,0,.194-.681L133.426,3.459a.675.675,0,0,0-.538-.479.706.706,0,0,0-.663.285L116.046,26.958A75.255,75.255,0,0,1,75.473,55.816a.672.672,0,0,0-.462.83l12.783,45.005a.667.667,0,0,0,.829.462,75.281,75.281,0,0,1,49.7,3.222l25.909,10.224a.663.663,0,0,0,.153.04.672.672,0,0,0,.545-.168M88.9,100.641,76.485,56.922A76.649,76.649,0,0,0,117.146,27.73L132.528,5.205l30.929,108.6-24.634-9.72a80.878,80.878,0,0,0-19.614-5.373A74.831,74.831,0,0,0,88.9,100.641" transform="translate(135.747 0.113)" fill="#050004"/>
              <path id="Trazado_998864" data-name="Trazado 998864" d="M107.508,52.453c9.189,31.578,7.617,59.71-3.513,62.834s-27.6-19.942-36.789-51.519S59.588,4.057,70.718.933s27.6,19.942,36.789,51.52" transform="translate(201.685 0.025)" fill="#fff"/>
              <path id="Trazado_998865" data-name="Trazado 998865" d="M104.2,115.959c2.472-.693,4.543-2.516,6.154-5.417,5.8-10.442,4.925-33.852-2.175-58.252C98.744,19.872,82.224-2.962,70.562.312c-2.472.694-4.543,2.517-6.154,5.418-5.8,10.442-4.925,33.851,2.175,58.251,8.5,29.2,22.743,50.619,34.008,52.2a8.725,8.725,0,0,0,3.608-.218m2.688-63.293h0c7.008,24.078,7.927,47.074,2.291,57.222-1.43,2.577-3.228,4.185-5.34,4.777a7.551,7.551,0,0,1-3.12.186C90.15,113.368,76.1,91.89,67.874,63.6c-7.008-24.078-7.927-47.074-2.291-57.222,1.43-2.577,3.228-4.184,5.34-4.777a7.554,7.554,0,0,1,3.121-.186C84.612,2.9,98.657,24.382,106.887,52.667" transform="translate(201.662 0)" fill="#000201"/>
              <path id="Trazado_998866" data-name="Trazado 998866" d="M102,53.2c7.162,24.825,6.7,46.715-1.027,48.892S81.17,85.913,74.008,61.088,67.3,14.374,75.035,12.2,94.837,28.379,102,53.2" transform="translate(200.101 0.455)" fill="#000201"/>
            </g>
          </g>
          <g id="Grupo_1164225" data-name="Grupo 1164225" transform="translate(269.023 12.476)">
            <g id="Grupo_1164224" data-name="Grupo 1164224" transform="translate(0)" clip-path="url(#clip-path-6)">
              <path id="Trazado_998867" data-name="Trazado 998867" d="M114.7,57.539c6.973,24.169,6.525,45.481-1,47.6S94.421,89.384,87.448,65.215s-6.526-45.481,1-47.6S107.726,33.37,114.7,57.539" transform="translate(-95.577 -11.816)" fill="#000201"/>
              <path id="Trazado_998868" data-name="Trazado 998868" d="M84.632,52.147l14.631-4.071c5.976-1.663,12.513,2.867,14.6,10.115s-1.065,14.473-7.04,16.136L92.192,78.4Z" transform="translate(-92.652 -10.669)" fill="#7c55ff"/>
              <path id="Trazado_998869" data-name="Trazado 998869" d="M92.4,79.069,107.028,75a10.68,10.68,0,0,0,6.416-5.212,15.474,15.474,0,0,0,1.091-11.756c-2.188-7.591-9.111-12.335-15.426-10.577L84.478,51.524a.666.666,0,0,0-.407.32.673.673,0,0,0-.06.514l7.561,26.251a.673.673,0,0,0,.552.479.658.658,0,0,0,.273-.019m7.071-30.321c5.617-1.563,11.791,2.77,13.776,9.654a14.136,14.136,0,0,1-.971,10.73,9.353,9.353,0,0,1-5.6,4.573L92.679,77.6,85.49,52.636Z" transform="translate(-92.677 -10.693)" fill="#050004"/>
              <path id="Trazado_998870" data-name="Trazado 998870" d="M84.728,60.645h0a8.734,8.734,0,0,1,1.185-7.227,10.517,10.517,0,0,1,2.776,5.171,11.644,11.644,0,0,1-.478,7.182,7.685,7.685,0,0,1-3.483-5.126" transform="translate(-66.984 -10.453)" fill="#fff"/>
              <path id="Trazado_998871" data-name="Trazado 998871" d="M88.461,66.428a.669.669,0,0,0,.393-.365,12.347,12.347,0,0,0,.516-7.6,11.245,11.245,0,0,0-2.964-5.5.661.661,0,0,0-.511-.185.671.671,0,0,0-.481.252,9.354,9.354,0,0,0-1.313,7.8h0a8.363,8.363,0,0,0,3.824,5.565.674.674,0,0,0,.22.071.655.655,0,0,0,.316-.032m-3.052-5.913a8.624,8.624,0,0,1,.618-5.995,10.357,10.357,0,0,1,2.037,4.247,11.338,11.338,0,0,1-.159,6.016,7.607,7.607,0,0,1-2.5-4.268" transform="translate(-67.011 -10.478)" fill="#050004"/>
            </g>
          </g>
          <g id="Grupo_1164233" data-name="Grupo 1164233">
            <g id="Grupo_1164232" data-name="Grupo 1164232" clip-path="url(#clip-path-2)">
              <path id="Trazado_998873" data-name="Trazado 998873" d="M149.256,53.07l12.585,45.34-4.529,1.011-12.8-44.856Z" transform="translate(66.894 2.01)" fill="#fff9f3"/>
              <path id="Trazado_998874" data-name="Trazado 998874" d="M157.481,100.1l4.53-1.011a.673.673,0,0,0,.5-.835L149.927,52.916a.674.674,0,0,0-.849-.462l-4.746,1.495a.672.672,0,0,0-.444.826l12.8,44.856a.673.673,0,0,0,.552.481.692.692,0,0,0,.24-.009m-8.663-46.157L161.03,97.934l-3.223.718L145.358,55.034Z" transform="translate(66.87 1.985)" fill="#000201"/>
              <path id="Trazado_998875" data-name="Trazado 998875" d="M160.042,115.1l.087.165a5.006,5.006,0,0,1-2.621,6.9L141.67,129.19a5.862,5.862,0,0,1-7.5-2.409l-.086-.164a5,5,0,0,1,2.62-6.9l15.841-7.028a5.859,5.859,0,0,1,7.5,2.41" transform="translate(79.45 4.248)" fill="#fff"/>
              <path id="Trazado_998876" data-name="Trazado 998876" d="M139.274,130.483a6.728,6.728,0,0,0,2.73-.576l15.84-7.027a6.108,6.108,0,0,0,3.309-3.523,5.514,5.514,0,0,0-.326-4.414l-.088-.167a6.618,6.618,0,0,0-8.474-2.748l-15.84,7.027a6.1,6.1,0,0,0-3.311,3.524,5.507,5.507,0,0,0,.329,4.416l.085.164a6.46,6.46,0,0,0,5.747,3.324m15.738-17.527a4.917,4.917,0,0,1,4.388,2.521v0l.087.165a4.018,4.018,0,0,1,.238,3.215,4.522,4.522,0,0,1-2.5,2.639l-15.839,7.027a5.086,5.086,0,0,1-6.526-2.071l-.086-.162a4.022,4.022,0,0,1-.239-3.218,4.526,4.526,0,0,1,2.5-2.64l15.841-7.028a5.262,5.262,0,0,1,2.134-.45m5.058,2.171h0Z" transform="translate(79.422 4.221)" fill="#050004"/>
              <path id="Trazado_998877" data-name="Trazado 998877" d="M164.741,105.586l.086.163a5,5,0,0,1-2.619,6.9l-15.837,7.026a5.866,5.866,0,0,1-7.5-2.408l-.086-.163a5,5,0,0,1,2.616-6.9l15.841-7.028a5.865,5.865,0,0,1,7.5,2.409" transform="translate(69.875 3.888)" fill="#fff"/>
              <path id="Trazado_998878" data-name="Trazado 998878" d="M143.975,120.966a6.732,6.732,0,0,0,2.731-.575l15.837-7.026a6.1,6.1,0,0,0,3.309-3.525,5.505,5.505,0,0,0-.33-4.415l-.084-.162v0a6.62,6.62,0,0,0-8.476-2.747l-15.841,7.028a6.094,6.094,0,0,0-3.309,3.524,5.5,5.5,0,0,0,.331,4.415l.084.162a6.463,6.463,0,0,0,5.75,3.323m20.123-15,.086.163a4.023,4.023,0,0,1,.241,3.218,4.525,4.525,0,0,1-2.5,2.64l-15.836,7.026a5.088,5.088,0,0,1-6.53-2.068l-.084-.162a4.011,4.011,0,0,1-.243-3.218,4.524,4.524,0,0,1,2.5-2.639l15.841-7.028a5.085,5.085,0,0,1,6.525,2.068" transform="translate(69.848 3.861)" fill="#050004"/>
              <path id="Trazado_998879" data-name="Trazado 998879" d="M153.3,125.275l.023.044a4.941,4.941,0,0,1-2.585,6.813l-10.805,4.794a5.788,5.788,0,0,1-7.407-2.379l-.024-.045a4.943,4.943,0,0,1,2.587-6.813l10.8-4.793a5.791,5.791,0,0,1,7.408,2.379" transform="translate(87.891 4.635)" fill="#fff"/>
              <path id="Trazado_998880" data-name="Trazado 998880" d="M137.575,138.212a6.631,6.631,0,0,0,2.692-.568l10.805-4.794a6.037,6.037,0,0,0,3.273-3.484A5.451,5.451,0,0,0,154.02,125l-.024-.045a6.547,6.547,0,0,0-8.382-2.717l-10.8,4.793a6.037,6.037,0,0,0-3.273,3.484,5.459,5.459,0,0,0,.323,4.369,6.425,6.425,0,0,0,5.715,3.331m10.758-15.042a4.852,4.852,0,0,1,4.328,2.485v0l.024.044a3.952,3.952,0,0,1,.235,3.167,4.462,4.462,0,0,1-2.461,2.6l-10.805,4.794a5.014,5.014,0,0,1-6.433-2.04,3.988,3.988,0,0,1-.257-3.214,4.459,4.459,0,0,1,2.461-2.6l10.8-4.794a5.192,5.192,0,0,1,2.1-.444" transform="translate(87.864 4.608)" fill="#050004"/>
              <path id="Trazado_998881" data-name="Trazado 998881" d="M143.473,134.3l.085.163a5,5,0,0,1-2.619,6.9l-5.346,2.372a5.867,5.867,0,0,1-7.5-2.407l-.086-.164a5,5,0,0,1,2.616-6.9l5.351-2.374a5.862,5.862,0,0,1,7.5,2.409" transform="translate(102.331 4.976)" fill="#fff"/>
              <path id="Trazado_998882" data-name="Trazado 998882" d="M133.2,145.028a6.731,6.731,0,0,0,2.731-.575l5.345-2.373a6.1,6.1,0,0,0,3.31-3.523,5.507,5.507,0,0,0-.329-4.416l-.086-.164a6.621,6.621,0,0,0-8.475-2.748l-5.352,2.375a6.1,6.1,0,0,0-3.309,3.525,5.5,5.5,0,0,0,.332,4.414l.085.163a6.459,6.459,0,0,0,5.749,3.322m5.243-12.869a4.923,4.923,0,0,1,4.391,2.519h0l.086.163a4.022,4.022,0,0,1,.239,3.218,4.527,4.527,0,0,1-2.5,2.64l-5.345,2.372a5.092,5.092,0,0,1-6.53-2.068l-.085-.163a4.014,4.014,0,0,1-.242-3.216,4.522,4.522,0,0,1,2.5-2.64l5.352-2.375a5.253,5.253,0,0,1,2.135-.45m5.06,2.169h0Z" transform="translate(102.305 4.948)" fill="#050004"/>
              <path id="Trazado_998883" data-name="Trazado 998883" d="M177.346,123.22s1.176-5.936,1.707-8.428c.564-2.641,1.117-5.45.192-7.987s-3.946-4.505-6.368-3.311c-2.383,1.175-5.639,12.216-6.783,14.869" transform="translate(26.593 3.906)" fill="#fff"/>
              <path id="Trazado_998884" data-name="Trazado 998884" d="M178.114,123.395s1.174-5.929,1.706-8.417,1.189-5.584.162-8.4a6.66,6.66,0,0,0-3.665-3.791,4.55,4.55,0,0,0-3.747.062c-1.919.945-3.843,6.036-5.98,12.094-.478,1.354-.891,2.524-1.161,3.152a.755.755,0,0,0,1.386.6c.293-.676.692-1.811,1.2-3.249,1.2-3.406,3.7-10.492,5.225-11.243a3.051,3.051,0,0,1,2.517-.013,5.168,5.168,0,0,1,2.807,2.907c.879,2.412.27,5.272-.221,7.571-.532,2.494-1.709,8.438-1.709,8.438Z" transform="translate(26.564 3.878)" fill="#050004"/>
              <path id="Trazado_998885" data-name="Trazado 998885" d="M168.378,137.2a.819.819,0,0,0,.1-.006.756.756,0,0,0,.65-.847c-.609-4.63,2.091-14.5,2.119-14.6a.756.756,0,0,0-1.457-.4c-.115.417-2.807,10.266-2.16,15.2a.755.755,0,0,0,.747.657" transform="translate(33.567 4.575)" fill="#000201"/>
              <path id="Trazado_998886" data-name="Trazado 998886" d="M167.287,325.653l5.4-121.634c1.978-25.631,20.873-46.524,45.709-50.417,16.564-2.6,34.364-4.867,46.106-4.9,16.288-.043,34.457-.255,49.523,6.919,14.031,6.683,17.8,21.168,19.046,35.468.226,2.593,12.371,139.216,12.371,139.216l-174.107.173c-2.553.158-4.158-2.273-4.045-4.828" transform="translate(-140.337 5.631)" fill="#f34919"/>
              <path id="Trazado_998887" data-name="Trazado 998887" d="M171.12,331.272c.094,0,.191,0,.286-.008l174.061-.173a.756.756,0,0,0,.75-.821s-12.144-136.622-12.371-139.216c-1.139-13.024-4.381-28.894-19.473-36.083-14.888-7.091-32.9-7.041-48.77-7l-1.081,0c-10.065.027-25.616,1.677-46.22,4.906-25.271,3.962-44.329,24.977-46.346,51.1l-5.4,121.659a5.855,5.855,0,0,0,1.6,4.4,4.13,4.13,0,0,0,2.958,1.223m173.522-1.69-173.284.172a2.658,2.658,0,0,1-2.137-.782,4.333,4.333,0,0,1-1.153-3.257l5.4-121.636c1.962-25.4,20.5-45.851,45.072-49.7,20.529-3.217,36-4.861,45.99-4.888l1.081,0c15.726-.047,33.538-.093,48.118,6.85,14.4,6.858,17.513,22.227,18.617,34.851.217,2.475,11.291,127.07,12.3,138.4" transform="translate(-140.366 5.604)" fill="#050004"/>
              <g id="Grupo_1164228" data-name="Grupo 1164228" transform="translate(26.189 153.571)" opacity="0.24">
                <g id="Grupo_1164227" data-name="Grupo 1164227">
                  <g id="Grupo_1164226" data-name="Grupo 1164226" clip-path="url(#clip-path-8)">
                    <path id="Trazado_998888" data-name="Trazado 998888" d="M171.12,331.272c.094,0,.191,0,.286-.008l174.061-.173a.756.756,0,0,0,.75-.821s-12.144-136.622-12.371-139.216c-1.139-13.024-4.381-28.894-19.473-36.083-14.888-7.091-32.9-7.041-48.77-7l-1.081,0c-10.065.027-25.616,1.677-46.22,4.906-25.271,3.962-44.329,24.977-46.346,51.1l-5.4,121.659a5.855,5.855,0,0,0,1.6,4.4,4.13,4.13,0,0,0,2.958,1.223m173.522-1.69-173.284.172a2.658,2.658,0,0,1-2.137-.782,4.333,4.333,0,0,1-1.153-3.257l5.4-121.636c1.962-25.4,20.5-45.851,45.072-49.7,20.529-3.217,36-4.861,45.99-4.888l1.081,0c15.726-.047,33.538-.093,48.118,6.85,14.4,6.858,17.513,22.227,18.617,34.851.217,2.475,11.291,127.07,12.3,138.4" transform="translate(-166.555 -147.967)" fill="#050004"/>
                  </g>
                </g>
              </g>
              <path id="Trazado_998889" data-name="Trazado 998889" d="M242.983,175.832c-15.105.35-27.276-9.117-27.945-20.856l-.293-5.133c-.189-3.328,3.042-6.264,7.311-6.634,5.83-.5,11.183-.837,15.651-.908,8.415-.134,17.331-.3,26.048.286,3.854.26,6.782,2.717,6.954,5.731l.235,4.128c.7,12.327-11.928,23.015-27.961,23.386" transform="translate(-115.126 5.384)" fill="#7c55ff"/>
              <path id="Trazado_998890" data-name="Trazado 998890" d="M242.189,176.625c.28,0,.559,0,.841-.009,9.219-.214,17.644-3.734,23.112-9.659a19.8,19.8,0,0,0,5.586-14.524l-.235-4.128c-.2-3.447-3.417-6.156-7.656-6.442-8.445-.572-16.98-.434-25.229-.3l-.883.015c-4.22.067-9.5.373-15.7.91-4.7.407-8.214,3.671-8,7.429l.293,5.133c.7,12.223,12.868,21.576,27.875,21.577m7.376-33.671c4.714,0,9.46.1,14.169.415,3.414.23,6.1,2.389,6.252,5.021l.235,4.127a18.076,18.076,0,0,1-5.188,13.414c-5.193,5.625-13.226,8.969-22.038,9.174-14.315.314-26.521-8.7-27.174-20.143l-.292-5.134c-.164-2.888,2.807-5.508,6.622-5.839,6.166-.533,11.414-.838,15.6-.9l.883-.015c3.6-.058,7.258-.116,10.933-.116" transform="translate(-115.155 5.357)" fill="#050004"/>
              <path id="Trazado_998891" data-name="Trazado 998891" d="M227.324,96.443c5.25-7.748,7.289-16.209,7.757-25.421.481-9.466-.036-19.788,4.743-28.349,5.5-9.858,17.97-13.574,29.259-13.673,13.831-.119,31.727,6.662,32.376,22.655a32.6,32.6,0,0,1-.421,6.472A40.2,40.2,0,0,1,327.2,47.844l1.66-.03a40.368,40.368,0,0,1,1.493,80.722l-1.66.031a40.368,40.368,0,0,1-41.108-39.615h0a40.52,40.52,0,0,1,.615-7.812,33.792,33.792,0,0,1-9.242,5.824c-4.047,1.682-8.538,2.713-11.765,5.678-4,3.68-5.137,9.457-7.807,14.195-4.637,8.234-14.252,13.106-23.7,12.937s-18.507-5-24.718-12.123c7.337.385,12.6-5.664,16.358-11.206" transform="translate(-210.212 1.098)" fill="#000201"/>
              <path id="Trazado_998892" data-name="Trazado 998892" d="M327.951,129.357c.262,0,.521,0,.782-.007l1.661-.03a41.124,41.124,0,0,0-.749-82.241c-.257,0-.513,0-.771.007l-1.662.031A41.106,41.106,0,0,0,302.074,56.3a31.9,31.9,0,0,0,.167-4.652c-.7-17.2-19.856-23.38-32.787-23.38l-.35,0c-13.883.121-25.065,5.376-29.913,14.059-4.1,7.345-4.382,15.846-4.657,24.069-.051,1.552-.1,3.092-.18,4.611-.518,10.161-2.942,18.117-7.628,25.035-3.286,4.849-8.495,11.279-15.694,10.875a.755.755,0,0,0-.608,1.251c6.615,7.59,16.063,12.219,25.273,12.383.161,0,.324,0,.486,0,9.821,0,19.374-5.311,23.888-13.325a50.22,50.22,0,0,0,2.429-5.214c1.4-3.34,2.729-6.5,5.231-8.8,2.3-2.111,5.252-3.188,8.377-4.329,1.066-.389,2.132-.777,3.169-1.208a33.875,33.875,0,0,0,7.908-4.674,41.3,41.3,0,0,0-.327,5.979,41.125,41.125,0,0,0,41.094,40.364m1.692-80.767a39.613,39.613,0,0,1,.724,79.22l-1.661.03a39.611,39.611,0,0,1-40.34-38.872,40.043,40.043,0,0,1,.6-7.67.754.754,0,0,0-1.239-.7,32.936,32.936,0,0,1-9.036,5.694c-1.016.422-2.06.8-3.105,1.185-3.126,1.14-6.36,2.32-8.879,4.635-2.747,2.524-4.2,5.98-5.6,9.322a49.081,49.081,0,0,1-2.352,5.059c-4.324,7.677-13.586,12.745-23.031,12.552-8.283-.148-16.783-4.1-23.042-10.637,7.05-.557,12.06-6.743,15.294-11.514,4.847-7.156,7.354-15.355,7.885-25.806.079-1.527.13-3.076.182-4.637.269-8.042.546-16.358,4.467-23.383,4.58-8.2,15.272-13.169,28.6-13.285h.34c12.344,0,30.62,5.793,31.275,21.931a31.776,31.776,0,0,1-.412,6.322.756.756,0,0,0,1.251.682,39.586,39.586,0,0,1,25.67-10.09L328.9,48.6c.248,0,.5-.006.742-.006" transform="translate(-210.239 1.071)" fill="#000201"/>
              <path id="Trazado_998893" data-name="Trazado 998893" d="M220.2,92.926a20.129,20.129,0,0,0,11.679,4.208l-1.025-.061s2.677,7.69,2.685,7.712a26.522,26.522,0,0,1,2.777-1.072,5.641,5.641,0,0,0,2.632-2.442c1.319-2.507.278-6.415.056-9.146-.05-.622-.862-5.764-.13-6.056,5.389-2.147,15.427-5.075,19.284-9.192,4.321-4.613,6.787-11.249,5.829-17.166,8.76,16.529,17.888,13.732,17.908,13.821,1.134,4.916,1,6.365,1.782,10.624,0,0,3.518,23,3.571,23.5a29.84,29.84,0,0,1-16.038,29.6l.6,10.5a20.074,20.074,0,1,1-40.082,2.294l-1.473-25.733a30.721,30.721,0,0,1-1.946-2.913,14.873,14.873,0,1,1-8.111-28.48" transform="translate(-124.614 2.261)" fill="#fff"/>
              <path id="Trazado_998894" data-name="Trazado 998894" d="M251.777,169.762q.606,0,1.216-.035A20.852,20.852,0,0,0,272.6,147.744l-.573-10.014a30.757,30.757,0,0,0,16.008-30.122c-.053-.505-3.214-21.183-3.575-23.54-.32-1.728-.486-2.982-.645-4.194a60.375,60.375,0,0,0-1.149-6.485.89.89,0,0,0-.982-.56c-2.13.349-9.646.422-17-13.444a.754.754,0,0,0-1.411.474c.881,5.446-1.331,11.932-5.637,16.529-2.927,3.125-9.678,5.576-15.1,7.547-1.442.523-2.778,1.009-3.91,1.46-.91.362-1,1.7-.413,6.237.035.281.062.487.071.581.052.649.149,1.363.252,2.109.316,2.3.674,4.914-.225,6.624a4.872,4.872,0,0,1-2.289,2.113c-.089.038-.385.139-.744.265-.512.176-.932.324-1.269.451-.488-1.4-1.5-4.295-2.043-5.862a.755.755,0,0,0-.011-1.506l-1.026-.061a.386.386,0,0,0-.06,0,19.29,19.29,0,0,1-10.175-3.99.78.78,0,0,0-.6-.146,15.631,15.631,0,0,0,5.69,30.74,15.336,15.336,0,0,0,2.232-.593c.471.765.985,1.522,1.532,2.259l1.46,25.508a20.83,20.83,0,0,0,20.766,19.639M281.344,74.39c.552,2.492.757,4.045.971,5.681.164,1.231.332,2.5.655,4.249,1.2,7.877,3.506,22.949,3.563,23.448A29.236,29.236,0,0,1,270.9,136.616a.749.749,0,0,0-.408.714l.6,10.5a19.318,19.318,0,0,1-38.574,2.208L231.044,124.3a.745.745,0,0,0-.15-.411,30.732,30.732,0,0,1-1.9-2.844.753.753,0,0,0-.924-.32,14.346,14.346,0,0,1-2.559.734,14.12,14.12,0,0,1-5.463-27.7,20.755,20.755,0,0,0,10.287,4.051c.574,1.65,2.486,7.141,2.522,7.245h0a.753.753,0,0,0,.951.472.74.74,0,0,0,.265-.15c.3-.139,1.234-.465,1.7-.628.445-.155.806-.282.9-.327a6.417,6.417,0,0,0,2.975-2.773c1.125-2.137.733-5,.385-7.532-.1-.716-.192-1.4-.244-2.026-.008-.107-.038-.338-.078-.652a19.64,19.64,0,0,1-.312-4.725c1.073-.423,2.318-.875,3.652-1.36,5.578-2.025,12.516-4.546,15.691-7.935a22.676,22.676,0,0,0,6.232-14.487c6.771,11,13.61,11.7,16.368,11.457" transform="translate(-124.643 2.234)" fill="#050004"/>
              <path id="Trazado_998895" data-name="Trazado 998895" d="M240.341,137.09a29.8,29.8,0,0,0,6.644-2.31c.12,4.552.389,12.145.853,12.558,0,0-14.321,2.058-24.354-11.531a29.63,29.63,0,0,0,16.856,1.283" transform="translate(-101.07 5.104)" fill="#000201"/>
              <path id="Trazado_998896" data-name="Trazado 998896" d="M245.912,148.219a16.974,16.974,0,0,0,2.062-.1.756.756,0,0,0,.512-1.179c-.1-.3-.451-2.073-.718-12.146a.755.755,0,0,0-1.083-.661,28.706,28.706,0,0,1-22.9,1,.755.755,0,0,0-.876,1.154,28.424,28.424,0,0,0,23.008,11.934m1-1.532a26.665,26.665,0,0,1-21.206-9.326,30.121,30.121,0,0,0,20.586-1.389,102.57,102.57,0,0,0,.62,10.715" transform="translate(-101.098 5.077)" fill="#000201"/>
              <path id="Trazado_998897" data-name="Trazado 998897" d="M235.092,96.308a2.45,2.45,0,1,1-2.349-2.546,2.449,2.449,0,0,1,2.349,2.546" transform="translate(-95.288 3.551)" fill="#000201"/>
              <path id="Trazado_998898" data-name="Trazado 998898" d="M216.511,92.9a2.173,2.173,0,1,1-2.084-2.258,2.172,2.172,0,0,1,2.084,2.258" transform="translate(-57.996 3.433)" fill="#000201"/>
              <path id="Trazado_998899" data-name="Trazado 998899" d="M243.993,84.924a6.232,6.232,0,0,1-2.321,1.288c-.877.34-1.75.706-2.5,1.051s-1.6.772-2.429,1.219a6.118,6.118,0,0,1-2.471.921c-.763.012-1.368-.682-1.03-2.034a7.43,7.43,0,0,1,4.2-4.376c2.478-1.134,4.765-.923,5.863-.265,1.154.665,1.213,1.61.683,2.2" transform="translate(-107.578 3.113)" fill="#000201"/>
              <path id="Trazado_998900" data-name="Trazado 998900" d="M210.1,83.094a5.425,5.425,0,0,0,2.241.682c.821.131,1.643.282,2.352.442s1.522.369,2.323.6a5.362,5.362,0,0,0,2.306.333c.665-.133,1.07-.85.542-1.962a6.451,6.451,0,0,0-4.411-3.009,6.025,6.025,0,0,0-5.142.875c-.886.8-.773,1.628-.211,2.036" transform="translate(-58.982 3.029)" fill="#000201"/>
              <path id="Trazado_998901" data-name="Trazado 998901" d="M229.609,106.738a1.987,1.987,0,0,1,2.44-.089,13.564,13.564,0,0,0,8.07,2.438,1.408,1.408,0,0,1,1.275,1.878c-.626,1.967-2.585,5.13-7.759,3.5-6.305-1.99-5.806-6.163-4.026-7.723" transform="translate(-99.836 4.025)" fill="#fff"/>
              <path id="Trazado_998902" data-name="Trazado 998902" d="M236.337,115.7a6.045,6.045,0,0,0,5.8-4.48,2.269,2.269,0,0,0-.351-2.048,1.961,1.961,0,0,0-1.668-.813,12.788,12.788,0,0,1-7.614-2.3,2.734,2.734,0,0,0-3.37.141,4.363,4.363,0,0,0-1.336,4.13c.262,1.241,1.339,3.527,5.632,4.882a9.71,9.71,0,0,0,2.9.492m3.847-5.833a.5.5,0,0,1,.4.216.755.755,0,0,1,.117.678c-.558,1.75-2.177,4.469-6.813,3.007-2.638-.833-4.274-2.165-4.607-3.752a2.834,2.834,0,0,1,.851-2.684,1.233,1.233,0,0,1,1.513-.037,14.384,14.384,0,0,0,8.523,2.574h.017" transform="translate(-99.861 3.997)" fill="#000201"/>
              <path id="Trazado_998903" data-name="Trazado 998903" d="M217.24,106.854a.685.685,0,0,0,.13-.011l2.359-.407a5.876,5.876,0,0,0,3.858-2.238,5.707,5.707,0,0,0,1.151-4.3,2.75,2.75,0,0,0-1.095-1.846,2.82,2.82,0,0,0-2.086-.532l-2.214.3a.961.961,0,0,1-.7-.182.884.884,0,0,1-.347-.587l-1.283-7.269a.755.755,0,1,0-1.486.263l1.278,7.239a2.366,2.366,0,0,0,.925,1.558,2.434,2.434,0,0,0,1.821.474l2.214-.305a1.35,1.35,0,0,1,.979.249,1.264,1.264,0,0,1,.5.842,4.207,4.207,0,0,1-.851,3.168,4.385,4.385,0,0,1-2.894,1.669l-2.384.412a.755.755,0,0,0,.127,1.5" transform="translate(-69.75 3.377)" fill="#000201"/>
              <path id="Trazado_998904" data-name="Trazado 998904" d="M271.446,110.6a.749.749,0,0,0,.558-.248l3.223-3.552a.755.755,0,0,0-.143-1.138l-5.365-3.533a.755.755,0,1,0-.831,1.261l4.629,3.048-2.63,2.9a.755.755,0,0,0,.559,1.262" transform="translate(-175.425 3.863)" fill="#000201"/>
              <path id="Trazado_998905" data-name="Trazado 998905" d="M274.273,127a6.287,6.287,0,1,0-.7-.037,6.651,6.651,0,0,0,.7.037m-.017-11.086a4.533,4.533,0,0,1,.528.03,4.776,4.776,0,1,1-.528-.03" transform="translate(-179.948 4.333)" fill="#f38200"/>
              <path id="Trazado_998906" data-name="Trazado 998906" d="M159.016,236.332c6.45,15.385,16.573,25.807,22.608,23.276s5.7-17.054-.751-32.44-16.572-25.807-22.608-23.276-5.7,17.054.751,32.44" transform="translate(32.999 7.707)" fill="#000201"/>
              <path id="Trazado_998907" data-name="Trazado 998907" d="M179.712,260.769a5.7,5.7,0,0,0,2.23-.438c6.519-2.733,6.366-17.415-.347-33.428-3.154-7.526-7.279-14.128-11.614-18.59-4.5-4.636-8.754-6.442-11.982-5.09-6.518,2.733-6.365,17.417.347,33.428,3.155,7.526,7.28,14.129,11.615,18.591,3.526,3.63,6.9,5.527,9.751,5.527M160.22,204.3c2.415,0,5.475,1.765,8.68,5.064,4.205,4.33,8.22,10.766,11.3,18.122,6.173,14.723,6.7,29.126,1.155,31.452-2.571,1.08-6.335-.652-10.315-4.75-4.205-4.329-8.22-10.766-11.3-18.122-6.173-14.722-6.7-29.126-1.155-31.451a4.191,4.191,0,0,1,1.636-.314" transform="translate(32.971 7.68)" fill="#000201"/>
              <path id="Trazado_998908" data-name="Trazado 998908" d="M177.962,183.142l-26.257,1.9,1.178-10.922c.49-2.509-.08-4.763-2.2-6.187a7.471,7.471,0,0,0-11.015,3.229l-14.892,37.578c-4.643,11.718-6.614,33.86-3.7,45.607l17.721,9.587s16.357-24.152,20.835-24.082c2.442.038,5.436-1.109,7.8-1.7a47.481,47.481,0,0,0,9.025-3.087,10.744,10.744,0,0,0,3.284-2.191c2.988-3.176.648-8.652-3.876-8.069l-6.737.867c4.862-1.031,9.239-2.132,12.266-2.939a5.142,5.142,0,0,0,3.784-5.568,4.821,4.821,0,0,0-5.186-4.251L165.2,214.138a103.95,103.95,0,0,0,18.833-4.058,5.5,5.5,0,0,0,3.707-5.812l-.064-.591c-.317-2.958-2.989-6.2-5.947-5.879l-1.865.054a7.417,7.417,0,0,0-1.9-14.711" transform="translate(66.712 6.312)" fill="#fff"/>
              <path id="Trazado_998909" data-name="Trazado 998909" d="M138.807,264.716a.755.755,0,0,0,.626-.331c6.224-9.191,17.2-23.75,20.181-23.75.069,0,.1,0,.149,0a22.435,22.435,0,0,0,5.869-1.166c.693-.2,1.364-.4,1.991-.553a47.558,47.558,0,0,0,9.168-3.139,11.5,11.5,0,0,0,3.51-2.354,5.635,5.635,0,0,0,.912-6.49,5.212,5.212,0,0,0-2.9-2.589c1.243-.313,2.351-.6,3.284-.852a5.862,5.862,0,0,0,4.34-6.384,5.551,5.551,0,0,0-6-4.917l-.472.039c1.967-.505,3.561-.989,4.815-1.409a6.29,6.29,0,0,0,4.216-6.609l-.063-.588a8.254,8.254,0,0,0-2.186-4.606,6.285,6.285,0,0,0-2.747-1.77,8.183,8.183,0,0,0-5.6-14.832l-25.34,1.834,1.08-10.022c.577-2.939-.319-5.409-2.532-6.894a8.223,8.223,0,0,0-12.128,3.555l-14.9,37.6c-4.791,12.089-6.605,34.476-3.734,46.067a.76.76,0,0,0,.374.483l17.722,9.585a.752.752,0,0,0,.36.091m20.821-25.591c-4.489,0-17.576,18.737-21.06,23.848l-16.828-9.1c-2.7-11.438-.905-33.079,3.75-44.826l14.893-37.578a6.715,6.715,0,0,1,9.892-2.88c1.724,1.157,2.356,2.979,1.88,5.416l-1.187,10.985a.756.756,0,0,0,.805.833l26.258-1.9.029,0a6.662,6.662,0,0,1,1.706,13.213.755.755,0,0,0-.646.812.775.775,0,0,0,.774.691l1.865-.055a4.2,4.2,0,0,1,3.393,1.475,6.7,6.7,0,0,1,1.782,3.73l.063.59a4.714,4.714,0,0,1-3.2,5.016,103.236,103.236,0,0,1-18.694,4.026.754.754,0,0,0-.649.83.785.785,0,0,0,.812.67l14.793-1.22a4.052,4.052,0,0,1,4.374,3.585,4.361,4.361,0,0,1-3.228,4.752c-2.821.751-7.233,1.871-12.227,2.93a.754.754,0,0,0-.588.866.768.768,0,0,0,.84.623l6.737-.868a3.684,3.684,0,0,1,3.9,2.035,4.139,4.139,0,0,1-.666,4.769,10.163,10.163,0,0,1-3.059,2.026,46.149,46.149,0,0,1-8.882,3.035c-.646.161-1.336.361-2.051.57a21.9,21.9,0,0,1-5.557,1.1Z" transform="translate(66.699 6.284)" fill="#050004"/>
              <line id="Línea_2061" data-name="Línea 2061" y1="3.243" x2="23.75" transform="translate(224.404 203.889)" fill="#f9f8f6"/>
              <path id="Trazado_998910" data-name="Trazado 998910" d="M125.826,200.475a.841.841,0,0,0,.1-.006l23.75-3.244a.755.755,0,0,0-.2-1.5l-23.75,3.243a.755.755,0,0,0,.1,1.5" transform="translate(98.576 7.412)" fill="#000201"/>
              <line id="Línea_2062" data-name="Línea 2062" y1="2.671" x2="18.033" transform="translate(226.456 218.558)" fill="#f9f8f6"/>
              <path id="Trazado_998911" data-name="Trazado 998911" d="M129.357,214.036a.8.8,0,0,0,.112-.008l18.032-2.67a.755.755,0,0,0,.636-.857.768.768,0,0,0-.857-.636l-18.032,2.67a.755.755,0,0,0,.109,1.5" transform="translate(97.099 7.948)" fill="#000201"/>
              <line id="Línea_2063" data-name="Línea 2063" y1="2.515" x2="13.9" transform="translate(229.011 230.726)" fill="#f9f8f6"/>
              <path id="Trazado_998912" data-name="Trazado 998912" d="M130.877,225.6a.861.861,0,0,0,.136-.011l13.9-2.516a.755.755,0,0,0-.269-1.486l-13.9,2.515a.755.755,0,0,0,.133,1.5" transform="translate(98.132 8.392)" fill="#000201"/>
              <line id="Línea_2064" data-name="Línea 2064" y1="1.294" x2="10.423" transform="translate(212.304 191.009)" fill="#f9f8f6"/>
              <path id="Trazado_998913" data-name="Trazado 998913" d="M150.324,186.116a.578.578,0,0,0,.094-.006l10.423-1.293a.755.755,0,0,0-.187-1.5l-10.422,1.294a.755.755,0,0,0,.091,1.5" transform="translate(61.979 6.942)" fill="#000201"/>
              <path id="Trazado_998914" data-name="Trazado 998914" d="M207.173,166.83l18.663,61.891-23.921,7.191L304.578,205.73c2.449,21.946,8.53,40.783,24.789,55.725.36.331-18.083,7.849-18.538,8.029l-80.345,31.534a47.638,47.638,0,0,1-61.806-27.085l-9.8-25.207" transform="translate(-115.549 6.318)" fill="#f34919"/>
              <path id="Trazado_998915" data-name="Trazado 998915" d="M213.093,305.121a48.383,48.383,0,0,0,17.695-3.371l80.345-31.535c4.409-1.74,18.809-7.5,19.01-8.579a.782.782,0,0,0-.236-.708c-14.167-13.02-21.738-30.061-24.55-55.254a.762.762,0,0,0-.332-.545.75.75,0,0,0-.631-.094l-77.978,22.923L207.924,166.64a.755.755,0,0,0-1.446.436l18.445,61.168-23.2,6.974a.755.755,0,0,0,.43,1.447l101.8-29.929c2.884,24.661,10.381,41.588,24.2,54.624-3.336,1.628-16.318,6.954-17.575,7.45l-80.344,31.533a46.884,46.884,0,0,1-60.828-26.656l-9.8-25.206a.755.755,0,0,0-1.407.545l9.8,25.208a48.5,48.5,0,0,0,45.092,30.887" transform="translate(-115.577 6.291)" fill="#050004"/>
              <g id="Grupo_1164231" data-name="Grupo 1164231" transform="translate(42.574 172.394)" opacity="0.24">
                <g id="Grupo_1164230" data-name="Grupo 1164230">
                  <g id="Grupo_1164229" data-name="Grupo 1164229" clip-path="url(#clip-path-9)">
                    <path id="Trazado_998916" data-name="Trazado 998916" d="M213.093,305.121a48.383,48.383,0,0,0,17.695-3.371l80.345-31.535c4.409-1.74,18.809-7.5,19.01-8.579a.782.782,0,0,0-.236-.708c-14.167-13.02-21.738-30.061-24.55-55.254a.762.762,0,0,0-.332-.545.75.75,0,0,0-.631-.094l-77.978,22.923L207.924,166.64a.755.755,0,0,0-1.446.436l18.445,61.168-23.2,6.974a.755.755,0,0,0,.43,1.447l101.8-29.929c2.884,24.661,10.381,41.588,24.2,54.624-3.336,1.628-16.318,6.954-17.575,7.45l-80.344,31.533a46.884,46.884,0,0,1-60.828-26.656l-9.8-25.206a.755.755,0,0,0-1.407.545l9.8,25.208a48.5,48.5,0,0,0,45.092,30.887" transform="translate(-158.151 -166.103)" fill="#050004"/>
                  </g>
                </g>
              </g>
              <path id="Trazado_998917" data-name="Trazado 998917" d="M52.856,79.159,35.249,66.012l.232,5.947L19.956,65.905,39.694,80.5l.27-5.591Z" transform="translate(305.149 2.496)" fill="#ffd387"/>
              <path id="Trazado_998918" data-name="Trazado 998918" d="M19.551,65.458a.636.636,0,0,0,.049.983l19.736,14.6a.636.636,0,0,0,.652.062.629.629,0,0,0,.362-.543l.232-4.757,12.1,3.985a.636.636,0,0,0,.58-1.114L35.652,65.525a.635.635,0,0,0-1.016.535l.2,4.977-14.62-5.7a.638.638,0,0,0-.659.121M39.137,79.306,24.2,68.256l11.078,4.319a.637.637,0,0,0,.868-.619l-.183-4.613,13.41,10.012L40.186,74.33a.637.637,0,0,0-.559.079.647.647,0,0,0-.276.494Z" transform="translate(305.127 2.473)" fill="#050004"/>
              <path id="Trazado_998919" data-name="Trazado 998919" d="M66.154.852,49.612,13.288l5.436,1.362-9.58,12.432L63.885,13.106,58.9,11.381Z" transform="translate(265.373 0.032)" fill="#ffd387"/>
              <path id="Trazado_998920" data-name="Trazado 998920" d="M49.207,12.84a.636.636,0,0,0,.272,1.089l4.5,1.127L44.987,26.717a.636.636,0,0,0,.889.895L64.292,13.636a.636.636,0,0,0-.176-1.109l-4.192-1.45L66.7,1.237a.636.636,0,0,0-.906-.87L49.252,12.8a.4.4,0,0,0-.045.037m-.3,10.872,6.665-8.65a.637.637,0,0,0-.35-1.006l-4.143-1.039L63.438,3.731,58.4,11.043a.634.634,0,0,0,.316.962l3.858,1.336Z" transform="translate(265.351 0.009)" fill="#050004"/>
              <path id="Trazado_998921" data-name="Trazado 998921" d="M54.3,27.9,18.917,31.6l6.808,6.816L.614,48.271l39.5-4.315L34.3,37.008Z" transform="translate(323.784 1.057)" fill="#ffd387"/>
              <path id="Trazado_998922" data-name="Trazado 998922" d="M18.513,31.154a.635.635,0,0,0-.022.921L24.613,38.2.406,47.7a.636.636,0,0,0,.3,1.226l39.5-4.315a.637.637,0,0,0,.419-1.042l-5.282-6.305L54.584,28.5a.636.636,0,0,0-.329-1.212l-35.379,3.7a.638.638,0,0,0-.362.162m7.664,7.759a.637.637,0,0,0,.022-.922l-5.865-5.872L50.5,28.963,34.059,36.451a.637.637,0,0,0-.224.988l5.054,6.035L5.315,47.142l20.666-8.108a.643.643,0,0,0,.2-.121" transform="translate(323.76 1.033)" fill="#050004"/>
            </g>
          </g>
        </g>
      </g>
      <g id="Grupo_1157887" data-name="Grupo 1157887" transform="translate(394.654 284.152)">
        <g id="Grupo_1157885" data-name="Grupo 1157885" transform="translate(0 0)">
          <path id="Trazado_993020" data-name="Trazado 993020" d="M718.351,918.73H927.579a4.132,4.132,0,0,0,4.132-4.132V886.757a4.132,4.132,0,0,0-4.132-4.132H718.351a4.132,4.132,0,0,0-4.132,4.132V914.6A4.131,4.131,0,0,0,718.351,918.73Z" transform="translate(-713.533 -881.939)" fill="#f38200"/>
          <path id="Trazado_993021" data-name="Trazado 993021" d="M914.735,919.094H730.549a17.358,17.358,0,0,1-17.338-17.339v-2.8a17.358,17.358,0,0,1,17.338-17.338H914.737a17.358,17.358,0,0,1,17.339,17.338v2.8A17.36,17.36,0,0,1,914.735,919.094ZM730.549,882.988a15.984,15.984,0,0,0-15.967,15.967v2.8a15.985,15.985,0,0,0,15.967,15.967H914.737A15.986,15.986,0,0,0,930.7,901.755v-2.8a15.985,15.985,0,0,0-15.967-15.967Z" transform="translate(-713.211 -881.617)" fill="#050004"/>
        </g>
        <path id="Trazado_993022" data-name="Trazado 993022" d="M753.007,913.893h140.15a.752.752,0,0,0,.753-.753V896.773a.753.753,0,0,0-.753-.753H753.007a.753.753,0,0,0-.753.753v16.368A.753.753,0,0,0,753.007,913.893Z" transform="translate(-725.685 -886.219)" fill="#fff"/>
        <g id="Grupo_1157886" data-name="Grupo 1157886" transform="translate(181.274 9.736)">
          <path id="Trazado_993023" data-name="Trazado 993023" d="M994.132,909.523a6.8,6.8,0,1,1,6.8-6.8A6.8,6.8,0,0,1,994.132,909.523Zm0-12.142a5.342,5.342,0,1,0,5.343,5.342A5.349,5.349,0,0,0,994.132,897.381Z" transform="translate(-982.065 -895.924)" fill="#fff"/>
          <path id="Trazado_993024" data-name="Trazado 993024" d="M980.322,918.587a.729.729,0,0,1-.515-1.245l6.626-6.625a.729.729,0,0,1,1.031,1.031l-6.626,6.625A.727.727,0,0,1,980.322,918.587Z" transform="translate(-979.593 -900.582)" fill="#fff"/>
        </g>
      </g>
    </g>
  </g>
</svg>
