<svg xmlns="http://www.w3.org/2000/svg" xmlns:xlink="http://www.w3.org/1999/xlink" width="113" height="113" viewBox="0 0 113 113">
  <defs>
    <filter id="Trazado_982547" x="0" y="0" width="113" height="113" filterUnits="userSpaceOnUse">
      <feOffset dy="3" input="SourceAlpha"/>
      <feGaussianBlur stdDeviation="3" result="blur"/>
      <feFlood flood-opacity="0.161"/>
      <feComposite operator="in" in2="blur"/>
      <feComposite in="SourceGraphic"/>
    </filter>
  </defs>
  <g id="Grupo_1164410" data-name="Grupo 1164410" transform="translate(-902 -3183.67)">
    <g id="Grupo_1164204" data-name="Grupo 1164204" transform="translate(911 3189.67)">
      <g id="Grupo_1158168" data-name="Grupo 1158168" transform="translate(0)">
        <g id="Grupo_1152576" data-name="Grupo 1152576">
          <g id="Grupo_1148633" data-name="Grupo 1148633">
            <g id="Grupo_1148525" data-name="Grupo 1148525">
              <g transform="matrix(1, 0, 0, 1, -9, -6)" filter="url(#Trazado_982547)">
                <g id="Trazado_982547-2" data-name="Trazado 982547" transform="translate(9 6)" fill="#fbf2fb">
                  <path d="M 47.5 93.5 C 41.28937149047852 93.5 35.26533508300781 92.28397369384766 29.59518623352051 89.88570404052734 C 24.11771965026855 87.56893157958984 19.19813346862793 84.25196075439453 14.97309303283691 80.02691650390625 C 10.74804019927979 75.80186462402344 7.431066513061523 70.88229370117188 5.114293098449707 65.40481567382812 C 2.716026782989502 59.73468017578125 1.5 53.71062850952148 1.5 47.5 C 1.5 41.28937149047852 2.716026782989502 35.26533508300781 5.114293098449707 29.59518623352051 C 7.431066513061523 24.11771965026855 10.74804019927979 19.19813346862793 14.97309303283691 14.97309303283691 C 19.19813346862793 10.74804019927979 24.11771965026855 7.431066513061523 29.59518623352051 5.114293098449707 C 35.26533508300781 2.716026782989502 41.28937149047852 1.5 47.5 1.5 C 53.71062850952148 1.5 59.73468017578125 2.716026782989502 65.40481567382812 5.114293098449707 C 70.88229370117188 7.431066513061523 75.80186462402344 10.74804019927979 80.02691650390625 14.97309303283691 C 84.25196075439453 19.19813346862793 87.56893157958984 24.11771965026855 89.88570404052734 29.59518623352051 C 92.28397369384766 35.26533508300781 93.5 41.28937149047852 93.5 47.5 C 93.5 53.71062850952148 92.28397369384766 59.73468017578125 89.88570404052734 65.40481567382812 C 87.56893157958984 70.88229370117188 84.25196075439453 75.80186462402344 80.02691650390625 80.02691650390625 C 75.80186462402344 84.25196075439453 70.88229370117188 87.56893157958984 65.40481567382812 89.88570404052734 C 59.73468017578125 92.28397369384766 53.71062850952148 93.5 47.5 93.5 Z" stroke="none"/>
                  <path d="M 47.5 3 C 41.49121475219727 3 35.66376876831055 4.176155090332031 30.17950439453125 6.495796203613281 C 24.88084411621094 8.736953735351562 20.12152099609375 11.94598388671875 16.03375244140625 16.03375244140625 C 11.94598388671875 20.12152099609375 8.736953735351562 24.88084411621094 6.495796203613281 30.17950439453125 C 4.176155090332031 35.66376876831055 3 41.49121475219727 3 47.5 C 3 53.50878524780273 4.176155090332031 59.33623123168945 6.495796203613281 64.82049560546875 C 8.736953735351562 70.11915588378906 11.94598388671875 74.87847900390625 16.03375244140625 78.96624755859375 C 20.12152099609375 83.05401611328125 24.88084411621094 86.26304626464844 30.17950439453125 88.50419616699219 C 35.66376876831055 90.82384490966797 41.49121475219727 92 47.5 92 C 53.50878524780273 92 59.33623123168945 90.82384490966797 64.82049560546875 88.50419616699219 C 70.11915588378906 86.26304626464844 74.87847900390625 83.05401611328125 78.96624755859375 78.96624755859375 C 83.05401611328125 74.87847900390625 86.26304626464844 70.11915588378906 88.50419616699219 64.82049560546875 C 90.82384490966797 59.33623123168945 92 53.50878524780273 92 47.5 C 92 41.49121475219727 90.82384490966797 35.66376876831055 88.50419616699219 30.17950439453125 C 86.26304626464844 24.88084411621094 83.05401611328125 20.12152099609375 78.96624755859375 16.03375244140625 C 74.87847900390625 11.94598388671875 70.11915588378906 8.736953735351562 64.82049560546875 6.495796203613281 C 59.33623123168945 4.176155090332031 53.50878524780273 3 47.5 3 M 47.5 0 C 73.7335205078125 0 95 21.2664794921875 95 47.5 C 95 73.7335205078125 73.7335205078125 95 47.5 95 C 21.2664794921875 95 0 73.7335205078125 0 47.5 C 0 21.2664794921875 21.2664794921875 0 47.5 0 Z" stroke="none" fill="#e087dc"/>
                </g>
              </g>
            </g>
          </g>
        </g>
      </g>
    </g>
    <g id="relationship_16034820" transform="translate(889.528 3181.3)">
      <g id="Grupo_1164409" data-name="Grupo 1164409" transform="translate(40.717 25.798)">
        <path id="Trazado_999840" data-name="Trazado 999840" d="M195.53,179.136a5.851,5.851,0,0,1,8.274,8.274l-8.274,8.279-8.274-8.279a5.851,5.851,0,1,1,8.274-8.274Z" transform="translate(-167.189 -158.083)" fill="#f63" fill-rule="evenodd"/>
        <path id="Trazado_999841" data-name="Trazado 999841" d="M108.685,63.483H114V55.322h-5.311a21.638,21.638,0,0,0-3.376-8.145l3.758-3.758-5.77-5.766-3.758,3.754a21.691,21.691,0,0,0-8.145-3.376V32.72H83.233v5.311a21.638,21.638,0,0,0-8.145,3.376L71.33,37.653l-5.766,5.766,3.754,3.758a21.691,21.691,0,0,0-3.376,8.145H60.63v8.161H72.246a15.609,15.609,0,1,1,30.136,0Z" transform="translate(-58.971 -32.72)" fill="#00b2ca" fill-rule="evenodd"/>
        <path id="Trazado_999842" data-name="Trazado 999842" d="M60.84,293.88A12.62,12.62,0,1,1,48.22,306.5,12.62,12.62,0,0,1,60.84,293.88Z" transform="translate(-48.22 -258.975)" fill="#ffb703" fill-rule="evenodd"/>
        <path id="Trazado_999843" data-name="Trazado 999843" d="M98.32,372.71H94.312a5.159,5.159,0,0,0-5.142,5.144v2.292h14.294v-2.292A5.158,5.158,0,0,0,98.32,372.71Z" transform="translate(-83.697 -327.269)" fill="#cc4242" fill-rule="evenodd"/>
        <path id="Trazado_999844" data-name="Trazado 999844" d="M119.63,322.28a3.548,3.548,0,1,0,3.55,3.546A3.55,3.55,0,0,0,119.63,322.28Z" transform="translate(-107.01 -283.579)" fill="#fbd1a2" fill-rule="evenodd"/>
        <path id="Trazado_999845" data-name="Trazado 999845" d="M296.11,293.88a12.62,12.62,0,1,0,12.62,12.62A12.62,12.62,0,0,0,296.11,293.88Z" transform="translate(-252.045 -258.975)" fill="#ffb703" fill-rule="evenodd"/>
        <path id="Trazado_999846" data-name="Trazado 999846" d="M329.566,372.71h4.008a5.159,5.159,0,0,1,5.142,5.144v2.292h-14.3v-2.292A5.16,5.16,0,0,1,329.566,372.71Z" transform="translate(-287.505 -327.269)" fill="#cc4242" fill-rule="evenodd"/>
        <path id="Trazado_999847" data-name="Trazado 999847" d="M354.9,322.28a3.548,3.548,0,1,1-3.55,3.546A3.55,3.55,0,0,1,354.9,322.28Z" transform="translate(-310.836 -283.579)" fill="#fbd1a2" fill-rule="evenodd"/>
      </g>
      <path id="Trazado_999848" data-name="Trazado 999848" d="M84.695,63.427a4.624,4.624,0,0,1,3.929,7.05,6.231,6.231,0,0,1,4.289,5.906v2.292a1.067,1.067,0,0,1-1.068,1.068H77.55a1.07,1.07,0,0,1-1.072-1.068V76.383a6.235,6.235,0,0,1,4.289-5.906A4.625,4.625,0,0,1,84.695,63.427Zm1.78,8.88a4.635,4.635,0,0,1-3.561,0h-.223a4.089,4.089,0,0,0-4.072,4.076v1.224H90.776V76.383A4.093,4.093,0,0,0,86.7,72.307Zm-.027-6.012a2.479,2.479,0,1,0-1.754,4.233A2.48,2.48,0,0,0,86.448,66.295Zm-1.754-4.52A11.55,11.55,0,1,0,96.246,73.322,11.547,11.547,0,0,0,84.695,61.775Zm-9.681,1.867a13.689,13.689,0,1,1,0,19.36A13.689,13.689,0,0,1,75.014,63.642ZM53.249,65.566A2.479,2.479,0,1,0,55,66.294,2.481,2.481,0,0,0,53.249,65.566Zm-3.265-.787a4.62,4.62,0,0,1,7.195,5.7,6.235,6.235,0,0,1,4.289,5.906v2.292A1.067,1.067,0,0,1,60.4,79.743H46.1a1.067,1.067,0,0,1-1.068-1.068V76.383a6.231,6.231,0,0,1,4.289-5.906A4.618,4.618,0,0,1,49.984,64.779Zm5.051,7.527a4.645,4.645,0,0,1-3.565,0h-.219a4.093,4.093,0,0,0-4.076,4.076v1.224H59.331V76.383a4.093,4.093,0,0,0-4.076-4.076ZM53.249,59.634A13.689,13.689,0,1,1,39.56,73.322,13.688,13.688,0,0,1,53.249,59.634Zm8.169,5.52a11.55,11.55,0,1,0,0,16.336A11.552,11.552,0,0,0,61.418,65.153Zm28.925-9.66h4.243V49.469H90.343A1.065,1.065,0,0,1,89.3,48.6h0a20.462,20.462,0,0,0-3.209-7.74,1.073,1.073,0,0,1,.128-1.357v0l3-3-4.258-4.254-3,3a1.07,1.07,0,0,1-1.413.087,20.572,20.572,0,0,0-3.653-1.966,20.272,20.272,0,0,0-4.035-1.2,1.069,1.069,0,0,1-.871-1.049V26.866h-6.02v4.243a1.068,1.068,0,0,1-.944,1.061,20.783,20.783,0,0,0-3.967,1.194,20.473,20.473,0,0,0-3.7,2,1.073,1.073,0,0,1-1.357-.128v0l-3-3L48.733,36.5l3,3a1.066,1.066,0,0,1,.087,1.413A20.55,20.55,0,0,0,48.65,48.6a1.067,1.067,0,0,1-1.049.871v0H43.357V55.49l9.214,0a16.677,16.677,0,1,1,32.805,0h4.967Zm5.313,2.137H84.044a1.071,1.071,0,0,1-1.034-1.345A14.542,14.542,0,1,0,54.557,54.4a14.8,14.8,0,0,0,.364,1.826,1.066,1.066,0,0,1-1.016,1.4H42.289a1.067,1.067,0,0,1-1.068-1.068V48.4a1.069,1.069,0,0,1,1.068-1.068h4.448A22.783,22.783,0,0,1,49.609,40.4l-3.145-3.145a1.07,1.07,0,0,1,0-1.512l5.77-5.77a1.07,1.07,0,0,1,1.512,0l3.145,3.145a22.736,22.736,0,0,1,6.933-2.874V25.8A1.07,1.07,0,0,1,64.9,24.73h8.157A1.067,1.067,0,0,1,74.12,25.8v4.448a22.783,22.783,0,0,1,6.933,2.872L84.2,29.973a1.07,1.07,0,0,1,1.512,0l5.766,5.77a1.062,1.062,0,0,1,0,1.512L88.334,40.4a22.8,22.8,0,0,1,2.876,6.937l4.444,0A1.069,1.069,0,0,1,96.722,48.4v8.161a1.065,1.065,0,0,1-1.067,1.069ZM68.972,47.92a1.066,1.066,0,0,1-.754-.31,4.782,4.782,0,0,0-6.763,6.763l7.517,7.517,7.521-7.517a4.782,4.782,0,0,0-6.759-6.767A1.076,1.076,0,0,1,68.972,47.92Zm0-2.478A6.921,6.921,0,0,1,78,55.883L69.73,64.158a1.07,1.07,0,0,1-1.512,0l-8.278-8.274a6.921,6.921,0,0,1,9.032-10.441Z"/>
    </g>
  </g>
</svg>
