<svg xmlns="http://www.w3.org/2000/svg" xmlns:xlink="http://www.w3.org/1999/xlink" width="113" height="113" viewBox="0 0 113 113">
  <defs>
    <filter id="Trazado_982547" x="0" y="0" width="113" height="113" filterUnits="userSpaceOnUse">
      <feOffset dy="3" input="SourceAlpha"/>
      <feGaussianBlur stdDeviation="3" result="blur"/>
      <feFlood flood-opacity="0.161"/>
      <feComposite operator="in" in2="blur"/>
      <feComposite in="SourceGraphic"/>
    </filter>
  </defs>
  <g id="Grupo_1164416" data-name="Grupo 1164416" transform="translate(-1217 -3183.67)">
    <g id="Grupo_1164205" data-name="Grupo 1164205" transform="translate(1226 3189.67)">
      <g id="Grupo_1158168" data-name="Grupo 1158168" transform="translate(0)">
        <g id="Grupo_1152576" data-name="Grupo 1152576">
          <g id="Grupo_1148633" data-name="Grupo 1148633">
            <g id="Grupo_1148525" data-name="Grupo 1148525">
              <g transform="matrix(1, 0, 0, 1, -9, -6)" filter="url(#Trazado_982547)">
                <g id="Trazado_982547-2" data-name="Trazado 982547" transform="translate(9 6)" fill="#fbf2fb">
                  <path d="M 47.5 93.5 C 41.28937149047852 93.5 35.26533508300781 92.28397369384766 29.59518623352051 89.88570404052734 C 24.11771965026855 87.56893157958984 19.19813346862793 84.25196075439453 14.97309303283691 80.02691650390625 C 10.74804019927979 75.80186462402344 7.431066513061523 70.88229370117188 5.114293098449707 65.40481567382812 C 2.716026782989502 59.73468017578125 1.5 53.71062850952148 1.5 47.5 C 1.5 41.28937149047852 2.716026782989502 35.26533508300781 5.114293098449707 29.59518623352051 C 7.431066513061523 24.11771965026855 10.74804019927979 19.19813346862793 14.97309303283691 14.97309303283691 C 19.19813346862793 10.74804019927979 24.11771965026855 7.431066513061523 29.59518623352051 5.114293098449707 C 35.26533508300781 2.716026782989502 41.28937149047852 1.5 47.5 1.5 C 53.71062850952148 1.5 59.73468017578125 2.716026782989502 65.40481567382812 5.114293098449707 C 70.88229370117188 7.431066513061523 75.80186462402344 10.74804019927979 80.02691650390625 14.97309303283691 C 84.25196075439453 19.19813346862793 87.56893157958984 24.11771965026855 89.88570404052734 29.59518623352051 C 92.28397369384766 35.26533508300781 93.5 41.28937149047852 93.5 47.5 C 93.5 53.71062850952148 92.28397369384766 59.73468017578125 89.88570404052734 65.40481567382812 C 87.56893157958984 70.88229370117188 84.25196075439453 75.80186462402344 80.02691650390625 80.02691650390625 C 75.80186462402344 84.25196075439453 70.88229370117188 87.56893157958984 65.40481567382812 89.88570404052734 C 59.73468017578125 92.28397369384766 53.71062850952148 93.5 47.5 93.5 Z" stroke="none"/>
                  <path d="M 47.5 3 C 41.49121475219727 3 35.66376876831055 4.176155090332031 30.17950439453125 6.495796203613281 C 24.88084411621094 8.736953735351562 20.12152099609375 11.94598388671875 16.03375244140625 16.03375244140625 C 11.94598388671875 20.12152099609375 8.736953735351562 24.88084411621094 6.495796203613281 30.17950439453125 C 4.176155090332031 35.66376876831055 3 41.49121475219727 3 47.5 C 3 53.50878524780273 4.176155090332031 59.33623123168945 6.495796203613281 64.82049560546875 C 8.736953735351562 70.11915588378906 11.94598388671875 74.87847900390625 16.03375244140625 78.96624755859375 C 20.12152099609375 83.05401611328125 24.88084411621094 86.26304626464844 30.17950439453125 88.50419616699219 C 35.66376876831055 90.82384490966797 41.49121475219727 92 47.5 92 C 53.50878524780273 92 59.33623123168945 90.82384490966797 64.82049560546875 88.50419616699219 C 70.11915588378906 86.26304626464844 74.87847900390625 83.05401611328125 78.96624755859375 78.96624755859375 C 83.05401611328125 74.87847900390625 86.26304626464844 70.11915588378906 88.50419616699219 64.82049560546875 C 90.82384490966797 59.33623123168945 92 53.50878524780273 92 47.5 C 92 41.49121475219727 90.82384490966797 35.66376876831055 88.50419616699219 30.17950439453125 C 86.26304626464844 24.88084411621094 83.05401611328125 20.12152099609375 78.96624755859375 16.03375244140625 C 74.87847900390625 11.94598388671875 70.11915588378906 8.736953735351562 64.82049560546875 6.495796203613281 C 59.33623123168945 4.176155090332031 53.50878524780273 3 47.5 3 M 47.5 0 C 73.7335205078125 0 95 21.2664794921875 95 47.5 C 95 73.7335205078125 73.7335205078125 95 47.5 95 C 21.2664794921875 95 0 73.7335205078125 0 47.5 C 0 21.2664794921875 21.2664794921875 0 47.5 0 Z" stroke="none" fill="#e087dc"/>
                </g>
              </g>
            </g>
          </g>
        </g>
      </g>
    </g>
    <g id="user-generated-content_12822628" transform="translate(1237.123 3199.123)">
      <g id="Grupo_1164415" data-name="Grupo 1164415" transform="translate(7.997 7.95)">
        <g id="Grupo_1164411" data-name="Grupo 1164411" transform="translate(41.446 17.308)">
          <path id="Trazado_999849" data-name="Trazado 999849" d="M349.063,153.646h15.972a1.177,1.177,0,0,1,1.172,1.171v13.623a1.178,1.178,0,0,1-1.172,1.177H349.063a1.178,1.178,0,0,1-1.172-1.177V154.817A1.177,1.177,0,0,1,349.063,153.646Z" transform="translate(-347.891 -153.646)" fill="#8ac9fe" fill-rule="evenodd"/>
          <path id="Trazado_999850" data-name="Trazado 999850" d="M476.046,153.646h1.187a1.177,1.177,0,0,1,1.172,1.171v13.623a1.178,1.178,0,0,1-1.172,1.177h-1.187a1.178,1.178,0,0,0,1.172-1.177V154.817A1.177,1.177,0,0,0,476.046,153.646Z" transform="translate(-460.09 -153.646)" fill="#60b7ff" fill-rule="evenodd"/>
          <path id="Trazado_999851" data-name="Trazado 999851" d="M366.206,205.9v3.754a1.178,1.178,0,0,1-1.172,1.177H349.063a1.178,1.178,0,0,1-1.172-1.177v-3.367l4.98-4.129a.594.594,0,0,1,.818.058l2.536,2.792a.593.593,0,0,0,.839.039l4.571-4.172a.593.593,0,0,1,.876.083Z" transform="translate(-347.891 -194.856)" fill="#837683" fill-rule="evenodd"/>
          <path id="Trazado_999852" data-name="Trazado 999852" d="M477.218,229.566l1.187,1.588v3.754a1.178,1.178,0,0,1-1.172,1.177h-1.187a1.178,1.178,0,0,0,1.172-1.177Z" transform="translate(-460.09 -220.114)" fill="#685e68" fill-rule="evenodd"/>
        </g>
        <g id="Grupo_1164412" data-name="Grupo 1164412" transform="translate(0 17.306)">
          <path id="Trazado_999853" data-name="Trazado 999853" d="M16.181,153.629H32.157a1.177,1.177,0,0,1,1.172,1.172v13.627a1.178,1.178,0,0,1-1.172,1.177H16.181a1.178,1.178,0,0,1-1.172-1.177V154.8A1.177,1.177,0,0,1,16.181,153.629Z" transform="translate(-15.009 -153.629)" fill="#fe646f" fill-rule="evenodd"/>
          <path id="Trazado_999854" data-name="Trazado 999854" d="M142.734,153.629h1.245a1.177,1.177,0,0,1,1.172,1.172v13.627a1.178,1.178,0,0,1-1.172,1.177h-1.245a1.178,1.178,0,0,0,1.172-1.177V154.8A1.177,1.177,0,0,0,142.734,153.629Z" transform="translate(-126.831 -153.629)" fill="#fd4755" fill-rule="evenodd"/>
          <path id="Trazado_999855" data-name="Trazado 999855" d="M70.287,191.492a.622.622,0,0,1,0,1.078l-5.266,3.04a.623.623,0,0,1-.934-.539v-6.08a.623.623,0,0,1,.934-.539Z" transform="translate(-57.977 -184.043)" fill="#eceff1" fill-rule="evenodd"/>
          <path id="Trazado_999856" data-name="Trazado 999856" d="M65.416,195.382l-.395.228a.623.623,0,0,1-.934-.539v-6.08a.623.623,0,0,1,.934-.539l.395.228a.623.623,0,0,0-.083.311v6.08A.623.623,0,0,0,65.416,195.382Z" transform="translate(-57.977 -184.043)" fill="#d1d1d6" fill-rule="evenodd"/>
        </g>
        <g id="Grupo_1164413" data-name="Grupo 1164413" transform="translate(13.87 29.021)">
          <path id="Trazado_999857" data-name="Trazado 999857" d="M126.416,392.971a.664.664,0,0,0,.657.761c4.37,0,26.324,0,30.693,0a.666.666,0,0,0,.659-.763,16.2,16.2,0,0,0-32.009,0Z" transform="translate(-126.409 -362.9)" fill="#8ac9fe" fill-rule="evenodd"/>
          <path id="Trazado_999858" data-name="Trazado 999858" d="M260.51,393.733a.666.666,0,0,0,.659-.763,16.2,16.2,0,0,0-14.916-13.655q.54-.036,1.089-.036a16.2,16.2,0,0,1,16.006,13.691.666.666,0,0,1-.659.763Z" transform="translate(-231.332 -362.9)" fill="#60b7ff" fill-rule="evenodd"/>
          <path id="Trazado_999859" data-name="Trazado 999859" d="M197.441,264.1a8.19,8.19,0,1,0-8.186-8.19A8.2,8.2,0,0,0,197.441,264.1Z" transform="translate(-181.43 -247.721)" fill="#f6dccd" fill-rule="evenodd"/>
          <path id="Trazado_999860" data-name="Trazado 999860" d="M250.627,264.083a8.19,8.19,0,0,0,0-16.344q.27-.018.544-.018a8.19,8.19,0,0,1,0,16.38Q250.9,264.1,250.627,264.083Z" transform="translate(-235.161 -247.721)" fill="#f1cbbc" fill-rule="evenodd"/>
        </g>
        <g id="Grupo_1164414" data-name="Grupo 1164414" transform="translate(19.933 0)">
          <path id="Trazado_999861" data-name="Trazado 999861" d="M187.038,16.283a8.479,8.479,0,0,1,2.486,1.03l1.616-.717,1.9,1.9-.717,1.616a8.481,8.481,0,0,1,1.03,2.486l1.648.634v2.693l-1.648.634a8.488,8.488,0,0,1-1.03,2.485l.717,1.616-1.9,1.9-1.616-.718a8.482,8.482,0,0,1-2.486,1.032L186.4,34.53H183.71l-.635-1.648a8.486,8.486,0,0,1-2.485-1.031l-1.616.718-1.9-1.9.718-1.614a8.51,8.51,0,0,1-1.032-2.486l-1.647-.634V23.236l1.647-.634a8.485,8.485,0,0,1,1.032-2.486L177.07,18.5l1.9-1.9,1.614.717a8.507,8.507,0,0,1,2.486-1.03l.635-1.649H186.4Z" transform="translate(-175.109 -14.634)" fill="#ffe177" fill-rule="evenodd"/>
          <path id="Trazado_999862" data-name="Trazado 999862" d="M216.086,16.837l.543-.241,1.9,1.9-.717,1.616a8.482,8.482,0,0,1,1.03,2.486l1.648.634v2.693l-1.648.634a8.488,8.488,0,0,1-1.03,2.485l.717,1.616-1.9,1.9-.543-.241,1.664-1.664-.718-1.616a8.485,8.485,0,0,0,1.03-2.485l1.649-.634V23.236l-1.649-.634a8.479,8.479,0,0,0-1.03-2.486l.718-1.616Zm-11.863,0,.241-.241,1.614.717c-.114.063-.227.129-.337.2Zm8.3-.555a8.479,8.479,0,0,1,2.486,1.03l-.445.2a11.092,11.092,0,0,0-2.825-1.229l-.634-1.649h.784ZM206.08,31.851l-1.616.718-.241-.241,1.518-.674q.166.1.338.2Zm8.933,0a8.482,8.482,0,0,1-2.486,1.032l-.634,1.647h-.784l.634-1.647a11.123,11.123,0,0,0,2.826-1.229Z" transform="translate(-200.598 -14.634)" fill="#ffd064" fill-rule="evenodd"/>
          <path id="Trazado_999863" data-name="Trazado 999863" d="M222,56.829a4.695,4.695,0,1,1-4.694,4.695A4.695,4.695,0,0,1,222,56.829Z" transform="translate(-212.05 -51.575)" fill="#eceff1" fill-rule="evenodd"/>
          <path id="Trazado_999864" data-name="Trazado 999864" d="M222,56.829c.107,0,.213,0,.319.011a4.694,4.694,0,0,0,0,9.367c-.106.007-.212.01-.319.01a4.695,4.695,0,0,1,0-9.389Z" transform="translate(-212.05 -51.575)" fill="#d1d1d6" fill-rule="evenodd"/>
        </g>
      </g>
      <path id="Trazado_999865" data-name="Trazado 999865" d="M42.614,53.059A17.11,17.11,0,0,1,54.877,67.653a1,1,0,0,1-.99,1.1H21.869a1,1,0,0,1-.99-1.1A17.12,17.12,0,0,1,33.144,53.059a9.136,9.136,0,1,1,9.469,0Zm-4.736,1.328A15.112,15.112,0,0,0,23.019,66.763H52.737A15.107,15.107,0,0,0,37.877,54.387Zm0-1.992a7.146,7.146,0,1,0-7.141-7.146A7.158,7.158,0,0,0,37.877,52.395ZM50.611,24.305H66.587a2.178,2.178,0,0,1,2.168,2.168V40.1a2.177,2.177,0,0,1-2.168,2.173H50.611A2.177,2.177,0,0,1,48.443,40.1V26.473a2.177,2.177,0,0,1,2.168-2.168Zm16.152,9.044V26.473a.177.177,0,0,0-.176-.176H50.611a.177.177,0,0,0-.176.176V34.34l3.82-2.894a1,1,0,0,1,1.346.133l2.606,2.936L63,30.142a1,1,0,0,1,1.469.139Zm-16.327,3.49V40.1a.179.179,0,0,0,.176.181H66.587a.179.179,0,0,0,.176-.181V36.676l-3.232-4.322-6.378,5.822A1,1,0,0,1,55.81,36.7l.927-.846-2.013-2.268Zm7.807-5.106a1.289,1.289,0,1,1,1.286-1.286A1.29,1.29,0,0,1,58.242,31.733ZM9.168,24.305H25.144a2.178,2.178,0,0,1,2.168,2.168V40.1a2.177,2.177,0,0,1-2.168,2.173H9.168A2.177,2.177,0,0,1,7,40.1V26.473A2.178,2.178,0,0,1,9.168,24.305Zm0,1.992a.177.177,0,0,0-.176.176V40.1a.179.179,0,0,0,.176.181H25.144a.179.179,0,0,0,.176-.181V26.473a.177.177,0,0,0-.176-.176ZM20.8,31.888a1.619,1.619,0,0,1,0,2.8l-5.266,3.04a1.619,1.619,0,0,1-2.428-1.4v-6.08a1.619,1.619,0,0,1,2.428-1.4Zm-5.7,3.795,4.145-2.393L15.1,30.9Zm25.5-26.866a9.452,9.452,0,0,1,1.8.744l1.152-.512a1,1,0,0,1,1.109.206l1.9,1.9a1,1,0,0,1,.206,1.108l-.511,1.153a9.43,9.43,0,0,1,.745,1.8l1.175.452a1,1,0,0,1,.638.93v2.692a1,1,0,0,1-.638.93l-1.175.452a9.533,9.533,0,0,1-.745,1.8l.511,1.154a1,1,0,0,1-.206,1.108l-1.9,1.9a1,1,0,0,1-1.108.206l-1.152-.51a9.434,9.434,0,0,1-1.8.745l-.452,1.175a1,1,0,0,1-.93.638H36.533a1,1,0,0,1-.93-.638l-.452-1.175a9.515,9.515,0,0,1-1.8-.746L32.2,26.84a1,1,0,0,1-1.108-.206l-1.9-1.9a1,1,0,0,1-.206-1.109l.512-1.152a9.52,9.52,0,0,1-.746-1.8l-1.176-.453a1,1,0,0,1-.638-.93V16.6a1,1,0,0,1,.638-.93l1.176-.453a9.52,9.52,0,0,1,.746-1.8l-.512-1.152a1,1,0,0,1,.206-1.109l1.9-1.9A1,1,0,0,1,32.2,9.048l1.152.512a9.454,9.454,0,0,1,1.8-.745L35.6,7.637A1,1,0,0,1,36.533,7h2.692a1,1,0,0,1,.93.639ZM38.929,10,38.54,8.992H37.216l-.391,1.013a1,1,0,0,1-.7.61,7.471,7.471,0,0,0-2.193.909,1,1,0,0,1-.927.062l-.99-.44-.935.935.44.99a1,1,0,0,1-.062.927,7.537,7.537,0,0,0-.912,2.2,1,1,0,0,1-.611.7l-1.01.389v1.324l1.01.389a1,1,0,0,1,.611.7,7.517,7.517,0,0,0,.912,2.195,1,1,0,0,1,.063.929l-.44.99.936.936.991-.439a1,1,0,0,1,.924.061,7.524,7.524,0,0,0,2.2.91,1,1,0,0,1,.7.611l.389,1.01h1.324l.389-1.01a1,1,0,0,1,.7-.611,7.438,7.438,0,0,0,2.192-.908,1,1,0,0,1,.927-.064l.991.439.937-.937-.439-.991a1,1,0,0,1,.061-.924,7.544,7.544,0,0,0,.91-2.2,1,1,0,0,1,.611-.7l1.01-.389V17.283l-1.01-.389a1,1,0,0,1-.611-.7A7.456,7.456,0,0,0,44.3,14a1,1,0,0,1-.063-.926l.439-.991-.936-.936-.99.44a1,1,0,0,1-.927-.062,7.471,7.471,0,0,0-2.193-.909,1,1,0,0,1-.7-.612Zm-1.052,2.249a5.692,5.692,0,1,1-5.691,5.691,5.691,5.691,0,0,1,5.691-5.691Zm0,1.992a3.7,3.7,0,1,0,3.7,3.7,3.7,3.7,0,0,0-3.7-3.7ZM57.6,45.012a1,1,0,0,1,1.992,0v7.421a1,1,0,0,1-1,1H49.561a1,1,0,1,1,0-1.992H57.6Zm-41.249,0a1,1,0,0,1,1.992,0v6.425h8.042a1,1,0,1,1,0,1.992H17.35a1,1,0,0,1-1-1ZM36.881,30.382a1,1,0,1,1,1.992,0v4.236a1,1,0,0,1-1.992,0Z" transform="translate(0 0)" fill-rule="evenodd"/>
    </g>
  </g>
</svg>
