<svg xmlns="http://www.w3.org/2000/svg" width="31.421" height="31.427" viewBox="0 0 31.421 31.427">
  <g id="_x30_1_Partnership" transform="translate(-7.695 -7.642)">
    <g id="Grupo_1164124" data-name="Grupo 1164124" transform="translate(7.695 7.642)">
      <path id="Trazado_998779" data-name="Trazado 998779" d="M9.209,39.07l28.421-.028a1.488,1.488,0,0,0,1.485-1.488l-.005-5.21a.491.491,0,1,0-.981,0l.005,5.21a.506.506,0,0,1-.5.506l-28.421.028a.506.506,0,0,1-.506-.5L8.682,16.291l29.432-.029.013,13.271a.491.491,0,0,0,.981,0c0-1.952.008,7.331-.021-20.406A1.487,1.487,0,0,0,37.6,7.642L9.179,7.67A1.487,1.487,0,0,0,7.7,9.157c0,5.31.026,28.125.026,28.427A1.488,1.488,0,0,0,9.209,39.07ZM8.676,9.156a.5.5,0,0,1,.5-.505L37.6,8.623a.5.5,0,0,1,.505.5l.006,6.153-29.429.029Z" transform="translate(-7.695 -7.642)"/>
      <path id="Trazado_998780" data-name="Trazado 998780" d="M137.606,47.379a1.818,1.818,0,1,0,1.82,1.816A1.82,1.82,0,0,0,137.606,47.379Zm0,2.654a.837.837,0,1,1,.836-.837A.828.828,0,0,1,137.609,50.033Z" transform="translate(-127.685 -44.865)"/>
      <path id="Trazado_998781" data-name="Trazado 998781" d="M221.509,47.3a1.818,1.818,0,1,0,1.819,1.816A1.82,1.82,0,0,0,221.509,47.3Zm0,2.654a.837.837,0,1,1,.835-.837A.827.827,0,0,1,221.512,49.951Z" transform="translate(-206.28 -44.788)"/>
      <path id="Trazado_998782" data-name="Trazado 998782" d="M311.649,47.12l-6.244.006a1.818,1.818,0,1,0,0,3.636l6.244-.006a1.818,1.818,0,0,0,0-3.636Zm0,2.654-6.244.006a.837.837,0,0,1-.837-.836.828.828,0,0,1,.836-.837l6.244-.006a.828.828,0,0,1,.837.836A.837.837,0,0,1,311.652,49.774Z" transform="translate(-284.868 -44.622)"/>
      <path id="Trazado_998783" data-name="Trazado 998783" d="M53.7,47.46a1.818,1.818,0,1,0,1.82,1.816A1.82,1.82,0,0,0,53.7,47.46Zm0,2.654a.837.837,0,1,1,.836-.837A.828.828,0,0,1,53.7,50.114Z" transform="translate(-49.09 -44.941)"/>
      <path id="Trazado_998784" data-name="Trazado 998784" d="M93.637,172.47a1.2,1.2,0,0,0,1.247-.292l1.585-1.6a.491.491,0,0,0,0-.693l-6.075-6.063a.49.49,0,0,0-.694,0l-1.587,1.594a1.216,1.216,0,0,0-.266,1.31c-1.107.847-1.79.318-3.116,1.34-1.094-.654-1.868-.395-2.822-1.155a1.214,1.214,0,0,0-.281-1.266l-1.59-1.591a.491.491,0,0,0-.694,0l-6.063,6.075a.491.491,0,0,0,0,.693l1.587,1.6a1.2,1.2,0,0,0,1.3.275A3.651,3.651,0,0,1,77,174.424a1.667,1.667,0,0,0-.291.23l-.482.483a1.73,1.73,0,0,0-.135,2.343,1.67,1.67,0,0,0,1.293.573,1.629,1.629,0,0,0,.389,1.106,1.671,1.671,0,0,0,1.289.574,1.622,1.622,0,0,0,.376,1.084,1.671,1.671,0,0,0,1.307.6,1.624,1.624,0,0,0,.375,1.083,1.669,1.669,0,0,0,2.468.1l.516-.515c.327.262.742,1.007,1.7,1.006a1.647,1.647,0,0,0,1.658-1.687,1.675,1.675,0,0,0,1.7-1.678v0h0a1.674,1.674,0,0,0,1.675-1.682h0a1.675,1.675,0,0,0,1.428-.8,1.72,1.72,0,0,0-.1-1.886C93.2,174.073,92.733,173.456,93.637,172.47Zm-4.831-6.359,1.24-1.245,5.381,5.37-1.24,1.251a.233.233,0,0,1-.331,0l-5.051-5.048A.233.233,0,0,1,88.806,166.111Zm-13.244,5.617-1.243-1.249,5.37-5.381,1.243,1.243a.233.233,0,0,1,0,.329l-5.04,5.058A.233.233,0,0,1,75.562,171.728Zm1.266,5.108a.755.755,0,0,1,.089-1.006l.482-.483a.694.694,0,0,1,.965-.022l0,0a.7.7,0,0,1,.021,1.005l-.538.539A.72.72,0,0,1,76.829,176.836Zm1.683,1.68a.755.755,0,0,1,.089-1.006l.482-.483a.7.7,0,0,1,.986.983l-.539.543A.717.717,0,0,1,78.512,178.516Zm1.671,1.667a.746.746,0,0,1,.089-.985l.491-.493a.7.7,0,0,1,.984,0l0,0a.7.7,0,0,1,0,.984l-.538.539A.712.712,0,0,1,80.183,180.183Zm2.708,1.725a.706.706,0,0,1-1.025-.046.75.75,0,0,1,.09-.99l.489-.49a.707.707,0,0,1,.987,0h0a.7.7,0,0,1,0,.985Zm8.545-5.179a.719.719,0,0,1-1.09.132h0l-3.539-3.532a.491.491,0,0,0-.693.694l3.538,3.531h0a.7.7,0,0,1-.986.987l-3.538-3.532a.491.491,0,0,0-.693.694l3.538,3.532a.7.7,0,0,1-.985.987l-3.537-3.532a.491.491,0,0,0-.695.695l3.5,3.489a.749.749,0,0,1,.09.98.711.711,0,0,1-1.034.05l-.721-.72a1.664,1.664,0,0,0-.462-1.5l0,0a1.672,1.672,0,0,0-1.187-.489v0a1.666,1.666,0,0,0-.492-1.185l0,0a1.666,1.666,0,0,0-1.186-.49h0a1.673,1.673,0,0,0-1.679-1.675,1.672,1.672,0,0,0-.491-1.187l0,0a1.667,1.667,0,0,0-1.134-.484,4.666,4.666,0,0,0-1.012-2.089l4.37-4.383c1.056.835,1.923.721,2.671,1.077l-1.886,1.9a1.562,1.562,0,0,0-.333,1.7,1.451,1.451,0,0,0,1.379.928c1.761,0,2.394-1.306,3.446-2.167l.007.007,4.692,4.676A.767.767,0,0,1,91.436,176.729Zm.053-2.087-4.216-4.2,0,0a1.009,1.009,0,0,0-1.423,0c-1.055.911-1.457,1.88-2.73,1.881h0a.489.489,0,0,1-.455-.32.579.579,0,0,1,.12-.637l2.258-2.268c1.148-1.148,2.014-.5,3.432-1.6l4.379,4.378C91.864,173,92.237,173.618,91.489,174.642Z" transform="translate(-68.996 -153.808)"/>
    </g>
  </g>
</svg>
