<svg xmlns="http://www.w3.org/2000/svg" xmlns:xlink="http://www.w3.org/1999/xlink" width="100.001" height="100.001" viewBox="0 0 100.001 100.001">
  <defs>
    <filter id="Trazado_904820" x="0" y="0" width="100.001" height="100.001" filterUnits="userSpaceOnUse">
      <feOffset dy="3" input="SourceAlpha"/>
      <feGaussianBlur stdDeviation="3" result="blur"/>
      <feFlood flood-opacity="0.161"/>
      <feComposite operator="in" in2="blur"/>
      <feComposite in="SourceGraphic"/>
    </filter>
  </defs>
  <g id="Grupo_1164290" data-name="Grupo 1164290" transform="translate(-193.999 -1129.132)">
    <g id="Grupo_1164015" data-name="Grupo 1164015" transform="translate(-5.001 -1959.868)">
      <g id="Icono" transform="translate(208 3095)">
        <g transform="matrix(1, 0, 0, 1, -9, -6)" filter="url(#Trazado_904820)">
          <g id="Trazado_904820-2" data-name="Trazado 904820" transform="translate(9 6)" fill="#fbf2fb">
            <path d="M 41.00049209594727 80.50098419189453 C 35.66730499267578 80.50098419189453 30.49443244934082 79.45680999755859 25.62557411193848 77.39745330810547 C 20.92206764221191 75.40804290771484 16.69756317138672 72.55970764160156 13.06942176818848 68.93156433105469 C 9.441280364990234 65.30342102050781 6.592950820922852 61.07891464233398 4.603527545928955 56.37540817260742 C 2.544174432754517 51.50654983520508 1.499997973442078 46.33369064331055 1.499997973442078 41.00049209594727 C 1.499997973442078 35.66730499267578 2.544174432754517 30.49443244934082 4.603527545928955 25.62558555603027 C 6.592950820922852 20.92206764221191 9.441280364990234 16.69757461547852 13.06942176818848 13.06942176818848 C 16.69757461547852 9.441280364990234 20.92206764221191 6.592950820922852 25.62558555603027 4.603527545928955 C 30.49443244934082 2.544174432754517 35.66730499267578 1.499997973442078 41.00049209594727 1.499997973442078 C 46.33369064331055 1.499997973442078 51.50654983520508 2.544174432754517 56.37540817260742 4.603527545928955 C 61.07891464233398 6.592950820922852 65.30342102050781 9.441280364990234 68.93156433105469 13.06942176818848 C 72.55970764160156 16.69756317138672 75.40804290771484 20.92206764221191 77.39745330810547 25.62557411193848 C 79.45680999755859 30.49443244934082 80.50098419189453 35.66730499267578 80.50098419189453 41.00049209594727 C 80.50098419189453 46.33369064331055 79.45680999755859 51.50654983520508 77.39745330810547 56.37540817260742 C 75.40804290771484 61.07891464233398 72.55970764160156 65.30342102050781 68.93156433105469 68.93156433105469 C 65.30342102050781 72.55970764160156 61.07891464233398 75.40804290771484 56.37540817260742 77.39745330810547 C 51.50654983520508 79.45680999755859 46.33369064331055 80.50098419189453 41.00049209594727 80.50098419189453 Z" stroke="none"/>
            <path d="M 41.00049209594727 3 C 35.86913299560547 3 30.89286422729492 4.004302978515625 26.20990371704102 5.985038757324219 C 21.68518447875977 7.898826599121094 17.62095642089844 10.63921356201172 14.13008880615234 14.13008880615234 C 10.63921356201172 17.62095642089844 7.898826599121094 21.68518447875977 5.985038757324219 26.20990371704102 C 4.004302978515625 30.89286422729492 3 35.86913299560547 3 41.00049209594727 C 3 46.13185119628906 4.004302978515625 51.10811614990234 5.985038757324219 55.79107666015625 C 7.898826599121094 60.31579971313477 10.63921356201172 64.38002777099609 14.13008880615234 67.87089538574219 C 17.62095642089844 71.36177062988281 21.68518447875977 74.10215759277344 26.20990371704102 76.01594543457031 C 30.89286422729492 77.99668121337891 35.86913299560547 79.00098419189453 41.00049209594727 79.00098419189453 C 46.13185119628906 79.00098419189453 51.10811614990234 77.99668121337891 55.79107666015625 76.01594543457031 C 60.31579971313477 74.10215759277344 64.38002777099609 71.36177062988281 67.87089538574219 67.87089538574219 C 71.36177062988281 64.38002777099609 74.10215759277344 60.31579971313477 76.01594543457031 55.79107666015625 C 77.99668121337891 51.10811614990234 79.00098419189453 46.13185119628906 79.00098419189453 41.00049209594727 C 79.00098419189453 35.86913299560547 77.99668121337891 30.89286422729492 76.01594543457031 26.20990371704102 C 74.10215759277344 21.68518447875977 71.36177062988281 17.62095642089844 67.87089538574219 14.13008880615234 C 64.38002777099609 10.63921356201172 60.31579971313477 7.898826599121094 55.79107666015625 5.985038757324219 C 51.10811614990234 4.004302978515625 46.13185119628906 3 41.00049209594727 3 M 41.00049209594727 0 C 63.64443969726562 0 82.00098419189453 18.35654449462891 82.00098419189453 41.00049209594727 C 82.00098419189453 63.64443969726562 63.64443969726562 82.00098419189453 41.00049209594727 82.00098419189453 C 18.35654449462891 82.00098419189453 0 63.64443969726562 0 41.00049209594727 C 0 18.35654449462891 18.35654449462891 0 41.00049209594727 0 Z" stroke="none" fill="#e087dc"/>
          </g>
        </g>
      </g>
    </g>
    <g id="el-pensamiento-de-diseno_1_" data-name="el-pensamiento-de-diseno (1)" transform="translate(217.823 1149.823)">
      <g id="Grupo_1164288" data-name="Grupo 1164288" transform="translate(1.812 1.812)">
        <g id="Grupo_1164274" data-name="Grupo 1164274" transform="translate(34.127 9.746)">
          <path id="Trazado_999224" data-name="Trazado 999224" d="M52.938,18.061,47.2,23.8a13.772,13.772,0,0,0-3.086-4.857l-.089-.089L48.877,14Z" transform="translate(-44.02 -14)" fill="#5cd6b3"/>
        </g>
        <g id="Grupo_1164275" data-name="Grupo 1164275" transform="translate(8.122 33.494)">
          <path id="Trazado_999225" data-name="Trazado 999225" d="M22.721,47.756l-6.66,6.66L12,50.355l7.115-7.115A15.973,15.973,0,0,1,22.721,47.756Z" transform="translate(-12 -43.24)" fill="#5cd6b3"/>
        </g>
        <g id="Grupo_1164276" data-name="Grupo 1164276" transform="translate(4.061 29.019)">
          <path id="Trazado_999226" data-name="Trazado 999226" d="M18.175,42.205,11.061,49.32,7,45.259l7.529-7.529a13.762,13.762,0,0,0,2.664,3.509c.325.325.65.65.983.966Z" transform="translate(-7 -37.73)" fill="#ff826e"/>
        </g>
        <g id="Grupo_1164277" data-name="Grupo 1164277" transform="translate(29.181 5.685)">
          <path id="Trazado_999227" data-name="Trazado 999227" d="M47.733,13.061l-4.857,4.857a13.691,13.691,0,0,0-4.946-3.176L43.672,9Z" transform="translate(-37.93 -9)" fill="#ff826e"/>
        </g>
        <g id="Grupo_1164278" data-name="Grupo 1164278" transform="translate(37.359)">
          <path id="Trazado_999228" data-name="Trazado 999228" d="M59.37,7.742A5.728,5.728,0,0,1,57.689,11.8L56.122,13.37,48,5.249l1.567-1.567a5.742,5.742,0,0,1,9.8,4.061Z" transform="translate(-48 -2)" fill="#aab2bd"/>
        </g>
        <g id="Grupo_1164279" data-name="Grupo 1164279" transform="translate(0 36.547)">
          <path id="Trazado_999229" data-name="Trazado 999229" d="M14.182,55.122,3.86,59.093a1.436,1.436,0,0,1-.487.089A1.376,1.376,0,0,1,2,57.81a1.436,1.436,0,0,1,.089-.487L6.061,47l4.061,4.061Z" transform="translate(-2 -47)" fill="#ccd1d9"/>
        </g>
        <g id="Grupo_1164280" data-name="Grupo 1164280" transform="translate(34.923 3.249)">
          <path id="Trazado_999230" data-name="Trazado 999230" d="M55.558,14.122l-2.436,2.436L49.061,12.5,45,8.436,47.436,6Z" transform="translate(-45 -6)" fill="#e6e9ed"/>
        </g>
        <g id="Grupo_1164281" data-name="Grupo 1164281" transform="translate(29.376 24.365)">
          <path id="Trazado_999231" data-name="Trazado 999231" d="M48.59,32.853a2.364,2.364,0,0,0,1.462,2.193c.008,0,.024.008.032.008a2.361,2.361,0,0,0,2.591-.5l.609-.609,2.3,2.3-.609.609a2.361,2.361,0,0,0-.5,2.591c0,.008.008.024.008.032a2.364,2.364,0,0,0,2.193,1.462h.853v3.249h-.853a2.364,2.364,0,0,0-2.193,1.462c0,.008-.008.024-.008.032a2.361,2.361,0,0,0,.5,2.591l.609.609-2.3,2.3-.609-.609a2.361,2.361,0,0,0-2.591-.5c-.008,0-.024.008-.032.008a2.364,2.364,0,0,0-1.462,2.193v.853H45.341v-.853a2.364,2.364,0,0,0-1.462-2.193c-.008,0-.024-.008-.032-.008a2.361,2.361,0,0,0-2.591.5l-.609.609L38.592,49.12a1.607,1.607,0,0,0,.252-.877,1.63,1.63,0,0,0-.674-1.316c.788-2.534,2.461-4.183,4.142-5.815a5.024,5.024,0,0,0-.219,1.446,4.873,4.873,0,1,0,4.873-4.873,4.955,4.955,0,0,0-1.876.374A9.929,9.929,0,0,0,46.966,32H48.59Z" transform="translate(-38.17 -32)" fill="#ffc729"/>
        </g>
        <g id="Grupo_1164282" data-name="Grupo 1164282" transform="translate(33.299 30.05)">
          <path id="Trazado_999232" data-name="Trazado 999232" d="M47.873,39A4.873,4.873,0,1,1,43,43.873a5.024,5.024,0,0,1,.219-1.446v-.008A22.531,22.531,0,0,0,46,39.374,4.955,4.955,0,0,1,47.873,39ZM49.5,43.873A1.624,1.624,0,1,0,47.873,45.5,1.629,1.629,0,0,0,49.5,43.873Z" transform="translate(-43 -39)" fill="#fcd770"/>
        </g>
        <g id="Grupo_1164283" data-name="Grupo 1164283" transform="translate(20.304 45.481)">
          <path id="Trazado_999233" data-name="Trazado 999233" d="M31.061,61.249A4.161,4.161,0,0,1,27.024,58.1L27,58h8.122l-.024.1a4.192,4.192,0,0,1-1.478,2.274A4.148,4.148,0,0,1,31.061,61.249Z" transform="translate(-27 -58)" fill="#aab2bd"/>
        </g>
        <g id="Grupo_1164284" data-name="Grupo 1164284" transform="translate(18.68 42.232)">
          <path id="Trazado_999234" data-name="Trazado 999234" d="M34.746,54a1.629,1.629,0,0,1,1.624,1.624,1.636,1.636,0,0,1-1.624,1.624H26.624A1.629,1.629,0,0,1,25,55.624,1.636,1.636,0,0,1,26.624,54Z" transform="translate(-25 -54)" fill="#ccd1d9"/>
        </g>
        <g id="Grupo_1164285" data-name="Grupo 1164285" transform="translate(18.68 38.984)">
          <path id="Trazado_999235" data-name="Trazado 999235" d="M36.37,51.624a1.607,1.607,0,0,1-.252.877,1.8,1.8,0,0,1-.227.268,1.588,1.588,0,0,1-1.145.479H26.624A1.629,1.629,0,0,1,25,51.624a1.588,1.588,0,0,1,.479-1.145.98.98,0,0,1,.195-.171,1.6,1.6,0,0,1,.95-.309h8.122a1.6,1.6,0,0,1,.95.309A1.63,1.63,0,0,1,36.37,51.624Z" transform="translate(-25 -50)" fill="#ccd1d9"/>
        </g>
        <g id="Grupo_1164286" data-name="Grupo 1164286" transform="translate(10.558 10.558)">
          <path id="Trazado_999236" data-name="Trazado 999236" d="M41.744,23.991a13.772,13.772,0,0,0-3.086-4.857l-.089-.089A13.843,13.843,0,0,0,29.075,15h-.008a5.559,5.559,0,0,1,.552,2.436,5.623,5.623,0,0,1-.3,1.819v.008a3.181,3.181,0,0,1,1.113-.2,3.249,3.249,0,1,1,0,6.5H15.382A13.789,13.789,0,0,0,15,28.807a10.085,10.085,0,0,0,1.031,4.654A13.762,13.762,0,0,0,18.7,36.969c.325.325.65.65.983.966a15.973,15.973,0,0,1,3.606,4.516,7.827,7.827,0,0,1,.512,1.283,1.6,1.6,0,0,1,.95-.309h8.122a1.6,1.6,0,0,1,.95.309c.788-2.534,2.461-4.183,4.142-5.815v-.008a22.531,22.531,0,0,0,2.778-3.046,9.929,9.929,0,0,0,1.876-6.059,13.7,13.7,0,0,0-.869-4.816Z" transform="translate(-15 -15)" fill="#ffeaa7"/>
        </g>
        <g id="Grupo_1164287" data-name="Grupo 1164287" transform="translate(0 3.249)">
          <path id="Trazado_999237" data-name="Trazado 999237" d="M19.3,10.5a5.685,5.685,0,0,1,7.326,2.81,5.559,5.559,0,0,1,.552,2.436,5.623,5.623,0,0,1-.3,1.819v.008a3.181,3.181,0,0,1,1.113-.2,3.249,3.249,0,0,1,0,6.5H6.061a4.058,4.058,0,0,1-.39-8.1v-.008a7.205,7.205,0,0,1-.422-2.453,7.309,7.309,0,0,1,14.042-2.843Z" transform="translate(-2 -6)" fill="#e6e9ed"/>
        </g>
      </g>
      <g id="Grupo_1164289" data-name="Grupo 1164289" transform="translate(1 1)">
        <path id="Trazado_999238" data-name="Trazado 999238" d="M48.436,46.873A2.436,2.436,0,1,0,46,44.436,2.439,2.439,0,0,0,48.436,46.873Zm0-3.249a.812.812,0,1,1-.812.812A.813.813,0,0,1,48.436,43.624Z" transform="translate(-9.453 -8.701)"/>
        <path id="Trazado_999239" data-name="Trazado 999239" d="M48.235,33.306a1.558,1.558,0,0,1,.332-1.708l1.182-1.183L46.3,26.969l-1.183,1.183a1.567,1.567,0,0,1-1.739.318,1.548,1.548,0,0,1-.96-1.436V25.365H40.754a14.388,14.388,0,0,0-.72-3.776l9.4-9.4A6.555,6.555,0,1,0,40.164,2.92l-9.389,9.389a14.427,14.427,0,0,0-3.831-.716,6.463,6.463,0,0,0-7.422-3.03A8.106,8.106,0,0,0,4.464,14.2a4.872,4.872,0,0,0,1.409,9.536h5.891a14.726,14.726,0,0,0-.206,2.436,11.151,11.151,0,0,0,.864,4.485L5.177,37.908,1.145,48.39A2.161,2.161,0,0,0,1,49.172a2.182,2.182,0,0,0,2.965,2.037l10.482-4.032,5.3-5.3a2.374,2.374,0,0,0,.569,2.166A2.416,2.416,0,0,0,21.5,48.016a4.947,4.947,0,0,0,9.356,0,2.433,2.433,0,0,0,1.819-2.347c0-.061-.014-.118-.018-.177L33.665,46.5l1.183-1.183a1.59,1.59,0,0,1,2.7,1.118v1.669H42.42V46.436a1.592,1.592,0,0,1,2.7-1.118L46.3,46.5l3.447-3.447-1.182-1.183a1.571,1.571,0,0,1-.319-1.739,1.55,1.55,0,0,1,1.437-.961h1.669V34.3H49.685a1.563,1.563,0,0,1-1.45-.992ZM36.066,35.7a24.238,24.238,0,0,0,2.54-2.77,4.013,4.013,0,0,1,1.378-.256A4.1,4.1,0,1,1,36.066,35.7Zm.975-19.238L40.8,12.706l2.912,2.912-4.338,4.338A14.739,14.739,0,0,0,37.041,16.462ZM37.883,7.5l1.288-1.288,6.973,6.973-1.288,1.288ZM44.8,2.624a4.931,4.931,0,0,1,3.487,8.417l-.992.992L40.32,5.061l.992-.992A4.9,4.9,0,0,1,44.8,2.624ZM36.735,8.646l2.912,2.912-3.753,3.753A14.722,14.722,0,0,0,32.4,12.979Zm2.436,17.531c0,4.226-2.128,6.3-4.381,8.5a15.883,15.883,0,0,0-4.072,5.357,2.4,2.4,0,0,0-.481-.049H26.989V35.923a2.439,2.439,0,0,0-2.436-2.436H22.928a.812.812,0,0,1,0-1.624H31.05a2.436,2.436,0,1,0,0-4.873h-6.5a.813.813,0,0,1-.812-.812V23.741H27.8a4.061,4.061,0,1,0,0-8.122c-.023,0-.044.006-.067.006a6.4,6.4,0,0,0,.067-.819,6.506,6.506,0,0,0-.192-1.54,13.064,13.064,0,0,1,11.562,12.91ZM21.3,42.42a.813.813,0,0,1,.812-.812h8.122a.812.812,0,1,1,0,1.624H22.116A.813.813,0,0,1,21.3,42.42Zm-10.222,0,5.97-5.97a14.742,14.742,0,0,1,2.61,3.214l-5.668,5.669ZM2.624,18.868a3.249,3.249,0,0,1,6.5,0h1.624a4.875,4.875,0,0,0-4.665-4.862A6.491,6.491,0,0,1,18.03,9.2,6.5,6.5,0,0,0,14.847,14.1a3.248,3.248,0,0,0-2.477,3.146h1.624a1.624,1.624,0,1,1,3.249,0h1.624a3.244,3.244,0,0,0-2.384-3.117A4.867,4.867,0,1,1,26,16.06a4.052,4.052,0,0,0-2.258,3.62h1.624A2.436,2.436,0,1,1,27.8,22.116H5.873A3.252,3.252,0,0,1,2.624,18.868Zm19.492,4.873v2.436a2.439,2.439,0,0,0,2.436,2.436h6.5a.812.812,0,0,1,0,1.624H22.928a2.436,2.436,0,0,0,0,4.873h1.624a.813.813,0,0,1,.812.812v4.061H22.116a2.4,2.4,0,0,0-.481.049,15.883,15.883,0,0,0-4.072-5.357c-2.253-2.2-4.381-4.273-4.381-8.5a13.092,13.092,0,0,1,.25-2.436ZM15.893,35.313,9.934,41.272,7.021,38.359l6.2-6.2a18.269,18.269,0,0,0,2.674,3.15Zm-9.71,4.5,6.354,6.354-5.38,2.069L4.113,45.2Zm-2.8,9.875a.559.559,0,0,1-.722-.72l.814-2.116L5.5,48.879Zm22.794.037a3.337,3.337,0,0,1-2.862-1.624h5.724A3.337,3.337,0,0,1,26.177,49.73Zm4.061-3.249H22.116a.812.812,0,1,1,0-1.624h8.122a.812.812,0,1,1,0,1.624ZM49.73,37.547h-.045a3.216,3.216,0,0,0-2.267,5.472l.034.034L46.3,44.2l-.034-.034A3.216,3.216,0,0,0,40.8,46.436v.045H39.172v-.045A3.216,3.216,0,0,0,33.7,44.17l-.034.034-1.1-1.1a2.381,2.381,0,0,0,.11-.683,2.413,2.413,0,0,0-.546-1.518,10.474,10.474,0,0,1,2.219-3.461,5.683,5.683,0,1,0,5.636-6.391c-.08,0-.157.008-.236.011a10.656,10.656,0,0,0,1.023-4.072H40.8v.045A3.216,3.216,0,0,0,46.268,29.3l.034-.034,1.15,1.15-.034.034a3.216,3.216,0,0,0,2.267,5.472h.045Z" transform="translate(-1 -1)"/>
      </g>
    </g>
  </g>
</svg>
