<svg xmlns="http://www.w3.org/2000/svg" xmlns:xlink="http://www.w3.org/1999/xlink" width="100.001" height="100.001" viewBox="0 0 100.001 100.001">
  <defs>
    <filter id="Trazado_904820" x="0" y="0" width="100.001" height="100.001" filterUnits="userSpaceOnUse">
      <feOffset dy="3" input="SourceAlpha"/>
      <feGaussianBlur stdDeviation="3" result="blur"/>
      <feFlood flood-opacity="0.161"/>
      <feComposite operator="in" in2="blur"/>
      <feComposite in="SourceGraphic"/>
    </filter>
  </defs>
  <g id="Grupo_1164294" data-name="Grupo 1164294" transform="translate(-823.999 -1129.132)">
    <g id="Grupo_1164017" data-name="Grupo 1164017" transform="translate(624.999 -1959.868)">
      <g id="Icono" transform="translate(208 3095)">
        <g transform="matrix(1, 0, 0, 1, -9, -6)" filter="url(#Trazado_904820)">
          <g id="Trazado_904820-2" data-name="Trazado 904820" transform="translate(9 6)" fill="#fbf2fb">
            <path d="M 41.00049209594727 80.50098419189453 C 35.66730499267578 80.50098419189453 30.49443244934082 79.45680999755859 25.62557411193848 77.39745330810547 C 20.92206764221191 75.40804290771484 16.69756317138672 72.55970764160156 13.06942176818848 68.93156433105469 C 9.441280364990234 65.30342102050781 6.592950820922852 61.07891464233398 4.603527545928955 56.37540817260742 C 2.544174432754517 51.50654983520508 1.499997973442078 46.33369064331055 1.499997973442078 41.00049209594727 C 1.499997973442078 35.66730499267578 2.544174432754517 30.49443244934082 4.603527545928955 25.62558555603027 C 6.592950820922852 20.92206764221191 9.441280364990234 16.69757461547852 13.06942176818848 13.06942176818848 C 16.69757461547852 9.441280364990234 20.92206764221191 6.592950820922852 25.62558555603027 4.603527545928955 C 30.49443244934082 2.544174432754517 35.66730499267578 1.499997973442078 41.00049209594727 1.499997973442078 C 46.33369064331055 1.499997973442078 51.50654983520508 2.544174432754517 56.37540817260742 4.603527545928955 C 61.07891464233398 6.592950820922852 65.30342102050781 9.441280364990234 68.93156433105469 13.06942176818848 C 72.55970764160156 16.69756317138672 75.40804290771484 20.92206764221191 77.39745330810547 25.62557411193848 C 79.45680999755859 30.49443244934082 80.50098419189453 35.66730499267578 80.50098419189453 41.00049209594727 C 80.50098419189453 46.33369064331055 79.45680999755859 51.50654983520508 77.39745330810547 56.37540817260742 C 75.40804290771484 61.07891464233398 72.55970764160156 65.30342102050781 68.93156433105469 68.93156433105469 C 65.30342102050781 72.55970764160156 61.07891464233398 75.40804290771484 56.37540817260742 77.39745330810547 C 51.50654983520508 79.45680999755859 46.33369064331055 80.50098419189453 41.00049209594727 80.50098419189453 Z" stroke="none"/>
            <path d="M 41.00049209594727 3 C 35.86913299560547 3 30.89286422729492 4.004302978515625 26.20990371704102 5.985038757324219 C 21.68518447875977 7.898826599121094 17.62095642089844 10.63921356201172 14.13008880615234 14.13008880615234 C 10.63921356201172 17.62095642089844 7.898826599121094 21.68518447875977 5.985038757324219 26.20990371704102 C 4.004302978515625 30.89286422729492 3 35.86913299560547 3 41.00049209594727 C 3 46.13185119628906 4.004302978515625 51.10811614990234 5.985038757324219 55.79107666015625 C 7.898826599121094 60.31579971313477 10.63921356201172 64.38002777099609 14.13008880615234 67.87089538574219 C 17.62095642089844 71.36177062988281 21.68518447875977 74.10215759277344 26.20990371704102 76.01594543457031 C 30.89286422729492 77.99668121337891 35.86913299560547 79.00098419189453 41.00049209594727 79.00098419189453 C 46.13185119628906 79.00098419189453 51.10811614990234 77.99668121337891 55.79107666015625 76.01594543457031 C 60.31579971313477 74.10215759277344 64.38002777099609 71.36177062988281 67.87089538574219 67.87089538574219 C 71.36177062988281 64.38002777099609 74.10215759277344 60.31579971313477 76.01594543457031 55.79107666015625 C 77.99668121337891 51.10811614990234 79.00098419189453 46.13185119628906 79.00098419189453 41.00049209594727 C 79.00098419189453 35.86913299560547 77.99668121337891 30.89286422729492 76.01594543457031 26.20990371704102 C 74.10215759277344 21.68518447875977 71.36177062988281 17.62095642089844 67.87089538574219 14.13008880615234 C 64.38002777099609 10.63921356201172 60.31579971313477 7.898826599121094 55.79107666015625 5.985038757324219 C 51.10811614990234 4.004302978515625 46.13185119628906 3 41.00049209594727 3 M 41.00049209594727 0 C 63.64443969726562 0 82.00098419189453 18.35654449462891 82.00098419189453 41.00049209594727 C 82.00098419189453 63.64443969726562 63.64443969726562 82.00098419189453 41.00049209594727 82.00098419189453 C 18.35654449462891 82.00098419189453 0 63.64443969726562 0 41.00049209594727 C 0 18.35654449462891 18.35654449462891 0 41.00049209594727 0 Z" stroke="none" fill="#e087dc"/>
          </g>
        </g>
      </g>
    </g>
    <g id="idea_6578946" transform="translate(839.54 1145.127)">
      <path id="Trazado_999240" data-name="Trazado 999240" d="M346.214,203.742h-14.99a.909.909,0,0,1-.91-.91V192.154a.909.909,0,0,1,.91-.91h14.99a.909.909,0,0,1,.91.91v10.679A.91.91,0,0,1,346.214,203.742Z" transform="translate(-291.663 -166.013)" fill="#eb5569"/>
      <path id="Trazado_999241" data-name="Trazado 999241" d="M472.391,191.244h-2.423a.91.91,0,0,1,.91.91v10.679a.91.91,0,0,1-.91.91h2.423a.91.91,0,0,0,.91-.91V192.154A.91.91,0,0,0,472.391,191.244Z" transform="translate(-417.84 -166.013)" fill="#e53950"/>
      <path id="Trazado_999242" data-name="Trazado 999242" d="M346.214,203.742h-14.99a.909.909,0,0,1-.91-.91V192.154a.909.909,0,0,1,.91-.91h14.99a.909.909,0,0,1,.91.91v10.679A.91.91,0,0,1,346.214,203.742Z" transform="translate(-291.663 -166.013)" fill="none" stroke="#000" stroke-linecap="round" stroke-linejoin="round" stroke-miterlimit="10" stroke-width="1.3"/>
      <path id="Trazado_999243" data-name="Trazado 999243" d="M397.66,228.072l-3.36-2.277a.647.647,0,0,0-1.011.536v4.555a.647.647,0,0,0,1.011.536l3.36-2.277A.647.647,0,0,0,397.66,228.072Z" transform="translate(-348.56 -197.128)" fill="#f9f7f8"/>
      <path id="Trazado_999244" data-name="Trazado 999244" d="M397.66,228.072l-3.36-2.277a.647.647,0,0,0-1.011.536v4.555a.647.647,0,0,0,1.011.536l3.36-2.277A.647.647,0,0,0,397.66,228.072Z" transform="translate(-348.56 -197.128)" fill="none" stroke="#000" stroke-linecap="round" stroke-linejoin="round" stroke-miterlimit="10" stroke-width="1.3"/>
      <path id="Trazado_999245" data-name="Trazado 999245" d="M347.123,381.808V375.9a.91.91,0,0,0-.91-.909h-14.99a.91.91,0,0,0-.91.909v4.523C337.788,377.823,342.465,382.471,347.123,381.808Z" transform="translate(-291.662 -332.025)" fill="#c8effe"/>
      <path id="Trazado_999246" data-name="Trazado 999246" d="M330.314,423.832v6.156a.91.91,0,0,0,.91.91h14.99a.91.91,0,0,0,.91-.91V425.22C342.465,425.883,337.788,421.235,330.314,423.832Z" transform="translate(-291.662 -375.437)" fill="#9be69d"/>
      <path id="Trazado_999247" data-name="Trazado 999247" d="M472.392,374.988h-2.423a.909.909,0,0,1,.909.909v5.845a7.87,7.87,0,0,0,2.423.066V375.9A.909.909,0,0,0,472.392,374.988Z" transform="translate(-417.841 -332.025)" fill="#b3dafe"/>
      <path id="Trazado_999248" data-name="Trazado 999248" d="M470.877,444.981v4.834a.91.91,0,0,1-.91.91h2.423a.9.9,0,0,0,.382-.085.917.917,0,0,0,.108-.059l.042-.029a.909.909,0,0,0,.1-.088l.006-.006a.907.907,0,0,0,.266-.643v-4.768A7.868,7.868,0,0,1,470.877,444.981Z" transform="translate(-417.839 -395.264)" fill="#6fd7a3"/>
      <path id="Trazado_999249" data-name="Trazado 999249" d="M347.123,381.808V375.9a.91.91,0,0,0-.91-.909h-14.99a.91.91,0,0,0-.91.909v4.523C337.788,377.823,342.465,382.471,347.123,381.808Z" transform="translate(-291.662 -332.025)" fill="none" stroke="#000" stroke-linecap="round" stroke-linejoin="round" stroke-miterlimit="10" stroke-width="1.3"/>
      <line id="Línea_2065" data-name="Línea 2065" y2="0.475" transform="translate(52.128 45.602)" fill="none" stroke="#000" stroke-linecap="round" stroke-linejoin="round" stroke-miterlimit="10" stroke-width="1.3"/>
      <path id="Trazado_999250" data-name="Trazado 999250" d="M346.214,20h-14.99a.909.909,0,0,1-.91-.91V8.411a.909.909,0,0,1,.91-.91h14.99a.909.909,0,0,1,.91.91V19.089A.91.91,0,0,1,346.214,20Z" transform="translate(-291.663 -0.001)" fill="#fe93d3"/>
      <path id="Trazado_999251" data-name="Trazado 999251" d="M472.391,7.5h-2.423a.91.91,0,0,1,.91.91V19.088a.91.91,0,0,1-.91.91h2.423a.91.91,0,0,0,.91-.91V8.41A.91.91,0,0,0,472.391,7.5Z" transform="translate(-417.84 0)" fill="#fe73c5"/>
      <path id="Trazado_999252" data-name="Trazado 999252" d="M385.283,46.7a.421.421,0,0,0,.478,0,2.567,2.567,0,0,1,1.464-.445,1.667,1.667,0,0,1,1.7,1.686c0,1.024-.9,2.232-3.227,3.293a.429.429,0,0,1-.356,0c-2.326-1.061-3.227-2.269-3.227-3.293a1.667,1.667,0,0,1,1.7-1.686A2.567,2.567,0,0,1,385.283,46.7Z" transform="translate(-338.466 -35.015)" fill="#f9f7f8"/>
      <path id="Trazado_999253" data-name="Trazado 999253" d="M385.283,46.7a.421.421,0,0,0,.478,0,2.567,2.567,0,0,1,1.464-.445,1.667,1.667,0,0,1,1.7,1.686c0,1.024-.9,2.232-3.227,3.293a.429.429,0,0,1-.356,0c-2.326-1.061-3.227-2.269-3.227-3.293a1.667,1.667,0,0,1,1.7-1.686A2.567,2.567,0,0,1,385.283,46.7Z" transform="translate(-338.466 -35.015)" fill="none" stroke="#000" stroke-linecap="round" stroke-linejoin="round" stroke-miterlimit="10" stroke-width="1.3"/>
      <g id="Grupo_1164293" data-name="Grupo 1164293" transform="translate(30.027 13.749)">
        <line id="Línea_2066" data-name="Línea 2066" x2="4.779" transform="translate(0 17.731)" fill="none" stroke="#000" stroke-linecap="round" stroke-linejoin="round" stroke-miterlimit="10" stroke-width="1.3"/>
        <g id="Grupo_1164292" data-name="Grupo 1164292" transform="translate(0)">
          <path id="Trazado_999254" data-name="Trazado 999254" d="M240.938,83.922h2.022V72.256h2.757" transform="translate(-240.938 -72.256)" fill="none" stroke="#000" stroke-linecap="round" stroke-linejoin="round" stroke-miterlimit="10" stroke-width="1.3"/>
          <path id="Trazado_999255" data-name="Trazado 999255" d="M245.717,330.515H242.96V318.849h-2.022" transform="translate(-240.938 -295.053)" fill="none" stroke="#000" stroke-linecap="round" stroke-linejoin="round" stroke-miterlimit="10" stroke-width="1.3"/>
        </g>
      </g>
      <path id="Trazado_999256" data-name="Trazado 999256" d="M339.152,7.5h-7.929a.91.91,0,0,0-.91.91V19.088a.91.91,0,0,0,.91.91h14.99a.91.91,0,0,0,.91-.91V8.41a.91.91,0,0,0-.91-.91h-4.263" transform="translate(-291.662)" fill="none" stroke="#000" stroke-linecap="round" stroke-linejoin="round" stroke-miterlimit="10" stroke-width="1.3"/>
      <path id="Trazado_999257" data-name="Trazado 999257" d="M341.439,430.9h4.774a.91.91,0,0,0,.91-.91V425.22c-4.658.663-9.335-3.985-16.809-1.388v6.156a.91.91,0,0,0,.91.91h7.417" transform="translate(-291.662 -375.437)" fill="none" stroke="#000" stroke-linecap="round" stroke-linejoin="round" stroke-miterlimit="10" stroke-width="1.3"/>
      <path id="Trazado_999258" data-name="Trazado 999258" d="M26.375,123.783A9.437,9.437,0,1,0,12.114,131.9a4.3,4.3,0,0,1,2.08,3.7v.822l2.744,1.647,2.744-1.647v-.864a4.232,4.232,0,0,1,2.056-3.648A9.432,9.432,0,0,0,26.375,123.783Z" transform="translate(-0.001 -96.535)" fill="#ffe177"/>
      <path id="Trazado_999259" data-name="Trazado 999259" d="M95.476,114.346a9.594,9.594,0,0,0-1.048.058,9.438,9.438,0,0,1,3.754,17.506,4.232,4.232,0,0,0-2.056,3.648v.864l-1.7,1.019,1.047.629,2.744-1.647v-.864a4.232,4.232,0,0,1,2.056-3.648,9.438,9.438,0,0,0-4.8-17.563Z" transform="translate(-78.54 -96.535)" fill="#ffd15b"/>
      <path id="Trazado_999260" data-name="Trazado 999260" d="M66.815,343.1H59.442a.816.816,0,0,0-.8.971l.374,1.94a2.9,2.9,0,0,0,2.851,2.353h2.527a2.9,2.9,0,0,0,2.851-2.353l.374-1.94A.816.816,0,0,0,66.815,343.1Z" transform="translate(-46.192 -303.218)" fill="#685e68"/>
      <path id="Trazado_999261" data-name="Trazado 999261" d="M103.2,343.1h-1.88a.816.816,0,0,1,.8.971l-.374,1.94a2.9,2.9,0,0,1-2.851,2.353h1.88a2.9,2.9,0,0,0,2.851-2.353l.374-1.94A.816.816,0,0,0,103.2,343.1Z" transform="translate(-82.58 -303.218)" fill="#554e56"/>
      <path id="Trazado_999262" data-name="Trazado 999262" d="M66.815,343.1H59.442a.816.816,0,0,0-.8.971l.374,1.94a2.9,2.9,0,0,0,2.851,2.353h2.527a2.9,2.9,0,0,0,2.851-2.353l.374-1.94A.816.816,0,0,0,66.815,343.1Z" transform="translate(-46.192 -303.218)" fill="none" stroke="#000" stroke-linecap="round" stroke-linejoin="round" stroke-miterlimit="10" stroke-width="1.3"/>
      <line id="Línea_2067" data-name="Línea 2067" y1="8.781" transform="translate(16.937 31.106)" fill="none" stroke="#000" stroke-linecap="round" stroke-linejoin="round" stroke-miterlimit="10" stroke-width="1.3"/>
      <path id="Trazado_999263" data-name="Trazado 999263" d="M90.561,232.861a1.762,1.762,0,1,1-3.523,0" transform="translate(-71.863 -203.613)" fill="none" stroke="#000" stroke-linecap="round" stroke-linejoin="round" stroke-miterlimit="10" stroke-width="1.3"/>
      <line id="Línea_2068" data-name="Línea 2068" x2="9.992" transform="translate(11.94 42.688)" fill="none" stroke="#000" stroke-linecap="round" stroke-linejoin="round" stroke-miterlimit="10" stroke-width="1.3"/>
      <path id="Trazado_999264" data-name="Trazado 999264" d="M9.446,118.034A9.448,9.448,0,0,0,12.113,131.9a4.3,4.3,0,0,1,2.08,3.7v.822H19.68v-.864a4.232,4.232,0,0,1,2.056-3.648,9.44,9.44,0,1,0-10.277-15.818" transform="translate(0 -96.535)" fill="none" stroke="#000" stroke-linecap="round" stroke-linejoin="round" stroke-miterlimit="10" stroke-width="1.3"/>
    </g>
  </g>
</svg>
