<svg xmlns="http://www.w3.org/2000/svg" xmlns:xlink="http://www.w3.org/1999/xlink" width="113" height="113" viewBox="0 0 113 113">
  <defs>
    <filter id="Trazado_982547" x="0" y="0" width="113" height="113" filterUnits="userSpaceOnUse">
      <feOffset dy="3" input="SourceAlpha"/>
      <feGaussianBlur stdDeviation="3" result="blur"/>
      <feFlood flood-opacity="0.161"/>
      <feComposite operator="in" in2="blur"/>
      <feComposite in="SourceGraphic"/>
    </filter>
  </defs>
  <g id="Grupo_1164260" data-name="Grupo 1164260" transform="translate(-588 -1107)">
    <g id="Grupo_1164259" data-name="Grupo 1164259" transform="translate(1)">
      <g id="Grupo_1163949" data-name="Grupo 1163949" transform="translate(0 -1371)">
        <g id="Grupo_1161819" data-name="Grupo 1161819" transform="translate(596 2484)">
          <g id="Grupo_1152576" data-name="Grupo 1152576" transform="translate(0)">
            <g id="Grupo_1148633" data-name="Grupo 1148633">
              <g id="Grupo_1148525" data-name="Grupo 1148525">
                <g transform="matrix(1, 0, 0, 1, -9, -6)" filter="url(#Trazado_982547)">
                  <g id="Trazado_982547-2" data-name="Trazado 982547" transform="translate(9 6)" fill="#fbf2fb">
                    <path d="M 47.5 93.5 C 41.28937149047852 93.5 35.26533508300781 92.28397369384766 29.59518623352051 89.88570404052734 C 24.11771965026855 87.56893157958984 19.19813346862793 84.25196075439453 14.97309303283691 80.02691650390625 C 10.74804019927979 75.80186462402344 7.431066513061523 70.88229370117188 5.114293098449707 65.40481567382812 C 2.716026782989502 59.73468017578125 1.5 53.71062850952148 1.5 47.5 C 1.5 41.28937149047852 2.716026782989502 35.26533508300781 5.114293098449707 29.59518623352051 C 7.431066513061523 24.11771965026855 10.74804019927979 19.19813346862793 14.97309303283691 14.97309303283691 C 19.19813346862793 10.74804019927979 24.11771965026855 7.431066513061523 29.59518623352051 5.114293098449707 C 35.26533508300781 2.716026782989502 41.28937149047852 1.5 47.5 1.5 C 53.71062850952148 1.5 59.73468017578125 2.716026782989502 65.40481567382812 5.114293098449707 C 70.88229370117188 7.431066513061523 75.80186462402344 10.74804019927979 80.02691650390625 14.97309303283691 C 84.25196075439453 19.19813346862793 87.56893157958984 24.11771965026855 89.88570404052734 29.59518623352051 C 92.28397369384766 35.26533508300781 93.5 41.28937149047852 93.5 47.5 C 93.5 53.71062850952148 92.28397369384766 59.73468017578125 89.88570404052734 65.40481567382812 C 87.56893157958984 70.88229370117188 84.25196075439453 75.80186462402344 80.02691650390625 80.02691650390625 C 75.80186462402344 84.25196075439453 70.88229370117188 87.56893157958984 65.40481567382812 89.88570404052734 C 59.73468017578125 92.28397369384766 53.71062850952148 93.5 47.5 93.5 Z" stroke="none"/>
                    <path d="M 47.5 3 C 41.49121475219727 3 35.66376876831055 4.176155090332031 30.17950439453125 6.495796203613281 C 24.88084411621094 8.736953735351562 20.12152099609375 11.94598388671875 16.03375244140625 16.03375244140625 C 11.94598388671875 20.12152099609375 8.736953735351562 24.88084411621094 6.495796203613281 30.17950439453125 C 4.176155090332031 35.66376876831055 3 41.49121475219727 3 47.5 C 3 53.50878524780273 4.176155090332031 59.33623123168945 6.495796203613281 64.82049560546875 C 8.736953735351562 70.11915588378906 11.94598388671875 74.87847900390625 16.03375244140625 78.96624755859375 C 20.12152099609375 83.05401611328125 24.88084411621094 86.26304626464844 30.17950439453125 88.50419616699219 C 35.66376876831055 90.82384490966797 41.49121475219727 92 47.5 92 C 53.50878524780273 92 59.33623123168945 90.82384490966797 64.82049560546875 88.50419616699219 C 70.11915588378906 86.26304626464844 74.87847900390625 83.05401611328125 78.96624755859375 78.96624755859375 C 83.05401611328125 74.87847900390625 86.26304626464844 70.11915588378906 88.50419616699219 64.82049560546875 C 90.82384490966797 59.33623123168945 92 53.50878524780273 92 47.5 C 92 41.49121475219727 90.82384490966797 35.66376876831055 88.50419616699219 30.17950439453125 C 86.26304626464844 24.88084411621094 83.05401611328125 20.12152099609375 78.96624755859375 16.03375244140625 C 74.87847900390625 11.94598388671875 70.11915588378906 8.736953735351562 64.82049560546875 6.495796203613281 C 59.33623123168945 4.176155090332031 53.50878524780273 3 47.5 3 M 47.5 0 C 73.7335205078125 0 95 21.2664794921875 95 47.5 C 95 73.7335205078125 73.7335205078125 95 47.5 95 C 21.2664794921875 95 0 73.7335205078125 0 47.5 C 0 21.2664794921875 21.2664794921875 0 47.5 0 Z" stroke="none" fill="#e087dc"/>
                  </g>
                </g>
              </g>
            </g>
          </g>
        </g>
      </g>
    </g>
    <g id="global-connection_4325557" transform="translate(612 1130)">
      <g id="Grupo_1164257" data-name="Grupo 1164257">
        <g id="Grupo_1164238" data-name="Grupo 1164238">
          <path id="Trazado_999008" data-name="Trazado 999008" d="M59,59H39a9.928,9.928,0,0,1,1.42-5.13,10.058,10.058,0,0,1,3.7-3.6A6.034,6.034,0,0,0,47,51h4a6.034,6.034,0,0,0,2.88-.73A10.006,10.006,0,0,1,59,59Z" fill="#e6e9ed"/>
        </g>
        <g id="Grupo_1164239" data-name="Grupo 1164239">
          <path id="Trazado_999009" data-name="Trazado 999009" d="M23,57a4,4,0,0,1,4,4H17a4,4,0,0,1,4-4Z" fill="#fcd770"/>
        </g>
        <g id="Grupo_1164240" data-name="Grupo 1164240">
          <path id="Trazado_999010" data-name="Trazado 999010" d="M23,17a4,4,0,0,1,4,4H17a4,4,0,0,1,4-4Z" fill="#fcd770"/>
        </g>
        <g id="Grupo_1164241" data-name="Grupo 1164241">
          <path id="Trazado_999011" data-name="Trazado 999011" d="M51,19a4.006,4.006,0,0,1,4,4H45a4.006,4.006,0,0,1,4-4Z" fill="#ff826e"/>
        </g>
        <g id="Grupo_1164242" data-name="Grupo 1164242">
          <path id="Trazado_999012" data-name="Trazado 999012" d="M19.61,6.39,17,9H15a1.979,1.979,0,0,0-1.45.64l-.01-.01-.23-.7A5.924,5.924,0,0,1,13,7.02,6.026,6.026,0,0,1,19.02,1h5.96A6.009,6.009,0,0,1,31,7.02a5.924,5.924,0,0,1-.31,1.91l-.23.7v.01h-.01a.176.176,0,0,0-.04-.05A1.955,1.955,0,0,0,29,9H24a4.994,4.994,0,0,1-4.39-2.61Z" fill="#656d78"/>
        </g>
        <g id="Grupo_1164243" data-name="Grupo 1164243">
          <path id="Trazado_999013" data-name="Trazado 999013" d="M47.61,8.39,45,11v4a4,4,0,0,0,4,4,3.979,3.979,0,0,0-3.45,1.98A5,5,0,0,1,41,16V10a7,7,0,0,1,7-7h4a7,7,0,0,1,7,7v6a5,5,0,0,1-4.55,4.98A3.979,3.979,0,0,0,51,19a4,4,0,0,0,4-4V11H52A4.994,4.994,0,0,1,47.61,8.39Z" fill="#fcd770"/>
        </g>
        <g id="Grupo_1164244" data-name="Grupo 1164244">
          <path id="Trazado_999014" data-name="Trazado 999014" d="M37.36,40.57A19.483,19.483,0,0,1,37,36.84,9.833,9.833,0,0,1,46.84,27h4.32A9.833,9.833,0,0,1,61,36.84a19.483,19.483,0,0,1-.36,3.73A3,3,0,0,0,58,39H57V35.03A1.968,1.968,0,0,1,55,37h-.18a12.354,12.354,0,0,1-3.72-.63l-3.71-1.24a2.455,2.455,0,0,0-.81-.13,2.567,2.567,0,0,0-2.29,1.42L44,37H43a2.006,2.006,0,0,0-2,2H40a3,3,0,0,0-2.64,1.57Z" fill="#656d78"/>
        </g>
        <g id="Grupo_1164245" data-name="Grupo 1164245">
          <path id="Trazado_999015" data-name="Trazado 999015" d="M29.24,42.76A6.069,6.069,0,0,0,24.98,41H19a6.028,6.028,0,0,0-6,6.02,5.924,5.924,0,0,0,.31,1.91l.23.7.01.01A1.979,1.979,0,0,1,15,49h2l2-3,.8.6A11.984,11.984,0,0,0,27,49h2a1.955,1.955,0,0,1,1.41.59.176.176,0,0,1,.04.05h.01v-.01l.23-.7A5.924,5.924,0,0,0,31,47.02a6.069,6.069,0,0,0-1.76-4.26Z" fill="#b27946"/>
        </g>
        <g id="Grupo_1164246" data-name="Grupo 1164246">
          <path id="Trazado_999016" data-name="Trazado 999016" d="M30.46,49.64A1.937,1.937,0,0,1,31,51a2.006,2.006,0,0,1-2,2H27V49h2a1.955,1.955,0,0,1,1.41.59.176.176,0,0,1,.04.05Z" fill="#f0d0b4"/>
        </g>
        <g id="Grupo_1164247" data-name="Grupo 1164247">
          <path id="Trazado_999017" data-name="Trazado 999017" d="M27,53a4,4,0,0,1-4,4H21a4,4,0,0,1-4-4V49l2-3,.8.6A11.984,11.984,0,0,0,27,49Z" fill="#f0d0b4"/>
        </g>
        <g id="Grupo_1164248" data-name="Grupo 1164248">
          <path id="Trazado_999018" data-name="Trazado 999018" d="M17,49v4H15a2.015,2.015,0,0,1-2-2,1.9,1.9,0,0,1,.55-1.36A1.979,1.979,0,0,1,15,49Z" fill="#f0d0b4"/>
        </g>
        <g id="Grupo_1164249" data-name="Grupo 1164249">
          <path id="Trazado_999019" data-name="Trazado 999019" d="M58,39a3,3,0,0,1,0,6H57V39Z" fill="#f0d0b4"/>
        </g>
        <g id="Grupo_1164250" data-name="Grupo 1164250">
          <path id="Trazado_999020" data-name="Trazado 999020" d="M57,39v6a5.984,5.984,0,0,1-6,6H47a5.984,5.984,0,0,1-6-6V39a2.006,2.006,0,0,1,2-2h1l.29-.58A2.567,2.567,0,0,1,46.58,35a2.455,2.455,0,0,1,.81.13l3.71,1.24a12.354,12.354,0,0,0,3.72.63H55a1.968,1.968,0,0,0,2-1.97Z" fill="#f0d0b4"/>
        </g>
        <g id="Grupo_1164251" data-name="Grupo 1164251">
          <path id="Trazado_999021" data-name="Trazado 999021" d="M41,39v6H40a3,3,0,0,1-2.64-4.42v-.01A3,3,0,0,1,40,39Z" fill="#f0d0b4"/>
        </g>
        <g id="Grupo_1164252" data-name="Grupo 1164252">
          <path id="Trazado_999022" data-name="Trazado 999022" d="M55,15a4,4,0,0,1-4,4H49a4,4,0,0,1-4-4V11l2.61-2.61A4.994,4.994,0,0,0,52,11h3Z" fill="#f0d0b4"/>
        </g>
        <g id="Grupo_1164253" data-name="Grupo 1164253">
          <path id="Trazado_999023" data-name="Trazado 999023" d="M30.46,9.64A1.937,1.937,0,0,1,31,11a2.006,2.006,0,0,1-2,2H27V9h2a1.955,1.955,0,0,1,1.41.59.176.176,0,0,1,.04.05Z" fill="#f0d0b4"/>
        </g>
        <g id="Grupo_1164254" data-name="Grupo 1164254">
          <path id="Trazado_999024" data-name="Trazado 999024" d="M27,13a4,4,0,0,1-4,4H21a4,4,0,0,1-4-4V9l2.61-2.61A4.994,4.994,0,0,0,24,9h3Z" fill="#f0d0b4"/>
        </g>
        <g id="Grupo_1164255" data-name="Grupo 1164255">
          <path id="Trazado_999025" data-name="Trazado 999025" d="M17,9v4H15a2.015,2.015,0,0,1-2-2,1.9,1.9,0,0,1,.55-1.36A1.979,1.979,0,0,1,15,9Z" fill="#f0d0b4"/>
        </g>
        <g id="Grupo_1164256" data-name="Grupo 1164256">
          <path id="Trazado_999026" data-name="Trazado 999026" d="M16.66,28.67a8.154,8.154,0,0,1,0,4.66,8.25,8.25,0,0,1-1.32,2.55,8,8,0,1,1,0-9.76,8.25,8.25,0,0,1,1.32,2.55Z" fill="#69d6f4"/>
        </g>
      </g>
      <g id="Grupo_1164258" data-name="Grupo 1164258">
        <path id="Trazado_999027" data-name="Trazado 999027" d="M62,36.838A10.85,10.85,0,0,0,51.162,26H46.838A10.85,10.85,0,0,0,36,36.838a20.414,20.414,0,0,0,.136,2.25l-18.3-6.4A9.079,9.079,0,0,0,18,31a8.976,8.976,0,0,0-.164-1.683L42.32,20.748a5.928,5.928,0,0,0,1.869.965A4.93,4.93,0,0,0,44,23v1H56V23a4.93,4.93,0,0,0-.189-1.287A5.956,5.956,0,0,0,60,16V10a8.009,8.009,0,0,0-8-8H48a8.009,8.009,0,0,0-8,8v6a6,6,0,0,0,.877,3.133L17.245,27.4a9,9,0,0,0-.556-1.057L22.34,22H28V21a4.982,4.982,0,0,0-2.031-4,4.994,4.994,0,0,0,1.93-3H29a3,3,0,0,0,3-3,2.969,2.969,0,0,0-.435-1.533l.075-.224A7.023,7.023,0,0,0,24.978,0H19.023A7.023,7.023,0,0,0,12.36,9.243l.075.224A2.972,2.972,0,0,0,12,11a3,3,0,0,0,3,3h1.1a4.994,4.994,0,0,0,1.93,3A4.982,4.982,0,0,0,16,21v1h3.06l-3.589,2.76a9,9,0,1,0,0,12.48L19.06,40h-.037a7.023,7.023,0,0,0-6.663,9.243l.075.224A2.972,2.972,0,0,0,12,51a3,3,0,0,0,3,3h1.1a4.994,4.994,0,0,0,1.93,3A4.982,4.982,0,0,0,16,61v1H28V61a4.982,4.982,0,0,0-2.031-4,4.994,4.994,0,0,0,1.93-3H29a3,3,0,0,0,3-3,2.969,2.969,0,0,0-.435-1.533l.075-.224A7.023,7.023,0,0,0,24.978,40H22.34l-5.651-4.347a8.947,8.947,0,0,0,.556-1.058l18.838,6.593A4,4,0,0,0,40,46h.08a6.978,6.978,0,0,0,2.284,4.23A11.019,11.019,0,0,0,38,59v1H60V59a11.019,11.019,0,0,0-4.364-8.77A6.988,6.988,0,0,0,57.92,46H58a3.995,3.995,0,0,0,3.671-5.582A20.559,20.559,0,0,0,62,36.838ZM46.171,22A3.006,3.006,0,0,1,49,20h2a3.006,3.006,0,0,1,2.829,2ZM46,15V11.414l1.48-1.48A5.984,5.984,0,0,0,52,12h2v3a3,3,0,0,1-3,3H49A3,3,0,0,1,46,15Zm-4-5a6.006,6.006,0,0,1,6-6h4a6.006,6.006,0,0,1,6,6v6a3.965,3.965,0,0,1-3.118,3.888A5.017,5.017,0,0,0,53.969,19,4.982,4.982,0,0,0,56,15V10H52a4,4,0,0,1-4-4H46a5.969,5.969,0,0,0,.413,2.173L44,10.586V15a4.982,4.982,0,0,0,2.031,4,5.017,5.017,0,0,0-.913.888A3.965,3.965,0,0,1,42,16ZM29,12H28V10h1a1,1,0,1,1,0,2ZM14,11a1,1,0,0,1,1-1h1v2H15A1,1,0,0,1,14,11Zm2.586-3H15a2.975,2.975,0,0,0-.858.14A5.006,5.006,0,0,1,14,7.022,5.028,5.028,0,0,1,19.022,2h5.955A5.028,5.028,0,0,1,30,7.022a5.021,5.021,0,0,1-.142,1.118A2.975,2.975,0,0,0,29,8H24a4,4,0,0,1-4-4H18a5.969,5.969,0,0,0,.413,2.173ZM18,13V9.414l1.48-1.48A5.984,5.984,0,0,0,24,10h2v3a3,3,0,0,1-3,3H21A3,3,0,0,1,18,13Zm3,5h2a3.006,3.006,0,0,1,2.829,2H18.172A3,3,0,0,1,21,18ZM14,51a1,1,0,0,1,1-1h1v2H15A1,1,0,0,1,14,51Zm2.465-3H15a2.975,2.975,0,0,0-.858.14A4.948,4.948,0,0,1,18,42.1V45.7Zm9.364,12H18.172A3.006,3.006,0,0,1,21,58h2a3.005,3.005,0,0,1,2.828,2ZM26,53a3,3,0,0,1-3,3H21a3,3,0,0,1-3-3V49.3l1.246-1.869A13.1,13.1,0,0,0,26,49.961Zm3-1H28V50h1a1,1,0,1,1,0,2Zm1-4.978a5.021,5.021,0,0,1-.142,1.118A2.975,2.975,0,0,0,29,48H27a11.069,11.069,0,0,1-6.6-2.2l-.4-.3V42h4.978A5.028,5.028,0,0,1,30,47.022ZM6,31a8.36,8.36,0,0,1,.564-3h4.872a8.261,8.261,0,0,1,0,6H6.564A8.36,8.36,0,0,1,6,31Zm3-6.662A11.084,11.084,0,0,1,10.38,26H7.62A11.084,11.084,0,0,1,9,24.338ZM5.275,26H4.11a7.029,7.029,0,0,1,2.013-1.374A12.267,12.267,0,0,0,5.275,26Zm6.6-1.374A7.049,7.049,0,0,1,13.89,26H12.725a12.267,12.267,0,0,0-.848-1.374ZM10.38,36A11.084,11.084,0,0,1,9,37.662,11.084,11.084,0,0,1,7.62,36ZM6.123,37.374A7.029,7.029,0,0,1,4.11,36H5.275A12.267,12.267,0,0,0,6.123,37.374ZM12.725,36H13.89a7.029,7.029,0,0,1-2.013,1.374A12.267,12.267,0,0,0,12.725,36Zm2.59-2H13.55a10.225,10.225,0,0,0,0-6h1.765a6.912,6.912,0,0,1,0,6ZM2.685,28H4.45a10.225,10.225,0,0,0,0,6H2.685a6.912,6.912,0,0,1,0-6ZM38,42a2,2,0,0,1,2-2v4A2,2,0,0,1,38,42ZM57.944,58H40.056a9.015,9.015,0,0,1,4.138-6.592A6.938,6.938,0,0,0,47,52h4a6.938,6.938,0,0,0,2.806-.592A9.015,9.015,0,0,1,57.944,58ZM56,45a5.006,5.006,0,0,1-5,5H47a5.006,5.006,0,0,1-5-5V39a1,1,0,0,1,1-1h1.618l.568-1.136a1.586,1.586,0,0,1,1.892-.784l3.708,1.236A13.278,13.278,0,0,0,54.8,38l.183,0A2.937,2.937,0,0,0,56,37.839Zm-.29-9.28a.978.978,0,0,1-.7.28l-.182,0a11.278,11.278,0,0,1-3.412-.579l-3.708-1.236A3.563,3.563,0,0,0,43.4,35.97L43,36a3,3,0,0,0-2.816,2H40a3.952,3.952,0,0,0-1.919.512C38.03,37.956,38,37.4,38,36.838A8.848,8.848,0,0,1,46.838,28h4.324A8.848,8.848,0,0,1,60,36.838c0,.558-.03,1.118-.081,1.675A3.942,3.942,0,0,0,58,38V35a3,3,0,0,0-3-3H54v2h1a1.008,1.008,0,0,1,1,1.028.962.962,0,0,1-.29.692ZM58,44V40a2,2,0,1,1,0,4Z"/>
      </g>
    </g>
  </g>
</svg>
