<svg xmlns="http://www.w3.org/2000/svg" xmlns:xlink="http://www.w3.org/1999/xlink" width="113" height="113" viewBox="0 0 113 113">
  <defs>
    <filter id="Trazado_982547" x="0" y="0" width="113" height="113" filterUnits="userSpaceOnUse">
      <feOffset dy="3" input="SourceAlpha"/>
      <feGaussianBlur stdDeviation="3" result="blur"/>
      <feFlood flood-opacity="0.161"/>
      <feComposite operator="in" in2="blur"/>
      <feComposite in="SourceGraphic"/>
    </filter>
  </defs>
  <g id="Grupo_1164264" data-name="Grupo 1164264" transform="translate(-902.234 -1107.467)">
    <g id="Grupo_1163950" data-name="Grupo 1163950" transform="translate(0 -1371)">
      <g id="Grupo_1161820" data-name="Grupo 1161820" transform="translate(911.234 2484.467)">
        <g id="Grupo_1152576" data-name="Grupo 1152576" transform="translate(0)">
          <g id="Grupo_1148633" data-name="Grupo 1148633">
            <g id="Grupo_1148525" data-name="Grupo 1148525">
              <g transform="matrix(1, 0, 0, 1, -9, -6)" filter="url(#Trazado_982547)">
                <g id="Trazado_982547-2" data-name="Trazado 982547" transform="translate(9 6)" fill="#fbf2fb">
                  <path d="M 47.5 93.5 C 41.28937149047852 93.5 35.26533508300781 92.28397369384766 29.59518623352051 89.88570404052734 C 24.11771965026855 87.56893157958984 19.19813346862793 84.25196075439453 14.97309303283691 80.02691650390625 C 10.74804019927979 75.80186462402344 7.431066513061523 70.88229370117188 5.114293098449707 65.40481567382812 C 2.716026782989502 59.73468017578125 1.5 53.71062850952148 1.5 47.5 C 1.5 41.28937149047852 2.716026782989502 35.26533508300781 5.114293098449707 29.59518623352051 C 7.431066513061523 24.11771965026855 10.74804019927979 19.19813346862793 14.97309303283691 14.97309303283691 C 19.19813346862793 10.74804019927979 24.11771965026855 7.431066513061523 29.59518623352051 5.114293098449707 C 35.26533508300781 2.716026782989502 41.28937149047852 1.5 47.5 1.5 C 53.71062850952148 1.5 59.73468017578125 2.716026782989502 65.40481567382812 5.114293098449707 C 70.88229370117188 7.431066513061523 75.80186462402344 10.74804019927979 80.02691650390625 14.97309303283691 C 84.25196075439453 19.19813346862793 87.56893157958984 24.11771965026855 89.88570404052734 29.59518623352051 C 92.28397369384766 35.26533508300781 93.5 41.28937149047852 93.5 47.5 C 93.5 53.71062850952148 92.28397369384766 59.73468017578125 89.88570404052734 65.40481567382812 C 87.56893157958984 70.88229370117188 84.25196075439453 75.80186462402344 80.02691650390625 80.02691650390625 C 75.80186462402344 84.25196075439453 70.88229370117188 87.56893157958984 65.40481567382812 89.88570404052734 C 59.73468017578125 92.28397369384766 53.71062850952148 93.5 47.5 93.5 Z" stroke="none"/>
                  <path d="M 47.5 3 C 41.49121475219727 3 35.66376876831055 4.176155090332031 30.17950439453125 6.495796203613281 C 24.88084411621094 8.736953735351562 20.12152099609375 11.94598388671875 16.03375244140625 16.03375244140625 C 11.94598388671875 20.12152099609375 8.736953735351562 24.88084411621094 6.495796203613281 30.17950439453125 C 4.176155090332031 35.66376876831055 3 41.49121475219727 3 47.5 C 3 53.50878524780273 4.176155090332031 59.33623123168945 6.495796203613281 64.82049560546875 C 8.736953735351562 70.11915588378906 11.94598388671875 74.87847900390625 16.03375244140625 78.96624755859375 C 20.12152099609375 83.05401611328125 24.88084411621094 86.26304626464844 30.17950439453125 88.50419616699219 C 35.66376876831055 90.82384490966797 41.49121475219727 92 47.5 92 C 53.50878524780273 92 59.33623123168945 90.82384490966797 64.82049560546875 88.50419616699219 C 70.11915588378906 86.26304626464844 74.87847900390625 83.05401611328125 78.96624755859375 78.96624755859375 C 83.05401611328125 74.87847900390625 86.26304626464844 70.11915588378906 88.50419616699219 64.82049560546875 C 90.82384490966797 59.33623123168945 92 53.50878524780273 92 47.5 C 92 41.49121475219727 90.82384490966797 35.66376876831055 88.50419616699219 30.17950439453125 C 86.26304626464844 24.88084411621094 83.05401611328125 20.12152099609375 78.96624755859375 16.03375244140625 C 74.87847900390625 11.94598388671875 70.11915588378906 8.736953735351562 64.82049560546875 6.495796203613281 C 59.33623123168945 4.176155090332031 53.50878524780273 3 47.5 3 M 47.5 0 C 73.7335205078125 0 95 21.2664794921875 95 47.5 C 95 73.7335205078125 73.7335205078125 95 47.5 95 C 21.2664794921875 95 0 73.7335205078125 0 47.5 C 0 21.2664794921875 21.2664794921875 0 47.5 0 Z" stroke="none" fill="#e087dc"/>
                </g>
              </g>
            </g>
          </g>
        </g>
      </g>
    </g>
    <g id="digital-connectivity_18517567" transform="translate(927.409 1129.642)">
      <g id="Grupo_1164263" data-name="Grupo 1164263" transform="translate(1.891 1.891)">
        <g id="Grupo_1164261" data-name="Grupo 1164261" transform="translate(0 0)">
          <path id="Trazado_999028" data-name="Trazado 999028" d="M55.349,101.74a3.233,3.233,0,1,0,3.233-3.233A3.233,3.233,0,0,0,55.349,101.74Zm0-42.035a3.233,3.233,0,1,0,3.233-3.233,3.233,3.233,0,0,0-3.233,3.233ZM31.935,80.2a3.233,3.233,0,1,0,3.233-3.233A3.233,3.233,0,0,0,31.935,80.2Zm44.953,0a3.233,3.233,0,1,0,3.233-3.233A3.233,3.233,0,0,0,76.888,80.2Z" transform="translate(-29.148 -50.767)" fill="#58d561" fill-rule="evenodd"/>
          <path id="Trazado_999029" data-name="Trazado 999029" d="M76.208,104.092a3.234,3.234,0,0,0-3.046-5.478,3.949,3.949,0,0,0,3.046,5.478Zm-3.372-45.94a3.933,3.933,0,0,1,.326-1.573,3.234,3.234,0,0,1,3.046,5.478,3.947,3.947,0,0,1-3.372-3.905Zm-23.414,20.5a3.933,3.933,0,0,1,.326-1.573,3.234,3.234,0,0,1,3.046,5.478A3.947,3.947,0,0,1,49.422,78.647Zm44.953,0a3.933,3.933,0,0,1,.326-1.573,3.234,3.234,0,0,1,3.046,5.478,3.948,3.948,0,0,1-3.372-3.905Z" transform="translate(-44.556 -50.766)" fill="#6ce75a" fill-rule="evenodd"/>
          <path id="Trazado_999030" data-name="Trazado 999030" d="M8.5,60.825a6.542,6.542,0,1,1,6.541,6.542A6.542,6.542,0,0,1,8.5,60.825Zm4.626-41.158a6.542,6.542,0,1,1,6.541,6.542,6.542,6.542,0,0,1-6.541-6.542Zm41.158-4.626a6.542,6.542,0,1,1,6.541,6.542,6.542,6.542,0,0,1-6.541-6.542ZM49.659,56.2A6.542,6.542,0,1,1,56.2,62.742,6.542,6.542,0,0,1,49.659,56.2Z" transform="translate(-8.501 -8.5)" fill="#eb4e5c" fill-rule="evenodd"/>
          <path id="Trazado_999031" data-name="Trazado 999031" d="M42.121,54.6A6.544,6.544,0,0,1,50.1,63.537,6.545,6.545,0,0,1,42.121,54.6ZM46.16,16.158a6.518,6.518,0,0,1,.587-2.711,6.544,6.544,0,0,1,7.982,8.932,6.545,6.545,0,0,1-8.568-6.221Zm41.158-4.626A6.518,6.518,0,0,1,87.9,8.821a6.545,6.545,0,0,1,7.982,8.932,6.545,6.545,0,0,1-8.569-6.221ZM82.691,52.69a6.518,6.518,0,0,1,.587-2.711,6.544,6.544,0,0,1,7.982,8.932,6.545,6.545,0,0,1-8.568-6.221Z" transform="translate(-37.606 -8.501)" fill="#ff6372" fill-rule="evenodd"/>
        </g>
        <g id="Grupo_1164262" data-name="Grupo 1164262" transform="translate(15.27 15.27)">
          <circle id="Elipse_11810" data-name="Elipse 11810" cx="14.163" cy="14.163" r="14.163" fill="#2891fa"/>
          <path id="Trazado_999032" data-name="Trazado 999032" d="M193.822,136.906a14.165,14.165,0,0,1,11.754,22.066,16.43,16.43,0,0,1-3.941.478,16.108,16.108,0,0,1-16.206-16.007,15.841,15.841,0,0,1,.558-4.173A14.1,14.1,0,0,1,193.822,136.906Z" transform="translate(-179.659 -136.906)" fill="#43a2ff" fill-rule="evenodd"/>
        </g>
      </g>
      <path id="Trazado_999033" data-name="Trazado 999033" d="M41.573,39.73a18.223,18.223,0,0,0-3.061-1.169,25.448,25.448,0,0,0,.973-6.344h5.081A13.159,13.159,0,0,1,41.573,39.73Zm8.017,4.211a5.649,5.649,0,1,1-5.65,5.65A5.656,5.656,0,0,1,49.59,43.941ZM33.108,52.864a1.784,1.784,0,1,1-1.784-1.783,1.786,1.786,0,0,1,1.784,1.783Zm-24.676,7a5.65,5.65,0,1,1,5.65-5.65A5.614,5.614,0,0,1,8.432,59.866ZM23.265,32.217a25.646,25.646,0,0,0,.971,6.354,18.178,18.178,0,0,0-3.051,1.172,13.159,13.159,0,0,1-3-7.525ZM21.189,22.9a18.21,18.21,0,0,0,3.048,1.171,25.615,25.615,0,0,0-.973,6.359H18.183A13.159,13.159,0,0,1,21.189,22.9Zm-8.131-4.195a5.65,5.65,0,1,1,5.651-5.65,5.612,5.612,0,0,1-5.651,5.65Zm16.482-7.879a1.784,1.784,0,0,1,1.784-1.784h0a1.784,1.784,0,1,1-1.784,1.784ZM54.216,2.783a5.65,5.65,0,1,1-5.65,5.651,5.656,5.656,0,0,1,5.65-5.651Zm-22,27.65V25.018a26.786,26.786,0,0,0,4.566-.512,23.66,23.66,0,0,1,.917,5.926H32.216Zm0,7.194v-5.41H37.7a23.84,23.84,0,0,1-.934,5.92,26.847,26.847,0,0,0-4.55-.51Zm5.714,2.631a17.29,17.29,0,0,1,2.345.835A13.245,13.245,0,0,1,36,43.708a13.836,13.836,0,0,0,1.926-3.451Zm-5.714,4.165c1.559-.459,2.955-2.163,3.951-4.58a25.208,25.208,0,0,0-3.951-.43Zm-6.967-3.151A12.7,12.7,0,0,0,26.726,43.7a13.217,13.217,0,0,1-4.243-2.6,17.2,17.2,0,0,1,2.332-.835Q25.02,40.785,25.249,41.271Zm5.183-1.854a25.214,25.214,0,0,0-3.861.432c.093.224.189.445.29.659.986,2.086,2.24,3.443,3.571,3.882Zm0-7.2v5.416a26.57,26.57,0,0,0-4.462.513,23.73,23.73,0,0,1-.92-5.929Zm0-7.2v5.42H25.049a23.678,23.678,0,0,1,.92-5.934A26.77,26.77,0,0,0,30.433,25.013Zm-3.473-3.075a6.837,6.837,0,0,1,3.473-3.677v4.966a25.121,25.121,0,0,1-3.859-.432c.122-.294.25-.581.386-.857Zm-2.141.44c.168-.425.348-.836.541-1.228a12.533,12.533,0,0,1,1.363-2.2,13.247,13.247,0,0,0-4.235,2.594A17.215,17.215,0,0,0,24.819,22.378Zm12.569-1.232a12.514,12.514,0,0,0-1.362-2.2,13.25,13.25,0,0,1,4.248,2.606,17.311,17.311,0,0,1-2.339.833c-.171-.43-.352-.845-.547-1.242ZM32.216,18.23v5a25.208,25.208,0,0,0,3.962-.431c-.124-.3-.254-.588-.391-.867-.984-2-2.259-3.309-3.57-3.7Zm7.268,12.2a25.6,25.6,0,0,0-.969-6.349,18.209,18.209,0,0,0,3.056-1.167,13.16,13.16,0,0,1,2.995,7.515ZM51.6,30.063a1.771,1.771,0,0,1,1.261-.523h0a1.785,1.785,0,1,1-1.262.523ZM7.911,33.109a1.784,1.784,0,1,1,1.784-1.784A1.786,1.786,0,0,1,7.911,33.109ZM42.567,21.343l7.062-7.062a7.447,7.447,0,1,0-1.26-1.261L41.3,20.085a14.946,14.946,0,0,0-9.087-3.741V14.284a3.568,3.568,0,0,0-.891-7.022h0a3.568,3.568,0,0,0-.892,7.022V16.35a14.949,14.949,0,0,0-9.041,3.782L18.9,17.642A7.448,7.448,0,1,0,17.642,18.9L20.134,21.4A14.942,14.942,0,0,0,16.4,30.432h-5.03a3.568,3.568,0,1,0,0,1.784H16.4a14.938,14.938,0,0,0,3.738,9.037l-7.117,7.118a7.442,7.442,0,1,0,1.261,1.26l7.114-7.114A14.944,14.944,0,0,0,30.433,46.3v3.11a3.568,3.568,0,1,0,1.784,0v-3.1A14.945,14.945,0,0,0,41.3,42.565l2.442,2.442a7.445,7.445,0,1,0,1.261-1.262l-2.439-2.438a14.947,14.947,0,0,0,3.785-9.09h3.057a3.568,3.568,0,1,0,3.456-4.46h0a3.569,3.569,0,0,0-3.455,2.675H46.353a14.942,14.942,0,0,0-3.785-9.089Z" transform="translate(0)" fill-rule="evenodd"/>
    </g>
  </g>
</svg>
