<svg xmlns="http://www.w3.org/2000/svg" xmlns:xlink="http://www.w3.org/1999/xlink" width="113" height="113" viewBox="0 0 113 113">
  <defs>
    <filter id="Trazado_982547" x="0" y="0" width="113" height="113" filterUnits="userSpaceOnUse">
      <feOffset dy="3" input="SourceAlpha"/>
      <feGaussianBlur stdDeviation="3" result="blur"/>
      <feFlood flood-opacity="0.161"/>
      <feComposite operator="in" in2="blur"/>
      <feComposite in="SourceGraphic"/>
    </filter>
  </defs>
  <g id="Grupo_1164265" data-name="Grupo 1164265" transform="translate(-1217 -1107)">
    <g id="Grupo_1163951" data-name="Grupo 1163951" transform="translate(0 -1371)">
      <g id="Grupo_1161821" data-name="Grupo 1161821" transform="translate(1226 2484)">
        <g id="Grupo_1152576" data-name="Grupo 1152576" transform="translate(0)">
          <g id="Grupo_1148633" data-name="Grupo 1148633">
            <g id="Grupo_1148525" data-name="Grupo 1148525">
              <g transform="matrix(1, 0, 0, 1, -9, -6)" filter="url(#Trazado_982547)">
                <g id="Trazado_982547-2" data-name="Trazado 982547" transform="translate(9 6)" fill="#fbf2fb">
                  <path d="M 47.5 93.5 C 41.28937149047852 93.5 35.26533508300781 92.28397369384766 29.59518623352051 89.88570404052734 C 24.11771965026855 87.56893157958984 19.19813346862793 84.25196075439453 14.97309303283691 80.02691650390625 C 10.74804019927979 75.80186462402344 7.431066513061523 70.88229370117188 5.114293098449707 65.40481567382812 C 2.716026782989502 59.73468017578125 1.5 53.71062850952148 1.5 47.5 C 1.5 41.28937149047852 2.716026782989502 35.26533508300781 5.114293098449707 29.59518623352051 C 7.431066513061523 24.11771965026855 10.74804019927979 19.19813346862793 14.97309303283691 14.97309303283691 C 19.19813346862793 10.74804019927979 24.11771965026855 7.431066513061523 29.59518623352051 5.114293098449707 C 35.26533508300781 2.716026782989502 41.28937149047852 1.5 47.5 1.5 C 53.71062850952148 1.5 59.73468017578125 2.716026782989502 65.40481567382812 5.114293098449707 C 70.88229370117188 7.431066513061523 75.80186462402344 10.74804019927979 80.02691650390625 14.97309303283691 C 84.25196075439453 19.19813346862793 87.56893157958984 24.11771965026855 89.88570404052734 29.59518623352051 C 92.28397369384766 35.26533508300781 93.5 41.28937149047852 93.5 47.5 C 93.5 53.71062850952148 92.28397369384766 59.73468017578125 89.88570404052734 65.40481567382812 C 87.56893157958984 70.88229370117188 84.25196075439453 75.80186462402344 80.02691650390625 80.02691650390625 C 75.80186462402344 84.25196075439453 70.88229370117188 87.56893157958984 65.40481567382812 89.88570404052734 C 59.73468017578125 92.28397369384766 53.71062850952148 93.5 47.5 93.5 Z" stroke="none"/>
                  <path d="M 47.5 3 C 41.49121475219727 3 35.66376876831055 4.176155090332031 30.17950439453125 6.495796203613281 C 24.88084411621094 8.736953735351562 20.12152099609375 11.94598388671875 16.03375244140625 16.03375244140625 C 11.94598388671875 20.12152099609375 8.736953735351562 24.88084411621094 6.495796203613281 30.17950439453125 C 4.176155090332031 35.66376876831055 3 41.49121475219727 3 47.5 C 3 53.50878524780273 4.176155090332031 59.33623123168945 6.495796203613281 64.82049560546875 C 8.736953735351562 70.11915588378906 11.94598388671875 74.87847900390625 16.03375244140625 78.96624755859375 C 20.12152099609375 83.05401611328125 24.88084411621094 86.26304626464844 30.17950439453125 88.50419616699219 C 35.66376876831055 90.82384490966797 41.49121475219727 92 47.5 92 C 53.50878524780273 92 59.33623123168945 90.82384490966797 64.82049560546875 88.50419616699219 C 70.11915588378906 86.26304626464844 74.87847900390625 83.05401611328125 78.96624755859375 78.96624755859375 C 83.05401611328125 74.87847900390625 86.26304626464844 70.11915588378906 88.50419616699219 64.82049560546875 C 90.82384490966797 59.33623123168945 92 53.50878524780273 92 47.5 C 92 41.49121475219727 90.82384490966797 35.66376876831055 88.50419616699219 30.17950439453125 C 86.26304626464844 24.88084411621094 83.05401611328125 20.12152099609375 78.96624755859375 16.03375244140625 C 74.87847900390625 11.94598388671875 70.11915588378906 8.736953735351562 64.82049560546875 6.495796203613281 C 59.33623123168945 4.176155090332031 53.50878524780273 3 47.5 3 M 47.5 0 C 73.7335205078125 0 95 21.2664794921875 95 47.5 C 95 73.7335205078125 73.7335205078125 95 47.5 95 C 21.2664794921875 95 0 73.7335205078125 0 47.5 C 0 21.2664794921875 21.2664794921875 0 47.5 0 Z" stroke="none" fill="#e087dc"/>
                </g>
              </g>
            </g>
          </g>
        </g>
      </g>
    </g>
    <g id="layer1" transform="translate(1243.731 854.287)">
      <path id="path7234" d="M1.269,281.653v38.086H53.994V281.653Z" transform="translate(2.133 2.847)"/>
      <path id="rect5120" d="M1.8,282.183H50.624v34.179H1.8Z" transform="translate(3.557 4.272)" fill="#eee"/>
      <path id="path7238" d="M.476,280.595v5.86H59.061v-5.86Z" transform="translate(0 0)"/>
      <path id="rect5122" d="M1.006,281.124H55.684v1.953H1.006Z" transform="translate(1.424 1.423)" fill="#e0e0e0"/>
      <path id="path5124" d="M.476,291.444V293.4H59.061v-1.953Z" transform="translate(0 29.188)"/>
      <path id="path5126" d="M8.15,291.708v7.813H10.1v-7.813Z" transform="translate(20.646 29.898)"/>
      <path id="path7246" d="M12.476,293.491a5.572,5.572,0,1,0,5.572,5.572A5.588,5.588,0,0,0,12.476,293.491Z" transform="translate(17.293 34.695)"/>
      <path id="circle5128" d="M11.052,294.021a3.618,3.618,0,1,1-3.618,3.618A3.6,3.6,0,0,1,11.052,294.021Z" transform="translate(18.717 36.121)" fill="#8d6e63"/>
      <path id="path7250" d="M9.736,285.093V305.6H15.6V285.093Z" transform="translate(24.912 12.101)"/>
      <path id="path5131" d="M10.265,285.622h1.953v16.6H10.265Z" transform="translate(26.336 13.525)" fill="#39b54a"/>
      <path id="path7254" d="M11.853,283.507v26.359h5.86V283.507Z" transform="translate(30.608 7.834)"/>
      <path id="path5133" d="M12.383,284.036h1.953v22.452H12.383Z" transform="translate(32.032 9.258)" fill="#ed1c24"/>
      <path id="path7258" d="M5.5,285.622v18.553h5.86V285.622Z" transform="translate(13.525 13.525)"/>
      <path id="path5135" d="M6.033,286.151H7.986V300.8H6.033Z" transform="translate(14.95 14.948)" fill="#fbb03b"/>
      <path id="path7262" d="M7.619,284.036v24.406h5.86V284.036Z" transform="translate(19.216 9.258)"/>
      <path id="path5137" d="M8.148,284.564H10.1V305.07H8.148Z" transform="translate(20.64 10.678)" fill="#06aae9"/>
      <path id="path7266" d="M3.387,286.681v14.646h5.86V286.681Z" transform="translate(7.829 16.374)"/>
      <path id="path5139" d="M3.916,287.21H5.869v10.74H3.916Z" transform="translate(9.253 17.797)" fill="#ed1c24"/>
    </g>
  </g>
</svg>
