<svg xmlns="http://www.w3.org/2000/svg" xmlns:xlink="http://www.w3.org/1999/xlink" width="110" height="110" viewBox="0 0 110 110">
  <defs>
    <filter id="Trazado_982547" x="0" y="0" width="110" height="110" filterUnits="userSpaceOnUse">
      <feOffset dy="3" input="SourceAlpha"/>
      <feGaussianBlur stdDeviation="3" result="blur"/>
      <feFlood flood-opacity="0.161"/>
      <feComposite operator="in" in2="blur"/>
      <feComposite in="SourceGraphic"/>
    </filter>
    <clipPath id="clip-path">
      <path id="path3896" d="M0-682.665H55.768V-626.9H0Z" transform="translate(0 682.665)"/>
    </clipPath>
  </defs>
  <g id="Grupo_1164401" data-name="Grupo 1164401" transform="translate(-8895.818 -1469.077)">
    <g id="Grupo_1164144" data-name="Grupo 1164144" transform="translate(7783 -2326.923)">
      <g id="Grupo_1159367" data-name="Grupo 1159367" transform="translate(312.818 -542)">
        <g id="Grupo_1157015" data-name="Grupo 1157015" transform="translate(0 3549)">
          <g id="Grupo_1155792" data-name="Grupo 1155792" transform="translate(-1 -3894.666)">
            <g id="Grupo_1154703" data-name="Grupo 1154703" transform="translate(0 1465.666)">
              <g id="Grupo_1150789" data-name="Grupo 1150789" transform="translate(3 2320)">
                <g id="Grupo_1154212" data-name="Grupo 1154212" transform="translate(-236 -5809)">
                  <g id="Grupo_1152583" data-name="Grupo 1152583" transform="translate(1043 6713)">
                    <g id="Grupo_1146973" data-name="Grupo 1146973" transform="translate(0 0)">
                      <g id="Grupo_1146954" data-name="Grupo 1146954">
                        <g transform="matrix(1, 0, 0, 1, -9, -6)" filter="url(#Trazado_982547)">
                          <g id="Trazado_982547-2" data-name="Trazado 982547" transform="translate(9 6)" fill="#fceaf1">
                            <path d="M 46 90.49987030029297 C 39.99187850952148 90.49987030029297 34.16426849365234 89.32350921630859 28.67905426025391 87.00345611572266 C 23.38019943237305 84.76224517822266 18.62104034423828 81.55341339111328 14.53374671936035 77.46613311767578 C 10.44646644592285 73.37885284423828 7.237639904022217 68.61969757080078 4.996413230895996 63.32085418701172 C 2.676359891891479 57.83565521240234 1.5 52.008056640625 1.5 45.99993515014648 C 1.5 39.99181365966797 2.676359891891479 34.16421508789062 4.996413230895996 28.67901420593262 C 7.237639904022217 23.38017463684082 10.44646644592285 18.62101554870605 14.53374671936035 14.53373527526855 C 18.62104034423828 10.44645500183105 23.38019943237305 7.23762845993042 28.67905426025391 4.996415138244629 C 34.16426849365234 2.676361799240112 39.99187850952148 1.500001788139343 46 1.500001788139343 C 52.00812149047852 1.500001788139343 57.83573150634766 2.676361799240112 63.32094573974609 4.996415138244629 C 68.61979675292969 7.23762845993042 73.37895965576172 10.44645500183105 77.46625518798828 14.53373527526855 C 81.55353546142578 18.62101554870605 84.76235961914062 23.38017463684082 87.00358581542969 28.67901420593262 C 89.32363891601562 34.16421508789062 90.5 39.99181365966797 90.5 45.99993515014648 C 90.5 52.008056640625 89.32363891601562 57.83565521240234 87.00358581542969 63.32085418701172 C 84.76235961914062 68.61969757080078 81.55353546142578 73.37885284423828 77.46625518798828 77.46613311767578 C 73.37895965576172 81.55341339111328 68.61979675292969 84.76224517822266 63.32094573974609 87.00345611572266 C 57.83573150634766 89.32350921630859 52.00812149047852 90.49987030029297 46 90.49987030029297 Z" stroke="none"/>
                            <path d="M 46 2.999992370605469 C 40.1937141418457 2.999992370605469 34.56269836425781 4.136489868164062 29.26337051391602 6.377906799316406 C 24.14332580566406 8.543502807617188 19.54441070556641 11.64437866210938 15.59439849853516 15.59437561035156 C 11.64440155029297 19.54439544677734 8.54351806640625 24.14329528808594 6.377914428710938 29.26333618164062 C 4.136497497558594 34.56264877319336 3 40.19366455078125 3 45.99993515014648 C 3 51.80620574951172 4.136497497558594 57.43720626831055 6.377914428710938 62.73651885986328 C 8.54351806640625 67.8565673828125 11.64440155029297 72.45545959472656 15.59439849853516 76.40547943115234 C 19.54441070556641 80.35547637939453 24.14332580566406 83.45635223388672 29.26337051391602 85.6219482421875 C 34.56269836425781 87.86336517333984 40.1937141418457 88.99986267089844 46 88.99986267089844 C 51.8062858581543 88.99986267089844 57.43730163574219 87.86336517333984 62.73661422729492 85.6219482421875 C 67.85667419433594 83.45635223388672 72.45557403564453 80.35547637939453 76.40558624267578 76.40547943115234 C 80.35559844970703 72.45545959472656 83.45647430419922 67.8565673828125 85.6220703125 62.73651885986328 C 87.86350250244141 57.43720626831055 89 51.80620574951172 89 45.99993515014648 C 89 40.19366455078125 87.86350250244141 34.56264877319336 85.6220703125 29.26333618164062 C 83.45647430419922 24.14329528808594 80.35559844970703 19.54439544677734 76.40558624267578 15.59437561035156 C 72.45557403564453 11.64437866210938 67.85667419433594 8.543502807617188 62.73661422729492 6.377906799316406 C 57.43730163574219 4.136489868164062 51.8062858581543 2.999992370605469 46 2.999992370605469 M 46 -7.62939453125e-06 C 71.40509033203125 -7.62939453125e-06 92 20.59486389160156 92 45.99993515014648 C 92 71.40499114990234 71.40509033203125 91.99986267089844 46 91.99986267089844 C 20.59490203857422 91.99986267089844 0 71.40499114990234 0 45.99993515014648 C 0 20.59486389160156 20.59490203857422 -7.62939453125e-06 46 -7.62939453125e-06 Z" stroke="none" fill="#e93b81"/>
                          </g>
                        </g>
                      </g>
                    </g>
                  </g>
                </g>
              </g>
            </g>
          </g>
        </g>
      </g>
    </g>
    <g id="g3882" transform="translate(8922.934 2178.124)">
      <g id="g3884" transform="translate(18.283 -646.102)">
        <path id="path3886" d="M-31.732-24.488l6.778-2.178,6.778,2.178-.721,1.036L-17.4-22.31l2.049,5.774-9.6,2.178-9.6-2.178,2.049-5.774,1.478-1.095Z" transform="translate(34.555 26.667)" fill="#b5adb6"/>
      </g>
      <g id="g3888" transform="translate(20.332 -646.102)">
        <path id="path3890" d="M0-48.976H15.1l-.773-2.178L7.552-53.333.773-51.155Z" transform="translate(0 53.333)" fill="#a79ca7"/>
      </g>
      <g id="g3892" transform="translate(0 -682.665)">
        <g id="g3894" transform="translate(0 0)" clip-path="url(#clip-path)">
          <g id="g3900" transform="translate(11.298 46.693)">
            <path id="path3902" d="M-348.394-57.883h-29.9a1.089,1.089,0,0,1-1.089-1.089v-1.337a2.723,2.723,0,0,1,2.723-2.723h26.636a2.723,2.723,0,0,1,2.723,2.723v1.337a1.089,1.089,0,0,1-1.089,1.089" transform="translate(379.387 63.032)" fill="#efedef"/>
          </g>
          <g id="g3904" transform="translate(38.479 46.693)">
            <path id="path3906" d="M-36.732,0H-40a2.723,2.723,0,0,1,2.723,2.723V4.06a1.089,1.089,0,0,1-1.089,1.089H-35.1A1.089,1.089,0,0,0-34.009,4.06V2.723A2.723,2.723,0,0,0-36.732,0" transform="translate(40)" fill="#d7d0d6"/>
          </g>
          <g id="g3908" transform="translate(0.817 3.926)">
            <path id="path3910" d="M-565.677-391.365h-47.6A2.723,2.723,0,0,1-616-394.088v-29.369a2.723,2.723,0,0,1,2.723-2.723h47.6a2.723,2.723,0,0,1,2.723,2.723v29.369a2.723,2.723,0,0,1-2.723,2.723" transform="translate(615.999 426.18)" fill="#685e68"/>
          </g>
          <g id="g3912" transform="translate(9.335 10.303)">
            <path id="path3914" d="M-208.505-247.992a21.216,21.216,0,0,1-13.288-4.63,21.342,21.342,0,0,1-5.15-5.99.819.819,0,0,1,0-.82,21.341,21.341,0,0,1,5.15-5.99h0a21.382,21.382,0,0,1,26.577,0,21.342,21.342,0,0,1,5.15,5.99.818.818,0,0,1,0,.82,21.335,21.335,0,0,1-5.15,5.99,21.219,21.219,0,0,1-13.288,4.63" transform="translate(227.054 270.053)" fill="#efedef"/>
          </g>
          <g id="g3916" transform="translate(48.96 3.926)">
            <path id="path3918" d="M-36.732,0H-40a2.723,2.723,0,0,1,2.723,2.723V32.092A2.723,2.723,0,0,1-40,34.815h3.268a2.723,2.723,0,0,0,2.723-2.723V2.723A2.723,2.723,0,0,0-36.732,0" transform="translate(40)" fill="#554e56"/>
          </g>
          <g id="g3920" transform="translate(16.853 10.303)">
            <path id="path3922" d="M-235.749-124c0,6.092-3.849,11.031-9.941,11.031A11.031,11.031,0,0,1-256.721-124a11.031,11.031,0,0,1,11.031-11.031c6.092,0,9.941,4.939,9.941,11.031" transform="translate(256.721 135.028)" fill="#8ac9fe"/>
          </g>
          <g id="g3924" transform="translate(26.795 10.303)">
            <path id="path3926" d="M-12.244,0q-.551,0-1.089.053A11.032,11.032,0,0,1-3.392,11.031a11.032,11.032,0,0,1-9.941,10.977q.538.053,1.089.054A11.031,11.031,0,0,0-1.213,11.031,11.031,11.031,0,0,0-12.244,0" transform="translate(13.333)" fill="#60b8fe"/>
          </g>
          <g id="g3928" transform="translate(22.625 16.074)">
            <path id="path3930" d="M-118.241-59.121a5.259,5.259,0,0,1-5.259,5.259,5.259,5.259,0,0,1-5.259-5.259A5.259,5.259,0,0,1-123.5-64.38a5.259,5.259,0,0,1,5.259,5.259" transform="translate(128.76 64.38)" fill="#fed402"/>
          </g>
          <g id="g3932" transform="translate(18.283 38.741)">
            <path id="path3934" d="M-31.732,0h13.557l2.823,7.952h-19.2Z" transform="translate(34.555)" fill="none" stroke="#000" stroke-linecap="round" stroke-linejoin="round" stroke-miterlimit="10" stroke-width="1.5"/>
          </g>
          <g id="g3936" transform="translate(9.335 10.303)">
            <path id="path3938" d="M-208.505-247.992a21.216,21.216,0,0,1-13.288-4.63,21.342,21.342,0,0,1-5.15-5.99.819.819,0,0,1,0-.82,21.341,21.341,0,0,1,5.15-5.99h0a21.382,21.382,0,0,1,26.577,0,21.342,21.342,0,0,1,5.15,5.99.818.818,0,0,1,0,.82,21.335,21.335,0,0,1-5.15,5.99A21.219,21.219,0,0,1-208.505-247.992Z" transform="translate(227.054 270.053)" fill="none" stroke="#000" stroke-linecap="round" stroke-linejoin="round" stroke-miterlimit="10" stroke-width="1.5"/>
          </g>
          <g id="g3940" transform="translate(0.817 17.854)">
            <path id="path3942" d="M-481.167-234.792h-40.081a2.723,2.723,0,0,1-2.723-2.723v-18.164" transform="translate(523.971 255.679)" fill="none" stroke="#000" stroke-linecap="round" stroke-linejoin="round" stroke-miterlimit="10" stroke-width="1.5"/>
          </g>
          <g id="g3944" transform="translate(0.817 3.926)">
            <path id="path3946" d="M0-116.551V-124.2a2.723,2.723,0,0,1,2.723-2.723H51.411a2.723,2.723,0,0,1,2.723,2.723v29.369A2.723,2.723,0,0,1,51.411-92.1H46.364" transform="translate(0 126.92)" fill="none" stroke="#000" stroke-linecap="round" stroke-linejoin="round" stroke-miterlimit="10" stroke-width="1.5"/>
          </g>
          <g id="g3948" transform="translate(11.299 46.693)">
            <path id="path3950" d="M-273.361-57.884H-296.59a1.089,1.089,0,0,1-1.089-1.089V-60.31a2.723,2.723,0,0,1,2.723-2.723h27.725a2.723,2.723,0,0,1,2.723,2.723v1.337a1.089,1.089,0,0,1-1.089,1.089h-4.2" transform="translate(297.679 63.033)" fill="none" stroke="#000" stroke-linecap="round" stroke-linejoin="round" stroke-miterlimit="10" stroke-width="1.5"/>
          </g>
          <g id="g3952" transform="translate(16.853 10.303)">
            <path id="path3954" d="M-247.993-124a11.031,11.031,0,0,1-11.031,11.031A11.031,11.031,0,0,1-270.054-124a11.031,11.031,0,0,1,11.031-11.031A11.031,11.031,0,0,1-247.993-124Z" transform="translate(270.054 135.028)" fill="none" stroke="#000" stroke-linecap="round" stroke-linejoin="round" stroke-miterlimit="10" stroke-width="1.5"/>
          </g>
          <g id="g3956" transform="translate(22.625 16.074)">
            <path id="path3958" d="M-118.241-59.121a5.259,5.259,0,0,1-5.259,5.259,5.259,5.259,0,0,1-5.259-5.259A5.259,5.259,0,0,1-123.5-64.38,5.259,5.259,0,0,1-118.241-59.121Z" transform="translate(128.76 64.38)" fill="none" stroke="#000" stroke-linecap="round" stroke-linejoin="round" stroke-miterlimit="10" stroke-width="1.5"/>
          </g>
        </g>
      </g>
    </g>
  </g>
</svg>
