<svg xmlns="http://www.w3.org/2000/svg" xmlns:xlink="http://www.w3.org/1999/xlink" width="110" height="110" viewBox="0 0 110 110">
  <defs>
    <filter id="Trazado_982547" x="0" y="0" width="110" height="110" filterUnits="userSpaceOnUse">
      <feOffset dy="3" input="SourceAlpha"/>
      <feGaussianBlur stdDeviation="3" result="blur"/>
      <feFlood flood-opacity="0.161"/>
      <feComposite operator="in" in2="blur"/>
      <feComposite in="SourceGraphic"/>
    </filter>
  </defs>
  <g id="Grupo_1164404" data-name="Grupo 1164404" transform="translate(-9588.137 -1464.244)">
    <g id="Grupo_1164146" data-name="Grupo 1164146" transform="translate(8788.137 -2331.756)">
      <g id="Grupo_1159364" data-name="Grupo 1159364" transform="translate(0 -542)">
        <g id="Grupo_1157015" data-name="Grupo 1157015" transform="translate(0 3549)">
          <g id="Grupo_1155792" data-name="Grupo 1155792" transform="translate(-1 -3894.666)">
            <g id="Grupo_1154703" data-name="Grupo 1154703" transform="translate(0 1465.666)">
              <g id="Grupo_1150789" data-name="Grupo 1150789" transform="translate(3 2320)">
                <g id="Grupo_1154212" data-name="Grupo 1154212" transform="translate(-236 -5809)">
                  <g id="Grupo_1152583" data-name="Grupo 1152583" transform="translate(1043 6713)">
                    <g id="Grupo_1146973" data-name="Grupo 1146973" transform="translate(0 0)">
                      <g id="Grupo_1146954" data-name="Grupo 1146954">
                        <g transform="matrix(1, 0, 0, 1, -9, -6)" filter="url(#Trazado_982547)">
                          <g id="Trazado_982547-2" data-name="Trazado 982547" transform="translate(9 6)" fill="#fceaf1">
                            <path d="M 46 90.49987030029297 C 39.99187850952148 90.49987030029297 34.16426849365234 89.32350921630859 28.67905426025391 87.00345611572266 C 23.38019943237305 84.76224517822266 18.62104034423828 81.55341339111328 14.53374671936035 77.46613311767578 C 10.44646644592285 73.37885284423828 7.237639904022217 68.61969757080078 4.996413230895996 63.32085418701172 C 2.676359891891479 57.83565521240234 1.5 52.008056640625 1.5 45.99993515014648 C 1.5 39.99181365966797 2.676359891891479 34.16421508789062 4.996413230895996 28.67901420593262 C 7.237639904022217 23.38017463684082 10.44646644592285 18.62101554870605 14.53374671936035 14.53373527526855 C 18.62104034423828 10.44645500183105 23.38019943237305 7.23762845993042 28.67905426025391 4.996415138244629 C 34.16426849365234 2.676361799240112 39.99187850952148 1.500001788139343 46 1.500001788139343 C 52.00812149047852 1.500001788139343 57.83573150634766 2.676361799240112 63.32094573974609 4.996415138244629 C 68.61979675292969 7.23762845993042 73.37895965576172 10.44645500183105 77.46625518798828 14.53373527526855 C 81.55353546142578 18.62101554870605 84.76235961914062 23.38017463684082 87.00358581542969 28.67901420593262 C 89.32363891601562 34.16421508789062 90.5 39.99181365966797 90.5 45.99993515014648 C 90.5 52.008056640625 89.32363891601562 57.83565521240234 87.00358581542969 63.32085418701172 C 84.76235961914062 68.61969757080078 81.55353546142578 73.37885284423828 77.46625518798828 77.46613311767578 C 73.37895965576172 81.55341339111328 68.61979675292969 84.76224517822266 63.32094573974609 87.00345611572266 C 57.83573150634766 89.32350921630859 52.00812149047852 90.49987030029297 46 90.49987030029297 Z" stroke="none"/>
                            <path d="M 46 2.999992370605469 C 40.1937141418457 2.999992370605469 34.56269836425781 4.136489868164062 29.26337051391602 6.377906799316406 C 24.14332580566406 8.543502807617188 19.54441070556641 11.64437866210938 15.59439849853516 15.59437561035156 C 11.64440155029297 19.54439544677734 8.54351806640625 24.14329528808594 6.377914428710938 29.26333618164062 C 4.136497497558594 34.56264877319336 3 40.19366455078125 3 45.99993515014648 C 3 51.80620574951172 4.136497497558594 57.43720626831055 6.377914428710938 62.73651885986328 C 8.54351806640625 67.8565673828125 11.64440155029297 72.45545959472656 15.59439849853516 76.40547943115234 C 19.54441070556641 80.35547637939453 24.14332580566406 83.45635223388672 29.26337051391602 85.6219482421875 C 34.56269836425781 87.86336517333984 40.1937141418457 88.99986267089844 46 88.99986267089844 C 51.8062858581543 88.99986267089844 57.43730163574219 87.86336517333984 62.73661422729492 85.6219482421875 C 67.85667419433594 83.45635223388672 72.45557403564453 80.35547637939453 76.40558624267578 76.40547943115234 C 80.35559844970703 72.45545959472656 83.45647430419922 67.8565673828125 85.6220703125 62.73651885986328 C 87.86350250244141 57.43720626831055 89 51.80620574951172 89 45.99993515014648 C 89 40.19366455078125 87.86350250244141 34.56264877319336 85.6220703125 29.26333618164062 C 83.45647430419922 24.14329528808594 80.35559844970703 19.54439544677734 76.40558624267578 15.59437561035156 C 72.45557403564453 11.64437866210938 67.85667419433594 8.543502807617188 62.73661422729492 6.377906799316406 C 57.43730163574219 4.136489868164062 51.8062858581543 2.999992370605469 46 2.999992370605469 M 46 -7.62939453125e-06 C 71.40509033203125 -7.62939453125e-06 92 20.59486389160156 92 45.99993515014648 C 92 71.40499114990234 71.40509033203125 91.99986267089844 46 91.99986267089844 C 20.59490203857422 91.99986267089844 0 71.40499114990234 0 45.99993515014648 C 0 20.59486389160156 20.59490203857422 -7.62939453125e-06 46 -7.62939453125e-06 Z" stroke="none" fill="#e93b81"/>
                          </g>
                        </g>
                      </g>
                    </g>
                  </g>
                </g>
              </g>
            </g>
          </g>
        </g>
      </g>
    </g>
    <g id="fair-responsibility_18493499" transform="translate(9607.215 1483.001)">
      <path id="Trazado_999820" data-name="Trazado 999820" d="M333.8,129.043a6.895,6.895,0,1,1-13.79,0Z" transform="translate(-276.601 -108.651)" fill="#f7cb6c" fill-rule="evenodd"/>
      <path id="Trazado_999821" data-name="Trazado 999821" d="M134.531,129.043a6.895,6.895,0,1,1-13.79,0Z" transform="translate(-100.64 -108.651)" fill="#f7cb6c" fill-rule="evenodd"/>
      <path id="Trazado_999822" data-name="Trazado 999822" d="M46.843,349.481c-.106-1.433-1.258-2.41-3.8-2.434-4.05-.038-7.692-.36-11.769-.788-6.065-.422-10.767,4.585-14.54,8.758l8.736,8.736c4.829-3.924,7.016-3.1,11.023-3.165,1.862-.029,3.977.333,7.185-1.11l17.144-7.8a23.719,23.719,0,0,0,3.517-2.041c.977-2.358-1.031-4.6-6.845-2.311-3,1.178-6.59,2.359-9.065,3.032-.222.06-1.09.288-1.8.471a2.77,2.77,0,0,0,.213-1.351Z" transform="translate(-8.797 -300.436)" fill="#ffcec0" fill-rule="evenodd"/>
      <path id="Trazado_999823" data-name="Trazado 999823" d="M31.74,21.984a4.884,4.884,0,0,1-9.484,0Zm-4.69-9.028,3.015,6.688h-6.03Zm23.2,0,3.015,6.688H47.241l3.014-6.688ZM50.306,25.7a4.892,4.892,0,0,1-4.742-3.714h9.484A4.891,4.891,0,0,1,50.306,25.7ZM20.944,19.644a1.17,1.17,0,0,0-1.17,1.17,7.223,7.223,0,1,0,14.446,0,1.169,1.169,0,0,0-1.17-1.17h-.42l-3.939-8.739a15.037,15.037,0,0,0,3.495-.75c1.886-.57,3.41-1.031,5.3-.049V23.519a1.17,1.17,0,0,0,2.34,0V10.107c1.885-.982,3.41-.521,5.3.049a15.038,15.038,0,0,0,3.494.75l-3.938,8.739h-.421a1.17,1.17,0,0,0-1.17,1.17,7.223,7.223,0,1,0,14.446,0,1.169,1.169,0,0,0-1.17-1.17h-.524L51.713,10.5q.385-.126.784-.3a1.17,1.17,0,0,0-.935-2.144C49.384,9,47.721,8.5,45.8,7.917c-1.763-.534-3.713-1.123-5.974-.351v-.4a1.17,1.17,0,0,0-2.34,0v.4c-2.26-.772-4.21-.183-5.973.351C29.583,8.5,27.92,9,25.741,8.054a1.169,1.169,0,1,0-.934,2.144q.4.175.784.3l-4.122,9.146h-.524Zm-4.263-8.19-.855.312a1.17,1.17,0,1,1-.8-2.2l4.188-1.526a1.169,1.169,0,0,1,1.567,1.019l.314,4.546a1.17,1.17,0,0,1-2.334.161l-.076-1.1a23.946,23.946,0,0,0,.927,27.47,1.17,1.17,0,1,1-1.871,1.4,26.286,26.286,0,0,1-1.06-30.087Zm46.527,28.97a1.17,1.17,0,0,1-.7,1.5l-4.187,1.526a1.17,1.17,0,0,1-1.568-1.019l-.313-4.546a1.17,1.17,0,0,1,2.333-.162l.076,1.1a23.944,23.944,0,0,0-.927-27.47,1.17,1.17,0,1,1,1.87-1.4,26.284,26.284,0,0,1,1.061,30.086l.855-.312a1.17,1.17,0,0,1,1.5.7ZM56.066,45.9a3.359,3.359,0,0,1,.553,3.751,1.169,1.169,0,0,1-.348.463,24.455,24.455,0,0,1-3.734,2.18l-.03.014-17.142,7.8a13.91,13.91,0,0,1-6.693,1.223c-.336-.007-.654-.013-.957-.008-.667.009-1.272,0-1.857-.015-2.847-.062-4.728-.1-8.446,2.917a1.17,1.17,0,1,1-1.475-1.816c4.384-3.562,6.973-3.507,9.971-3.441.563.013,1.147.024,1.77.015.345,0,.683,0,1.042.009a11.585,11.585,0,0,0,5.68-1.016l17.122-7.787a27.051,27.051,0,0,0,3.029-1.708.961.961,0,0,0-.156-.94c-.534-.543-2.234-.753-5.275.442-2.879,1.132-6.484,2.338-9.185,3.072-.235.064-.8.213-1.33.351a3.853,3.853,0,0,1-.448.559c-2.137,2.2-6.827,2.192-11.056,2.009-.415-.017-.773-.034-1.055-.039a1.169,1.169,0,0,1,.025-2.338H26.1c.308.006.678.023,1.106.041,2.3.1,7.69.332,9.276-1.3a1.435,1.435,0,0,0,.4-1.2c-.065-.881-.955-1.334-2.645-1.349-3.942-.038-7.461-.331-11.858-.792-5.653-.38-10.228,4.679-13.569,8.375A1.17,1.17,0,0,1,7.072,53.8a42.548,42.548,0,0,1,6.6-6.269,13.4,13.4,0,0,1,8.89-2.87.257.257,0,0,1,.041,0c4.338.455,7.8.745,11.657.782,4.075.037,4.824,2.284,4.945,3.388l.122-.033c2.585-.7,6.179-1.905,8.944-2.992,4.836-1.9,6.962-.757,7.8.1ZM38.653,39.844a4.4,4.4,0,1,1,4.4-4.4A4.4,4.4,0,0,1,38.653,39.844Zm8.934-2.785-1.278.252-.921,2.222.725,1.083a.438.438,0,0,1-.054.557l-1.675,1.675a.438.438,0,0,1-.558.053l-1.081-.725L40.52,43.1l-.251,1.279a.437.437,0,0,1-.433.356H37.467a.437.437,0,0,1-.432-.356L36.783,43.1l-2.223-.921-1.082.725a.437.437,0,0,1-.557-.053l-1.675-1.675a.436.436,0,0,1-.054-.557l.726-1.083L31,37.312l-1.278-.252a.438.438,0,0,1-.356-.433V34.258a.436.436,0,0,1,.356-.432L31,33.573l.921-2.222-.726-1.084a.436.436,0,0,1,.054-.557l1.675-1.675a.436.436,0,0,1,.557-.054l1.082.725,2.223-.921.252-1.278a.437.437,0,0,1,.432-.356h2.369a.437.437,0,0,1,.433.356l.251,1.278,2.224.921,1.081-.725a.438.438,0,0,1,.558.054l1.675,1.675a.438.438,0,0,1,.054.557l-.725,1.084.921,2.222,1.278.253a.438.438,0,0,1,.356.432v2.368A.439.439,0,0,1,47.586,37.06Z" transform="translate(0 0)" fill-rule="evenodd"/>
    </g>
  </g>
</svg>
